#N canvas 389 164 527 312 12;
#X text 17 11 VERISON 0;
#X text 118 12 ABSTRACTION TO BRING MIDI INFO into subpatches parametrized by subpatch number (manually), f 50;
#X obj 19 53 loadbang;
#X obj 19 78 f \$1;
#X obj 19 103 print added-input-midi;
#X obj 19 206 bng 20 250 50 0 empty empty empty 0 -10 0 12 #fcfcfc #000000 #000000;
#X obj 128 205 bng 20 250 50 0 empty empty empty 0 -10 0 12 #fcfcfc #000000 #000000;
#X obj 256 205 bng 20 250 50 0 empty empty empty 0 -10 0 12 #fcfcfc #000000 #000000;
#X text 19 156 For test Clip 7;
#X obj 19 181 r \$1-rec-queue;
#X obj 128 180 r \$1-launch-queue;
#X obj 256 180 r \$1-loop-on;
#X obj 19 265 outlet;
#X obj 67 265 outlet;
#X obj 116 265 outlet;
#X connect 2 0 3 0;
#X connect 3 0 4 0;
#X connect 5 0 12 0;
#X connect 6 0 13 0;
#X connect 7 0 14 0;
#X connect 9 0 5 0;
#X connect 10 0 6 0;
#X connect 11 0 7 0;
