#N canvas 203 72 505 447 12;
#N canvas 664 244 560 558 sample-loading 0;
#X obj 15 91 openpanel;
#X obj 187 171 f \$0;
#X obj 155 33 loadbang;
#X obj 15 231 pack s f, f 25;
#X obj 187 146 bng 20 250 50 0 empty empty empty 0 -10 0 12 #fcfcfc #000000 #000000;
#X listbox 15 257 74 0 0 0 - - - 0;
#X obj 15 339 soundfiler, f 31;
#X floatatom 15 396 8 0 0 1 number\ of\ samples - - 0;
#X listbox 229 395 20 0 0 0 - - - 0;
#X obj 229 419 unpack f;
#X msg 15 313 read -resize \$1 \$2-sample;
#X floatatom 194 196 5 0 0 0 - - - 0;
#X text 291 418 Sample Rate;
#X floatatom 113 467 9 0 0 1 durarion\ (ms) - - 0;
#X obj 113 444 expr 1000*$f1/$f2;
#X floatatom 15 495 8 0 0 0 - - - 0;
#X obj 242 444 s \$0-sample-SR;
#X obj 15 4 r \$0-load;
#X obj 25 366 bng 20 250 50 0 \$0-loaded empty empty 0 -10 0 12 #fcfcfc #000000 #000000;
#X obj 255 312 unpack s;
#X obj 155 81 t b b;
#X obj 155 58 bng 20 250 50 0 empty empty empty 0 -10 0 12 #fcfcfc #000000 #000000;
#X obj 113 491 s \$0-sample-dur;
#X obj 15 472 expr $f1-1;
#X obj 15 519 s \$0-last-sample;
#X obj 255 337 s \$0-loaded-sample;
#X obj 29 120 r \$0-i-loaded-sample;
#X text 390 337 send for savestate;
#X obj 29 143 select symbol;
#X msg 71 179 no sample;
#X obj 71 204 print;
#X msg 15 36 symbol /home/mobin/Documents/Sounds, f 16;
#X connect 0 0 3 0;
#X connect 1 0 3 1;
#X connect 1 0 11 0;
#X connect 2 0 21 0;
#X connect 3 0 5 0;
#X connect 4 0 1 0;
#X connect 5 0 10 0;
#X connect 5 0 19 0;
#X connect 6 0 7 0;
#X connect 6 0 18 0;
#X connect 6 1 8 0;
#X connect 7 0 14 0;
#X connect 7 0 23 0;
#X connect 8 0 9 0;
#X connect 9 0 14 1;
#X connect 9 0 16 0;
#X connect 10 0 6 0;
#X connect 13 0 22 0;
#X connect 14 0 13 0;
#X connect 15 0 24 0;
#X connect 17 0 31 0;
#X connect 19 0 25 0;
#X connect 20 1 4 0;
#X connect 21 0 20 0;
#X connect 23 0 15 0;
#X connect 26 0 28 0;
#X connect 28 0 29 0;
#X connect 28 1 3 0;
#X connect 29 0 30 0;
#X connect 31 0 0 0;
#X restore 23 306 pd sample-loading;
#N canvas 683 315 477 470 sample-playing 0;
#X obj 14 9 r \$0-play;
#X obj 14 404 outlet~;
#X obj 14 350 *~;
#X obj 92 288 r \$0-velocity;
#X obj 192 288 loadbang;
#X msg 192 311 1;
#X floatatom 92 331 5 0 1 0 - - - 0;
#X obj 14 37 bng 20 250 50 0 empty empty empty 0 -10 0 12 #fcfcfc #000000 #000000;
#X obj 14 62 f;
#X obj 46 62 + 1;
#X floatatom 14 112 5 0 0 0 - - - 0;
#N canvas 382 242 423 363 channel 0;
#X obj 31 223 line~;
#X obj 31 246 tabread~ \$0-sample;
#X obj 32 307 outlet~;
#X obj 31 159 pack 0 0 0;
#X msg 31 187 \$1 \, \$2 \$3;
#X text 110 158 Start index - End index - Duration (ms);
#X obj 98 134 r \$0-sample-dur;
#X obj 64 110 r \$0-last-sample;
#X text 32 23 Make a simple player and clone it for polyphony;
#X obj 31 49 inlet;
#X obj 31 84 t b b;
#X obj 31 111 bng 20 250 50 0 empty empty empty 0 -10 0 12 #fcfcfc #000000 #000000;
#X connect 0 0 1 0;
#X connect 1 0 2 0;
#X connect 3 0 4 0;
#X connect 4 0 0 0;
#X connect 6 0 3 2;
#X connect 7 0 3 1;
#X connect 9 0 10 0;
#X connect 10 0 11 0;
#X connect 11 0 3 0;
#X restore 14 180 pd channel;
#X obj 14 87 % 6;
#N canvas 382 242 423 363 channel 0;
#X obj 31 223 line~;
#X obj 31 246 tabread~ \$0-sample;
#X obj 32 307 outlet~;
#X obj 31 159 pack 0 0 0;
#X msg 31 187 \$1 \, \$2 \$3;
#X text 110 158 Start index - End index - Duration (ms);
#X obj 98 134 r \$0-sample-dur;
#X obj 64 110 r \$0-last-sample;
#X text 32 23 Make a simple player and clone it for polyphony;
#X obj 31 49 inlet;
#X obj 31 84 t b b;
#X obj 31 111 bng 20 250 50 0 empty empty empty 0 -10 0 12 #fcfcfc #000000 #000000;
#X connect 0 0 1 0;
#X connect 1 0 2 0;
#X connect 3 0 4 0;
#X connect 4 0 0 0;
#X connect 6 0 3 2;
#X connect 7 0 3 1;
#X connect 9 0 10 0;
#X connect 10 0 11 0;
#X connect 11 0 3 0;
#X restore 24 190 pd channel;
#N canvas 382 242 423 363 channel 0;
#X obj 31 223 line~;
#X obj 31 246 tabread~ \$0-sample;
#X obj 32 307 outlet~;
#X obj 31 159 pack 0 0 0;
#X msg 31 187 \$1 \, \$2 \$3;
#X text 110 158 Start index - End index - Duration (ms);
#X obj 98 134 r \$0-sample-dur;
#X obj 64 110 r \$0-last-sample;
#X text 32 23 Make a simple player and clone it for polyphony;
#X obj 31 49 inlet;
#X obj 31 84 t b b;
#X obj 31 111 bng 20 250 50 0 empty empty empty 0 -10 0 12 #fcfcfc #000000 #000000;
#X connect 0 0 1 0;
#X connect 1 0 2 0;
#X connect 3 0 4 0;
#X connect 4 0 0 0;
#X connect 6 0 3 2;
#X connect 7 0 3 1;
#X connect 9 0 10 0;
#X connect 10 0 11 0;
#X connect 11 0 3 0;
#X restore 34 200 pd channel;
#N canvas 382 242 423 363 channel 0;
#X obj 31 223 line~;
#X obj 31 246 tabread~ \$0-sample;
#X obj 32 307 outlet~;
#X obj 31 159 pack 0 0 0;
#X msg 31 187 \$1 \, \$2 \$3;
#X text 110 158 Start index - End index - Duration (ms);
#X obj 98 134 r \$0-sample-dur;
#X obj 64 110 r \$0-last-sample;
#X text 32 23 Make a simple player and clone it for polyphony;
#X obj 31 49 inlet;
#X obj 31 84 t b b;
#X obj 31 111 bng 20 250 50 0 empty empty empty 0 -10 0 12 #fcfcfc #000000 #000000;
#X connect 0 0 1 0;
#X connect 1 0 2 0;
#X connect 3 0 4 0;
#X connect 4 0 0 0;
#X connect 6 0 3 2;
#X connect 7 0 3 1;
#X connect 9 0 10 0;
#X connect 10 0 11 0;
#X connect 11 0 3 0;
#X restore 44 210 pd channel;
#N canvas 382 242 423 363 channel 0;
#X obj 31 223 line~;
#X obj 31 246 tabread~ \$0-sample;
#X obj 32 307 outlet~;
#X obj 31 159 pack 0 0 0;
#X msg 31 187 \$1 \, \$2 \$3;
#X text 110 158 Start index - End index - Duration (ms);
#X obj 98 134 r \$0-sample-dur;
#X obj 64 110 r \$0-last-sample;
#X text 32 23 Make a simple player and clone it for polyphony;
#X obj 31 49 inlet;
#X obj 31 84 t b b;
#X obj 31 111 bng 20 250 50 0 empty empty empty 0 -10 0 12 #fcfcfc #000000 #000000;
#X connect 0 0 1 0;
#X connect 1 0 2 0;
#X connect 3 0 4 0;
#X connect 4 0 0 0;
#X connect 6 0 3 2;
#X connect 7 0 3 1;
#X connect 9 0 10 0;
#X connect 10 0 11 0;
#X connect 11 0 3 0;
#X restore 54 220 pd channel;
#N canvas 382 242 423 363 channel 0;
#X obj 31 223 line~;
#X obj 31 246 tabread~ \$0-sample;
#X obj 32 307 outlet~;
#X obj 31 159 pack 0 0 0;
#X msg 31 187 \$1 \, \$2 \$3;
#X text 110 158 Start index - End index - Duration (ms);
#X obj 98 134 r \$0-sample-dur;
#X obj 64 110 r \$0-last-sample;
#X text 32 23 Make a simple player and clone it for polyphony;
#X obj 31 49 inlet;
#X obj 31 84 t b b;
#X obj 31 111 bng 20 250 50 0 empty empty empty 0 -10 0 12 #fcfcfc #000000 #000000;
#X connect 0 0 1 0;
#X connect 1 0 2 0;
#X connect 3 0 4 0;
#X connect 4 0 0 0;
#X connect 6 0 3 2;
#X connect 7 0 3 1;
#X connect 9 0 10 0;
#X connect 10 0 11 0;
#X connect 11 0 3 0;
#X restore 64 230 pd channel;
#X obj 14 137 sel 0 1 2 3 4 5, f 40;
#X connect 0 0 7 0;
#X connect 2 0 1 0;
#X connect 3 0 6 0;
#X connect 4 0 5 0;
#X connect 5 0 6 0;
#X connect 6 0 2 1;
#X connect 7 0 8 0;
#X connect 8 0 9 0;
#X connect 8 0 12 0;
#X connect 9 0 8 1;
#X connect 10 0 18 0;
#X connect 11 0 2 0;
#X connect 12 0 10 0;
#X connect 13 0 2 0;
#X connect 14 0 2 0;
#X connect 15 0 2 0;
#X connect 16 0 2 0;
#X connect 17 0 2 0;
#X connect 18 0 11 0;
#X connect 18 1 13 0;
#X connect 18 2 14 0;
#X connect 18 3 15 0;
#X connect 18 4 16 0;
#X connect 18 5 17 0;
#X restore 23 346 pd sample-playing;
#N canvas 521 304 461 158 initializations 0;
#X msg 16 80 \; \$1-sample edit 0 \;;
#X obj 16 57 f \$0;
#X obj 16 34 bng 20 250 50 0 empty empty empty 0 -10 0 12 #fcfcfc #000000 #000000;
#X obj 16 11 loadbang;
#X obj 165 59 samplerate~;
#X floatatom 165 84 6 0 0 0 - - - 0;
#X obj 165 36 bng 20 250 50 0 empty empty empty 0 -10 0 12 #fcfcfc #000000 #000000;
#X obj 165 11 loadbang;
#X connect 1 0 0 0;
#X connect 2 0 1 0;
#X connect 3 0 2 0;
#X connect 4 0 5 0;
#X connect 6 0 4 0;
#X connect 7 0 6 0;
#X restore 23 254 pd initializations;
#N canvas 52 20 1854 977 (subpatch) 0;
#X array \$0-sample 462864 float 2;
#A color 0;
#A width 2;
#X coords 0 1 462864 -1 88 88 1 0 0;
#X restore 105 120 graph;
#X obj 197 120 bng 20 250 50 0 \$0-load \$0-i-load empty 23 10 0 10 #feffc6 #000000 #000000;
#X obj 197 143 bng 20 250 50 0 \$0-play \$0-i-play empty 25 10 0 12 #00ff04 #000000 #000000;
#X obj 20 38 inlet;
#X obj 100 37 inlet;
#X obj 20 85 s \$0-play;
#X obj 100 62 s \$0-velocity;
#N canvas 711 268 533 507 parameter-handling 0;
#X obj 34 161 text define -k \$0-parameters;
#A set /home/mobin/Documents/Sounds/raw-samples/kalhor-0001.wav \;;
#X obj 33 220 text set \$0-parameters 0 0;
#X obj 73 254 savestate;
#X obj 133 307 text sequence \$0-parameters;
#X msg 133 282 line 0 \, step;
#X text 32 33 Reading parametes into text \$0-parameters \, use savestate to save abstraction parameters together with saving parent patch and loading thenm next time parent path is open, f 28;
#X obj 73 350 text set \$0-parameters 0 0;
#X msg 34 422 0;
#X obj 33 192 r \$0-loaded-sample;
#X obj 34 398 del 200;
#X obj 34 474 s \$0-i-loaded-sample;
#X obj 34 447 text get \$0-parameters 0 1;
#X obj 34 370 bng 20 250 50 0 empty empty empty 0 -10 0 12 #fcfcfc #000000 #000000;
#X connect 2 0 6 0;
#X connect 2 0 12 0;
#X connect 2 1 4 0;
#X connect 3 0 2 0;
#X connect 4 0 3 0;
#X connect 7 0 11 0;
#X connect 8 0 1 0;
#X connect 9 0 7 0;
#X connect 11 0 10 0;
#X connect 12 0 9 0;
#X restore 23 280 pd parameter-handling;
#X obj 23 398 outlet~;
#X text 18 7 VERSION 0;
#X obj 77 120 cnv 20 1 88 empty \$0-Flash empty 20 12 0 12 #a0a0a0 #fcfcfc 0;
#X obj 358 72 loadbang;
#X obj 358 122 s \$0-Flash;
#X obj 20 61 bng 20 250 50 0 empty empty empty 0 -10 0 12 #fcfcfc #000000 #000000;
#X obj 266 73 r \$0-play;
#X obj 266 98 t b b;
#X obj 266 128 del 30;
#X obj 298 209 s \$0-Flash;
#X msg 266 158 vis_size 0 88;
#X msg 358 97 vis_size 0 88;
#X msg 298 183 vis_size 115 88;
#X text 212 3 Basic Polyphonic sample player: (6 channels): New play does not stop the previous ones. kind on like delay., f 33;
#X text 190 100 poly;
#X connect 1 0 11 0;
#X connect 6 0 16 0;
#X connect 7 0 9 0;
#X connect 14 0 22 0;
#X connect 16 0 8 0;
#X connect 17 0 18 0;
#X connect 18 0 19 0;
#X connect 18 1 23 0;
#X connect 19 0 21 0;
#X connect 21 0 20 0;
#X connect 22 0 15 0;
#X connect 23 0 20 0;
#X coords 0 -1 1 1 122 115 2 100 100;
