#N canvas 326 179 522 279 12;
#X text 17 11 VERISON 0;
#X text 143 11 ABSTRACTION TO BRING MIDI INFO into subpatches parametrized by subpatch number (manually), f 46;
#X obj 19 53 loadbang;
#X obj 19 78 f \$1;
#X obj 21 163 bng 20 250 50 0 empty empty empty 0 -10 0 12 #fcfcfc #000000 #000000;
#X obj 143 163 bng 20 250 50 0 empty empty empty 0 -10 0 12 #fcfcfc #000000 #000000;
#X obj 268 163 bng 20 250 50 0 empty empty empty 0 -10 0 12 #fcfcfc #000000 #000000;
#X obj 390 163 bng 20 250 50 0 empty empty empty 0 -10 0 12 #fcfcfc #000000 #000000;
#X obj 21 139 r \$1-one-shot-12;
#X obj 143 139 r \$1-one-shot-13;
#X obj 268 139 r \$1-one-shot-14;
#X obj 390 139 r \$1-one-shot-15;
#X obj 21 226 outlet;
#X obj 143 225 outlet;
#X obj 268 226 outlet;
#X obj 390 227 outlet;
#X obj 19 103 print added-input-midi-one-shot;
#X connect 2 0 3 0;
#X connect 3 0 16 0;
#X connect 4 0 12 0;
#X connect 5 0 13 0;
#X connect 6 0 14 0;
#X connect 7 0 15 0;
#X connect 8 0 4 0;
#X connect 9 0 5 0;
#X connect 10 0 6 0;
#X connect 11 0 7 0;
