#N canvas 1039 284 524 328 12;
#X text 17 11 VERISON 0;
#X text 143 11 ABSTRACTION TO BRING MIDI INFO into subpatches parametrized by subpatch number (manually), f 48;
#X obj 19 53 loadbang;
#X obj 19 78 f \$1;
#X obj 19 161 r \$1-CC-1;
#X obj 91 161 r \$1-CC-2;
#X obj 168 161 r \$1-CC-3;
#X obj 240 161 r \$1-CC-4;
#X obj 313 161 r \$1-CC-5;
#X obj 385 161 r \$1-CC-6;
#X obj 18 292 outlet;
#X obj 69 292 outlet;
#X obj 120 292 outlet;
#X obj 171 292 outlet;
#X obj 222 292 outlet;
#X obj 273 292 outlet;
#X obj 19 103 print added-input-midi-ctlin;
#X obj 19 186 / 127;
#X obj 91 185 / 127;
#X obj 168 185 / 127;
#X obj 240 185 / 127;
#X obj 313 186 / 127;
#X obj 385 185 / 127;
#X floatatom 19 210 5 0 0 0 - - - 0;
#X floatatom 91 209 5 0 0 0 - - - 0;
#X floatatom 168 209 5 0 0 0 - - - 0;
#X floatatom 240 209 5 0 0 0 - - - 0;
#X floatatom 313 209 5 0 0 0 - - - 0;
#X floatatom 385 210 5 0 0 0 - - - 0;
#X connect 2 0 3 0;
#X connect 3 0 16 0;
#X connect 4 0 17 0;
#X connect 5 0 18 0;
#X connect 6 0 19 0;
#X connect 7 0 20 0;
#X connect 8 0 21 0;
#X connect 9 0 22 0;
#X connect 17 0 23 0;
#X connect 18 0 24 0;
#X connect 19 0 25 0;
#X connect 20 0 26 0;
#X connect 21 0 27 0;
#X connect 22 0 28 0;
#X connect 23 0 10 0;
#X connect 24 0 11 0;
#X connect 25 0 12 0;
#X connect 26 0 13 0;
#X connect 27 0 14 0;
#X connect 28 0 15 0;
