#N canvas 66 32 1854 977 12;
#X obj 18 898 output~;
#X obj 18 825 clip~ -1 1;
#X obj 18 800 expr~ tanh($v1);
#N canvas 204 182 782 739 parameter-handling 0;
#X text 585 69 Then parametrs to save \; 0-startpos \; 1-endpos \; 2-reverse \; 3-playback speed \; 4-fade in \; 5-fade out \; 6-normalization factor \;;
#X obj 257 180 t b f, f 2;
#X obj 286 180 t b f, f 2;
#X obj 316 180 t b f, f 2;
#X obj 346 180 t b f, f 2;
#X obj 376 180 t b f, f 2;
#X obj 406 180 t b f, f 2;
#X obj 268 250 pack f f f f f f f, f 26;
#X obj 436 180 t b f, f 2;
#X obj 268 319 text set \$0-parameters 0 0;
#X obj 106 348 text get \$0-parameters;
#X msg 106 321 0;
#X obj 106 372 unpack f f f f f f f, f 28;
#X obj 257 18 r \$0-startPoint-f;
#X obj 106 601 s \$0-i-startPoint;
#X obj 286 41 r \$0-endPoint-f;
#X obj 138 577 s \$0-i-endPoint;
#X obj 316 64 r \$0-reverse;
#X obj 170 552 s \$0-i-reverse;
#X obj 346 87 r \$0-playback-speed;
#X obj 202 527 s \$0-i-playback-speed;
#X obj 234 503 s \$0-i-norm;
#X obj 376 110 r \$0-norm;
#X obj 299 398 t b f;
#X obj 266 451 t b f;
#X obj 266 478 bng 20 250 50 0 \$0-i-draw-attack empty empty 0 -10 0 12 #fcfcfc #000000 #000000;
#X obj 299 424 bng 20 250 50 0 \$0-i-draw-release empty empty 0 -10 0 12 #fcfcfc #000000 #000000;
#X obj 106 121 bng 40 250 50 0 empty empty Load 8 20 0 10 #00faff #000000 #000000;
#X obj 106 270 t b b;
#X obj 138 293 bng 20 250 50 0 \$0-i-draw-const empty empty 0 -10 0 12 #fcfcfc #000000 #000000;
#X obj 551 45 text define -k \$0-parameters;
#A set 0 26055 0 1 1 10 400 \;;
#X obj 406 133 r \$0-attack-len;
#X obj 298 477 s \$0-i-attack-len;
#X obj 436 156 r \$0-release-len;
#X obj 331 424 s \$0-i-release-len;
#X obj 268 286 spigot;
#X obj 244 286 tgl 20 0 empty empty empty 0 -10 0 12 #fcfcfc #000000 #000000 0 1;
#X obj 151 121 bng 40 250 50 0 empty empty Save 8 20 0 10 #e4e3ac #000000 #000000;
#X obj 151 199 t b b b;
#X obj 151 226 del 100;
#X text 102 642 To save sample and parameters and reload them next time: 1- Save Paramters \; 2- Save Patch \; 3- Reload last state \;, f 56;
#X text 105 101 SAVE-CURRENT;
#X connect 1 0 7 0;
#X connect 1 1 7 0;
#X connect 2 0 7 0;
#X connect 2 1 7 1;
#X connect 3 0 7 0;
#X connect 3 1 7 2;
#X connect 4 0 7 0;
#X connect 4 1 7 3;
#X connect 5 0 7 0;
#X connect 5 1 7 4;
#X connect 6 0 7 0;
#X connect 6 1 7 5;
#X connect 7 0 35 0;
#X connect 8 0 7 0;
#X connect 8 1 7 6;
#X connect 10 0 12 0;
#X connect 11 0 10 0;
#X connect 12 0 14 0;
#X connect 12 1 16 0;
#X connect 12 2 18 0;
#X connect 12 3 20 0;
#X connect 12 4 21 0;
#X connect 12 5 24 0;
#X connect 12 6 23 0;
#X connect 13 0 1 0;
#X connect 15 0 2 0;
#X connect 17 0 3 0;
#X connect 19 0 4 0;
#X connect 22 0 5 0;
#X connect 23 0 26 0;
#X connect 23 1 34 0;
#X connect 24 0 25 0;
#X connect 24 1 32 0;
#X connect 27 0 28 0;
#X connect 28 0 11 0;
#X connect 28 1 29 0;
#X connect 31 0 6 0;
#X connect 33 0 8 0;
#X connect 35 0 9 0;
#X connect 36 0 35 1;
#X connect 37 0 38 0;
#X connect 38 0 39 0;
#X connect 38 1 7 0;
#X connect 38 2 36 0;
#X connect 39 0 36 0;
#X coords 0 -1 1 1 100 67 2 100 100;
#X restore 1637 82 pd parameter-handling;
#X obj 30 849 r \$0-play;
#X obj 217 843 sp-mono;
#A saved /home/mobin/Documents/Sounds/sample-lab/bell-sound-001.wav;
#N canvas 735 314 450 300 dsp-manage 0;
#X obj 105 105 tgl 60 0 empty empty DSP 3 30 0 30 #ff0400 #000000 #2f004d 0 1;
#X msg 105 195 \; pd dsp \$1;
#X obj 105 20 r pd-dsp-started;
#X obj 156 45 r pd-dsp-stopped;
#X msg 105 45 set 1;
#X msg 156 70 set 0;
#X connect 0 0 1 0;
#X connect 2 0 4 0;
#X connect 3 0 5 0;
#X connect 4 0 0 0;
#X connect 5 0 0 0;
#X coords 0 -1 1 1 70 70 2 100 100;
#X restore 1638 152 pd dsp-manage;
#N canvas 979 20 927 977 output-sample 0;
#N canvas 52 20 1854 977 (subpatch) 0;
#X array \$0-OUTPUT 24249 float 2;
#A color 0;
#A width 2;
#X coords 0 1 24249 -1 420 120 1 0 0;
#X restore 107 129 graph;
#X obj 343 106 bng 20 250 50 0 \$0-resize \$0-i-resize-dummy RESIZE 23 10 0 12 #fcfcfc #000000 #000000;
#X obj 532 129 bng 120 250 50 0 \$0-chop \$0-i-chop CHOP 12 60 0 40 #fcfcfc #000000 #000000;
#X obj 266 496 pdcontrol;
#X symbolatom 532 107 17 0 0 0 - \$0-i-filename \$0-filename 0;
#X obj 46 320 loadbang;
#X obj 46 370 s \$0-i-filename;
#X obj 210 369 r \$0-filename;
#X msg 266 472 dir 0 ../../../Sounds/sample-lab;
#X obj 194 448 t s b, f 11;
#X obj 417 106 bng 20 250 50 0 \$0-load-chopped \$0-i-load-chopped-dummy LOAD-CHOPPED 23 10 0 12 #fcfcfc #000000 #000000;
#X text 100 32 BLOCK SIZE RESULTS IN A "LITTLE" ISSUE in either tabread4~ tabwrite~ ending -> UN-noticable but to investigate later blocksize/jack/.. concepts and how to play and write~ with higher precisions \; ** more noticeable in smaller cuts, f 84;
#X obj 194 673 soundfiler;
#X listbox 261 698 20 0 0 0 - - - 0;
#X floatatom 194 698 7 0 0 0 - - - 0;
#X msg 210 395 set \$1;
#X obj 194 345 bng 20 250 50 0 empty empty empty 0 -10 0 12 #fcfcfc #000000 #000000;
#X symbolatom 194 422 10 0 0 0 - - - 0;
#X obj 194 520 pack symbol symbol \$0;
#X obj 194 321 r \$0-chop;
#X obj 273 574 r \$0-load-chopped;
#X symbolatom 208 594 86 0 0 0 - - - 0;
#X msg 208 547 symbol \$2/\$1.wav;
#X msg 208 570 set \$1;
#X obj 208 617 s \$0-chopped-sample;
#X msg 46 345 symbol CHOP-NAME;
#X obj 475 315 r \$0-OUTPUT-RESIZE-NEEDED;
#X obj 107 105 cnv 8 230 8 empty \$0-canvas-resize-warning empty 20 12 0 12 #fcfcfc #000000 0;
#X obj 666 315 r \$0-resize;
#X msg 475 339 color 13 22 22;
#X msg 666 353 color 0 22 22;
#X obj 475 373 s \$0-canvas-resize-warning;
#X msg 194 647 write -wave -bytes 8 \$2/\$1.wav \$3-OUTPUT;
#X connect 3 0 18 1;
#X connect 5 0 25 0;
#X connect 7 0 15 0;
#X connect 8 0 3 0;
#X connect 9 0 18 0;
#X connect 9 1 8 0;
#X connect 12 0 14 0;
#X connect 12 1 13 0;
#X connect 15 0 17 0;
#X connect 16 0 17 0;
#X connect 17 0 9 0;
#X connect 18 0 32 0;
#X connect 18 0 22 0;
#X connect 19 0 16 0;
#X connect 20 0 21 0;
#X connect 21 0 24 0;
#X connect 22 0 23 0;
#X connect 23 0 21 0;
#X connect 25 0 6 0;
#X connect 26 0 29 0;
#X connect 28 0 30 0;
#X connect 29 0 31 0;
#X connect 30 0 31 0;
#X connect 32 0 12 0;
#X coords 0 -1 1 1 560 155 2 100 100;
#X restore 1071 292 pd output-sample;
#X obj 347 843 sp-poly;
#A saved /home/mobin/Documents/Sounds/sample-lab/bell-sound-001.wav;
#X text 247 821 TO DO FINAL TEST FOR SAMPLES;
#N canvas 63 158 1840 429 sample 0;
#X obj 110 300 hsl 1595 15 0 24248 0 0 \$0-startPoint-f \$0-i-startPoint empty -2 -10 0 12 #ffffff #00ff04 #000000 0 1;
#X obj 110 330 hsl 1595 15 0 24248 0 0 \$0-endPoint-f \$0-i-endPoint empty -2 -10 0 12 #ffffff #ff0400 #000000 0 1;
#X obj 110 315 hsl 1595 15 0 24248 0 0 \$0-play-cursor \$0-i-play-cursor empty -2 -10 0 12 #bbbbbb #ffffff #000000 0 1;
#N canvas 52 20 1854 977 (subpatch) 0;
#X array \$0-SAMPLE 24248 float 2;
#A color 0;
#A width 2;
#X coords 0 1 24248 -1 1600 180 1 0 0;
#X restore 107 120 graph;
#X coords 0 -1 1 1 1615 255 2 100 100;
#X restore 16 37 pd sample;
#X text 180 3 VERSION 1: SAMPLE DESIGN \, TRANSFORMATION;
#X text 1465 10 KEEP IT SIMPLE \, MODULAR;
#N canvas 382 231 724 176 INIT 0;
#X obj 20 17 loadbang;
#X msg 28 55 1;
#X obj 62 55 s \$0-i-playback-speed;
#X msg 20 80 0;
#X obj 57 80 s \$0-i-reverse;
#X obj 233 60 f \$0;
#X obj 233 37 bng 20 250 50 0 empty empty empty 0 -10 0 12 #fcfcfc #000000 #000000;
#X obj 421 60 samplerate~;
#X floatatom 421 86 6 0 0 0 - - - 0;
#X obj 421 37 bng 20 250 50 0 empty empty empty 0 -10 0 12 #fcfcfc #000000 #000000;
#X obj 480 85 s \$0-SR-PD;
#X msg 233 83 \; \$1-sample edit 0 \; \$1-sample-slice edit 0 \;;
#X msg 582 37 1;
#X obj 582 62 s \$0-i-pb-spd;
#X connect 0 0 1 0;
#X connect 0 0 3 0;
#X connect 0 0 6 0;
#X connect 0 0 9 0;
#X connect 0 0 12 0;
#X connect 1 0 2 0;
#X connect 3 0 4 0;
#X connect 5 0 11 0;
#X connect 6 0 5 0;
#X connect 7 0 8 0;
#X connect 7 0 10 0;
#X connect 9 0 7 0;
#X connect 12 0 13 0;
#X restore 1637 37 pd INIT;
#N canvas 52 20 1854 977 (subpatch) 0;
#X array \$0-envelope 1000 float 3;
#A 0 1 1 1 1 1 1 1 1 1 1 1 1 1 1 1 1 1 1 1 1 1 1 1 1 1 1 1 1 1 1 1 1 1 1 1 1 1 1 1 1 1 1 1 1 1 1 1 1 1 1 1 1 1 1 1 1 1 1 1 1 1 1 1 1 1 1 1 1 1 1 1 1 1 1 1 1 1 1 1 1 1 1 1 1 1 1 1 1 1 1 1 1 1 1 1 1 1 1 1 1 1 1 1 1 1 1 1 1 1 1 1 1 1 1 1 1 1 1 1 1 1 1 1 1 1 1 1 1 1 1 1 1 1 1 1 1 1 1 1 1 1 1 1 1 1 1 1 1 1 1 1 1 1 1 1 1 1 1 1 1 1 1 1 1 1 1 1 1 1 1 1 1 1 1 1 1 1 1 1 1 1 1 1 1 1 1 1 1 1 1 1 1 1 1 1 1 1 1 1 1 1 1 1 1 1 1 1 1 1 1 1 1 1 1 1 1 1 1 1 1 1 1 1 1 1 1 1 1 1 1 1 1 1 1 1 1 1 1 1 1 1 1 1 1 1 1 1 1 1 1 1 1 1 1 1 1 1 1 1 1 1 1 1 1 1 1 1 1 1 1 1 1 1 1 1 1 1 1 1 1 1 1 1 1 1 1 1 1 1 1 1 1 1 1 1 1 1 1 1 1 1 1 1 1 1 1 1 1 1 1 1 1 1 1 1 1 1 1 1 1 1 1 1 1 1 1 1 1 1 1 1 1 1 1 1 1 1 1 1 1 1 1 1 1 1 1 1 1 1 1 1 1 1 1 1 1 1 1 1 1 1 1 1 1 1 1 1 1 1 1 1 1 1 1 1 1 1 1 1 1 1 1 1 1 1 1 1 1 1 1 1 1 1 1 1 1 1 1 1 1 1 1 1 1 1 1 1 1 1 1 1 1 1 1 1 1 1 1 1 1 1 1 1 1 1 1 1 1 1 1 1 1 1 1 1 1 1 1 1 1 1 1 1 1 1 1 1 1 1 1 1 1 1 1 1 1 1 1 1 1 1 1 1 1 1 1 1 1 1 1 1 1 1 1 1 1 1 1 1 1 1 1 1 1 1 1 1 1 1 1 1 1 1 1 1 1 1 1 1 1 1 1 1 1 1 1 1 1 1 1 1 1 1 1 1 1 1 1 1 1 1 1 1 1 1 1 1 1 1 1 1 1 1 1 1 1 1 1 1 1 1 1 1 1 1 1 1 1 1 1 1 1 1 1 1 1 1 1 1 1 1 1 1 1 1 1 1 1 1 1 1 1 1 1 1 1 1 1 1 1 1 1 1 1 1 1 1 1 1 1 1 1 1 1 1 1 1 1 1 1 1 1 1 1 1 1 1 1 1 1 1 1 1 1 1 1 1 1 1 1 1 1 1 1 1 1 1 1 1 1 1 1 1 1 1 1 1 1 1 1 1 1 1 1 1 1 1 1 1 1 1 1 1 1 1 1 1 1 1 1 1 1 1 1 1 1 1 1 1 1 1 1 1 1 1 1 1 1 1 1 1 1 1 1 1 1 1 1 1 1 1 1 1 1 1 1 1 1 1 1 1 1 1 1 1 1 1 1 1 1 1 1 1 1 1 1 1 1 1 1 1 1 1 1 1 1 1 1 1 1 1 1 1 1 1 1 1 1 1 1 1 1 1 1 1 1 1 1 1 1 1 1 1 1 1 1 1 1 1 1 1 1 1 1 1 1 1 1 1 1 1 1 1 1 1 1 1 1 1 1 1 1 1 1 1 1 1 1 1 1 1 1 1 1 1 1 1 1 1 1 1 1 1 1 1 1 1 1 1 1 1 1 1 1 1 1 1 1 1 1 1 1 1 1 1 1 1 1 1 1 1 1 1 1 1 1 1 1 1 1 1 1 1 1 1 1 1 1 1 1 1 1 1 1 1 1 1 1 1 1 1 1 1 1 1 1 1 1 1 1 1 1 1 1 1 1 1 1 1 1 1 1 1 1 1 1 1 1 1 1 1 1 1 1 1 1 1 1 1 1 1 1 1 1 1 1 1 1 1 1 1 1 1 1 1 1 1 1 1 1 1 1 1 1 1 1 1 1 1 1 1 1 1 1 1 1 1 1 1 1 1 1 1 1 1 1 1 1 1 1 1 1 1 1 1 1 1 1 1 1 1 1 1 1 1 1 1 1 1 1 1 1 1 1 1 1 1 1 1 1 1 1 1 1 1 1 1 1 1 1 1 1 1 1 1 1 1 1 1 1;
#A color 0;
#A width 2;
#X coords 0 1 1000 0 105 68 1 0 0;
#X restore 884 866 graph;
#X obj 994 866 bng 20 250 50 0 \$0-draw-const \$0-i-draw-const Reset 22 10 0 12 #fcfcfc #000000 #000000;
#X floatatom 1018 890 5 1 1000 1 Attack \$0-i-attack-len \$0-attack-len 0;
#X floatatom 1018 914 5 1 1000 1 Release \$0-i-release-len \$0-release-len 0;
#X obj 994 890 bng 20 250 50 0 \$0-draw-attack \$0-i-draw-attack empty 0 -10 0 12 #fcfcfc #000000 #000000;
#X obj 994 914 bng 20 250 50 0 \$0-draw-release \$0-i-draw-release empty 0 -10 0 12 #fcfcfc #000000 #000000;
#X text 1133 889 # of attack points;
#X text 1132 915 # of release points;
#N canvas 190 99 813 882 SAMPLE-MANAGEMENT 0;
#X obj 15 91 openpanel;
#X obj 187 146 f \$0;
#X obj 155 11 loadbang;
#X obj 15 224 pack s f, f 25;
#X obj 187 122 bng 20 250 50 0 empty empty empty 0 -10 0 12 #fcfcfc #000000 #000000;
#X listbox 15 256 74 0 0 0 - - - 0;
#X obj 15 322 soundfiler, f 31;
#X floatatom 15 363 8 0 0 1 number\ of\ samples - - 0;
#X listbox 229 346 20 0 0 0 - - - 0;
#X obj 229 370 unpack f;
#X floatatom 194 172 5 0 0 0 - - - 0;
#X obj 318 73 f \$0;
#X obj 318 49 bng 20 250 50 0 empty \$0-normalize empty 0 -10 0 12 #fcfcfc #000000 #000000;
#X floatatom 33 415 9 0 0 1 DURATION[MS] - - 0;
#X obj 33 390 expr 1000*$f1/$f2;
#X obj 229 395 s \$0-sample-SR;
#X obj 15 4 r \$0-load;
#X obj 253 275 unpack s;
#X obj 317 11 text define -k \$0-previous-sample;
#A set /home/mobin/Documents/Sounds/Koala-archive/koala-050525/A04_misch-001.wav \;;
#X obj 253 298 text set \$0-previous-sample;
#X obj 155 80 t b b;
#X obj 28 159 text get \$0-previous-sample, f 18;
#X obj 155 57 bng 20 250 50 0 empty empty empty 0 -10 0 12 #fcfcfc #000000 #000000;
#X msg 28 135 0;
#X msg 15 36 symbol /home/mobin/Documents/Sounds, f 16;
#X obj 36 199 r \$0-chopped-sample;
#X obj 15 464 s \$0-RAW-SAMPLE-LENGTH;
#X obj 33 437 s \$0-ORIGINAL-DURATION;
#X text 194 439 NOT USED;
#X text 332 397 SAMPLE RATE OR LOADED SAMPLE;
#X obj 16 533 t b f;
#X floatatom 16 758 6 0 0 0 - - - 0;
#X obj 16 736 int;
#X floatatom 160 759 6 0 0 0 - - - 0;
#X obj 160 737 int;
#X obj 16 781 s \$0-startPoint;
#X obj 16 714 r \$0-startPoint-f;
#X obj 160 714 r \$0-endPoint-f;
#X obj 160 781 s \$0-endPoint;
#X obj 16 634 unpack f f, f 21;
#X obj 16 658 s \$0-i-startPoint;
#X obj 160 658 s \$0-i-endPoint;
#X listbox 16 577 20 0 0 0 - - - 0;
#X obj 16 509 r \$0-RAW-SAMPLE-LENGTH;
#N canvas 151 119 450 160 HSL-RANGE 0;
#X msg 39 44 range \$1 \$2;
#X obj 77 71 s \$0-i-play-cursor;
#X obj 66 97 s \$0-i-endPoint;
#X obj 39 122 s \$0-i-startPoint;
#X obj 39 19 inlet;
#X connect 0 0 1 0;
#X connect 0 0 2 0;
#X connect 0 0 3 0;
#X connect 4 0 0 0;
#X restore 25 605 pd HSL-RANGE;
#X text 15 487 ----------------------------------------------------------------------------------------------, f 95;
#X text 13 688 ----------------------------------------------------------------------------------------------, f 95;
#X obj 182 37 r \$0-reload;
#X msg 318 97 \; \$1-SAMPLE normalize \;;
#X obj 16 555 pack 0 f, f 11;
#X msg 15 296 read -resize \$1 \$2-SAMPLE;
#X connect 0 0 3 0;
#X connect 1 0 3 1;
#X connect 1 0 10 0;
#X connect 2 0 22 0;
#X connect 3 0 5 0;
#X connect 4 0 1 0;
#X connect 5 0 50 0;
#X connect 5 0 17 0;
#X connect 6 0 7 0;
#X connect 6 1 8 0;
#X connect 7 0 14 0;
#X connect 7 0 26 0;
#X connect 8 0 9 0;
#X connect 9 0 14 1;
#X connect 9 0 15 0;
#X connect 11 0 48 0;
#X connect 12 0 11 0;
#X connect 13 0 27 0;
#X connect 14 0 13 0;
#X connect 16 0 24 0;
#X connect 17 0 19 0;
#X connect 20 0 23 0;
#X connect 20 1 4 0;
#X connect 21 0 3 0;
#X connect 22 0 20 0;
#X connect 23 0 21 0;
#X connect 24 0 0 0;
#X connect 25 0 3 0;
#X connect 30 0 49 0;
#X connect 30 1 49 1;
#X connect 31 0 35 0;
#X connect 32 0 31 0;
#X connect 33 0 38 0;
#X connect 34 0 33 0;
#X connect 36 0 32 0;
#X connect 37 0 34 0;
#X connect 39 0 40 0;
#X connect 39 1 41 0;
#X connect 42 0 39 0;
#X connect 42 0 44 0;
#X connect 43 0 30 0;
#X connect 47 0 22 0;
#X connect 49 0 42 0;
#X connect 50 0 6 0;
#X restore 1637 59 pd SAMPLE-MANAGEMENT;
#N canvas 73 112 927 977 fade-construction 0;
#X obj 202 840 tabwrite \$0-envelope;
#X obj 202 687 until;
#X obj 202 711 i;
#X obj 234 711 + 1;
#X obj 202 663 t f b;
#X obj 202 638 i;
#X obj 220 612 r \$0-attack-len;
#X obj 325 788 i;
#X obj 343 763 r \$0-attack-len;
#X obj 569 713 -, f 6;
#X obj 569 664 t b f, f 6;
#X floatatom 569 738 5 0 0 0 - - - 0;
#X obj 479 687 until;
#X obj 479 711 i;
#X obj 511 711 + 1;
#X msg 524 687 0;
#X obj 479 663 t f b;
#X obj 479 636 i;
#X obj 497 609 r \$0-release-len;
#X obj 479 736 +;
#X obj 479 857 tabwrite \$0-envelope;
#X obj 644 806 i;
#X obj 662 782 r \$0-release-len;
#X obj 479 761 t f b f;
#X obj 202 815 expr (1/$f2) * $f1;
#X obj 202 736 t f b f;
#X obj 202 589 r \$0-draw-attack;
#X obj 479 583 r \$0-draw-release;
#X obj 15 587 r \$0-draw-const;
#X text 334 531 Trapezoidal envelope;
#X text 476 558 Calculate(draw) release;
#X text 197 565 Calculate(draw) attack;
#X text 13 556 Reset Envelope;
#X text 13 565 --------------;
#X text 334 541 --------------------;
#X obj 626 347 loadbang;
#X obj 626 371 i \$0;
#X msg 26 170 \$1 \, \$2 \$3;
#X obj 79 301 snapshot~;
#X obj 90 254 tgl 20 0 empty empty empty 0 -10 0 12 #fcfcfc #000000 #000000 0 1;
#X floatatom 149 301 5 0 0 0 - - - 0;
#X obj 26 331 outlet~;
#X obj 130 139 r \$0-slice-dur;
#X text 120 343 - array of 1000 points \, read with a line~(tabread4~) at same rate of original sample (\$0-slice-dur) \; - output is multiplied on the run with original tabread~, f 57;
#X text 50 442 Envelope construction for one-shot sample play;
#X obj 26 95 inlet;
#X text 26 47 Reading the envelope --------------------;
#X text 50 451 ----------------------------------------------;
#X text 76 466 **Later on could add other type of envelope \, like exponential or ..., f 43;
#X obj 479 832 expr (1/$f2) * (999-$f1);
#X obj 90 277 metro 20;
#X msg 247 687 -1;
#X msg 569 690 1000;
#X obj 53 679 s \$0-i-attack-len;
#X msg 47 652 0;
#X obj 15 623 t b b;
#X obj 47 705 s \$0-i-release-len;
#X msg 626 399 \; \$1-i-draw-const bang \; \$1-i-attack-len 0 \; \$1-i-draw-attack bang \; \$1-i-release-len 0 \; \$1-i-draw-release bang \;;
#X obj 15 762 s \$0-envelope;
#X msg 15 738 const 1;
#X obj 26 195 vline~;
#X text 33 119 To be changed in case of tabread4~;
#X obj 26 140 pack 0 999 10;
#X obj 26 220 tabread4~ \$0-envelope;
#X connect 1 0 2 0;
#X connect 2 0 3 0;
#X connect 2 0 25 0;
#X connect 3 0 2 1;
#X connect 4 0 1 0;
#X connect 4 1 51 0;
#X connect 5 0 4 0;
#X connect 6 0 5 1;
#X connect 7 0 24 1;
#X connect 8 0 7 1;
#X connect 9 0 11 0;
#X connect 10 0 52 0;
#X connect 10 1 9 1;
#X connect 11 0 19 1;
#X connect 12 0 13 0;
#X connect 13 0 14 0;
#X connect 13 0 19 0;
#X connect 14 0 13 1;
#X connect 15 0 13 1;
#X connect 16 0 12 0;
#X connect 16 1 15 0;
#X connect 17 0 16 0;
#X connect 18 0 17 1;
#X connect 18 0 10 0;
#X connect 19 0 23 0;
#X connect 21 0 49 1;
#X connect 22 0 21 1;
#X connect 23 0 49 0;
#X connect 23 1 21 0;
#X connect 23 2 20 1;
#X connect 24 0 0 0;
#X connect 25 0 24 0;
#X connect 25 1 7 0;
#X connect 25 2 0 1;
#X connect 26 0 5 0;
#X connect 27 0 17 0;
#X connect 28 0 55 0;
#X connect 35 0 36 0;
#X connect 36 0 57 0;
#X connect 37 0 60 0;
#X connect 38 0 40 0;
#X connect 39 0 50 0;
#X connect 42 0 62 2;
#X connect 45 0 62 0;
#X connect 49 0 20 0;
#X connect 50 0 38 0;
#X connect 51 0 2 1;
#X connect 52 0 9 0;
#X connect 54 0 53 0;
#X connect 54 0 56 0;
#X connect 55 0 59 0;
#X connect 55 1 54 0;
#X connect 59 0 58 0;
#X connect 60 0 63 0;
#X connect 62 0 37 0;
#X connect 63 0 38 0;
#X connect 63 0 41 0;
#X restore 1105 810 pd fade-construction;
#X obj 1105 783 r \$0-play;
#X obj 1106 848 *~;
#N canvas 52 20 927 977 SAMPLE-PLAY 0;
#X msg 17 258 \$1 \, \$2 \$3;
#X obj 407 84 -;
#X obj 421 58 t b f;
#X floatatom 407 150 7 0 0 1 SLICE-LENGTH\ [SAMPLE] - - 0;
#X obj 407 243 /;
#X obj 416 172 r \$0-sample-SR;
#X obj 416 218 t b f;
#X floatatom 407 388 10 0 0 1 SLICE-DURATION[MS] - - 0;
#X obj 407 266 * 1000;
#X obj 50 135 r \$0-endPoint;
#X obj 17 134 f;
#X obj 35 84 r \$0-startPoint;
#X obj 17 22 r \$0-play;
#X obj 407 13 r \$0-startPoint;
#X obj 421 35 r \$0-endPoint;
#X obj 407 106 abs;
#X obj 407 362 / 1, f 4;
#X msg 99 258 \$2 \, \$1 \$3;
#X obj 17 283 spigot;
#X obj 67 283 tgl 20 0 empty \$0-tgl-forward empty 0 -10 0 12 #fcfcfc #000000 #000000 0 1;
#X obj 99 282 spigot;
#X obj 149 282 tgl 20 0 empty \$0-tgl-reverse empty 0 -10 0 12 #fcfcfc #000000 #000000 0 1;
#X obj 623 14 r \$0-reverse;
#X obj 623 39 route 0 1, f 40;
#X obj 623 62 f \$0;
#X obj 761 62 f \$0;
#X msg 761 84 \; \$1-tgl-forward 0 \; \$1-tgl-reverse 1 \;;
#X msg 623 84 \; \$1-tgl-forward 1 \; \$1-tgl-reverse 0 \;;
#X obj 17 766 outlet~;
#X obj 413 338 t b f;
#X obj 185 258 r \$0-stop;
#X obj 414 444 r \$0-SR-PD;
#X obj 407 517 *, f 6;
#X floatatom 407 541 13 0 0 1 SAMPLE-LENGTH-RECONSTRUCTED-PD - - 0;
#X obj 407 654 f \$0;
#X obj 407 679 pack f f;
#X obj 407 565 t b f, f 8;
#X obj 414 468 / 1000;
#X obj 407 625 bng 20 250 50 0 empty \$0-resize empty 0 -10 0 12 #fcfcfc #000000 #000000;
#X floatatom 416 195 6 0 0 0 - - - 0;
#X floatatom 445 362 5 0 0 0 - - - 0;
#X floatatom 407 290 8 0 0 1 SLICE-DURATION\ WITH\ UNIT\ PLAYBACK\ SPEED - - 0;
#X obj 414 493 t b f;
#X obj 407 128 + 1;
#X obj 17 346 vline~;
#X text 429 624 CONTINUOUS RESIZE -> PD CRASH;
#X obj 407 589 s \$0-OUTPUT-RESIZE-NEEDED;
#X obj 35 109 + 1;
#X obj 50 159 - 1;
#X msg 185 283 stop;
#X obj 17 382 tabread4~ \$0-SAMPLE;
#X obj 84 197 r \$0-slice-duration;
#X obj 414 411 s \$0-slice-duration;
#X obj 413 314 r \$0-pb-spd;
#X text 498 314 PLAYBACK SPEED MODIFICATION;
#N canvas 484 161 450 183 PLAY-CURSOR 0;
#X obj 63 88 i;
#X obj 63 112 s \$0-i-play-cursor;
#X obj 63 64 line;
#X obj 63 40 inlet;
#X connect 0 0 1 0;
#X connect 2 0 0 0;
#X connect 3 0 2 0;
#X restore 99 346 pd PLAY-CURSOR;
#X obj 17 221 pack f f f;
#N canvas 925 406 553 210 LOOP 0;
#X obj 79 93 del;
#X obj 79 121 spigot;
#X obj 79 144 s \$0-i-play;
#X obj 134 121 r \$0-loop-on;
#X obj 97 67 r \$0-slice-duration;
#X obj 79 43 inlet, f 6;
#X connect 0 0 1 0;
#X connect 1 0 2 0;
#X connect 3 0 1 1;
#X connect 4 0 0 1;
#X connect 5 0 0 0;
#X restore 29 50 pd LOOP;
#X text 65 110 +1 FOR TABREAD4~ RANGE;
#X text 78 159 -1 FOR TABREAD4~ RANGE;
#X text 97 221 START INDEX - STOP INDEX - DURATION[MS];
#X msg 407 703 \; \$1-OUTPUT resize \$2 \;;
#X obj 43 455 key;
#X floatatom 43 480 5 0 0 0 - - - 0;
#X obj 43 573 s \$0-i-play;
#X obj 43 526 bng 20 250 50 0 empty empty empty 0 -10 0 12 #fcfcfc #000000 #000000;
#X obj 73 549 s \$0-i-stop;
#X obj 43 504 sel 33 64;
#X obj 73 526 bng 20 250 50 0 empty empty empty 0 -10 0 12 #fcfcfc #000000 #000000;
#X obj 103 526 bng 20 250 50 0 empty empty empty 0 -10 0 12 #fcfcfc #000000 #000000;
#X text 41 433 PLAY WITH KEYBOARD: [Shift]+1/2 = PLAY/STOP;
#X connect 0 0 18 0;
#X connect 1 0 15 0;
#X connect 2 0 1 0;
#X connect 2 1 1 1;
#X connect 3 0 4 0;
#X connect 4 0 8 0;
#X connect 5 0 39 0;
#X connect 6 0 4 0;
#X connect 6 1 4 1;
#X connect 7 0 32 0;
#X connect 7 0 52 0;
#X connect 8 0 41 0;
#X connect 9 0 48 0;
#X connect 10 0 56 0;
#X connect 11 0 47 0;
#X connect 12 0 10 0;
#X connect 12 0 57 0;
#X connect 13 0 1 0;
#X connect 14 0 2 0;
#X connect 15 0 43 0;
#X connect 16 0 7 0;
#X connect 17 0 20 0;
#X connect 18 0 44 0;
#X connect 18 0 55 0;
#X connect 19 0 18 1;
#X connect 20 0 44 0;
#X connect 20 0 55 0;
#X connect 21 0 20 1;
#X connect 22 0 23 0;
#X connect 23 0 24 0;
#X connect 23 1 25 0;
#X connect 24 0 27 0;
#X connect 25 0 26 0;
#X connect 29 0 16 0;
#X connect 29 1 40 0;
#X connect 30 0 49 0;
#X connect 31 0 37 0;
#X connect 32 0 33 0;
#X connect 33 0 36 0;
#X connect 34 0 35 0;
#X connect 35 0 61 0;
#X connect 36 0 46 0;
#X connect 36 1 35 1;
#X connect 37 0 42 0;
#X connect 38 0 34 0;
#X connect 39 0 6 0;
#X connect 40 0 16 1;
#X connect 41 0 16 0;
#X connect 42 0 32 0;
#X connect 42 1 32 1;
#X connect 43 0 3 0;
#X connect 44 0 50 0;
#X connect 47 0 10 1;
#X connect 48 0 56 1;
#X connect 49 0 44 0;
#X connect 49 0 55 0;
#X connect 50 0 28 0;
#X connect 51 0 56 2;
#X connect 53 0 29 0;
#X connect 56 0 0 0;
#X connect 56 0 17 0;
#X connect 62 0 63 0;
#X connect 63 0 67 0;
#X connect 65 0 64 0;
#X connect 67 0 65 0;
#X connect 67 1 68 0;
#X connect 67 2 69 0;
#X connect 68 0 66 0;
#X restore 16 350 pd SAMPLE-PLAY;
#X obj 30 873 tabwrite~ \$0-OUTPUT;
#N canvas 52 20 1854 977 GUI 0;
#X obj 106 107 bng 20 250 50 0 \$0-load \$0-i-load LOAD 23 10 0 12 #fcfcfc #000000 #000000;
#X obj 334 107 bng 20 250 50 0 \$0-play \$0-i-play PLAY 23 10 0 12 #00ac00 #000000 #000000;
#X obj 106 130 tgl 20 0 \$0-loop-on \$0-i-loop-on LOOP 23 10 0 12 #ffffff #000000 #000000 0 1;
#X obj 162 130 tgl 20 0 \$0-reverse \$0-i-reverse REVERSE 23 10 0 12 #fcfcfc #000000 #000000 0 1;
#X floatatom 241 131 5 0.1 10 1 PLAYBACK\ SPEED \$0-i-pb-spd \$0-pb-spd 0;
#X obj 390 107 bng 20 250 50 0 \$0-stop \$0-i-stop STOP 23 10 0 12 #ffffff #000000 #000000;
#X obj 241 107 bng 20 250 50 0 \$0-normalize \$0-i-normalize-dummy NORMALIZE 23 10 0 12 #fcfcfc #000000 #000000;
#X obj 162 107 bng 20 250 50 0 \$0-reload \$0-i-reload-dummy RELOAD 23 10 0 12 #fcfcfc #000000 #000000;
#X coords 0 -1 1 1 345 55 2 100 100;
#X restore 16 293 pd GUI;
#X text 394 546 - SAVE-CURRENT PARAMETER MIGHT WANT TO KEEP: PB-SPD \, LOOP \, REVERSE \, START/END POINT \;, f 89;
#X text 393 567 - WHEN CHOPPED IS LOADED THEN RELOAD BUTTON IS USELESS SINCE LOCATION IS CHANGED ALREADY \;, f 121;
#X text 392 590 - FADE MODULE - SUBPATCH OR ABSTRACTION? \;;
#X text 484 292 NEVER SAVE CONTENT OF SAMPLE ARRAYS -> RUIN THE PATCH;
#X connect 1 0 0 0;
#X connect 1 0 27 0;
#X connect 2 0 1 0;
#X connect 4 0 27 0;
#X connect 5 0 0 0;
#X connect 8 0 0 0;
#X connect 23 0 25 0;
#X connect 23 0 25 1;
#X connect 24 0 23 0;
#X connect 26 0 2 0;
