#N canvas 66 32 1854 977 12;
#X obj 18 898 output~;
#X obj 18 825 clip~ -1 1;
#X obj 18 800 expr~ tanh($v1);
#N canvas 769 238 544 739 parameter-handling 0;
#X obj 263 365 text set \$0-parameters 0 0;
#X obj 106 394 text get \$0-parameters;
#X msg 106 370 0;
#X obj 263 198 r \$0-startPoint-f;
#X obj 106 513 s \$0-i-startPoint;
#X obj 292 220 r \$0-endPoint-f;
#X obj 140 489 s \$0-i-endPoint;
#X obj 321 242 r \$0-reverse;
#X obj 174 467 s \$0-i-reverse;
#X obj 106 121 bng 40 250 50 0 empty empty LOAD 4 20 0 14 #00faff #000000 #000000;
#X obj 226 20 text define -k \$0-parameters;
#A set 0 16069 0 1 \;;
#X obj 263 332 spigot;
#X obj 239 332 tgl 20 0 empty empty empty 0 -10 0 12 #fcfcfc #000000 #000000 0 1;
#X obj 151 121 bng 40 250 50 0 empty empty SAVE 4 20 0 14 #e4e3ac #000000 #000000;
#X obj 151 245 t b b b, f 13;
#X obj 151 272 del 100;
#X text 105 101 SAVE-CURRENT;
#X obj 351 264 r \$0-pb-spd;
#X obj 263 287 pack f f f f, f 13;
#X obj 106 418 unpack f f f f, f 15;
#X text 225 43 PARAMETERS \; ---------- \; 0-START-POINT \; 1-END-POINT \; 2-REVERSE-STATE \; 3-PLAYBACK-SPEED \;, f 28;
#X text 102 540 WHEN SAVE IS BANGED \, CURRENT PARAMTERS WILL BE SAVED INTO TEXT FILE. WITH LOAD \, LAST SAVED VALUES WILL BE SET AGAIN. IF YOU WISH TO KEEP THESE PARAMETERS FOR NEXT PATCH LOAD \, SAVE THE PATCH BEFORE CLOSING (SAVING TEXT FILE) \;, f 40;
#X obj 208 444 s \$0-i-pb-spd;
#X connect 1 0 19 0;
#X connect 2 0 1 0;
#X connect 3 0 18 0;
#X connect 5 0 18 1;
#X connect 7 0 18 2;
#X connect 9 0 2 0;
#X connect 11 0 0 0;
#X connect 12 0 11 1;
#X connect 13 0 14 0;
#X connect 14 0 15 0;
#X connect 14 1 18 0;
#X connect 14 2 12 0;
#X connect 15 0 12 0;
#X connect 17 0 18 3;
#X connect 18 0 11 0;
#X connect 19 0 4 0;
#X connect 19 1 6 0;
#X connect 19 2 8 0;
#X connect 19 3 22 0;
#X coords 0 -1 1 1 100 67 2 100 100;
#X restore 1638 83 pd parameter-handling;
#X obj 30 849 r \$0-play;
#X obj 218 859 sp-mono;
#A saved /home/mobin/Documents/Sounds/sample-lab/bell-sound-001.wav;
#N canvas 735 314 450 300 dsp-manage 0;
#X obj 105 105 tgl 60 0 empty empty DSP 3 30 0 30 #ff0400 #000000 #2f004d 0 1;
#X msg 105 195 \; pd dsp \$1;
#X obj 105 20 r pd-dsp-started;
#X obj 156 45 r pd-dsp-stopped;
#X msg 105 45 set 1;
#X msg 156 70 set 0;
#X connect 0 0 1 0;
#X connect 2 0 4 0;
#X connect 3 0 5 0;
#X connect 4 0 0 0;
#X connect 5 0 0 0;
#X coords 0 -1 1 1 70 70 2 100 100;
#X restore 1638 152 pd dsp-manage;
#N canvas 979 32 927 977 output-sample 0;
#N canvas 52 20 1854 977 (subpatch) 0;
#X array \$0-OUTPUT 16070 float 2;
#A color 0;
#A width 2;
#X coords 0 1 16070 -1 420 120 1 0 0;
#X restore 107 129 graph;
#X obj 343 106 bng 20 250 50 0 \$0-resize \$0-i-resize-dummy RESIZE 23 10 0 12 #fcfcfc #000000 #000000;
#X obj 532 129 bng 120 250 50 0 \$0-chop \$0-i-chop CHOP 12 60 0 40 #fcfcfc #000000 #000000;
#X obj 266 496 pdcontrol;
#X symbolatom 532 107 17 0 0 0 - \$0-i-filename \$0-filename 0;
#X obj 46 320 loadbang;
#X obj 46 370 s \$0-i-filename;
#X obj 210 369 r \$0-filename;
#X msg 266 472 dir 0 ../../../Sounds/sample-lab;
#X obj 194 448 t s b, f 11;
#X obj 417 106 bng 20 250 50 0 \$0-load-chopped \$0-i-load-chopped-dummy LOAD-CHOPPED 23 10 0 12 #fcfcfc #000000 #000000;
#X text 100 32 BLOCK SIZE RESULTS IN A "LITTLE" ISSUE in either tabread4~ tabwrite~ ending -> UN-noticable but to investigate later blocksize/jack/.. concepts and how to play and write~ with higher precisions \; ** more noticeable in smaller cuts, f 84;
#X obj 194 673 soundfiler;
#X listbox 261 698 20 0 0 0 - - - 0;
#X floatatom 194 698 7 0 0 0 - - - 0;
#X msg 210 395 set \$1;
#X obj 194 345 bng 20 250 50 0 empty empty empty 0 -10 0 12 #fcfcfc #000000 #000000;
#X symbolatom 194 422 10 0 0 0 - - - 0;
#X obj 194 520 pack symbol symbol \$0;
#X obj 194 321 r \$0-chop;
#X obj 273 574 r \$0-load-chopped;
#X symbolatom 208 594 86 0 0 0 - - - 0;
#X msg 208 547 symbol \$2/\$1.wav;
#X msg 208 570 set \$1;
#X obj 208 617 s \$0-chopped-sample;
#X msg 46 345 symbol CHOP-NAME;
#X obj 475 315 r \$0-OUTPUT-RESIZE-NEEDED;
#X obj 107 105 cnv 8 230 8 empty \$0-canvas-resize-warning empty 20 12 0 12 #fcfcfc #000000 0;
#X obj 666 315 r \$0-resize;
#X msg 475 339 color 13 22 22;
#X msg 666 353 color 0 22 22;
#X obj 475 373 s \$0-canvas-resize-warning;
#X msg 194 647 write -wave -bytes 8 \$2/\$1.wav \$3-OUTPUT;
#X connect 3 0 18 1;
#X connect 5 0 25 0;
#X connect 7 0 15 0;
#X connect 8 0 3 0;
#X connect 9 0 18 0;
#X connect 9 1 8 0;
#X connect 12 0 14 0;
#X connect 12 1 13 0;
#X connect 15 0 17 0;
#X connect 16 0 17 0;
#X connect 17 0 9 0;
#X connect 18 0 32 0;
#X connect 18 0 22 0;
#X connect 19 0 16 0;
#X connect 20 0 21 0;
#X connect 21 0 24 0;
#X connect 22 0 23 0;
#X connect 23 0 21 0;
#X connect 25 0 6 0;
#X connect 26 0 29 0;
#X connect 28 0 30 0;
#X connect 29 0 31 0;
#X connect 30 0 31 0;
#X connect 32 0 12 0;
#X coords 0 -1 1 1 560 155 2 100 100;
#X restore 1071 295 pd output-sample;
#X obj 348 859 sp-poly;
#A saved /home/mobin/Documents/Sounds/sample-lab/bell-sound-001.wav;
#X text 248 837 TO DO FINAL TEST FOR SAMPLES;
#N canvas 63 158 1840 429 sample 0;
#X obj 110 300 hsl 1595 15 0 16069 0 0 \$0-startPoint-f \$0-i-startPoint empty -2 -10 0 12 #ffffff #00ff04 #000000 0 1;
#X obj 110 330 hsl 1595 15 0 16069 0 0 \$0-endPoint-f \$0-i-endPoint empty -2 -10 0 12 #ffffff #ff0400 #000000 0 1;
#X obj 110 315 hsl 1595 15 0 16069 0 0 \$0-play-cursor \$0-i-play-cursor empty -2 -10 0 12 #bbbbbb #ffffff #000000 0 1;
#N canvas 52 20 1854 977 (subpatch) 0;
#X array \$0-SAMPLE 16069 float 2;
#A color 0;
#A width 2;
#X coords 0 1 16069 -1 1600 180 1 0 0;
#X restore 107 120 graph;
#X coords 0 -1 1 1 1615 255 2 100 100;
#X restore 16 37 pd sample;
#X text 180 3 VERSION 1: SAMPLE DESIGN \, TRANSFORMATION;
#X text 1465 10 KEEP IT SIMPLE \, MODULAR;
#N canvas 382 231 724 176 INIT 0;
#X obj 20 17 loadbang;
#X msg 28 55 1;
#X obj 62 55 s \$0-i-playback-speed;
#X msg 20 80 0;
#X obj 57 80 s \$0-i-reverse;
#X obj 233 60 f \$0;
#X obj 233 37 bng 20 250 50 0 empty empty empty 0 -10 0 12 #fcfcfc #000000 #000000;
#X obj 421 60 samplerate~;
#X floatatom 421 86 6 0 0 0 - - - 0;
#X obj 421 37 bng 20 250 50 0 empty empty empty 0 -10 0 12 #fcfcfc #000000 #000000;
#X obj 480 85 s \$0-SR-PD;
#X msg 582 37 1;
#X obj 582 62 s \$0-i-pb-spd;
#X msg 233 83 \; \$1-SAMPLE edit 0 \; \$1-OUTPUT edit 0 \;;
#X connect 0 0 1 0;
#X connect 0 0 3 0;
#X connect 0 0 6 0;
#X connect 0 0 9 0;
#X connect 0 0 11 0;
#X connect 1 0 2 0;
#X connect 3 0 4 0;
#X connect 5 0 13 0;
#X connect 6 0 5 0;
#X connect 7 0 8 0;
#X connect 7 0 10 0;
#X connect 9 0 7 0;
#X connect 11 0 12 0;
#X restore 1637 37 pd INIT;
#N canvas 190 99 813 882 SAMPLE-MANAGEMENT 0;
#X obj 15 91 openpanel;
#X obj 187 146 f \$0;
#X obj 155 11 loadbang;
#X obj 15 224 pack s f, f 25;
#X obj 187 122 bng 20 250 50 0 empty empty empty 0 -10 0 12 #fcfcfc #000000 #000000;
#X listbox 15 256 74 0 0 0 - - - 0;
#X obj 15 322 soundfiler, f 31;
#X floatatom 15 363 8 0 0 1 number\ of\ samples - - 0;
#X listbox 229 346 20 0 0 0 - - - 0;
#X obj 229 370 unpack f;
#X floatatom 194 172 5 0 0 0 - - - 0;
#X obj 318 73 f \$0;
#X obj 318 49 bng 20 250 50 0 empty \$0-normalize empty 0 -10 0 12 #fcfcfc #000000 #000000;
#X floatatom 33 415 9 0 0 1 DURATION[MS] - - 0;
#X obj 33 390 expr 1000*$f1/$f2;
#X obj 229 395 s \$0-sample-SR;
#X obj 15 4 r \$0-load;
#X obj 253 275 unpack s;
#X obj 317 11 text define -k \$0-previous-sample;
#A set /home/mobin/Documents/Sounds/sample-lab/kalhor-spring.wav \;;
#X obj 253 298 text set \$0-previous-sample;
#X obj 155 80 t b b;
#X obj 28 159 text get \$0-previous-sample, f 18;
#X obj 155 57 bng 20 250 50 0 empty empty empty 0 -10 0 12 #fcfcfc #000000 #000000;
#X msg 28 135 0;
#X msg 15 36 symbol /home/mobin/Documents/Sounds, f 16;
#X obj 36 199 r \$0-chopped-sample;
#X obj 15 464 s \$0-RAW-SAMPLE-LENGTH;
#X obj 33 437 s \$0-ORIGINAL-DURATION;
#X text 194 439 NOT USED;
#X text 332 397 SAMPLE RATE OR LOADED SAMPLE;
#X obj 16 533 t b f;
#X floatatom 16 758 6 0 0 0 - - - 0;
#X obj 16 736 int;
#X floatatom 160 759 6 0 0 0 - - - 0;
#X obj 160 737 int;
#X obj 16 781 s \$0-startPoint;
#X obj 16 714 r \$0-startPoint-f;
#X obj 160 714 r \$0-endPoint-f;
#X obj 160 781 s \$0-endPoint;
#X obj 16 634 unpack f f, f 21;
#X obj 16 658 s \$0-i-startPoint;
#X obj 160 658 s \$0-i-endPoint;
#X listbox 16 577 20 0 0 0 - - - 0;
#X obj 16 509 r \$0-RAW-SAMPLE-LENGTH;
#N canvas 151 119 450 160 HSL-RANGE 0;
#X msg 39 44 range \$1 \$2;
#X obj 77 71 s \$0-i-play-cursor;
#X obj 66 97 s \$0-i-endPoint;
#X obj 39 122 s \$0-i-startPoint;
#X obj 39 19 inlet;
#X connect 0 0 1 0;
#X connect 0 0 2 0;
#X connect 0 0 3 0;
#X connect 4 0 0 0;
#X restore 25 605 pd HSL-RANGE;
#X text 15 487 ----------------------------------------------------------------------------------------------, f 95;
#X text 13 688 ----------------------------------------------------------------------------------------------, f 95;
#X obj 182 37 r \$0-reload;
#X msg 318 97 \; \$1-SAMPLE normalize \;;
#X obj 16 555 pack 0 f, f 11;
#X msg 15 296 read -resize \$1 \$2-SAMPLE;
#X connect 0 0 3 0;
#X connect 1 0 3 1;
#X connect 1 0 10 0;
#X connect 2 0 22 0;
#X connect 3 0 5 0;
#X connect 4 0 1 0;
#X connect 5 0 50 0;
#X connect 5 0 17 0;
#X connect 6 0 7 0;
#X connect 6 1 8 0;
#X connect 7 0 14 0;
#X connect 7 0 26 0;
#X connect 8 0 9 0;
#X connect 9 0 14 1;
#X connect 9 0 15 0;
#X connect 11 0 48 0;
#X connect 12 0 11 0;
#X connect 13 0 27 0;
#X connect 14 0 13 0;
#X connect 16 0 24 0;
#X connect 17 0 19 0;
#X connect 20 0 23 0;
#X connect 20 1 4 0;
#X connect 21 0 3 0;
#X connect 22 0 20 0;
#X connect 23 0 21 0;
#X connect 24 0 0 0;
#X connect 25 0 3 0;
#X connect 30 0 49 0;
#X connect 30 1 49 1;
#X connect 31 0 35 0;
#X connect 32 0 31 0;
#X connect 33 0 38 0;
#X connect 34 0 33 0;
#X connect 36 0 32 0;
#X connect 37 0 34 0;
#X connect 39 0 40 0;
#X connect 39 1 41 0;
#X connect 42 0 39 0;
#X connect 42 0 44 0;
#X connect 43 0 30 0;
#X connect 47 0 22 0;
#X connect 49 0 42 0;
#X connect 50 0 6 0;
#X restore 1637 59 pd SAMPLE-MANAGEMENT;
#N canvas 52 20 927 977 SAMPLE-PLAY 0;
#X msg 17 258 \$1 \, \$2 \$3;
#X obj 407 84 -;
#X obj 421 58 t b f;
#X floatatom 407 150 7 0 0 1 SLICE-LENGTH\ [SAMPLE] - - 0;
#X obj 407 243 /;
#X obj 416 172 r \$0-sample-SR;
#X obj 416 218 t b f;
#X floatatom 407 388 10 0 0 1 SLICE-DURATION[MS] - - 0;
#X obj 407 266 * 1000;
#X obj 50 135 r \$0-endPoint;
#X obj 17 134 f;
#X obj 35 84 r \$0-startPoint;
#X obj 17 22 r \$0-play;
#X obj 407 13 r \$0-startPoint;
#X obj 421 35 r \$0-endPoint;
#X obj 407 106 abs;
#X obj 407 362 / 1, f 4;
#X msg 99 258 \$2 \, \$1 \$3;
#X obj 17 283 spigot;
#X obj 67 283 tgl 20 0 empty \$0-tgl-forward empty 0 -10 0 12 #fcfcfc #000000 #000000 0 1;
#X obj 99 282 spigot;
#X obj 149 282 tgl 20 0 empty \$0-tgl-reverse empty 0 -10 0 12 #fcfcfc #000000 #000000 0 1;
#X obj 623 14 r \$0-reverse;
#X obj 623 39 route 0 1, f 40;
#X obj 623 62 f \$0;
#X obj 761 62 f \$0;
#X msg 761 84 \; \$1-tgl-forward 0 \; \$1-tgl-reverse 1 \;;
#X msg 623 84 \; \$1-tgl-forward 1 \; \$1-tgl-reverse 0 \;;
#X obj 17 766 outlet~;
#X obj 413 338 t b f;
#X obj 185 258 r \$0-stop;
#X obj 414 444 r \$0-SR-PD;
#X obj 407 517 *, f 6;
#X floatatom 407 541 13 0 0 1 SAMPLE-LENGTH-RECONSTRUCTED-PD - - 0;
#X obj 407 654 f \$0;
#X obj 407 679 pack f f;
#X obj 407 565 t b f, f 8;
#X obj 414 468 / 1000;
#X obj 407 625 bng 20 250 50 0 empty \$0-resize empty 0 -10 0 12 #fcfcfc #000000 #000000;
#X floatatom 416 195 6 0 0 0 - - - 0;
#X floatatom 445 362 5 0 0 0 - - - 0;
#X floatatom 407 290 8 0 0 1 SLICE-DURATION\ WITH\ UNIT\ PLAYBACK\ SPEED - - 0;
#X obj 414 493 t b f;
#X obj 407 128 + 1;
#X obj 17 346 vline~;
#X text 429 624 CONTINUOUS RESIZE -> PD CRASH;
#X obj 407 589 s \$0-OUTPUT-RESIZE-NEEDED;
#X obj 35 109 + 1;
#X obj 50 159 - 1;
#X msg 185 283 stop;
#X obj 17 382 tabread4~ \$0-SAMPLE;
#X obj 84 197 r \$0-slice-duration;
#X obj 414 411 s \$0-slice-duration;
#X obj 413 314 r \$0-pb-spd;
#X text 498 314 PLAYBACK SPEED MODIFICATION;
#N canvas 484 161 450 183 PLAY-CURSOR 0;
#X obj 63 88 i;
#X obj 63 112 s \$0-i-play-cursor;
#X obj 63 64 line;
#X obj 63 40 inlet;
#X connect 0 0 1 0;
#X connect 2 0 0 0;
#X connect 3 0 2 0;
#X restore 99 346 pd PLAY-CURSOR;
#X obj 17 221 pack f f f;
#N canvas 925 406 553 210 LOOP 0;
#X obj 79 93 del;
#X obj 79 121 spigot;
#X obj 79 144 s \$0-i-play;
#X obj 134 121 r \$0-loop-on;
#X obj 97 67 r \$0-slice-duration;
#X obj 79 43 inlet, f 6;
#X connect 0 0 1 0;
#X connect 1 0 2 0;
#X connect 3 0 1 1;
#X connect 4 0 0 1;
#X connect 5 0 0 0;
#X restore 29 50 pd LOOP;
#X text 65 110 +1 FOR TABREAD4~ RANGE;
#X text 78 159 -1 FOR TABREAD4~ RANGE;
#X text 97 221 START INDEX - STOP INDEX - DURATION[MS];
#X msg 407 703 \; \$1-OUTPUT resize \$2 \;;
#X obj 43 455 key;
#X floatatom 43 480 5 0 0 0 - - - 0;
#X obj 43 573 s \$0-i-play;
#X obj 43 526 bng 20 250 50 0 empty empty empty 0 -10 0 12 #fcfcfc #000000 #000000;
#X obj 73 549 s \$0-i-stop;
#X obj 43 504 sel 33 64;
#X obj 73 526 bng 20 250 50 0 empty empty empty 0 -10 0 12 #fcfcfc #000000 #000000;
#X obj 103 526 bng 20 250 50 0 empty empty empty 0 -10 0 12 #fcfcfc #000000 #000000;
#X text 41 433 PLAY WITH KEYBOARD: [Shift]+1/2 = PLAY/STOP;
#X connect 0 0 18 0;
#X connect 1 0 15 0;
#X connect 2 0 1 0;
#X connect 2 1 1 1;
#X connect 3 0 4 0;
#X connect 4 0 8 0;
#X connect 5 0 39 0;
#X connect 6 0 4 0;
#X connect 6 1 4 1;
#X connect 7 0 32 0;
#X connect 7 0 52 0;
#X connect 8 0 41 0;
#X connect 9 0 48 0;
#X connect 10 0 56 0;
#X connect 11 0 47 0;
#X connect 12 0 10 0;
#X connect 12 0 57 0;
#X connect 13 0 1 0;
#X connect 14 0 2 0;
#X connect 15 0 43 0;
#X connect 16 0 7 0;
#X connect 17 0 20 0;
#X connect 18 0 44 0;
#X connect 18 0 55 0;
#X connect 19 0 18 1;
#X connect 20 0 44 0;
#X connect 20 0 55 0;
#X connect 21 0 20 1;
#X connect 22 0 23 0;
#X connect 23 0 24 0;
#X connect 23 1 25 0;
#X connect 24 0 27 0;
#X connect 25 0 26 0;
#X connect 29 0 16 0;
#X connect 29 1 40 0;
#X connect 30 0 49 0;
#X connect 31 0 37 0;
#X connect 32 0 33 0;
#X connect 33 0 36 0;
#X connect 34 0 35 0;
#X connect 35 0 61 0;
#X connect 36 0 46 0;
#X connect 36 1 35 1;
#X connect 37 0 42 0;
#X connect 38 0 34 0;
#X connect 39 0 6 0;
#X connect 40 0 16 1;
#X connect 41 0 16 0;
#X connect 42 0 32 0;
#X connect 42 1 32 1;
#X connect 43 0 3 0;
#X connect 44 0 50 0;
#X connect 47 0 10 1;
#X connect 48 0 56 1;
#X connect 49 0 44 0;
#X connect 49 0 55 0;
#X connect 50 0 28 0;
#X connect 51 0 56 2;
#X connect 53 0 29 0;
#X connect 56 0 0 0;
#X connect 56 0 17 0;
#X connect 62 0 63 0;
#X connect 63 0 67 0;
#X connect 65 0 64 0;
#X connect 67 0 65 0;
#X connect 67 1 68 0;
#X connect 67 2 69 0;
#X connect 68 0 66 0;
#X restore 16 350 pd SAMPLE-PLAY;
#X obj 30 873 tabwrite~ \$0-OUTPUT;
#N canvas 297 118 547 268 GUI 0;
#X obj 106 107 bng 20 250 50 0 \$0-load \$0-i-load LOAD 23 10 0 12 #fcfcfc #000000 #000000;
#X obj 334 107 bng 20 250 50 0 \$0-play \$0-i-play PLAY 23 10 0 12 #00ac00 #000000 #000000;
#X obj 106 130 tgl 20 0 \$0-loop-on \$0-i-loop-on LOOP 23 10 0 12 #ffffff #000000 #000000 0 1;
#X obj 162 130 tgl 20 0 \$0-reverse \$0-i-reverse REVERSE 23 10 0 12 #fcfcfc #000000 #000000 0 1;
#X floatatom 241 131 5 0.1 10 1 PLAYBACK\ SPEED \$0-i-pb-spd \$0-pb-spd 0;
#X obj 390 107 bng 20 250 50 0 \$0-stop \$0-i-stop STOP 23 10 0 12 #ffffff #000000 #000000;
#X obj 241 107 bng 20 250 50 0 \$0-normalize \$0-i-normalize-dummy NORMALIZE 23 10 0 12 #fcfcfc #000000 #000000;
#X obj 162 107 bng 20 250 50 0 \$0-reload \$0-i-reload-dummy RELOAD 23 10 0 12 #fcfcfc #000000 #000000;
#X coords 0 -1 1 1 345 55 2 100 100;
#X restore 16 293 pd GUI;
#X text 735 16 NEVER SAVE CONTENT OF SAMPLE ARRAYS -> RUINS THE PATCH;
#X text 129 800 TOO DIMINISHING -> BETTER FUNCTION FOR SOFT CUTTING;
#N canvas 979 20 927 977 Envelope 0;
#X obj 111 274 r \$0-play;
#N canvas 52 20 1854 977 (subpatch) 0;
#X array \$0-ENVELOPE 1000 float 2;
#A color 0;
#A width 2;
#X coords 0 1 1000 0 150 90 1 0 0;
#X restore 106 118 graph;
#X msg 111 322 \$1 \, \$2 \$3;
#X obj 111 345 vline~;
#X obj 111 299 pack 0 999 10;
#X obj 211 298 r \$0-slice-duration;
#X obj 111 368 tabread4~ \$0-ENVELOPE;
#X obj 106 210 hradio 15 1 0 10 \$0-envelope-num \$0-i-envelope-num-dummy empty 190 10 0 12 #fcfcfc #000000 #000000 0;
#X obj 38 407 *~, f 11;
#X obj 37 274 inlet~;
#X obj 39 446 outlet~;
#X text 34 471 --------------------------------------------------------------------------------------, f 86;
#N canvas 101 69 384 206 UNIT-1 0;
#X msg 132 73 const 1;
#X obj 132 49 inlet;
#X obj 132 97 s \$0-ENVELOPE;
#X connect 0 0 2 0;
#X connect 1 0 0 0;
#X restore 38 680 pd UNIT-1;
#N canvas 840 129 946 482 LINEAR-SHARP 0;
#X obj 26 14 inlet;
#X text 459 21 --------------------;
#X obj 26 235 until;
#X obj 26 259 i, f 7;
#X obj 82 259 + 1;
#X msg 73 235 0;
#X obj 26 333 expr $f1/$f2;
#X text 461 39 TOTAL-LENGTH = 1000 POINTS: (0 - 999) \; ATTACK LENGHT = 10 POINTS : (0 - 9) \; RELEASE LENGHT = 10 POINTS : (990 - 999) \;, f 44;
#X obj 26 211 t f b f, f 16;
#X obj 135 313 - 1;
#X obj 26 358 tabwrite \$0-ENVELOPE;
#X obj 26 286 t f f;
#X msg 26 184 10;
#X obj 415 253 until;
#X obj 415 277 i, f 7;
#X obj 471 277 + 1;
#X msg 460 253 0;
#X obj 538 372 - 1;
#X obj 415 373 t f f;
#X obj 415 320 +;
#X msg 552 257 1000;
#X obj 552 279 -, f 6;
#X floatatom 552 301 5 0 0 0 - - - 0;
#X obj 415 211 t f b f f, f 20;
#X obj 552 235 t b f, f 6;
#X floatatom 415 346 5 0 0 1 990-999 - - 0;
#X floatatom 26 312 5 0 0 1 0-9 - - 0;
#X obj 415 423 tabwrite \$0-ENVELOPE;
#X obj 415 398 expr (999-$f1)/$f2;
#X msg 415 184 10;
#X msg 220 186 980;
#X obj 220 237 until;
#X obj 220 261 i, f 7;
#X obj 277 261 + 1;
#X msg 266 237 0;
#X obj 220 211 t f b, f 7;
#X obj 220 289 + 10;
#X obj 220 364 tabwrite \$0-ENVELOPE;
#X obj 220 315 t b f;
#X msg 220 340 1;
#X obj 26 44 t b b b, f 56;
#X obj 220 85 del 20;
#X obj 26 81 del 40;
#X text 459 9 TRAPEZOIDAL ENVELOPE;
#X text 57 184 ATTACK LEN (1);
#X text 251 187 SUSTAIN LEN (2);
#X text 446 184 RELEASE LEN (3);
#X text 257 289 ATTACK LEN (4);
#X text 456 99 4 PARAMETERS (1-4) SHOULD BE CHANGED TO CHANGE THE ENVELOPE ATTACK AND DELAY LENGTH CORRECTLY, f 38;
#X connect 0 0 40 0;
#X connect 2 0 3 0;
#X connect 3 0 4 0;
#X connect 3 0 11 0;
#X connect 4 0 3 1;
#X connect 5 0 3 1;
#X connect 6 0 10 0;
#X connect 8 0 2 0;
#X connect 8 1 5 0;
#X connect 8 2 9 0;
#X connect 9 0 6 1;
#X connect 11 0 26 0;
#X connect 11 1 10 1;
#X connect 12 0 8 0;
#X connect 13 0 14 0;
#X connect 14 0 15 0;
#X connect 14 0 19 0;
#X connect 15 0 14 1;
#X connect 16 0 14 1;
#X connect 17 0 28 1;
#X connect 18 0 28 0;
#X connect 18 1 27 1;
#X connect 19 0 25 0;
#X connect 20 0 21 0;
#X connect 21 0 22 0;
#X connect 22 0 19 1;
#X connect 23 0 13 0;
#X connect 23 1 16 0;
#X connect 23 2 17 0;
#X connect 23 3 24 0;
#X connect 24 0 20 0;
#X connect 24 1 21 1;
#X connect 25 0 18 0;
#X connect 26 0 6 0;
#X connect 28 0 27 0;
#X connect 29 0 23 0;
#X connect 30 0 35 0;
#X connect 31 0 32 0;
#X connect 32 0 33 0;
#X connect 32 0 36 0;
#X connect 33 0 32 1;
#X connect 34 0 32 1;
#X connect 35 0 31 0;
#X connect 35 1 34 0;
#X connect 36 0 38 0;
#X connect 38 0 39 0;
#X connect 38 1 37 1;
#X connect 39 0 37 0;
#X connect 40 0 42 0;
#X connect 40 1 41 0;
#X connect 40 2 29 0;
#X connect 41 0 30 0;
#X connect 42 0 12 0;
#X restore 54 658 pd LINEAR-SHARP;
#N canvas 297 118 806 484 LINEAR-SLOW 0;
#X obj 23 32 inlet;
#X text 456 39 --------------------;
#X obj 23 253 until;
#X obj 23 277 i, f 7;
#X obj 79 277 + 1;
#X msg 70 253 0;
#X obj 23 351 expr $f1/$f2;
#X obj 23 229 t f b f, f 16;
#X obj 132 331 - 1;
#X obj 23 376 tabwrite \$0-ENVELOPE;
#X obj 23 304 t f f;
#X obj 412 271 until;
#X obj 412 295 i, f 7;
#X obj 468 295 + 1;
#X msg 457 271 0;
#X obj 535 390 - 1;
#X obj 412 391 t f f;
#X obj 412 338 +;
#X msg 549 275 1000;
#X obj 549 297 -, f 6;
#X floatatom 549 319 5 0 0 0 - - - 0;
#X obj 412 229 t f b f f, f 20;
#X obj 549 253 t b f, f 6;
#X floatatom 412 364 5 0 0 1 970-999 - - 0;
#X floatatom 23 330 5 0 0 1 0-29 - - 0;
#X obj 412 441 tabwrite \$0-ENVELOPE;
#X obj 412 416 expr (999-$f1)/$f2;
#X obj 217 255 until;
#X obj 217 279 i, f 7;
#X obj 274 279 + 1;
#X msg 263 255 0;
#X obj 217 229 t f b, f 7;
#X obj 217 377 tabwrite \$0-ENVELOPE;
#X obj 217 331 t b f;
#X msg 217 354 1;
#X obj 23 62 t b b b, f 56;
#X obj 217 103 del 20;
#X obj 23 98 del 40;
#X text 456 27 TRAPEZOIDAL ENVELOPE;
#X msg 23 202 30;
#X msg 412 202 30;
#X msg 217 204 940;
#X obj 217 305 + 30;
#X text 458 57 TOTAL-LENGTH = 1000 POINTS: (0 - 999) \; ATTACK LENGHT = 10 POINTS : (0 - 29) \; RELEASE LENGHT = 10 POINTS : (970 - 999) \;, f 44;
#X text 457 113 4 PARAMETERS (1-4) SHOULD BE CHANGED TO CHANGE THE ENVELOPE ATTACK AND DELAY LENGTH CORRECTLY, f 38;
#X text 54 202 ATTACK LEN (1);
#X text 248 205 SUSTAIN LEN (2);
#X text 443 202 RELEASE LEN (3);
#X text 254 305 ATTACK LEN (4);
#X connect 0 0 35 0;
#X connect 2 0 3 0;
#X connect 3 0 4 0;
#X connect 3 0 10 0;
#X connect 4 0 3 1;
#X connect 5 0 3 1;
#X connect 6 0 9 0;
#X connect 7 0 2 0;
#X connect 7 1 5 0;
#X connect 7 2 8 0;
#X connect 8 0 6 1;
#X connect 10 0 24 0;
#X connect 10 1 9 1;
#X connect 11 0 12 0;
#X connect 12 0 13 0;
#X connect 12 0 17 0;
#X connect 13 0 12 1;
#X connect 14 0 12 1;
#X connect 15 0 26 1;
#X connect 16 0 26 0;
#X connect 16 1 25 1;
#X connect 17 0 23 0;
#X connect 18 0 19 0;
#X connect 19 0 20 0;
#X connect 20 0 17 1;
#X connect 21 0 11 0;
#X connect 21 1 14 0;
#X connect 21 2 15 0;
#X connect 21 3 22 0;
#X connect 22 0 18 0;
#X connect 22 1 19 1;
#X connect 23 0 16 0;
#X connect 24 0 6 0;
#X connect 26 0 25 0;
#X connect 27 0 28 0;
#X connect 28 0 29 0;
#X connect 28 0 42 0;
#X connect 29 0 28 1;
#X connect 30 0 28 1;
#X connect 31 0 27 0;
#X connect 31 1 30 0;
#X connect 33 0 34 0;
#X connect 33 1 32 1;
#X connect 34 0 32 0;
#X connect 35 0 37 0;
#X connect 35 1 36 0;
#X connect 35 2 40 0;
#X connect 36 0 41 0;
#X connect 37 0 39 0;
#X connect 39 0 7 0;
#X connect 40 0 21 0;
#X connect 41 0 31 0;
#X connect 42 0 33 0;
#X restore 70 634 pd LINEAR-SLOW;
#X obj 38 498 r \$0-envelope-num;
#X obj 38 525 sel 0 1 2 3 4 5 6 7 8;
#N canvas 297 118 777 489 LINEAR-SLOWER 0;
#X obj 23 32 inlet;
#X text 456 39 --------------------;
#X obj 23 253 until;
#X obj 23 277 i, f 7;
#X obj 79 277 + 1;
#X msg 70 253 0;
#X obj 23 351 expr $f1/$f2;
#X obj 23 229 t f b f, f 16;
#X obj 132 331 - 1;
#X obj 23 376 tabwrite \$0-ENVELOPE;
#X obj 23 304 t f f;
#X obj 412 271 until;
#X obj 412 295 i, f 7;
#X obj 468 295 + 1;
#X msg 457 271 0;
#X obj 535 390 - 1;
#X obj 412 391 t f f;
#X obj 412 338 +;
#X msg 549 275 1000;
#X obj 549 297 -, f 6;
#X floatatom 549 319 5 0 0 0 - - - 0;
#X obj 412 229 t f b f f, f 20;
#X obj 549 253 t b f, f 6;
#X floatatom 412 364 5 0 0 1 920-999 - - 0;
#X floatatom 23 330 5 0 0 1 0-79 - - 0;
#X obj 412 441 tabwrite \$0-ENVELOPE;
#X obj 412 416 expr (999-$f1)/$f2;
#X obj 217 255 until;
#X obj 217 279 i, f 7;
#X obj 274 279 + 1;
#X msg 263 255 0;
#X obj 217 229 t f b, f 7;
#X obj 217 377 tabwrite \$0-ENVELOPE;
#X obj 217 331 t b f;
#X msg 217 354 1;
#X obj 23 62 t b b b, f 56;
#X obj 217 103 del 20;
#X obj 23 98 del 40;
#X text 456 27 TRAPEZOIDAL ENVELOPE;
#X text 458 57 TOTAL-LENGTH = 1000 POINTS: (0 - 999) \; ATTACK LENGHT = 10 POINTS : (0 - 79) \; RELEASE LENGHT = 10 POINTS : (920 - 999) \;, f 44;
#X obj 217 305 + 80;
#X msg 23 202 80;
#X msg 412 202 80;
#X msg 217 204 840;
#X text 456 110 4 PARAMETERS (1-4) SHOULD BE CHANGED TO CHANGE THE ENVELOPE ATTACK AND DELAY LENGTH CORRECTLY, f 38;
#X text 54 202 ATTACK LEN (1);
#X text 248 205 SUSTAIN LEN (2);
#X text 443 202 RELEASE LEN (3);
#X text 254 305 ATTACK LEN (4);
#X connect 0 0 35 0;
#X connect 2 0 3 0;
#X connect 3 0 4 0;
#X connect 3 0 10 0;
#X connect 4 0 3 1;
#X connect 5 0 3 1;
#X connect 6 0 9 0;
#X connect 7 0 2 0;
#X connect 7 1 5 0;
#X connect 7 2 8 0;
#X connect 8 0 6 1;
#X connect 10 0 24 0;
#X connect 10 1 9 1;
#X connect 11 0 12 0;
#X connect 12 0 13 0;
#X connect 12 0 17 0;
#X connect 13 0 12 1;
#X connect 14 0 12 1;
#X connect 15 0 26 1;
#X connect 16 0 26 0;
#X connect 16 1 25 1;
#X connect 17 0 23 0;
#X connect 18 0 19 0;
#X connect 19 0 20 0;
#X connect 20 0 17 1;
#X connect 21 0 11 0;
#X connect 21 1 14 0;
#X connect 21 2 15 0;
#X connect 21 3 22 0;
#X connect 22 0 18 0;
#X connect 22 1 19 1;
#X connect 23 0 16 0;
#X connect 24 0 6 0;
#X connect 26 0 25 0;
#X connect 27 0 28 0;
#X connect 28 0 29 0;
#X connect 28 0 40 0;
#X connect 29 0 28 1;
#X connect 30 0 28 1;
#X connect 31 0 27 0;
#X connect 31 1 30 0;
#X connect 33 0 34 0;
#X connect 33 1 32 1;
#X connect 34 0 32 0;
#X connect 35 0 37 0;
#X connect 35 1 36 0;
#X connect 35 2 42 0;
#X connect 36 0 43 0;
#X connect 37 0 41 0;
#X connect 40 0 33 0;
#X connect 41 0 7 0;
#X connect 42 0 21 0;
#X connect 43 0 31 0;
#X restore 86 609 pd LINEAR-SLOWER;
#X text 420 96 ENVELOPE TYPES: \; 0- UNIT 1 (RESET) \; 1- SHARP LINEAR \; 2- SLOW LINEAR \; 3- SLOWER LINEAR \; 4- ? \;, f 26;
#X text 34 716 POSSIBLE TO MODIFY LINEAR ENVELOPE FOR DIFFERENT ATTACK AND RELEASE LENGHT ALSO FOR UNEQUEAL ATTACK AND RELEASE LENGTH, f 25;
#X connect 0 0 4 0;
#X connect 2 0 3 0;
#X connect 3 0 6 0;
#X connect 4 0 2 0;
#X connect 5 0 4 2;
#X connect 6 0 8 1;
#X connect 8 0 10 0;
#X connect 9 0 8 0;
#X connect 15 0 16 0;
#X connect 16 0 12 0;
#X connect 16 1 13 0;
#X connect 16 2 14 0;
#X connect 16 3 17 0;
#X coords 0 -1 1 1 160 130 2 100 100;
#X restore 17 374 pd Envelope;
#X text 512 304 -FADE ENVELOPE WORKS FINE -> ADD OTHER ENVELOPE FUNCTIONS;
#X connect 1 0 0 0;
#X connect 1 0 16 0;
#X connect 2 0 1 0;
#X connect 4 0 16 0;
#X connect 5 0 0 0;
#X connect 8 0 0 0;
#X connect 15 0 20 0;
#X connect 20 0 2 0;
