#N canvas 1920 0 1920 1009 12;
#N canvas 0 50 450 250 (subpatch) 0;
#X array \$0-SAMPLE 65070 float 2;
#A color 0;
#A width 2;
#X coords 0 1 65070 -1 1800 140 1;
#X restore 16 21 graph;
#N canvas 66 32 1854 977 LOAD-WAVETABLE 0;
#X obj 104 196 openpanel;
#X obj 104 272 soundfiler, f 33;
#X floatatom 104 296 10 0 0 1 N\ SAMPLES - - 0;
#X listbox 332 296 20 0 0 0 - - - 0;
#X obj 104 221 pack s \$0;
#X obj 104 366 outlet;
#X obj 102 102 cnv 20 425 40 empty empty empty 20 12 0 12 #ffc7c6 #404040 0;
#X obj 104 120 bng 19 250 50 0 empty empty empty 0 -10 0 12 #fcfcfc #000000 #000000;
#X listbox 127 120 55 0 0 0 - \$0-i-SAMPLE-LOC \$0-SAMPLE-LOC 12;
#X text 101 100 LOAD SAMPLE;
#X obj 211 215 s \$0-i-SAMPLE-LOC;
#X msg 104 248 read -resize \$1 \$2-SAMPLE;
#X obj 332 366 outlet;
#X msg 104 151 symbol /home/mobin/Documents/Sounds, f 29;
#X connect 0 0 4 0;
#X connect 0 0 10 0;
#X connect 1 0 2 0;
#X connect 1 1 3 0;
#X connect 2 0 5 0;
#X connect 3 0 12 0;
#X connect 4 0 11 0;
#X connect 7 0 13 0;
#X connect 11 0 1 0;
#X connect 13 0 0 0;
#X coords 0 -1 1 1 430 45 2 100 100;
#X restore 15 201 pd LOAD-WAVETABLE;
#X obj 15 21 cnv 5 1 140 \$0-CURSOR-1 \$0-i-CURSOR-1 empty 20 12 0 12 #ff0400 #404040 0;
#X obj 22 21 cnv 5 1 140 \$0-CURSOR-2 \$0-i-CURSOR-2 empty 20 12 0 12 #ff0400 #404040 0;
#N canvas 2160 89 709 258 WINDOW-SIZE 0;
#X obj 104 119 hradio 20 1 0 8 \$0-RADIO-SEL \$0-i-RADIO-SEL empty 0 -10 0 12 #fcfcfc #000000 #000000 0;
#X floatatom 306 77 4 0 0 0 - - - 0;
#X msg 306 122 64;
#X msg 348 122 128;
#X msg 389 122 256;
#X msg 431 122 512;
#X msg 472 122 1024;
#X msg 513 122 2048;
#X msg 555 122 4096;
#X floatatom 306 142 7 0 0 0 - - - 0;
#X obj 306 169 outlet;
#X text 104 100 WINDOW-WAVE-FFT SIZE;
#X obj 306 54 r \$0-RADIO-SEL;
#X obj 306 101 sel 0 1 2 3 4 5 6, f 42;
#X obj 104 38 loadbang;
#X msg 104 63 0;
#X connect 1 0 13 0;
#X connect 2 0 9 0;
#X connect 3 0 9 0;
#X connect 4 0 9 0;
#X connect 5 0 9 0;
#X connect 6 0 9 0;
#X connect 7 0 9 0;
#X connect 8 0 9 0;
#X connect 9 0 10 0;
#X connect 12 0 1 0;
#X connect 13 0 2 0;
#X connect 13 1 3 0;
#X connect 13 2 4 0;
#X connect 13 3 5 0;
#X connect 13 4 6 0;
#X connect 13 5 7 0;
#X connect 13 6 8 0;
#X connect 14 0 15 0;
#X connect 15 0 0 0;
#X coords 0 -1 1 1 170 45 2 100 100;
#X restore 1645 203 pd WINDOW-SIZE;
#X floatatom 1645 277 6 0 0 0 - - - 0;
#X obj 1645 301 s \$0-WINDOW-SIZE;
#X obj 454 201 hsl 1000 45 0 64814 0 0 \$0-PAN \$0-i-PAN PAN 450 25 0 40 #bbbbbb #000000 #000000 0 1;
#N canvas 430 268 671 422 CURSOR 0;
#X obj 166 85 r \$0-FIRST;
#X obj 245 85 r \$0-LAST;
#X msg 388 136 1800;
#X obj 388 161 /, f 10;
#X floatatom 388 186 7 0 0 1 SAMPLE-X-PIXEL - - 0;
#X obj 388 111 t b f, f 10;
#X obj 246 332 s \$0-i-CURSOR-2;
#X obj 166 307 s \$0-i-CURSOR-1;
#X floatatom 166 110 5 0 0 0 - - - 0;
#X floatatom 245 110 5 0 0 0 - - - 0;
#X obj 166 205 *;
#X obj 245 205 *;
#X msg 166 279 pos \$1 \$2;
#X msg 245 279 pos \$1 \$2;
#X obj 166 254 pack f 21;
#X obj 245 254 pack f 21;
#X obj 166 227 + 15;
#X obj 245 228 + 15;
#X obj 388 87 r \$0-SAMPLE-SIZE;
#X connect 0 0 8 0;
#X connect 1 0 9 0;
#X connect 2 0 3 0;
#X connect 3 0 4 0;
#X connect 4 0 10 1;
#X connect 4 0 11 1;
#X connect 5 0 2 0;
#X connect 5 1 3 1;
#X connect 8 0 10 0;
#X connect 9 0 11 0;
#X connect 10 0 16 0;
#X connect 11 0 17 0;
#X connect 12 0 7 0;
#X connect 13 0 6 0;
#X connect 14 0 12 0;
#X connect 15 0 13 0;
#X connect 16 0 14 0;
#X connect 17 0 15 0;
#X connect 18 0 5 0;
#X restore 184 340 pd CURSOR;
#X floatatom 15 249 6 0 0 1 SAMPLE\ SIZE - - 0;
#X obj 15 271 s \$0-SAMPLE-SIZE;
#X listbox 296 246 16 0 0 1 INFO - - 0;
#N canvas 1956 38 381 351 SAMPLE-LOC 0;
#X floatatom 104 104 10 0 0 1 FIRST-SAMPLE \$0-i-FIRST \$0-FIRST 0;
#X floatatom 104 127 10 0 0 1 UNTIL-SAMPLE \$0-i-LAST \$0-LAST 0;
#X obj 101 280 +, f 7;
#X obj 115 195 r \$0-WINDOW-SIZE;
#X obj 101 305 s \$0-i-LAST;
#X obj 101 168 r \$0-FIRST;
#X floatatom 101 253 5 0 0 0 - - - 0;
#X obj 115 220 t b f;
#X connect 2 0 4 0;
#X connect 3 0 7 0;
#X connect 5 0 6 0;
#X connect 6 0 2 0;
#X connect 7 0 6 0;
#X connect 7 1 2 1;
#X coords 0 -1 1 1 165 50 2 100 100;
#X restore 14 318 pd SAMPLE-LOC;
#N canvas 2294 297 423 357 PAN 0;
#X msg 187 196 range \$1 \$2;
#X obj 187 173 pack 0 127, f 11;
#X obj 63 65 int;
#X obj 63 90 s \$0-i-FIRST;
#X obj 187 220 s \$0-i-PAN;
#X obj 187 40 r \$0-SAMPLE-SIZE;
#X obj 187 123 -, f 7;
#X obj 201 65 r \$0-WINDOW-SIZE;
#X obj 201 90 t b f;
#X obj 187 148 t b f, f 11;
#X obj 63 41 r \$0-PAN;
#X connect 0 0 4 0;
#X connect 1 0 0 0;
#X connect 2 0 3 0;
#X connect 5 0 6 0;
#X connect 6 0 9 0;
#X connect 7 0 8 0;
#X connect 8 0 6 0;
#X connect 8 1 6 1;
#X connect 9 0 1 0;
#X connect 9 1 1 1;
#X connect 10 0 2 0;
#X restore 184 318 pd PAN;
#X obj 296 268 unpack f;
#X obj 296 293 s \$0-RECORDED-SR;
#X obj 1655 252 r \$0-RESEND-WS;
#N canvas 297 118 787 516 CHOP-TO-FOCUS 0;
#X obj 388 260 array define \$0-BUFFER;
#X f 41;
#X obj 388 211 array get \$0-SAMPLE;
#X obj 388 187 f;
#X obj 406 161 r \$0-FIRST;
#X obj 453 188 r \$0-WINDOW-SIZE;
#X obj 104 105 bng 40 250 50 0 empty empty CHOP-TO-FOCUS 43 20 0 24 #ff8300 #000000 #000000;
#X obj 388 235 array set \$0-BUFFER 0;
#X obj 539 208 array size \$0-BUFFER;
#X obj 228 238 array size \$0-SAMPLE;
#X obj 228 214 f \$0;
#X obj 228 191 del 200;
#X obj 265 214 r \$0-WINDOW-SIZE;
#X obj 104 167 t b b b b, f 27;
#X obj 166 195 del 400;
#X obj 231 264 r \$0-WINDOW-SIZE;
#X msg 166 263 0;
#X obj 166 287 array get \$0-BUFFER;
#X obj 166 311 array set \$0-SAMPLE 0;
#X obj 136 360 s \$0-SAMPLE-SIZE;
#X obj 136 336 f;
#X obj 168 336 r \$0-WINDOW-SIZE;
#X obj 104 192 del 600;
#X text 257 361 NEW SAMPLE SIZE;
#X obj 104 387 s \$0-SAMPLE-LOADED;
#X obj 104 220 t b b;
#X connect 1 0 6 0;
#X connect 2 0 1 0;
#X connect 3 0 2 1;
#X connect 4 0 1 1;
#X connect 4 0 7 0;
#X connect 5 0 12 0;
#X connect 9 0 8 0;
#X connect 10 0 9 0;
#X connect 11 0 9 1;
#X connect 12 0 21 0;
#X connect 12 1 13 0;
#X connect 12 2 2 0;
#X connect 12 2 10 0;
#X connect 13 0 15 0;
#X connect 14 0 16 1;
#X connect 15 0 16 0;
#X connect 16 0 17 0;
#X connect 19 0 18 0;
#X connect 20 0 19 1;
#X connect 21 0 24 0;
#X connect 24 0 23 0;
#X connect 24 1 19 0;
#X coords 0 -1 1 1 235 50 2 100 100;
#X restore 633 250 pd CHOP-TO-FOCUS;
#N canvas 52 20 1854 977 CHOP-TO-FOCUS 0;
#X obj 104 105 bng 40 250 50 0 empty empty COPY-TO-WAVE 43 20 0 24 #ff0400 #000000 #000000;
#X obj 500 526 s \$0-RESEND-WS;
#X coords 0 -1 1 1 235 50 2 100 100;
#X restore 872 250 pd CHOP-TO-FOCUS;
#N canvas 882 254 698 462 (subpatch) 0;
#X obj 106 105 bng 40 250 50 0 empty empty NORMALIZE 43 20 0 24 #00faff #000000 #000000;
#X msg 106 199 \; \$1-SAMPLE normalize;
#X obj 106 176 f \$0;
#X connect 0 0 2 0;
#X connect 2 0 1 0;
#X coords 0 -1 1 1 178 50 2 100 100;
#X restore 451 250 pd;
#X obj 255 319 cnv 20 170 40 empty empty empty 20 12 0 12 #ff0400 #404040 0;
#X text 258 322 LOADED SAMPLES SHOULD BE OF 48000 SAMPLE RATE, f 23;
#X obj 10 394 cnv 20 350 300 empty empty empty 20 12 0 12 #e0e0e0 #404040 0;
#X floatatom 18 494 10 0 0 1 [Hz] - - 24;
#X obj 18 904 output~;
#X floatatom 18 426 8 -1500 127 1 MIDI - - 24;
#X obj 18 467 mtof;
#X obj 18 650 *~, f 32;
#N canvas 1036 352 450 393 ORIGINAL-PHASOR-FREQ 0;
#X obj 83 132 /, f 7;
#X obj 83 34 r \$0-WINDOW-SIZE;
#X obj 97 84 t b f;
#X obj 97 60 r \$0-RECORDED-SR;
#X floatatom 83 182 11 0 0 1 SLICE-LENGTH[ms] - - 0;
#X obj 83 305 ftom;
#X obj 83 108 f;
#X obj 83 157 * 1000;
#X obj 83 254 /, f 5;
#X obj 83 206 t b f;
#X floatatom 83 279 8 0 0 0 - - - 0;
#X msg 83 230 1000;
#X obj 83 354 outlet;
#X connect 0 0 7 0;
#X connect 1 0 6 0;
#X connect 2 0 6 0;
#X connect 2 1 0 1;
#X connect 3 0 2 0;
#X connect 4 0 9 0;
#X connect 5 0 12 0;
#X connect 6 0 0 0;
#X connect 7 0 4 0;
#X connect 8 0 10 0;
#X connect 9 0 11 0;
#X connect 9 1 8 1;
#X connect 10 0 5 0;
#X connect 11 0 8 0;
#X restore 18 403 pd ORIGINAL-PHASOR-FREQ;
#N canvas 355 129 1440 739 OSCILLATOR 0;
#X obj 286 31 inlet;
#X obj 358 31 inlet;
#N canvas 297 118 756 439 OSCILLATOR-PHASE-0 0;
#X obj 246 158 phasor~;
#X obj 246 243 *~ \$1;
#X obj 229 353 *~;
#X floatatom 364 224 7 0 0 1 - - - 0;
#X floatatom 246 79 8 0 0 1 - - - 0;
#X obj 246 49 inlet;
#X obj 364 49 inlet;
#X obj 246 103 t f b;
#X msg 278 131 0, f 2;
#X obj 246 208 wrap~;
#X obj 246 183 +~ 0;
#X obj 229 378 outlet~;
#X obj 19 334 tabread~ \$0-ENVELOPE;
#X obj 19 227 *~ 997;
#X obj 19 252 +~ 1;
#X obj 246 309 tabread4~ \$0-SAMPLE;
#X floatatom 584 263 7 0 0 0 - - - 0;
#X obj 246 282 +~;
#X obj 584 49 inlet;
#X text 244 28 FREQUENCY[Hz];
#X text 361 28 PHASOR RANGE (WINDOW-SIZE-3);
#X text 581 29 FIRST SAMPLE;
#X text 27 275 ENVELOPE OF LENGHT 1000;
#X connect 0 0 10 0;
#X connect 1 0 17 0;
#X connect 2 0 11 0;
#X connect 3 0 1 1;
#X connect 4 0 7 0;
#X connect 5 0 4 0;
#X connect 6 0 3 0;
#X connect 7 0 0 0;
#X connect 7 1 8 0;
#X connect 8 0 0 1;
#X connect 9 0 1 0;
#X connect 9 0 13 0;
#X connect 10 0 9 0;
#X connect 12 0 2 0;
#X connect 13 0 14 0;
#X connect 14 0 12 0;
#X connect 15 0 2 1;
#X connect 16 0 17 1;
#X connect 17 0 15 0;
#X connect 18 0 16 0;
#X restore 286 119 pd OSCILLATOR-PHASE-0;
#N canvas 52 20 1854 977 (subpatch) 0;
#X array \$0-ENVELOPE 1000 float 2;
#A color 0;
#A width 2;
#X coords 0 1 1000 0 150 60 1 0 0;
#X restore 859 51 graph;
#X obj 860 115 hradio 15 1 0 10 \$0-envelope-num \$0-i-envelope-num-dummy empty 190 10 0 12 #fcfcfc #000000 #000000 0;
#N canvas 101 69 384 206 UNIT-1 0;
#X msg 132 73 const 1;
#X obj 132 49 inlet;
#X obj 132 97 s \$0-ENVELOPE;
#X connect 0 0 2 0;
#X connect 1 0 0 0;
#X restore 860 361 pd UNIT-1;
#N canvas 840 129 946 482 LINEAR-SHARP 0;
#X obj 26 14 inlet;
#X text 459 21 --------------------;
#X obj 26 235 until;
#X obj 26 259 i, f 7;
#X obj 82 259 + 1;
#X msg 73 235 0;
#X obj 26 333 expr $f1/$f2;
#X text 461 39 TOTAL-LENGTH = 1000 POINTS: (0 - 999) \; ATTACK LENGHT = 10 POINTS : (0 - 9) \; RELEASE LENGHT = 10 POINTS : (990 - 999) \;, f 44;
#X obj 26 211 t f b f, f 16;
#X obj 135 313 - 1;
#X obj 26 358 tabwrite \$0-ENVELOPE;
#X obj 26 286 t f f;
#X msg 26 184 10;
#X obj 415 253 until;
#X obj 415 277 i, f 7;
#X obj 471 277 + 1;
#X msg 460 253 0;
#X obj 538 372 - 1;
#X obj 415 373 t f f;
#X obj 415 320 +;
#X msg 552 257 1000;
#X obj 552 279 -, f 6;
#X floatatom 552 301 5 0 0 0 - - - 0;
#X obj 415 211 t f b f f, f 20;
#X obj 552 235 t b f, f 6;
#X floatatom 415 346 5 0 0 1 990-999 - - 0;
#X floatatom 26 312 5 0 0 1 0-9 - - 0;
#X obj 415 423 tabwrite \$0-ENVELOPE;
#X obj 415 398 expr (999-$f1)/$f2;
#X msg 415 184 10;
#X msg 220 186 980;
#X obj 220 237 until;
#X obj 220 261 i, f 7;
#X obj 277 261 + 1;
#X msg 266 237 0;
#X obj 220 211 t f b, f 7;
#X obj 220 289 + 10;
#X obj 220 364 tabwrite \$0-ENVELOPE;
#X obj 220 315 t b f;
#X msg 220 340 1;
#X obj 26 44 t b b b, f 56;
#X obj 220 85 del 20;
#X obj 26 81 del 40;
#X text 459 9 TRAPEZOIDAL ENVELOPE;
#X text 57 184 ATTACK LEN (1);
#X text 251 187 SUSTAIN LEN (2);
#X text 446 184 RELEASE LEN (3);
#X text 257 289 ATTACK LEN (4);
#X text 456 99 4 PARAMETERS (1-4) SHOULD BE CHANGED TO CHANGE THE ENVELOPE ATTACK AND DELAY LENGTH CORRECTLY, f 38;
#X connect 0 0 40 0;
#X connect 2 0 3 0;
#X connect 3 0 4 0;
#X connect 3 0 11 0;
#X connect 4 0 3 1;
#X connect 5 0 3 1;
#X connect 6 0 10 0;
#X connect 8 0 2 0;
#X connect 8 1 5 0;
#X connect 8 2 9 0;
#X connect 9 0 6 1;
#X connect 11 0 26 0;
#X connect 11 1 10 1;
#X connect 12 0 8 0;
#X connect 13 0 14 0;
#X connect 14 0 15 0;
#X connect 14 0 19 0;
#X connect 15 0 14 1;
#X connect 16 0 14 1;
#X connect 17 0 28 1;
#X connect 18 0 28 0;
#X connect 18 1 27 1;
#X connect 19 0 25 0;
#X connect 20 0 21 0;
#X connect 21 0 22 0;
#X connect 22 0 19 1;
#X connect 23 0 13 0;
#X connect 23 1 16 0;
#X connect 23 2 17 0;
#X connect 23 3 24 0;
#X connect 24 0 20 0;
#X connect 24 1 21 1;
#X connect 25 0 18 0;
#X connect 26 0 6 0;
#X connect 28 0 27 0;
#X connect 29 0 23 0;
#X connect 30 0 35 0;
#X connect 31 0 32 0;
#X connect 32 0 33 0;
#X connect 32 0 36 0;
#X connect 33 0 32 1;
#X connect 34 0 32 1;
#X connect 35 0 31 0;
#X connect 35 1 34 0;
#X connect 36 0 38 0;
#X connect 38 0 39 0;
#X connect 38 1 37 1;
#X connect 39 0 37 0;
#X connect 40 0 42 0;
#X connect 40 1 41 0;
#X connect 40 2 29 0;
#X connect 41 0 30 0;
#X connect 42 0 12 0;
#X restore 876 339 pd LINEAR-SHARP;
#N canvas 297 118 806 484 LINEAR-SLOW 0;
#X obj 23 32 inlet;
#X text 456 39 --------------------;
#X obj 23 253 until;
#X obj 23 277 i, f 7;
#X obj 79 277 + 1;
#X msg 70 253 0;
#X obj 23 351 expr $f1/$f2;
#X obj 23 229 t f b f, f 16;
#X obj 132 331 - 1;
#X obj 23 376 tabwrite \$0-ENVELOPE;
#X obj 23 304 t f f;
#X obj 412 271 until;
#X obj 412 295 i, f 7;
#X obj 468 295 + 1;
#X msg 457 271 0;
#X obj 535 390 - 1;
#X obj 412 391 t f f;
#X obj 412 338 +;
#X msg 549 275 1000;
#X obj 549 297 -, f 6;
#X floatatom 549 319 5 0 0 0 - - - 0;
#X obj 412 229 t f b f f, f 20;
#X obj 549 253 t b f, f 6;
#X floatatom 412 364 5 0 0 1 970-999 - - 0;
#X floatatom 23 330 5 0 0 1 0-29 - - 0;
#X obj 412 441 tabwrite \$0-ENVELOPE;
#X obj 412 416 expr (999-$f1)/$f2;
#X obj 217 255 until;
#X obj 217 279 i, f 7;
#X obj 274 279 + 1;
#X msg 263 255 0;
#X obj 217 229 t f b, f 7;
#X obj 217 377 tabwrite \$0-ENVELOPE;
#X obj 217 331 t b f;
#X msg 217 354 1;
#X obj 23 62 t b b b, f 56;
#X obj 217 103 del 20;
#X obj 23 98 del 40;
#X text 456 27 TRAPEZOIDAL ENVELOPE;
#X msg 23 202 30;
#X msg 412 202 30;
#X msg 217 204 940;
#X obj 217 305 + 30;
#X text 458 57 TOTAL-LENGTH = 1000 POINTS: (0 - 999) \; ATTACK LENGHT = 10 POINTS : (0 - 29) \; RELEASE LENGHT = 10 POINTS : (970 - 999) \;, f 44;
#X text 457 113 4 PARAMETERS (1-4) SHOULD BE CHANGED TO CHANGE THE ENVELOPE ATTACK AND DELAY LENGTH CORRECTLY, f 38;
#X text 54 202 ATTACK LEN (1);
#X text 248 205 SUSTAIN LEN (2);
#X text 443 202 RELEASE LEN (3);
#X text 254 305 ATTACK LEN (4);
#X connect 0 0 35 0;
#X connect 2 0 3 0;
#X connect 3 0 4 0;
#X connect 3 0 10 0;
#X connect 4 0 3 1;
#X connect 5 0 3 1;
#X connect 6 0 9 0;
#X connect 7 0 2 0;
#X connect 7 1 5 0;
#X connect 7 2 8 0;
#X connect 8 0 6 1;
#X connect 10 0 24 0;
#X connect 10 1 9 1;
#X connect 11 0 12 0;
#X connect 12 0 13 0;
#X connect 12 0 17 0;
#X connect 13 0 12 1;
#X connect 14 0 12 1;
#X connect 15 0 26 1;
#X connect 16 0 26 0;
#X connect 16 1 25 1;
#X connect 17 0 23 0;
#X connect 18 0 19 0;
#X connect 19 0 20 0;
#X connect 20 0 17 1;
#X connect 21 0 11 0;
#X connect 21 1 14 0;
#X connect 21 2 15 0;
#X connect 21 3 22 0;
#X connect 22 0 18 0;
#X connect 22 1 19 1;
#X connect 23 0 16 0;
#X connect 24 0 6 0;
#X connect 26 0 25 0;
#X connect 27 0 28 0;
#X connect 28 0 29 0;
#X connect 28 0 42 0;
#X connect 29 0 28 1;
#X connect 30 0 28 1;
#X connect 31 0 27 0;
#X connect 31 1 30 0;
#X connect 33 0 34 0;
#X connect 33 1 32 1;
#X connect 34 0 32 0;
#X connect 35 0 37 0;
#X connect 35 1 36 0;
#X connect 35 2 40 0;
#X connect 36 0 41 0;
#X connect 37 0 39 0;
#X connect 39 0 7 0;
#X connect 40 0 21 0;
#X connect 41 0 31 0;
#X connect 42 0 33 0;
#X restore 892 315 pd LINEAR-SLOW;
#X obj 860 133 r \$0-envelope-num;
#X obj 860 160 sel 0 1 2 3 4 5 6 7 8;
#N canvas 2173 170 777 489 LINEAR-SLOWER 0;
#X obj 23 32 inlet;
#X text 456 39 --------------------;
#X obj 23 253 until;
#X obj 23 277 i, f 7;
#X obj 79 277 + 1;
#X msg 70 253 0;
#X obj 23 351 expr $f1/$f2;
#X obj 23 229 t f b f, f 16;
#X obj 132 331 - 1;
#X obj 23 376 tabwrite \$0-ENVELOPE;
#X obj 23 304 t f f;
#X obj 412 271 until;
#X obj 412 295 i, f 7;
#X obj 468 295 + 1;
#X msg 457 271 0;
#X obj 535 390 - 1;
#X obj 412 391 t f f;
#X obj 412 338 +;
#X msg 549 275 1000;
#X obj 549 297 -, f 6;
#X floatatom 549 319 5 0 0 0 - - - 0;
#X obj 412 229 t f b f f, f 20;
#X obj 549 253 t b f, f 6;
#X floatatom 412 364 5 0 0 1 920-999 - - 0;
#X floatatom 23 330 5 0 0 1 0-79 - - 0;
#X obj 412 441 tabwrite \$0-ENVELOPE;
#X obj 412 416 expr (999-$f1)/$f2;
#X obj 217 255 until;
#X obj 217 279 i, f 7;
#X obj 274 279 + 1;
#X msg 263 255 0;
#X obj 217 229 t f b, f 7;
#X obj 217 377 tabwrite \$0-ENVELOPE;
#X obj 217 331 t b f;
#X msg 217 354 1;
#X obj 23 62 t b b b, f 56;
#X obj 217 103 del 20;
#X obj 23 98 del 40;
#X text 456 27 TRAPEZOIDAL ENVELOPE;
#X text 458 57 TOTAL-LENGTH = 1000 POINTS: (0 - 999) \; ATTACK LENGHT = 10 POINTS : (0 - 79) \; RELEASE LENGHT = 10 POINTS : (920 - 999) \;, f 44;
#X obj 217 305 + 80;
#X msg 23 202 80;
#X msg 412 202 80;
#X msg 217 204 840;
#X text 456 110 4 PARAMETERS (1-4) SHOULD BE CHANGED TO CHANGE THE ENVELOPE ATTACK AND DELAY LENGTH CORRECTLY, f 38;
#X text 54 202 ATTACK LEN (1);
#X text 248 205 SUSTAIN LEN (2);
#X text 443 202 RELEASE LEN (3);
#X text 254 305 ATTACK LEN (4);
#X connect 0 0 35 0;
#X connect 2 0 3 0;
#X connect 3 0 4 0;
#X connect 3 0 10 0;
#X connect 4 0 3 1;
#X connect 5 0 3 1;
#X connect 6 0 9 0;
#X connect 7 0 2 0;
#X connect 7 1 5 0;
#X connect 7 2 8 0;
#X connect 8 0 6 1;
#X connect 10 0 24 0;
#X connect 10 1 9 1;
#X connect 11 0 12 0;
#X connect 12 0 13 0;
#X connect 12 0 17 0;
#X connect 13 0 12 1;
#X connect 14 0 12 1;
#X connect 15 0 26 1;
#X connect 16 0 26 0;
#X connect 16 1 25 1;
#X connect 17 0 23 0;
#X connect 18 0 19 0;
#X connect 19 0 20 0;
#X connect 20 0 17 1;
#X connect 21 0 11 0;
#X connect 21 1 14 0;
#X connect 21 2 15 0;
#X connect 21 3 22 0;
#X connect 22 0 18 0;
#X connect 22 1 19 1;
#X connect 23 0 16 0;
#X connect 24 0 6 0;
#X connect 26 0 25 0;
#X connect 27 0 28 0;
#X connect 28 0 29 0;
#X connect 28 0 40 0;
#X connect 29 0 28 1;
#X connect 30 0 28 1;
#X connect 31 0 27 0;
#X connect 31 1 30 0;
#X connect 33 0 34 0;
#X connect 33 1 32 1;
#X connect 34 0 32 0;
#X connect 35 0 37 0;
#X connect 35 1 36 0;
#X connect 35 2 42 0;
#X connect 36 0 43 0;
#X connect 37 0 41 0;
#X connect 40 0 33 0;
#X connect 41 0 7 0;
#X connect 42 0 21 0;
#X connect 43 0 31 0;
#X restore 908 290 pd LINEAR-SLOWER;
#N canvas 678 256 933 485 ROUNDED-SLOWER 0;
#X obj 23 32 inlet;
#X obj 23 253 until;
#X obj 23 277 i, f 7;
#X obj 80 277 + 1;
#X msg 71 253 0;
#X obj 23 229 t f b f, f 15;
#X obj 244 330 - 1;
#X obj 23 379 tabwrite \$0-ENVELOPE;
#X obj 23 304 t f f;
#X obj 587 207 until;
#X obj 587 231 i, f 7;
#X obj 643 231 + 1;
#X msg 632 207 0;
#X obj 710 326 - 1;
#X obj 587 327 t f f;
#X obj 587 274 +;
#X msg 724 211 1000;
#X obj 724 233 -, f 6;
#X floatatom 724 255 5 0 0 0 - - - 0;
#X obj 587 165 t f b f f, f 20;
#X obj 724 189 t b f, f 6;
#X floatatom 587 300 5 0 0 1 920-999 - - 0;
#X floatatom 23 330 5 0 0 1 0-59 - - 0;
#X obj 587 381 tabwrite \$0-ENVELOPE;
#X obj 305 236 until;
#X obj 305 260 i, f 7;
#X obj 362 260 + 1;
#X msg 351 236 0;
#X obj 305 210 t f b, f 7;
#X obj 305 380 tabwrite \$0-ENVELOPE;
#X obj 305 334 t b f;
#X msg 305 357 1;
#X obj 305 87 del 20;
#X obj 23 86 del 40;
#X obj 305 286 + 80;
#X msg 587 138 80;
#X msg 305 180 840;
#X text 54 202 ATTACK LEN (1);
#X text 336 181 SUSTAIN LEN (2);
#X text 618 138 RELEASE LEN (3);
#X text 342 286 ATTACK LEN (4);
#X floatatom 305 310 5 0 0 0 - - - 0;
#X obj 23 356 expr sin((acos(-1))*$f1/(2*$f2));
#X obj 23 62 t b b b, f 81;
#X obj 587 356 expr sin((acos(-1))*(999-$f1)/(2*$f2));
#X text 583 407 f(n) = sin(((pi/2)*(999-n)/(RELEASE-LEN -1)));
#X msg 23 202 80;
#X text 19 407 f(n) = sin((pi/2)*(n/ATTACK-LEN - 1));
#X text 304 406 f(n) = 1;
#X text 118 19 TRAPEZOIDAL ENVELOPE WITH ROUND CORNERS: USING SIN FUNCTION;
#X text 118 31 -----------------------------------------------------------;
#X text 19 446 ** pi == acos(-1);
#X text 628 43 4 PARAMETERS (1-4) SHOULD BE CHANGED TO CHANGE THE ENVELOPE ATTACK AND DELAY LENGTH CORRECTLY, f 38;
#X connect 0 0 43 0;
#X connect 1 0 2 0;
#X connect 2 0 3 0;
#X connect 2 0 8 0;
#X connect 3 0 2 1;
#X connect 4 0 2 1;
#X connect 5 0 1 0;
#X connect 5 1 4 0;
#X connect 5 2 6 0;
#X connect 6 0 42 1;
#X connect 8 0 22 0;
#X connect 8 1 7 1;
#X connect 9 0 10 0;
#X connect 10 0 11 0;
#X connect 10 0 15 0;
#X connect 11 0 10 1;
#X connect 12 0 10 1;
#X connect 13 0 44 1;
#X connect 14 0 44 0;
#X connect 14 1 23 1;
#X connect 15 0 21 0;
#X connect 16 0 17 0;
#X connect 17 0 18 0;
#X connect 18 0 15 1;
#X connect 19 0 9 0;
#X connect 19 1 12 0;
#X connect 19 2 13 0;
#X connect 19 3 20 0;
#X connect 20 0 16 0;
#X connect 20 1 17 1;
#X connect 21 0 14 0;
#X connect 22 0 42 0;
#X connect 24 0 25 0;
#X connect 25 0 26 0;
#X connect 25 0 34 0;
#X connect 26 0 25 1;
#X connect 27 0 25 1;
#X connect 28 0 24 0;
#X connect 28 1 27 0;
#X connect 30 0 31 0;
#X connect 30 1 29 1;
#X connect 31 0 29 0;
#X connect 32 0 36 0;
#X connect 33 0 46 0;
#X connect 34 0 41 0;
#X connect 35 0 19 0;
#X connect 36 0 28 0;
#X connect 41 0 30 0;
#X connect 42 0 7 0;
#X connect 43 0 33 0;
#X connect 43 1 32 0;
#X connect 43 2 35 0;
#X connect 44 0 23 0;
#X connect 46 0 5 0;
#X restore 924 266 pd ROUNDED-SLOWER;
#N canvas 2075 359 933 485 ROUNDED-EVEN-SLOWER 0;
#X obj 23 32 inlet;
#X obj 23 253 until;
#X obj 23 277 i, f 7;
#X obj 80 277 + 1;
#X msg 71 253 0;
#X obj 23 229 t f b f, f 15;
#X obj 244 330 - 1;
#X obj 23 379 tabwrite \$0-ENVELOPE;
#X obj 23 304 t f f;
#X obj 587 207 until;
#X obj 587 231 i, f 7;
#X obj 643 231 + 1;
#X msg 632 207 0;
#X obj 710 326 - 1;
#X obj 587 327 t f f;
#X obj 587 274 +;
#X msg 724 211 1000;
#X obj 724 233 -, f 6;
#X floatatom 724 255 5 0 0 0 - - - 0;
#X obj 587 165 t f b f f, f 20;
#X obj 724 189 t b f, f 6;
#X floatatom 587 300 5 0 0 1 880-999 - - 0;
#X floatatom 23 330 5 0 0 1 0-119 - - 0;
#X obj 587 381 tabwrite \$0-ENVELOPE;
#X obj 305 236 until;
#X obj 305 260 i, f 7;
#X obj 362 260 + 1;
#X msg 351 236 0;
#X obj 305 210 t f b, f 7;
#X obj 305 380 tabwrite \$0-ENVELOPE;
#X obj 305 334 t b f;
#X msg 305 357 1;
#X obj 305 87 del 20;
#X obj 23 86 del 40;
#X text 54 202 ATTACK LEN (1);
#X text 336 181 SUSTAIN LEN (2);
#X text 618 138 RELEASE LEN (3);
#X text 345 286 ATTACK LEN (4);
#X floatatom 305 310 5 0 0 1 120-879 - - 0;
#X obj 23 356 expr sin((acos(-1))*$f1/(2*$f2));
#X obj 23 62 t b b b, f 81;
#X obj 587 356 expr sin((acos(-1))*(999-$f1)/(2*$f2));
#X text 583 407 f(n) = sin(((pi/2)*(999-n)/(RELEASE-LEN -1)));
#X text 19 407 f(n) = sin((pi/2)*(n/ATTACK-LEN - 1));
#X text 304 406 f(n) = 1;
#X text 118 19 TRAPEZOIDAL ENVELOPE WITH ROUND CORNERS: USING SIN FUNCTION;
#X text 118 31 -----------------------------------------------------------;
#X text 19 446 ** pi == acos(-1);
#X msg 23 202 120;
#X msg 587 138 120;
#X msg 305 180 760;
#X obj 305 286 + 120;
#X text 626 53 4 PARAMETERS (1-4) SHOULD BE CHANGED TO CHANGE THE ENVELOPE ATTACK AND DELAY LENGTH CORRECTLY, f 38;
#X connect 0 0 40 0;
#X connect 1 0 2 0;
#X connect 2 0 3 0;
#X connect 2 0 8 0;
#X connect 3 0 2 1;
#X connect 4 0 2 1;
#X connect 5 0 1 0;
#X connect 5 1 4 0;
#X connect 5 2 6 0;
#X connect 6 0 39 1;
#X connect 8 0 22 0;
#X connect 8 1 7 1;
#X connect 9 0 10 0;
#X connect 10 0 11 0;
#X connect 10 0 15 0;
#X connect 11 0 10 1;
#X connect 12 0 10 1;
#X connect 13 0 41 1;
#X connect 14 0 41 0;
#X connect 14 1 23 1;
#X connect 15 0 21 0;
#X connect 16 0 17 0;
#X connect 17 0 18 0;
#X connect 18 0 15 1;
#X connect 19 0 9 0;
#X connect 19 1 12 0;
#X connect 19 2 13 0;
#X connect 19 3 20 0;
#X connect 20 0 16 0;
#X connect 20 1 17 1;
#X connect 21 0 14 0;
#X connect 22 0 39 0;
#X connect 24 0 25 0;
#X connect 25 0 26 0;
#X connect 25 0 51 0;
#X connect 26 0 25 1;
#X connect 27 0 25 1;
#X connect 28 0 24 0;
#X connect 28 1 27 0;
#X connect 30 0 31 0;
#X connect 30 1 29 1;
#X connect 31 0 29 0;
#X connect 32 0 50 0;
#X connect 33 0 48 0;
#X connect 38 0 30 0;
#X connect 39 0 7 0;
#X connect 40 0 33 0;
#X connect 40 1 32 0;
#X connect 40 2 49 0;
#X connect 41 0 23 0;
#X connect 48 0 5 0;
#X connect 49 0 19 0;
#X connect 50 0 28 0;
#X connect 51 0 38 0;
#X restore 940 242 pd ROUNDED-EVEN-SLOWER;
#N canvas 704 467 933 446 HANN 0;
#X obj 23 32 inlet;
#X obj 23 86 del 40;
#X text 118 31 -----------------------------------------------------------;
#X obj 23 62 t b b, f 25;
#X text 118 19 HANN WINDOW (Cosine based);
#X text 363 94 HANN window formulation: \; f(n) = (sin(pi*n/WINDOW-LEN))^2 \;;
#X obj 195 187 until;
#X obj 195 211 i, f 7;
#X obj 252 211 + 1;
#X msg 243 187 0;
#X obj 195 163 t f b f, f 15;
#X obj 444 260 - 1;
#X obj 195 313 tabwrite \$0-ENVELOPE;
#X obj 195 238 t f f;
#X floatatom 195 264 5 0 0 1 0-999 - - 0;
#X text 236 136 ATTACK LEN (1);
#X text 192 339 ** pi == acos(-1);
#X msg 195 136 1000;
#X obj 23 311 tabwrite \$0-ENVELOPE;
#X obj 160 156 - 1;
#X msg 23 263 0;
#X text 30 209 FORCE SETTING TO 0 DUE TO NUMERICAL ERROR, f 15;
#X text 367 149 1 PARAMETERS (1) TO CHANGE FOR DIFFERENW WINDOW LENGHT, f 28;
#X obj 195 290 expr pow(sin((acos(-1)*$f1/$f2)) \, 2);
#X text 459 288 REFERENCE VALUE OF POWER FOR HANN WINDOW IS 2 SETTING HIGHER WILL MAKE THE HANN WINDOW THINNER IN THE MIDDLE. AND SETTING IT LOWER EX: 1 \, 0.5 \, ..)0 WILL MAKE IT FATTER., f 48;
#X connect 0 0 3 0;
#X connect 1 0 20 0;
#X connect 3 0 1 0;
#X connect 3 1 17 0;
#X connect 6 0 7 0;
#X connect 7 0 8 0;
#X connect 7 0 13 0;
#X connect 8 0 7 1;
#X connect 9 0 7 1;
#X connect 10 0 6 0;
#X connect 10 1 9 0;
#X connect 10 2 11 0;
#X connect 11 0 23 1;
#X connect 13 0 14 0;
#X connect 13 1 12 1;
#X connect 14 0 23 0;
#X connect 17 0 10 0;
#X connect 17 0 19 0;
#X connect 19 0 18 1;
#X connect 20 0 18 0;
#X connect 23 0 12 0;
#X restore 956 217 pd HANN;
#N canvas 704 467 933 446 HANN-THIN 0;
#X obj 23 32 inlet;
#X obj 23 86 del 40;
#X text 118 31 -----------------------------------------------------------;
#X obj 23 62 t b b, f 25;
#X text 118 19 HANN WINDOW (Cosine based);
#X text 363 94 HANN window formulation: \; f(n) = (sin(pi*n/WINDOW-LEN))^2 \;;
#X obj 195 187 until;
#X obj 195 211 i, f 7;
#X obj 252 211 + 1;
#X msg 243 187 0;
#X obj 195 163 t f b f, f 15;
#X obj 444 260 - 1;
#X obj 195 313 tabwrite \$0-ENVELOPE;
#X obj 195 238 t f f;
#X floatatom 195 264 5 0 0 1 0-999 - - 0;
#X text 236 136 ATTACK LEN (1);
#X text 192 339 ** pi == acos(-1);
#X msg 195 136 1000;
#X obj 23 311 tabwrite \$0-ENVELOPE;
#X obj 160 156 - 1;
#X msg 23 263 0;
#X text 30 209 FORCE SETTING TO 0 DUE TO NUMERICAL ERROR, f 15;
#X text 367 149 1 PARAMETERS (1) TO CHANGE FOR DIFFERENW WINDOW LENGHT, f 28;
#X obj 195 290 expr pow(sin((acos(-1)*$f1/$f2)) \, 3);
#X text 459 288 REFERENCE VALUE OF POWER FOR HANN WINDOW IS 2 SETTING HIGHER WILL MAKE THE HANN WINDOW THINNER IN THE MIDDLE. AND SETTING IT LOWER EX: 1 \, 0.5 \, ..)0 WILL MAKE IT FATTER., f 48;
#X connect 0 0 3 0;
#X connect 1 0 20 0;
#X connect 3 0 1 0;
#X connect 3 1 17 0;
#X connect 6 0 7 0;
#X connect 7 0 8 0;
#X connect 7 0 13 0;
#X connect 8 0 7 1;
#X connect 9 0 7 1;
#X connect 10 0 6 0;
#X connect 10 1 9 0;
#X connect 10 2 11 0;
#X connect 11 0 23 1;
#X connect 13 0 14 0;
#X connect 13 1 12 1;
#X connect 14 0 23 0;
#X connect 17 0 10 0;
#X connect 17 0 19 0;
#X connect 19 0 18 1;
#X connect 20 0 18 0;
#X connect 23 0 12 0;
#X restore 972 192 pd HANN-THIN;
#X obj 430 30 inlet;
#X obj 286 298 +~, f 5;
#X obj 131 121 tgl 20 0 empty empty 4 7 10 0 12 #faff00 #000000 #000000 0 1;
#X obj 286 258 *~;
#X obj 105 121 tgl 20 0 empty empty 1 7 10 0 12 #faff00 #000000 #000000 0 1;
#X obj 318 258 *~;
#X obj 353 258 *~;
#X obj 389 258 *~;
#X msg 105 148 0, f 2;
#X text 509 25 INLET-1: FREQUENCY[Hz] \; INLET-2: PHASOR RANGE(WINDOW-SIZE-3) \; INLET-3: FIRST SAMPLE \;;
#X text 102 100 OSCILLATORS;
#N canvas 459 271 756 439 OSCILLATOR-PHASE-0.25 0;
#X obj 246 158 phasor~;
#X obj 246 243 *~ \$1;
#X obj 229 353 *~;
#X floatatom 364 224 7 0 0 1 - - - 0;
#X floatatom 246 79 8 0 0 1 - - - 0;
#X obj 246 49 inlet;
#X obj 364 49 inlet;
#X obj 246 103 t f b;
#X msg 278 131 0, f 2;
#X obj 246 208 wrap~;
#X obj 229 378 outlet~;
#X obj 19 334 tabread~ \$0-ENVELOPE;
#X obj 19 227 *~ 997;
#X obj 19 252 +~ 1;
#X obj 246 309 tabread4~ \$0-SAMPLE;
#X floatatom 584 263 7 0 0 0 - - - 0;
#X obj 246 282 +~;
#X obj 584 49 inlet;
#X text 244 28 FREQUENCY[Hz];
#X text 361 28 PHASOR RANGE (WINDOW-SIZE-3);
#X text 581 29 FIRST SAMPLE;
#X text 27 275 ENVELOPE OF LENGHT 1000;
#X obj 246 183 +~ 0.25;
#X connect 0 0 22 0;
#X connect 1 0 16 0;
#X connect 2 0 10 0;
#X connect 3 0 1 1;
#X connect 4 0 7 0;
#X connect 5 0 4 0;
#X connect 6 0 3 0;
#X connect 7 0 0 0;
#X connect 7 1 8 0;
#X connect 8 0 0 1;
#X connect 9 0 1 0;
#X connect 9 0 12 0;
#X connect 11 0 2 0;
#X connect 12 0 13 0;
#X connect 13 0 11 0;
#X connect 14 0 2 1;
#X connect 15 0 16 1;
#X connect 16 0 14 0;
#X connect 17 0 15 0;
#X connect 22 0 9 0;
#X restore 318 143 pd OSCILLATOR-PHASE-0.25;
#N canvas 297 118 756 439 OSCILLATOR-PHASE-0.5 0;
#X obj 246 158 phasor~;
#X obj 246 243 *~ \$1;
#X obj 229 353 *~;
#X floatatom 364 224 7 0 0 1 - - - 0;
#X floatatom 246 79 8 0 0 1 - - - 0;
#X obj 246 49 inlet;
#X obj 364 49 inlet;
#X obj 246 103 t f b;
#X msg 278 131 0, f 2;
#X obj 246 208 wrap~;
#X obj 229 378 outlet~;
#X obj 19 334 tabread~ \$0-ENVELOPE;
#X obj 19 227 *~ 997;
#X obj 19 252 +~ 1;
#X obj 246 309 tabread4~ \$0-SAMPLE;
#X floatatom 584 263 7 0 0 0 - - - 0;
#X obj 246 282 +~;
#X obj 584 49 inlet;
#X text 244 28 FREQUENCY[Hz];
#X text 361 28 PHASOR RANGE (WINDOW-SIZE-3);
#X text 581 29 FIRST SAMPLE;
#X text 27 275 ENVELOPE OF LENGHT 1000;
#X obj 246 183 +~ 0.5;
#X connect 0 0 22 0;
#X connect 1 0 16 0;
#X connect 2 0 10 0;
#X connect 3 0 1 1;
#X connect 4 0 7 0;
#X connect 5 0 4 0;
#X connect 6 0 3 0;
#X connect 7 0 0 0;
#X connect 7 1 8 0;
#X connect 8 0 0 1;
#X connect 9 0 1 0;
#X connect 9 0 12 0;
#X connect 11 0 2 0;
#X connect 12 0 13 0;
#X connect 13 0 11 0;
#X connect 14 0 2 1;
#X connect 15 0 16 1;
#X connect 16 0 14 0;
#X connect 17 0 15 0;
#X connect 22 0 9 0;
#X restore 353 167 pd OSCILLATOR-PHASE-0.5;
#N canvas 297 118 756 439 OSCILLATOR-PHASE-0.75 0;
#X obj 246 158 phasor~;
#X obj 246 243 *~ \$1;
#X obj 229 353 *~;
#X floatatom 364 224 7 0 0 1 - - - 0;
#X floatatom 246 79 8 0 0 1 - - - 0;
#X obj 246 49 inlet;
#X obj 364 49 inlet;
#X obj 246 103 t f b;
#X msg 278 131 0, f 2;
#X obj 246 208 wrap~;
#X obj 229 378 outlet~;
#X obj 19 334 tabread~ \$0-ENVELOPE;
#X obj 19 227 *~ 997;
#X obj 19 252 +~ 1;
#X obj 246 309 tabread4~ \$0-SAMPLE;
#X floatatom 584 263 7 0 0 0 - - - 0;
#X obj 246 282 +~;
#X obj 584 49 inlet;
#X text 244 28 FREQUENCY[Hz];
#X text 361 28 PHASOR RANGE (WINDOW-SIZE-3);
#X text 581 29 FIRST SAMPLE;
#X text 27 275 ENVELOPE OF LENGHT 1000;
#X obj 246 183 +~ 0.5;
#X connect 0 0 22 0;
#X connect 1 0 16 0;
#X connect 2 0 10 0;
#X connect 3 0 1 1;
#X connect 4 0 7 0;
#X connect 5 0 4 0;
#X connect 6 0 3 0;
#X connect 7 0 0 0;
#X connect 7 1 8 0;
#X connect 8 0 0 1;
#X connect 9 0 1 0;
#X connect 9 0 12 0;
#X connect 11 0 2 0;
#X connect 12 0 13 0;
#X connect 13 0 11 0;
#X connect 14 0 2 1;
#X connect 15 0 16 1;
#X connect 16 0 14 0;
#X connect 17 0 15 0;
#X connect 22 0 9 0;
#X restore 389 192 pd OSCILLATOR-PHASE-0.75;
#X obj 286 439 outlet~;
#X obj 283 340 cnv 20 200 80 empty empty empty 20 12 0 12 #ff8300 #404040 0;
#X obj 285 369 *~ 1, f 5;
#X msg 317 345 0.667;
#X text 299 388 NORMALIZATION DUR TO 4 ENVELOPED OSCILLATOR, f 22;
#X msg 368 345 1;
#X obj 368 313 loadbang;
#X obj 131 280 sel 1 0;
#X obj 105 325 bng 20 250 50 0 empty empty empty 0 -10 0 12 #fcfcfc #000000 #000000;
#X connect 0 0 2 0;
#X connect 0 0 26 0;
#X connect 0 0 27 0;
#X connect 0 0 28 0;
#X connect 1 0 2 1;
#X connect 1 0 26 1;
#X connect 1 0 27 1;
#X connect 1 0 28 1;
#X connect 2 0 18 0;
#X connect 8 0 9 0;
#X connect 9 0 5 0;
#X connect 9 1 6 0;
#X connect 9 2 7 0;
#X connect 9 3 10 0;
#X connect 9 4 11 0;
#X connect 9 5 12 0;
#X connect 9 6 13 0;
#X connect 9 7 14 0;
#X connect 15 0 2 2;
#X connect 15 0 26 2;
#X connect 15 0 27 2;
#X connect 15 0 28 2;
#X connect 16 0 31 0;
#X connect 17 0 22 1;
#X connect 17 0 21 1;
#X connect 17 0 20 1;
#X connect 17 0 36 0;
#X connect 18 0 16 0;
#X connect 19 0 18 1;
#X connect 19 0 23 0;
#X connect 19 0 37 0;
#X connect 20 0 16 1;
#X connect 21 0 16 1;
#X connect 22 0 16 1;
#X connect 23 0 17 0;
#X connect 26 0 20 0;
#X connect 27 0 21 0;
#X connect 28 0 22 0;
#X connect 31 0 29 0;
#X connect 32 0 31 1;
#X connect 34 0 31 1;
#X connect 35 0 34 0;
#X connect 36 0 32 0;
#X connect 36 1 34 0;
#X connect 37 0 34 0;
#X coords 0 -1 1 1 85 45 2 100 100;
#X restore 18 591 pd OSCILLATOR;
#X f 24;
#X obj 241 518 line~;
#X obj 241 459 bng 35 250 50 0 empty empty PLAY 40 18 0 20 #ff0400 #ff0400 #ff0400;
#X msg 286 518 0 500;
#X obj 240 543 *~;
#X msg 241 496 1 50;
#X obj 286 494 del 200;
#X obj 274 618 tgl 20 0 empty empty empty 0 -10 0 12 #fcfcfc #000000 #000000 0 1;
#X obj 240 619 +~;
#X msg 274 595 0, f 2;
#X obj 96 563 r \$0-FIRST;
#X obj 57 539 r \$0-WINDOW-SIZE;
#X obj 57 563 - 3;
#X obj 450 318 cnv 20 460 670 empty empty empty 20 12 0 12 #ffe3c6 #404040 0;
#N canvas 0 50 450 250 (subpatch) 0;
#X array \$0-WAVETABLE 1024 float 4;
#A color 0;
#A width 1;
#X coords 0 1 1023 -1 430 125 1 0 0;
#X restore 462 341 graph;
#N canvas 0 50 450 250 (subpatch) 0;
#X array \$0-REAL 1024 float 4;
#A color 0;
#A width 1;
#X coords 0 1 1023 -1 430 125 1 0 0;
#X restore 462 488 graph;
#N canvas 0 50 450 250 (subpatch) 0;
#X array \$0-IMAGINARY 1024 float 4;
#A color 0;
#A width 1;
#X coords 0 1 1023 -1 430 125 1 0 0;
#X restore 462 634 graph;
#N canvas 0 50 450 250 (subpatch) 0;
#X array \$0-MAGNITUDE 1024 float 4;
#A color 0;
#A width 1;
#X coords 0 1 1023 0 430 125 1 0 0;
#X restore 462 780 graph;
#N canvas 2152 240 957 547 FFT 0;
#X obj 122 154 *~;
#X obj 155 154 *~;
#X obj 121 178 +~;
#X obj 120 201 sqrt~;
#X obj 31 133 rfft~;
#X obj 5 3 bng 20 250 50 0 empty empty DRAW-FFT 23 10 0 12 #fcfcfc #000000 #000000;
#X obj 31 275 tabwrite~ \$0-REAL;
#X obj 62 252 tabwrite~ \$0-IMAGINARY;
#X obj 120 226 tabwrite~ \$0-MAGNITUDE;
#X obj 30 105 tabreceive~ \$0-WAVETABLE;
#X obj 33 430 /~ 1024, f 9;
#X obj 32 399 rifft~;
#X obj 5 27 bng 20 250 50 0 empty empty DRAW-IFFT 23 10 0 12 #fcfcfc #000000 #000000;
#X obj 32 459 tabwrite~ \$0-WAVETABLE;
#X obj 32 352 tabreceive~ \$0-REAL;
#X obj 70 375 tabreceive~ \$0-IMAGINARY;
#X msg 635 229 set \$1;
#X obj 183 206 r \$0-DRAW-FFT;
#X obj 635 9 r \$0-WINDOW-SIZE;
#X obj 175 439 r \$0-DRAW-IFFT;
#X obj 93 405 r \$0-WINDOW-SIZE;
#X obj 134 23 s \$0-DRAW-FFT;
#X obj 133 47 s \$0-DRAW-IFFT;
#X obj 635 180 spigot;
#X obj 695 179 tgl 20 0 empty empty empty 0 -10 0 12 #fcfcfc #000000 #000000 0 1;
#X obj 757 29 nbx 5 22 -1e+37 1e+37 0 0 empty empty WAVE/FFT\ SIZE 70 11 0 12 #faff00 #000000 #000000 0 256;
#X obj 635 32 t f f, f 9;
#X floatatom 635 205 5 0 0 0 - - - 0;
#X obj 695 61 t f f;
#X obj 695 84 &;
#X obj 727 83 - 1;
#X floatatom 695 109 5 0 0 0 - - - 0;
#X obj 695 133 sel 0;
#X msg 695 156 1, f 1;
#X msg 727 155 0, f 1;
#X text 756 61 BITWISE SHORTCUT TO CHECK IF A NUMBER IS POWER OF 2, f 19;
#X obj 695 249 switch~ 1024 1 1 0;
#X text 722 199 SWITCH ON ONLY IF WINDOW SIZE POWER OF 2, f 14;
#X connect 0 0 2 0;
#X connect 1 0 2 1;
#X connect 2 0 3 0;
#X connect 3 0 8 0;
#X connect 4 0 0 0;
#X connect 4 0 0 1;
#X connect 4 0 6 0;
#X connect 4 1 1 0;
#X connect 4 1 1 1;
#X connect 4 1 7 0;
#X connect 5 0 21 0;
#X connect 9 0 4 0;
#X connect 10 0 13 0;
#X connect 11 0 10 0;
#X connect 12 0 22 0;
#X connect 14 0 11 0;
#X connect 15 0 11 1;
#X connect 16 0 36 0;
#X connect 17 0 6 0;
#X connect 17 0 7 0;
#X connect 17 0 8 0;
#X connect 18 0 25 0;
#X connect 18 0 26 0;
#X connect 19 0 13 0;
#X connect 20 0 10 1;
#X connect 23 0 27 0;
#X connect 24 0 23 1;
#X connect 24 0 36 0;
#X connect 26 0 23 0;
#X connect 26 1 28 0;
#X connect 27 0 16 0;
#X connect 28 0 29 0;
#X connect 28 1 30 0;
#X connect 29 0 31 0;
#X connect 30 0 29 1;
#X connect 31 0 32 0;
#X connect 32 0 33 0;
#X connect 32 1 34 0;
#X connect 33 0 24 0;
#X connect 34 0 24 0;
#X coords 0 -1 1 1 110 50 2 0 0;
#X restore 462 914 pd FFT;
#X obj 154 246 bng 20 250 50 0 empty empty empty 0 -10 0 12 #fcfcfc #000000 #000000;
#X obj 154 271 s \$0-SAMPLE-LOADED;
#N canvas 1984 312 414 293 LOAD 0;
#X obj 60 50 r \$0-SAMPLE-LOADED;
#X obj 61 72 t b b;
#X obj 143 114 s \$0-RESEND-WS;
#X obj 144 92 bng 20 250 50 0 empty empty empty 0 -10 0 12 #fcfcfc #000000 #000000;
#X obj 62 118 s \$0-i-PAN;
#X msg 62 95 0, f 1;
#X connect 0 0 1 0;
#X connect 1 0 5 0;
#X connect 1 1 3 0;
#X connect 3 0 2 0;
#X connect 5 0 4 0;
#X restore 15 293 pd LOAD;
#N canvas 1943 25 450 300 ARRAY-SIZING 0;
#X restore 576 914 pd ARRAY-SIZING;
#N canvas 2828 338 797 596 SPECTRUM-MODIFICATION 0;
#X floatatom 177 275 5 0 0 0 - - - 0;
#X msg 120 279 0;
#X obj 120 154 until;
#X obj 120 201 f;
#X obj 151 201 + 1;
#X msg 138 179 0;
#X obj 120 131 t f b;
#X obj 120 255 t b f;
#X obj 120 226 + 128;
#X msg 120 106 5000;
#X floatatom 169 227 5 0 0 0 - - - 0;
#X text 116 68 MODIFICATIONS \; ------------- \;;
#X connect 2 0 3 0;
#X connect 3 0 4 0;
#X connect 3 0 8 0;
#X connect 4 0 3 1;
#X connect 5 0 3 1;
#X connect 6 0 2 0;
#X connect 6 1 5 0;
#X connect 7 0 1 0;
#X connect 7 1 0 0;
#X connect 8 0 7 0;
#X connect 9 0 6 0;
#X connect 10 0 8 1;
#X connect 10 0 9 0;
#X restore 576 938 pd SPECTRUM-MODIFICATION;
#X obj 1430 345 cnv 20 400 600 empty empty NOTES 10 12 0 20 #faff00 #404040 0;
#X text 1440 670 - maybe better copy to wave so if experiment went wrong could recopy from \$0-sample;
#X text 1434 551 - WHEN SAMPLE SIZED TO FFT COMPATIBLE SIZE AND SOUND MORE OR LESS GOOD ----> FFT-IFFT \; - COULD DO TABRECEIVE FOR FFT DIRECTLY ON \$0-SAMPLE OR FITST COPY TO \$0-WAVETABLE --> WHAT IS BETTER? \; - COULD ADD TWO WABETABLE OF SAME SIZE JUST FOR FUN! ALSO MORPHING BETWEEN SOME!!!!!!! \;;
#X text 1439 725 - correct envelope in oscillator subpatch;
#X text 1446 378 - TO AVOID ALIASING JUST SET A LOW-PASS FILTER OF 20[kHz] OR LOWER AT THE OUTPUT OF WAVETABLE SYNTHESIZER ---> PROBLEM SOLVED! - GOOD AND EASY!, f 51;
#X obj 177 903 output~;
#X obj 24 800 lop~ 1000;
#N canvas 1956 38 450 300 PLAYER 0;
#X restore 1073 762 pd PLAYER;
#X text 1742 279 ADD FULL SIZE WINDOW;
#X obj 1102 621 bng 20 250 50 0 empty empty empty 0 -10 0 12 #fcfcfc #000000 #000000;
#X text 1098 601 CHOP-WAVE-TO-DISK;
#X text 968 542 CHOP TO DISK FROM \$0-SAMPLE FOR LONGER SAMPLES AND \$0-wavetable FOR SHORTER(POW OF 2 ONES) == CATEGORIZE IN THE DISK (WAVE - LONG WAVE - SAMPLE);
#X text 963 462 MAKE TWO PLAYER SUBPATCH - EQUAL- ONE FOR WAVETABLE AND ONE FOR SAMPLE \; - just INLET FREQUENCY and GUI -> PLAY and continuous play \; - show also how long(ms) is the sample/wave;
#X text 962 415 MAKE A SUBPATCH AND PUT \$0-SAMPLE AND NORMALIZATION AND CHOP STUFF AND PANNING \, ... INSIDE........CLEAN;
#X connect 1 0 9 0;
#X connect 1 0 48 0;
#X connect 1 1 11 0;
#X connect 4 0 5 0;
#X connect 5 0 6 0;
#X connect 9 0 10 0;
#X connect 11 0 14 0;
#X connect 14 0 15 0;
#X connect 16 0 5 0;
#X connect 23 0 29 0;
#X connect 25 0 26 0;
#X connect 25 0 31 0;
#X connect 26 0 23 0;
#X connect 27 0 58 0;
#X connect 27 0 59 0;
#X connect 28 0 25 0;
#X connect 29 0 27 0;
#X connect 30 0 33 0;
#X connect 30 0 33 1;
#X connect 31 0 34 0;
#X connect 31 0 35 0;
#X connect 31 0 38 0;
#X connect 31 0 23 0;
#X connect 32 0 30 0;
#X connect 33 0 37 0;
#X connect 34 0 30 0;
#X connect 35 0 32 0;
#X connect 36 0 37 1;
#X connect 37 0 27 1;
#X connect 38 0 36 0;
#X connect 39 0 29 2;
#X connect 40 0 41 0;
#X connect 41 0 29 1;
#X connect 48 0 49 0;
#X connect 59 0 24 0;
