#N canvas 1920 0 1920 1009 12;
#N canvas 2160 89 772 321 WINDOW-SIZE 0;
#X obj 104 119 hradio 20 1 0 8 \$0-RADIO-SEL \$0-i-RADIO-SEL empty 0 -10 0 12 #fcfcfc #000000 #000000 0;
#X floatatom 306 77 4 0 0 0 - - - 0;
#X msg 306 122 64;
#X msg 348 122 128;
#X msg 389 122 256;
#X msg 431 122 512;
#X msg 472 122 1024;
#X msg 513 122 2048;
#X msg 555 122 4096;
#X floatatom 104 142 11 0 0 1 [N] - - 0;
#X text 104 100 WINDOW-WAVE-FFT SIZE;
#X obj 306 54 r \$0-RADIO-SEL;
#X obj 306 101 sel 0 1 2 3 4 5 6, f 42;
#X obj 104 38 loadbang;
#X msg 104 63 0;
#X obj 184 39 r \$0-RESEND-WS;
#X obj 547 161 s \$0-WINDOW-SIZE;
#X floatatom 104 164 11 0 0 1 [ms] - - 0;
#N canvas 2703 327 450 300 CALCULATE-SLICE-LENGTH 0;
#X obj 29 88 /, f 7;
#X obj 43 40 t b f;
#X obj 159 20 r \$0-RECORDED-SR;
#X obj 29 64 f;
#X obj 29 113 * 1000;
#X obj 29 138 outlet;
#X obj 29 15 inlet;
#X connect 0 0 4 0;
#X connect 1 0 3 0;
#X connect 1 1 0 1;
#X connect 2 0 1 0;
#X connect 3 0 0 0;
#X connect 4 0 5 0;
#X connect 6 0 3 0;
#X restore 308 161 pd CALCULATE-SLICE-LENGTH;
#X obj 218 143 bng 18 250 50 0 empty empty FULL 22 9 0 11 #fcfcfc #000000 #000000;
#X obj 218 242 f;
#X obj 236 217 r \$0-SAMPLE-SIZE;
#X obj 184 64 t b b;
#X connect 1 0 12 0;
#X connect 2 0 9 0;
#X connect 3 0 9 0;
#X connect 4 0 9 0;
#X connect 5 0 9 0;
#X connect 6 0 9 0;
#X connect 7 0 9 0;
#X connect 8 0 9 0;
#X connect 9 0 16 0;
#X connect 9 0 18 0;
#X connect 11 0 1 0;
#X connect 12 0 2 0;
#X connect 12 1 3 0;
#X connect 12 2 4 0;
#X connect 12 3 5 0;
#X connect 12 4 6 0;
#X connect 12 5 7 0;
#X connect 12 6 8 0;
#X connect 13 0 14 0;
#X connect 14 0 0 0;
#X connect 15 0 22 0;
#X connect 18 0 17 0;
#X connect 19 0 20 0;
#X connect 20 0 9 0;
#X connect 21 0 20 1;
#X connect 22 0 19 0;
#X connect 22 1 9 0;
#X coords 0 -1 1 1 170 87 2 100 100;
#X restore 15 201 pd WINDOW-SIZE;
#X obj 1344 709 cnv 20 465 250 empty empty TO-DO\ |\ NOTES 10 14 0 20 #569326 #ffffff 0;
#X text 1351 829 - TO AVOID ALIASING JUST SET A LOW-PASS FILTER OF 20[kHz] OR LOWER AT THE OUTPUT OF WAVETABLE SYNTHESIZER ---> PROBLEM SOLVED! - GOOD AND EASY!, f 51;
#N canvas 1920 0 1920 1009 SAMPLE 0;
#N canvas 0 50 450 250 (subpatch) 0;
#X array \$0-WAVE-SAMPLE 17674 float 2;
#A color 0;
#A width 2;
#X coords 0 1 17674 -1 1300 140 1;
#X restore 110 120 graph;
#X obj 209 120 cnv 1 1 140 \$0-CURSOR-1 \$0-i-CURSOR-1 empty 20 12 0 12 #ff0400 #404040 0;
#X obj 109 120 cnv 1 1 140 \$0-CURSOR-2 \$0-i-CURSOR-2 empty 20 12 0 12 #ff0400 #404040 0;
#N canvas 882 254 481 375 (subpatch) 0;
#X obj 103 102 bng 20 250 50 0 empty empty NORMALIZE 23 10 0 12 #00faff #000000 #000000;
#X obj 103 133 f \$0;
#X msg 103 156 \; \$1-WAVE-SAMPLE normalize;
#X connect 0 0 1 0;
#X connect 1 0 2 0;
#X coords 0 -1 1 1 95 24 2 100 100;
#X restore 732 262 pd;
#N canvas 2014 217 1195 581 CURSOR 0;
#X obj 33 18 r \$0-FIRST;
#X obj 112 18 r \$0-LAST;
#X obj 255 94 /, f 10;
#X floatatom 255 119 7 0 0 1 SAMPLE-X-PIXEL - - 0;
#X obj 255 44 t b f, f 10;
#X obj 113 265 s \$0-i-CURSOR-2;
#X obj 33 240 s \$0-i-CURSOR-1;
#X floatatom 33 43 5 0 0 0 - - - 0;
#X floatatom 112 43 5 0 0 0 - - - 0;
#X obj 33 138 *;
#X obj 112 138 *;
#X msg 33 212 pos \$1 \$2;
#X msg 112 212 pos \$1 \$2;
#X obj 255 20 r \$0-SAMPLE-SIZE;
#X msg 769 20 get_pos;
#X obj 769 45 s \$0-i-CURSOR-1;
#X obj 770 70 r \$0-CURSOR-1;
#X obj 770 95 unpack f f;
#X floatatom 770 120 5 0 0 0 - - - 0;
#X floatatom 837 120 5 0 0 0 - - - 0;
#X obj 33 160 + 109;
#X obj 112 161 + 109;
#X obj 33 187 pack f 120;
#X obj 112 187 pack f 120;
#X msg 255 69 1300;
#X text 291 69 \$0-SAMPLE SIZE(X);
#X msg 261 268 pos \$1 \$2;
#X obj 261 243 pack f 120;
#X obj 261 194 *;
#X obj 261 291 s \$0-i-SAMPLE-PHASOR-1-CURSOR;
#X obj 261 169 r \$0-SAMPLE-PHASOR-1-CURSOR-POS;
#X msg 494 267 pos \$1 \$2;
#X obj 494 242 pack f 120;
#X obj 494 193 *;
#X msg 262 429 pos \$1 \$2;
#X obj 262 404 pack f 120;
#X obj 262 357 *;
#X msg 495 428 pos \$1 \$2;
#X obj 495 403 pack f 120;
#X obj 495 356 *;
#X obj 494 168 r \$0-SAMPLE-PHASOR-2-CURSOR-POS;
#X obj 494 290 s \$0-i-SAMPLE-PHASOR-2-CURSOR;
#X obj 262 332 r \$0-SAMPLE-PHASOR-3-CURSOR-POS;
#X obj 262 452 s \$0-i-SAMPLE-PHASOR-3-CURSOR;
#X obj 495 331 r \$0-SAMPLE-PHASOR-4-CURSOR-POS;
#X obj 495 451 s \$0-i-SAMPLE-PHASOR-4-CURSOR;
#X obj 262 380 + 109;
#X obj 261 218 + 109;
#X obj 494 217 + 109;
#X obj 495 379 + 109;
#X obj 904 197 s \$0-i-SAMPLE-PHASOR-4-CURSOR;
#X obj 904 175 s \$0-i-SAMPLE-PHASOR-2-CURSOR;
#X obj 904 153 s \$0-i-SAMPLE-PHASOR-3-CURSOR;
#X obj 904 131 s \$0-i-SAMPLE-PHASOR-1-CURSOR;
#X obj 904 109 s \$0-i-CURSOR-2;
#X obj 904 87 s \$0-i-CURSOR-1;
#X msg 904 58 size \$1;
#X msg 904 18 1;
#X msg 946 18 20;
#X connect 0 0 7 0;
#X connect 1 0 8 0;
#X connect 2 0 3 0;
#X connect 3 0 9 1;
#X connect 3 0 10 1;
#X connect 3 0 28 1;
#X connect 3 0 33 1;
#X connect 3 0 36 1;
#X connect 3 0 39 1;
#X connect 4 0 24 0;
#X connect 4 1 2 1;
#X connect 7 0 9 0;
#X connect 8 0 10 0;
#X connect 9 0 20 0;
#X connect 10 0 21 0;
#X connect 11 0 6 0;
#X connect 12 0 5 0;
#X connect 13 0 4 0;
#X connect 14 0 15 0;
#X connect 16 0 17 0;
#X connect 17 0 18 0;
#X connect 17 1 19 0;
#X connect 20 0 22 0;
#X connect 21 0 23 0;
#X connect 22 0 11 0;
#X connect 23 0 12 0;
#X connect 24 0 2 0;
#X connect 26 0 29 0;
#X connect 27 0 26 0;
#X connect 28 0 47 0;
#X connect 30 0 28 0;
#X connect 31 0 41 0;
#X connect 32 0 31 0;
#X connect 33 0 48 0;
#X connect 34 0 43 0;
#X connect 35 0 34 0;
#X connect 36 0 46 0;
#X connect 37 0 45 0;
#X connect 38 0 37 0;
#X connect 39 0 49 0;
#X connect 40 0 33 0;
#X connect 42 0 36 0;
#X connect 44 0 39 0;
#X connect 46 0 35 0;
#X connect 47 0 27 0;
#X connect 48 0 32 0;
#X connect 49 0 38 0;
#X connect 56 0 55 0;
#X connect 56 0 54 0;
#X connect 56 0 53 0;
#X connect 56 0 52 0;
#X connect 56 0 51 0;
#X connect 56 0 50 0;
#X connect 57 0 56 0;
#X connect 58 0 56 0;
#X restore 110 343 pd CURSOR;
#N canvas 2294 297 423 357 PAN 0;
#X msg 187 196 range \$1 \$2;
#X obj 187 173 pack 0 127, f 11;
#X obj 63 65 int;
#X obj 63 90 s \$0-i-FIRST;
#X obj 187 220 s \$0-i-PAN;
#X obj 187 40 r \$0-SAMPLE-SIZE;
#X obj 187 123 -, f 7;
#X obj 201 65 r \$0-WINDOW-SIZE;
#X obj 201 90 t b f;
#X obj 187 148 t b f, f 11;
#X obj 63 41 r \$0-PAN;
#X connect 0 0 4 0;
#X connect 1 0 0 0;
#X connect 2 0 3 0;
#X connect 5 0 6 0;
#X connect 6 0 9 0;
#X connect 7 0 8 0;
#X connect 8 0 6 0;
#X connect 8 1 6 1;
#X connect 9 0 1 0;
#X connect 9 1 1 1;
#X connect 10 0 2 0;
#X restore 110 321 pd PAN;
#X obj 936 262 hsl 378 24 0 -64 0 0 \$0-PAN \$0-i-PAN PAN 200 13 0 14 #bbbbbb #ff0400 #000000 0 1;
#N canvas 498 156 912 516 CHOP-TO-FOCUS 0;
#X obj 437 187 f;
#X obj 455 161 r \$0-FIRST;
#X obj 519 188 r \$0-WINDOW-SIZE;
#X obj 103 102 bng 20 250 50 0 empty empty CHOP|FOCUS 23 10 0 12 #ff8300 #000000 #000000;
#X obj 227 214 f \$0;
#X obj 227 191 del 200;
#X obj 264 214 r \$0-WINDOW-SIZE;
#X obj 103 167 t b b b b, f 27;
#X obj 165 195 del 400;
#X obj 254 264 r \$0-WINDOW-SIZE;
#X msg 165 263 0;
#X obj 103 339 f;
#X obj 135 339 r \$0-WINDOW-SIZE;
#X obj 103 192 del 600;
#X obj 103 363 s \$0-SAMPLE-SIZE-CHOPPED;
#X text 286 364 NEW SAMPLE SIZE->GOES TO LOAD-SAMPLE MODULE;
#X obj 437 211 array get \$0-WAVE-SAMPLE;
#X obj 619 208 array size \$0-SAMPLE-BUFFER;
#X obj 437 260 array define \$0-SAMPLE-BUFFER;
#X f 55;
#X obj 437 235 array set \$0-SAMPLE-BUFFER 0;
#X obj 227 238 array size \$0-WAVE-SAMPLE;
#X obj 165 287 array get \$0-SAMPLE-BUFFER;
#X obj 165 311 array set \$0-WAVE-SAMPLE 0;
#X connect 0 0 16 0;
#X connect 1 0 0 1;
#X connect 2 0 16 1;
#X connect 2 0 17 0;
#X connect 3 0 7 0;
#X connect 4 0 20 0;
#X connect 5 0 4 0;
#X connect 6 0 4 1;
#X connect 7 0 13 0;
#X connect 7 1 8 0;
#X connect 7 2 0 0;
#X connect 7 2 5 0;
#X connect 8 0 10 0;
#X connect 9 0 21 1;
#X connect 10 0 21 0;
#X connect 11 0 14 0;
#X connect 12 0 11 1;
#X connect 13 0 11 0;
#X connect 16 0 19 0;
#X connect 21 0 22 0;
#X coords 0 -1 1 1 100 24 2 100 100;
#X restore 830 262 pd CHOP-TO-FOCUS;
#N canvas 1984 312 414 293 LOAD-INIT 0;
#X obj 60 50 r \$0-SAMPLE-LOADED;
#X obj 61 72 t b b;
#X obj 143 114 s \$0-RESEND-WS;
#X obj 144 92 bng 20 250 50 0 empty empty empty 0 -10 0 12 #fcfcfc #000000 #000000;
#X obj 62 118 s \$0-i-PAN;
#X msg 62 95 0, f 1;
#X connect 0 0 1 0;
#X connect 1 0 5 0;
#X connect 1 1 3 0;
#X connect 3 0 2 0;
#X connect 5 0 4 0;
#X restore 110 299 pd LOAD-INIT;
#N canvas 2160 89 874 551 LOAD-SAMPLE 0;
#X obj 185 176 openpanel;
#X obj 185 252 soundfiler, f 33;
#X listbox 563 272 20 0 0 0 - - - 0;
#X obj 185 201 pack s \$0;
#X obj 185 103 bng 19 250 50 0 empty empty empty 0 -10 0 12 #fcfcfc #000000 #000000;
#X listbox 207 103 35 0 0 0 - \$0-i-SAMPLE-LOC \$0-SAMPLE-LOC 12;
#X text 101 103 LOAD SAMPLE;
#X msg 185 131 symbol /home/mobin/Documents/Sounds, f 29;
#X floatatom 465 103 8 0 0 1 SIZE - - 0;
#X obj 563 298 unpack f;
#X obj 563 325 s \$0-RECORDED-SR;
#X floatatom 563 103 6 0 0 1 SR - - 0;
#X obj 345 337 s \$0-SAMPLE-SIZE;
#X obj 185 372 bng 20 250 50 0 empty empty empty 0 -10 0 12 #fcfcfc #000000 #000000;
#X obj 185 397 s \$0-SAMPLE-LOADED;
#X floatatom 185 318 8 0 0 1 SAMPLE-SIZE - - 0;
#X obj 198 284 r \$0-SAMPLE-SIZE-CHOPPED;
#X floatatom 631 103 8 0 0 1 [ms] - - 0;
#N canvas 2703 327 450 300 CALCULATE-SLICE-LENGTH 0;
#X obj 29 88 /, f 7;
#X obj 43 40 t b f;
#X obj 159 20 r \$0-RECORDED-SR;
#X obj 29 64 f;
#X obj 29 113 * 1000;
#X obj 29 138 outlet;
#X obj 29 18 r \$0-SAMPLE-SIZE;
#X connect 0 0 4 0;
#X connect 1 0 3 0;
#X connect 1 1 0 1;
#X connect 2 0 1 0;
#X connect 3 0 0 0;
#X connect 4 0 5 0;
#X connect 6 0 3 0;
#X restore 631 75 pd CALCULATE-SLICE-LENGTH;
#X msg 185 228 read -resize \$1 \$2-WAVE-SAMPLE;
#X obj 440 222 s \$0-i-SAMPLE-LOC;
#N canvas 981 425 573 338 PATH-TRIM 0;
#X listbox 207 136 28 0 0 0 - - - 0;
#X symbolatom 207 89 39 0 0 0 - - - 0;
#X obj 207 112 list fromsymbol;
#X obj 252 183 list tosymbol;
#X symbolatom 252 207 35 0 0 0 - - - 0;
#X obj 77 226 list append;
#X obj 77 60 t b s, f 19;
#X obj 77 126 list tosymbol;
#X symbolatom 77 150 7 0 0 0 - - - 0;
#X msg 77 102 46 46 46;
#X obj 208 158 list split 28;
#X obj 77 25 inlet;
#X obj 77 258 outlet;
#X connect 0 0 10 0;
#X connect 1 0 2 0;
#X connect 2 0 0 0;
#X connect 3 0 4 0;
#X connect 4 0 5 1;
#X connect 5 0 12 0;
#X connect 6 0 9 0;
#X connect 6 1 1 0;
#X connect 7 0 8 0;
#X connect 8 0 5 0;
#X connect 9 0 7 0;
#X connect 10 1 3 0;
#X connect 11 0 6 0;
#X restore 440 196 pd PATH-TRIM;
#X connect 0 0 3 0;
#X connect 0 0 21 0;
#X connect 1 0 15 0;
#X connect 1 1 2 0;
#X connect 2 0 9 0;
#X connect 3 0 19 0;
#X connect 4 0 7 0;
#X connect 7 0 0 0;
#X connect 9 0 10 0;
#X connect 9 0 11 0;
#X connect 13 0 14 0;
#X connect 15 0 8 0;
#X connect 15 0 12 0;
#X connect 15 0 13 0;
#X connect 16 0 15 0;
#X connect 18 0 17 0;
#X connect 19 0 1 0;
#X connect 21 0 20 0;
#X coords 0 -1 1 1 620 24 2 100 100;
#X restore 109 262 pd LOAD-SAMPLE;
#N canvas 2141 416 787 516 CHOP-SAMPLE-DISK 0;
#X obj 103 102 bng 20 250 50 0 empty empty CHOP|DISK 23 10 0 12 #ff0400 #000000 #000000;
#X msg 103 129 symbol /home/mobin/Documents/Sounds, f 29;
#X obj 103 297 soundfiler;
#X obj 103 171 savepanel;
#X symbolatom 103 196 56 0 0 0 - - - 0;
#X obj 103 245 pack s f;
#X msg 103 271 write \$1.wav \$2-WAVE-SAMPLE;
#X obj 156 220 f \$0;
#X obj 103 220 t s b;
#X floatatom 103 322 5 0 0 0 - - - 0;
#X listbox 170 322 20 0 0 0 - - - 0;
#X connect 0 0 1 0;
#X connect 1 0 3 0;
#X connect 2 0 9 0;
#X connect 2 1 10 0;
#X connect 3 0 4 0;
#X connect 4 0 8 0;
#X connect 5 0 6 0;
#X connect 6 0 2 0;
#X connect 7 0 5 1;
#X connect 8 0 5 0;
#X connect 8 1 7 0;
#X coords 0 -1 1 1 91 24 2 100 100;
#X restore 1319 262 pd CHOP-SAMPLE-DISK;
#X obj 312 120 cnv 1 1 140 \$0-SAMPLE-PHASOR-1-CURSOR \$0-i-SAMPLE-PHASOR-1-CURSOR empty 20 12 0 12 #000000 #404040 0;
#X obj 388 120 cnv 1 1 140 \$0-SAMPLE-PHASOR-2-CURSOR \$0-i-SAMPLE-PHASOR-2-CURSOR empty 20 12 0 12 #0456cb #404040 0;
#X obj 463 120 cnv 1 1 140 \$0-SAMPLE-PHASOR-3-CURSOR \$0-i-SAMPLE-PHASOR-3-CURSOR empty 20 12 0 12 #0fa810 #404040 0;
#X obj 237 120 cnv 1 1 140 \$0-SAMPLE-PHASOR-4-CURSOR \$0-i-SAMPLE-PHASOR-4-CURSOR empty 20 12 0 12 #9babc6 #404040 0;
#X coords 0 -1 1 1 1320 190 2 100 100;
#X restore 15 7 pd SAMPLE;
#N canvas 1956 38 381 351 SAMPLE-LOC 0;
#X floatatom 104 104 10 0 0 1 FIRST-SAMPLE \$0-i-FIRST \$0-FIRST 0;
#X floatatom 104 127 10 0 0 1 UNTIL-SAMPLE \$0-i-LAST \$0-LAST 0;
#X obj 101 280 +, f 7;
#X obj 115 195 r \$0-WINDOW-SIZE;
#X obj 101 305 s \$0-i-LAST;
#X obj 101 168 r \$0-FIRST;
#X floatatom 101 253 5 0 0 0 - - - 0;
#X obj 115 220 t b f;
#X connect 2 0 4 0;
#X connect 3 0 7 0;
#X connect 5 0 6 0;
#X connect 6 0 2 0;
#X connect 7 0 6 0;
#X connect 7 1 2 1;
#X coords 0 -1 1 1 165 50 2 100 100;
#X restore 190 201 pd SAMPLE-LOC;
#X obj 1166 199 cnv 20 170 40 empty empty empty 20 12 0 12 #b30400 #404040 0;
#X text 1169 202 LOADED SAMPLES SHOULD BE OF 48000 SAMPLE RATE, f 23;
#X obj 362 202 cnv 20 400 120 empty empty empty 20 12 0 12 #e0e0e0 #404040 0;
#X text 377 206 THESE THREE SUBPATCHES WORK TOGETHER \, OUTPUTTING: \; - \$0-FIRST \; - \$0-LAST \; - \$0-WINDOW-SIZE \; - \$0-RECORDED-SR \; TO BE USED FOR PLAYING THE SAMPLE \; -----> WHEN DONE SAVE THEM AS A SEPARATE BASIS PATCH \;;
#X obj 22 910 output~;
#X floatatom 22 605 6 0 0 1 MIDI - - 0;
#X floatatom 106 605 7 0 0 1 FREQUENCY - - 0;
#X floatatom 243 604 6 0 0 1 MIDI - - 0;
#X floatatom 327 604 7 0 0 1 FREQUENCY - - 0;
#N canvas 2073 345 858 557 WAVE-SAMPLE-PLAYER 0;
#X obj 17 170 mtof;
#X obj 109 412 *~, f 11;
#N canvas 1995 355 839 536 OSCILLATOR 0;
#X obj 286 31 inlet;
#X obj 358 31 inlet;
#N canvas 297 118 926 439 OSCILLATOR-PHASE-0 0;
#X obj 246 158 phasor~;
#X obj 246 243 *~ \$1;
#X obj 229 353 *~;
#X floatatom 364 224 7 0 0 1 - - - 0;
#X floatatom 246 79 8 0 0 1 - - - 0;
#X obj 246 49 inlet;
#X obj 364 49 inlet;
#X obj 246 103 t f b;
#X msg 278 131 0, f 2;
#X obj 246 208 wrap~;
#X obj 246 183 +~ 0;
#X obj 229 378 outlet~;
#X obj 19 227 *~ 997;
#X obj 19 252 +~ 1;
#X floatatom 584 263 7 0 0 0 - - - 0;
#X obj 246 282 +~;
#X obj 584 49 inlet;
#X text 244 28 FREQUENCY[Hz];
#X text 361 28 PHASOR RANGE (WINDOW-SIZE-3);
#X text 581 29 FIRST SAMPLE;
#X text 27 275 ENVELOPE OF LENGHT 1000;
#X obj 19 334 tabread~ \$0-SAMPLE-ENVELOPE;
#X obj 246 309 tabread4~ \$0-WAVE-SAMPLE;
#X obj 578 303 snapshot~;
#X obj 650 303 metro 10;
#X obj 578 327 s \$0-SAMPLE-PHASOR-1-CURSOR-POS;
#X obj 650 279 tgl 20 0 empty \$0-SAMPLE-PHASOR-1-CURSOR-ON empty 0 -10 0 12 #fcfcfc #000000 #000000 0 1;
#X connect 0 0 10 0;
#X connect 1 0 15 0;
#X connect 2 0 11 0;
#X connect 3 0 1 1;
#X connect 4 0 7 0;
#X connect 5 0 4 0;
#X connect 6 0 3 0;
#X connect 7 0 0 0;
#X connect 7 1 8 0;
#X connect 8 0 0 1;
#X connect 9 0 1 0;
#X connect 9 0 12 0;
#X connect 10 0 9 0;
#X connect 12 0 13 0;
#X connect 13 0 21 0;
#X connect 14 0 15 1;
#X connect 15 0 22 0;
#X connect 15 0 23 0;
#X connect 16 0 14 0;
#X connect 21 0 2 0;
#X connect 22 0 2 1;
#X connect 23 0 25 0;
#X connect 24 0 23 0;
#X connect 26 0 24 0;
#X restore 483 119 pd OSCILLATOR-PHASE-0;
#X obj 430 30 inlet;
#X obj 286 298 +~, f 5;
#X obj 131 121 tgl 20 0 empty empty 4 7 10 0 12 #faff00 #000000 #000000 0 1;
#X obj 286 258 *~;
#X obj 105 121 tgl 20 0 empty empty 1 7 10 0 12 #faff00 #000000 #000000 0 1;
#X obj 318 258 *~;
#X obj 353 258 *~;
#X obj 389 258 *~;
#X text 509 25 INLET-1: FREQUENCY[Hz] \; INLET-2: PHASOR RANGE(WINDOW-SIZE-3) \; INLET-3: FIRST SAMPLE \;;
#X text 102 100 OSCILLATORS;
#N canvas 459 271 884 439 OSCILLATOR-PHASE-0.25 0;
#X obj 246 158 phasor~;
#X obj 246 243 *~ \$1;
#X obj 229 353 *~;
#X floatatom 364 224 7 0 0 1 - - - 0;
#X floatatom 246 79 8 0 0 1 - - - 0;
#X obj 246 49 inlet;
#X obj 364 49 inlet;
#X obj 246 103 t f b;
#X msg 278 131 0, f 2;
#X obj 246 208 wrap~;
#X obj 229 378 outlet~;
#X obj 19 227 *~ 997;
#X obj 19 252 +~ 1;
#X floatatom 584 263 7 0 0 0 - - - 0;
#X obj 246 282 +~;
#X obj 584 49 inlet;
#X text 244 28 FREQUENCY[Hz];
#X text 361 28 PHASOR RANGE (WINDOW-SIZE-3);
#X text 581 29 FIRST SAMPLE;
#X text 27 275 ENVELOPE OF LENGHT 1000;
#X obj 246 183 +~ 0.25;
#X obj 19 334 tabread~ \$0-SAMPLE-ENVELOPE;
#X obj 246 309 tabread4~ \$0-WAVE-SAMPLE;
#X obj 578 303 snapshot~;
#X obj 650 303 metro 10;
#X obj 650 279 tgl 20 0 empty \$0-SAMPLE-PHASOR-2-CURSOR-ON empty 0 -10 0 12 #fcfcfc #000000 #000000 0 1;
#X obj 578 327 s \$0-SAMPLE-PHASOR-2-CURSOR-POS;
#X connect 0 0 20 0;
#X connect 1 0 14 0;
#X connect 2 0 10 0;
#X connect 3 0 1 1;
#X connect 4 0 7 0;
#X connect 5 0 4 0;
#X connect 6 0 3 0;
#X connect 7 0 0 0;
#X connect 7 1 8 0;
#X connect 8 0 0 1;
#X connect 9 0 1 0;
#X connect 9 0 11 0;
#X connect 11 0 12 0;
#X connect 12 0 21 0;
#X connect 13 0 14 1;
#X connect 14 0 22 0;
#X connect 14 0 23 0;
#X connect 15 0 13 0;
#X connect 20 0 9 0;
#X connect 21 0 2 0;
#X connect 22 0 2 1;
#X connect 23 0 26 0;
#X connect 24 0 23 0;
#X connect 25 0 24 0;
#X restore 515 143 pd OSCILLATOR-PHASE-0.25;
#N canvas 297 118 853 439 OSCILLATOR-PHASE-0.5 0;
#X obj 246 158 phasor~;
#X obj 246 243 *~ \$1;
#X obj 229 353 *~;
#X floatatom 364 224 7 0 0 1 - - - 0;
#X floatatom 246 79 8 0 0 1 - - - 0;
#X obj 246 49 inlet;
#X obj 364 49 inlet;
#X obj 246 103 t f b;
#X msg 278 131 0, f 2;
#X obj 246 208 wrap~;
#X obj 229 378 outlet~;
#X obj 19 227 *~ 997;
#X obj 19 252 +~ 1;
#X floatatom 584 263 7 0 0 0 - - - 0;
#X obj 246 282 +~;
#X obj 584 49 inlet;
#X text 244 28 FREQUENCY[Hz];
#X text 361 28 PHASOR RANGE (WINDOW-SIZE-3);
#X text 581 29 FIRST SAMPLE;
#X text 27 275 ENVELOPE OF LENGHT 1000;
#X obj 246 183 +~ 0.5;
#X obj 19 334 tabread~ \$0-SAMPLE-ENVELOPE;
#X obj 246 309 tabread4~ \$0-WAVE-SAMPLE;
#X obj 578 303 snapshot~;
#X obj 650 303 metro 10;
#X obj 650 279 tgl 20 0 empty \$0-SAMPLE-PHASOR-3-CURSOR-ON empty 0 -10 0 12 #fcfcfc #000000 #000000 0 1;
#X obj 578 327 s \$0-SAMPLE-PHASOR-3-CURSOR-POS;
#X connect 0 0 20 0;
#X connect 1 0 14 0;
#X connect 2 0 10 0;
#X connect 3 0 1 1;
#X connect 4 0 7 0;
#X connect 5 0 4 0;
#X connect 6 0 3 0;
#X connect 7 0 0 0;
#X connect 7 1 8 0;
#X connect 8 0 0 1;
#X connect 9 0 1 0;
#X connect 9 0 11 0;
#X connect 11 0 12 0;
#X connect 12 0 21 0;
#X connect 13 0 14 1;
#X connect 14 0 22 0;
#X connect 14 0 23 0;
#X connect 15 0 13 0;
#X connect 20 0 9 0;
#X connect 21 0 2 0;
#X connect 22 0 2 1;
#X connect 23 0 26 0;
#X connect 24 0 23 0;
#X connect 25 0 24 0;
#X restore 550 167 pd OSCILLATOR-PHASE-0.5;
#N canvas 297 118 854 439 OSCILLATOR-PHASE-0.75 0;
#X obj 246 158 phasor~;
#X obj 246 243 *~ \$1;
#X obj 229 353 *~;
#X floatatom 364 224 7 0 0 1 - - - 0;
#X floatatom 246 79 8 0 0 1 - - - 0;
#X obj 246 49 inlet;
#X obj 364 49 inlet;
#X obj 246 103 t f b;
#X msg 278 131 0, f 2;
#X obj 246 208 wrap~;
#X obj 229 378 outlet~;
#X obj 19 227 *~ 997;
#X obj 19 252 +~ 1;
#X floatatom 584 263 7 0 0 0 - - - 0;
#X obj 246 282 +~;
#X obj 584 49 inlet;
#X text 244 28 FREQUENCY[Hz];
#X text 361 28 PHASOR RANGE (WINDOW-SIZE-3);
#X text 581 29 FIRST SAMPLE;
#X text 27 275 ENVELOPE OF LENGHT 1000;
#X obj 19 334 tabread~ \$0-SAMPLE-ENVELOPE;
#X obj 246 309 tabread4~ \$0-WAVE-SAMPLE;
#X obj 578 303 snapshot~;
#X obj 650 303 metro 10;
#X obj 650 279 tgl 20 0 empty \$0-SAMPLE-PHASOR-4-CURSOR-ON empty 0 -10 0 12 #fcfcfc #000000 #000000 0 1;
#X obj 578 327 s \$0-SAMPLE-PHASOR-4-CURSOR-POS;
#X obj 246 183 +~ 0.75;
#X connect 0 0 26 0;
#X connect 1 0 14 0;
#X connect 2 0 10 0;
#X connect 3 0 1 1;
#X connect 4 0 7 0;
#X connect 5 0 4 0;
#X connect 6 0 3 0;
#X connect 7 0 0 0;
#X connect 7 1 8 0;
#X connect 8 0 0 1;
#X connect 9 0 1 0;
#X connect 9 0 11 0;
#X connect 11 0 12 0;
#X connect 12 0 20 0;
#X connect 13 0 14 1;
#X connect 14 0 21 0;
#X connect 14 0 22 0;
#X connect 15 0 13 0;
#X connect 20 0 2 0;
#X connect 21 0 2 1;
#X connect 22 0 25 0;
#X connect 23 0 22 0;
#X connect 24 0 23 0;
#X connect 26 0 9 0;
#X restore 586 192 pd OSCILLATOR-PHASE-0.75;
#X obj 286 330 outlet~;
#N canvas 846 198 607 300 PLAYBACK-CURSOR 0;
#X obj 46 163 s \$0-SAMPLE-PHASOR-1-CURSOR-ON;
#X msg 46 136 1;
#X obj 281 185 s \$0-SAMPLE-PHASOR-2-CURSOR-ON;
#X obj 316 209 s \$0-SAMPLE-PHASOR-3-CURSOR-ON;
#X obj 340 234 s \$0-SAMPLE-PHASOR-4-CURSOR-ON;
#X msg 271 111 0;
#X obj 271 86 sel 0 1, f 11;
#X msg 308 111 1;
#X obj 46 40 inlet;
#X obj 271 45 inlet;
#X obj 46 111 sel 1 0, f 13;
#X msg 90 136 0;
#X obj 271 161 s \$0-SAMPLE-PHASOR-1-CURSOR-ON;
#X connect 1 0 0 0;
#X connect 5 0 2 0;
#X connect 5 0 3 0;
#X connect 5 0 4 0;
#X connect 5 0 12 0;
#X connect 6 0 5 0;
#X connect 6 1 7 0;
#X connect 7 0 2 0;
#X connect 7 0 3 0;
#X connect 7 0 4 0;
#X connect 7 0 12 0;
#X connect 8 0 10 0;
#X connect 9 0 6 0;
#X connect 10 0 1 0;
#X connect 10 1 11 0;
#X connect 11 0 0 0;
#X restore 105 329 pd PLAYBACK-CURSOR;
#X obj 105 151 sel 0 1, f 8;
#X msg 105 175 0, f 1;
#X obj 132 174 t b b, f 2;
#X msg 154 203 0, f 1;
#X msg 132 225 1, f 1;
#X obj 180 151 sel 0 1;
#X msg 180 175 0, f 1;
#X msg 203 227 1, f 1;
#X obj 203 174 t b b, f 2;
#X msg 226 203 0, f 1;
#X obj 296 240 tgl 15 0 empty empty empty 0 -10 0 12 #fcfcfc #000000 #000000 0 1;
#X obj 328 240 tgl 15 0 empty empty empty 0 -10 0 12 #fcfcfc #000000 #000000 0 1;
#X obj 363 240 tgl 15 0 empty empty empty 0 -10 0 12 #fcfcfc #000000 #000000 0 1;
#X obj 399 240 tgl 15 0 empty empty empty 0 -10 0 12 #fcfcfc #000000 #000000 0 1;
#X connect 0 0 2 0;
#X connect 0 0 13 0;
#X connect 0 0 14 0;
#X connect 0 0 15 0;
#X connect 1 0 2 1;
#X connect 1 0 13 1;
#X connect 1 0 14 1;
#X connect 1 0 15 1;
#X connect 2 0 6 0;
#X connect 3 0 2 2;
#X connect 3 0 13 2;
#X connect 3 0 14 2;
#X connect 3 0 15 2;
#X connect 4 0 16 0;
#X connect 5 0 23 0;
#X connect 6 0 4 0;
#X connect 7 0 18 0;
#X connect 8 0 4 1;
#X connect 9 0 4 1;
#X connect 10 0 4 1;
#X connect 13 0 8 0;
#X connect 14 0 9 0;
#X connect 15 0 10 0;
#X connect 18 0 19 0;
#X connect 18 1 20 0;
#X connect 19 0 17 0;
#X connect 19 0 28 0;
#X connect 20 0 22 0;
#X connect 20 1 21 0;
#X connect 21 0 5 0;
#X connect 22 0 17 0;
#X connect 22 0 28 0;
#X connect 23 0 24 0;
#X connect 23 1 26 0;
#X connect 24 0 17 1;
#X connect 24 0 28 0;
#X connect 24 0 31 0;
#X connect 24 0 30 0;
#X connect 24 0 29 0;
#X connect 25 0 17 1;
#X connect 25 0 28 0;
#X connect 25 0 31 0;
#X connect 25 0 30 0;
#X connect 25 0 29 0;
#X connect 26 0 25 0;
#X connect 26 1 27 0;
#X connect 27 0 7 0;
#X connect 28 0 6 1;
#X connect 29 0 8 1;
#X connect 30 0 9 1;
#X connect 31 0 10 1;
#X coords 0 -1 1 1 85 45 2 100 100;
#X restore 110 212 pd OSCILLATOR;
#X f 24;
#X obj 373 256 line~;
#X obj 202 212 bng 20 250 50 0 empty empty PLAY 23 10 0 12 #ffc7c6 #000000 #202020;
#X msg 421 259 0 500;
#X obj 373 355 *~;
#X obj 202 236 tgl 20 0 empty empty ON 23 10 0 12 #ffc7c6 #000000 #000000 0 1;
#X obj 183 374 +~;
#X msg 329 232 0, f 2;
#X obj 306 192 r \$0-FIRST;
#X obj 416 191 r \$0-WINDOW-SIZE;
#X obj 386 192 - 3;
#X floatatom 110 151 10 0 0 1 MIDI - - 0;
#X floatatom 110 176 10 0 0 1 FREQUENCY[Hz] - - 0;
#X obj 16 195 ftom;
#X msg 16 219 set \$1;
#X text 107 192 --------------------------;
#X obj 110 32 inlet;
#X obj 161 32 inlet;
#X obj 109 437 outlet~;
#N canvas 52 20 1854 977 (subpatch) 0;
#X array \$0-SAMPLE-ENVELOPE 1000 float 2;
#A color 0;
#A width 2;
#X coords 0 1 1000 0 200 80 1 0 0;
#X restore 618 44 graph;
#X text 106 255 --------------------------;
#X text 108 15 MIDI;
#X text 159 15 FREQUENCY;
#X obj 327 156 /, f 7;
#X obj 341 106 t b f;
#X obj 327 130 f;
#X obj 341 83 r \$0-WINDOW-SIZE;
#X obj 327 61 r \$0-RECORDED-SR;
#X text 383 156 ORIGNIAL LOADED FREQUENCY;
#X obj 110 273 bng 20 250 50 0 empty empty CONST-1 23 10 0 12 #fcfcfc #000000 #000000;
#X obj 189 273 bng 20 250 50 0 empty empty HANN 23 10 0 12 #fcfcfc #000000 #000000;
#X obj 246 273 bng 20 250 50 0 empty empty COS 23 10 0 12 #fcfcfc #000000 #000000;
#X msg 16 293 1, f 1;
#X msg 40 293 2, f 1;
#X msg 64 293 3, f 1;
#X obj 16 473 s \$0-SAMPLE-ENVELOPE-SELECT;
#X msg 373 232 1 100;
#X obj 421 232 del 300;
#X obj 109 353 *~, f 6;
#X obj 113 306 hsl 175 20 0 1 0 0 empty empty NORMALIZATION 45 10 0 12 #fcfcfc #000000 #000000 0 1;
#X text 106 289 --------------------------;
#X obj 307 261 loadbang;
#X msg 307 286 0.5;
#X obj 618 131 r \$0-SAMPLE-ENVELOPE-SELECT;
#X obj 618 155 sel 1 2 3;
#N canvas 704 467 933 446 HANN 0;
#X obj 23 32 inlet;
#X obj 23 86 del 40;
#X text 118 31 -----------------------------------------------------------;
#X obj 23 62 t b b, f 32;
#X text 118 19 HANN WINDOW (Cosine based);
#X text 369 90 HANN window formulation: \; f(n) = (sin(pi*n/WINDOW-LEN))^2 \;;
#X obj 244 187 until;
#X obj 244 211 i, f 7;
#X obj 301 211 + 1;
#X msg 292 187 0;
#X obj 244 163 t f b f, f 15;
#X obj 493 262 - 1;
#X obj 244 238 t f f;
#X floatatom 244 264 5 0 0 1 0-999 - - 0;
#X text 285 136 ATTACK LEN (1);
#X text 192 339 ** pi == acos(-1);
#X msg 244 136 1000;
#X obj 209 156 - 1;
#X msg 23 263 0;
#X text 30 209 FORCE SETTING TO 0 DUE TO NUMERICAL ERROR, f 15;
#X obj 244 290 expr pow(sin((acos(-1)*$f1/$f2)) \, 2);
#X text 462 352 REFERENCE VALUE OF POWER FOR HANN WINDOW IS 2 SETTING HIGHER WILL MAKE THE HANN WINDOW THINNER IN THE MIDDLE. AND SETTING IT LOWER EX: 1 \, 0.5 \, ..)0 WILL MAKE IT FATTER., f 48;
#X obj 23 311 tabwrite \$0-SAMPLE-ENVELOPE;
#X obj 244 314 tabwrite \$0-SAMPLE-ENVELOPE;
#X text 371 155 1 PARAMETERS (1) TO CHANGE FOR DIFFERENT WINDOW LENGHT, f 28;
#X connect 0 0 3 0;
#X connect 1 0 18 0;
#X connect 3 0 1 0;
#X connect 3 1 16 0;
#X connect 6 0 7 0;
#X connect 7 0 8 0;
#X connect 7 0 12 0;
#X connect 8 0 7 1;
#X connect 9 0 7 1;
#X connect 10 0 6 0;
#X connect 10 1 9 0;
#X connect 10 2 11 0;
#X connect 11 0 20 1;
#X connect 12 0 13 0;
#X connect 12 1 23 1;
#X connect 13 0 20 0;
#X connect 16 0 10 0;
#X connect 16 0 17 0;
#X connect 17 0 22 1;
#X connect 18 0 22 0;
#X connect 20 0 23 0;
#X restore 638 213 pd HANN;
#N canvas 101 69 384 206 UNIT-1 0;
#X msg 132 73 const 1;
#X obj 132 49 inlet;
#X obj 132 97 s \$0-SAMPLE-ENVELOPE;
#X connect 0 0 2 0;
#X connect 1 0 0 0;
#X restore 618 238 pd UNIT-1;
#X text 103 100 =========================== == \$0-WAVE-SAMPLE PLAYER == ===========================, f 27;
#N canvas 2077 247 691 542 MID-COS 0;
#X obj 23 32 inlet;
#X text 118 31 -----------------------------------------------------------;
#X obj 265 187 until;
#X obj 265 211 i, f 7;
#X obj 322 211 + 1;
#X msg 313 187 0;
#X obj 265 163 t f b f, f 15;
#X obj 521 250 - 1;
#X obj 265 238 t f f;
#X floatatom 265 264 5 0 0 1 0-999 - - 0;
#X text 306 136 ATTACK LEN (1);
#X text 262 365 ** pi == acos(-1);
#X msg 265 136 1000;
#X obj 209 156 - 1;
#X msg 23 263 0;
#X text 30 209 FORCE SETTING TO 0 DUE TO NUMERICAL ERROR, f 15;
#X obj 23 311 tabwrite \$0-SAMPLE-ENVELOPE;
#X obj 265 339 tabwrite \$0-SAMPLE-ENVELOPE;
#X obj 265 290 expr cos(2*acos(-1)*($f1/$f2 + 0.25));
#X obj 521 225 * 2;
#X obj 265 315 * -1;
#X obj 23 62 t b b b, f 35;
#X obj 23 86 del 20;
#X obj 144 88 del 10;
#X obj 23 110 t b b;
#X msg 55 135 0, f 2;
#X text 118 19 (MID-COSINE WINDOW ENVELOPE);
#X connect 0 0 21 0;
#X connect 2 0 3 0;
#X connect 3 0 4 0;
#X connect 3 0 8 0;
#X connect 4 0 3 1;
#X connect 5 0 3 1;
#X connect 6 0 2 0;
#X connect 6 1 5 0;
#X connect 6 2 19 0;
#X connect 7 0 18 1;
#X connect 8 0 9 0;
#X connect 8 1 17 1;
#X connect 9 0 18 0;
#X connect 12 0 6 0;
#X connect 12 0 13 0;
#X connect 13 0 16 1;
#X connect 14 0 16 0;
#X connect 18 0 20 0;
#X connect 19 0 7 0;
#X connect 20 0 17 0;
#X connect 21 0 22 0;
#X connect 21 1 23 0;
#X connect 21 2 12 0;
#X connect 22 0 24 0;
#X connect 23 0 14 0;
#X connect 24 0 14 0;
#X connect 24 1 25 0;
#X connect 25 0 16 1;
#X restore 658 189 pd MID-COS;
#X obj 696 155 loadbang;
#X connect 0 0 14 0;
#X connect 1 0 20 0;
#X connect 2 0 40 0;
#X connect 3 0 6 0;
#X connect 3 0 6 1;
#X connect 4 0 9 0;
#X connect 4 0 38 0;
#X connect 4 0 14 0;
#X connect 4 0 39 0;
#X connect 5 0 3 0;
#X connect 6 0 8 0;
#X connect 7 0 8 1;
#X connect 8 0 1 1;
#X connect 9 0 7 0;
#X connect 10 0 2 2;
#X connect 11 0 12 0;
#X connect 12 0 2 1;
#X connect 13 0 0 0;
#X connect 14 0 15 0;
#X connect 14 0 2 0;
#X connect 15 0 16 0;
#X connect 16 0 13 0;
#X connect 18 0 13 0;
#X connect 19 0 14 0;
#X connect 25 0 14 0;
#X connect 26 0 27 0;
#X connect 26 1 25 1;
#X connect 27 0 25 0;
#X connect 28 0 26 0;
#X connect 29 0 27 0;
#X connect 31 0 34 0;
#X connect 32 0 35 0;
#X connect 33 0 36 0;
#X connect 34 0 37 0;
#X connect 35 0 37 0;
#X connect 36 0 37 0;
#X connect 38 0 3 0;
#X connect 39 0 5 0;
#X connect 40 0 1 0;
#X connect 41 0 40 1;
#X connect 43 0 44 0;
#X connect 44 0 41 0;
#X connect 45 0 46 0;
#X connect 46 0 48 0;
#X connect 46 1 47 0;
#X connect 46 2 50 0;
#X connect 51 0 50 0;
#X coords 0 -1 1 1 200 235 2 100 100;
#X restore 22 624 pd WAVE-SAMPLE-PLAYER;
#N canvas 2018 311 990 578 WAVETABLE-PLAYER 0;
#X obj 17 170 mtof;
#X obj 109 412 *~, f 11;
#N canvas 2028 336 793 501 OSCILLATOR 0;
#X obj 286 31 inlet;
#X obj 358 31 inlet;
#N canvas 297 118 833 439 OSCILLATOR-PHASE-0 0;
#X obj 246 158 phasor~;
#X obj 246 243 *~ \$1;
#X obj 229 353 *~;
#X floatatom 364 224 7 0 0 1 - - - 0;
#X floatatom 246 79 8 0 0 1 - - - 0;
#X obj 246 49 inlet;
#X obj 364 49 inlet;
#X obj 246 103 t f b;
#X msg 278 131 0, f 2;
#X obj 246 208 wrap~;
#X obj 246 183 +~ 0;
#X obj 229 378 outlet~;
#X obj 19 227 *~ 997;
#X obj 19 252 +~ 1;
#X floatatom 584 263 7 0 0 0 - - - 0;
#X obj 246 282 +~;
#X obj 584 49 inlet;
#X text 244 28 FREQUENCY[Hz];
#X text 361 28 PHASOR RANGE (WINDOW-SIZE-3);
#X text 581 29 FIRST SAMPLE;
#X text 27 275 ENVELOPE OF LENGHT 1000;
#X obj 19 334 tabread~ \$0-WAVE-ENVELOPE;
#X obj 246 309 tabread4~ \$0-WAVETABLE;
#X obj 578 303 snapshot~;
#X obj 650 303 metro 10;
#X obj 650 279 tgl 20 0 empty \$0-WAVE-PHASOR-1-CURSOR-ON empty 0 -10 0 12 #fcfcfc #000000 #000000 0 1;
#X obj 578 327 s \$0-WAVE-PHASOR-1-CURSOR-POS;
#X connect 0 0 10 0;
#X connect 1 0 15 0;
#X connect 2 0 11 0;
#X connect 3 0 1 1;
#X connect 4 0 7 0;
#X connect 5 0 4 0;
#X connect 6 0 3 0;
#X connect 7 0 0 0;
#X connect 7 1 8 0;
#X connect 8 0 0 1;
#X connect 9 0 1 0;
#X connect 9 0 12 0;
#X connect 10 0 9 0;
#X connect 12 0 13 0;
#X connect 13 0 21 0;
#X connect 14 0 15 1;
#X connect 15 0 22 0;
#X connect 15 0 23 0;
#X connect 16 0 14 0;
#X connect 21 0 2 0;
#X connect 22 0 2 1;
#X connect 23 0 26 0;
#X connect 24 0 23 0;
#X connect 25 0 24 0;
#X restore 286 119 pd OSCILLATOR-PHASE-0;
#X obj 430 30 inlet;
#X obj 286 298 +~, f 5;
#X obj 286 258 *~;
#X obj 318 258 *~;
#X obj 353 258 *~;
#X obj 389 258 *~;
#X text 509 25 INLET-1: FREQUENCY[Hz] \; INLET-2: PHASOR RANGE(WINDOW-SIZE-3) \; INLET-3: FIRST SAMPLE \;;
#N canvas 459 271 871 439 OSCILLATOR-PHASE-0.25 0;
#X obj 246 158 phasor~;
#X obj 246 243 *~ \$1;
#X obj 229 353 *~;
#X floatatom 364 224 7 0 0 1 - - - 0;
#X floatatom 246 79 8 0 0 1 - - - 0;
#X obj 246 49 inlet;
#X obj 364 49 inlet;
#X obj 246 103 t f b;
#X msg 278 131 0, f 2;
#X obj 246 208 wrap~;
#X obj 229 378 outlet~;
#X obj 19 227 *~ 997;
#X obj 19 252 +~ 1;
#X floatatom 584 263 7 0 0 0 - - - 0;
#X obj 246 282 +~;
#X obj 584 49 inlet;
#X text 244 28 FREQUENCY[Hz];
#X text 361 28 PHASOR RANGE (WINDOW-SIZE-3);
#X text 581 29 FIRST SAMPLE;
#X text 27 275 ENVELOPE OF LENGHT 1000;
#X obj 246 183 +~ 0.25;
#X obj 246 309 tabread4~ \$0-WAVETABLE;
#X obj 19 334 tabread~ \$0-WAVE-ENVELOPE;
#X obj 578 303 snapshot~;
#X obj 650 303 metro 10;
#X obj 650 279 tgl 20 0 empty \$0-WAVE-PHASOR-2-CURSOR-ON empty 0 -10 0 12 #fcfcfc #000000 #000000 0 1;
#X obj 578 327 s \$0-WAVE-PHASOR-2-CURSOR-POS;
#X connect 0 0 20 0;
#X connect 1 0 14 0;
#X connect 2 0 10 0;
#X connect 3 0 1 1;
#X connect 4 0 7 0;
#X connect 5 0 4 0;
#X connect 6 0 3 0;
#X connect 7 0 0 0;
#X connect 7 1 8 0;
#X connect 8 0 0 1;
#X connect 9 0 1 0;
#X connect 9 0 11 0;
#X connect 11 0 12 0;
#X connect 12 0 22 0;
#X connect 13 0 14 1;
#X connect 14 0 21 0;
#X connect 14 0 23 0;
#X connect 15 0 13 0;
#X connect 20 0 9 0;
#X connect 21 0 2 1;
#X connect 22 0 2 0;
#X connect 23 0 26 0;
#X connect 24 0 23 0;
#X connect 25 0 24 0;
#X restore 318 143 pd OSCILLATOR-PHASE-0.25;
#N canvas 297 118 816 439 OSCILLATOR-PHASE-0.5 0;
#X obj 246 158 phasor~;
#X obj 246 243 *~ \$1;
#X obj 229 353 *~;
#X floatatom 364 224 7 0 0 1 - - - 0;
#X floatatom 246 79 8 0 0 1 - - - 0;
#X obj 246 49 inlet;
#X obj 364 49 inlet;
#X obj 246 103 t f b;
#X msg 278 131 0, f 2;
#X obj 246 208 wrap~;
#X obj 229 378 outlet~;
#X obj 19 227 *~ 997;
#X obj 19 252 +~ 1;
#X floatatom 584 263 7 0 0 0 - - - 0;
#X obj 246 282 +~;
#X obj 584 49 inlet;
#X text 244 28 FREQUENCY[Hz];
#X text 361 28 PHASOR RANGE (WINDOW-SIZE-3);
#X text 581 29 FIRST SAMPLE;
#X text 27 275 ENVELOPE OF LENGHT 1000;
#X obj 246 183 +~ 0.5;
#X obj 19 334 tabread~ \$0-WAVE-ENVELOPE;
#X obj 246 309 tabread4~ \$0-WAVETABLE;
#X obj 578 303 snapshot~;
#X obj 650 303 metro 10;
#X obj 650 279 tgl 20 0 empty \$0-WAVE-PHASOR-3-CURSOR-ON empty 0 -10 0 12 #fcfcfc #000000 #000000 0 1;
#X obj 578 327 s \$0-WAVE-PHASOR-3-CURSOR-POS;
#X connect 0 0 20 0;
#X connect 1 0 14 0;
#X connect 2 0 10 0;
#X connect 3 0 1 1;
#X connect 4 0 7 0;
#X connect 5 0 4 0;
#X connect 6 0 3 0;
#X connect 7 0 0 0;
#X connect 7 1 8 0;
#X connect 8 0 0 1;
#X connect 9 0 1 0;
#X connect 9 0 11 0;
#X connect 11 0 12 0;
#X connect 12 0 21 0;
#X connect 13 0 14 1;
#X connect 14 0 22 0;
#X connect 14 0 23 0;
#X connect 15 0 13 0;
#X connect 20 0 9 0;
#X connect 21 0 2 0;
#X connect 22 0 2 1;
#X connect 23 0 26 0;
#X connect 24 0 23 0;
#X connect 25 0 24 0;
#X restore 353 167 pd OSCILLATOR-PHASE-0.5;
#N canvas 297 118 835 439 OSCILLATOR-PHASE-0.75 0;
#X obj 246 158 phasor~;
#X obj 246 243 *~ \$1;
#X obj 229 353 *~;
#X floatatom 364 224 7 0 0 1 - - - 0;
#X floatatom 246 79 8 0 0 1 - - - 0;
#X obj 246 49 inlet;
#X obj 364 49 inlet;
#X obj 246 103 t f b;
#X msg 278 131 0, f 2;
#X obj 246 208 wrap~;
#X obj 229 378 outlet~;
#X obj 19 227 *~ 997;
#X obj 19 252 +~ 1;
#X floatatom 584 263 7 0 0 0 - - - 0;
#X obj 246 282 +~;
#X obj 584 49 inlet;
#X text 244 28 FREQUENCY[Hz];
#X text 361 28 PHASOR RANGE (WINDOW-SIZE-3);
#X text 581 29 FIRST SAMPLE;
#X text 27 275 ENVELOPE OF LENGHT 1000;
#X obj 246 309 tabread4~ \$0-WAVETABLE;
#X obj 19 334 tabread~ \$0-WAVE-ENVELOPE;
#X obj 578 303 snapshot~;
#X obj 650 303 metro 10;
#X obj 650 279 tgl 20 0 empty \$0-WAVE-PHASOR-4-CURSOR-ON empty 0 -10 0 12 #fcfcfc #000000 #000000 0 1;
#X obj 578 327 s \$0-WAVE-PHASOR-4-CURSOR-POS;
#X obj 246 183 +~ 0.75;
#X connect 0 0 26 0;
#X connect 1 0 14 0;
#X connect 2 0 10 0;
#X connect 3 0 1 1;
#X connect 4 0 7 0;
#X connect 5 0 4 0;
#X connect 6 0 3 0;
#X connect 7 0 0 0;
#X connect 7 1 8 0;
#X connect 8 0 0 1;
#X connect 9 0 1 0;
#X connect 9 0 11 0;
#X connect 11 0 12 0;
#X connect 12 0 21 0;
#X connect 13 0 14 1;
#X connect 14 0 20 0;
#X connect 14 0 22 0;
#X connect 15 0 13 0;
#X connect 20 0 2 1;
#X connect 21 0 2 0;
#X connect 22 0 25 0;
#X connect 23 0 22 0;
#X connect 24 0 23 0;
#X connect 26 0 9 0;
#X restore 389 192 pd OSCILLATOR-PHASE-0.75;
#X obj 286 330 outlet~;
#N canvas 2190 323 607 300 PLAYBACK-CURSOR 0;
#X msg 46 136 1;
#X msg 271 111 0;
#X obj 271 86 sel 0 1, f 11;
#X msg 308 111 1;
#X obj 46 40 inlet;
#X obj 271 45 inlet;
#X obj 46 111 sel 1 0, f 13;
#X msg 90 136 0;
#X obj 46 163 s \$0-WAVE-PHASOR-1-CURSOR-ON;
#X obj 296 188 s \$0-WAVE-PHASOR-2-CURSOR-ON;
#X obj 333 212 s \$0-WAVE-PHASOR-3-CURSOR-ON;
#X obj 357 237 s \$0-WAVE-PHASOR-4-CURSOR-ON;
#X obj 271 163 s \$0-WAVE-PHASOR-1-CURSOR-ON;
#X connect 0 0 8 0;
#X connect 1 0 9 0;
#X connect 1 0 10 0;
#X connect 1 0 11 0;
#X connect 1 0 12 0;
#X connect 2 0 1 0;
#X connect 2 1 3 0;
#X connect 3 0 9 0;
#X connect 3 0 10 0;
#X connect 3 0 11 0;
#X connect 3 0 12 0;
#X connect 4 0 6 0;
#X connect 5 0 2 0;
#X connect 6 0 0 0;
#X connect 6 1 7 0;
#X connect 7 0 8 0;
#X restore 105 328 pd PLAYBACK-CURSOR;
#X obj 131 121 tgl 20 0 empty empty 4 7 10 0 12 #faff00 #000000 #000000 0 1;
#X obj 105 121 tgl 20 0 empty empty 1 7 10 0 12 #faff00 #000000 #000000 0 1;
#X text 102 100 OSCILLATORS;
#X obj 105 151 sel 0 1, f 8;
#X msg 105 175 0, f 1;
#X obj 132 174 t b b, f 2;
#X msg 154 203 0, f 1;
#X msg 132 225 1, f 1;
#X obj 180 151 sel 0 1;
#X msg 180 175 0, f 1;
#X msg 203 227 1, f 1;
#X obj 203 174 t b b, f 2;
#X msg 226 203 0, f 1;
#X obj 296 240 tgl 15 0 empty empty empty 0 -10 0 12 #fcfcfc #000000 #000000 0 1;
#X obj 328 240 tgl 15 0 empty empty empty 0 -10 0 12 #fcfcfc #000000 #000000 0 1;
#X obj 363 240 tgl 15 0 empty empty empty 0 -10 0 12 #fcfcfc #000000 #000000 0 1;
#X obj 399 240 tgl 15 0 empty empty empty 0 -10 0 12 #fcfcfc #000000 #000000 0 1;
#X connect 0 0 2 0;
#X connect 0 0 10 0;
#X connect 0 0 11 0;
#X connect 0 0 12 0;
#X connect 1 0 2 1;
#X connect 1 0 10 1;
#X connect 1 0 11 1;
#X connect 1 0 12 1;
#X connect 2 0 5 0;
#X connect 3 0 2 2;
#X connect 3 0 10 2;
#X connect 3 0 11 2;
#X connect 3 0 12 2;
#X connect 4 0 13 0;
#X connect 5 0 4 0;
#X connect 6 0 4 1;
#X connect 7 0 4 1;
#X connect 8 0 4 1;
#X connect 10 0 6 0;
#X connect 11 0 7 0;
#X connect 12 0 8 0;
#X connect 15 0 23 0;
#X connect 16 0 18 0;
#X connect 18 0 19 0;
#X connect 18 1 20 0;
#X connect 19 0 28 0;
#X connect 19 0 14 0;
#X connect 20 0 22 0;
#X connect 20 1 21 0;
#X connect 21 0 15 0;
#X connect 22 0 28 0;
#X connect 22 0 14 0;
#X connect 23 0 24 0;
#X connect 23 1 26 0;
#X connect 24 0 28 0;
#X connect 24 0 31 0;
#X connect 24 0 30 0;
#X connect 24 0 29 0;
#X connect 24 0 14 1;
#X connect 25 0 28 0;
#X connect 25 0 31 0;
#X connect 25 0 30 0;
#X connect 25 0 29 0;
#X connect 25 0 14 1;
#X connect 26 0 25 0;
#X connect 26 1 27 0;
#X connect 27 0 16 0;
#X connect 28 0 5 1;
#X connect 29 0 6 1;
#X connect 30 0 7 1;
#X connect 31 0 8 1;
#X coords 0 -1 1 1 85 45 2 100 100;
#X restore 110 212 pd OSCILLATOR;
#X f 24;
#X obj 373 256 line~;
#X obj 202 212 bng 20 250 50 0 empty empty PLAY 23 10 0 12 #ffc7c6 #000000 #202020;
#X msg 421 259 0 500;
#X obj 373 355 *~;
#X obj 202 236 tgl 20 0 empty empty ON 23 10 0 12 #ffc7c6 #000000 #000000 0 1;
#X obj 183 374 +~;
#X msg 329 232 0, f 2;
#X obj 367 192 - 3;
#X floatatom 110 151 10 0 0 1 MIDI - - 0;
#X floatatom 110 176 10 0 0 1 FREQUENCY[Hz] - - 0;
#X obj 16 195 ftom;
#X msg 16 219 set \$1;
#X text 107 192 --------------------------;
#X obj 110 32 inlet;
#X obj 161 32 inlet;
#X obj 109 437 outlet~;
#N canvas 52 20 1854 977 (subpatch) 0;
#X array \$0-WAVE-ENVELOPE 1000 float 2;
#A color 0;
#A width 2;
#X coords 0 1 1000 0 200 80 1 0 0;
#X restore 705 62 graph;
#X text 106 255 --------------------------;
#X text 108 15 MIDI;
#X text 159 15 FREQUENCY;
#X obj 327 156 /, f 7;
#X obj 341 106 t b f;
#X obj 327 130 f;
#X obj 327 61 r \$0-RECORDED-SR;
#X text 383 156 ORIGNIAL LOADED FREQUENCY;
#X obj 110 273 bng 20 250 50 0 empty empty CONST-1 23 10 0 12 #fcfcfc #000000 #000000;
#X obj 189 273 bng 20 250 50 0 empty empty HANN 23 10 0 12 #fcfcfc #000000 #000000;
#X obj 246 273 bng 20 250 50 0 empty empty COS 23 10 0 12 #fcfcfc #000000 #000000;
#X msg 16 293 1, f 1;
#X msg 40 293 2, f 1;
#X msg 64 293 3, f 1;
#X msg 373 232 1 100;
#X obj 421 232 del 300;
#X obj 109 353 *~, f 6;
#X obj 113 306 hsl 175 20 0 1 0 0 empty empty NORMALIZATION 45 10 0 12 #fcfcfc #000000 #000000 0 1;
#X text 106 289 --------------------------;
#X obj 307 261 loadbang;
#X msg 307 286 0.5;
#X obj 705 173 sel 1 2 3;
#X text 103 100 =========================== === \$0-WAVETABLE PLAYER === ===========================, f 27;
#X obj 16 473 s \$0-WAVE-ENVELOPE-SELECT;
#X obj 705 149 r \$0-WAVE-ENVELOPE-SELECT;
#X obj 341 83 r \$0-WAVETABLE-SIZE;
#X obj 397 191 r \$0-WAVETABLE-SIZE;
#X msg 326 192 0;
#N canvas 704 467 933 446 HANN 0;
#X obj 23 32 inlet;
#X obj 23 86 del 40;
#X text 118 31 -----------------------------------------------------------;
#X obj 23 62 t b b, f 32;
#X text 118 19 HANN WINDOW (Cosine based);
#X text 369 90 HANN window formulation: \; f(n) = (sin(pi*n/WINDOW-LEN))^2 \;;
#X obj 244 187 until;
#X obj 244 211 i, f 7;
#X obj 301 211 + 1;
#X msg 292 187 0;
#X obj 244 163 t f b f, f 15;
#X obj 493 262 - 1;
#X obj 244 238 t f f;
#X floatatom 244 264 5 0 0 1 0-999 - - 0;
#X text 285 136 ATTACK LEN (1);
#X text 246 341 ** pi == acos(-1);
#X msg 244 136 1000;
#X obj 195 156 - 1;
#X msg 23 263 0;
#X text 30 209 FORCE SETTING TO 0 DUE TO NUMERICAL ERROR, f 15;
#X obj 244 290 expr pow(sin((acos(-1)*$f1/$f2)) \, 2);
#X text 462 352 REFERENCE VALUE OF POWER FOR HANN WINDOW IS 2 SETTING HIGHER WILL MAKE THE HANN WINDOW THINNER IN THE MIDDLE. AND SETTING IT LOWER EX: 1 \, 0.5 \, ..)0 WILL MAKE IT FATTER., f 48;
#X text 371 155 1 PARAMETERS (1) TO CHANGE FOR DIFFERENT WINDOW LENGHT, f 28;
#X obj 23 311 tabwrite \$0-WAVE-ENVELOPE;
#X obj 244 314 tabwrite \$0-WAVE-ENVELOPE;
#X connect 0 0 3 0;
#X connect 1 0 18 0;
#X connect 3 0 1 0;
#X connect 3 1 16 0;
#X connect 6 0 7 0;
#X connect 7 0 8 0;
#X connect 7 0 12 0;
#X connect 8 0 7 1;
#X connect 9 0 7 1;
#X connect 10 0 6 0;
#X connect 10 1 9 0;
#X connect 10 2 11 0;
#X connect 11 0 20 1;
#X connect 12 0 13 0;
#X connect 12 1 24 1;
#X connect 13 0 20 0;
#X connect 16 0 10 0;
#X connect 16 0 17 0;
#X connect 17 0 23 1;
#X connect 18 0 23 0;
#X connect 20 0 24 0;
#X restore 725 235 pd HANN;
#N canvas 101 69 384 206 UNIT-1 0;
#X msg 132 73 const 1;
#X obj 132 49 inlet;
#X obj 132 97 s \$0-WAVE-ENVELOPE;
#X connect 0 0 2 0;
#X connect 1 0 0 0;
#X restore 705 260 pd UNIT-1;
#N canvas 2077 247 691 542 MID-COS 0;
#X obj 23 32 inlet;
#X text 118 31 -----------------------------------------------------------;
#X obj 265 187 until;
#X obj 265 211 i, f 7;
#X obj 322 211 + 1;
#X msg 313 187 0;
#X obj 265 163 t f b f, f 15;
#X obj 521 250 - 1;
#X obj 265 238 t f f;
#X floatatom 265 264 5 0 0 1 0-999 - - 0;
#X text 306 136 ATTACK LEN (1);
#X text 262 365 ** pi == acos(-1);
#X msg 265 136 1000;
#X obj 195 156 - 1;
#X msg 23 263 0;
#X text 30 209 FORCE SETTING TO 0 DUE TO NUMERICAL ERROR, f 15;
#X obj 265 290 expr cos(2*acos(-1)*($f1/$f2 + 0.25));
#X obj 521 225 * 2;
#X obj 265 315 * -1;
#X obj 23 62 t b b b, f 35;
#X obj 23 86 del 20;
#X obj 144 88 del 10;
#X obj 23 110 t b b;
#X msg 55 135 0, f 2;
#X text 118 19 (MID-COSINE WINDOW ENVELOPE);
#X obj 23 311 tabwrite \$0-WAVE-ENVELOPE;
#X obj 265 339 tabwrite \$0-WAVE-ENVELOPE;
#X connect 0 0 19 0;
#X connect 2 0 3 0;
#X connect 3 0 4 0;
#X connect 3 0 8 0;
#X connect 4 0 3 1;
#X connect 5 0 3 1;
#X connect 6 0 2 0;
#X connect 6 1 5 0;
#X connect 6 2 17 0;
#X connect 7 0 16 1;
#X connect 8 0 9 0;
#X connect 8 1 26 1;
#X connect 9 0 16 0;
#X connect 12 0 6 0;
#X connect 12 0 13 0;
#X connect 13 0 25 1;
#X connect 14 0 25 0;
#X connect 16 0 18 0;
#X connect 17 0 7 0;
#X connect 18 0 26 0;
#X connect 19 0 20 0;
#X connect 19 1 21 0;
#X connect 19 2 12 0;
#X connect 20 0 22 0;
#X connect 21 0 14 0;
#X connect 22 0 14 0;
#X connect 22 1 23 0;
#X connect 23 0 25 1;
#X restore 745 211 pd MID-COS;
#X obj 796 183 loadbang;
#X connect 0 0 12 0;
#X connect 1 0 18 0;
#X connect 2 0 36 0;
#X connect 3 0 6 0;
#X connect 3 0 6 1;
#X connect 4 0 9 0;
#X connect 4 0 34 0;
#X connect 4 0 12 0;
#X connect 4 0 35 0;
#X connect 5 0 3 0;
#X connect 6 0 8 0;
#X connect 7 0 8 1;
#X connect 8 0 1 1;
#X connect 9 0 7 0;
#X connect 10 0 2 1;
#X connect 10 0 47 0;
#X connect 11 0 0 0;
#X connect 12 0 13 0;
#X connect 12 0 2 0;
#X connect 13 0 14 0;
#X connect 14 0 11 0;
#X connect 16 0 11 0;
#X connect 17 0 12 0;
#X connect 23 0 12 0;
#X connect 24 0 25 0;
#X connect 24 1 23 1;
#X connect 25 0 23 0;
#X connect 26 0 25 0;
#X connect 28 0 31 0;
#X connect 29 0 32 0;
#X connect 30 0 33 0;
#X connect 31 0 43 0;
#X connect 32 0 43 0;
#X connect 33 0 43 0;
#X connect 34 0 3 0;
#X connect 35 0 5 0;
#X connect 36 0 1 0;
#X connect 37 0 36 1;
#X connect 39 0 40 0;
#X connect 40 0 37 0;
#X connect 41 0 49 0;
#X connect 41 1 48 0;
#X connect 41 2 50 0;
#X connect 44 0 41 0;
#X connect 45 0 24 0;
#X connect 46 0 10 0;
#X connect 47 0 2 2;
#X connect 51 0 50 0;
#X coords 0 -1 1 1 200 235 2 100 100;
#X restore 243 623 pd WAVETABLE-PLAYER;
#N canvas 2153 44 1134 913 WAVE 1;
#X obj 102 102 cnv 20 460 670 empty empty empty 20 12 0 12 #ffe3c6 #404040 0;
#N canvas 0 50 450 250 (subpatch) 0;
#X array \$0-WAVETABLE 4096 float 4;
#A color 0;
#A width 1;
#X coords 0 1 4095 -1 430 125 1 0 0;
#X restore 113 125 graph;
#N canvas 1943 25 450 250 (subpatch) 0;
#X array \$0-REAL 4096 float 4;
#A color 0;
#A width 1;
#X coords 0 0 -1 -0 430 125 1 0 0;
#X restore 113 268 graph;
#N canvas 101 69 450 250 (subpatch) 0;
#X array \$0-IMAGINARY 4096 float 4;
#A color 0;
#A width 1;
#X coords 0 0 -1 -0 430 125 1 0 0;
#X restore 113 411 graph;
#N canvas 1943 25 450 250 (subpatch) 0;
#X array \$0-MAGNITUDE 4096 float 4;
#A color 0;
#A width 1;
#X coords 0 0 -1 0 430 125 1 0 0;
#X restore 113 554 graph;
#N canvas 2424 235 898 731 FFT 0;
#X obj 31 133 rfft~;
#X obj 5 3 bng 20 250 50 0 empty empty DRAW-FFT 23 10 0 12 #fcfcfc #000000 #000000;
#X obj 31 309 tabwrite~ \$0-REAL;
#X obj 62 285 tabwrite~ \$0-IMAGINARY;
#X obj 92 261 tabwrite~ \$0-MAGNITUDE;
#X obj 30 105 tabreceive~ \$0-WAVETABLE;
#X obj 33 467 rifft~;
#X obj 5 27 bng 20 250 50 0 empty empty DRAW-IFFT 23 10 0 12 #fcfcfc #000000 #000000;
#X obj 33 499 tabwrite~ \$0-WAVETABLE;
#X obj 33 366 tabreceive~ \$0-REAL;
#X obj 71 393 tabreceive~ \$0-IMAGINARY;
#X obj 160 309 r \$0-DRAW-FFT;
#X obj 176 479 r \$0-DRAW-IFFT;
#X obj 134 23 s \$0-DRAW-FFT;
#X obj 133 47 s \$0-DRAW-IFFT;
#X obj 127 183 *~;
#X obj 94 183 *~;
#X obj 93 208 +~;
#X obj 92 234 sqrt~;
#X obj 165 423 r \$0-WAVETABLE-SIZE;
#X floatatom 116 423 6 0 0 0 - - - 0;
#X obj 33 442 /~;
#X obj 71 442 /~;
#X connect 0 0 2 0;
#X connect 0 0 16 0;
#X connect 0 0 16 1;
#X connect 0 1 3 0;
#X connect 0 1 15 0;
#X connect 0 1 15 1;
#X connect 1 0 13 0;
#X connect 5 0 0 0;
#X connect 6 0 8 0;
#X connect 7 0 14 0;
#X connect 9 0 21 0;
#X connect 10 0 22 0;
#X connect 11 0 2 0;
#X connect 11 0 3 0;
#X connect 11 0 4 0;
#X connect 12 0 8 0;
#X connect 15 0 17 1;
#X connect 16 0 17 0;
#X connect 17 0 18 0;
#X connect 18 0 4 0;
#X connect 19 0 20 0;
#X connect 20 0 22 1;
#X connect 20 0 21 1;
#X connect 21 0 6 0;
#X connect 22 0 6 1;
#X coords 0 -1 1 1 97 50 2 0 0;
#X restore 446 684 pd FFT;
#N canvas 2349 299 797 596 SPECTRUM-MODIFICATION 0;
#X floatatom 202 393 5 0 0 0 - - - 0;
#X msg 145 397 0;
#X obj 145 272 until;
#X obj 145 319 f;
#X obj 176 319 + 1;
#X msg 163 297 0;
#X obj 145 249 t f b;
#X obj 145 373 t b f;
#X obj 145 344 + 128;
#X msg 145 224 5000;
#X floatatom 194 345 5 0 0 0 - - - 0;
#X text 141 186 MODIFICATIONS \; ------------- \;;
#X obj 104 102 bng 20 250 50 0 empty empty SPECTRUM\ ADJUSTMENT 23 10 0 12 #fcfcfc #000000 #000000;
#X text 364 73 OPEN THE PATCH;
#X msg 392 327 \; \$1-REAL const 1 \; \$1-IMAGINARY const 1 \; \$1-MAGNITUDE const 1 \;;
#X obj 392 302 f \$0;
#X obj 392 276 bng 20 250 50 0 empty empty empty 0 -10 0 12 #fcfcfc #000000 #000000;
#X connect 2 0 3 0;
#X connect 3 0 4 0;
#X connect 3 0 8 0;
#X connect 4 0 3 1;
#X connect 5 0 3 1;
#X connect 6 0 2 0;
#X connect 6 1 5 0;
#X connect 7 0 1 0;
#X connect 7 1 0 0;
#X connect 8 0 7 0;
#X connect 9 0 6 0;
#X connect 10 0 8 1;
#X connect 10 0 9 0;
#X connect 15 0 14 0;
#X connect 16 0 15 0;
#X coords 0 -1 1 1 165 24 2 100 100;
#X restore 277 684 pd SPECTRUM-MODIFICATION;
#N canvas 2160 89 582 438 CHOP-WAVE-DISK 0;
#X obj 103 102 bng 20 250 50 0 empty empty CHOP|DISK 23 10 0 12 #ff0400 #000000 #000000;
#X msg 103 129 symbol /home/mobin/Documents/Sounds, f 29;
#X obj 103 297 soundfiler;
#X obj 103 171 savepanel;
#X symbolatom 103 196 56 0 0 0 - - - 0;
#X obj 103 245 pack s f;
#X obj 156 220 f \$0;
#X obj 103 220 t s b;
#X floatatom 103 322 5 0 0 0 - - - 0;
#X listbox 170 322 20 0 0 0 - - - 0;
#X msg 103 271 write \$1.wav \$2-WAVETABLE;
#X connect 0 0 1 0;
#X connect 1 0 3 0;
#X connect 2 0 8 0;
#X connect 2 1 9 0;
#X connect 3 0 4 0;
#X connect 4 0 7 0;
#X connect 5 0 10 0;
#X connect 6 0 5 1;
#X connect 7 0 5 0;
#X connect 7 1 6 0;
#X connect 10 0 2 0;
#X coords 0 -1 1 1 97 24 2 100 100;
#X restore 446 737 pd CHOP-WAVE-DISK;
#N canvas 2032 379 850 505 FFT-ARRAY-SIZING 0;
#X floatatom 66 195 5 0 0 0 - - - 0;
#X obj 46 306 pack \$0 0 f f f;
#X obj 66 214 - 1;
#X obj 148 246 / 2;
#X obj 148 268 * -1;
#X obj 46 5 r \$0-WAVETABLE-SIZE;
#X listbox 46 348 28 0 0 0 - - - 0;
#X msg 309 189 resize \$1;
#X obj 309 209 s \$0-REAL;
#X obj 379 209 s \$0-IMAGINARY;
#X obj 485 209 s \$0-MAGNITUDE;
#X msg 46 371 \; \$1-IMAGINARY bounds \$2 \$3 \$4 \$5 \; \$1-REAL bounds \$2 \$3 \$4 \$5;
#X floatatom 46 28 9 0 0 0 - - - 0;
#X msg 303 367 \; \$1-MAGNITUDE bounds \$2 \$3 \$4 0;
#X obj 148 214 /;
#X obj 185 195 r \$0-FFT-ZOOM;
#X obj 185 217 t b b f;
#X msg 629 213 \; \$1-REAL const 0 \; \$1-IMAGINARY const 0 \; \$1-MAGNITUDE const 0 \;;
#X obj 46 169 t b f f b;
#X obj 629 189 f \$0;
#X obj 232 309 s \$0-i-FFT-ZOOM;
#X msg 232 284 bang;
#X obj 46 52 t f f;
#X obj 91 72 sel 0;
#X obj 46 123 spigot;
#X obj 97 123 tgl 20 0 empty empty empty 0 -10 0 12 #fcfcfc #000000 #000000 0 1;
#X msg 91 96 0, f 1;
#X msg 123 96 1, f 1;
#X text 141 71 NOT TO SIZE ARRAYS TO 0 WHEN LOADING (SIZE 0);
#X connect 0 0 2 0;
#X connect 0 0 14 0;
#X connect 1 0 6 0;
#X connect 2 0 1 3;
#X connect 3 0 4 0;
#X connect 3 0 1 2;
#X connect 4 0 1 4;
#X connect 5 0 12 0;
#X connect 6 0 11 0;
#X connect 6 0 13 0;
#X connect 7 0 8 0;
#X connect 7 0 9 0;
#X connect 7 0 10 0;
#X connect 12 0 22 0;
#X connect 14 0 3 0;
#X connect 15 0 16 0;
#X connect 16 0 1 0;
#X connect 16 1 0 0;
#X connect 16 2 14 1;
#X connect 18 0 1 0;
#X connect 18 0 21 0;
#X connect 18 1 0 0;
#X connect 18 2 7 0;
#X connect 18 3 19 0;
#X connect 19 0 17 0;
#X connect 21 0 20 0;
#X connect 22 0 24 0;
#X connect 22 1 23 0;
#X connect 23 0 26 0;
#X connect 23 1 27 0;
#X connect 24 0 18 0;
#X connect 25 0 24 1;
#X connect 26 0 25 0;
#X connect 27 0 25 0;
#X restore 101 72 pd FFT-ARRAY-SIZING;
#X floatatom 450 104 13 0 0 0 SIZE - - 12;
#X obj 450 73 r \$0-WAVETABLE-SIZE;
#N canvas 882 254 481 375 (subpatch) 0;
#X obj 103 102 bng 20 250 50 0 empty empty NORMALIZE 23 10 0 12 #00faff #000000 #000000;
#X obj 103 133 f \$0;
#X msg 103 156 \; \$1-WAVETABLE normalize;
#X connect 0 0 1 0;
#X connect 1 0 2 0;
#X coords 0 -1 1 1 95 24 2 100 100;
#X restore 178 684 pd;
#X msg 192 850 set \$1;
#X obj 144 850 tgl 20 0 empty empty empty 0 -10 0 12 #fcfcfc #000000 #000000 0 1;
#X obj 144 879 switch~ 1024 1 1 0;
#X obj 144 819 r \$0-WAVETABLE-SIZE;
#X msg 113 850 0, f 2;
#X obj 112 716 cnv 20 133 20 empty empty SPECTRAL\ ANALYSIS\ & 0 12 0 28 #ffe3c6 #404040 0;
#X obj 112 742 cnv 20 133 20 empty empty RESYNTHESIS 0 12 0 28 #ffe3c6 #404040 0;
#N canvas 520 311 993 681 WAVE-LOAD 0;
#X obj 104 102 bng 20 250 50 0 empty empty LOAD 23 10 0 12 #ffc7c6 #000000 #000000;
#X obj 426 353 f;
#X obj 444 327 r \$0-FIRST;
#X obj 508 354 r \$0-WINDOW-SIZE;
#X obj 228 380 f \$0;
#X obj 228 357 del 200;
#X obj 265 380 r \$0-WINDOW-SIZE;
#X obj 104 333 t b b b b, f 27;
#X obj 166 361 del 400;
#X obj 246 430 r \$0-WINDOW-SIZE;
#X msg 166 429 0;
#X obj 104 505 f;
#X obj 136 505 r \$0-WINDOW-SIZE;
#X obj 104 358 del 600;
#X obj 426 377 array get \$0-WAVE-SAMPLE;
#X obj 626 374 array size \$0-WAVE-BUFFER;
#X obj 426 433 array define \$0-WAVE-BUFFER;
#X f 41;
#X obj 426 401 array set \$0-WAVE-BUFFER 0;
#X obj 228 404 array size \$0-WAVETABLE;
#X obj 166 453 array get \$0-WAVE-BUFFER;
#X obj 166 477 array set \$0-WAVETABLE 0;
#X obj 104 529 s \$0-WAVETABLE-SIZE;
#X text 253 530 SEPARATION FROM \$0-WINDOW-SIZE FOR FFT AND WAVETABLE PLAYER;
#X obj 178 167 nbx 5 22 -1e+37 1e+37 0 0 empty empty empty 70 11 0 12 #faff00 #000000 #000000 0 256;
#X obj 104 199 t f f;
#X obj 104 222 &;
#X obj 136 221 - 1;
#X floatatom 104 247 5 0 0 0 - - - 0;
#X text 165 199 BITWISE SHORTCUT TO CHECK IF A NUMBER IS POWER OF 2, f 19;
#X obj 104 173 f;
#X obj 122 147 r \$0-WINDOW-SIZE;
#X obj 104 271 sel 0;
#X obj 471 260 s \$0-i-ERROR-CANVAS;
#X obj 830 291 outlet;
#X msg 471 237 color #ff0000;
#X msg 574 237 color #000000;
#X connect 0 0 29 0;
#X connect 1 0 14 0;
#X connect 2 0 1 1;
#X connect 3 0 14 1;
#X connect 3 0 15 0;
#X connect 4 0 18 0;
#X connect 5 0 4 0;
#X connect 6 0 4 1;
#X connect 7 0 13 0;
#X connect 7 1 8 0;
#X connect 7 2 1 0;
#X connect 7 2 5 0;
#X connect 8 0 10 0;
#X connect 9 0 19 1;
#X connect 10 0 19 0;
#X connect 11 0 21 0;
#X connect 12 0 11 1;
#X connect 13 0 11 0;
#X connect 14 0 17 0;
#X connect 19 0 20 0;
#X connect 24 0 25 0;
#X connect 24 1 26 0;
#X connect 25 0 27 0;
#X connect 26 0 25 1;
#X connect 27 0 31 0;
#X connect 29 0 24 0;
#X connect 30 0 29 1;
#X connect 30 0 23 0;
#X connect 31 0 7 0;
#X connect 31 0 35 0;
#X connect 31 1 33 0;
#X connect 31 1 34 0;
#X connect 34 0 32 0;
#X connect 35 0 32 0;
#X coords 0 -1 1 1 60 24 2 100 100;
#X restore 113 684 pd WAVE-LOAD;
#X obj 441 125 cnv 1 1 125 \$0-WAVE-PHASOR-2-CURSOR \$0-i-WAVE-PHASOR-2-CURSOR empty 20 12 0 12 #0456cb #404040 0;
#X obj 267 125 cnv 1 1 125 \$0-WAVE-PHASOR-1-CURSOR \$0-i-WAVE-PHASOR-1-CURSOR empty 20 12 0 12 #000000 #404040 0;
#X obj 119 125 cnv 1 1 125 \$0-WAVE-PHASOR-3-CURSOR \$0-i-WAVE-PHASOR-3-CURSOR empty 20 12 0 12 #0fa810 #404040 0;
#X obj 227 125 cnv 1 1 125 \$0-WAVE-PHASOR-4-CURSOR \$0-i-WAVE-PHASOR-4-CURSOR empty 20 12 0 12 #9babc6 #404040 0;
#N canvas 2398 245 847 553 PLAYBACK-CURSOR 0;
#X obj 72 99 /, f 10;
#X floatatom 72 124 7 0 0 1 SAMPLE-X-PIXEL - - 0;
#X obj 72 49 t b f, f 10;
#X text 108 74 \$0-SAMPLE SIZE(X);
#X msg 78 273 pos \$1 \$2;
#X obj 78 199 *;
#X msg 311 272 pos \$1 \$2;
#X obj 311 198 *;
#X msg 79 434 pos \$1 \$2;
#X obj 79 362 *;
#X msg 312 433 pos \$1 \$2;
#X obj 312 361 *;
#X obj 72 25 r \$0-WAVETABLE-SIZE;
#X msg 72 74 430;
#X obj 78 223 + 113;
#X obj 311 222 + 113;
#X obj 312 384 + 113;
#X obj 79 385 + 113;
#X obj 78 248 pack f 125;
#X obj 79 409 pack f 125;
#X obj 312 408 pack f 125;
#X obj 311 247 pack f 125;
#X obj 78 174 r \$0-WAVE-PHASOR-1-CURSOR-POS;
#X obj 78 296 s \$0-i-WAVE-PHASOR-1-CURSOR;
#X obj 311 173 r \$0-WAVE-PHASOR-2-CURSOR-POS;
#X obj 311 295 s \$0-i-WAVE-PHASOR-2-CURSOR;
#X obj 312 456 s \$0-i-WAVE-PHASOR-4-CURSOR;
#X obj 79 457 s \$0-i-WAVE-PHASOR-3-CURSOR;
#X obj 79 337 r \$0-WAVE-PHASOR-3-CURSOR-POS;
#X obj 312 336 r \$0-WAVE-PHASOR-4-CURSOR-POS;
#X msg 570 89 size \$1;
#X msg 570 49 1;
#X msg 612 49 20;
#X obj 570 119 s \$0-i-WAVE-PHASOR-1-CURSOR;
#X obj 570 141 s \$0-i-WAVE-PHASOR-3-CURSOR;
#X obj 570 163 s \$0-i-WAVE-PHASOR-2-CURSOR;
#X obj 570 185 s \$0-i-WAVE-PHASOR-4-CURSOR;
#X connect 0 0 1 0;
#X connect 1 0 5 1;
#X connect 1 0 7 1;
#X connect 1 0 9 1;
#X connect 1 0 11 1;
#X connect 2 0 13 0;
#X connect 2 1 0 1;
#X connect 4 0 23 0;
#X connect 5 0 14 0;
#X connect 6 0 25 0;
#X connect 7 0 15 0;
#X connect 8 0 27 0;
#X connect 9 0 17 0;
#X connect 10 0 26 0;
#X connect 11 0 16 0;
#X connect 12 0 2 0;
#X connect 13 0 0 0;
#X connect 14 0 18 0;
#X connect 15 0 21 0;
#X connect 16 0 20 0;
#X connect 17 0 19 0;
#X connect 18 0 4 0;
#X connect 19 0 8 0;
#X connect 20 0 10 0;
#X connect 21 0 6 0;
#X connect 22 0 5 0;
#X connect 24 0 7 0;
#X connect 28 0 9 0;
#X connect 29 0 11 0;
#X connect 30 0 33 0;
#X connect 30 0 34 0;
#X connect 30 0 35 0;
#X connect 30 0 36 0;
#X connect 31 0 30 0;
#X connect 32 0 30 0;
#X restore 101 48 pd PLAYBACK-CURSOR;
#X obj 617 94 unpack f f;
#X floatatom 617 119 5 0 0 0 - - - 0;
#X floatatom 684 118 5 0 0 0 - - - 0;
#X msg 617 20 get_pos;
#X obj 617 44 s \$0-i-WAVE-PHASOR-3-CURSOR;
#X obj 617 69 r \$0-WAVE-PHASOR-3-CURSOR;
#X obj 102 774 cnv 14 460 15 \$0-ERROR-CANVAS \$0-i-ERROR-CANVAS "NOT\ LOADED:\ WINDOW\ SIZE\ NOT\ ACCEPTABLE" 45 10 1 13 #000000 #000000 0;
#X obj 548 270 vsl 10 405 0.1 60 0 0 empty empty empty 0 -9 0 12 #ffe3c6 #000000 #000000 0 1;
#X floatatom 614 678 5 0 0 0 - - - 0;
#X msg 580 248 1, f 2;
#X obj 614 700 s \$0-FFT-ZOOM;
#X text 547 268 Z;
#X text 547 288 O;
#X text 547 308 O;
#X text 547 328 M;
#X obj 580 222 r \$0-i-FFT-ZOOM;
#X connect 10 0 9 0;
#X connect 12 0 14 0;
#X connect 13 0 14 0;
#X connect 15 0 12 0;
#X connect 15 0 13 0;
#X connect 16 0 13 0;
#X connect 19 0 16 0;
#X connect 25 0 26 0;
#X connect 25 1 27 0;
#X connect 28 0 29 0;
#X connect 30 0 25 0;
#X connect 32 0 33 0;
#X connect 33 0 35 0;
#X connect 34 0 32 0;
#X connect 40 0 34 0;
#X coords 0 -1 1 1 465 692 2 100 100;
#X restore 1344 7 pd WAVE;
#X obj 244 910 output~;
#X text 1349 744 - TO ADD SPECTRUM ADJUSTMENT FUNCTIONS ON THE GO;
#X text 1350 772 - MAKE A SEPARATE STANDALONE "LAB PATCH" FOR "WAVE" SPECTRAL ANALYSIS AND RESYNTHESIS THAT LOADS DIRECTLY WAVE FROM DISK AND PLAYS THROUGH "\$0-WAVETABLE PLAYER", f 63;
#X connect 10 0 14 0;
#X connect 11 0 14 1;
#X connect 12 0 15 0;
#X connect 13 0 15 1;
#X connect 14 0 9 0;
#X connect 15 0 17 0;
