#N canvas 1920 0 1920 1009 12;
#N canvas 2160 89 772 321 WINDOW-SIZE 0;
#X obj 104 119 hradio 20 1 0 8 \$0-RADIO-SEL \$0-i-RADIO-SEL empty 0 -10 0 12 #fcfcfc #000000 #000000 0;
#X floatatom 306 77 4 0 0 0 - - - 0;
#X msg 306 122 64;
#X msg 348 122 128;
#X msg 389 122 256;
#X msg 431 122 512;
#X msg 472 122 1024;
#X msg 513 122 2048;
#X msg 555 122 4096;
#X floatatom 104 142 11 0 0 1 [N] - - 0;
#X text 104 100 WINDOW-WAVE-FFT SIZE;
#X obj 306 54 r \$0-RADIO-SEL;
#X obj 306 101 sel 0 1 2 3 4 5 6, f 42;
#X obj 104 38 loadbang;
#X msg 104 63 0;
#X obj 184 39 r \$0-RESEND-WS;
#X obj 547 161 s \$0-WINDOW-SIZE;
#X floatatom 104 164 11 0 0 1 [ms] - - 0;
#N canvas 2703 327 450 300 CALCULATE-SLICE-LENGTH 0;
#X obj 29 88 /, f 7;
#X obj 43 40 t b f;
#X obj 159 20 r \$0-RECORDED-SR;
#X obj 29 64 f;
#X obj 29 113 * 1000;
#X obj 29 138 outlet;
#X obj 29 15 inlet;
#X connect 0 0 4 0;
#X connect 1 0 3 0;
#X connect 1 1 0 1;
#X connect 2 0 1 0;
#X connect 3 0 0 0;
#X connect 4 0 5 0;
#X connect 6 0 3 0;
#X restore 308 161 pd CALCULATE-SLICE-LENGTH;
#X obj 218 143 bng 18 250 50 0 empty empty FULL 22 9 0 11 #fcfcfc #000000 #000000;
#X obj 218 242 f;
#X obj 236 217 r \$0-SAMPLE-SIZE;
#X obj 184 64 t b b;
#X connect 1 0 12 0;
#X connect 2 0 9 0;
#X connect 3 0 9 0;
#X connect 4 0 9 0;
#X connect 5 0 9 0;
#X connect 6 0 9 0;
#X connect 7 0 9 0;
#X connect 8 0 9 0;
#X connect 9 0 16 0;
#X connect 9 0 18 0;
#X connect 11 0 1 0;
#X connect 12 0 2 0;
#X connect 12 1 3 0;
#X connect 12 2 4 0;
#X connect 12 3 5 0;
#X connect 12 4 6 0;
#X connect 12 5 7 0;
#X connect 12 6 8 0;
#X connect 13 0 14 0;
#X connect 14 0 0 0;
#X connect 15 0 22 0;
#X connect 18 0 17 0;
#X connect 19 0 20 0;
#X connect 20 0 9 0;
#X connect 21 0 20 1;
#X connect 22 0 19 0;
#X connect 22 1 9 0;
#X coords 0 -1 1 1 170 87 2 100 100;
#X restore 15 201 pd WINDOW-SIZE;
#X obj 828 300 cnv 20 400 600 empty empty NOTES 10 14 0 20 #faff00 #404040 0;
#X text 841 334 - TO AVOID ALIASING JUST SET A LOW-PASS FILTER OF 20[kHz] OR LOWER AT THE OUTPUT OF WAVETABLE SYNTHESIZER ---> PROBLEM SOLVED! - GOOD AND EASY!, f 51;
#N canvas 1920 0 1920 1009 SAMPLE 0;
#N canvas 0 50 450 250 (subpatch) 0;
#X array \$0-WAVE-SAMPLE 2048 float 2;
#A color 0;
#A width 2;
#X coords 0 1 2048 -1 1300 140 1;
#X restore 110 120 graph;
#X obj 109 120 cnv 5 1 140 \$0-CURSOR-1 \$0-i-CURSOR-1 empty 20 12 0 12 #ff0400 #404040 0;
#X obj 190 120 cnv 5 1 140 \$0-CURSOR-2 \$0-i-CURSOR-2 empty 20 12 0 12 #ff0400 #404040 0;
#N canvas 882 254 481 375 (subpatch) 0;
#X obj 103 102 bng 20 250 50 0 empty empty NORMALIZE 23 10 0 12 #00faff #000000 #000000;
#X obj 103 133 f \$0;
#X msg 103 156 \; \$1-WAVE-SAMPLE normalize;
#X connect 0 0 1 0;
#X connect 1 0 2 0;
#X coords 0 -1 1 1 95 24 2 100 100;
#X restore 732 262 pd;
#N canvas 66 32 1854 977 CURSOR 0;
#X obj 33 18 r \$0-FIRST;
#X obj 112 18 r \$0-LAST;
#X obj 255 94 /, f 10;
#X floatatom 255 119 7 0 0 1 SAMPLE-X-PIXEL - - 0;
#X obj 255 44 t b f, f 10;
#X obj 113 265 s \$0-i-CURSOR-2;
#X obj 33 240 s \$0-i-CURSOR-1;
#X floatatom 33 43 5 0 0 0 - - - 0;
#X floatatom 112 43 5 0 0 0 - - - 0;
#X obj 33 138 *;
#X obj 112 138 *;
#X msg 33 212 pos \$1 \$2;
#X msg 112 212 pos \$1 \$2;
#X obj 255 20 r \$0-SAMPLE-SIZE;
#X msg 769 20 get_pos;
#X obj 769 45 s \$0-i-CURSOR-1;
#X obj 770 70 r \$0-CURSOR-1;
#X obj 770 95 unpack f f;
#X floatatom 770 120 5 0 0 0 - - - 0;
#X floatatom 837 120 5 0 0 0 - - - 0;
#X obj 33 160 + 109;
#X obj 112 161 + 109;
#X obj 33 187 pack f 120;
#X obj 112 187 pack f 120;
#X msg 255 69 1300;
#X text 291 69 \$0-SAMPLE SIZE(X);
#X msg 261 268 pos \$1 \$2;
#X obj 261 243 pack f 120;
#X obj 261 194 *;
#X obj 261 291 s \$0-i-SAMPLE-PHASOR-1-CURSOR;
#X obj 261 169 r \$0-SAMPLE-PHASOR-1-CURSOR-POS;
#X msg 494 267 pos \$1 \$2;
#X obj 494 242 pack f 120;
#X obj 494 193 *;
#X msg 262 429 pos \$1 \$2;
#X obj 262 404 pack f 120;
#X obj 262 357 *;
#X msg 495 428 pos \$1 \$2;
#X obj 495 403 pack f 120;
#X obj 495 356 *;
#X obj 494 168 r \$0-SAMPLE-PHASOR-2-CURSOR-POS;
#X obj 494 290 s \$0-i-SAMPLE-PHASOR-2-CURSOR;
#X obj 262 332 r \$0-SAMPLE-PHASOR-3-CURSOR-POS;
#X obj 262 452 s \$0-i-SAMPLE-PHASOR-3-CURSOR;
#X obj 495 331 r \$0-SAMPLE-PHASOR-4-CURSOR-POS;
#X obj 495 451 s \$0-i-SAMPLE-PHASOR-4-CURSOR;
#X obj 262 380 + 109;
#X obj 261 218 + 109;
#X obj 494 217 + 109;
#X obj 495 379 + 109;
#X connect 0 0 7 0;
#X connect 1 0 8 0;
#X connect 2 0 3 0;
#X connect 3 0 9 1;
#X connect 3 0 10 1;
#X connect 3 0 28 1;
#X connect 3 0 33 1;
#X connect 3 0 36 1;
#X connect 3 0 39 1;
#X connect 4 0 24 0;
#X connect 4 1 2 1;
#X connect 7 0 9 0;
#X connect 8 0 10 0;
#X connect 9 0 20 0;
#X connect 10 0 21 0;
#X connect 11 0 6 0;
#X connect 12 0 5 0;
#X connect 13 0 4 0;
#X connect 14 0 15 0;
#X connect 16 0 17 0;
#X connect 17 0 18 0;
#X connect 17 1 19 0;
#X connect 20 0 22 0;
#X connect 21 0 23 0;
#X connect 22 0 11 0;
#X connect 23 0 12 0;
#X connect 24 0 2 0;
#X connect 26 0 29 0;
#X connect 27 0 26 0;
#X connect 28 0 47 0;
#X connect 30 0 28 0;
#X connect 31 0 41 0;
#X connect 32 0 31 0;
#X connect 33 0 48 0;
#X connect 34 0 43 0;
#X connect 35 0 34 0;
#X connect 36 0 46 0;
#X connect 37 0 45 0;
#X connect 38 0 37 0;
#X connect 39 0 49 0;
#X connect 40 0 33 0;
#X connect 42 0 36 0;
#X connect 44 0 39 0;
#X connect 46 0 35 0;
#X connect 47 0 27 0;
#X connect 48 0 32 0;
#X connect 49 0 38 0;
#X restore 110 343 pd CURSOR;
#N canvas 2294 297 423 357 PAN 0;
#X msg 187 196 range \$1 \$2;
#X obj 187 173 pack 0 127, f 11;
#X obj 63 65 int;
#X obj 63 90 s \$0-i-FIRST;
#X obj 187 220 s \$0-i-PAN;
#X obj 187 40 r \$0-SAMPLE-SIZE;
#X obj 187 123 -, f 7;
#X obj 201 65 r \$0-WINDOW-SIZE;
#X obj 201 90 t b f;
#X obj 187 148 t b f, f 11;
#X obj 63 41 r \$0-PAN;
#X connect 0 0 4 0;
#X connect 1 0 0 0;
#X connect 2 0 3 0;
#X connect 5 0 6 0;
#X connect 6 0 9 0;
#X connect 7 0 8 0;
#X connect 8 0 6 0;
#X connect 8 1 6 1;
#X connect 9 0 1 0;
#X connect 9 1 1 1;
#X connect 10 0 2 0;
#X restore 110 321 pd PAN;
#X obj 936 262 hsl 378 24 0 1920 0 0 \$0-PAN \$0-i-PAN PAN 200 13 0 14 #bbbbbb #ff0400 #000000 0 1;
#N canvas 498 156 912 516 CHOP-TO-FOCUS 0;
#X obj 437 187 f;
#X obj 455 161 r \$0-FIRST;
#X obj 519 188 r \$0-WINDOW-SIZE;
#X obj 103 102 bng 20 250 50 0 empty empty CHOP|FOCUS 23 10 0 12 #ff8300 #000000 #000000;
#X obj 227 214 f \$0;
#X obj 227 191 del 200;
#X obj 264 214 r \$0-WINDOW-SIZE;
#X obj 103 167 t b b b b, f 27;
#X obj 165 195 del 400;
#X obj 254 264 r \$0-WINDOW-SIZE;
#X msg 165 263 0;
#X obj 103 339 f;
#X obj 135 339 r \$0-WINDOW-SIZE;
#X obj 103 192 del 600;
#X obj 103 363 s \$0-SAMPLE-SIZE-CHOPPED;
#X text 286 364 NEW SAMPLE SIZE->GOES TO LOAD-SAMPLE MODULE;
#X obj 437 211 array get \$0-WAVE-SAMPLE;
#X obj 619 208 array size \$0-SAMPLE-BUFFER;
#X obj 437 260 array define \$0-SAMPLE-BUFFER;
#X f 55;
#X obj 437 235 array set \$0-SAMPLE-BUFFER 0;
#X obj 227 238 array size \$0-WAVE-SAMPLE;
#X obj 165 287 array get \$0-SAMPLE-BUFFER;
#X obj 165 311 array set \$0-WAVE-SAMPLE 0;
#X connect 0 0 16 0;
#X connect 1 0 0 1;
#X connect 2 0 16 1;
#X connect 2 0 17 0;
#X connect 3 0 7 0;
#X connect 4 0 20 0;
#X connect 5 0 4 0;
#X connect 6 0 4 1;
#X connect 7 0 13 0;
#X connect 7 1 8 0;
#X connect 7 2 0 0;
#X connect 7 2 5 0;
#X connect 8 0 10 0;
#X connect 9 0 21 1;
#X connect 10 0 21 0;
#X connect 11 0 14 0;
#X connect 12 0 11 1;
#X connect 13 0 11 0;
#X connect 16 0 19 0;
#X connect 21 0 22 0;
#X coords 0 -1 1 1 100 24 2 100 100;
#X restore 830 262 pd CHOP-TO-FOCUS;
#N canvas 1984 312 414 293 LOAD-INIT 0;
#X obj 60 50 r \$0-SAMPLE-LOADED;
#X obj 61 72 t b b;
#X obj 143 114 s \$0-RESEND-WS;
#X obj 144 92 bng 20 250 50 0 empty empty empty 0 -10 0 12 #fcfcfc #000000 #000000;
#X obj 62 118 s \$0-i-PAN;
#X msg 62 95 0, f 1;
#X connect 0 0 1 0;
#X connect 1 0 5 0;
#X connect 1 1 3 0;
#X connect 3 0 2 0;
#X connect 5 0 4 0;
#X restore 110 299 pd LOAD-INIT;
#N canvas 1906 -12 1920 1009 LOAD-SAMPLE 0;
#X obj 183 176 openpanel;
#X obj 183 252 soundfiler, f 33;
#X listbox 563 272 20 0 0 0 - - - 0;
#X obj 183 201 pack s \$0;
#X obj 185 103 bng 19 250 50 0 empty empty empty 0 -10 0 12 #fcfcfc #000000 #000000;
#X listbox 207 103 35 0 0 0 - \$0-i-SAMPLE-LOC \$0-SAMPLE-LOC 12;
#X text 101 103 LOAD SAMPLE;
#X obj 290 195 s \$0-i-SAMPLE-LOC;
#X msg 183 131 symbol /home/mobin/Documents/Sounds, f 29;
#X floatatom 465 103 8 0 0 1 SIZE - - 0;
#X obj 563 298 unpack f;
#X obj 563 325 s \$0-RECORDED-SR;
#X floatatom 563 103 6 0 0 1 SR - - 0;
#X obj 343 337 s \$0-SAMPLE-SIZE;
#X obj 183 372 bng 20 250 50 0 empty empty empty 0 -10 0 12 #fcfcfc #000000 #000000;
#X obj 183 397 s \$0-SAMPLE-LOADED;
#X floatatom 183 318 8 0 0 1 SAMPLE-SIZE - - 0;
#X obj 196 284 r \$0-SAMPLE-SIZE-CHOPPED;
#X floatatom 631 103 8 0 0 1 [ms] - - 0;
#N canvas 2703 327 450 300 CALCULATE-SLICE-LENGTH 0;
#X obj 29 88 /, f 7;
#X obj 43 40 t b f;
#X obj 159 20 r \$0-RECORDED-SR;
#X obj 29 64 f;
#X obj 29 113 * 1000;
#X obj 29 138 outlet;
#X obj 29 18 r \$0-SAMPLE-SIZE;
#X connect 0 0 4 0;
#X connect 1 0 3 0;
#X connect 1 1 0 1;
#X connect 2 0 1 0;
#X connect 3 0 0 0;
#X connect 4 0 5 0;
#X connect 6 0 3 0;
#X restore 631 75 pd CALCULATE-SLICE-LENGTH;
#X msg 183 228 read -resize \$1 \$2-WAVE-SAMPLE;
#X connect 0 0 3 0;
#X connect 0 0 7 0;
#X connect 1 0 16 0;
#X connect 1 1 2 0;
#X connect 2 0 10 0;
#X connect 3 0 20 0;
#X connect 4 0 8 0;
#X connect 8 0 0 0;
#X connect 10 0 11 0;
#X connect 10 0 12 0;
#X connect 14 0 15 0;
#X connect 16 0 9 0;
#X connect 16 0 13 0;
#X connect 16 0 14 0;
#X connect 17 0 16 0;
#X connect 19 0 18 0;
#X connect 20 0 1 0;
#X coords 0 -1 1 1 620 24 2 100 100;
#X restore 109 262 pd LOAD-SAMPLE;
#N canvas 498 156 787 516 CHOP-SAMPLE-DISK 0;
#X obj 103 102 bng 20 250 50 0 empty empty CHOP|DISK 23 10 0 12 #ff0400 #000000 #000000;
#X text 343 181 ASK FOR LOCATION FIRST;
#X coords 0 -1 1 1 91 24 2 100 100;
#X restore 1319 262 pd CHOP-SAMPLE-DISK;
#X obj 791 120 cnv 5 1 140 \$0-SAMPLE-PHASOR-1-CURSOR \$0-i-SAMPLE-PHASOR-1-CURSOR empty 20 12 0 12 #000000 #404040 0;
#X obj 1083 120 cnv 5 1 140 \$0-SAMPLE-PHASOR-2-CURSOR \$0-i-SAMPLE-PHASOR-2-CURSOR empty 20 12 0 12 #0456cb #404040 0;
#X obj 1408 120 cnv 5 1 140 \$0-SAMPLE-PHASOR-3-CURSOR \$0-i-SAMPLE-PHASOR-3-CURSOR empty 20 12 0 12 #0fa810 #404040 0;
#X obj 433 120 cnv 5 1 140 \$0-SAMPLE-PHASOR-4-CURSOR \$0-i-SAMPLE-PHASOR-4-CURSOR empty 20 12 0 12 #9babc6 #404040 0;
#X coords 0 -1 1 1 1320 190 2 100 100;
#X restore 15 7 pd SAMPLE;
#N canvas 1956 38 381 351 SAMPLE-LOC 0;
#X floatatom 104 104 10 0 0 1 FIRST-SAMPLE \$0-i-FIRST \$0-FIRST 0;
#X floatatom 104 127 10 0 0 1 UNTIL-SAMPLE \$0-i-LAST \$0-LAST 0;
#X obj 101 280 +, f 7;
#X obj 115 195 r \$0-WINDOW-SIZE;
#X obj 101 305 s \$0-i-LAST;
#X obj 101 168 r \$0-FIRST;
#X floatatom 101 253 5 0 0 0 - - - 0;
#X obj 115 220 t b f;
#X connect 2 0 4 0;
#X connect 3 0 7 0;
#X connect 5 0 6 0;
#X connect 6 0 2 0;
#X connect 7 0 6 0;
#X connect 7 1 2 1;
#X coords 0 -1 1 1 165 50 2 100 100;
#X restore 190 201 pd SAMPLE-LOC;
#X obj 1166 199 cnv 20 170 40 empty empty empty 20 12 0 12 #b30400 #404040 0;
#X text 1169 202 LOADED SAMPLES SHOULD BE OF 48000 SAMPLE RATE, f 23;
#X obj 362 202 cnv 20 400 120 empty empty empty 20 12 0 12 #e0e0e0 #404040 0;
#X text 377 206 THESE THREE SUBPATCHES WORK TOGETHER \, OUTPUTTING: \; - \$0-FIRST \; - \$0-LAST \; - \$0-WINDOW-SIZE \; - \$0-RECORDED-SR \; TO BE USED FOR PLAYING THE SAMPLE \; -----> WHEN DONE SAVE THEM AS A SEPARATE BASIS PATCH \;;
#X obj 22 910 output~;
#X floatatom 22 605 6 0 0 1 MIDI - - 0;
#X floatatom 106 605 7 0 0 1 FREQUENCY - - 0;
#X text 845 592 CHOP TO DISK FROM \$0-WAVE-SAMPLE FOR LONGER SAMPLES AND \$0-WAVETABLE FOR SHORTER(POW OF 2 ONES) == CATEGORIZE IN THE DISK (WAVE - LONG WAVE - SAMPLE) - APPEND OR PREPEND SIZE, f 52;
#X floatatom 243 604 6 0 0 1 MIDI - - 0;
#X floatatom 327 604 7 0 0 1 FREQUENCY - - 0;
#N canvas 66 32 1854 977 WAVE-SAMPLE-PLAYER 0;
#X obj 17 170 mtof;
#X obj 109 412 *~, f 11;
#N canvas 355 129 839 536 OSCILLATOR 0;
#X obj 286 31 inlet;
#X obj 358 31 inlet;
#N canvas 297 118 926 439 OSCILLATOR-PHASE-0 0;
#X obj 246 158 phasor~;
#X obj 246 243 *~ \$1;
#X obj 229 353 *~;
#X floatatom 364 224 7 0 0 1 - - - 0;
#X floatatom 246 79 8 0 0 1 - - - 0;
#X obj 246 49 inlet;
#X obj 364 49 inlet;
#X obj 246 103 t f b;
#X msg 278 131 0, f 2;
#X obj 246 208 wrap~;
#X obj 246 183 +~ 0;
#X obj 229 378 outlet~;
#X obj 19 227 *~ 997;
#X obj 19 252 +~ 1;
#X floatatom 584 263 7 0 0 0 - - - 0;
#X obj 246 282 +~;
#X obj 584 49 inlet;
#X text 244 28 FREQUENCY[Hz];
#X text 361 28 PHASOR RANGE (WINDOW-SIZE-3);
#X text 581 29 FIRST SAMPLE;
#X text 27 275 ENVELOPE OF LENGHT 1000;
#X obj 19 334 tabread~ \$0-SAMPLE-ENVELOPE;
#X obj 246 309 tabread4~ \$0-WAVE-SAMPLE;
#X obj 578 303 snapshot~;
#X obj 650 303 metro 10;
#X obj 578 327 s \$0-SAMPLE-PHASOR-1-CURSOR-POS;
#X obj 650 279 tgl 20 0 empty \$0-SAMPLE-PHASOR-1-CURSOR-ON empty 0 -10 0 12 #fcfcfc #000000 #000000 0 1;
#X connect 0 0 10 0;
#X connect 1 0 15 0;
#X connect 2 0 11 0;
#X connect 3 0 1 1;
#X connect 4 0 7 0;
#X connect 5 0 4 0;
#X connect 6 0 3 0;
#X connect 7 0 0 0;
#X connect 7 1 8 0;
#X connect 8 0 0 1;
#X connect 9 0 1 0;
#X connect 9 0 12 0;
#X connect 10 0 9 0;
#X connect 12 0 13 0;
#X connect 13 0 21 0;
#X connect 14 0 15 1;
#X connect 15 0 22 0;
#X connect 15 0 23 0;
#X connect 16 0 14 0;
#X connect 21 0 2 0;
#X connect 22 0 2 1;
#X connect 23 0 25 0;
#X connect 24 0 23 0;
#X connect 26 0 24 0;
#X restore 286 119 pd OSCILLATOR-PHASE-0;
#X obj 430 30 inlet;
#X obj 286 298 +~, f 5;
#X obj 131 121 tgl 20 0 empty empty 4 7 10 0 12 #faff00 #000000 #000000 0 1;
#X obj 286 258 *~;
#X obj 105 121 tgl 20 0 empty empty 1 7 10 0 12 #faff00 #000000 #000000 0 1;
#X obj 318 258 *~;
#X obj 353 258 *~;
#X obj 389 258 *~;
#X msg 105 148 0, f 2;
#X text 509 25 INLET-1: FREQUENCY[Hz] \; INLET-2: PHASOR RANGE(WINDOW-SIZE-3) \; INLET-3: FIRST SAMPLE \;;
#X text 102 100 OSCILLATORS;
#N canvas 459 271 884 439 OSCILLATOR-PHASE-0.25 0;
#X obj 246 158 phasor~;
#X obj 246 243 *~ \$1;
#X obj 229 353 *~;
#X floatatom 364 224 7 0 0 1 - - - 0;
#X floatatom 246 79 8 0 0 1 - - - 0;
#X obj 246 49 inlet;
#X obj 364 49 inlet;
#X obj 246 103 t f b;
#X msg 278 131 0, f 2;
#X obj 246 208 wrap~;
#X obj 229 378 outlet~;
#X obj 19 227 *~ 997;
#X obj 19 252 +~ 1;
#X floatatom 584 263 7 0 0 0 - - - 0;
#X obj 246 282 +~;
#X obj 584 49 inlet;
#X text 244 28 FREQUENCY[Hz];
#X text 361 28 PHASOR RANGE (WINDOW-SIZE-3);
#X text 581 29 FIRST SAMPLE;
#X text 27 275 ENVELOPE OF LENGHT 1000;
#X obj 246 183 +~ 0.25;
#X obj 19 334 tabread~ \$0-SAMPLE-ENVELOPE;
#X obj 246 309 tabread4~ \$0-WAVE-SAMPLE;
#X obj 578 303 snapshot~;
#X obj 650 303 metro 10;
#X obj 650 279 tgl 20 0 empty \$0-SAMPLE-PHASOR-2-CURSOR-ON empty 0 -10 0 12 #fcfcfc #000000 #000000 0 1;
#X obj 578 327 s \$0-SAMPLE-PHASOR-2-CURSOR-POS;
#X connect 0 0 20 0;
#X connect 1 0 14 0;
#X connect 2 0 10 0;
#X connect 3 0 1 1;
#X connect 4 0 7 0;
#X connect 5 0 4 0;
#X connect 6 0 3 0;
#X connect 7 0 0 0;
#X connect 7 1 8 0;
#X connect 8 0 0 1;
#X connect 9 0 1 0;
#X connect 9 0 11 0;
#X connect 11 0 12 0;
#X connect 12 0 21 0;
#X connect 13 0 14 1;
#X connect 14 0 22 0;
#X connect 14 0 23 0;
#X connect 15 0 13 0;
#X connect 20 0 9 0;
#X connect 21 0 2 0;
#X connect 22 0 2 1;
#X connect 23 0 26 0;
#X connect 24 0 23 0;
#X connect 25 0 24 0;
#X restore 318 143 pd OSCILLATOR-PHASE-0.25;
#N canvas 297 118 853 439 OSCILLATOR-PHASE-0.5 0;
#X obj 246 158 phasor~;
#X obj 246 243 *~ \$1;
#X obj 229 353 *~;
#X floatatom 364 224 7 0 0 1 - - - 0;
#X floatatom 246 79 8 0 0 1 - - - 0;
#X obj 246 49 inlet;
#X obj 364 49 inlet;
#X obj 246 103 t f b;
#X msg 278 131 0, f 2;
#X obj 246 208 wrap~;
#X obj 229 378 outlet~;
#X obj 19 227 *~ 997;
#X obj 19 252 +~ 1;
#X floatatom 584 263 7 0 0 0 - - - 0;
#X obj 246 282 +~;
#X obj 584 49 inlet;
#X text 244 28 FREQUENCY[Hz];
#X text 361 28 PHASOR RANGE (WINDOW-SIZE-3);
#X text 581 29 FIRST SAMPLE;
#X text 27 275 ENVELOPE OF LENGHT 1000;
#X obj 246 183 +~ 0.5;
#X obj 19 334 tabread~ \$0-SAMPLE-ENVELOPE;
#X obj 246 309 tabread4~ \$0-WAVE-SAMPLE;
#X obj 578 303 snapshot~;
#X obj 650 303 metro 10;
#X obj 650 279 tgl 20 0 empty \$0-SAMPLE-PHASOR-3-CURSOR-ON empty 0 -10 0 12 #fcfcfc #000000 #000000 0 1;
#X obj 578 327 s \$0-SAMPLE-PHASOR-3-CURSOR-POS;
#X connect 0 0 20 0;
#X connect 1 0 14 0;
#X connect 2 0 10 0;
#X connect 3 0 1 1;
#X connect 4 0 7 0;
#X connect 5 0 4 0;
#X connect 6 0 3 0;
#X connect 7 0 0 0;
#X connect 7 1 8 0;
#X connect 8 0 0 1;
#X connect 9 0 1 0;
#X connect 9 0 11 0;
#X connect 11 0 12 0;
#X connect 12 0 21 0;
#X connect 13 0 14 1;
#X connect 14 0 22 0;
#X connect 14 0 23 0;
#X connect 15 0 13 0;
#X connect 20 0 9 0;
#X connect 21 0 2 0;
#X connect 22 0 2 1;
#X connect 23 0 26 0;
#X connect 24 0 23 0;
#X connect 25 0 24 0;
#X restore 353 167 pd OSCILLATOR-PHASE-0.5;
#N canvas 297 118 854 439 OSCILLATOR-PHASE-0.75 0;
#X obj 246 158 phasor~;
#X obj 246 243 *~ \$1;
#X obj 229 353 *~;
#X floatatom 364 224 7 0 0 1 - - - 0;
#X floatatom 246 79 8 0 0 1 - - - 0;
#X obj 246 49 inlet;
#X obj 364 49 inlet;
#X obj 246 103 t f b;
#X msg 278 131 0, f 2;
#X obj 246 208 wrap~;
#X obj 229 378 outlet~;
#X obj 19 227 *~ 997;
#X obj 19 252 +~ 1;
#X floatatom 584 263 7 0 0 0 - - - 0;
#X obj 246 282 +~;
#X obj 584 49 inlet;
#X text 244 28 FREQUENCY[Hz];
#X text 361 28 PHASOR RANGE (WINDOW-SIZE-3);
#X text 581 29 FIRST SAMPLE;
#X text 27 275 ENVELOPE OF LENGHT 1000;
#X obj 19 334 tabread~ \$0-SAMPLE-ENVELOPE;
#X obj 246 309 tabread4~ \$0-WAVE-SAMPLE;
#X obj 578 303 snapshot~;
#X obj 650 303 metro 10;
#X obj 650 279 tgl 20 0 empty \$0-SAMPLE-PHASOR-4-CURSOR-ON empty 0 -10 0 12 #fcfcfc #000000 #000000 0 1;
#X obj 578 327 s \$0-SAMPLE-PHASOR-4-CURSOR-POS;
#X obj 246 183 +~ 0.75;
#X connect 0 0 26 0;
#X connect 1 0 14 0;
#X connect 2 0 10 0;
#X connect 3 0 1 1;
#X connect 4 0 7 0;
#X connect 5 0 4 0;
#X connect 6 0 3 0;
#X connect 7 0 0 0;
#X connect 7 1 8 0;
#X connect 8 0 0 1;
#X connect 9 0 1 0;
#X connect 9 0 11 0;
#X connect 11 0 12 0;
#X connect 12 0 20 0;
#X connect 13 0 14 1;
#X connect 14 0 21 0;
#X connect 14 0 22 0;
#X connect 15 0 13 0;
#X connect 20 0 2 0;
#X connect 21 0 2 1;
#X connect 22 0 25 0;
#X connect 23 0 22 0;
#X connect 24 0 23 0;
#X connect 26 0 9 0;
#X restore 389 192 pd OSCILLATOR-PHASE-0.75;
#X obj 286 330 outlet~;
#N canvas 846 198 607 300 PLAYBACK-CURSOR 0;
#X obj 46 163 s \$0-SAMPLE-PHASOR-1-CURSOR-ON;
#X msg 46 136 1;
#X obj 271 163 s \$0-SAMPLE-PHASOR-2-CURSOR-ON;
#X obj 306 187 s \$0-SAMPLE-PHASOR-3-CURSOR-ON;
#X obj 330 212 s \$0-SAMPLE-PHASOR-4-CURSOR-ON;
#X msg 271 111 0;
#X obj 271 86 sel 0 1, f 11;
#X msg 308 111 1;
#X obj 46 40 inlet;
#X obj 271 45 inlet;
#X obj 46 111 sel 1 0, f 13;
#X msg 90 136 0;
#X connect 1 0 0 0;
#X connect 5 0 2 0;
#X connect 5 0 3 0;
#X connect 5 0 4 0;
#X connect 6 0 5 0;
#X connect 6 1 7 0;
#X connect 7 0 2 0;
#X connect 7 0 3 0;
#X connect 7 0 4 0;
#X connect 8 0 10 0;
#X connect 9 0 6 0;
#X connect 10 0 1 0;
#X connect 10 1 11 0;
#X connect 11 0 0 0;
#X restore 8 219 pd PLAYBACK-CURSOR;
#X connect 0 0 2 0;
#X connect 0 0 14 0;
#X connect 0 0 15 0;
#X connect 0 0 16 0;
#X connect 1 0 2 1;
#X connect 1 0 14 1;
#X connect 1 0 15 1;
#X connect 1 0 16 1;
#X connect 2 0 6 0;
#X connect 3 0 2 2;
#X connect 3 0 14 2;
#X connect 3 0 15 2;
#X connect 3 0 16 2;
#X connect 4 0 17 0;
#X connect 5 0 10 1;
#X connect 5 0 9 1;
#X connect 5 0 8 1;
#X connect 5 0 18 1;
#X connect 6 0 4 0;
#X connect 7 0 6 1;
#X connect 7 0 11 0;
#X connect 7 0 18 0;
#X connect 8 0 4 1;
#X connect 9 0 4 1;
#X connect 10 0 4 1;
#X connect 11 0 5 0;
#X connect 14 0 8 0;
#X connect 15 0 9 0;
#X connect 16 0 10 0;
#X coords 0 -1 1 1 85 45 2 100 100;
#X restore 110 212 pd OSCILLATOR;
#X f 24;
#X obj 373 256 line~;
#X obj 202 212 bng 20 250 50 0 empty empty PLAY 23 10 0 12 #ffc7c6 #000000 #202020;
#X msg 421 259 0 500;
#X obj 373 355 *~;
#X obj 202 236 tgl 20 0 empty empty ON 23 10 0 12 #ffc7c6 #000000 #000000 0 1;
#X obj 183 374 +~;
#X msg 329 232 0, f 2;
#X obj 306 192 r \$0-FIRST;
#X obj 416 191 r \$0-WINDOW-SIZE;
#X obj 386 192 - 3;
#X floatatom 110 151 10 0 0 1 MIDI - - 0;
#X floatatom 110 176 10 0 0 1 FREQUENCY[Hz] - - 0;
#X obj 16 195 ftom;
#X msg 16 219 set \$1;
#X text 107 192 --------------------------;
#X obj 110 32 inlet;
#X obj 161 32 inlet;
#X obj 109 437 outlet~;
#N canvas 52 20 1854 977 (subpatch) 0;
#X array \$0-SAMPLE-ENVELOPE 1000 float 2;
#A color 0;
#A width 2;
#X coords 0 1 1000 0 200 80 1 0 0;
#X restore 618 44 graph;
#X text 106 255 --------------------------;
#X text 108 15 MIDI;
#X text 159 15 FREQUENCY;
#X obj 327 156 /, f 7;
#X obj 341 106 t b f;
#X obj 327 130 f;
#X obj 341 83 r \$0-WINDOW-SIZE;
#X obj 327 61 r \$0-RECORDED-SR;
#X text 383 156 ORIGNIAL LOADED FREQUENCY;
#X obj 110 273 bng 20 250 50 0 empty empty CONST-1 23 10 0 12 #fcfcfc #000000 #000000;
#X obj 189 273 bng 20 250 50 0 empty empty HANN 23 10 0 12 #fcfcfc #000000 #000000;
#X obj 246 273 bng 20 250 50 0 empty empty COS 23 10 0 12 #fcfcfc #000000 #000000;
#X msg 16 293 1, f 1;
#X msg 40 293 2, f 1;
#X msg 64 293 3, f 1;
#X obj 16 473 s \$0-SAMPLE-ENVELOPE-SELECT;
#X msg 373 232 1 100;
#X obj 421 232 del 300;
#X obj 109 353 *~, f 6;
#X obj 113 306 hsl 175 20 0 1 0 0 empty empty NORMALIZATION 45 10 0 12 #fcfcfc #000000 #000000 0 1;
#X text 106 289 --------------------------;
#X obj 307 261 loadbang;
#X msg 307 286 0.5;
#X obj 618 131 r \$0-SAMPLE-ENVELOPE-SELECT;
#X obj 618 155 sel 1 2 3;
#N canvas 840 129 946 482 LINEAR-SHARP 0;
#X obj 26 14 inlet;
#X text 459 21 --------------------;
#X obj 26 235 until;
#X obj 26 259 i, f 7;
#X obj 82 259 + 1;
#X msg 73 235 0;
#X obj 26 333 expr $f1/$f2;
#X text 461 39 TOTAL-LENGTH = 1000 POINTS: (0 - 999) \; ATTACK LENGHT = 10 POINTS : (0 - 9) \; RELEASE LENGHT = 10 POINTS : (990 - 999) \;, f 44;
#X obj 26 211 t f b f, f 16;
#X obj 135 313 - 1;
#X obj 26 358 tabwrite \$0-ENVELOPE;
#X obj 26 286 t f f;
#X msg 26 184 10;
#X obj 415 253 until;
#X obj 415 277 i, f 7;
#X obj 471 277 + 1;
#X msg 460 253 0;
#X obj 538 372 - 1;
#X obj 415 373 t f f;
#X obj 415 320 +;
#X msg 552 257 1000;
#X obj 552 279 -, f 6;
#X floatatom 552 301 5 0 0 0 - - - 0;
#X obj 415 211 t f b f f, f 20;
#X obj 552 235 t b f, f 6;
#X floatatom 415 346 5 0 0 1 990-999 - - 0;
#X floatatom 26 312 5 0 0 1 0-9 - - 0;
#X obj 415 423 tabwrite \$0-ENVELOPE;
#X obj 415 398 expr (999-$f1)/$f2;
#X msg 415 184 10;
#X msg 220 186 980;
#X obj 220 237 until;
#X obj 220 261 i, f 7;
#X obj 277 261 + 1;
#X msg 266 237 0;
#X obj 220 211 t f b, f 7;
#X obj 220 289 + 10;
#X obj 220 364 tabwrite \$0-ENVELOPE;
#X obj 220 315 t b f;
#X msg 220 340 1;
#X obj 26 44 t b b b, f 56;
#X obj 220 85 del 20;
#X obj 26 81 del 40;
#X text 459 9 TRAPEZOIDAL ENVELOPE;
#X text 57 184 ATTACK LEN (1);
#X text 251 187 SUSTAIN LEN (2);
#X text 446 184 RELEASE LEN (3);
#X text 257 289 ATTACK LEN (4);
#X text 456 99 4 PARAMETERS (1-4) SHOULD BE CHANGED TO CHANGE THE ENVELOPE ATTACK AND DELAY LENGTH CORRECTLY, f 38;
#X connect 0 0 40 0;
#X connect 2 0 3 0;
#X connect 3 0 4 0;
#X connect 3 0 11 0;
#X connect 4 0 3 1;
#X connect 5 0 3 1;
#X connect 6 0 10 0;
#X connect 8 0 2 0;
#X connect 8 1 5 0;
#X connect 8 2 9 0;
#X connect 9 0 6 1;
#X connect 11 0 26 0;
#X connect 11 1 10 1;
#X connect 12 0 8 0;
#X connect 13 0 14 0;
#X connect 14 0 15 0;
#X connect 14 0 19 0;
#X connect 15 0 14 1;
#X connect 16 0 14 1;
#X connect 17 0 28 1;
#X connect 18 0 28 0;
#X connect 18 1 27 1;
#X connect 19 0 25 0;
#X connect 20 0 21 0;
#X connect 21 0 22 0;
#X connect 22 0 19 1;
#X connect 23 0 13 0;
#X connect 23 1 16 0;
#X connect 23 2 17 0;
#X connect 23 3 24 0;
#X connect 24 0 20 0;
#X connect 24 1 21 1;
#X connect 25 0 18 0;
#X connect 26 0 6 0;
#X connect 28 0 27 0;
#X connect 29 0 23 0;
#X connect 30 0 35 0;
#X connect 31 0 32 0;
#X connect 32 0 33 0;
#X connect 32 0 36 0;
#X connect 33 0 32 1;
#X connect 34 0 32 1;
#X connect 35 0 31 0;
#X connect 35 1 34 0;
#X connect 36 0 38 0;
#X connect 38 0 39 0;
#X connect 38 1 37 1;
#X connect 39 0 37 0;
#X connect 40 0 42 0;
#X connect 40 1 41 0;
#X connect 40 2 29 0;
#X connect 41 0 30 0;
#X connect 42 0 12 0;
#X restore 723 344 pd LINEAR-SHARP;
#N canvas 297 118 806 484 LINEAR-SLOW 0;
#X obj 23 32 inlet;
#X text 456 39 --------------------;
#X obj 23 253 until;
#X obj 23 277 i, f 7;
#X obj 79 277 + 1;
#X msg 70 253 0;
#X obj 23 351 expr $f1/$f2;
#X obj 23 229 t f b f, f 16;
#X obj 132 331 - 1;
#X obj 23 376 tabwrite \$0-ENVELOPE;
#X obj 23 304 t f f;
#X obj 412 271 until;
#X obj 412 295 i, f 7;
#X obj 468 295 + 1;
#X msg 457 271 0;
#X obj 535 390 - 1;
#X obj 412 391 t f f;
#X obj 412 338 +;
#X msg 549 275 1000;
#X obj 549 297 -, f 6;
#X floatatom 549 319 5 0 0 0 - - - 0;
#X obj 412 229 t f b f f, f 20;
#X obj 549 253 t b f, f 6;
#X floatatom 412 364 5 0 0 1 970-999 - - 0;
#X floatatom 23 330 5 0 0 1 0-29 - - 0;
#X obj 412 441 tabwrite \$0-ENVELOPE;
#X obj 412 416 expr (999-$f1)/$f2;
#X obj 217 255 until;
#X obj 217 279 i, f 7;
#X obj 274 279 + 1;
#X msg 263 255 0;
#X obj 217 229 t f b, f 7;
#X obj 217 377 tabwrite \$0-ENVELOPE;
#X obj 217 331 t b f;
#X msg 217 354 1;
#X obj 23 62 t b b b, f 56;
#X obj 217 103 del 20;
#X obj 23 98 del 40;
#X text 456 27 TRAPEZOIDAL ENVELOPE;
#X msg 23 202 30;
#X msg 412 202 30;
#X msg 217 204 940;
#X obj 217 305 + 30;
#X text 458 57 TOTAL-LENGTH = 1000 POINTS: (0 - 999) \; ATTACK LENGHT = 10 POINTS : (0 - 29) \; RELEASE LENGHT = 10 POINTS : (970 - 999) \;, f 44;
#X text 457 113 4 PARAMETERS (1-4) SHOULD BE CHANGED TO CHANGE THE ENVELOPE ATTACK AND DELAY LENGTH CORRECTLY, f 38;
#X text 54 202 ATTACK LEN (1);
#X text 248 205 SUSTAIN LEN (2);
#X text 443 202 RELEASE LEN (3);
#X text 254 305 ATTACK LEN (4);
#X connect 0 0 35 0;
#X connect 2 0 3 0;
#X connect 3 0 4 0;
#X connect 3 0 10 0;
#X connect 4 0 3 1;
#X connect 5 0 3 1;
#X connect 6 0 9 0;
#X connect 7 0 2 0;
#X connect 7 1 5 0;
#X connect 7 2 8 0;
#X connect 8 0 6 1;
#X connect 10 0 24 0;
#X connect 10 1 9 1;
#X connect 11 0 12 0;
#X connect 12 0 13 0;
#X connect 12 0 17 0;
#X connect 13 0 12 1;
#X connect 14 0 12 1;
#X connect 15 0 26 1;
#X connect 16 0 26 0;
#X connect 16 1 25 1;
#X connect 17 0 23 0;
#X connect 18 0 19 0;
#X connect 19 0 20 0;
#X connect 20 0 17 1;
#X connect 21 0 11 0;
#X connect 21 1 14 0;
#X connect 21 2 15 0;
#X connect 21 3 22 0;
#X connect 22 0 18 0;
#X connect 22 1 19 1;
#X connect 23 0 16 0;
#X connect 24 0 6 0;
#X connect 26 0 25 0;
#X connect 27 0 28 0;
#X connect 28 0 29 0;
#X connect 28 0 42 0;
#X connect 29 0 28 1;
#X connect 30 0 28 1;
#X connect 31 0 27 0;
#X connect 31 1 30 0;
#X connect 33 0 34 0;
#X connect 33 1 32 1;
#X connect 34 0 32 0;
#X connect 35 0 37 0;
#X connect 35 1 36 0;
#X connect 35 2 40 0;
#X connect 36 0 41 0;
#X connect 37 0 39 0;
#X connect 39 0 7 0;
#X connect 40 0 21 0;
#X connect 41 0 31 0;
#X connect 42 0 33 0;
#X restore 739 320 pd LINEAR-SLOW;
#N canvas 2173 170 777 489 LINEAR-SLOWER 0;
#X obj 23 32 inlet;
#X text 456 39 --------------------;
#X obj 23 253 until;
#X obj 23 277 i, f 7;
#X obj 79 277 + 1;
#X msg 70 253 0;
#X obj 23 351 expr $f1/$f2;
#X obj 23 229 t f b f, f 16;
#X obj 132 331 - 1;
#X obj 23 376 tabwrite \$0-ENVELOPE;
#X obj 23 304 t f f;
#X obj 412 271 until;
#X obj 412 295 i, f 7;
#X obj 468 295 + 1;
#X msg 457 271 0;
#X obj 535 390 - 1;
#X obj 412 391 t f f;
#X obj 412 338 +;
#X msg 549 275 1000;
#X obj 549 297 -, f 6;
#X floatatom 549 319 5 0 0 0 - - - 0;
#X obj 412 229 t f b f f, f 20;
#X obj 549 253 t b f, f 6;
#X floatatom 412 364 5 0 0 1 920-999 - - 0;
#X floatatom 23 330 5 0 0 1 0-79 - - 0;
#X obj 412 441 tabwrite \$0-ENVELOPE;
#X obj 412 416 expr (999-$f1)/$f2;
#X obj 217 255 until;
#X obj 217 279 i, f 7;
#X obj 274 279 + 1;
#X msg 263 255 0;
#X obj 217 229 t f b, f 7;
#X obj 217 377 tabwrite \$0-ENVELOPE;
#X obj 217 331 t b f;
#X msg 217 354 1;
#X obj 23 62 t b b b, f 56;
#X obj 217 103 del 20;
#X obj 23 98 del 40;
#X text 456 27 TRAPEZOIDAL ENVELOPE;
#X text 458 57 TOTAL-LENGTH = 1000 POINTS: (0 - 999) \; ATTACK LENGHT = 10 POINTS : (0 - 79) \; RELEASE LENGHT = 10 POINTS : (920 - 999) \;, f 44;
#X obj 217 305 + 80;
#X msg 23 202 80;
#X msg 412 202 80;
#X msg 217 204 840;
#X text 456 110 4 PARAMETERS (1-4) SHOULD BE CHANGED TO CHANGE THE ENVELOPE ATTACK AND DELAY LENGTH CORRECTLY, f 38;
#X text 54 202 ATTACK LEN (1);
#X text 248 205 SUSTAIN LEN (2);
#X text 443 202 RELEASE LEN (3);
#X text 254 305 ATTACK LEN (4);
#X connect 0 0 35 0;
#X connect 2 0 3 0;
#X connect 3 0 4 0;
#X connect 3 0 10 0;
#X connect 4 0 3 1;
#X connect 5 0 3 1;
#X connect 6 0 9 0;
#X connect 7 0 2 0;
#X connect 7 1 5 0;
#X connect 7 2 8 0;
#X connect 8 0 6 1;
#X connect 10 0 24 0;
#X connect 10 1 9 1;
#X connect 11 0 12 0;
#X connect 12 0 13 0;
#X connect 12 0 17 0;
#X connect 13 0 12 1;
#X connect 14 0 12 1;
#X connect 15 0 26 1;
#X connect 16 0 26 0;
#X connect 16 1 25 1;
#X connect 17 0 23 0;
#X connect 18 0 19 0;
#X connect 19 0 20 0;
#X connect 20 0 17 1;
#X connect 21 0 11 0;
#X connect 21 1 14 0;
#X connect 21 2 15 0;
#X connect 21 3 22 0;
#X connect 22 0 18 0;
#X connect 22 1 19 1;
#X connect 23 0 16 0;
#X connect 24 0 6 0;
#X connect 26 0 25 0;
#X connect 27 0 28 0;
#X connect 28 0 29 0;
#X connect 28 0 40 0;
#X connect 29 0 28 1;
#X connect 30 0 28 1;
#X connect 31 0 27 0;
#X connect 31 1 30 0;
#X connect 33 0 34 0;
#X connect 33 1 32 1;
#X connect 34 0 32 0;
#X connect 35 0 37 0;
#X connect 35 1 36 0;
#X connect 35 2 42 0;
#X connect 36 0 43 0;
#X connect 37 0 41 0;
#X connect 40 0 33 0;
#X connect 41 0 7 0;
#X connect 42 0 21 0;
#X connect 43 0 31 0;
#X restore 755 295 pd LINEAR-SLOWER;
#N canvas 678 256 933 485 ROUNDED-SLOWER 0;
#X obj 23 32 inlet;
#X obj 23 253 until;
#X obj 23 277 i, f 7;
#X obj 80 277 + 1;
#X msg 71 253 0;
#X obj 23 229 t f b f, f 15;
#X obj 244 330 - 1;
#X obj 23 379 tabwrite \$0-ENVELOPE;
#X obj 23 304 t f f;
#X obj 587 207 until;
#X obj 587 231 i, f 7;
#X obj 643 231 + 1;
#X msg 632 207 0;
#X obj 710 326 - 1;
#X obj 587 327 t f f;
#X obj 587 274 +;
#X msg 724 211 1000;
#X obj 724 233 -, f 6;
#X floatatom 724 255 5 0 0 0 - - - 0;
#X obj 587 165 t f b f f, f 20;
#X obj 724 189 t b f, f 6;
#X floatatom 587 300 5 0 0 1 920-999 - - 0;
#X floatatom 23 330 5 0 0 1 0-59 - - 0;
#X obj 587 381 tabwrite \$0-ENVELOPE;
#X obj 305 236 until;
#X obj 305 260 i, f 7;
#X obj 362 260 + 1;
#X msg 351 236 0;
#X obj 305 210 t f b, f 7;
#X obj 305 380 tabwrite \$0-ENVELOPE;
#X obj 305 334 t b f;
#X msg 305 357 1;
#X obj 305 87 del 20;
#X obj 23 86 del 40;
#X obj 305 286 + 80;
#X msg 587 138 80;
#X msg 305 180 840;
#X text 54 202 ATTACK LEN (1);
#X text 336 181 SUSTAIN LEN (2);
#X text 618 138 RELEASE LEN (3);
#X text 342 286 ATTACK LEN (4);
#X floatatom 305 310 5 0 0 0 - - - 0;
#X obj 23 356 expr sin((acos(-1))*$f1/(2*$f2));
#X obj 23 62 t b b b, f 81;
#X obj 587 356 expr sin((acos(-1))*(999-$f1)/(2*$f2));
#X text 583 407 f(n) = sin(((pi/2)*(999-n)/(RELEASE-LEN -1)));
#X msg 23 202 80;
#X text 19 407 f(n) = sin((pi/2)*(n/ATTACK-LEN - 1));
#X text 304 406 f(n) = 1;
#X text 118 19 TRAPEZOIDAL ENVELOPE WITH ROUND CORNERS: USING SIN FUNCTION;
#X text 118 31 -----------------------------------------------------------;
#X text 19 446 ** pi == acos(-1);
#X text 628 43 4 PARAMETERS (1-4) SHOULD BE CHANGED TO CHANGE THE ENVELOPE ATTACK AND DELAY LENGTH CORRECTLY, f 38;
#X connect 0 0 43 0;
#X connect 1 0 2 0;
#X connect 2 0 3 0;
#X connect 2 0 8 0;
#X connect 3 0 2 1;
#X connect 4 0 2 1;
#X connect 5 0 1 0;
#X connect 5 1 4 0;
#X connect 5 2 6 0;
#X connect 6 0 42 1;
#X connect 8 0 22 0;
#X connect 8 1 7 1;
#X connect 9 0 10 0;
#X connect 10 0 11 0;
#X connect 10 0 15 0;
#X connect 11 0 10 1;
#X connect 12 0 10 1;
#X connect 13 0 44 1;
#X connect 14 0 44 0;
#X connect 14 1 23 1;
#X connect 15 0 21 0;
#X connect 16 0 17 0;
#X connect 17 0 18 0;
#X connect 18 0 15 1;
#X connect 19 0 9 0;
#X connect 19 1 12 0;
#X connect 19 2 13 0;
#X connect 19 3 20 0;
#X connect 20 0 16 0;
#X connect 20 1 17 1;
#X connect 21 0 14 0;
#X connect 22 0 42 0;
#X connect 24 0 25 0;
#X connect 25 0 26 0;
#X connect 25 0 34 0;
#X connect 26 0 25 1;
#X connect 27 0 25 1;
#X connect 28 0 24 0;
#X connect 28 1 27 0;
#X connect 30 0 31 0;
#X connect 30 1 29 1;
#X connect 31 0 29 0;
#X connect 32 0 36 0;
#X connect 33 0 46 0;
#X connect 34 0 41 0;
#X connect 35 0 19 0;
#X connect 36 0 28 0;
#X connect 41 0 30 0;
#X connect 42 0 7 0;
#X connect 43 0 33 0;
#X connect 43 1 32 0;
#X connect 43 2 35 0;
#X connect 44 0 23 0;
#X connect 46 0 5 0;
#X restore 771 271 pd ROUNDED-SLOWER;
#N canvas 2075 359 933 485 ROUNDED-EVEN-SLOWER 0;
#X obj 23 32 inlet;
#X obj 23 253 until;
#X obj 23 277 i, f 7;
#X obj 80 277 + 1;
#X msg 71 253 0;
#X obj 23 229 t f b f, f 15;
#X obj 244 330 - 1;
#X obj 23 379 tabwrite \$0-ENVELOPE;
#X obj 23 304 t f f;
#X obj 587 207 until;
#X obj 587 231 i, f 7;
#X obj 643 231 + 1;
#X msg 632 207 0;
#X obj 710 326 - 1;
#X obj 587 327 t f f;
#X obj 587 274 +;
#X msg 724 211 1000;
#X obj 724 233 -, f 6;
#X floatatom 724 255 5 0 0 0 - - - 0;
#X obj 587 165 t f b f f, f 20;
#X obj 724 189 t b f, f 6;
#X floatatom 587 300 5 0 0 1 880-999 - - 0;
#X floatatom 23 330 5 0 0 1 0-119 - - 0;
#X obj 587 381 tabwrite \$0-ENVELOPE;
#X obj 305 236 until;
#X obj 305 260 i, f 7;
#X obj 362 260 + 1;
#X msg 351 236 0;
#X obj 305 210 t f b, f 7;
#X obj 305 380 tabwrite \$0-ENVELOPE;
#X obj 305 334 t b f;
#X msg 305 357 1;
#X obj 305 87 del 20;
#X obj 23 86 del 40;
#X text 54 202 ATTACK LEN (1);
#X text 336 181 SUSTAIN LEN (2);
#X text 618 138 RELEASE LEN (3);
#X text 345 286 ATTACK LEN (4);
#X floatatom 305 310 5 0 0 1 120-879 - - 0;
#X obj 23 356 expr sin((acos(-1))*$f1/(2*$f2));
#X obj 23 62 t b b b, f 81;
#X obj 587 356 expr sin((acos(-1))*(999-$f1)/(2*$f2));
#X text 583 407 f(n) = sin(((pi/2)*(999-n)/(RELEASE-LEN -1)));
#X text 19 407 f(n) = sin((pi/2)*(n/ATTACK-LEN - 1));
#X text 304 406 f(n) = 1;
#X text 118 19 TRAPEZOIDAL ENVELOPE WITH ROUND CORNERS: USING SIN FUNCTION;
#X text 118 31 -----------------------------------------------------------;
#X text 19 446 ** pi == acos(-1);
#X msg 23 202 120;
#X msg 587 138 120;
#X msg 305 180 760;
#X obj 305 286 + 120;
#X text 626 53 4 PARAMETERS (1-4) SHOULD BE CHANGED TO CHANGE THE ENVELOPE ATTACK AND DELAY LENGTH CORRECTLY, f 38;
#X connect 0 0 40 0;
#X connect 1 0 2 0;
#X connect 2 0 3 0;
#X connect 2 0 8 0;
#X connect 3 0 2 1;
#X connect 4 0 2 1;
#X connect 5 0 1 0;
#X connect 5 1 4 0;
#X connect 5 2 6 0;
#X connect 6 0 39 1;
#X connect 8 0 22 0;
#X connect 8 1 7 1;
#X connect 9 0 10 0;
#X connect 10 0 11 0;
#X connect 10 0 15 0;
#X connect 11 0 10 1;
#X connect 12 0 10 1;
#X connect 13 0 41 1;
#X connect 14 0 41 0;
#X connect 14 1 23 1;
#X connect 15 0 21 0;
#X connect 16 0 17 0;
#X connect 17 0 18 0;
#X connect 18 0 15 1;
#X connect 19 0 9 0;
#X connect 19 1 12 0;
#X connect 19 2 13 0;
#X connect 19 3 20 0;
#X connect 20 0 16 0;
#X connect 20 1 17 1;
#X connect 21 0 14 0;
#X connect 22 0 39 0;
#X connect 24 0 25 0;
#X connect 25 0 26 0;
#X connect 25 0 51 0;
#X connect 26 0 25 1;
#X connect 27 0 25 1;
#X connect 28 0 24 0;
#X connect 28 1 27 0;
#X connect 30 0 31 0;
#X connect 30 1 29 1;
#X connect 31 0 29 0;
#X connect 32 0 50 0;
#X connect 33 0 48 0;
#X connect 38 0 30 0;
#X connect 39 0 7 0;
#X connect 40 0 33 0;
#X connect 40 1 32 0;
#X connect 40 2 49 0;
#X connect 41 0 23 0;
#X connect 48 0 5 0;
#X connect 49 0 19 0;
#X connect 50 0 28 0;
#X connect 51 0 38 0;
#X restore 787 247 pd ROUNDED-EVEN-SLOWER;
#N canvas 704 467 933 446 HANN 0;
#X obj 23 32 inlet;
#X obj 23 86 del 40;
#X text 118 31 -----------------------------------------------------------;
#X obj 23 62 t b b, f 25;
#X text 118 19 HANN WINDOW (Cosine based);
#X text 363 94 HANN window formulation: \; f(n) = (sin(pi*n/WINDOW-LEN))^2 \;;
#X obj 195 187 until;
#X obj 195 211 i, f 7;
#X obj 252 211 + 1;
#X msg 243 187 0;
#X obj 195 163 t f b f, f 15;
#X obj 444 260 - 1;
#X obj 195 313 tabwrite \$0-ENVELOPE;
#X obj 195 238 t f f;
#X floatatom 195 264 5 0 0 1 0-999 - - 0;
#X text 236 136 ATTACK LEN (1);
#X text 192 339 ** pi == acos(-1);
#X msg 195 136 1000;
#X obj 23 311 tabwrite \$0-ENVELOPE;
#X obj 160 156 - 1;
#X msg 23 263 0;
#X text 30 209 FORCE SETTING TO 0 DUE TO NUMERICAL ERROR, f 15;
#X text 367 149 1 PARAMETERS (1) TO CHANGE FOR DIFFERENW WINDOW LENGHT, f 28;
#X obj 195 290 expr pow(sin((acos(-1)*$f1/$f2)) \, 2);
#X text 459 288 REFERENCE VALUE OF POWER FOR HANN WINDOW IS 2 SETTING HIGHER WILL MAKE THE HANN WINDOW THINNER IN THE MIDDLE. AND SETTING IT LOWER EX: 1 \, 0.5 \, ..)0 WILL MAKE IT FATTER., f 48;
#X connect 0 0 3 0;
#X connect 1 0 20 0;
#X connect 3 0 1 0;
#X connect 3 1 17 0;
#X connect 6 0 7 0;
#X connect 7 0 8 0;
#X connect 7 0 13 0;
#X connect 8 0 7 1;
#X connect 9 0 7 1;
#X connect 10 0 6 0;
#X connect 10 1 9 0;
#X connect 10 2 11 0;
#X connect 11 0 23 1;
#X connect 13 0 14 0;
#X connect 13 1 12 1;
#X connect 14 0 23 0;
#X connect 17 0 10 0;
#X connect 17 0 19 0;
#X connect 19 0 18 1;
#X connect 20 0 18 0;
#X connect 23 0 12 0;
#X restore 803 222 pd HANN;
#N canvas 704 467 933 446 HANN-THIN 0;
#X obj 23 32 inlet;
#X obj 23 86 del 40;
#X text 118 31 -----------------------------------------------------------;
#X obj 23 62 t b b, f 25;
#X text 118 19 HANN WINDOW (Cosine based);
#X text 363 94 HANN window formulation: \; f(n) = (sin(pi*n/WINDOW-LEN))^2 \;;
#X obj 195 187 until;
#X obj 195 211 i, f 7;
#X obj 252 211 + 1;
#X msg 243 187 0;
#X obj 195 163 t f b f, f 15;
#X obj 444 260 - 1;
#X obj 195 313 tabwrite \$0-ENVELOPE;
#X obj 195 238 t f f;
#X floatatom 195 264 5 0 0 1 0-999 - - 0;
#X text 236 136 ATTACK LEN (1);
#X text 192 339 ** pi == acos(-1);
#X msg 195 136 1000;
#X obj 23 311 tabwrite \$0-ENVELOPE;
#X obj 160 156 - 1;
#X msg 23 263 0;
#X text 30 209 FORCE SETTING TO 0 DUE TO NUMERICAL ERROR, f 15;
#X text 367 149 1 PARAMETERS (1) TO CHANGE FOR DIFFERENW WINDOW LENGHT, f 28;
#X obj 195 290 expr pow(sin((acos(-1)*$f1/$f2)) \, 3);
#X text 459 288 REFERENCE VALUE OF POWER FOR HANN WINDOW IS 2 SETTING HIGHER WILL MAKE THE HANN WINDOW THINNER IN THE MIDDLE. AND SETTING IT LOWER EX: 1 \, 0.5 \, ..)0 WILL MAKE IT FATTER., f 48;
#X connect 0 0 3 0;
#X connect 1 0 20 0;
#X connect 3 0 1 0;
#X connect 3 1 17 0;
#X connect 6 0 7 0;
#X connect 7 0 8 0;
#X connect 7 0 13 0;
#X connect 8 0 7 1;
#X connect 9 0 7 1;
#X connect 10 0 6 0;
#X connect 10 1 9 0;
#X connect 10 2 11 0;
#X connect 11 0 23 1;
#X connect 13 0 14 0;
#X connect 13 1 12 1;
#X connect 14 0 23 0;
#X connect 17 0 10 0;
#X connect 17 0 19 0;
#X connect 19 0 18 1;
#X connect 20 0 18 0;
#X connect 23 0 12 0;
#X restore 819 197 pd HANN-THIN;
#N canvas 101 69 384 206 UNIT-1 0;
#X msg 132 73 const 1;
#X obj 132 49 inlet;
#X obj 132 97 s \$0-SAMPLE-ENVELOPE;
#X connect 0 0 2 0;
#X connect 1 0 0 0;
#X restore 618 356 pd UNIT-1;
#X text 103 100 =========================== == \$0-WAVE-SAMPLE PLAYER == ===========================, f 27;
#X obj 583 557 loadbang;
#X connect 0 0 14 0;
#X connect 1 0 20 0;
#X connect 2 0 40 0;
#X connect 3 0 6 0;
#X connect 3 0 6 1;
#X connect 4 0 9 0;
#X connect 4 0 38 0;
#X connect 4 0 14 0;
#X connect 4 0 39 0;
#X connect 5 0 3 0;
#X connect 6 0 8 0;
#X connect 7 0 8 1;
#X connect 8 0 1 1;
#X connect 9 0 7 0;
#X connect 10 0 2 2;
#X connect 11 0 12 0;
#X connect 12 0 2 1;
#X connect 13 0 0 0;
#X connect 14 0 15 0;
#X connect 14 0 2 0;
#X connect 15 0 16 0;
#X connect 16 0 13 0;
#X connect 18 0 13 0;
#X connect 19 0 14 0;
#X connect 25 0 14 0;
#X connect 26 0 27 0;
#X connect 26 1 25 1;
#X connect 27 0 25 0;
#X connect 28 0 26 0;
#X connect 29 0 27 0;
#X connect 31 0 34 0;
#X connect 32 0 35 0;
#X connect 33 0 36 0;
#X connect 34 0 37 0;
#X connect 35 0 37 0;
#X connect 36 0 37 0;
#X connect 38 0 3 0;
#X connect 39 0 5 0;
#X connect 40 0 1 0;
#X connect 41 0 40 1;
#X connect 43 0 44 0;
#X connect 44 0 41 0;
#X connect 45 0 46 0;
#X connect 46 0 54 0;
#X connect 56 0 54 0;
#X coords 0 -1 1 1 200 235 2 100 100;
#X restore 22 624 pd WAVE-SAMPLE-PLAYER;
#N canvas 66 32 1854 977 WAVETABLE-PLAYER 0;
#X obj 17 170 mtof;
#X obj 109 412 *~, f 11;
#N canvas 355 129 793 501 OSCILLATOR 0;
#X obj 286 31 inlet;
#X obj 358 31 inlet;
#N canvas 297 118 833 439 OSCILLATOR-PHASE-0 0;
#X obj 246 158 phasor~;
#X obj 246 243 *~ \$1;
#X obj 229 353 *~;
#X floatatom 364 224 7 0 0 1 - - - 0;
#X floatatom 246 79 8 0 0 1 - - - 0;
#X obj 246 49 inlet;
#X obj 364 49 inlet;
#X obj 246 103 t f b;
#X msg 278 131 0, f 2;
#X obj 246 208 wrap~;
#X obj 246 183 +~ 0;
#X obj 229 378 outlet~;
#X obj 19 227 *~ 997;
#X obj 19 252 +~ 1;
#X floatatom 584 263 7 0 0 0 - - - 0;
#X obj 246 282 +~;
#X obj 584 49 inlet;
#X text 244 28 FREQUENCY[Hz];
#X text 361 28 PHASOR RANGE (WINDOW-SIZE-3);
#X text 581 29 FIRST SAMPLE;
#X text 27 275 ENVELOPE OF LENGHT 1000;
#X obj 19 334 tabread~ \$0-WAVE-ENVELOPE;
#X obj 246 309 tabread4~ \$0-WAVETABLE;
#X obj 578 303 snapshot~;
#X obj 650 303 metro 10;
#X obj 650 279 tgl 20 0 empty \$0-WAVE-PHASOR-1-CURSOR-ON empty 0 -10 0 12 #fcfcfc #000000 #000000 0 1;
#X obj 578 327 s \$0-WAVE-PHASOR-1-CURSOR-POS;
#X connect 0 0 10 0;
#X connect 1 0 15 0;
#X connect 2 0 11 0;
#X connect 3 0 1 1;
#X connect 4 0 7 0;
#X connect 5 0 4 0;
#X connect 6 0 3 0;
#X connect 7 0 0 0;
#X connect 7 1 8 0;
#X connect 8 0 0 1;
#X connect 9 0 1 0;
#X connect 9 0 12 0;
#X connect 10 0 9 0;
#X connect 12 0 13 0;
#X connect 13 0 21 0;
#X connect 14 0 15 1;
#X connect 15 0 22 0;
#X connect 15 0 23 0;
#X connect 16 0 14 0;
#X connect 21 0 2 0;
#X connect 22 0 2 1;
#X connect 23 0 26 0;
#X connect 24 0 23 0;
#X connect 25 0 24 0;
#X restore 286 119 pd OSCILLATOR-PHASE-0;
#X obj 430 30 inlet;
#X obj 286 298 +~, f 5;
#X obj 131 121 tgl 20 0 empty empty 4 7 10 0 12 #faff00 #000000 #000000 0 1;
#X obj 286 258 *~;
#X obj 105 121 tgl 20 0 empty empty 1 7 10 0 12 #faff00 #000000 #000000 0 1;
#X obj 318 258 *~;
#X obj 353 258 *~;
#X obj 389 258 *~;
#X msg 105 148 0, f 2;
#X text 509 25 INLET-1: FREQUENCY[Hz] \; INLET-2: PHASOR RANGE(WINDOW-SIZE-3) \; INLET-3: FIRST SAMPLE \;;
#X text 102 100 OSCILLATORS;
#N canvas 459 271 871 439 OSCILLATOR-PHASE-0.25 0;
#X obj 246 158 phasor~;
#X obj 246 243 *~ \$1;
#X obj 229 353 *~;
#X floatatom 364 224 7 0 0 1 - - - 0;
#X floatatom 246 79 8 0 0 1 - - - 0;
#X obj 246 49 inlet;
#X obj 364 49 inlet;
#X obj 246 103 t f b;
#X msg 278 131 0, f 2;
#X obj 246 208 wrap~;
#X obj 229 378 outlet~;
#X obj 19 227 *~ 997;
#X obj 19 252 +~ 1;
#X floatatom 584 263 7 0 0 0 - - - 0;
#X obj 246 282 +~;
#X obj 584 49 inlet;
#X text 244 28 FREQUENCY[Hz];
#X text 361 28 PHASOR RANGE (WINDOW-SIZE-3);
#X text 581 29 FIRST SAMPLE;
#X text 27 275 ENVELOPE OF LENGHT 1000;
#X obj 246 183 +~ 0.25;
#X obj 246 309 tabread4~ \$0-WAVETABLE;
#X obj 19 334 tabread~ \$0-WAVE-ENVELOPE;
#X obj 578 303 snapshot~;
#X obj 650 303 metro 10;
#X obj 650 279 tgl 20 0 empty \$0-WAVE-PHASOR-2-CURSOR-ON empty 0 -10 0 12 #fcfcfc #000000 #000000 0 1;
#X obj 578 327 s \$0-WAVE-PHASOR-2-CURSOR-POS;
#X connect 0 0 20 0;
#X connect 1 0 14 0;
#X connect 2 0 10 0;
#X connect 3 0 1 1;
#X connect 4 0 7 0;
#X connect 5 0 4 0;
#X connect 6 0 3 0;
#X connect 7 0 0 0;
#X connect 7 1 8 0;
#X connect 8 0 0 1;
#X connect 9 0 1 0;
#X connect 9 0 11 0;
#X connect 11 0 12 0;
#X connect 12 0 22 0;
#X connect 13 0 14 1;
#X connect 14 0 21 0;
#X connect 14 0 23 0;
#X connect 15 0 13 0;
#X connect 20 0 9 0;
#X connect 21 0 2 1;
#X connect 22 0 2 0;
#X connect 23 0 26 0;
#X connect 24 0 23 0;
#X connect 25 0 24 0;
#X restore 318 143 pd OSCILLATOR-PHASE-0.25;
#N canvas 297 118 816 439 OSCILLATOR-PHASE-0.5 0;
#X obj 246 158 phasor~;
#X obj 246 243 *~ \$1;
#X obj 229 353 *~;
#X floatatom 364 224 7 0 0 1 - - - 0;
#X floatatom 246 79 8 0 0 1 - - - 0;
#X obj 246 49 inlet;
#X obj 364 49 inlet;
#X obj 246 103 t f b;
#X msg 278 131 0, f 2;
#X obj 246 208 wrap~;
#X obj 229 378 outlet~;
#X obj 19 227 *~ 997;
#X obj 19 252 +~ 1;
#X floatatom 584 263 7 0 0 0 - - - 0;
#X obj 246 282 +~;
#X obj 584 49 inlet;
#X text 244 28 FREQUENCY[Hz];
#X text 361 28 PHASOR RANGE (WINDOW-SIZE-3);
#X text 581 29 FIRST SAMPLE;
#X text 27 275 ENVELOPE OF LENGHT 1000;
#X obj 246 183 +~ 0.5;
#X obj 19 334 tabread~ \$0-WAVE-ENVELOPE;
#X obj 246 309 tabread4~ \$0-WAVETABLE;
#X obj 578 303 snapshot~;
#X obj 650 303 metro 10;
#X obj 650 279 tgl 20 0 empty \$0-WAVE-PHASOR-3-CURSOR-ON empty 0 -10 0 12 #fcfcfc #000000 #000000 0 1;
#X obj 578 327 s \$0-WAVE-PHASOR-3-CURSOR-POS;
#X connect 0 0 20 0;
#X connect 1 0 14 0;
#X connect 2 0 10 0;
#X connect 3 0 1 1;
#X connect 4 0 7 0;
#X connect 5 0 4 0;
#X connect 6 0 3 0;
#X connect 7 0 0 0;
#X connect 7 1 8 0;
#X connect 8 0 0 1;
#X connect 9 0 1 0;
#X connect 9 0 11 0;
#X connect 11 0 12 0;
#X connect 12 0 21 0;
#X connect 13 0 14 1;
#X connect 14 0 22 0;
#X connect 14 0 23 0;
#X connect 15 0 13 0;
#X connect 20 0 9 0;
#X connect 21 0 2 0;
#X connect 22 0 2 1;
#X connect 23 0 26 0;
#X connect 24 0 23 0;
#X connect 25 0 24 0;
#X restore 353 167 pd OSCILLATOR-PHASE-0.5;
#N canvas 297 118 835 439 OSCILLATOR-PHASE-0.75 0;
#X obj 246 158 phasor~;
#X obj 246 243 *~ \$1;
#X obj 229 353 *~;
#X floatatom 364 224 7 0 0 1 - - - 0;
#X floatatom 246 79 8 0 0 1 - - - 0;
#X obj 246 49 inlet;
#X obj 364 49 inlet;
#X obj 246 103 t f b;
#X msg 278 131 0, f 2;
#X obj 246 208 wrap~;
#X obj 229 378 outlet~;
#X obj 19 227 *~ 997;
#X obj 19 252 +~ 1;
#X floatatom 584 263 7 0 0 0 - - - 0;
#X obj 246 282 +~;
#X obj 584 49 inlet;
#X text 244 28 FREQUENCY[Hz];
#X text 361 28 PHASOR RANGE (WINDOW-SIZE-3);
#X text 581 29 FIRST SAMPLE;
#X text 27 275 ENVELOPE OF LENGHT 1000;
#X obj 246 309 tabread4~ \$0-WAVETABLE;
#X obj 19 334 tabread~ \$0-WAVE-ENVELOPE;
#X obj 578 303 snapshot~;
#X obj 650 303 metro 10;
#X obj 650 279 tgl 20 0 empty \$0-WAVE-PHASOR-4-CURSOR-ON empty 0 -10 0 12 #fcfcfc #000000 #000000 0 1;
#X obj 578 327 s \$0-WAVE-PHASOR-4-CURSOR-POS;
#X obj 246 183 +~ 0.75;
#X connect 0 0 26 0;
#X connect 1 0 14 0;
#X connect 2 0 10 0;
#X connect 3 0 1 1;
#X connect 4 0 7 0;
#X connect 5 0 4 0;
#X connect 6 0 3 0;
#X connect 7 0 0 0;
#X connect 7 1 8 0;
#X connect 8 0 0 1;
#X connect 9 0 1 0;
#X connect 9 0 11 0;
#X connect 11 0 12 0;
#X connect 12 0 21 0;
#X connect 13 0 14 1;
#X connect 14 0 20 0;
#X connect 14 0 22 0;
#X connect 15 0 13 0;
#X connect 20 0 2 1;
#X connect 21 0 2 0;
#X connect 22 0 25 0;
#X connect 23 0 22 0;
#X connect 24 0 23 0;
#X connect 26 0 9 0;
#X restore 389 192 pd OSCILLATOR-PHASE-0.75;
#X obj 286 330 outlet~;
#N canvas 846 198 607 300 PLAYBACK-CURSOR 0;
#X msg 46 136 1;
#X msg 271 111 0;
#X obj 271 86 sel 0 1, f 11;
#X msg 308 111 1;
#X obj 46 40 inlet;
#X obj 271 45 inlet;
#X obj 46 111 sel 1 0, f 13;
#X msg 90 136 0;
#X obj 46 163 s \$0-WAVE-PHASOR-1-CURSOR-ON;
#X obj 271 163 s \$0-WAVE-PHASOR-2-CURSOR-ON;
#X obj 306 187 s \$0-WAVE-PHASOR-3-CURSOR-ON;
#X obj 330 212 s \$0-WAVE-PHASOR-4-CURSOR-ON;
#X connect 0 0 8 0;
#X connect 1 0 9 0;
#X connect 1 0 10 0;
#X connect 1 0 11 0;
#X connect 2 0 1 0;
#X connect 2 1 3 0;
#X connect 3 0 9 0;
#X connect 3 0 10 0;
#X connect 3 0 11 0;
#X connect 4 0 6 0;
#X connect 5 0 2 0;
#X connect 6 0 0 0;
#X connect 6 1 7 0;
#X connect 7 0 8 0;
#X restore 8 219 pd PLAYBACK-CURSOR;
#X connect 0 0 2 0;
#X connect 0 0 14 0;
#X connect 0 0 15 0;
#X connect 0 0 16 0;
#X connect 1 0 2 1;
#X connect 1 0 14 1;
#X connect 1 0 15 1;
#X connect 1 0 16 1;
#X connect 2 0 6 0;
#X connect 3 0 2 2;
#X connect 3 0 14 2;
#X connect 3 0 15 2;
#X connect 3 0 16 2;
#X connect 4 0 17 0;
#X connect 5 0 10 1;
#X connect 5 0 9 1;
#X connect 5 0 8 1;
#X connect 5 0 18 1;
#X connect 6 0 4 0;
#X connect 7 0 6 1;
#X connect 7 0 11 0;
#X connect 7 0 18 0;
#X connect 8 0 4 1;
#X connect 9 0 4 1;
#X connect 10 0 4 1;
#X connect 11 0 5 0;
#X connect 14 0 8 0;
#X connect 15 0 9 0;
#X connect 16 0 10 0;
#X coords 0 -1 1 1 85 45 2 100 100;
#X restore 110 212 pd OSCILLATOR;
#X f 24;
#X obj 373 256 line~;
#X obj 202 212 bng 20 250 50 0 empty empty PLAY 23 10 0 12 #ffc7c6 #000000 #202020;
#X msg 421 259 0 500;
#X obj 373 355 *~;
#X obj 202 236 tgl 20 0 empty empty ON 23 10 0 12 #ffc7c6 #000000 #000000 0 1;
#X obj 183 374 +~;
#X msg 329 232 0, f 2;
#X obj 367 192 - 3;
#X floatatom 110 151 10 0 0 1 MIDI - - 0;
#X floatatom 110 176 10 0 0 1 FREQUENCY[Hz] - - 0;
#X obj 16 195 ftom;
#X msg 16 219 set \$1;
#X text 107 192 --------------------------;
#X obj 110 32 inlet;
#X obj 161 32 inlet;
#X obj 109 437 outlet~;
#N canvas 52 20 1854 977 (subpatch) 0;
#X array \$0-WAVE-ENVELOPE 1000 float 2;
#A color 0;
#A width 2;
#X coords 0 1 1000 0 200 80 1 0 0;
#X restore 705 62 graph;
#X text 106 255 --------------------------;
#X text 108 15 MIDI;
#X text 159 15 FREQUENCY;
#X obj 327 156 /, f 7;
#X obj 341 106 t b f;
#X obj 327 130 f;
#X obj 327 61 r \$0-RECORDED-SR;
#X text 383 156 ORIGNIAL LOADED FREQUENCY;
#X obj 110 273 bng 20 250 50 0 empty empty CONST-1 23 10 0 12 #fcfcfc #000000 #000000;
#X obj 189 273 bng 20 250 50 0 empty empty HANN 23 10 0 12 #fcfcfc #000000 #000000;
#X obj 246 273 bng 20 250 50 0 empty empty COS 23 10 0 12 #fcfcfc #000000 #000000;
#X msg 16 293 1, f 1;
#X msg 40 293 2, f 1;
#X msg 64 293 3, f 1;
#X msg 373 232 1 100;
#X obj 421 232 del 300;
#X obj 109 353 *~, f 6;
#X obj 113 306 hsl 175 20 0 1 0 0 empty empty NORMALIZATION 45 10 0 12 #fcfcfc #000000 #000000 0 1;
#X text 106 289 --------------------------;
#X obj 307 261 loadbang;
#X msg 307 286 0.5;
#X obj 705 173 sel 1 2 3;
#N canvas 704 467 933 446 HANN 0;
#X obj 23 32 inlet;
#X obj 23 86 del 40;
#X text 118 31 -----------------------------------------------------------;
#X obj 23 62 t b b, f 25;
#X text 118 19 HANN WINDOW (Cosine based);
#X text 363 94 HANN window formulation: \; f(n) = (sin(pi*n/WINDOW-LEN))^2 \;;
#X obj 195 187 until;
#X obj 195 211 i, f 7;
#X obj 252 211 + 1;
#X msg 243 187 0;
#X obj 195 163 t f b f, f 15;
#X obj 444 260 - 1;
#X obj 195 313 tabwrite \$0-ENVELOPE;
#X obj 195 238 t f f;
#X floatatom 195 264 5 0 0 1 0-999 - - 0;
#X text 236 136 ATTACK LEN (1);
#X text 192 339 ** pi == acos(-1);
#X msg 195 136 1000;
#X obj 23 311 tabwrite \$0-ENVELOPE;
#X obj 160 156 - 1;
#X msg 23 263 0;
#X text 30 209 FORCE SETTING TO 0 DUE TO NUMERICAL ERROR, f 15;
#X text 367 149 1 PARAMETERS (1) TO CHANGE FOR DIFFERENW WINDOW LENGHT, f 28;
#X obj 195 290 expr pow(sin((acos(-1)*$f1/$f2)) \, 2);
#X text 459 288 REFERENCE VALUE OF POWER FOR HANN WINDOW IS 2 SETTING HIGHER WILL MAKE THE HANN WINDOW THINNER IN THE MIDDLE. AND SETTING IT LOWER EX: 1 \, 0.5 \, ..)0 WILL MAKE IT FATTER., f 48;
#X connect 0 0 3 0;
#X connect 1 0 20 0;
#X connect 3 0 1 0;
#X connect 3 1 17 0;
#X connect 6 0 7 0;
#X connect 7 0 8 0;
#X connect 7 0 13 0;
#X connect 8 0 7 1;
#X connect 9 0 7 1;
#X connect 10 0 6 0;
#X connect 10 1 9 0;
#X connect 10 2 11 0;
#X connect 11 0 23 1;
#X connect 13 0 14 0;
#X connect 13 1 12 1;
#X connect 14 0 23 0;
#X connect 17 0 10 0;
#X connect 17 0 19 0;
#X connect 19 0 18 1;
#X connect 20 0 18 0;
#X connect 23 0 12 0;
#X restore 725 227 pd HANN;
#N canvas 101 69 384 206 UNIT-1 0;
#X msg 132 73 const 1;
#X obj 132 49 inlet;
#X obj 132 97 s \$0-WAVE-ENVELOPE;
#X connect 0 0 2 0;
#X connect 1 0 0 0;
#X restore 705 251 pd UNIT-1;
#X text 103 100 =========================== === \$0-WAVETABLE PLAYER === ===========================, f 27;
#N canvas 840 129 946 482 COS 0;
#X obj 26 14 inlet;
#X obj 26 44 t b b b, f 56;
#X connect 0 0 1 0;
#X restore 810 254 pd COS;
#X obj 16 473 s \$0-WAVE-ENVELOPE-SELECT;
#X obj 705 149 r \$0-WAVE-ENVELOPE-SELECT;
#X obj 794 362 loadbang;
#X obj 341 83 r \$0-WAVETABLE-SIZE;
#X obj 397 191 r \$0-WAVETABLE-SIZE;
#X msg 326 192 0;
#X connect 0 0 12 0;
#X connect 1 0 18 0;
#X connect 2 0 36 0;
#X connect 3 0 6 0;
#X connect 3 0 6 1;
#X connect 4 0 9 0;
#X connect 4 0 34 0;
#X connect 4 0 12 0;
#X connect 4 0 35 0;
#X connect 5 0 3 0;
#X connect 6 0 8 0;
#X connect 7 0 8 1;
#X connect 8 0 1 1;
#X connect 9 0 7 0;
#X connect 10 0 2 1;
#X connect 10 0 51 0;
#X connect 11 0 0 0;
#X connect 12 0 13 0;
#X connect 12 0 2 0;
#X connect 13 0 14 0;
#X connect 14 0 11 0;
#X connect 16 0 11 0;
#X connect 17 0 12 0;
#X connect 23 0 12 0;
#X connect 24 0 25 0;
#X connect 24 1 23 1;
#X connect 25 0 23 0;
#X connect 26 0 25 0;
#X connect 28 0 31 0;
#X connect 29 0 32 0;
#X connect 30 0 33 0;
#X connect 31 0 46 0;
#X connect 32 0 46 0;
#X connect 33 0 46 0;
#X connect 34 0 3 0;
#X connect 35 0 5 0;
#X connect 36 0 1 0;
#X connect 37 0 36 1;
#X connect 39 0 40 0;
#X connect 40 0 37 0;
#X connect 41 0 43 0;
#X connect 41 1 42 0;
#X connect 47 0 41 0;
#X connect 48 0 43 0;
#X connect 49 0 24 0;
#X connect 50 0 10 0;
#X connect 51 0 2 2;
#X coords 0 -1 1 1 200 235 2 100 100;
#X restore 243 623 pd WAVETABLE-PLAYER;
#N canvas 2153 44 1134 913 WAVE 0;
#X obj 102 102 cnv 20 460 670 empty empty empty 20 12 0 12 #ffe3c6 #404040 0;
#N canvas 0 50 450 250 (subpatch) 0;
#X array \$0-WAVETABLE 2048 float 4;
#A color 0;
#A width 1;
#X coords 0 1 2047 -1 430 125 1 0 0;
#X restore 113 125 graph;
#N canvas 1943 25 450 250 (subpatch) 0;
#X array \$0-REAL 2048 float 4;
#A color 0;
#A width 1;
#X coords 0 1024 2047 -1024 430 125 1 0 0;
#X restore 113 268 graph;
#N canvas 101 69 450 250 (subpatch) 0;
#X array \$0-IMAGINARY 2048 float 4;
#A color 0;
#A width 1;
#X coords 0 1024 2047 -1024 430 125 1 0 0;
#X restore 113 411 graph;
#N canvas 0 50 450 250 (subpatch) 0;
#X array \$0-MAGNITUDE 2048 float 4;
#A color 0;
#A width 1;
#X coords 0 1 2047 0 430 125 1 0 0;
#X restore 113 554 graph;
#N canvas 2083 272 481 530 FFT 0;
#X obj 122 154 *~;
#X obj 155 154 *~;
#X obj 121 178 +~;
#X obj 120 201 sqrt~;
#X obj 31 133 rfft~;
#X obj 5 3 bng 20 250 50 0 empty empty DRAW-FFT 23 10 0 12 #fcfcfc #000000 #000000;
#X obj 31 275 tabwrite~ \$0-REAL;
#X obj 62 252 tabwrite~ \$0-IMAGINARY;
#X obj 120 226 tabwrite~ \$0-MAGNITUDE;
#X obj 30 105 tabreceive~ \$0-WAVETABLE;
#X obj 33 430 /~ 1024, f 9;
#X obj 32 399 rifft~;
#X obj 5 27 bng 20 250 50 0 empty empty DRAW-IFFT 23 10 0 12 #fcfcfc #000000 #000000;
#X obj 32 459 tabwrite~ \$0-WAVETABLE;
#X obj 32 352 tabreceive~ \$0-REAL;
#X obj 70 375 tabreceive~ \$0-IMAGINARY;
#X obj 183 206 r \$0-DRAW-FFT;
#X obj 175 439 r \$0-DRAW-IFFT;
#X obj 93 405 r \$0-WINDOW-SIZE;
#X obj 134 23 s \$0-DRAW-FFT;
#X obj 133 47 s \$0-DRAW-IFFT;
#X connect 0 0 2 0;
#X connect 1 0 2 1;
#X connect 2 0 3 0;
#X connect 3 0 8 0;
#X connect 4 0 0 0;
#X connect 4 0 0 1;
#X connect 4 0 6 0;
#X connect 4 1 1 0;
#X connect 4 1 1 1;
#X connect 4 1 7 0;
#X connect 5 0 19 0;
#X connect 9 0 4 0;
#X connect 10 0 13 0;
#X connect 11 0 10 0;
#X connect 12 0 20 0;
#X connect 14 0 11 0;
#X connect 15 0 11 1;
#X connect 16 0 6 0;
#X connect 16 0 7 0;
#X connect 16 0 8 0;
#X connect 17 0 13 0;
#X connect 18 0 10 1;
#X coords 0 -1 1 1 97 50 2 0 0;
#X restore 446 684 pd FFT;
#N canvas 2349 299 797 596 SPECTRUM-MODIFICATION 0;
#X floatatom 202 393 5 0 0 0 - - - 0;
#X msg 145 397 0;
#X obj 145 272 until;
#X obj 145 319 f;
#X obj 176 319 + 1;
#X msg 163 297 0;
#X obj 145 249 t f b;
#X obj 145 373 t b f;
#X obj 145 344 + 128;
#X msg 145 224 5000;
#X floatatom 194 345 5 0 0 0 - - - 0;
#X text 141 186 MODIFICATIONS \; ------------- \;;
#X obj 104 102 bng 20 250 50 0 empty empty SPECTRUM\ ADJUSTMENT 23 10 0 12 #fcfcfc #000000 #000000;
#X text 364 73 OPEN THE PATCH;
#X msg 392 327 \; \$1-REAL const 1 \; \$1-IMAGINARY const 1 \; \$1-MAGNITUDE const 1 \;;
#X obj 392 302 f \$0;
#X obj 392 276 bng 20 250 50 0 empty empty empty 0 -10 0 12 #fcfcfc #000000 #000000;
#X connect 2 0 3 0;
#X connect 3 0 4 0;
#X connect 3 0 8 0;
#X connect 4 0 3 1;
#X connect 5 0 3 1;
#X connect 6 0 2 0;
#X connect 6 1 5 0;
#X connect 7 0 1 0;
#X connect 7 1 0 0;
#X connect 8 0 7 0;
#X connect 9 0 6 0;
#X connect 10 0 8 1;
#X connect 10 0 9 0;
#X connect 15 0 14 0;
#X connect 16 0 15 0;
#X coords 0 -1 1 1 165 24 2 100 100;
#X restore 277 684 pd SPECTRUM-MODIFICATION;
#N canvas 1906 -12 1920 1009 CHOP-WAVE-DISK 0;
#X obj 103 102 bng 20 250 50 0 empty empty CHOP|DISK 23 10 0 12 #ff0400 #000000 #000000;
#X coords 0 -1 1 1 97 24 2 100 100;
#X restore 446 737 pd CHOP-WAVE-DISK;
#N canvas 2160 89 604 371 FFT-ARRAY-SIZING 0;
#X floatatom 69 111 5 0 0 0 - - - 0;
#X obj 46 186 pack \$0 0 f f f;
#X obj 69 130 - 1;
#X obj 148 130 / 2;
#X obj 148 152 * -1;
#X obj 46 28 r \$0-WAVETABLE-SIZE;
#X listbox 48 215 20 0 0 0 - - - 0;
#X msg 196 105 resize \$1;
#X obj 196 125 s \$0-REAL;
#X obj 266 125 s \$0-IMAGINARY;
#X obj 372 125 s \$0-MAGNITUDE;
#X obj 46 85 t b f f;
#X msg 48 238 \; \$1-IMAGINARY bounds \$2 \$3 \$4 \$5 \; \$1-REAL bounds \$2 \$3 \$4 \$5;
#X floatatom 46 53 9 0 0 0 - - - 0;
#X msg 305 235 \; \$1-MAGNITUDE bounds \$2 1 \$4 0;
#X connect 0 0 2 0;
#X connect 0 0 3 0;
#X connect 1 0 6 0;
#X connect 2 0 1 3;
#X connect 3 0 4 0;
#X connect 3 0 1 2;
#X connect 4 0 1 4;
#X connect 5 0 13 0;
#X connect 6 0 12 0;
#X connect 6 0 14 0;
#X connect 7 0 8 0;
#X connect 7 0 9 0;
#X connect 7 0 10 0;
#X connect 11 0 1 0;
#X connect 11 1 0 0;
#X connect 11 2 7 0;
#X connect 13 0 11 0;
#X restore 101 72 pd FFT-ARRAY-SIZING;
#X floatatom 420 104 13 0 0 1 SIZE - - 12;
#X obj 420 73 r \$0-WAVETABLE-SIZE;
#N canvas 882 254 481 375 (subpatch) 0;
#X obj 103 102 bng 20 250 50 0 empty empty NORMALIZE 23 10 0 12 #00faff #000000 #000000;
#X obj 103 133 f \$0;
#X msg 103 156 \; \$1-WAVETABLE normalize;
#X connect 0 0 1 0;
#X connect 1 0 2 0;
#X coords 0 -1 1 1 95 24 2 100 100;
#X restore 178 684 pd;
#X msg 192 850 set \$1;
#X obj 144 850 tgl 20 0 empty empty empty 0 -10 0 12 #fcfcfc #000000 #000000 0 1;
#X obj 144 879 switch~ 1024 1 1 0;
#X obj 144 819 r \$0-WAVETABLE-SIZE;
#X msg 113 850 0, f 2;
#X obj 112 716 cnv 20 133 20 empty empty SPECTRAL\ ANALYSIS\ & 0 12 0 28 #ffe3c6 #404040 0;
#X obj 112 742 cnv 20 133 20 empty empty RESYNTHESIS 0 12 0 28 #ffe3c6 #404040 0;
#N canvas 520 311 993 681 WAVE-LOAD 0;
#X obj 104 102 bng 20 250 50 0 empty empty LOAD 23 10 0 12 #ffc7c6 #000000 #000000;
#X obj 426 353 f;
#X obj 444 327 r \$0-FIRST;
#X obj 508 354 r \$0-WINDOW-SIZE;
#X obj 228 380 f \$0;
#X obj 228 357 del 200;
#X obj 265 380 r \$0-WINDOW-SIZE;
#X obj 104 333 t b b b b, f 27;
#X obj 166 361 del 400;
#X obj 246 430 r \$0-WINDOW-SIZE;
#X msg 166 429 0;
#X obj 104 505 f;
#X obj 136 505 r \$0-WINDOW-SIZE;
#X obj 104 358 del 600;
#X obj 426 377 array get \$0-WAVE-SAMPLE;
#X obj 626 374 array size \$0-WAVE-BUFFER;
#X obj 426 433 array define \$0-WAVE-BUFFER;
#X f 41;
#X obj 426 401 array set \$0-WAVE-BUFFER 0;
#X obj 228 404 array size \$0-WAVETABLE;
#X obj 166 453 array get \$0-WAVE-BUFFER;
#X obj 166 477 array set \$0-WAVETABLE 0;
#X obj 104 529 s \$0-WAVETABLE-SIZE;
#X text 253 530 SEPARATION FROM \$0-WINDOW-SIZE FOR FFT AND WAVETABLE PLAYER;
#X obj 178 167 nbx 5 22 -1e+37 1e+37 0 0 empty empty empty 70 11 0 12 #faff00 #000000 #000000 0 256;
#X obj 104 199 t f f;
#X obj 104 222 &;
#X obj 136 221 - 1;
#X floatatom 104 247 5 0 0 0 - - - 0;
#X text 165 199 BITWISE SHORTCUT TO CHECK IF A NUMBER IS POWER OF 2, f 19;
#X obj 104 173 f;
#X obj 122 147 r \$0-WINDOW-SIZE;
#X obj 104 271 sel 0;
#X obj 471 260 s \$0-i-ERROR-CANVAS;
#X obj 830 291 outlet;
#X msg 471 237 color #ff0000;
#X msg 574 237 color #000000;
#X connect 0 0 29 0;
#X connect 1 0 14 0;
#X connect 2 0 1 1;
#X connect 3 0 14 1;
#X connect 3 0 15 0;
#X connect 4 0 18 0;
#X connect 5 0 4 0;
#X connect 6 0 4 1;
#X connect 7 0 13 0;
#X connect 7 1 8 0;
#X connect 7 2 1 0;
#X connect 7 2 5 0;
#X connect 8 0 10 0;
#X connect 9 0 19 1;
#X connect 10 0 19 0;
#X connect 11 0 21 0;
#X connect 12 0 11 1;
#X connect 13 0 11 0;
#X connect 14 0 17 0;
#X connect 19 0 20 0;
#X connect 24 0 25 0;
#X connect 24 1 26 0;
#X connect 25 0 27 0;
#X connect 26 0 25 1;
#X connect 27 0 31 0;
#X connect 29 0 24 0;
#X connect 30 0 29 1;
#X connect 30 0 23 0;
#X connect 31 0 7 0;
#X connect 31 0 35 0;
#X connect 31 1 33 0;
#X connect 31 1 34 0;
#X connect 34 0 32 0;
#X connect 35 0 32 0;
#X coords 0 -1 1 1 60 24 2 100 100;
#X restore 113 684 pd WAVE-LOAD;
#X obj 261 125 cnv 5 1 125 \$0-WAVE-PHASOR-2-CURSOR \$0-i-WAVE-PHASOR-2-CURSOR empty 20 12 0 12 #0456cb #404040 0;
#X obj 367 125 cnv 5 1 125 \$0-WAVE-PHASOR-1-CURSOR \$0-i-WAVE-PHASOR-1-CURSOR empty 20 12 0 12 #000000 #404040 0;
#X obj 368 125 cnv 5 1 125 \$0-WAVE-PHASOR-3-CURSOR \$0-i-WAVE-PHASOR-3-CURSOR empty 20 12 0 12 #0fa810 #404040 0;
#X obj 475 125 cnv 5 1 125 \$0-WAVE-PHASOR-4-CURSOR \$0-i-WAVE-PHASOR-4-CURSOR empty 20 12 0 12 #9babc6 #404040 0;
#N canvas 2650 269 645 553 PLAYBACK-CURSOR 0;
#X obj 72 99 /, f 10;
#X floatatom 72 124 7 0 0 1 SAMPLE-X-PIXEL - - 0;
#X obj 72 49 t b f, f 10;
#X text 108 74 \$0-SAMPLE SIZE(X);
#X msg 78 273 pos \$1 \$2;
#X obj 78 199 *;
#X msg 311 272 pos \$1 \$2;
#X obj 311 198 *;
#X msg 79 434 pos \$1 \$2;
#X obj 79 362 *;
#X msg 312 433 pos \$1 \$2;
#X obj 312 361 *;
#X obj 72 25 r \$0-WAVETABLE-SIZE;
#X msg 72 74 430;
#X obj 78 223 + 113;
#X obj 311 222 + 113;
#X obj 312 384 + 113;
#X obj 79 385 + 113;
#X obj 78 248 pack f 125;
#X obj 79 409 pack f 125;
#X obj 312 408 pack f 125;
#X obj 311 247 pack f 125;
#X obj 78 174 r \$0-WAVE-PHASOR-1-CURSOR-POS;
#X obj 78 296 s \$0-i-WAVE-PHASOR-1-CURSOR;
#X obj 311 173 r \$0-WAVE-PHASOR-2-CURSOR-POS;
#X obj 311 295 s \$0-i-WAVE-PHASOR-2-CURSOR;
#X obj 312 456 s \$0-i-WAVE-PHASOR-4-CURSOR;
#X obj 79 457 s \$0-i-WAVE-PHASOR-3-CURSOR;
#X obj 79 337 r \$0-WAVE-PHASOR-3-CURSOR-POS;
#X obj 312 336 r \$0-WAVE-PHASOR-4-CURSOR-POS;
#X connect 0 0 1 0;
#X connect 1 0 5 1;
#X connect 1 0 7 1;
#X connect 1 0 9 1;
#X connect 1 0 11 1;
#X connect 2 0 13 0;
#X connect 2 1 0 1;
#X connect 4 0 23 0;
#X connect 5 0 14 0;
#X connect 6 0 25 0;
#X connect 7 0 15 0;
#X connect 8 0 27 0;
#X connect 9 0 17 0;
#X connect 10 0 26 0;
#X connect 11 0 16 0;
#X connect 12 0 2 0;
#X connect 13 0 0 0;
#X connect 14 0 18 0;
#X connect 15 0 21 0;
#X connect 16 0 20 0;
#X connect 17 0 19 0;
#X connect 18 0 4 0;
#X connect 19 0 8 0;
#X connect 20 0 10 0;
#X connect 21 0 6 0;
#X connect 22 0 5 0;
#X connect 24 0 7 0;
#X connect 28 0 9 0;
#X connect 29 0 11 0;
#X restore 101 48 pd PLAYBACK-CURSOR;
#X obj 617 94 unpack f f;
#X floatatom 617 119 5 0 0 0 - - - 0;
#X floatatom 684 118 5 0 0 0 - - - 0;
#X msg 617 20 get_pos;
#X obj 617 44 s \$0-i-WAVE-PHASOR-3-CURSOR;
#X obj 617 69 r \$0-WAVE-PHASOR-3-CURSOR;
#X obj 102 774 cnv 14 460 15 \$0-ERROR-CANVAS \$0-i-ERROR-CANVAS "NOT\ LOADED:\ WINDOW\ SIZE\ NOT\ ACCEPTABLE" 45 10 1 13 #000000 #000000 0;
#X connect 10 0 9 0;
#X connect 12 0 14 0;
#X connect 13 0 14 0;
#X connect 15 0 12 0;
#X connect 15 0 13 0;
#X connect 16 0 13 0;
#X connect 19 0 16 0;
#X connect 25 0 26 0;
#X connect 25 1 27 0;
#X connect 28 0 29 0;
#X connect 30 0 25 0;
#X coords 0 -1 1 1 465 692 2 100 100;
#X restore 1344 7 pd WAVE;
#X text 842 856 REMAINIGN TESTING ALLLLLLLLLLLLLL!!!!!!;
#X obj 244 910 output~;
#X text 840 875 TESTING WORKFLOW BASED!!!!;
#X text 844 420 MAKE SAMPLE NAME NICER - NO LOCATION OR JUST LAST TWO FOLDERS, f 46;
#X text 845 467 MSP COSINE ENVELOPE IN PLAYERS;
#X text 846 504 SPECTRUM ADJUSTMENT FUNCTIONS;
#X text 846 540 CHOPPING FUNCTIONS;
#X connect 10 0 15 0;
#X connect 11 0 15 1;
#X connect 13 0 16 0;
#X connect 14 0 16 1;
#X connect 15 0 9 0;
#X connect 16 0 19 0;
