#N canvas 242 107 700 550 12;
#X floatatom 314 249 5 0 0 0 - - - 0;
#X obj 314 273 s selection-number;
#X text 299 11 THIS WILL BE IN THE MAIN COMPOSITION PATCH;
#X text 133 12 MPD218 CONFIGURATION;
#N canvas 297 118 560 537 knobs 0;
#X obj 26 25 ctlin 1;
#X floatatom 26 49 5 0 0 0 - - - 0;
#X obj 26 72 pack f f;
#X obj 92 71 r selection-number;
#X msg 26 97 \; \$2-CC-1 \$1;
#X obj 26 431 r 7-CC-1;
#X floatatom 26 456 5 0 0 0 - - - 0;
#X floatatom 239 47 5 0 0 0 - - - 0;
#X obj 239 70 pack f f;
#X obj 305 69 r selection-number;
#X obj 239 23 ctlin 2;
#X msg 239 95 \; \$2-CC-2 \$1;
#X floatatom 26 169 5 0 0 0 - - - 0;
#X obj 26 192 pack f f;
#X obj 92 191 r selection-number;
#X floatatom 238 167 5 0 0 0 - - - 0;
#X obj 238 190 pack f f;
#X obj 304 189 r selection-number;
#X floatatom 26 289 5 0 0 0 - - - 0;
#X obj 26 312 pack f f;
#X obj 92 311 r selection-number;
#X floatatom 238 287 5 0 0 0 - - - 0;
#X obj 238 310 pack f f;
#X obj 304 309 r selection-number;
#X obj 26 145 ctlin 3;
#X msg 26 217 \; \$2-CC-3 \$1;
#X obj 238 143 ctlin 4;
#X msg 238 215 \; \$2-CC-4 \$1;
#X obj 26 265 ctlin 5;
#X msg 26 337 \; \$2-CC-5 \$1;
#X obj 238 263 ctlin 6;
#X msg 238 335 \; \$2-CC-6 \$1;
#X text 21 500 Could be extended with 2 more set of 6 for banks B and AB;
#X text 24 410 Example clip 7 CC1;
#X connect 0 0 1 0;
#X connect 1 0 2 0;
#X connect 2 0 4 0;
#X connect 3 0 2 1;
#X connect 5 0 6 0;
#X connect 7 0 8 0;
#X connect 8 0 11 0;
#X connect 9 0 8 1;
#X connect 10 0 7 0;
#X connect 12 0 13 0;
#X connect 13 0 25 0;
#X connect 14 0 13 1;
#X connect 15 0 16 0;
#X connect 16 0 27 0;
#X connect 17 0 16 1;
#X connect 18 0 19 0;
#X connect 19 0 29 0;
#X connect 20 0 19 1;
#X connect 21 0 22 0;
#X connect 22 0 31 0;
#X connect 23 0 22 1;
#X connect 24 0 12 0;
#X connect 26 0 15 0;
#X connect 28 0 18 0;
#X connect 30 0 21 0;
#X restore 314 148 pd knobs;
#N canvas 115 81 610 300 note-pads 0;
#X obj 32 64 notein 1, f 12;
#X floatatom 32 89 5 0 0 1 note - - 0;
#X floatatom 113 89 5 0 0 1 velocity - - 0;
#X obj 32 118 spigot;
#X obj 89 118 tgl 20 0 empty empty empty 0 -10 0 12 #fcfcfc #000000 #000000 0 1;
#X text 113 118 When velocity is 0 (note-off) \, the midi does not pass;
#X obj 85 148 r selection-number;
#X obj 32 174 pack f f;
#X text 30 24 NOTE PADs ---------, f 10;
#X text 141 26 TO BE ASSIGNED BANKS B and Maybe even C. same structure as one-shot but instead of bang sends \$2-note \$1. AND sending velocity is important here for ADSR.;
#X connect 0 0 1 0;
#X connect 0 1 2 0;
#X connect 1 0 3 0;
#X connect 2 0 4 0;
#X connect 3 0 7 0;
#X connect 4 0 3 1;
#X connect 6 0 7 1;
#X restore 314 172 pd note-pads;
#N canvas 992 60 645 549 one-shot-pads 0;
#X obj 30 72 notein 1, f 12;
#X floatatom 30 97 5 0 0 1 note - - 0;
#X floatatom 111 97 5 0 0 1 velocity - - 0;
#X text 108 119 When velocity is 0 (note-off) \, the midi does not pass, f 30;
#X obj 96 374 r selection-number;
#X obj 30 154 sel 12 13 14 15, f 18;
#X obj 30 509 bng 20 250 50 0 empty empty empty 0 -10 0 12 #fcfcfc #000000 #000000;
#X text 27 29 ONE-SHOT PAD SENDER -------------------, f 19;
#X text 26 464 Example for selection numebr (clip) 7;
#X obj 30 374 pack f f;
#X msg 30 401 \; \$2-one-shot-\$1 bang;
#X obj 30 485 r 7-one-shot-12;
#X obj 143 509 bng 20 250 50 0 empty empty empty 0 -10 0 12 #fcfcfc #000000 #000000;
#X obj 258 509 bng 20 250 50 0 empty empty empty 0 -10 0 12 #fcfcfc #000000 #000000;
#X obj 371 509 bng 20 250 50 0 empty empty empty 0 -10 0 12 #fcfcfc #000000 #000000;
#X obj 143 485 r 7-one-shot-13;
#X obj 258 485 r 7-one-shot-14;
#X obj 371 485 r 7-one-shot-15;
#X obj 30 249 s i-mpd-pad-12-oneshot;
#X obj 60 226 s i-mpd-pad-13-oneshot;
#X obj 91 203 s i-mpd-pad-14-oneshot;
#X obj 122 179 s i-mpd-pad-15-oneshot;
#X text 9 4 VERY GOOD MIDI PROTOCOL DESIGN (PADS) -> VELOCITY IS OUTPUTTED BEFORE THE NOTE, f 80;
#X obj 30 129 spigot;
#X obj 80 129 tgl 20 0 empty empty empty 0 -10 0 12 #fcfcfc #000000 #000000 0 1;
#X obj 30 274 r mpd-pad-12-oneshot;
#X msg 30 299 12;
#X obj 178 274 r mpd-pad-13-oneshot;
#X msg 178 299 13;
#X msg 326 299 14;
#X obj 326 274 r mpd-pad-14-oneshot;
#X msg 474 299 15;
#X obj 474 274 r mpd-pad-15-oneshot;
#X connect 0 0 1 0;
#X connect 0 1 2 0;
#X connect 1 0 23 0;
#X connect 2 0 24 0;
#X connect 4 0 9 1;
#X connect 5 0 18 0;
#X connect 5 1 19 0;
#X connect 5 2 20 0;
#X connect 5 3 21 0;
#X connect 9 0 10 0;
#X connect 11 0 6 0;
#X connect 15 0 12 0;
#X connect 16 0 13 0;
#X connect 17 0 14 0;
#X connect 23 0 5 0;
#X connect 24 0 23 1;
#X connect 25 0 26 0;
#X connect 26 0 9 0;
#X connect 27 0 28 0;
#X connect 28 0 9 0;
#X connect 29 0 9 0;
#X connect 30 0 29 0;
#X connect 31 0 9 0;
#X connect 32 0 31 0;
#X restore 314 124 pd one-shot-pads;
#N canvas 1012 112 491 405 clip-ctrl 1;
#X obj 22 21 notein 1;
#X obj 239 197 r selection-number;
#X obj 23 197 f;
#X obj 208 197 f;
#X obj 23 173 bng 20 250 50 0 empty empty empty 0 -10 0 12 #fcfcfc #000000 #000000;
#X obj 208 172 bng 20 250 50 0 empty empty empty 0 -10 0 12 #fcfcfc #000000 #000000;
#X obj 48 98 s i-mpd-pad-10-loop;
#X obj 26 334 bng 20 250 50 0 empty empty empty 0 -10 0 12 #fcfcfc #000000 #000000;
#X obj 175 334 bng 20 250 50 0 empty empty empty 0 -10 0 12 #fcfcfc #000000 #000000;
#X text 24 288 For test Clip 7;
#X obj 22 122 s i-mpd-pad-9-launch-queue;
#X obj 23 149 r mpd-pad-9-launch-queue;
#X obj 208 149 r mpd-pad-10-loop;
#X obj 22 50 spigot;
#X obj 75 50 tgl 20 0 empty empty empty 0 -10 0 12 #fcfcfc #000000 #000000 0 1;
#X obj 22 74 sel 9 10;
#X obj 175 309 r 7-mpd-loop;
#X obj 26 309 r 7-mpd-launch-queue;
#X msg 23 225 \; \$1-mpd-launch-queue bang;
#X msg 208 224 \; \$1-mpd-loop bang;
#X connect 0 0 13 0;
#X connect 0 1 14 0;
#X connect 1 0 2 1;
#X connect 1 0 3 1;
#X connect 2 0 18 0;
#X connect 3 0 19 0;
#X connect 4 0 2 0;
#X connect 5 0 3 0;
#X connect 11 0 4 0;
#X connect 12 0 5 0;
#X connect 13 0 15 0;
#X connect 14 0 13 1;
#X connect 15 0 10 0;
#X connect 15 1 6 0;
#X connect 16 0 8 0;
#X connect 17 0 7 0;
#X restore 314 196 pd clip-ctrl;
#X obj 112 128 tgl 40 0 mpd-pad-8-master-clock i-mpd-pad-8-master-clock 8 30 32 0 12 #fcfcfc #000000 #000000 0 1;
#N canvas 1008 233 817 675 selector 0;
#X obj 438 44 notein 1;
#X obj 438 101 sel 0 1 2 3 4, f 38;
#X obj 20 116 expr (1*$i1 + 2*$i2 + 4*$i3 + 8*$i4 + 16*$i5);
#X obj 20 168 outlet;
#X obj 66 86 t b f;
#X obj 144 86 t b f;
#X obj 222 88 t b f;
#X obj 300 90 t b f;
#X obj 648 124 s i-mpd-pad-4-sel;
#X obj 595 146 s i-mpd-pad-3-sel;
#X obj 543 169 s i-mpd-pad-2-sel;
#X obj 490 192 s i-mpd-pad-1-sel;
#X obj 438 215 s i-mpd-pad-0-sel;
#X msg 437 494 144 0 127;
#X msg 459 518 144 1 127;
#X msg 481 542 144 2 127;
#X msg 505 565 144 3 127;
#X msg 527 588 144 4 127;
#X obj 437 629 midiout 1;
#X obj 437 282 r mpd-pad-0-sel;
#X obj 459 305 r mpd-pad-1-sel;
#X obj 481 328 r mpd-pad-2-sel;
#X obj 505 348 r mpd-pad-3-sel;
#X obj 527 371 r mpd-pad-4-sel;
#X obj 437 377 sel 1;
#X obj 459 387 sel 1;
#X obj 481 397 sel 1;
#X obj 505 407 sel 1;
#X obj 527 417 sel 1;
#X obj 437 426 del 100;
#X obj 459 437 del 100;
#X obj 481 451 del 100;
#X obj 505 465 del 100;
#X obj 527 480 del 100;
#X obj 20 42 r mpd-pad-0-sel;
#X obj 66 64 r mpd-pad-1-sel;
#X obj 144 42 r mpd-pad-2-sel;
#X obj 222 66 r mpd-pad-3-sel;
#X obj 300 44 r mpd-pad-4-sel;
#X floatatom 20 142 5 0 0 0 - - - 0;
#X obj 22 252 notein 1;
#X obj 22 305 sel 6;
#X msg 22 382 0;
#X obj 232 483 s i-mpd-pad-4-sel;
#X obj 179 467 s i-mpd-pad-3-sel;
#X obj 127 450 s i-mpd-pad-2-sel;
#X obj 75 434 s i-mpd-pad-1-sel;
#X obj 22 419 s i-mpd-pad-0-sel;
#X obj 23 582 midiout 1;
#X msg 23 463 128 0 0;
#X msg 45 483 128 1 0;
#X msg 67 503 128 2 0;
#X msg 91 523 128 3 0;
#X msg 113 543 128 4 0;
#X text 24 10 PADS 0-4 selecting where to route the midi info - PAD 6 clears selection, f 80;
#X obj 22 330 s i-mpd-pad-6-sel-off;
#X obj 438 73 spigot;
#X obj 491 73 tgl 20 0 empty empty empty 0 -10 0 12 #fcfcfc #000000 #000000 0 1;
#X obj 22 279 spigot;
#X obj 75 279 tgl 20 0 empty empty empty 0 -10 0 12 #fcfcfc #000000 #000000 0 1;
#X obj 22 356 r mpd-pad-6-sel-off;
#X connect 0 0 56 0;
#X connect 0 1 57 0;
#X connect 1 0 12 0;
#X connect 1 1 11 0;
#X connect 1 2 10 0;
#X connect 1 3 9 0;
#X connect 1 4 8 0;
#X connect 2 0 39 0;
#X connect 4 0 2 0;
#X connect 4 1 2 1;
#X connect 5 0 2 0;
#X connect 5 1 2 2;
#X connect 6 0 2 0;
#X connect 6 1 2 3;
#X connect 7 0 2 0;
#X connect 7 1 2 4;
#X connect 13 0 18 0;
#X connect 14 0 18 0;
#X connect 15 0 18 0;
#X connect 16 0 18 0;
#X connect 17 0 18 0;
#X connect 19 0 24 0;
#X connect 20 0 25 0;
#X connect 21 0 26 0;
#X connect 22 0 27 0;
#X connect 23 0 28 0;
#X connect 24 0 29 0;
#X connect 25 0 30 0;
#X connect 26 0 31 0;
#X connect 27 0 32 0;
#X connect 28 0 33 0;
#X connect 29 0 13 0;
#X connect 30 0 14 0;
#X connect 31 0 15 0;
#X connect 32 0 16 0;
#X connect 33 0 17 0;
#X connect 34 0 2 0;
#X connect 35 0 4 0;
#X connect 36 0 5 0;
#X connect 37 0 6 0;
#X connect 38 0 7 0;
#X connect 39 0 3 0;
#X connect 40 0 58 0;
#X connect 40 1 59 0;
#X connect 41 0 55 0;
#X connect 42 0 47 0;
#X connect 42 0 46 0;
#X connect 42 0 45 0;
#X connect 42 0 44 0;
#X connect 42 0 43 0;
#X connect 42 0 49 0;
#X connect 42 0 53 0;
#X connect 42 0 52 0;
#X connect 42 0 51 0;
#X connect 42 0 50 0;
#X connect 49 0 48 0;
#X connect 50 0 48 0;
#X connect 51 0 48 0;
#X connect 52 0 48 0;
#X connect 53 0 48 0;
#X connect 56 0 1 0;
#X connect 57 0 56 1;
#X connect 58 0 41 0;
#X connect 59 0 58 1;
#X connect 60 0 42 0;
#X restore 314 223 pd selector;
#X obj 112 260 tgl 40 0 mpd-pad-3-sel i-mpd-pad-3-sel 3 30 32 0 12 #fcfcfc #000000 #000000 0 1;
#X obj 156 260 tgl 40 0 mpd-pad-2-sel i-mpd-pad-2-sel 2 30 32 0 12 #fcfcfc #000000 #000000 0 1;
#X obj 200 260 tgl 40 0 mpd-pad-1-sel i-mpd-pad-1-sel 1 30 32 0 12 #fcfcfc #000000 #000000 0 1;
#X obj 245 260 tgl 40 0 mpd-pad-0-sel i-mpd-pad-0-sel 0 30 32 0 12 #fcfcfc #000000 #000000 0 1;
#X obj 245 216 tgl 40 0 mpd-pad-4-sel i-mpd-pad-4-sel 4 30 32 0 12 #fcfcfc #000000 #000000 0 1;
#N canvas 1044 522 466 156 master-clock 0;
#X obj 32 17 notein 1;
#X obj 32 42 sel 8;
#X obj 32 67 spigot;
#X obj 85 67 tgl 20 0 empty empty empty 0 -10 0 12 #fcfcfc #000000 #000000 0 1;
#X obj 32 92 s i-mpd-pad-8-master-clock;
#X connect 0 0 1 0;
#X connect 0 1 3 0;
#X connect 1 0 2 0;
#X connect 2 0 4 0;
#X connect 3 0 2 1;
#X restore 314 100 pd master-clock;
#X text 110 104 MPD218;
#X text 239 104 Bank-A;
#X obj 112 216 bng 40 250 50 0 mpd-pad-7-free i-mpd-pad-7-free 7 30 32 0 12 #fcfcfc #000000 #000000;
#X obj 156 216 bng 40 250 50 0 mpd-pad-6-sel-off i-mpd-pad-6-sel-off 6 30 32 0 12 #fcfcfc #000000 #000000;
#X obj 200 216 bng 40 250 50 0 mpd-pad-5-free i-mpd-pad-5-free 5 30 32 0 12 #fcfcfc #000000 #000000;
#X obj 112 172 bng 40 250 50 0 mpd-pad-12-oneshot i-mpd-pad-12-oneshot 12 24 32 0 12 #fcfcfc #000000 #000000;
#X obj 156 172 bng 40 250 50 0 mpd-pad-13-oneshot i-mpd-pad-13-oneshot 13 24 32 0 12 #fcfcfc #000000 #000000;
#X obj 200 172 bng 40 250 50 0 mpd-pad-14-oneshot i-mpd-pad-14-oneshot 14 24 32 0 12 #fcfcfc #000000 #000000;
#X obj 245 172 bng 40 250 50 0 mpd-pad-15-oneshot i-mpd-pad-15-oneshot 15 24 32 0 12 #fcfcfc #000000 #000000;
#X obj 156 128 bng 40 250 50 0 mpd-pad-9-launch-queue i-mpd-pad-9-launch-queue 9 30 32 0 12 #fcfcfc #000000 #000000;
#X obj 200 128 bng 40 250 50 0 mpd-pad-10-loop i-mpd-pad-10-loop 10 24 32 0 12 #fcfcfc #000000 #000000;
#X obj 245 128 bng 40 250 50 0 mpd-pad-11-free i-mpd-pad-11-free 11 24 32 0 12 #fcfcfc #000000 #000000;
#X text 100 319 All PADs setups are configured in mpd software as momentary with no aftertouch with number at buttom right;
#X text 22 13 VERSION 1;
#X text 405 171 For Later;
#X text 99 354 0 - 4: selection \; 5: free \; 6: selections off \; 7: free \; 12 - 15: one-shot \; 8: Master clock on \; 9: Launch/Stop Queue \; 10: Loop on/off \; 11: free \;;
#X connect 0 0 1 0;
#X connect 9 0 0 0;
#X coords 0 -1 1 1 200 210 2 100 100;
