#N canvas 896 385 450 300 12;
#X obj 6 57 savestate;
#X obj 66 111 bng 20 250 50 0 empty empty empty 0 -10 0 12 #fcfcfc #000000 #000000;
#X floatatom 122 120 5 0 0 0 - - - 0;
#X obj 66 139 f;
#X connect 0 0 2 0;
#X connect 0 1 1 0;
#X connect 1 0 3 0;
#X connect 2 0 3 1;
#X connect 3 0 0 0;
#X coords 0 -1 1 1 85 60 2 100 100;
