#N canvas 2160 89 661 842 12;
#N canvas 101 69 450 250 (subpatch) 0;
#X array \$0-ENVELOPE 2181 float 2;
#A color 0;
#A width 2;
#X coords 0 1 2181 -1 160 80 1 0 0;
#X restore 111 142 graph;
#X obj 98 286 inlet;
#X floatatom 98 572 5 0 0 0 - - - 0;
#X obj 114 224 hsl 155 15 0 2181 0 0 \$0-slider-dummy \$0-i-slider empty -2 -10 0 12 #fcfcfc #000000 #000000 0 1;
#X obj 232 283 inlet;
#X floatatom 232 347 5 0 0 1 BAR-DURATION[ms] - - 0;
#X obj 98 648 outlet;
#X text 94 267 LAUNCH;
#X text 230 264 BAR-DURATION;
#X obj 98 311 bng 20 250 50 0 empty empty empty 0 -10 0 12 #fcfcfc #000000 #000000;
#X text 108 100 (1-BAR)-ENVELOPE;
#X text 97 5 VERSION 2: 1-BAR ENVELOPE FOR MODULATION;
#N canvas 2282 159 523 604 BAR-TIME 0;
#X obj 20 202 f;
#X obj 20 92 inlet;
#X obj 20 121 t b b;
#X text 19 72 START-TIMING;
#X obj 281 97 inlet;
#X text 279 78 BAR-DURATION;
#X floatatom 281 121 5 0 0 0 - - - 0;
#X obj 69 93 bng 20 250 50 0 empty empty empty 0 -10 0 12 #fcfcfc #000000 #000000;
#X msg 20 148 1;
#X msg 52 148 0;
#X msg 179 354 0, f 5;
#X obj 179 382 outlet;
#X obj 20 378 outlet;
#X text 178 403 BAR-ENDED (0);
#X text 18 399 TIME[ms];
#X floatatom 20 230 12 0 0 1 [ms] - - 0;
#X obj 179 274 sel 1;
#X obj 20 176 metro 1;
#X obj 50 202 + 1;
#X obj 179 249 expr $f1 >= $f2;
#X text 75 177 RESOLUTION:1[ms];
#X text 11 18 - LEFT OUTLET: OUTPUTS TIME ELAPSED SINCE LAUNCH OF THE BAR \; - RIGHT OUTLER: OUTPUTS 0 WHEN BAR IS FINISHED \;, f 62;
#X connect 0 0 15 0;
#X connect 0 0 18 0;
#X connect 1 0 2 0;
#X connect 2 0 8 0;
#X connect 2 1 9 0;
#X connect 4 0 6 0;
#X connect 6 0 19 1;
#X connect 7 0 2 0;
#X connect 8 0 17 0;
#X connect 9 0 0 1;
#X connect 10 0 11 0;
#X connect 10 0 17 0;
#X connect 15 0 12 0;
#X connect 15 0 19 0;
#X connect 16 0 10 0;
#X connect 17 0 0 0;
#X connect 18 0 0 1;
#X connect 19 0 16 0;
#X coords 0 604 1 603 165 45 0;
#X restore 98 366 pd BAR-TIME;
#N canvas 2574 151 626 488 ARRAY-MANAGEMENT 0;
#X obj 34 16 inlet;
#X obj 226 16 r \$0-clear-seq;
#X msg 34 253 resize \$1;
#X obj 194 114 savestate;
#X obj 254 198 list append, f 13;
#X obj 254 175 f;
#X obj 254 150 t b b;
#X obj 194 285 list;
#X obj 194 233 list split 1;
#X obj 194 261 del 10, f 7;
#X text 190 348 SAVESTATE \, WILL HOLD 1 LIST OF FIRST ELEMENT ARRYA SIZE (BAR-DURATION) AND APPENDS TO IT THE ARRAY AS A LIST ITSELF. WHEN PARENT PATCH IS RELOADED \, FIRST ELEMENT (SIZE) WILL BE SPLITTED AND FEEDED TO "ARRAY DEFINE". THEN THE ARRAY ITSELF WILL BE OUTPUTTED TO \$0-SEQUENCE-ARRAY.THE LAST OPERATION TAKES COUPLE OF SECONDS., f 59;
#X msg 226 40 const 0;
#X obj 272 122 r \$0-BAR-DURATION;
#X text 251 254 NOT TO WRITE TO ARRAY BEFORE IT IS RESIZED, f 21;
#X obj 34 225 r \$0-BAR-DURATION;
#X obj 34 48 s \$0-BAR-DURATION;
#X obj 34 278 s \$0-ENVELOPE;
#X obj 226 65 s \$0-ENVELOPE;
#X obj 194 311 array set \$0-ENVELOPE;
#X obj 342 150 array get \$0-ENVELOPE;
#X obj 62 419 s \$0-i-slider;
#X msg 62 395 range \$1 \$2;
#X obj 62 349 t b f;
#X obj 62 372 pack 0 \$1;
#X text 50 328 SLIDER RESIZE;
#X connect 0 0 15 0;
#X connect 1 0 11 0;
#X connect 2 0 16 0;
#X connect 3 0 8 0;
#X connect 3 1 6 0;
#X connect 4 0 3 0;
#X connect 5 0 4 0;
#X connect 6 0 5 0;
#X connect 6 1 19 0;
#X connect 7 0 18 0;
#X connect 8 0 9 0;
#X connect 8 0 2 0;
#X connect 8 1 7 1;
#X connect 9 0 7 0;
#X connect 11 0 17 0;
#X connect 12 0 5 1;
#X connect 14 0 2 0;
#X connect 14 0 22 0;
#X connect 19 0 4 1;
#X connect 21 0 20 0;
#X connect 22 0 23 0;
#X connect 22 1 23 1;
#X connect 23 0 21 0;
#X restore 339 366 pd ARRAY-MANAGEMENT;
#X obj 248 125 bng 15 250 50 0 \$0-clear \$0-i-clear C 19 8 0 10 #ffffff #000000 #000000;
#X obj 199 125 tgl 15 0 \$0-edit \$0-i-edit EDIT 19 8 0 10 #ff0400 #000000 #000000 0 1;
#X obj 98 522 spigot;
#X obj 157 522 tgl 20 0 empty empty empty 0 -10 0 12 #fcfcfc #000000 #000000 0 1;
#X obj 157 453 r \$0-edit;
#X obj 157 476 sel 1;
#X msg 157 500 0, f 1;
#X msg 189 500 1, f 1;
#X text 106 440 NOT OUTPUT WHEN EDIT ON, f 6;
#X obj 306 104 loadbang;
#X obj 306 150 s \$0-i-edit;
#X msg 306 127 0;
#X obj 232 308 int;
#X text 230 425 STANDARD AND CUSTOM FUNCTIONS;
#N canvas 2464 160 1043 529 \$0-EDIT-ENVELOPE 0;
#X obj 18 38 inlet;
#X text 16 17 BAR-DURATION;
#X msg 260 20 const 1;
#X obj 260 68 s \$0-ENVELOPE;
#X msg 329 20 const 0.5;
#X text 482 23 - DRAW MANUALLY \; - HIGH FREQUENCY SINUSOID 1:-1 \; - HIGH FREQUENCY SINUSOID 1:0 \; - LOW FREQUENCY \; - PWM \; - CUSTOM: IMPLEMENT LOGIC AND DRAW \;;
#X obj 159 23 r \$0-clear;
#X msg 159 48 const 0;
#X connect 2 0 3 0;
#X connect 4 0 3 0;
#X connect 6 0 7 0;
#X connect 7 0 3 0;
#X restore 232 404 pd \$0-EDIT-ENVELOPE;
#X msg 403 125 vis \$1;
#X obj 403 101 r \$0-edit;
#X obj 403 150 s pd-\$0-EDIT-ENVELOPE;
#X text 260 141 1;
#X text 253 206 -1;
#X obj 98 548 tabread4 \$0-ENVELOPE;
#X floatatom 115 390 5 0 0 0 - - - 0;
#X obj 115 411 s \$0-i-slider;
#X text 95 698 - COULD MANUALLY DRAW OR OPEN EDIT SUBPATCH AND EXTERND AND DRAW USING FUNCTIONS \; - FOR GENERAL MODULATIONS - DO NOT USE FOR AUDIO RATE MODULATIONS LIKE LFO \; - DEPENDING ON ARRAY LENGHT COULD TAKE SOME SECONDS TO RELOAD ARRAY FROM SAVESTATE LIST \;, f 57;
#X obj 98 614 clip -1 1;
#X connect 1 0 9 0;
#X connect 2 0 38 0;
#X connect 4 0 26 0;
#X connect 5 0 28 0;
#X connect 5 0 12 1;
#X connect 5 0 13 0;
#X connect 9 0 12 0;
#X connect 12 0 16 0;
#X connect 12 0 35 0;
#X connect 16 0 34 0;
#X connect 17 0 16 1;
#X connect 18 0 19 0;
#X connect 19 0 20 0;
#X connect 19 1 21 0;
#X connect 20 0 17 0;
#X connect 21 0 17 0;
#X connect 23 0 25 0;
#X connect 25 0 24 0;
#X connect 26 0 5 0;
#X connect 29 0 31 0;
#X connect 30 0 29 0;
#X connect 34 0 2 0;
#X connect 35 0 36 0;
#X connect 38 0 6 0;
#X coords 0 -1 1 1 185 150 2 100 100;
