#N canvas 297 118 616 715 12;
#X obj 336 318 f \$1;
#X obj 336 294 loadbang;
#X floatatom 336 343 4 0 0 1 bar-count - - 0;
#N canvas 0 50 450 250 (subpatch) 0;
#X array \$0-sequence 100 float 3;
#A 0 0.5 0.5 0.5 0.5 0.5 0.5 0.5 0.5 0.5 0.5 0.5 0.5 0.5 0.5 0.5 0.5 0.5 0.5 0.5 0.5 0.5 0.5 0.5 0.5 0.5 0.5 0.5 0.5 0.5 0.5 0.5 0.5 0.5 0.5 0.5 0.5 0.5 0.5 0.5 0.5 0.5 0.5 0.5 0.5 0.5 0.5 0.5 0.5 0.5 0.5 0.5 0.5 0.5 0.5 0.5 0.5 0.5 0.5 0.5 0.5 0.5 0.5 0.5 0.5 0.5 0.5 0.5 0.5 0.5 0.5 0.5 0.5 0.5 0.5 0.5 0.5 0.5 0.5 0.5 0.5 0.5 0.5 0.5 0.5 0.5 0.5 0.5 0.5 0.5 0.5 0.5 0.5 0.5 0.5 0.5 0.5 0.5 0.5 0.5 0.5;
#A color 0;
#A width 2;
#X coords 0 1 100 0 140 80 1 0 0;
#X restore 106 136 graph;
#X obj 99 282 inlet;
#X obj 150 282 inlet;
#X text 95 263 Launch;
#X text 146 263 End/Loop;
#X floatatom 99 482 5 0 0 0 - - - 0;
#X floatatom 99 528 5 0 0 0 - - - 0;
#X obj 99 460 line;
#X floatatom 99 415 5 0 0 0 - - - 0;
#X obj 109 216 hsl 135 10 0 100 0 0 \$0-slider-dummy \$0-i-slider empty -2 -10 0 12 #fcfcfc #000000 #000000 0 1;
#X obj 139 481 s \$0-i-slider;
#X obj 99 504 tabread \$0-sequence;
#X obj 231 282 inlet;
#X text 229 264 Bar-duration;
#X obj 305 343 *;
#X floatatom 305 372 5 0 0 0 - - - 0;
#X obj 99 391 f;
#X obj 99 552 outlet;
#X obj 339 191 f \$0;
#X obj 231 307 unpack f f, f 11;
#X obj 150 308 sel 1 0;
#X text 105 101 ENVELOPE;
#X obj 251 136 vradio 15 1 0 6 \$0-h-radio \$0-i-h-radio empty 0 -10 0 12 #fcfcfc #000000 #000000 0;
#X obj 321 124 f \$0;
#X msg 321 147 \; \$1-sequence const 0.5;
#X msg 339 214 \; \$1-sequence const 1;
#X obj 321 46 r \$0-h-radio;
#X floatatom 321 71 5 0 0 0 - - - 0;
#X obj 321 93 sel 0 1 2 3;
#X obj 174 102 nbx 1 18 -1e+37 1e+37 0 0 \$0-bar-count-dummy \$0-i-bar-count bar-count 26 10 0 12 #fcfcfc #000000 #000000 0 256;
#X obj 348 372 s \$0-i-bar-count;
#X msg 99 437 0 \, 100 \$1;
#X text 111 13 Gets one constructing parameter: bar count;
#X text 34 12 VERSION 0;
#X connect 0 0 2 0;
#X connect 1 0 0 0;
#X connect 2 0 17 1;
#X connect 2 0 33 0;
#X connect 4 0 19 0;
#X connect 5 0 23 0;
#X connect 8 0 13 0;
#X connect 8 0 14 0;
#X connect 9 0 20 0;
#X connect 10 0 8 0;
#X connect 11 0 34 0;
#X connect 14 0 9 0;
#X connect 15 0 22 0;
#X connect 17 0 18 0;
#X connect 18 0 19 1;
#X connect 19 0 11 0;
#X connect 21 0 28 0;
#X connect 22 1 17 0;
#X connect 23 0 19 0;
#X connect 26 0 27 0;
#X connect 29 0 30 0;
#X connect 30 0 31 0;
#X connect 31 0 26 0;
#X connect 31 1 21 0;
#X connect 34 0 10 0;
#X coords 0 -1 1 1 170 130 2 100 100;
