#N canvas 432 123 626 816 12;
#X obj 156 177 inlet;
#X obj 215 177 inlet, f 7;
#X obj 15 173 inlet;
#X text 153 157 Launch;
#X text 213 158 End/Loop;
#X text 14 153 Midi;
#X obj 85 259 tgl 20 0 empty empty GO 23 10 0 12 #fcfcfc #000000 #000000 0 1;
#X obj 34 260 spigot;
#X listbox 34 503 20 0 0 0 - - - 0;
#X msg 181 46 -1;
#X obj 103 23 bng 20 250 50 0 \$0-clear-seq \$0-i-clear-seq-dummy Clear 23 10 0 12 #fcfcfc #000000 #000000;
#X obj 34 554 text insert \$0-sequence 1e+09;
#X obj 215 245 sel 0 1, f 9;
#N canvas 845 164 1009 693 seq-timer 0;
#X msg 343 148 1;
#X msg 404 149 0;
#X obj 343 225 metro 10;
#X text 407 226 Resolution:10ms;
#X text 557 20 - record start the metro \; - end stops the metro and reset to 0 the output \; - loop stops reset to 0 the output \; - each midi input resets the output to 0 \;;
#X obj 343 272 f;
#X obj 373 272 + 10;
#X obj 343 72 inlet;
#X obj 404 71 inlet;
#X obj 343 365 outlet;
#X text 402 38 end record, f 6;
#X floatatom 117 121 12 0 0 2 Relative-Time \$0-i-rel-time \$0-abs-time-dummy 0;
#X obj 281 72 inlet;
#X text 280 46 midiin;
#X msg 281 148 0;
#X floatatom 343 302 11 0 0 0 - - - 0;
#X obj 381 333 s \$0-i-rel-time;
#X obj 343 100 t b b;
#X obj 469 71 inlet;
#X text 466 41 loop;
#X text 339 48 launch;
#X msg 469 149 0;
#X connect 0 0 2 0;
#X connect 1 0 2 0;
#X connect 1 0 5 1;
#X connect 2 0 5 0;
#X connect 5 0 6 0;
#X connect 5 0 15 0;
#X connect 6 0 5 1;
#X connect 7 0 17 0;
#X connect 8 0 1 0;
#X connect 12 0 14 0;
#X connect 14 0 5 1;
#X connect 15 0 16 0;
#X connect 15 0 9 0;
#X connect 17 0 0 0;
#X connect 17 1 1 0;
#X connect 18 0 21 0;
#X connect 21 0 5 1;
#X coords 0 -1 1 1 125 50 2 100 100;
#X restore 127 401 pd seq-timer;
#X obj 156 357 bng 20 250 50 0 empty empty start 23 10 0 10 #fcfcfc #000000 #000000;
#X obj 215 334 bng 20 250 50 0 empty empty end 23 10 0 10 #fcfcfc #000000 #000000;
#X obj 245 310 bng 20 250 50 0 empty empty loop 23 10 0 10 #fcfcfc #000000 #000000;
#X obj 181 71 text delete \$0-sequence;
#X obj 15 625 outlet;
#X obj 44 527 s \$0-i-recorded;
#X listbox 4 68 14 0 0 1 snap[ms] \$0-i-recorded \$0-recorded-dummy 0;
#X floatatom 4 47 8 0 0 1 time[ms] \$0-i-rel-time \$0-absolute-time-dummy 0;
#X obj 181 20 r \$0-clear-seq;
#X obj 253 97 text define -k \$0-sequence;
#A set;
#N canvas 861 535 450 197 save-text 0;
#X obj 27 36 savestate;
#X obj 87 76 text tolist \$0-sequence;
#X obj 124 37 bng 20 250 50 0 empty empty empty 0 -10 0 12 #fcfcfc #000000 #000000;
#X obj 27 118 text fromlist \$0-sequence;
#X connect 0 0 3 0;
#X connect 0 1 1 0;
#X connect 1 0 0 0;
#X connect 2 0 1 0;
#X restore 351 71 pd save-text;
#X msg 313 297 line 0 \, auto;
#X obj 34 476 pack f f;
#X obj 34 451 f;
#X obj 34 381 t b f b;
#X obj 313 330 text sequence \$0-sequence -w 1;
#X floatatom 313 362 5 0 0 0 - - - 0;
#X text 178 -1 VERSION 1;
#X text 260 -1 Realtime sequencer: for midi cc input;
#X text 2 1 CC SEQUENCER;
#X obj 4 23 tgl 20 0 \$0-UI-rec \$0-i-UI-rec record-off 23 10 0 12 #e0e1e1 #000000 #000000 0 1;
#X msg 281 177 1;
#X msg 294 200 0;
#X obj 85 233 r \$0-UI-rec;
#X msg 47 288 set \$1;
#X obj 47 313 s \$0-i-UI-rec;
#X obj 47 339 s \$0-rec-label;
#N canvas 519 139 450 251 rec-coloring 0;
#X msg 16 112 color #e0e1e1;
#X obj 16 33 sel 0 1;
#X obj 16 58 bng 20 250 50 0 empty empty empty 0 -10 0 12 #fcfcfc #000000 #000000;
#X obj 39 58 bng 20 250 50 0 empty empty empty 0 -10 0 12 #fcfcfc #000000 #000000;
#X obj 16 8 r \$0-rec-label;
#X msg 33 135 label record-off;
#X msg 166 134 label recording;
#X msg 149 111 color #ff0000;
#X obj 16 205 s \$0-i-UI-rec;
#X connect 0 0 8 0;
#X connect 1 0 2 0;
#X connect 1 1 3 0;
#X connect 2 0 0 0;
#X connect 2 0 5 0;
#X connect 3 0 7 0;
#X connect 3 0 6 0;
#X connect 4 0 1 0;
#X connect 5 0 8 0;
#X connect 6 0 8 0;
#X connect 7 0 8 0;
#X restore 1 100 pd rec-coloring;
#X text 14 668 - When Launch is set: timer starts moving from 0 \; - with each incoming midi. timer resets to 0 and resumes -> relative timing \; - when end/loop is set. timer stops/restarts to/from 0 \; - with record on \, input midi goes into timer and also saves into \$0-sequence \; ** NOTE: makes sense only if sequence is clear with each recording session \;, f 81;
#X text 309 414 Note: If \$0-sequence is empty. text sequence outputs a out of range error --> it is fine., f 36;
#X connect 0 0 25 0;
#X connect 0 0 14 0;
#X connect 1 0 12 0;
#X connect 2 0 7 0;
#X connect 2 0 18 0;
#X connect 6 0 7 1;
#X connect 6 0 38 0;
#X connect 6 0 40 0;
#X connect 7 0 28 0;
#X connect 8 0 11 0;
#X connect 8 0 19 0;
#X connect 9 0 17 0;
#X connect 12 0 15 0;
#X connect 12 1 16 0;
#X connect 13 0 27 1;
#X connect 14 0 13 1;
#X connect 15 0 13 2;
#X connect 16 0 25 0;
#X connect 16 0 13 3;
#X connect 22 0 9 0;
#X connect 25 0 29 0;
#X connect 26 0 8 0;
#X connect 27 0 26 0;
#X connect 28 0 27 0;
#X connect 28 1 26 1;
#X connect 28 2 13 0;
#X connect 29 0 30 0;
#X connect 30 0 18 0;
#X connect 35 0 12 0;
#X connect 36 0 12 0;
#X connect 37 0 6 0;
#X connect 38 0 39 0;
#X coords 0 -1 1 1 165 93 2 0 0;
