#N canvas 1906 -12 1920 1009 12;
#X obj 202 186 inlet;
#X obj 25 187 inlet, f 6;
#X obj 241 373 tgl 20 0 empty empty RECORD-Q 23 10 0 12 #fcfcfc #000000 #000000 0 1;
#X obj 202 397 spigot;
#X listbox 55 531 10 0 0 0 - - - 0;
#X msg 323 73 -1, f 8;
#X obj 154 26 bng 20 250 50 0 \$0-clear-seq \$0-i-clear-seq-dummy CLEAR 23 10 0 12 #fcfcfc #000000 #000000;
#X obj 55 574 text insert \$0-sequence 1e+09;
#N canvas 778 252 483 637 seq-timer 0;
#X obj 58 270 metro 10;
#X text 120 270 Resolution:10ms;
#X obj 58 296 f;
#X obj 88 296 + 10;
#X floatatom 58 324 12 0 0 1 ms - - 0;
#X obj 58 186 inlet;
#X obj 58 530 outlet;
#X obj 58 508 s \$0-i-abs-time;
#X floatatom 124 119 16 0 0 2 ABSOLUTE-BAR-TIME \$0-i-abs-time \$0-abs-time-dummy 0;
#X obj 58 215 t b b;
#X text 57 166 START-TIMING;
#X obj 290 188 inlet;
#X text 288 169 BAR-DURATION;
#X floatatom 290 212 5 0 0 0 - - - 0;
#X obj 107 187 bng 20 250 50 0 empty empty empty 0 -10 0 12 #fcfcfc #000000 #000000;
#X obj 111 374 sel 1;
#X msg 58 242 1;
#X msg 90 242 0;
#X obj 111 414 t b b;
#X obj 111 451 f;
#X msg 143 450 0;
#X text 159 374 WHEN TIME > (BAR DURATION + THRESHOLD): \; 1 - STOP METRO \; 2 - SETS GUI TO BAR DURATION \; 3 - SENDS OUTPUT TO STOP LISTENING TO MIDI \;, f 44;
#X obj 219 527 outlet;
#X obj 111 351 expr if($f1 > $f2+5 \, 1 \, 0);
#X connect 0 0 2 0;
#X connect 2 0 3 0;
#X connect 2 0 4 0;
#X connect 3 0 2 1;
#X connect 4 0 6 0;
#X connect 4 0 7 0;
#X connect 4 0 23 0;
#X connect 5 0 9 0;
#X connect 9 0 16 0;
#X connect 9 1 17 0;
#X connect 11 0 13 0;
#X connect 13 0 19 1;
#X connect 13 0 23 1;
#X connect 14 0 9 0;
#X connect 15 0 18 0;
#X connect 16 0 0 0;
#X connect 17 0 2 1;
#X connect 18 0 19 0;
#X connect 18 1 20 0;
#X connect 19 0 7 0;
#X connect 19 0 4 0;
#X connect 20 0 0 0;
#X connect 20 0 22 0;
#X connect 23 0 15 0;
#X coords 0 -1 1 1 165 45 2 100 100;
#X restore 202 460 pd seq-timer;
#X obj 55 505 f;
#X obj 323 95 text delete \$0-sequence;
#X obj 25 720 outlet;
#X obj 70 550 s \$0-i-recorded;
#X listbox 5 74 16 0 0 1 SNAPPED[ms] \$0-i-recorded \$0-recorded-dummy 0;
#X obj 202 514 s \$0-i-absolute-time;
#X floatatom 5 52 16 0 0 1 TIME[ms] \$0-i-absolute-time \$0-absolute-time-dummy 0;
#X obj 323 51 r \$0-clear-seq;
#X obj 95 26 bng 20 250 50 0 \$0-trig \$0-i-trig TRIG 23 10 0 12 #fcfcfc #000000 #000000;
#X obj 509 52 text define -k \$0-sequence;
#A set;
#X msg 509 28 sort, f 5;
#X obj 698 526 text sequence \$0-sequence;
#X msg 657 686 step;
#X obj 698 700 del;
#X obj 698 576 t b f;
#X floatatom 748 575 5 0 0 0 - - - 0;
#X obj 748 628 -;
#X msg 800 627 0;
#X obj 748 599 t f f;
#X floatatom 748 651 5 0 0 1 NEXT-BANG-IN\ (ms) - - 0;
#X obj 698 476 t b b, f 15;
#N canvas 928 677 450 197 save-text 0;
#X obj 27 36 savestate;
#X obj 87 76 text tolist \$0-sequence;
#X obj 27 118 text fromlist \$0-sequence;
#X connect 0 0 2 0;
#X connect 0 1 1 0;
#X connect 1 0 0 0;
#X restore 568 28 pd save-text;
#X obj 25 253 r \$0-trig;
#X obj 5 26 tgl 20 0 \$0-UI-rec \$0-i-UI-rec RECORD-Q 23 10 0 12 #8a8a8e #000000 #000000 0 1;
#X obj 225 48 loadbang;
#X msg 225 71 0;
#X obj 241 350 r \$0-UI-rec;
#X obj 225 95 s \$0-i-UI-rec;
#X obj 360 183 inlet;
#X floatatom 360 209 5 0 0 1 BAR-DURATION - - 0;
#X obj 25 458 bng 20 250 50 0 empty empty empty 0 -10 0 12 #fcfcfc #000000 #000000;
#X obj 55 478 spigot;
#X obj 94 456 tgl 20 0 empty empty LISTEN 23 10 0 12 #fcfcfc #000000 #000000 0 1;
#X msg 94 433 1;
#X msg 130 436 0;
#X text 23 234 GUI-BANG, f 9;
#X obj 202 209 t b b;
#X text 2 2 (1-BAR)-DRUM SEQUENCER;
#X text 247 -2 VERSION 3 - REAL-TIME 1-BAR DRUM/ONESHOT SEQUENCER;
#X obj 25 214 s \$0-i-trig;
#X text 199 534 FOR GUI SHOW ONLY;
#X text 196 151 LAUNCH (BANG), f 6;
#X text 25 151 MIDI (BANG), f 6;
#X text 358 163 BAR-DURATION[ms];
#X obj 76 317 cnv 20 330 22 empty empty RECORDING\ ONLY 65 12 0 20 #ff0400 #000000 0;
#X obj 668 299 cnv 20 330 22 empty empty PLAYBACK 100 12 0 20 #00ff04 #000000 0;
#X text 48 603 WHEN LAUNCHED \, IF RECORD-Q ON (ONLY MANUALLY):::: \; 1- INCOMING TRIGGER BANGS ARE "LISTENED" TO \; 2- ABSOLUTE BAR TIMER WILL START \; 3- FOR EACH INCOMING TRIGGER BANG \, TIME INFORMATION WILL BE INSERTED TO THE END OF \$0-sequence \; 4- WHEN BAR DURATION IS FINISHED WITHOUT IF NO RE-LAUNCH \, STOPS LISTENING \;, f 51;
#N canvas 857 314 450 286 REC-COLOR 0;
#X obj 62 13 inlet;
#X obj 62 70 sel 1 0, f 32;
#X msg 62 111 color #ff0000;
#X obj 62 157 s \$0-i-UI-rec;
#X msg 172 111 color #8a8a8e;
#X obj 113 13 loadbang;
#X msg 113 38 0;
#X connect 0 0 1 0;
#X connect 1 0 2 0;
#X connect 1 1 4 0;
#X connect 2 0 3 0;
#X connect 4 0 3 0;
#X connect 5 0 6 0;
#X connect 6 0 1 0;
#X restore 55 388 pd REC-COLOR;
#X obj 698 552 f;
#X text 678 322 WHEN LAUNCHED: \; - TEXT SEQUENCE OUTPUTS THE TIME IN WHICH FIRST BANG IS RECORDED \; - THIS IS SET AS A DELAY THAT AFTER WHICH FIRST BANG WILL BE OUTPUTTED \; - BANG OUTPUT WILL ALSO "STEP" THE \$0-sequence. AND DIFFERENCE BETWEEN THE NEXT BANG TIME AND PREVIOUS ONE IS THE NEW DELAY TIME., f 46;
#X text 699 41 TEXT FILE CONTAIN ABSOLUTE BAR TIME OF EACH RECORDED TRIGGER, f 31;
#X text 508 77 WHEN RECORD/APPEND A NEW TRIGGER TO A RUNNING RECORDED SEQUENCE \, 1) WE HEAR THE TRIGGER DIRECTLY WHEN PLAYED \, 2) IT WILL MESS UP THE CURRENT ON-GOING "TEXT SEQUENCE \$0-SEQUENCE". POTENTIAL CORRECTION IS TO KEEP RECORDED TRIGGERS IN ANOTHER "BUFFER" TEXT SEQUENCE AND APPEND AND SORT THEM INTO MAIN \$0-SEQUENCE AT THE BEGINNING OF THE LAUNCH (TRY LATER)., f 62;
#X obj 748 699 expr $f1*$f2/$f3;
#X obj 373 233 s \$0-ACT-BAR-DUR;
#X obj 802 675 r \$0-ACT-BAR-DUR;
#X obj 869 699 r \$0-REC-BAR-DUR;
#X obj 394 439 pack f f;
#X msg 394 417 0;
#X obj 447 416 r \$0-ACT-BAR-DUR;
#X obj 394 461 text set \$0-sequence 0, f 33;
#X obj 394 393 sel 1;
#X msg 698 502 line 1 \, step, f 16;
#X msg 889 496 line 0 \, step;
#X obj 889 521 text sequence \$0-sequence, f 13;
#X obj 889 582 s \$0-REC-BAR-DUR;
#X floatatom 748 735 5 0 0 0 - - - 0;
#X obj 889 559 unpack f f;
#X text 393 481 SAVING BAR-DURATION WHEN RECORDING-QUEUE TRUNS ON MANUALLY, f 33;
#X text 1468 18 RECORDING PART \; ------------------------------------------------------------ \; IF RECORD QUEUE IS ON \, WHEN LAUNCH BANG ARRIVES \, TIMER WILL START RUNNING AND SEQUNCER WILL START RECORDING MIDI BANG AT ITS INLET AS WELL AS BANG FROM GUI. WITH EACH ARRIVING BANG THE TIMING OF THE BANG WILL BE INSERTED INTO \$0-SEQUNCE. IF NO NEW LAUNCH ARRIVES \, AFTER (BAR-DURATION+THRESHOLD) RECORDING OF MIDI WILL BE TURNED OFF BUT IT WILL STILL OUTPUT THE BANG FOR LISTENING PURPOSE., f 62;
#X text 1465 172 PLAYBACK PART \; ------------------------------------------------------------ \; WITH LAUNCH BANG ARRIVED \, TEXT SEQUNECE WILL OUTPUT THE BANGS WITH CORRECT TIMING. THIS PROCESS IS COMPLETELY SEPARATE BUT PARALLEL TO RECORDING (IF ACTIVE)., f 62;
#X text 593 763 ROOM FOR IMPROVEMENT \; ------------------------------------------------------------ \; CHANGE OF PLAYBACK SPEED (WHEN BAR DURATION CHANGES) IS DONE THROUGH: \; 1) READING ACTUAL BAR-DURATION (\$0-ACT-BAR-DUR) AS SOON AS RECORD-Q IS TURNED ON MANUALLY AND KEEPING IT ALWAYS AT THE TOP OF THE \$0-SEQUENCE TEXT --> \$0-REC-BAR-DUR. \; 2) WHEN SEQUENCER IS LAUNCHED \, \$0-REC-BAR-DUR IS READ FROM \$0-SEQUENCE AND PLAYBACK SPEED IS CHANGED BY SCALING DELAY TIME OF "TEXT SEQUENCE" STEPS WITH A SCALE OF ACTUAL/RECORDED BAR DURATION. \; ----> WORKS BUT I DONT LIKE THE LOGIC. ABSOLUTE-BAR-TIME SHOULD BE USED TO TRIGGER SAVED SEQUENCES IN TEXT-FILE (A COMPARISON FOR EXAMPLE OR == OBJECT) \;, f 62;
#X text 1464 276 NOTES: \; ------------------------------------------------------------ \; - DURATION OF THE SEQUNCER IS ONLY 1 BAR \; ------------------------------------------------------------ \; - IF \$0-SEQUNECE IS EMPTY (NOTHING RECORDED IN IT YET) \, WITH LAUNCH TEXT SEQUNCE WILL OUTPUT AN OUT OF RANGE ERROR. IT IS FINE. IGNORE IT \; ------------------------------------------------------------ \; - IF SORT RIGHT AFTER EVERY NEW MIDI RECORDED -> "TEXT SEQUENCE \$0-SEQUENCE" WILL LOSE COUNT OF WHAT IT IS OUTPUTTING WITH STEP MESSAGE -> SORT WITH A LAUNCH BANG AND EVEN IF COULD POSSIBLY MAKE MISTAKE FIRST TIME IF NEW MIDI IS VERY CLOSE TO THE BEGINNING OF THE BAR \, NEXT TIME WILL BE FINE \; ------------------------------------------------------------ \; - SYNCHRONIZATION IS MADE SURE WITH (RE)STARTING THE SEQUNCER USING THE LAUNCHER BANG \; ------------------------------------------------------------ \; - RECORD-QUEUE WILL ONLY BE TURNED-ON AND OFF MANUALLY \; ------------------------------------------------------------ \; - IF NEXT LAUNCH ARRIVES AT THE END OF BAR-DURATION \, THRESHOLD WILL NEVER REACH AND SO RECORDING WILL STAY ACTIVE. ------------------------------------------------------------ \; - VELOCITY INFO IF USING MPD IS NOT RECORDED SINCE NOT GOOD AT FINGER DRUMMING ANYWAYS \; ------------------------------------------------------------ \; - KEEP TEXT FILE CLOSED WHILE PLAYING OTHERWISE MIGHT EXPERIENCE LAGGING \; ------------------------------------------------------------ \;, f 62;
#X connect 0 0 45 0;
#X connect 1 0 48 0;
#X connect 2 0 3 1;
#X connect 2 0 69 0;
#X connect 3 0 8 0;
#X connect 3 0 42 0;
#X connect 4 0 7 0;
#X connect 4 0 12 0;
#X connect 5 0 10 0;
#X connect 8 0 9 1;
#X connect 8 0 14 0;
#X connect 8 1 43 0;
#X connect 9 0 4 0;
#X connect 16 0 5 0;
#X connect 19 0 18 0;
#X connect 20 0 57 0;
#X connect 21 0 20 0;
#X connect 22 0 21 0;
#X connect 22 0 11 0;
#X connect 23 0 22 0;
#X connect 23 1 24 0;
#X connect 24 0 27 0;
#X connect 25 0 28 0;
#X connect 26 0 25 1;
#X connect 27 0 25 1;
#X connect 27 1 25 0;
#X connect 28 0 61 0;
#X connect 29 0 70 0;
#X connect 29 1 26 0;
#X connect 29 1 71 0;
#X connect 31 0 39 0;
#X connect 33 0 34 0;
#X connect 34 0 36 0;
#X connect 35 0 2 0;
#X connect 37 0 38 0;
#X connect 38 0 8 1;
#X connect 38 0 62 0;
#X connect 39 0 11 0;
#X connect 39 0 40 0;
#X connect 40 0 9 0;
#X connect 41 0 40 1;
#X connect 41 0 56 0;
#X connect 42 0 41 0;
#X connect 43 0 41 0;
#X connect 45 0 3 0;
#X connect 45 0 29 0;
#X connect 45 1 19 0;
#X connect 57 0 23 0;
#X connect 61 0 22 1;
#X connect 61 0 74 0;
#X connect 63 0 61 1;
#X connect 64 0 61 2;
#X connect 65 0 68 0;
#X connect 66 0 65 0;
#X connect 67 0 65 1;
#X connect 69 0 66 0;
#X connect 70 0 20 0;
#X connect 71 0 72 0;
#X connect 72 0 75 0;
#X connect 75 1 73 0;
#X coords 0 -1 1 1 218 100 2 0 0;
