#N canvas 81 38 1082 940 12;
#X obj 21 197 sel 1 2 3 4 5 6 7 8 9 10 11 12 13 14 15 16, f 63;
#X obj 21 412 del;
#X obj 48 412 del;
#X obj 21 468 t b b, f 2;
#X obj 48 468 t b b, f 2;
#X obj 75 468 t b b, f 2;
#X obj 103 468 t b b, f 2;
#X obj 75 412 del;
#X obj 103 412 del;
#X obj 130 412 del;
#X obj 157 412 del;
#X obj 185 412 del;
#X obj 212 412 del;
#X obj 240 412 del;
#X obj 267 412 del;
#X obj 294 412 del;
#X obj 322 412 del;
#X obj 349 412 del;
#X obj 376 412 del;
#X obj 404 412 del;
#X obj 431 412 del;
#X obj 21 281 spigot;
#X obj 48 305 spigot;
#X obj 75 281 spigot;
#X obj 103 305 spigot;
#X obj 130 281 spigot;
#X obj 157 305 spigot;
#X obj 185 281 spigot;
#X obj 212 305 spigot;
#X obj 240 281 spigot;
#X obj 267 305 spigot;
#X obj 294 281 spigot;
#X obj 322 305 spigot;
#X obj 349 281 spigot;
#X obj 376 305 spigot;
#X obj 404 281 spigot;
#X obj 431 305 spigot;
#X obj 21 613 bng 20 250 50 0 empty empty empty 0 -10 0 12 #fcfcfc #000000 #000000;
#X obj 48 613 bng 20 250 50 0 empty empty empty 0 -10 0 12 #fcfcfc #000000 #000000;
#X obj 75 613 bng 20 250 50 0 empty empty empty 0 -10 0 12 #fcfcfc #000000 #000000;
#X obj 103 613 bng 20 250 50 0 empty empty empty 0 -10 0 12 #fcfcfc #000000 #000000;
#X obj 130 613 bng 20 250 50 0 empty empty empty 0 -10 0 12 #fcfcfc #000000 #000000;
#X obj 157 613 bng 20 250 50 0 empty empty empty 0 -10 0 12 #fcfcfc #000000 #000000;
#X obj 185 613 bng 20 250 50 0 empty empty empty 0 -10 0 12 #fcfcfc #000000 #000000;
#X obj 212 613 bng 20 250 50 0 empty empty empty 0 -10 0 12 #fcfcfc #000000 #000000;
#X obj 240 613 bng 20 250 50 0 empty empty empty 0 -10 0 12 #fcfcfc #000000 #000000;
#X obj 267 613 bng 20 250 50 0 empty empty empty 0 -10 0 12 #fcfcfc #000000 #000000;
#X obj 294 613 bng 20 250 50 0 empty empty empty 0 -10 0 12 #fcfcfc #000000 #000000;
#X obj 322 613 bng 20 250 50 0 empty empty empty 0 -10 0 12 #fcfcfc #000000 #000000;
#X obj 349 613 bng 20 250 50 0 empty empty empty 0 -10 0 12 #fcfcfc #000000 #000000;
#X obj 376 613 bng 20 250 50 0 empty empty empty 0 -10 0 12 #fcfcfc #000000 #000000;
#X obj 404 613 bng 20 250 50 0 empty empty empty 0 -10 0 12 #fcfcfc #000000 #000000;
#X obj 431 613 bng 20 250 50 0 empty empty empty 0 -10 0 12 #fcfcfc #000000 #000000;
#X obj 130 468 t b b, f 2;
#X obj 157 468 t b b, f 2;
#X obj 185 468 t b b, f 2;
#X obj 212 468 t b b, f 2;
#X obj 240 468 t b b, f 2;
#X obj 267 468 t b b, f 2;
#X obj 294 468 t b b, f 2;
#X obj 322 468 t b b, f 2;
#X obj 349 468 t b b, f 2;
#X obj 376 468 t b b, f 2;
#X obj 404 468 t b b, f 2;
#X obj 431 468 t b b, f 2;
#X obj 60 228 r \$0-1, f 3;
#X obj 87 228 r \$0-2, f 3;
#X obj 114 228 r \$0-3, f 3;
#X obj 142 228 r \$0-4, f 3;
#X obj 169 228 r \$0-5, f 3;
#X obj 196 228 r \$0-6, f 3;
#X obj 224 228 r \$0-7, f 3;
#X obj 251 228 r \$0-8, f 3;
#X obj 279 228 r \$0-9, f 3;
#X obj 306 228 r \$0-10, f 3;
#X obj 333 228 r \$0-11, f 3;
#X obj 360 228 r \$0-12, f 3;
#X obj 388 228 r \$0-13, f 3;
#X obj 415 228 r \$0-14, f 3;
#X obj 443 228 r \$0-15, f 3;
#X obj 470 228 r \$0-16, f 3;
#X obj 39 358 r \$0-x1, f 3;
#X obj 66 358 r \$0-x2, f 3;
#X obj 93 358 r \$0-x3, f 3;
#X obj 121 358 r \$0-x4, f 3;
#X obj 148 358 r \$0-x5, f 3;
#X obj 175 358 r \$0-x6, f 3;
#X obj 203 358 r \$0-x7, f 3;
#X obj 230 358 r \$0-x8, f 3;
#X obj 258 358 r \$0-x9, f 3;
#X obj 285 358 r \$0-x10, f 3;
#X obj 312 358 r \$0-x11, f 3;
#X obj 340 358 r \$0-x12, f 3;
#X obj 367 358 r \$0-x13, f 3;
#X obj 394 358 r \$0-x14, f 3;
#X obj 422 358 r \$0-x15, f 3;
#X obj 449 358 r \$0-x16, f 3;
#X obj 31 521 s \$0-iy1, f 2;
#X obj 58 521 s \$0-iy2, f 2;
#X obj 86 521 s \$0-iy3, f 2;
#X obj 113 521 s \$0-iy4, f 2;
#X obj 140 521 s \$0-iy5, f 2;
#X obj 167 521 s \$0-iy6, f 2;
#X obj 195 521 s \$0-iy7, f 2;
#X obj 222 521 s \$0-iy8, f 2;
#X obj 250 521 s \$0-iy9, f 2;
#X obj 277 521 s \$0-iy10, f 2;
#X obj 305 521 s \$0-iy11, f 2;
#X obj 333 521 s \$0-iy12, f 2;
#X obj 360 521 s \$0-iy13, f 2;
#X obj 387 521 s \$0-iy14, f 2;
#X obj 415 521 s \$0-iy15, f 2;
#X obj 442 521 s \$0-iy16, f 2;
#X floatatom 320 784 5 0 0 0 - - - 0;
#X obj 342 696 r \$0-y2, f 2;
#X obj 364 696 r \$0-y3, f 2;
#X obj 386 696 r \$0-y4, f 2;
#X obj 408 696 r \$0-y5, f 2;
#X obj 430 696 r \$0-y6, f 2;
#X obj 452 696 r \$0-y7, f 2;
#X obj 474 696 r \$0-y8, f 2;
#X obj 496 696 r \$0-y9, f 2;
#X obj 518 696 r \$0-y10, f 2;
#X obj 540 696 r \$0-y11, f 2;
#X obj 562 696 r \$0-y12, f 2;
#X obj 584 696 r \$0-y13, f 2;
#X obj 605 696 r \$0-y14, f 2;
#X obj 626 696 r \$0-y15, f 2;
#X obj 647 696 r \$0-y16, f 2;
#X obj 21 802 outlet;
#X obj 320 696 r \$0-y1, f 2;
#X obj 320 809 outlet;
#X text 359 785 STEP-VEL;
#X text 456 613 STEP-BANG-OUT;
#X obj 515 217 bng 20 250 50 0 empty empty empty 0 -10 0 12 #ff0400 #000000 #000000;
#X msg 515 260 0;
#X msg 553 237 error: to many steps;
#X obj 553 260 print -n;
#X obj 515 285 s i-clock-on;
#N canvas 838 409 776 352 step-flash 0;
#X obj 155 10 inlet;
#X obj 155 68 t b f;
#X obj 282 11 r \$0-local-bang;
#X symbolatom 282 111 19 0 0 0 - - - 0;
#X obj 187 266 makefilename;
#X obj 282 86 makefilename %d-i%%i;
#X obj 91 123 del 50;
#X msg 17 123 color #000000, f 8;
#X msg 91 147 color #ffffff, f 8;
#X symbolatom 433 111 19 0 0 0 - - - 0;
#X symbolatom 590 111 19 0 0 0 - - - 0;
#X obj 433 86 makefilename %d-ix%%i;
#X obj 590 86 makefilename %d-iy%%i;
#X obj 279 266 makefilename;
#X obj 373 267 makefilename;
#X obj 17 200 s \$0-color;
#X obj 102 267 r \$0-color;
#X obj 282 37 f \$0;
#X obj 169 308 s;
#X obj 261 311 s;
#X obj 355 311 s;
#X msg 282 135 set \$1;
#X msg 433 135 set \$1;
#X msg 590 135 set \$1;
#X text 494 207 WHEN PATCH LOADED THE STEPS \, SWINGS AND VELOCITIES RECIEVING NAME FORMAT IS MADE AND SET. THEN WHEN STEP IS ARRIVED \, NAMING WILL BE COMPLITER AND INPUTTER TO SEND (S) RIGHT INPUT AND COLOR WILL BE INPUTTED IN THE LEFT (APPLIED), f 37;
#X connect 0 0 1 0;
#X connect 1 0 7 0;
#X connect 1 0 6 0;
#X connect 1 1 4 0;
#X connect 1 1 13 0;
#X connect 1 1 14 0;
#X connect 2 0 17 0;
#X connect 3 0 21 0;
#X connect 4 0 18 1;
#X connect 5 0 3 0;
#X connect 6 0 8 0;
#X connect 7 0 15 0;
#X connect 8 0 15 0;
#X connect 9 0 22 0;
#X connect 10 0 23 0;
#X connect 11 0 9 0;
#X connect 12 0 10 0;
#X connect 13 0 19 1;
#X connect 14 0 20 1;
#X connect 16 0 18 0;
#X connect 16 0 19 0;
#X connect 16 0 20 0;
#X connect 17 0 5 0;
#X connect 17 0 11 0;
#X connect 17 0 12 0;
#X connect 21 0 4 0;
#X connect 22 0 13 0;
#X connect 23 0 14 0;
#X restore 136 175 pd step-flash;
#X obj 841 10 loadbang;
#N canvas 101 69 766 342 timed-counter 0;
#X obj 45 104 metro;
#X obj 45 129 bng 20 250 50 0 empty empty empty 0 -10 0 12 #fcfcfc #000000 #000000;
#X obj 45 155 f;
#X obj 75 155 + 1;
#X obj 45 179 + 1;
#X obj 45 77 tgl 20 0 empty empty empty 0 -10 0 12 #fcfcfc #000000 #000000 0 1;
#X floatatom 45 202 5 0 0 0 - - - 0;
#X obj 98 221 sel;
#X msg 98 246 0;
#X obj 45 27 inlet;
#X text 43 6 START;
#X msg 45 52 1;
#X obj 114 27 inlet;
#X floatatom 114 53 5 0 0 0 - - - 0;
#X obj 45 302 outlet;
#X text 93 303 STEP;
#X obj 243 27 inlet;
#X text 242 8 NUMEBR-OF-STEPS;
#X text 113 7 STEP-DURATION;
#X floatatom 134 221 5 0 0 0 - - - 0;
#X obj 136 95 t f f;
#X obj 233 226 sel 0;
#X text 231 165 RESET IF CLOCK TURNED OFF SUDDENLY, f 19;
#X obj 233 201 r clock-on;
#X text 406 41 FIRST WITH PATCH LOAD \, NUMBER OF STEPS ARE SET. THEN WHEN MASTER-CLOCK ON \, STEP DURATION WILL BE RECIEVED FROM PARENT SET IN THE METRO. LASTLY WHEN RUN BANK BANG ARRIVES \, COUNTER WILL COUNT WITH CORRECT TIMING FROM 1 TO STEP SIZE., f 39;
#X connect 0 0 1 0;
#X connect 1 0 2 0;
#X connect 2 0 3 0;
#X connect 2 0 4 0;
#X connect 3 0 2 1;
#X connect 4 0 6 0;
#X connect 5 0 0 0;
#X connect 6 0 7 0;
#X connect 6 0 14 0;
#X connect 7 0 8 0;
#X connect 8 0 20 0;
#X connect 9 0 11 0;
#X connect 11 0 5 0;
#X connect 12 0 13 0;
#X connect 13 0 0 1;
#X connect 16 0 19 0;
#X connect 19 0 7 1;
#X connect 20 0 2 1;
#X connect 20 1 5 0;
#X connect 21 0 8 0;
#X connect 23 0 21 0;
#X restore 21 132 pd timed-counter;
#X f 38;
#X floatatom 21 156 5 0 0 0 - - - 0;
#X obj 21 26 inlet;
#X obj 152 26 inlet;
#X floatatom 152 56 5 0 0 1 BAR-DURATION - - 0;
#X obj 152 79 /;
#X floatatom 152 103 9 0 0 1 STEP-DURATION - - 0;
#X text 20 8 RUN-BANK(BANG);
#X text 151 7 BAR-DURATION;
#X text 14 444 -- TRIGGERING STEP VELOCITIES AND STEPS;
#X text 12 338 -- SETTING DELAYS;
#X floatatom 967 54 5 0 0 3 MAYBE-USEFUL - - 0;
#X obj 967 30 f \$1;
#X obj 841 39 s \$0-local-bang;
#N canvas 166 132 578 247 set-swing-range 0;
#X obj 14 52 t b f;
#X floatatom 14 30 4 0 10000 0 - - - 0;
#X obj 14 75 pack 0 0, f 11;
#X obj 14 176 s \$0-ix1, f 4;
#X obj 48 176 s \$0-ix2, f 4;
#X obj 82 176 s \$0-ix3, f 4;
#X obj 116 176 s \$0-ix4, f 4;
#X obj 150 176 s \$0-ix5, f 4;
#X obj 184 176 s \$0-ix6, f 4;
#X obj 218 176 s \$0-ix7, f 4;
#X obj 252 176 s \$0-ix8, f 4;
#X obj 286 176 s \$0-ix9, f 4;
#X obj 320 176 s \$0-ix10, f 4;
#X obj 354 176 s \$0-ix11, f 4;
#X obj 388 176 s \$0-ix12, f 4;
#X obj 422 176 s \$0-ix13, f 4;
#X obj 456 176 s \$0-ix14, f 4;
#X obj 490 176 s \$0-ix15, f 4;
#X obj 524 176 s \$0-ix16, f 4;
#X obj 14 5 inlet;
#X msg 14 97 range \$1 \$2;
#X text 138 4 SETS RANGE OF SWING GUI \, CONSIDERING STEP DURATION (INLET);
#X connect 0 0 2 0;
#X connect 0 1 2 1;
#X connect 1 0 0 0;
#X connect 2 0 20 0;
#X connect 19 0 1 0;
#X connect 20 0 3 0;
#X connect 20 0 18 0;
#X connect 20 0 17 0;
#X connect 20 0 16 0;
#X connect 20 0 15 0;
#X connect 20 0 14 0;
#X connect 20 0 13 0;
#X connect 20 0 12 0;
#X connect 20 0 11 0;
#X connect 20 0 10 0;
#X connect 20 0 9 0;
#X connect 20 0 8 0;
#X connect 20 0 7 0;
#X connect 20 0 6 0;
#X connect 20 0 5 0;
#X connect 20 0 4 0;
#X restore 394 122 pd set-swing-range;
#X obj 645 21 inlet;
#X text 645 3 OPEN-GUI(BANG);
#X obj 285 35 r \$0-local-bang;
#X msg 285 59 16, f 5;
#N canvas 239 466 363 529 PARAMETER-GUI-\$0-\$1 0;
#X obj 128 51 tgl 20 0 \$0-1 \$0-i1 empty 0 -10 0 12 #ffffff #000000 #000000 0 1;
#X obj 148 51 tgl 20 0 \$0-2 \$0-i2 empty 0 -10 0 12 #ffffff #000000 #000000 0 1;
#X obj 168 51 tgl 20 0 \$0-3 \$0-i3 empty 0 -10 0 12 #ffffff #000000 #000000 0 1;
#X obj 188 51 tgl 20 0 \$0-4 \$0-i4 empty 0 -10 0 12 #ffffff #000000 #000000 0 1;
#X obj 128 73 tgl 20 0 \$0-5 \$0-i5 empty 0 -10 0 12 #ffffff #000000 #000000 0 1;
#X obj 148 73 tgl 20 0 \$0-6 \$0-i6 empty 0 -10 0 12 #ffffff #000000 #000000 0 1;
#X obj 168 73 tgl 20 0 \$0-7 \$0-i7 empty 0 -10 0 12 #ffffff #000000 #000000 0 1;
#X obj 188 73 tgl 20 0 \$0-8 \$0-i8 empty 0 -10 0 12 #ffffff #000000 #000000 0 1;
#X obj 128 96 tgl 20 0 \$0-9 \$0-i9 empty 0 -10 0 12 #ffffff #000000 #000000 0 1;
#X obj 148 96 tgl 20 0 \$0-10 \$0-i10 empty 0 -10 0 12 #ffffff #000000 #000000 0 1;
#X obj 168 96 tgl 20 0 \$0-11 \$0-i11 empty 0 -10 0 12 #ffffff #000000 #000000 0 1;
#X obj 188 96 tgl 20 0 \$0-12 \$0-i12 empty 0 -10 0 12 #ffffff #000000 #000000 0 1;
#X obj 128 119 tgl 20 0 \$0-13 \$0-i13 empty 0 -10 0 12 #ffffff #000000 #000000 0 1;
#X obj 148 119 tgl 20 0 \$0-14 \$0-i14 empty 0 -10 0 12 #ffffff #000000 #000000 0 1;
#X obj 168 119 tgl 20 0 \$0-15 \$0-i15 empty 0 -10 0 12 #ffffff #000000 #000000 0 1;
#X obj 188 119 tgl 20 0 \$0-16 \$0-i16 empty 0 -10 0 12 #ffffff #000000 #000000 0 1;
#X obj 128 162 vsl 20 25 0 272.727 0 0 \$0-x1 \$0-ix1 empty 0 -9 0 12 #ffffff #000000 #000000 0 1;
#X obj 148 162 vsl 20 25 0 272.727 0 0 \$0-x2 \$0-ix2 empty 0 -9 0 12 #ffffff #000000 #000000 0 1;
#X obj 168 162 vsl 20 25 0 272.727 0 0 \$0-x3 \$0-ix3 empty 0 -9 0 12 #ffffff #000000 #000000 0 1;
#X obj 188 162 vsl 20 25 0 272.727 0 0 \$0-x4 \$0-ix4 empty 0 -9 0 12 #ffffff #000000 #000000 0 1;
#X obj 128 194 vsl 20 25 0 272.727 0 0 \$0-x5 \$0-ix5 empty 0 -9 0 12 #ffffff #000000 #000000 0 1;
#X obj 148 194 vsl 20 25 0 272.727 0 0 \$0-x6 \$0-ix6 empty 0 -9 0 12 #ffffff #000000 #000000 0 1;
#X obj 168 194 vsl 20 25 0 272.727 0 0 \$0-x7 \$0-ix7 empty 0 -9 0 12 #ffffff #000000 #000000 0 1;
#X obj 188 194 vsl 20 25 0 272.727 0 0 \$0-x8 \$0-ix8 empty 0 -9 0 12 #ffffff #000000 #000000 0 1;
#X obj 128 226 vsl 20 25 0 272.727 0 0 \$0-x9 \$0-ix9 empty 0 -9 0 12 #ffffff #000000 #000000 0 1;
#X obj 148 226 vsl 20 25 0 272.727 0 0 \$0-x10 \$0-ix10 empty 0 -9 0 12 #ffffff #000000 #000000 0 1;
#X obj 168 226 vsl 20 25 0 272.727 0 0 \$0-x11 \$0-ix11 empty 0 -9 0 12 #ffffff #000000 #000000 0 1;
#X obj 188 226 vsl 20 25 0 272.727 0 0 \$0-x12 \$0-ix12 empty 0 -9 0 12 #ffffff #000000 #000000 0 1;
#X obj 128 258 vsl 20 25 0 272.727 0 0 \$0-x13 \$0-ix13 empty 0 -9 0 12 #ffffff #000000 #000000 0 1;
#X obj 148 258 vsl 20 25 0 272.727 0 0 \$0-x14 \$0-ix14 empty 0 -9 0 12 #ffffff #000000 #000000 0 1;
#X obj 168 258 vsl 20 25 0 272.727 0 0 \$0-x15 \$0-ix15 empty 0 -9 0 12 #ffffff #000000 #000000 0 1;
#X obj 188 258 vsl 20 25 0 272.727 0 0 \$0-x16 \$0-ix16 empty 0 -9 0 12 #ffffff #000000 #000000 0 1;
#X text 147 140 SWING;
#X obj 129 309 vsl 20 25 0 1 0 0 \$0-y1 \$0-iy1 empty 0 -9 0 12 #ffffff #000000 #000000 0 1;
#X obj 149 309 vsl 20 25 0 1 0 0 \$0-y2 \$0-iy2 empty 0 -9 0 12 #ffffff #000000 #000000 0 1;
#X obj 169 309 vsl 20 25 0 1 0 0 \$0-y3 \$0-iy3 empty 0 -9 0 12 #ffffff #000000 #000000 0 1;
#X obj 189 309 vsl 20 25 0 1 0 0 \$0-y4 \$0-iy4 empty 0 -9 0 12 #ffffff #000000 #000000 0 1;
#X obj 129 341 vsl 20 25 0 1 0 0 \$0-y5 \$0-iy5 empty 0 -9 0 12 #ffffff #000000 #000000 0 1;
#X obj 149 341 vsl 20 25 0 1 0 0 \$0-y6 \$0-iy6 empty 0 -9 0 12 #ffffff #000000 #000000 0 1;
#X obj 169 341 vsl 20 25 0 1 0 0 \$0-y7 \$0-iy7 empty 0 -9 0 12 #ffffff #000000 #000000 0 1;
#X obj 189 341 vsl 20 25 0 1 0 0 \$0-y8 \$0-iy8 empty 0 -9 0 12 #ffffff #000000 #000000 0 1;
#X obj 129 373 vsl 20 25 0 1 0 0 \$0-y9 \$0-iy9 empty 0 -9 0 12 #ffffff #000000 #000000 0 1;
#X obj 149 373 vsl 20 25 0 1 0 0 \$0-y10 \$0-iy10 empty 0 -9 0 12 #ffffff #000000 #000000 0 1;
#X obj 169 373 vsl 20 25 0 1 0 0 \$0-y11 \$0-iy11 empty 0 -9 0 12 #ffffff #000000 #000000 0 1;
#X obj 189 373 vsl 20 25 0 1 0 0 \$0-y12 \$0-iy12 empty 0 -9 0 12 #ffffff #000000 #000000 0 1;
#X obj 129 405 vsl 20 25 0 1 0 0 \$0-y13 \$0-iy13 empty 0 -9 0 12 #ffffff #000000 #000000 0 1;
#X obj 149 405 vsl 20 25 0 1 0 0 \$0-y14 \$0-iy14 empty 0 -9 0 12 #ffffff #000000 #000000 0 1;
#X obj 169 405 vsl 20 25 0 1 0 0 \$0-y15 \$0-iy15 empty 0 -9 0 12 #ffffff #000000 #000000 0 1;
#X obj 189 405 vsl 20 25 0 1 0 0 \$0-y16 \$0-iy16 empty 0 -9 0 12 #ffffff #000000 #000000 0 1;
#X text 137 287 VELOCITY;
#X text 151 31 STEP;
#X obj 129 438 bng 20 250 50 0 \$0-save \$0-i-save S 6 10 0 12 #fcfcfc #000000 #000000;
#X obj 159 438 bng 20 250 50 0 \$0-Load \$0-i-Load L 6 10 0 12 #fcfcfc #000000 #000000;
#X obj 189 438 bng 20 250 50 0 \$0-clear \$0-i-clear C 6 10 0 12 #fcfcfc #000000 #000000;
#X restore 592 157 pd PARAMETER-GUI-\$0-\$1;
#X msg 645 79 \; pd-PARAMETER-GUI-\$1-\$2 vis 1;
#X obj 645 52 pack \$0 \$1;
#X obj 774 803 outlet;
#X obj 428 27 inlet;
#N canvas 955 270 727 393 PARAMETER-MANAGENMENT 0;
#N canvas 650 178 590 404 switches 0;
#X obj 23 16 r \$0-1, f 3;
#X obj 23 71 t b f, f 2;
#X obj 52 71 t b f, f 2;
#X obj 81 71 t b f, f 2;
#X obj 110 71 t b f, f 2;
#X obj 139 71 t b f, f 2;
#X obj 169 71 t b f, f 2;
#X obj 198 71 t b f, f 2;
#X obj 227 71 t b f, f 2;
#X obj 256 71 t b f, f 2;
#X obj 285 71 t b f, f 2;
#X obj 315 71 t b f, f 2;
#X obj 344 71 t b f, f 2;
#X obj 373 71 t b f, f 2;
#X obj 402 71 t b f, f 2;
#X obj 431 71 t b f, f 2;
#X obj 461 71 t b f, f 2;
#X obj 34 146 pack f f f f f f f f f f f f f f f f, f 63;
#X obj 52 16 r \$0-2, f 3;
#X obj 81 16 r \$0-3, f 3;
#X obj 110 16 r \$0-4, f 3;
#X obj 139 16 r \$0-5, f 3;
#X obj 168 16 r \$0-6, f 3;
#X obj 197 16 r \$0-7, f 3;
#X obj 226 16 r \$0-8, f 3;
#X obj 255 16 r \$0-9, f 3;
#X obj 284 16 r \$0-10, f 3;
#X obj 313 16 r \$0-11, f 3;
#X obj 342 16 r \$0-12, f 3;
#X obj 371 16 r \$0-13, f 3;
#X obj 400 16 r \$0-14, f 3;
#X obj 429 16 r \$0-15, f 3;
#X obj 458 16 r \$0-16, f 3;
#X obj 21 295 unpack f f f f f f f f f f f f f f f f, f 69;
#X obj 21 320 s \$0-i1, f 3;
#X obj 53 320 s \$0-i2, f 3;
#X obj 85 320 s \$0-i3, f 3;
#X obj 117 320 s \$0-i4, f 3;
#X obj 149 320 s \$0-i5, f 3;
#X obj 181 320 s \$0-i6, f 3;
#X obj 213 320 s \$0-i7, f 3;
#X obj 245 320 s \$0-i8, f 3;
#X obj 277 320 s \$0-i9, f 3;
#X obj 309 320 s \$0-i10, f 3;
#X obj 341 320 s \$0-i11, f 3;
#X obj 373 320 s \$0-i12, f 3;
#X obj 405 320 s \$0-i13, f 3;
#X obj 437 320 s \$0-i14, f 3;
#X obj 469 320 s \$0-i15, f 3;
#X obj 501 320 s \$0-i16, f 3;
#X obj 34 173 text set \$0-loc-parameters 0 1;
#X obj 21 268 inlet;
#X text 520 104 <- SAVE;
#X text 520 229 <- LOAD;
#X connect 0 0 1 0;
#X connect 1 0 17 0;
#X connect 1 1 17 0;
#X connect 2 0 17 0;
#X connect 2 1 17 1;
#X connect 3 0 17 0;
#X connect 3 1 17 2;
#X connect 4 0 17 0;
#X connect 4 1 17 3;
#X connect 5 0 17 0;
#X connect 5 1 17 4;
#X connect 6 0 17 0;
#X connect 6 1 17 5;
#X connect 7 0 17 0;
#X connect 7 1 17 6;
#X connect 8 0 17 0;
#X connect 8 1 17 7;
#X connect 9 0 17 0;
#X connect 9 1 17 8;
#X connect 10 0 17 0;
#X connect 10 1 17 9;
#X connect 11 0 17 0;
#X connect 11 1 17 10;
#X connect 12 0 17 0;
#X connect 12 1 17 11;
#X connect 13 0 17 0;
#X connect 13 1 17 12;
#X connect 14 0 17 0;
#X connect 14 1 17 13;
#X connect 15 0 17 0;
#X connect 15 1 17 14;
#X connect 16 0 17 0;
#X connect 16 1 17 15;
#X connect 17 0 50 0;
#X connect 18 0 2 0;
#X connect 19 0 3 0;
#X connect 20 0 4 0;
#X connect 21 0 5 0;
#X connect 22 0 6 0;
#X connect 23 0 7 0;
#X connect 24 0 8 0;
#X connect 25 0 9 0;
#X connect 26 0 10 0;
#X connect 27 0 11 0;
#X connect 28 0 12 0;
#X connect 29 0 13 0;
#X connect 30 0 14 0;
#X connect 31 0 15 0;
#X connect 32 0 16 0;
#X connect 33 0 34 0;
#X connect 33 1 35 0;
#X connect 33 2 36 0;
#X connect 33 3 37 0;
#X connect 33 4 38 0;
#X connect 33 5 39 0;
#X connect 33 6 40 0;
#X connect 33 7 41 0;
#X connect 33 8 42 0;
#X connect 33 9 43 0;
#X connect 33 10 44 0;
#X connect 33 11 45 0;
#X connect 33 12 46 0;
#X connect 33 13 47 0;
#X connect 33 14 48 0;
#X connect 33 15 49 0;
#X connect 51 0 33 0;
#X restore 21 297 pd switches;
#N canvas 205 179 622 380 swings 0;
#X obj 23 71 t b f, f 2;
#X obj 52 71 t b f, f 2;
#X obj 81 71 t b f, f 2;
#X obj 110 71 t b f, f 2;
#X obj 139 71 t b f, f 2;
#X obj 169 71 t b f, f 2;
#X obj 198 71 t b f, f 2;
#X obj 227 71 t b f, f 2;
#X obj 256 71 t b f, f 2;
#X obj 285 71 t b f, f 2;
#X obj 315 71 t b f, f 2;
#X obj 344 71 t b f, f 2;
#X obj 373 71 t b f, f 2;
#X obj 402 71 t b f, f 2;
#X obj 431 71 t b f, f 2;
#X obj 461 71 t b f, f 2;
#X obj 34 146 pack f f f f f f f f f f f f f f f f, f 63;
#X obj 17 268 unpack f f f f f f f f f f f f f f f f, f 69;
#X obj 23 16 r \$0-x1, f 3;
#X obj 52 16 r \$0-x2, f 3;
#X obj 81 16 r \$0-x3, f 3;
#X obj 110 16 r \$0-x4, f 3;
#X obj 139 16 r \$0-x5, f 3;
#X obj 168 16 r \$0-x6, f 3;
#X obj 197 16 r \$0-x7, f 3;
#X obj 226 16 r \$0-x8, f 3;
#X obj 255 16 r \$0-x9, f 3;
#X obj 284 16 r \$0-x10, f 3;
#X obj 313 16 r \$0-x11, f 3;
#X obj 342 16 r \$0-x12, f 3;
#X obj 371 16 r \$0-x13, f 3;
#X obj 400 16 r \$0-x14, f 3;
#X obj 429 16 r \$0-x15, f 3;
#X obj 458 16 r \$0-x16, f 3;
#X obj 17 293 s \$0-ix1, f 3;
#X obj 49 293 s \$0-ix2, f 3;
#X obj 81 293 s \$0-ix3, f 3;
#X obj 113 293 s \$0-ix4, f 3;
#X obj 145 293 s \$0-ix5, f 3;
#X obj 177 293 s \$0-ix6, f 3;
#X obj 209 293 s \$0-ix7, f 3;
#X obj 241 293 s \$0-ix8, f 3;
#X obj 273 293 s \$0-ix9, f 3;
#X obj 305 293 s \$0-ix10, f 3;
#X obj 337 293 s \$0-ix11, f 3;
#X obj 369 293 s \$0-ix12, f 3;
#X obj 401 293 s \$0-ix13, f 3;
#X obj 433 293 s \$0-ix14, f 3;
#X obj 465 293 s \$0-ix15, f 3;
#X obj 497 293 s \$0-ix16, f 3;
#X obj 34 176 text set \$0-loc-parameters 0 17;
#X obj 17 240 inlet;
#X text 520 104 <- SAVE;
#X text 520 229 <- LOAD;
#X connect 0 0 16 0;
#X connect 0 1 16 0;
#X connect 1 0 16 0;
#X connect 1 1 16 1;
#X connect 2 0 16 0;
#X connect 2 1 16 2;
#X connect 3 0 16 0;
#X connect 3 1 16 3;
#X connect 4 0 16 0;
#X connect 4 1 16 4;
#X connect 5 0 16 0;
#X connect 5 1 16 5;
#X connect 6 0 16 0;
#X connect 6 1 16 6;
#X connect 7 0 16 0;
#X connect 7 1 16 7;
#X connect 8 0 16 0;
#X connect 8 1 16 8;
#X connect 9 0 16 0;
#X connect 9 1 16 9;
#X connect 10 0 16 0;
#X connect 10 1 16 10;
#X connect 11 0 16 0;
#X connect 11 1 16 11;
#X connect 12 0 16 0;
#X connect 12 1 16 12;
#X connect 13 0 16 0;
#X connect 13 1 16 13;
#X connect 14 0 16 0;
#X connect 14 1 16 14;
#X connect 15 0 16 0;
#X connect 15 1 16 15;
#X connect 16 0 50 0;
#X connect 17 0 34 0;
#X connect 17 1 35 0;
#X connect 17 2 36 0;
#X connect 17 3 37 0;
#X connect 17 4 38 0;
#X connect 17 5 39 0;
#X connect 17 6 40 0;
#X connect 17 7 41 0;
#X connect 17 8 42 0;
#X connect 17 9 43 0;
#X connect 17 10 44 0;
#X connect 17 11 45 0;
#X connect 17 12 46 0;
#X connect 17 13 47 0;
#X connect 17 14 48 0;
#X connect 17 15 49 0;
#X connect 18 0 0 0;
#X connect 19 0 1 0;
#X connect 20 0 2 0;
#X connect 21 0 3 0;
#X connect 22 0 4 0;
#X connect 23 0 5 0;
#X connect 24 0 6 0;
#X connect 25 0 7 0;
#X connect 26 0 8 0;
#X connect 27 0 9 0;
#X connect 28 0 10 0;
#X connect 29 0 11 0;
#X connect 30 0 12 0;
#X connect 31 0 13 0;
#X connect 32 0 14 0;
#X connect 33 0 15 0;
#X connect 51 0 17 0;
#X restore 65 271 pd swings;
#N canvas 290 178 629 392 velocities 0;
#X obj 23 71 t b f, f 2;
#X obj 52 71 t b f, f 2;
#X obj 81 71 t b f, f 2;
#X obj 110 71 t b f, f 2;
#X obj 139 71 t b f, f 2;
#X obj 169 71 t b f, f 2;
#X obj 198 71 t b f, f 2;
#X obj 227 71 t b f, f 2;
#X obj 256 71 t b f, f 2;
#X obj 285 71 t b f, f 2;
#X obj 315 71 t b f, f 2;
#X obj 344 71 t b f, f 2;
#X obj 373 71 t b f, f 2;
#X obj 402 71 t b f, f 2;
#X obj 431 71 t b f, f 2;
#X obj 461 71 t b f, f 2;
#X obj 34 146 pack f f f f f f f f f f f f f f f f, f 63;
#X obj 20 254 unpack f f f f f f f f f f f f f f f f, f 69;
#X obj 20 279 s \$0-iy1, f 3;
#X obj 52 279 s \$0-iy2, f 3;
#X obj 84 279 s \$0-iy3, f 3;
#X obj 116 279 s \$0-iy4, f 3;
#X obj 148 279 s \$0-iy5, f 3;
#X obj 180 279 s \$0-iy6, f 3;
#X obj 212 279 s \$0-iy7, f 3;
#X obj 244 279 s \$0-iy8, f 3;
#X obj 308 279 s \$0-iy10, f 3;
#X obj 340 279 s \$0-iy11, f 3;
#X obj 372 279 s \$0-iy12, f 3;
#X obj 404 279 s \$0-iy13, f 3;
#X obj 436 279 s \$0-iy14, f 3;
#X obj 468 279 s \$0-iy15, f 3;
#X obj 500 279 s \$0-iy16, f 3;
#X obj 458 16 r \$0-y16, f 3;
#X obj 429 16 r \$0-y15, f 3;
#X obj 400 16 r \$0-y14, f 3;
#X obj 371 16 r \$0-y13, f 3;
#X obj 342 16 r \$0-y12, f 3;
#X obj 313 16 r \$0-y11, f 3;
#X obj 284 16 r \$0-y10, f 3;
#X obj 255 16 r \$0-y9, f 3;
#X obj 226 16 r \$0-y8, f 3;
#X obj 197 16 r \$0-y7, f 3;
#X obj 168 16 r \$0-y6, f 3;
#X obj 139 16 r \$0-y5, f 3;
#X obj 110 16 r \$0-y4, f 3;
#X obj 81 16 r \$0-y3, f 3;
#X obj 52 16 r \$0-y2, f 3;
#X obj 23 16 r \$0-y1, f 3;
#X obj 276 279 s \$0-iy9, f 3;
#X obj 34 173 text set \$0-loc-parameters 0 33;
#X obj 20 225 inlet;
#X text 520 104 <- SAVE;
#X text 520 229 <- LOAD;
#X connect 0 0 16 0;
#X connect 0 1 16 0;
#X connect 1 0 16 0;
#X connect 1 1 16 1;
#X connect 2 0 16 0;
#X connect 2 1 16 2;
#X connect 3 0 16 0;
#X connect 3 1 16 3;
#X connect 4 0 16 0;
#X connect 4 1 16 4;
#X connect 5 0 16 0;
#X connect 5 1 16 5;
#X connect 6 0 16 0;
#X connect 6 1 16 6;
#X connect 7 0 16 0;
#X connect 7 1 16 7;
#X connect 8 0 16 0;
#X connect 8 1 16 8;
#X connect 9 0 16 0;
#X connect 9 1 16 9;
#X connect 10 0 16 0;
#X connect 10 1 16 10;
#X connect 11 0 16 0;
#X connect 11 1 16 11;
#X connect 12 0 16 0;
#X connect 12 1 16 12;
#X connect 13 0 16 0;
#X connect 13 1 16 13;
#X connect 14 0 16 0;
#X connect 14 1 16 14;
#X connect 15 0 16 0;
#X connect 15 1 16 15;
#X connect 16 0 50 0;
#X connect 17 0 18 0;
#X connect 17 1 19 0;
#X connect 17 2 20 0;
#X connect 17 3 21 0;
#X connect 17 4 22 0;
#X connect 17 5 23 0;
#X connect 17 6 24 0;
#X connect 17 7 25 0;
#X connect 17 8 49 0;
#X connect 17 9 26 0;
#X connect 17 10 27 0;
#X connect 17 11 28 0;
#X connect 17 12 29 0;
#X connect 17 13 30 0;
#X connect 17 14 31 0;
#X connect 17 15 32 0;
#X connect 33 0 15 0;
#X connect 34 0 14 0;
#X connect 35 0 13 0;
#X connect 36 0 12 0;
#X connect 37 0 11 0;
#X connect 38 0 10 0;
#X connect 39 0 9 0;
#X connect 40 0 8 0;
#X connect 41 0 7 0;
#X connect 42 0 6 0;
#X connect 43 0 5 0;
#X connect 44 0 4 0;
#X connect 45 0 3 0;
#X connect 46 0 2 0;
#X connect 47 0 1 0;
#X connect 48 0 0 0;
#X connect 51 0 17 0;
#X restore 109 247 pd velocities;
#X obj 81 15 text define -k \$0-loc-parameters;
#A set 0 0 0 0 0 0 0 0 0 0 0 0 0 0 0 0 0 0 0 0 0 0 0 0 0 0 0 0 0 0 0 0 0 0 0 0 0 0 0 0 0 0 0 0 0 0 0 0 0 \;;
#N canvas 262 250 551 438 clear-all 0;
#X obj 20 80 s \$0-i1, f 3;
#X obj 52 80 s \$0-i2, f 3;
#X obj 84 80 s \$0-i3, f 3;
#X obj 116 80 s \$0-i4, f 3;
#X obj 148 80 s \$0-i5, f 3;
#X obj 180 80 s \$0-i6, f 3;
#X obj 212 80 s \$0-i7, f 3;
#X obj 244 80 s \$0-i8, f 3;
#X obj 276 80 s \$0-i9, f 3;
#X obj 308 80 s \$0-i10, f 3;
#X obj 340 80 s \$0-i11, f 3;
#X obj 372 80 s \$0-i12, f 3;
#X obj 404 80 s \$0-i13, f 3;
#X obj 436 80 s \$0-i14, f 3;
#X obj 468 80 s \$0-i15, f 3;
#X obj 500 80 s \$0-i16, f 3;
#X obj 22 212 s \$0-ix1, f 3;
#X obj 54 212 s \$0-ix2, f 3;
#X obj 86 212 s \$0-ix3, f 3;
#X obj 118 212 s \$0-ix4, f 3;
#X obj 150 212 s \$0-ix5, f 3;
#X obj 182 212 s \$0-ix6, f 3;
#X obj 214 212 s \$0-ix7, f 3;
#X obj 246 212 s \$0-ix8, f 3;
#X obj 278 212 s \$0-ix9, f 3;
#X obj 310 212 s \$0-ix10, f 3;
#X obj 342 212 s \$0-ix11, f 3;
#X obj 374 212 s \$0-ix12, f 3;
#X obj 406 212 s \$0-ix13, f 3;
#X obj 438 212 s \$0-ix14, f 3;
#X obj 470 212 s \$0-ix15, f 3;
#X obj 502 212 s \$0-ix16, f 3;
#X obj 23 354 s \$0-iy1, f 3;
#X obj 55 354 s \$0-iy2, f 3;
#X obj 87 354 s \$0-iy3, f 3;
#X obj 119 354 s \$0-iy4, f 3;
#X obj 151 354 s \$0-iy5, f 3;
#X obj 183 354 s \$0-iy6, f 3;
#X obj 215 354 s \$0-iy7, f 3;
#X obj 247 354 s \$0-iy8, f 3;
#X obj 311 354 s \$0-iy10, f 3;
#X obj 343 354 s \$0-iy11, f 3;
#X obj 375 354 s \$0-iy12, f 3;
#X obj 407 354 s \$0-iy13, f 3;
#X obj 439 354 s \$0-iy14, f 3;
#X obj 471 354 s \$0-iy15, f 3;
#X obj 503 354 s \$0-iy16, f 3;
#X msg 20 40 0;
#X msg 22 173 0;
#X obj 279 354 s \$0-iy9, f 3;
#X obj 20 12 r \$0-clear;
#X obj 22 148 r \$0-clear;
#X obj 23 288 r \$0-clear;
#X msg 23 313 0;
#X connect 47 0 0 0;
#X connect 47 0 15 0;
#X connect 47 0 14 0;
#X connect 47 0 13 0;
#X connect 47 0 12 0;
#X connect 47 0 11 0;
#X connect 47 0 10 0;
#X connect 47 0 9 0;
#X connect 47 0 8 0;
#X connect 47 0 7 0;
#X connect 47 0 6 0;
#X connect 47 0 5 0;
#X connect 47 0 4 0;
#X connect 47 0 3 0;
#X connect 47 0 2 0;
#X connect 47 0 1 0;
#X connect 48 0 16 0;
#X connect 48 0 31 0;
#X connect 48 0 30 0;
#X connect 48 0 29 0;
#X connect 48 0 28 0;
#X connect 48 0 27 0;
#X connect 48 0 26 0;
#X connect 48 0 25 0;
#X connect 48 0 24 0;
#X connect 48 0 23 0;
#X connect 48 0 22 0;
#X connect 48 0 21 0;
#X connect 48 0 20 0;
#X connect 48 0 19 0;
#X connect 48 0 18 0;
#X connect 48 0 17 0;
#X connect 50 0 47 0;
#X connect 51 0 48 0;
#X connect 52 0 53 0;
#X connect 53 0 32 0;
#X connect 53 0 46 0;
#X connect 53 0 45 0;
#X connect 53 0 44 0;
#X connect 53 0 43 0;
#X connect 53 0 42 0;
#X connect 53 0 41 0;
#X connect 53 0 40 0;
#X connect 53 0 39 0;
#X connect 53 0 38 0;
#X connect 53 0 37 0;
#X connect 53 0 36 0;
#X connect 53 0 35 0;
#X connect 53 0 34 0;
#X connect 53 0 33 0;
#X connect 53 0 49 0;
#X restore 21 331 pd clear-all;
#X obj 81 40 loadbang;
#X obj 81 65 f \$1;
#X obj 81 90 text set \$0-loc-parameters 0 0;
#X text 149 35 WITH LOADBANG FIRST ELEMENT OF THE ROW IS THE SELECTOR (BANK NUMBER) AND PARAMETERS ARE SET STARTING FROM ELEMENT 1 (SWITCH 1), f 43;
#X obj 21 14 inlet;
#X listbox 21 126 20 0 0 1 ALL\ PARAMS\ WITH\ SELECTOR\ TRIMMED\ OUTSIDE\ THE\ ABSTRACTION - - 0;
#X text 181 146 NOW: TO SEPARATE THE PARAMETERS AND ROUTE THEM CORRECTLY TO SWITCHES \, SWINGS \, VELOCITIES, f 46;
#X obj 21 197 list split 16;
#X obj 65 222 list split 16;
#X connect 5 0 6 0;
#X connect 6 0 7 0;
#X connect 9 0 10 0;
#X connect 10 0 12 0;
#X connect 12 0 0 0;
#X connect 12 1 13 0;
#X connect 13 0 1 0;
#X connect 13 1 2 0;
#X restore 592 133 pd PARAMETER-MANAGENMENT;
#X msg 774 742 line 0 \, step;
#X obj 774 717 r \$0-save;
#X obj 774 767 text sequence \$0-loc-parameters;
#X text 774 666 WHEN SAVED \, OUTLET TO THE STEP-SEQUENCER (PARENT PATCH) TO BE KEPT WITH A SAVESTATE, f 31;
#X text 468 11 SAVESTATE-PARAMS (SELECTOR TRIMMED WITH ROUTE), f 17;
#N canvas 1186 45 585 668 Functional-Description 0;
#X obj 102 102 cnv 14 155 15 empty empty FUNCTIONAL-DESCRIPTION 0 8 0 12 #ff8300 #404040 0;
#X text 27 212 INLET 1 : (BANG) RUN-BANK \; INLET 2 : BAR DURATION \; INLET 3 : SAVED BANK PARAMETERS FROM STEP-SEQUENCER ABSTRACTION \; INLET 4 : (BANG) OPEN PARAMTER GUI \; OUTLET 1: (BANG) STEP-PLAY \; OUTLET 2: STEP-VELOCITY/LOUDNESS \;, f 68;
#X text 29 348 WHEN MASTER CLOCK TURNS ON \, BAR DURATION WILL BE SENT THROGUH SIGNATURE -> STEP-SEQUENCER -> SS-BANK \; WHEN INLET 1 (BANG) ARRIVES \, STEPS WILL BE SEQUENTIALLY TRIGGERED WITH CORRECT STEP TIMING CALCULATED IN TIMED-COUNTER SUBPATCH \; PER-STEP PARAMETERS CAN BE SET DIRECTLY ON THE GUI \; WHEN SAVED (GUI BUTTON) \, THE BANK PARAMETERS WILL BE OUTPUTTED TO THE PARENT (STEP-SEQUENCER) PATCH TO BE STORED USING SAVESTATE FUNCTIONALITY \;;
#X text 31 535 TO MODIFY THE SS-BANK FOR DIFFERENT STEP NUMBER: \; 1 - MODIFY THE MESSAGE 16 TO A DIFFERENT NUMBER \; 2 - CHANGE NUMBER OF PARAMETERS IN THE STRUCTURE AND IN THE GUI \; 3- TAKE CARE OF PARAMETER MANAGEMENT TEXT FILE AND TEXT SET AND LSIT SPLIT FUNCTION PARAMETERS \;;
#X coords 0 -1 1 1 160 20 2 100 100;
#X restore 841 186 pd Functional-Description;
#X connect 0 0 21 0;
#X connect 0 1 22 0;
#X connect 0 2 23 0;
#X connect 0 3 24 0;
#X connect 0 4 25 0;
#X connect 0 5 26 0;
#X connect 0 6 27 0;
#X connect 0 7 28 0;
#X connect 0 8 29 0;
#X connect 0 9 30 0;
#X connect 0 10 31 0;
#X connect 0 11 32 0;
#X connect 0 12 33 0;
#X connect 0 13 34 0;
#X connect 0 14 35 0;
#X connect 0 15 36 0;
#X connect 0 16 134 0;
#X connect 1 0 3 0;
#X connect 2 0 4 0;
#X connect 3 0 37 0;
#X connect 3 1 97 0;
#X connect 4 0 38 0;
#X connect 4 1 98 0;
#X connect 5 0 39 0;
#X connect 5 1 99 0;
#X connect 6 0 40 0;
#X connect 6 1 100 0;
#X connect 7 0 5 0;
#X connect 8 0 6 0;
#X connect 9 0 53 0;
#X connect 10 0 54 0;
#X connect 11 0 55 0;
#X connect 12 0 56 0;
#X connect 13 0 57 0;
#X connect 14 0 58 0;
#X connect 15 0 59 0;
#X connect 16 0 60 0;
#X connect 17 0 61 0;
#X connect 18 0 62 0;
#X connect 19 0 63 0;
#X connect 20 0 64 0;
#X connect 21 0 1 0;
#X connect 22 0 2 0;
#X connect 23 0 7 0;
#X connect 24 0 8 0;
#X connect 25 0 9 0;
#X connect 26 0 10 0;
#X connect 27 0 11 0;
#X connect 28 0 12 0;
#X connect 29 0 13 0;
#X connect 30 0 14 0;
#X connect 31 0 15 0;
#X connect 32 0 16 0;
#X connect 33 0 17 0;
#X connect 34 0 18 0;
#X connect 35 0 19 0;
#X connect 36 0 20 0;
#X connect 37 0 129 0;
#X connect 38 0 129 0;
#X connect 39 0 129 0;
#X connect 40 0 129 0;
#X connect 41 0 129 0;
#X connect 42 0 129 0;
#X connect 43 0 129 0;
#X connect 44 0 129 0;
#X connect 45 0 129 0;
#X connect 46 0 129 0;
#X connect 47 0 129 0;
#X connect 48 0 129 0;
#X connect 49 0 129 0;
#X connect 50 0 129 0;
#X connect 51 0 129 0;
#X connect 52 0 129 0;
#X connect 53 0 41 0;
#X connect 53 1 101 0;
#X connect 54 0 42 0;
#X connect 54 1 102 0;
#X connect 55 0 43 0;
#X connect 55 1 103 0;
#X connect 56 0 44 0;
#X connect 56 1 104 0;
#X connect 57 0 45 0;
#X connect 57 1 105 0;
#X connect 58 0 46 0;
#X connect 58 1 106 0;
#X connect 59 0 47 0;
#X connect 59 1 107 0;
#X connect 60 0 48 0;
#X connect 60 1 108 0;
#X connect 61 0 49 0;
#X connect 61 1 109 0;
#X connect 62 0 50 0;
#X connect 62 1 110 0;
#X connect 63 0 51 0;
#X connect 63 1 111 0;
#X connect 64 0 52 0;
#X connect 64 1 112 0;
#X connect 65 0 21 1;
#X connect 66 0 22 1;
#X connect 67 0 23 1;
#X connect 68 0 24 1;
#X connect 69 0 25 1;
#X connect 70 0 26 1;
#X connect 71 0 27 1;
#X connect 72 0 28 1;
#X connect 73 0 29 1;
#X connect 74 0 30 1;
#X connect 75 0 31 1;
#X connect 76 0 32 1;
#X connect 77 0 33 1;
#X connect 78 0 34 1;
#X connect 79 0 35 1;
#X connect 80 0 36 1;
#X connect 81 0 1 1;
#X connect 82 0 2 1;
#X connect 83 0 7 1;
#X connect 84 0 8 1;
#X connect 85 0 9 1;
#X connect 86 0 10 1;
#X connect 87 0 11 1;
#X connect 88 0 12 1;
#X connect 89 0 13 1;
#X connect 90 0 14 1;
#X connect 91 0 15 1;
#X connect 92 0 16 1;
#X connect 93 0 17 1;
#X connect 94 0 18 1;
#X connect 95 0 19 1;
#X connect 96 0 20 1;
#X connect 113 0 131 0;
#X connect 114 0 113 0;
#X connect 115 0 113 0;
#X connect 116 0 113 0;
#X connect 117 0 113 0;
#X connect 118 0 113 0;
#X connect 119 0 113 0;
#X connect 120 0 113 0;
#X connect 121 0 113 0;
#X connect 122 0 113 0;
#X connect 123 0 113 0;
#X connect 124 0 113 0;
#X connect 125 0 113 0;
#X connect 126 0 113 0;
#X connect 127 0 113 0;
#X connect 128 0 113 0;
#X connect 130 0 113 0;
#X connect 134 0 135 0;
#X connect 134 0 136 0;
#X connect 135 0 138 0;
#X connect 136 0 137 0;
#X connect 140 0 153 0;
#X connect 140 0 154 0;
#X connect 141 0 142 0;
#X connect 142 0 0 0;
#X connect 142 0 139 0;
#X connect 143 0 141 0;
#X connect 144 0 145 0;
#X connect 145 0 146 0;
#X connect 146 0 147 0;
#X connect 147 0 141 1;
#X connect 147 0 155 0;
#X connect 153 0 152 0;
#X connect 156 0 162 0;
#X connect 158 0 159 0;
#X connect 159 0 146 1;
#X connect 159 0 141 2;
#X connect 162 0 161 0;
#X connect 164 0 165 0;
#X connect 166 0 168 0;
#X connect 167 0 166 0;
#X connect 168 0 163 0;
