#N canvas 447 47 1082 940 12;
#X obj 21 412 del;
#X obj 48 412 del;
#X obj 21 468 t b b, f 2;
#X obj 48 468 t b b, f 2;
#X obj 75 468 t b b, f 2;
#X obj 103 468 t b b, f 2;
#X obj 75 412 del;
#X obj 103 412 del;
#X obj 130 412 del;
#X obj 157 412 del;
#X obj 185 412 del;
#X obj 212 412 del;
#X obj 21 281 spigot;
#X obj 48 305 spigot;
#X obj 75 281 spigot;
#X obj 103 305 spigot;
#X obj 130 281 spigot;
#X obj 157 305 spigot;
#X obj 185 281 spigot;
#X obj 212 305 spigot;
#X obj 21 613 bng 20 250 50 0 empty empty empty 0 -10 0 12 #fcfcfc #000000 #000000;
#X obj 48 613 bng 20 250 50 0 empty empty empty 0 -10 0 12 #fcfcfc #000000 #000000;
#X obj 75 613 bng 20 250 50 0 empty empty empty 0 -10 0 12 #fcfcfc #000000 #000000;
#X obj 103 613 bng 20 250 50 0 empty empty empty 0 -10 0 12 #fcfcfc #000000 #000000;
#X obj 130 613 bng 20 250 50 0 empty empty empty 0 -10 0 12 #fcfcfc #000000 #000000;
#X obj 157 613 bng 20 250 50 0 empty empty empty 0 -10 0 12 #fcfcfc #000000 #000000;
#X obj 185 613 bng 20 250 50 0 empty empty empty 0 -10 0 12 #fcfcfc #000000 #000000;
#X obj 212 613 bng 20 250 50 0 empty empty empty 0 -10 0 12 #fcfcfc #000000 #000000;
#X obj 130 468 t b b, f 2;
#X obj 157 468 t b b, f 2;
#X obj 185 468 t b b, f 2;
#X obj 212 468 t b b, f 2;
#X obj 60 228 r \$0-1, f 3;
#X obj 87 228 r \$0-2, f 3;
#X obj 114 228 r \$0-3, f 3;
#X obj 142 228 r \$0-4, f 3;
#X obj 169 228 r \$0-5, f 3;
#X obj 196 228 r \$0-6, f 3;
#X obj 224 228 r \$0-7, f 3;
#X obj 251 228 r \$0-8, f 3;
#X obj 39 358 r \$0-x1, f 3;
#X obj 66 358 r \$0-x2, f 3;
#X obj 93 358 r \$0-x3, f 3;
#X obj 121 358 r \$0-x4, f 3;
#X obj 148 358 r \$0-x5, f 3;
#X obj 175 358 r \$0-x6, f 3;
#X obj 203 358 r \$0-x7, f 3;
#X obj 230 358 r \$0-x8, f 3;
#X obj 31 521 s \$0-iy1, f 2;
#X obj 58 521 s \$0-iy2, f 2;
#X obj 86 521 s \$0-iy3, f 2;
#X obj 113 521 s \$0-iy4, f 2;
#X obj 140 521 s \$0-iy5, f 2;
#X obj 167 521 s \$0-iy6, f 2;
#X obj 195 521 s \$0-iy7, f 2;
#X obj 223 521 s \$0-iy8, f 2;
#X floatatom 194 782 5 0 0 0 - - - 0;
#X obj 216 694 r \$0-y2, f 2;
#X obj 238 694 r \$0-y3, f 2;
#X obj 260 694 r \$0-y4, f 2;
#X obj 282 694 r \$0-y5, f 2;
#X obj 304 694 r \$0-y6, f 2;
#X obj 326 694 r \$0-y7, f 2;
#X obj 348 694 r \$0-y8, f 2;
#X obj 21 802 outlet;
#X obj 194 694 r \$0-y1, f 2;
#X obj 194 807 outlet;
#X text 233 783 STEP-VEL;
#X text 235 613 STEP-BANG-OUT;
#X obj 292 217 bng 20 250 50 0 empty empty empty 0 -10 0 12 #ff0400 #000000 #000000;
#X msg 292 260 0;
#X msg 330 237 error: to many steps;
#X obj 330 260 print -n;
#X obj 292 285 s i-clock-on;
#N canvas 838 409 776 352 step-flash 0;
#X obj 155 10 inlet;
#X obj 155 68 t b f;
#X obj 282 11 r \$0-local-bang;
#X symbolatom 282 111 19 0 0 0 - - - 0;
#X obj 187 266 makefilename;
#X obj 282 86 makefilename %d-i%%i;
#X obj 91 123 del 50;
#X msg 17 123 color #000000, f 8;
#X msg 91 147 color #ffffff, f 8;
#X symbolatom 433 111 19 0 0 0 - - - 0;
#X symbolatom 590 111 19 0 0 0 - - - 0;
#X obj 433 86 makefilename %d-ix%%i;
#X obj 590 86 makefilename %d-iy%%i;
#X obj 279 266 makefilename;
#X obj 373 267 makefilename;
#X obj 17 200 s \$0-color;
#X obj 102 267 r \$0-color;
#X obj 282 37 f \$0;
#X obj 169 308 s;
#X obj 261 311 s;
#X obj 355 311 s;
#X msg 282 135 set \$1;
#X msg 433 135 set \$1;
#X msg 590 135 set \$1;
#X text 494 207 WHEN PATCH LOADED THE STEPS \, SWINGS AND VELOCITIES RECIEVING NAME FORMAT IS MADE AND SET. THEN WHEN STEP IS ARRIVED \, NAMING WILL BE COMPLITER AND INPUTTER TO SEND (S) RIGHT INPUT AND COLOR WILL BE INPUTTED IN THE LEFT (APPLIED), f 37;
#X connect 0 0 1 0;
#X connect 1 0 7 0;
#X connect 1 0 6 0;
#X connect 1 1 4 0;
#X connect 1 1 13 0;
#X connect 1 1 14 0;
#X connect 2 0 17 0;
#X connect 3 0 21 0;
#X connect 4 0 18 1;
#X connect 5 0 3 0;
#X connect 6 0 8 0;
#X connect 7 0 15 0;
#X connect 8 0 15 0;
#X connect 9 0 22 0;
#X connect 10 0 23 0;
#X connect 11 0 9 0;
#X connect 12 0 10 0;
#X connect 13 0 19 1;
#X connect 14 0 20 1;
#X connect 16 0 18 0;
#X connect 16 0 19 0;
#X connect 16 0 20 0;
#X connect 17 0 5 0;
#X connect 17 0 11 0;
#X connect 17 0 12 0;
#X connect 21 0 4 0;
#X connect 22 0 13 0;
#X connect 23 0 14 0;
#X restore 136 175 pd step-flash;
#X obj 841 10 loadbang;
#N canvas 101 69 766 342 timed-counter 0;
#X obj 45 104 metro;
#X obj 45 129 bng 20 250 50 0 empty empty empty 0 -10 0 12 #fcfcfc #000000 #000000;
#X obj 45 155 f;
#X obj 75 155 + 1;
#X obj 45 179 + 1;
#X obj 45 77 tgl 20 0 empty empty empty 0 -10 0 12 #fcfcfc #000000 #000000 0 1;
#X floatatom 45 202 5 0 0 0 - - - 0;
#X obj 98 221 sel;
#X msg 98 246 0;
#X obj 45 27 inlet;
#X text 43 6 START;
#X msg 45 52 1;
#X obj 114 27 inlet;
#X floatatom 114 53 5 0 0 0 - - - 0;
#X obj 45 302 outlet;
#X text 93 303 STEP;
#X obj 243 27 inlet;
#X text 242 8 NUMEBR-OF-STEPS;
#X text 113 7 STEP-DURATION;
#X floatatom 134 221 5 0 0 0 - - - 0;
#X obj 136 95 t f f;
#X obj 233 226 sel 0;
#X text 231 165 RESET IF CLOCK TURNED OFF SUDDENLY, f 19;
#X obj 233 201 r clock-on;
#X text 406 41 FIRST WITH PATCH LOAD \, NUMBER OF STEPS ARE SET. THEN WHEN MASTER-CLOCK ON \, STEP DURATION WILL BE RECIEVED FROM PARENT SET IN THE METRO. LASTLY WHEN RUN BANK BANG ARRIVES \, COUNTER WILL COUNT WITH CORRECT TIMING FROM 1 TO STEP SIZE., f 39;
#X connect 0 0 1 0;
#X connect 1 0 2 0;
#X connect 2 0 3 0;
#X connect 2 0 4 0;
#X connect 3 0 2 1;
#X connect 4 0 6 0;
#X connect 5 0 0 0;
#X connect 6 0 7 0;
#X connect 6 0 14 0;
#X connect 7 0 8 0;
#X connect 8 0 20 0;
#X connect 9 0 11 0;
#X connect 11 0 5 0;
#X connect 12 0 13 0;
#X connect 13 0 0 1;
#X connect 16 0 19 0;
#X connect 19 0 7 1;
#X connect 20 0 2 1;
#X connect 20 1 5 0;
#X connect 21 0 8 0;
#X connect 23 0 21 0;
#X restore 21 132 pd timed-counter;
#X f 38;
#X floatatom 21 156 5 0 0 0 - - - 0;
#X obj 21 26 inlet;
#X obj 152 26 inlet;
#X floatatom 152 56 5 0 0 1 BAR-DURATION - - 0;
#X obj 152 79 /;
#X floatatom 152 103 9 0 0 1 STEP-DURATION - - 0;
#X text 20 8 RUN-BANK(BANG);
#X text 151 7 BAR-DURATION;
#X text 14 444 -- TRIGGERING STEP VELOCITIES AND STEPS;
#X text 12 338 -- SETTING DELAYS;
#X floatatom 967 54 5 0 0 3 MAYBE-USEFUL - - 0;
#X obj 967 30 f \$1;
#X obj 841 39 s \$0-local-bang;
#N canvas 166 132 578 247 set-swing-range 0;
#X obj 14 52 t b f;
#X floatatom 14 30 4 0 10000 0 - - - 0;
#X obj 14 75 pack 0 0, f 11;
#X obj 14 176 s \$0-ix1, f 4;
#X obj 48 176 s \$0-ix2, f 4;
#X obj 82 176 s \$0-ix3, f 4;
#X obj 116 176 s \$0-ix4, f 4;
#X obj 150 176 s \$0-ix5, f 4;
#X obj 184 176 s \$0-ix6, f 4;
#X obj 218 176 s \$0-ix7, f 4;
#X obj 252 176 s \$0-ix8, f 4;
#X obj 14 5 inlet;
#X msg 14 97 range \$1 \$2;
#X text 138 4 SETS RANGE OF SWING GUI \, CONSIDERING STEP DURATION (INLET);
#X connect 0 0 2 0;
#X connect 0 1 2 1;
#X connect 1 0 0 0;
#X connect 2 0 12 0;
#X connect 11 0 1 0;
#X connect 12 0 3 0;
#X connect 12 0 10 0;
#X connect 12 0 9 0;
#X connect 12 0 8 0;
#X connect 12 0 7 0;
#X connect 12 0 6 0;
#X connect 12 0 5 0;
#X connect 12 0 4 0;
#X restore 344 122 pd set-swing-range;
#X obj 645 21 inlet;
#X text 645 3 OPEN-GUI(BANG);
#X obj 285 35 r \$0-local-bang;
#N canvas 954 284 363 291 PARAMETER-GUI-\$0-\$1 0;
#X obj 93 57 tgl 20 0 \$0-1 \$0-i1 empty 0 -10 0 12 #ffffff #000000 #000000 0 1;
#X obj 113 57 tgl 20 0 \$0-2 \$0-i2 empty 0 -10 0 12 #ffffff #000000 #000000 0 1;
#X obj 133 57 tgl 20 0 \$0-3 \$0-i3 empty 0 -10 0 12 #ffffff #000000 #000000 0 1;
#X obj 153 57 tgl 20 0 \$0-4 \$0-i4 empty 0 -10 0 12 #ffffff #000000 #000000 0 1;
#X obj 173 57 tgl 20 0 \$0-5 \$0-i5 empty 0 -10 0 12 #ffffff #000000 #000000 0 1;
#X obj 193 57 tgl 20 0 \$0-6 \$0-i6 empty 0 -10 0 12 #ffffff #000000 #000000 0 1;
#X obj 213 57 tgl 20 0 \$0-7 \$0-i7 empty 0 -10 0 12 #ffffff #000000 #000000 0 1;
#X obj 233 57 tgl 20 0 \$0-8 \$0-i8 empty 0 -10 0 12 #ffffff #000000 #000000 0 1;
#X obj 93 103 vsl 20 25 0 272.727 0 0 \$0-x1 \$0-ix1 empty 0 -9 0 12 #ffffff #000000 #000000 0 1;
#X obj 113 103 vsl 20 25 0 272.727 0 0 \$0-x2 \$0-ix2 empty 0 -9 0 12 #ffffff #000000 #000000 0 1;
#X obj 133 103 vsl 20 25 0 272.727 0 0 \$0-x3 \$0-ix3 empty 0 -9 0 12 #ffffff #000000 #000000 0 1;
#X obj 153 103 vsl 20 25 0 272.727 0 0 \$0-x4 \$0-ix4 empty 0 -9 0 12 #ffffff #000000 #000000 0 1;
#X obj 173 103 vsl 20 25 0 272.727 0 0 \$0-x5 \$0-ix5 empty 0 -9 0 12 #ffffff #000000 #000000 0 1;
#X obj 193 103 vsl 20 25 0 272.727 0 0 \$0-x6 \$0-ix6 empty 0 -9 0 12 #ffffff #000000 #000000 0 1;
#X obj 213 103 vsl 20 25 0 272.727 0 0 \$0-x7 \$0-ix7 empty 0 -9 0 12 #ffffff #000000 #000000 0 1;
#X obj 233 103 vsl 20 25 0 272.727 0 0 \$0-x8 \$0-ix8 empty 0 -9 0 12 #ffffff #000000 #000000 0 1;
#X text 155 80 SWING;
#X obj 93 157 vsl 20 25 0 1 0 0 \$0-y1 \$0-iy1 empty 0 -9 0 12 #ffffff #000000 #000000 0 1;
#X obj 113 157 vsl 20 25 0 1 0 0 \$0-y2 \$0-iy2 empty 0 -9 0 12 #ffffff #000000 #000000 0 1;
#X obj 133 157 vsl 20 25 0 1 0 0 \$0-y3 \$0-iy3 empty 0 -9 0 12 #ffffff #000000 #000000 0 1;
#X obj 153 157 vsl 20 25 0 1 0 0 \$0-y4 \$0-iy4 empty 0 -9 0 12 #ffffff #000000 #000000 0 1;
#X obj 173 157 vsl 20 25 0 1 0 0 \$0-y5 \$0-iy5 empty 0 -9 0 12 #ffffff #000000 #000000 0 1;
#X obj 193 157 vsl 20 25 0 1 0 0 \$0-y6 \$0-iy6 empty 0 -9 0 12 #ffffff #000000 #000000 0 1;
#X obj 213 157 vsl 20 25 0 1 0 0 \$0-y7 \$0-iy7 empty 0 -9 0 12 #ffffff #000000 #000000 0 1;
#X obj 233 157 vsl 20 25 0 1 0 0 \$0-y8 \$0-iy8 empty 0 -9 0 12 #ffffff #000000 #000000 0 1;
#X text 143 134 VELOCITY;
#X text 159 31 STEP;
#X obj 134 192 bng 20 250 50 0 \$0-save \$0-i-save S 6 10 0 12 #fcfcfc #000000 #000000;
#X obj 164 192 bng 20 250 50 0 \$0-Load \$0-i-Load L 6 10 0 12 #fcfcfc #000000 #000000;
#X obj 194 192 bng 20 250 50 0 \$0-clear \$0-i-clear C 6 10 0 12 #fcfcfc #000000 #000000;
#X restore 646 154 pd PARAMETER-GUI-\$0-\$1;
#X msg 645 79 \; pd-PARAMETER-GUI-\$1-\$2 vis 1;
#X obj 645 52 pack \$0 \$1;
#X obj 492 807 outlet;
#X obj 428 27 inlet;
#N canvas 955 270 727 393 PARAMETER-MANAGENMENT 0;
#N canvas 650 178 494 404 switches 0;
#X obj 23 16 r \$0-1, f 3;
#X obj 23 71 t b f, f 2;
#X obj 52 71 t b f, f 2;
#X obj 81 71 t b f, f 2;
#X obj 110 71 t b f, f 2;
#X obj 139 71 t b f, f 2;
#X obj 169 71 t b f, f 2;
#X obj 198 71 t b f, f 2;
#X obj 227 71 t b f, f 2;
#X obj 52 16 r \$0-2, f 3;
#X obj 81 16 r \$0-3, f 3;
#X obj 110 16 r \$0-4, f 3;
#X obj 139 16 r \$0-5, f 3;
#X obj 168 16 r \$0-6, f 3;
#X obj 197 16 r \$0-7, f 3;
#X obj 226 16 r \$0-8, f 3;
#X obj 21 320 s \$0-i1, f 3;
#X obj 53 320 s \$0-i2, f 3;
#X obj 85 320 s \$0-i3, f 3;
#X obj 117 320 s \$0-i4, f 3;
#X obj 149 320 s \$0-i5, f 3;
#X obj 181 320 s \$0-i6, f 3;
#X obj 213 320 s \$0-i7, f 3;
#X obj 245 320 s \$0-i8, f 3;
#X obj 34 173 text set \$0-loc-parameters 0 1;
#X obj 21 268 inlet;
#X text 280 143 <- SAVE;
#X text 265 269 <- LOAD;
#X obj 34 146 pack f f f f f f f f, f 29;
#X obj 21 295 unpack f f f f f f f f, f 32;
#X connect 0 0 1 0;
#X connect 1 0 28 0;
#X connect 1 1 28 0;
#X connect 2 0 28 0;
#X connect 2 1 28 1;
#X connect 3 0 28 0;
#X connect 3 1 28 2;
#X connect 4 0 28 0;
#X connect 4 1 28 3;
#X connect 5 0 28 0;
#X connect 5 1 28 4;
#X connect 6 0 28 0;
#X connect 6 1 28 5;
#X connect 7 0 28 0;
#X connect 7 1 28 6;
#X connect 8 0 28 0;
#X connect 8 1 28 7;
#X connect 9 0 2 0;
#X connect 10 0 3 0;
#X connect 11 0 4 0;
#X connect 12 0 5 0;
#X connect 13 0 6 0;
#X connect 14 0 7 0;
#X connect 15 0 8 0;
#X connect 25 0 29 0;
#X connect 28 0 24 0;
#X connect 29 0 16 0;
#X connect 29 1 17 0;
#X connect 29 2 18 0;
#X connect 29 3 19 0;
#X connect 29 4 20 0;
#X connect 29 5 21 0;
#X connect 29 6 22 0;
#X connect 29 7 23 0;
#X restore 21 297 pd switches;
#N canvas 205 179 526 380 swings 0;
#X obj 23 71 t b f, f 2;
#X obj 52 71 t b f, f 2;
#X obj 81 71 t b f, f 2;
#X obj 110 71 t b f, f 2;
#X obj 139 71 t b f, f 2;
#X obj 169 71 t b f, f 2;
#X obj 198 71 t b f, f 2;
#X obj 227 71 t b f, f 2;
#X obj 23 16 r \$0-x1, f 3;
#X obj 52 16 r \$0-x2, f 3;
#X obj 81 16 r \$0-x3, f 3;
#X obj 110 16 r \$0-x4, f 3;
#X obj 139 16 r \$0-x5, f 3;
#X obj 168 16 r \$0-x6, f 3;
#X obj 197 16 r \$0-x7, f 3;
#X obj 226 16 r \$0-x8, f 3;
#X obj 17 293 s \$0-ix1, f 3;
#X obj 49 293 s \$0-ix2, f 3;
#X obj 81 293 s \$0-ix3, f 3;
#X obj 113 293 s \$0-ix4, f 3;
#X obj 145 293 s \$0-ix5, f 3;
#X obj 177 293 s \$0-ix6, f 3;
#X obj 209 293 s \$0-ix7, f 3;
#X obj 241 293 s \$0-ix8, f 3;
#X obj 17 240 inlet;
#X text 270 100 <- SAVE;
#X text 239 236 <- LOAD;
#X obj 34 146 pack f f f f f f f f, f 30;
#X obj 17 268 unpack f f f f f f f f, f 32;
#X obj 34 176 text set \$0-loc-parameters 0 9;
#X connect 0 0 27 0;
#X connect 0 1 27 0;
#X connect 1 0 27 0;
#X connect 1 1 27 1;
#X connect 2 0 27 0;
#X connect 2 1 27 2;
#X connect 3 0 27 0;
#X connect 3 1 27 3;
#X connect 4 0 27 0;
#X connect 4 1 27 4;
#X connect 5 0 27 0;
#X connect 5 1 27 5;
#X connect 6 0 27 0;
#X connect 6 1 27 6;
#X connect 7 0 27 0;
#X connect 7 1 27 7;
#X connect 8 0 0 0;
#X connect 9 0 1 0;
#X connect 10 0 2 0;
#X connect 11 0 3 0;
#X connect 12 0 4 0;
#X connect 13 0 5 0;
#X connect 14 0 6 0;
#X connect 15 0 7 0;
#X connect 24 0 28 0;
#X connect 27 0 29 0;
#X connect 28 0 16 0;
#X connect 28 1 17 0;
#X connect 28 2 18 0;
#X connect 28 3 19 0;
#X connect 28 4 20 0;
#X connect 28 5 21 0;
#X connect 28 6 22 0;
#X connect 28 7 23 0;
#X restore 65 271 pd swings;
#N canvas 290 178 567 392 velocities 0;
#X obj 23 71 t b f, f 2;
#X obj 52 71 t b f, f 2;
#X obj 81 71 t b f, f 2;
#X obj 110 71 t b f, f 2;
#X obj 139 71 t b f, f 2;
#X obj 169 71 t b f, f 2;
#X obj 198 71 t b f, f 2;
#X obj 227 71 t b f, f 2;
#X obj 20 279 s \$0-iy1, f 3;
#X obj 52 279 s \$0-iy2, f 3;
#X obj 84 279 s \$0-iy3, f 3;
#X obj 116 279 s \$0-iy4, f 3;
#X obj 148 279 s \$0-iy5, f 3;
#X obj 180 279 s \$0-iy6, f 3;
#X obj 212 279 s \$0-iy7, f 3;
#X obj 244 279 s \$0-iy8, f 3;
#X obj 226 16 r \$0-y8, f 3;
#X obj 197 16 r \$0-y7, f 3;
#X obj 168 16 r \$0-y6, f 3;
#X obj 139 16 r \$0-y5, f 3;
#X obj 110 16 r \$0-y4, f 3;
#X obj 81 16 r \$0-y3, f 3;
#X obj 52 16 r \$0-y2, f 3;
#X obj 23 16 r \$0-y1, f 3;
#X obj 20 225 inlet;
#X text 268 143 <- SAVE;
#X text 228 229 <- LOAD;
#X obj 34 146 pack f f f f f f f f, f 30;
#X obj 20 254 unpack f f f f f f f f, f 33;
#X obj 34 173 text set \$0-loc-parameters 0 17;
#X connect 0 0 27 0;
#X connect 0 1 27 0;
#X connect 1 0 27 0;
#X connect 1 1 27 1;
#X connect 2 0 27 0;
#X connect 2 1 27 2;
#X connect 3 0 27 0;
#X connect 3 1 27 3;
#X connect 4 0 27 0;
#X connect 4 1 27 4;
#X connect 5 0 27 0;
#X connect 5 1 27 5;
#X connect 6 0 27 0;
#X connect 6 1 27 6;
#X connect 7 0 27 0;
#X connect 7 1 27 7;
#X connect 16 0 7 0;
#X connect 17 0 6 0;
#X connect 18 0 5 0;
#X connect 19 0 4 0;
#X connect 20 0 3 0;
#X connect 21 0 2 0;
#X connect 22 0 1 0;
#X connect 23 0 0 0;
#X connect 24 0 28 0;
#X connect 27 0 29 0;
#X connect 28 0 8 0;
#X connect 28 1 9 0;
#X connect 28 2 10 0;
#X connect 28 3 11 0;
#X connect 28 4 12 0;
#X connect 28 5 13 0;
#X connect 28 6 14 0;
#X connect 28 7 15 0;
#X restore 105 247 pd velocities;
#X obj 81 15 text define -k \$0-loc-parameters;
#A set 0 0 0 0 0 0 0 0 0 0 0 0 0 0 0 0 0 0 0 0 0 0 0 0 0 \;;
#N canvas 286 332 545 462 clear-all 0;
#X obj 20 80 s \$0-i1, f 3;
#X obj 52 80 s \$0-i2, f 3;
#X obj 84 80 s \$0-i3, f 3;
#X obj 116 80 s \$0-i4, f 3;
#X obj 148 80 s \$0-i5, f 3;
#X obj 180 80 s \$0-i6, f 3;
#X obj 212 80 s \$0-i7, f 3;
#X obj 244 80 s \$0-i8, f 3;
#X obj 22 212 s \$0-ix1, f 3;
#X obj 54 212 s \$0-ix2, f 3;
#X obj 86 212 s \$0-ix3, f 3;
#X obj 118 212 s \$0-ix4, f 3;
#X obj 150 212 s \$0-ix5, f 3;
#X obj 182 212 s \$0-ix6, f 3;
#X obj 214 212 s \$0-ix7, f 3;
#X obj 246 212 s \$0-ix8, f 3;
#X obj 23 354 s \$0-iy1, f 3;
#X obj 55 354 s \$0-iy2, f 3;
#X obj 87 354 s \$0-iy3, f 3;
#X obj 119 354 s \$0-iy4, f 3;
#X obj 151 354 s \$0-iy5, f 3;
#X obj 183 354 s \$0-iy6, f 3;
#X obj 215 354 s \$0-iy7, f 3;
#X obj 247 354 s \$0-iy8, f 3;
#X msg 20 40 0;
#X msg 22 173 0;
#X obj 20 12 r \$0-clear;
#X obj 22 148 r \$0-clear;
#X obj 23 288 r \$0-clear;
#X msg 23 313 0;
#X connect 24 0 0 0;
#X connect 24 0 7 0;
#X connect 24 0 6 0;
#X connect 24 0 5 0;
#X connect 24 0 4 0;
#X connect 24 0 3 0;
#X connect 24 0 2 0;
#X connect 24 0 1 0;
#X connect 25 0 8 0;
#X connect 25 0 15 0;
#X connect 25 0 14 0;
#X connect 25 0 13 0;
#X connect 25 0 12 0;
#X connect 25 0 11 0;
#X connect 25 0 10 0;
#X connect 25 0 9 0;
#X connect 26 0 24 0;
#X connect 27 0 25 0;
#X connect 28 0 29 0;
#X connect 29 0 16 0;
#X connect 29 0 23 0;
#X connect 29 0 22 0;
#X connect 29 0 21 0;
#X connect 29 0 20 0;
#X connect 29 0 19 0;
#X connect 29 0 18 0;
#X connect 29 0 17 0;
#X restore 21 326 pd clear-all;
#X obj 81 40 loadbang;
#X obj 81 65 f \$1;
#X obj 81 90 text set \$0-loc-parameters 0 0;
#X text 149 35 WITH LOADBANG FIRST ELEMENT OF THE ROW IS THE SELECTOR (BANK NUMBER) AND PARAMETERS ARE SET STARTING FROM ELEMENT 1 (SWITCH 1), f 43;
#X obj 21 14 inlet;
#X listbox 21 126 20 0 0 1 ALL\ PARAMS\ WITH\ SELECTOR\ TRIMMED\ OUTSIDE\ THE\ ABSTRACTION - - 0;
#X text 181 146 NOW: TO SEPARATE THE PARAMETERS AND ROUTE THEM CORRECTLY TO SWITCHES \, SWINGS \, VELOCITIES, f 46;
#X obj 21 197 list split 8;
#X obj 65 222 list split 8;
#X connect 5 0 6 0;
#X connect 6 0 7 0;
#X connect 9 0 10 0;
#X connect 10 0 12 0;
#X connect 12 0 0 0;
#X connect 12 1 13 0;
#X connect 13 0 1 0;
#X connect 13 1 2 0;
#X restore 646 130 pd PARAMETER-MANAGENMENT;
#X msg 492 746 line 0 \, step;
#X obj 492 721 r \$0-save;
#X obj 492 771 text sequence \$0-loc-parameters;
#X text 492 670 WHEN SAVED \, OUTLET TO THE STEP-SEQUENCER (PARENT PATCH) TO BE KEPT WITH A SAVESTATE, f 31;
#X text 468 11 SAVESTATE-PARAMS (SELECTOR TRIMMED WITH ROUTE), f 17;
#N canvas 1186 45 585 668 Functional-Description 0;
#X obj 102 102 cnv 14 155 15 empty empty FUNCTIONAL-DESCRIPTION 0 8 0 12 #ff8300 #404040 0;
#X text 27 212 INLET 1 : (BANG) RUN-BANK \; INLET 2 : BAR DURATION \; INLET 3 : SAVED BANK PARAMETERS FROM STEP-SEQUENCER ABSTRACTION \; INLET 4 : (BANG) OPEN PARAMTER GUI \; OUTLET 1: (BANG) STEP-PLAY \; OUTLET 2: STEP-VELOCITY/LOUDNESS \;, f 68;
#X text 29 348 WHEN MASTER CLOCK TURNS ON \, BAR DURATION WILL BE SENT THROGUH SIGNATURE -> STEP-SEQUENCER -> SS-BANK \; WHEN INLET 1 (BANG) ARRIVES \, STEPS WILL BE SEQUENTIALLY TRIGGERED WITH CORRECT STEP TIMING CALCULATED IN TIMED-COUNTER SUBPATCH \; PER-STEP PARAMETERS CAN BE SET DIRECTLY ON THE GUI \; WHEN SAVED (GUI BUTTON) \, THE BANK PARAMETERS WILL BE OUTPUTTED TO THE PARENT (STEP-SEQUENCER) PATCH TO BE STORED USING SAVESTATE FUNCTIONALITY \;;
#X text 31 535 TO MODIFY THE SS-BANK FOR DIFFERENT STEP NUMBER: \; 1 - MODIFY THE MESSAGE 16 TO A DIFFERENT NUMBER \; 2 - CHANGE NUMBER OF PARAMETERS IN THE STRUCTURE AND IN THE GUI \; 3- TAKE CARE OF PARAMETER MANAGEMENT TEXT FILE AND TEXT SET AND LSIT SPLIT FUNCTION PARAMETERS \;;
#X coords 0 -1 1 1 160 20 2 100 100;
#X restore 647 184 pd Functional-Description;
#X msg 285 59 8, f 5;
#X obj 21 197 sel 1 2 3 4 5 6 7 8, f 32;
#X connect 0 0 2 0;
#X connect 1 0 3 0;
#X connect 2 0 20 0;
#X connect 2 1 48 0;
#X connect 3 0 21 0;
#X connect 3 1 49 0;
#X connect 4 0 22 0;
#X connect 4 1 50 0;
#X connect 5 0 23 0;
#X connect 5 1 51 0;
#X connect 6 0 4 0;
#X connect 7 0 5 0;
#X connect 8 0 28 0;
#X connect 9 0 29 0;
#X connect 10 0 30 0;
#X connect 11 0 31 0;
#X connect 12 0 0 0;
#X connect 13 0 1 0;
#X connect 14 0 6 0;
#X connect 15 0 7 0;
#X connect 16 0 8 0;
#X connect 17 0 9 0;
#X connect 18 0 10 0;
#X connect 19 0 11 0;
#X connect 20 0 64 0;
#X connect 21 0 64 0;
#X connect 22 0 64 0;
#X connect 23 0 64 0;
#X connect 24 0 64 0;
#X connect 25 0 64 0;
#X connect 26 0 64 0;
#X connect 27 0 64 0;
#X connect 28 0 24 0;
#X connect 28 1 52 0;
#X connect 29 0 25 0;
#X connect 29 1 53 0;
#X connect 30 0 26 0;
#X connect 30 1 54 0;
#X connect 31 0 27 0;
#X connect 31 1 55 0;
#X connect 32 0 12 1;
#X connect 33 0 13 1;
#X connect 34 0 14 1;
#X connect 35 0 15 1;
#X connect 36 0 16 1;
#X connect 37 0 17 1;
#X connect 38 0 18 1;
#X connect 39 0 19 1;
#X connect 40 0 0 1;
#X connect 41 0 1 1;
#X connect 42 0 6 1;
#X connect 43 0 7 1;
#X connect 44 0 8 1;
#X connect 45 0 9 1;
#X connect 46 0 10 1;
#X connect 47 0 11 1;
#X connect 56 0 66 0;
#X connect 57 0 56 0;
#X connect 58 0 56 0;
#X connect 59 0 56 0;
#X connect 60 0 56 0;
#X connect 61 0 56 0;
#X connect 62 0 56 0;
#X connect 63 0 56 0;
#X connect 65 0 56 0;
#X connect 69 0 70 0;
#X connect 69 0 71 0;
#X connect 70 0 73 0;
#X connect 71 0 72 0;
#X connect 75 0 88 0;
#X connect 75 0 89 0;
#X connect 76 0 77 0;
#X connect 77 0 74 0;
#X connect 77 0 107 0;
#X connect 78 0 76 0;
#X connect 79 0 80 0;
#X connect 80 0 81 0;
#X connect 81 0 82 0;
#X connect 82 0 76 1;
#X connect 82 0 90 0;
#X connect 88 0 87 0;
#X connect 91 0 96 0;
#X connect 93 0 106 0;
#X connect 96 0 95 0;
#X connect 98 0 99 0;
#X connect 100 0 102 0;
#X connect 101 0 100 0;
#X connect 102 0 97 0;
#X connect 106 0 81 1;
#X connect 106 0 76 2;
#X connect 107 0 12 0;
#X connect 107 1 13 0;
#X connect 107 2 14 0;
#X connect 107 3 15 0;
#X connect 107 4 16 0;
#X connect 107 5 17 0;
#X connect 107 6 18 0;
#X connect 107 7 19 0;
#X connect 107 8 69 0;
