#N canvas 1190 21 716 329 12;
#X obj 12 12 master-clock;
#A saved 78;
#X obj 162 12 signature;
#A saved 9 4;
#X obj 272 12 signature;
#A saved 2 4;
#X obj 380 12 signature;
#A saved 4 4;
#X obj 491 12 mpd218-controller;
#X obj 162 104 s sign-1;
#X obj 272 103 s sign-2;
#X listbox 380 82 10 0 0 0 - - - 0;
#X listbox 272 81 10 0 0 0 - - - 0;
#X listbox 162 81 10 0 0 0 - - - 0;
#X obj 380 105 s sign-3;
#X obj 492 254 output~;
#N canvas 52 20 927 977 clip-1-drumset 0;
#X obj 13 465 sp-mono;
#A saved /home/mobin/Documents/Sounds/sample-lab/percussive-001.wav;
#X obj 13 296 rt-drum-sequencer;
#A saved;
#X obj 12 69 r sign-3;
#X floatatom 277 400 13 0 0 0 - - - 0;
#X obj 131 270 r 1-End-Loop;
#X obj 72 246 r 1-Launch;
#X obj 83 46 r 1-mpd-launch-queue;
#X obj 155 70 r 1-mpd-loop;
#X obj 12 602 s~ to-mix;
#X obj 13 234 bng 20 250 50 0 empty empty empty 0 -10 0 12 #fcfcfc #000000 #000000;
#X obj 13 210 r 1-one-shot-12;
#X obj 258 32 r 1-one-shot-13;
#X obj 258 55 r 1-one-shot-14;
#X obj 258 78 r 1-one-shot-15;
#X obj 12 96 launcher 1 2;
#X obj 277 299 rt-cc-sequencer;
#A saved;
#X obj 435 271 r 1-End-Loop;
#X obj 356 271 r 1-Launch;
#X obj 277 253 / 127;
#X floatatom 277 276 5 0 0 0 - - - 0;
#X obj 277 198 r 1-CC-1;
#X obj 391 48 r 1-bar-x;
#X floatatom 391 73 5 0 0 0 - - - 0;
#X obj 280 221 hsl 100 20 0 127 0 0 empty empty empty -2 -10 0 12 #fcfcfc #000000 #000000 0 1;
#X obj 416 146 s 1-relaunch-2;
#X obj 416 122 spigot;
#X obj 467 122 tgl 20 0 empty empty empty 0 -10 0 12 #fcfcfc #000000 #000000 0 1;
#X obj 83 21 r 1-relaunch-2;
#X obj 356 246 r 1-relaunch-2;
#X obj 391 97 sel 1 2 3 4, f 15;
#X obj 674 234 r 1-End-Loop;
#X obj 593 234 r 1-Launch;
#X obj 766 259 r sign-3;
#X obj 593 259 bar-envelope 2;
#X text 585 399 To add save for bar-Envelope using save state;
#X connect 0 0 8 0;
#X connect 1 0 0 0;
#X connect 2 0 14 0;
#X connect 4 0 1 2;
#X connect 5 0 1 1;
#X connect 6 0 14 1;
#X connect 7 0 14 2;
#X connect 9 0 1 0;
#X connect 10 0 9 0;
#X connect 15 0 3 0;
#X connect 16 0 15 2;
#X connect 17 0 15 1;
#X connect 18 0 19 0;
#X connect 19 0 15 0;
#X connect 20 0 23 0;
#X connect 21 0 22 0;
#X connect 22 0 29 0;
#X connect 23 0 18 0;
#X connect 25 0 24 0;
#X connect 26 0 25 1;
#X connect 27 0 14 1;
#X connect 28 0 15 1;
#X connect 29 1 25 0;
#X connect 30 0 33 1;
#X connect 31 0 33 0;
#X connect 32 0 33 2;
#X connect 33 0 0 1;
#X restore 7 154 pd clip-1-drumset;
#X obj 492 229 r~ to-mix;
#X connect 1 0 9 0;
#X connect 2 0 8 0;
#X connect 3 0 7 0;
#X connect 7 0 10 0;
#X connect 8 0 6 0;
#X connect 9 0 5 0;
#X connect 13 0 11 0;
