#N canvas 462 44 708 346 12;
#X obj 12 12 master-clock;
#A saved 55;
#X obj 162 12 signature;
#A saved 9 4;
#X obj 272 12 signature;
#A saved 2 4;
#X obj 380 12 signature;
#A saved 4 4;
#X obj 491 12 mpd218-controller;
#X obj 162 104 s sign-1;
#X obj 272 103 s sign-2;
#X listbox 380 82 10 0 0 0 - - - 0;
#X listbox 272 81 10 0 0 0 - - - 0;
#X listbox 162 81 10 0 0 0 - - - 0;
#X obj 380 105 s sign-3;
#X obj 579 271 output~;
#N canvas 451 33 1390 947 clip-1-drumset 1;
#X obj 18 811 sp-mono;
#A saved /home/mobin/Documents/Sounds/sample-lab/percussive-001.wav;
#X obj 1075 285 rt-drum-sequencer;
#A saved;
#X floatatom 1298 400 13 0 0 0 - - - 0;
#X obj 1193 259 r 1-End-Loop;
#X obj 1134 235 r 1-Launch;
#X obj 95 71 r 1-mpd-launch-queue;
#X obj 167 95 r 1-mpd-loop;
#X obj 17 948 s~ to-mix;
#X obj 1075 223 bng 20 250 50 0 empty empty empty 0 -10 0 12 #fcfcfc #000000 #000000;
#X obj 1075 199 r 1-one-shot-12;
#X obj 526 20 r 1-one-shot-13;
#X obj 526 43 r 1-one-shot-14;
#X obj 526 66 r 1-one-shot-15;
#X obj 24 121 launcher 1 2;
#X obj 1298 299 rt-cc-sequencer;
#A saved;
#X obj 1456 271 r 1-End-Loop;
#X obj 1377 271 r 1-Launch;
#X obj 1298 253 / 127;
#X floatatom 1298 276 5 0 0 0 - - - 0;
#X obj 1298 198 r 1-CC-1;
#X obj 1301 221 hsl 100 20 0 127 0 0 empty empty empty -2 -10 0 12 #fcfcfc #000000 #000000 0 1;
#X obj 1377 246 r 1-relaunch-2;
#X obj 353 790 r 1-End-Loop;
#X obj 272 790 r 1-Launch;
#X obj 448 816 r sign-3;
#X obj 272 815 bar-envelope 2;
#X text 264 955 To add save for bar-Envelope using save state;
#X obj 24 391 step-sequencer-16;
#X floatatom 24 226 3 0 0 1 BAR-LAUNCH - - 0;
#X obj 24 71 r sign-3;
#X obj 24 250 sel 1 2, f 12;
#X obj 24 273 bng 20 250 50 0 empty empty empty 0 -10 0 12 #fcfcfc #000000 #000000;
#X obj 66 273 bng 20 250 50 0 empty empty empty 0 -10 0 12 #fcfcfc #000000 #000000;
#X floatatom 167 225 4 0 0 1 BAR-SINCE-LAUNCH - - 0;
#X obj 167 251 sel 23 56;
#X text 187 168 USING THESE TWO OUTLET FROM LAUNCHER HERE COULD DO ANYTHING I LIKE FOR CHANGING SEQUENCES, f 31;
#X obj 257 358 r sign-3;
#X msg 24 305 1;
#X msg 66 305 6;
#X text 596 166 FINISH STEP-SEQUENCER AND THEN RT ONES AND THE ENVELOPE ONES \;;
#X text 24 482 ISSUE: SAVING MAIN PATCH (THIS ONE) DOES NOT TRIGGER THE SAVESTAGE IN ss-bank-16 ABSTRACTIONS. TO TRIGGER THE SAVESTATE STEP SEQUENCER ABSTRACTION ITSELF SHOULD BE SAVED. COULD THIS BE DONE WITH A BANG MESSAGE?!?!?!?;
#X obj 560 395 step-sequencer-16;
#X text 24 550 THERE IS A BIG ISSUE OF SEPARATION BETWEEN STEP-SEQUENCER! SAVING PARAMETER IN ONE RESULT THE SAME PARAMETERS IN THE OTHER ONE. WHY? ALSO OPENING A BANK WILL OPEN ALL THE SAME BANKS TOGETHER. WHY?????;
#X connect 0 0 7 0;
#X connect 3 0 1 2;
#X connect 4 0 1 1;
#X connect 5 0 13 1;
#X connect 6 0 13 2;
#X connect 8 0 1 0;
#X connect 9 0 8 0;
#X connect 13 0 28 0;
#X connect 13 1 33 0;
#X connect 14 0 2 0;
#X connect 15 0 14 2;
#X connect 16 0 14 1;
#X connect 17 0 18 0;
#X connect 18 0 14 0;
#X connect 19 0 20 0;
#X connect 20 0 17 0;
#X connect 21 0 14 1;
#X connect 22 0 25 1;
#X connect 23 0 25 0;
#X connect 24 0 25 2;
#X connect 28 0 30 0;
#X connect 29 0 13 0;
#X connect 30 0 31 0;
#X connect 30 1 32 0;
#X connect 31 0 37 0;
#X connect 32 0 38 0;
#X connect 33 0 34 0;
#X connect 36 0 27 1;
#X restore 7 154 pd clip-1-drumset;
#X obj 579 246 r~ to-mix;
#X connect 1 0 9 0;
#X connect 2 0 8 0;
#X connect 3 0 7 0;
#X connect 7 0 10 0;
#X connect 8 0 6 0;
#X connect 9 0 5 0;
#X connect 13 0 11 0;
