#N canvas 52 20 402 977 12;
#X obj 22 29 master-clock;
#A saved 81;
#X listbox 22 82 11 0 0 0 - - - 0;
#X obj 22 101 signature;
#A saved 4 4;
#X obj 133 101 signature;
#A saved 5 4;
#X listbox 22 173 10 0 0 0 - - - 0;
#X listbox 133 173 10 0 0 0 - - - 0;
#X obj 22 196 s SIGNATURE-1;
#X obj 133 196 s SIGNATURE-2;
#X text 8 226 ----------------------------------------------------;
#X text 9 240 SCENES MANAGEMENT;
#X msg 12 271 \; LAUNCH-Q-1 bang \; LOOP-1 bang \;, f 18;
#X msg 12 326 \; LOOP-1 bang \;;
#X text 12 433 ----------------------------------------------------;
#X text 13 447 CLIPS;
#X obj 15 474 r SIGNATURE-1;
#N canvas 454 20 1452 977 CLIP-1:BEATS 1;
#X obj 37 878 snake~ out 2, f 27;
#X obj 37 904 outlet~;
#X obj 222 904 outlet~;
#X text 436 25 CHANGE-PER-CLIP (X) \; - LAUNCH-Q-X \; - LOOP-X \; - BAR-DUR-X \; - BAR-SINCE-LAUNCH-X \; - PARAM-1-X \; - PARAM-2-X \; - PARAM-n-X \;;
#X text 63 25 [1]: NOTE-NUMBER [2]: BAR-DURATION;
#X obj 43 50 unpack f f;
#X obj 121 50 s BAR-DUR-1;
#X text 207 50 BAR DURATION OF CLIP 1;
#X obj 24 129 launcher 1 2;
#X obj 95 102 bng 20 250 50 0 empty empty empty 0 -10 0 12 #fcfcfc #000000 #000000;
#X obj 167 102 bng 20 250 50 0 empty empty empty 0 -10 0 12 #fcfcfc #000000 #000000;
#X obj 95 79 r LAUNCH-Q-1;
#X obj 190 102 r LOOP-1;
#X floatatom 24 237 3 0 0 1 BAR-LAUNCHED - - 0;
#X floatatom 167 235 7 0 0 1 BAR-SINCE-LAUNCH - - 0;
#X obj 167 256 s BAR-SINCE-LAUNCH-1;
#X obj 167 278 sel 1 2 3 4 5 6 7 8 9 10 11 32 45 56;
#X obj 24 360 step-sequencer-8;
#A saved 1 1 1 1 0 1 0 1 1 0 0 34.0909 0 0 0 0 0 1 0.375 1 0 1 0 0.625 1;
#A saved 2 0 0 0 0 0 0 0 0 0 0 0 0 0 0 0 0 0 0 0 0 0 0 0 0;
#A saved 3 0 0 0 0 0 0 0 0 0 0 0 0 0 0 0 0 0 0 0 0 0 0 0 0;
#A saved 4 0 0 0 0 0 0 0 0 0 0 0 0 0 0 0 0 0 0 0 0 0 0 0 0;
#A saved 5 0 0 0 0 0 0 0 0 0 0 0 0 0 0 0 0 0 0 0 0 0 0 0 0;
#A saved 6 0 0 0 0 0 0 0 0 0 0 0 0 0 0 0 0 0 0 0 0 0 0 0 0;
#A saved 7 0 0 0 0 0 0 0 0 0 0 0 0 0 0 0 0 0 0 0 0 0 0 0 0;
#A saved 8 0 0 0 0 0 0 0 0 0 0 0 0 0 0 0 0 0 0 0 0 0 0 0 0;
#X obj 183 340 r BAR-DUR-1;
#X floatatom 24 440 5 0 1 0 - - - 0;
#X msg 24 340 1, f 1;
#X msg 42 340 2, f 1;
#X msg 59 340 3, f 1;
#X msg 76 340 4, f 1;
#X msg 93 340 5, f 1;
#X msg 110 340 6, f 1;
#X msg 127 340 7, f 1;
#X msg 144 340 8, f 1;
#X obj 24 521 sp.mono;
#A saved /home/mobin/Documents/Sounds/Samples/kalhor-spring.wav 334.771;
#X text 75 839 ADD CLIP MUTING -- A TOGGLE FROM SCENE MANAGEMENT THAT BLOCKS THE OUTPUT;
#X obj 24 462 t b f;
#X obj 24 25 inlet;
#X obj 43 75 bng 20 250 50 0 empty empty empty 0 -10 0 12 #fcfcfc #000000 #000000;
#X obj 24 265 sel 1 2 3, f 14;
#X obj 279 359 rt-drum-sequencer;
#A saved 0.0381375 \; 0.235238 \; 0.362137 \; 0.605138 \; 0.705375 \;;
#X obj 416 339 r BAR-DUR-1;
#X obj 279 445 f;
#X floatatom 376 445 5 0 0 0 - - - 0;
#X obj 309 445 clip 0 1;
#X obj 279 469 t b f;
#X obj 595 675 wt.synth.mono;
#A saved /home/mobin/Documents/Sounds/Waves/4096-test-003.wav 5 19 90 100 \;;
#X obj 595 586 bng 20 250 50 0 empty empty empty 0 -10 0 12 #fcfcfc #000000 #000000;
#X obj 650 606 del 300;
#X obj 594 857 output~;
#X msg 707 606 100, f 5;
#X obj 595 536 key;
#X obj 595 561 sel 81;
#X text 644 561 SHIFT+Q;
#X text 814 541 COULD USE STEP SEQUENCER FOR DRIVING "DRUMISH" WAVETABLE SOUNDS...JUST DECIDE ON WHICH MIDI NOTE YOU WANT IT TO HAVE AND FIX IT IN A MESSAGE...VELOCITY CAN ALSO BE FIXED OR COME FROM STEP SEQUENCER... \; OR COULD ALWAYS BE KEPT ON...AND RECEIVES A 0 VELOCITY MESSAGE ANYTIME... \;;
#X msg 595 631 12 0.8;
#X msg 650 631 12 0;
#X connect 0 0 1 0;
#X connect 0 1 2 0;
#X connect 5 0 32 0;
#X connect 5 1 6 0;
#X connect 8 0 13 0;
#X connect 8 1 14 0;
#X connect 9 0 8 1;
#X connect 10 0 8 2;
#X connect 11 0 9 0;
#X connect 12 0 10 0;
#X connect 13 0 33 0;
#X connect 14 0 15 0;
#X connect 14 0 16 0;
#X connect 17 1 19 0;
#X connect 18 0 17 1;
#X connect 19 0 30 0;
#X connect 20 0 17 0;
#X connect 21 0 17 0;
#X connect 22 0 17 0;
#X connect 23 0 17 0;
#X connect 24 0 17 0;
#X connect 25 0 17 0;
#X connect 26 0 17 0;
#X connect 27 0 17 0;
#X connect 30 0 28 0;
#X connect 30 1 28 1;
#X connect 31 0 5 0;
#X connect 31 0 8 0;
#X connect 33 0 34 1;
#X connect 33 1 21 0;
#X connect 33 2 22 0;
#X connect 34 0 36 0;
#X connect 35 0 34 2;
#X connect 36 0 39 0;
#X connect 37 0 38 0;
#X connect 38 0 36 1;
#X connect 39 0 28 0;
#X connect 39 1 28 1;
#X connect 40 0 43 0;
#X connect 41 0 42 0;
#X connect 41 0 49 0;
#X connect 42 0 50 0;
#X connect 44 0 42 1;
#X connect 45 0 46 0;
#X connect 46 0 41 0;
#X connect 49 0 40 0;
#X connect 50 0 40 0;
#X restore 15 498 pd CLIP-1:BEATS;
#X obj 23 877 output~;
#X text 7 676 ----------------------------------------------------;
#X text 12 693 MASTER;
#X obj 15 522 throw~ L;
#X obj 117 521 throw~ R;
#X obj 23 848 catch~ L;
#X obj 126 848 catch~ R;
#X connect 0 0 1 0;
#X connect 1 0 2 0;
#X connect 1 0 3 0;
#X connect 2 0 4 0;
#X connect 3 0 5 0;
#X connect 4 0 6 0;
#X connect 5 0 7 0;
#X connect 14 0 15 0;
#X connect 15 0 19 0;
#X connect 15 1 20 0;
#X connect 21 0 16 0;
#X connect 22 0 16 1;
