#N canvas 353 101 677 440 12;
#X floatatom 163 151 5 0 0 1 BPM - - 0;
#X floatatom 300 310 5 0 0 0 pulse\ duration\ (milisecond) - - 0;
#X obj 300 286 expr 60000/$f1;
#X msg 180 70 60;
#X obj 300 332 * 4;
#X floatatom 300 368 5 0 0 0 whole-note\ durations\ (milisecond) - - 0;
#X obj 300 391 s whole-note-dur;
#X text 283 5 Using Classical meaning of BPM -- BPM = beats per min -- in which beat is a quarter note and four quarter notes is a whole note --- This is just to have compatibility with classic western music signatures, f 50;
#X obj 180 47 loadbang;
#X obj 110 131 tgl 40 0 empty empty empty 0 -10 0 12 #ff0400 #000000 #000000 0 1;
#X obj 110 199 sel 1 0;
#X obj 133 232 bng 20 250 50 0 empty empty empty 0 -10 0 12 #fcfcfc #000000 #000000;
#X obj 110 232 bng 20 250 50 0 empty empty empty 0 -10 0 12 #fcfcfc #000000 #000000;
#X obj 110 70 r seq-off;
#X obj 110 286 s seq-on;
#X obj 333 340 r seq-added;
#X msg 110 257 1;
#X msg 174 257 0;
#X obj 174 286 s seq-off-manual;
#X text 129 9 Master-Clock;
#X text 14 9 VERSION 0;
#X connect 0 0 2 0;
#X connect 1 0 4 0;
#X connect 2 0 1 0;
#X connect 3 0 0 0;
#X connect 4 0 5 0;
#X connect 5 0 6 0;
#X connect 8 0 3 0;
#X connect 9 0 10 0;
#X connect 10 0 12 0;
#X connect 10 1 11 0;
#X connect 11 0 17 0;
#X connect 12 0 16 0;
#X connect 13 0 9 0;
#X connect 15 0 5 0;
#X connect 16 0 14 0;
#X connect 17 0 18 0;
#X coords 0 -1 1 1 130 80 1 100 100;
