#N canvas 66 32 1854 977 12;
#X floatatom 68 427 5 0 0 0 - - - 0;
#X obj 68 381 bng 20 250 50 0 empty empty empty 0 -10 0 12 #fcfcfc #000000 #000000;
#X obj 68 404 f;
#X obj 96 404 + 1;
#X msg 81 449 0;
#X obj 68 247 bng 20 250 50 0 empty empty midi\ in 25 10 0 12 #fcfcfc #000000 #000000;
#X floatatom 50 472 9 0 0 0 - - - 0;
#X obj 50 449 *;
#X obj 68 358 metro 50;
#X msg 32 358 50;
#X obj 68 328 spigot;
#X obj 155 247 tgl 20 0 empty empty Start\ Listening 25 10 0 12 #fcfcfc #000000 #000000 0 1;
#X obj 107 275 sel 1 0, f 16;
#X msg 107 300 1;
#X msg 161 300 0;
#X text 21 509 Building block - timing \; When Toggeled on \, Starts listening for the first midi input (here a bang) - Considering first input at time 0 with any consequetive midi input we will have time difference to previous input \; This way we have timing info for each midi input to save and replay, f 107;
#X text 11 9 VERSION 0;
#X obj 1193 187 midiin;
#X obj 1193 93 makefilename "ts":%f \, "type":"note_on" \, "note":%d \, "vel":%d;
#X obj 1191 136 notein 1;
#X text 13 49 timer/realtime do not work here since there is no toggle to stop them. Easy to do this with a counter with desired precision (50ms) with metro 50;
#X text 12 192 Make the building block for oneshot \, note \, CC sequencers;
#X text 268 6 Realtime sequencer;
#X connect 0 0 7 1;
#X connect 1 0 2 0;
#X connect 2 0 0 0;
#X connect 2 0 3 0;
#X connect 3 0 2 1;
#X connect 4 0 2 1;
#X connect 5 0 10 0;
#X connect 7 0 6 0;
#X connect 7 0 4 0;
#X connect 8 0 1 0;
#X connect 9 0 7 0;
#X connect 10 0 8 0;
#X connect 10 0 9 0;
#X connect 11 0 12 0;
#X connect 12 0 13 0;
#X connect 12 1 14 0;
#X connect 13 0 10 1;
#X connect 14 0 8 0;
#X connect 14 0 10 1;
#X connect 14 0 2 1;
