#N canvas 2155 117 1390 715 12;
#X floatatom 91 332 5 0 0 0 - - - 0;
#X obj 91 286 bng 20 250 50 0 empty empty empty 0 -10 0 12 #fcfcfc #000000 #000000;
#X obj 91 309 f;
#X obj 119 309 + 1;
#X msg 104 354 0;
#X obj 91 152 bng 20 250 50 0 empty empty midi\ in 25 10 0 12 #fcfcfc #000000 #000000;
#X floatatom 73 377 9 0 0 0 - - - 0;
#X obj 73 354 *;
#X obj 91 263 metro 50;
#X msg 55 263 50;
#X obj 91 233 spigot;
#X obj 178 152 tgl 20 0 empty empty Start\ Listening 25 10 0 12 #fcfcfc #000000 #000000 0 1;
#X obj 130 180 sel 1 0, f 16;
#X msg 130 205 1;
#X msg 184 205 0;
#X text 47 71 Building block - timing \; When Toggeled on \, Starts listening for the first midi input (here a bang) - Considering first input at time 0 with any consequetive midi input we will have time difference to previous input \; This way we have timing info for each midi input to save and replay, f 107;
#X obj 54 43 text define -k notes;
#A set todo \; get midi input using makenote \; with midi input append incremented time + contents to a text (or qlist) \; see what you need for polyphony \; watch sequencer video of msp again for some insight \;;
#X text 7 3 VERSION 0;
#X obj 731 232 realtime;
#X obj 808 232 timer;
#X obj 969 240 midiin;
#X obj 1138 236 notein;
#X obj 767 379 makefilename;
#X obj 945 366 makefilename "ts":%f \, "type":"note_on" \, "note":%d \, "vel":%d;
#X obj 1048 446 oscformat;
#X obj 1160 511 netsend;
#X msg 1118 594 connect;
#X connect 0 0 7 1;
#X connect 1 0 2 0;
#X connect 2 0 0 0;
#X connect 2 0 3 0;
#X connect 3 0 2 1;
#X connect 4 0 2 1;
#X connect 5 0 10 0;
#X connect 7 0 6 0;
#X connect 7 0 4 0;
#X connect 8 0 1 0;
#X connect 9 0 7 0;
#X connect 10 0 8 0;
#X connect 10 0 9 0;
#X connect 11 0 12 0;
#X connect 12 0 13 0;
#X connect 12 1 14 0;
#X connect 13 0 10 1;
#X connect 14 0 8 0;
#X connect 14 0 10 1;
#X connect 14 0 2 1;
