#N canvas 676 36 717 926 12;
#X obj 14 748 outlet;
#X obj 67 724 outlet;
#X obj 474 1056 hradio 20 1 0 4 \$0-bank-sel \$0-i-bank-sel empty 0 -10 0 12 #fcfcfc #000000 #000000 0;
#X obj 474 1081 bng 20 250 50 0 \$0-Save \$0-i-Save Save\ Bank 25 10 0 12 #fcfcfc #000000 #000000;
#X obj 474 1105 bng 20 250 50 0 \$0-Load \$0-i-Load Load 25 10 0 12 #fcfcfc #000000 #000000;
#X obj 474 1129 bng 20 250 50 0 \$0-Clear \$0-i-Clear Clear\ Bank 25 10 0 12 #fcfcfc #000000 #000000;
#X text 472 1035 Bank (Switch \, swing \, velocity);
#X floatatom 568 1056 5 0 0 0 - \$0-bank-sel \$0-bank-sel-dummy 0;
#N canvas 1017 82 352 126 store-load-clear-parameters 0;
#N canvas 653 168 602 881 switches 0;
#X obj 93 322 r \$0-bank-sel;
#X obj 23 16 r \$0-1, f 3;
#X obj 23 71 t b f, f 2;
#X obj 52 71 t b f, f 2;
#X obj 81 71 t b f, f 2;
#X obj 110 71 t b f, f 2;
#X obj 139 71 t b f, f 2;
#X obj 169 71 t b f, f 2;
#X obj 198 71 t b f, f 2;
#X obj 227 71 t b f, f 2;
#X obj 256 71 t b f, f 2;
#X obj 285 71 t b f, f 2;
#X obj 315 71 t b f, f 2;
#X obj 344 71 t b f, f 2;
#X obj 373 71 t b f, f 2;
#X obj 402 71 t b f, f 2;
#X obj 431 71 t b f, f 2;
#X obj 461 71 t b f, f 2;
#X obj 34 146 pack f f f f f f f f f f f f f f f f, f 63;
#X obj 36 786 unpack f f f f f f f f f f f f f f f f, f 69;
#X obj 36 728 r \$0-bank-sel;
#X obj 36 811 s \$0-i1, f 3;
#X text 502 737 <- load;
#X text 501 10 <- store;
#X obj 52 16 r \$0-2, f 3;
#X obj 81 16 r \$0-3, f 3;
#X obj 110 16 r \$0-4, f 3;
#X obj 139 16 r \$0-5, f 3;
#X obj 168 16 r \$0-6, f 3;
#X obj 197 16 r \$0-7, f 3;
#X obj 226 16 r \$0-8, f 3;
#X obj 255 16 r \$0-9, f 3;
#X obj 284 16 r \$0-10, f 3;
#X obj 313 16 r \$0-11, f 3;
#X obj 342 16 r \$0-12, f 3;
#X obj 371 16 r \$0-13, f 3;
#X obj 400 16 r \$0-14, f 3;
#X obj 429 16 r \$0-15, f 3;
#X obj 458 16 r \$0-16, f 3;
#X obj 68 811 s \$0-i2, f 3;
#X obj 100 811 s \$0-i3, f 3;
#X obj 132 811 s \$0-i4, f 3;
#X obj 164 811 s \$0-i5, f 3;
#X obj 196 811 s \$0-i6, f 3;
#X obj 228 811 s \$0-i7, f 3;
#X obj 260 811 s \$0-i8, f 3;
#X obj 292 811 s \$0-i9, f 3;
#X obj 324 811 s \$0-i10, f 3;
#X obj 356 811 s \$0-i11, f 3;
#X obj 388 811 s \$0-i12, f 3;
#X obj 420 811 s \$0-i13, f 3;
#X obj 452 811 s \$0-i14, f 3;
#X obj 484 811 s \$0-i15, f 3;
#X obj 516 811 s \$0-i16, f 3;
#X obj 57 175 r \$0-Save;
#X obj 101 285 tgl 20 0 empty empty empty 0 -10 0 12 #fcfcfc #000000 #000000 0 1;
#X msg 130 256 0;
#X obj 34 284 spigot;
#X obj 57 200 t b b;
#X obj 34 439 savestate;
#X obj 130 232 del 500;
#X obj 34 543 route 0 1 2 3;
#X text 318 435 When main patch is saved \, savestate object outputs a bang on its right outlet. With this bang \, I need to save all 4 list inside the text file (\$0-switches) \, into savestate. When main is loaded again \, save state outputs what was saved in it from its left outlet \, these should go and sit inside the \$0-switches respectively. Finally a separate message \, loads bank 0 parameters., f 36;
#X text 244 292 This part saves the bank paramets as lists in text file \, up until the main patch is open. If closed without saving the main patch and no save state functionality \, all changes are lost., f 39;
#X obj 34 347 text set \$0-parameters 0 1;
#X obj 94 492 text sequence \$0-parameters;
#X obj 100 595 text set \$0-parameters 3 1;
#X obj 78 620 text set \$0-parameters 2 1;
#X obj 56 647 text set \$0-parameters 1 1;
#X obj 34 674 text set \$0-parameters 0 1;
#X obj 36 758 text get \$0-parameters 1 16;
#X msg 94 467 line 0 \, step \, step \, step \, step;
#X connect 0 0 64 1;
#X connect 1 0 2 0;
#X connect 2 0 18 0;
#X connect 2 1 18 0;
#X connect 3 0 18 0;
#X connect 3 1 18 1;
#X connect 4 0 18 0;
#X connect 4 1 18 2;
#X connect 5 0 18 0;
#X connect 5 1 18 3;
#X connect 6 0 18 0;
#X connect 6 1 18 4;
#X connect 7 0 18 0;
#X connect 7 1 18 5;
#X connect 8 0 18 0;
#X connect 8 1 18 6;
#X connect 9 0 18 0;
#X connect 9 1 18 7;
#X connect 10 0 18 0;
#X connect 10 1 18 8;
#X connect 11 0 18 0;
#X connect 11 1 18 9;
#X connect 12 0 18 0;
#X connect 12 1 18 10;
#X connect 13 0 18 0;
#X connect 13 1 18 11;
#X connect 14 0 18 0;
#X connect 14 1 18 12;
#X connect 15 0 18 0;
#X connect 15 1 18 13;
#X connect 16 0 18 0;
#X connect 16 1 18 14;
#X connect 17 0 18 0;
#X connect 17 1 18 15;
#X connect 18 0 57 0;
#X connect 19 0 21 0;
#X connect 19 1 39 0;
#X connect 19 2 40 0;
#X connect 19 3 41 0;
#X connect 19 4 42 0;
#X connect 19 5 43 0;
#X connect 19 6 44 0;
#X connect 19 7 45 0;
#X connect 19 8 46 0;
#X connect 19 9 47 0;
#X connect 19 10 48 0;
#X connect 19 11 49 0;
#X connect 19 12 50 0;
#X connect 19 13 51 0;
#X connect 19 14 52 0;
#X connect 19 15 53 0;
#X connect 20 0 70 0;
#X connect 24 0 3 0;
#X connect 25 0 4 0;
#X connect 26 0 5 0;
#X connect 27 0 6 0;
#X connect 28 0 7 0;
#X connect 29 0 8 0;
#X connect 30 0 9 0;
#X connect 31 0 10 0;
#X connect 32 0 11 0;
#X connect 33 0 12 0;
#X connect 34 0 13 0;
#X connect 35 0 14 0;
#X connect 36 0 15 0;
#X connect 37 0 16 0;
#X connect 38 0 17 0;
#X connect 54 0 58 0;
#X connect 55 0 57 1;
#X connect 56 0 55 0;
#X connect 57 0 64 0;
#X connect 58 0 18 0;
#X connect 58 1 55 0;
#X connect 58 1 60 0;
#X connect 59 0 61 0;
#X connect 59 1 71 0;
#X connect 60 0 56 0;
#X connect 61 0 69 0;
#X connect 61 1 68 0;
#X connect 61 2 67 0;
#X connect 61 3 66 0;
#X connect 65 0 59 0;
#X connect 70 0 19 0;
#X connect 71 0 65 0;
#X restore 16 8 pd switches;
#N canvas 820 76 622 932 swings 0;
#X obj 93 311 r \$0-bank-sel;
#X obj 23 71 t b f, f 2;
#X obj 52 71 t b f, f 2;
#X obj 81 71 t b f, f 2;
#X obj 110 71 t b f, f 2;
#X obj 139 71 t b f, f 2;
#X obj 169 71 t b f, f 2;
#X obj 198 71 t b f, f 2;
#X obj 227 71 t b f, f 2;
#X obj 256 71 t b f, f 2;
#X obj 285 71 t b f, f 2;
#X obj 315 71 t b f, f 2;
#X obj 344 71 t b f, f 2;
#X obj 373 71 t b f, f 2;
#X obj 402 71 t b f, f 2;
#X obj 431 71 t b f, f 2;
#X obj 461 71 t b f, f 2;
#X obj 34 146 pack f f f f f f f f f f f f f f f f, f 63;
#X obj 30 807 unpack f f f f f f f f f f f f f f f f, f 69;
#X text 488 772 <- load;
#X text 488 19 <- store;
#X obj 23 16 r \$0-x1, f 3;
#X obj 52 16 r \$0-x2, f 3;
#X obj 81 16 r \$0-x3, f 3;
#X obj 110 16 r \$0-x4, f 3;
#X obj 139 16 r \$0-x5, f 3;
#X obj 168 16 r \$0-x6, f 3;
#X obj 197 16 r \$0-x7, f 3;
#X obj 226 16 r \$0-x8, f 3;
#X obj 255 16 r \$0-x9, f 3;
#X obj 284 16 r \$0-x10, f 3;
#X obj 313 16 r \$0-x11, f 3;
#X obj 342 16 r \$0-x12, f 3;
#X obj 371 16 r \$0-x13, f 3;
#X obj 400 16 r \$0-x14, f 3;
#X obj 429 16 r \$0-x15, f 3;
#X obj 458 16 r \$0-x16, f 3;
#X obj 30 832 s \$0-ix1, f 3;
#X obj 62 832 s \$0-ix2, f 3;
#X obj 94 832 s \$0-ix3, f 3;
#X obj 126 832 s \$0-ix4, f 3;
#X obj 158 832 s \$0-ix5, f 3;
#X obj 190 832 s \$0-ix6, f 3;
#X obj 222 832 s \$0-ix7, f 3;
#X obj 254 832 s \$0-ix8, f 3;
#X obj 286 832 s \$0-ix9, f 3;
#X obj 318 832 s \$0-ix10, f 3;
#X obj 350 832 s \$0-ix11, f 3;
#X obj 382 832 s \$0-ix12, f 3;
#X obj 414 832 s \$0-ix13, f 3;
#X obj 446 832 s \$0-ix14, f 3;
#X obj 478 832 s \$0-ix15, f 3;
#X obj 510 832 s \$0-ix16, f 3;
#X obj 54 171 r \$0-Save;
#X obj 118 227 del 1000;
#X obj 101 277 tgl 20 0 empty empty empty 0 -10 0 12 #fcfcfc #000000 #000000 0 1;
#X msg 118 251 0;
#X obj 34 276 spigot;
#X obj 54 196 t b b;
#X obj 36 408 savestate;
#X text 327 404 When main patch is saved \, savestate object outputs a bang on its right outlet. With this bang \, I need to save all 4 list inside the text file (\$0-switches) \, into savestate. When main is loaded again \, save state outputs what was saved in it from its left outlet \, these should go and sit inside the \$0-switches respectively. Finally a separate message \, loads bank 0 parameters., f 31;
#X text 231 285 This part saves the bank paramets as lists in text file \, up until the main patch is open. If closed without saving the main patch and no save state functionality \, all changes are lost., f 45;
#X obj 30 727 r \$0-bank-sel;
#X obj 93 336 + 4;
#X obj 34 363 text set \$0-parameters 0 1;
#X obj 96 482 text sequence \$0-parameters;
#X obj 36 512 route 4 5 6 7;
#X obj 102 564 text set \$0-parameters 7 1;
#X obj 58 616 text set \$0-parameters 5 1;
#X obj 80 589 text set \$0-parameters 6 1;
#X obj 36 643 text set \$0-parameters 4 1;
#X obj 30 778 text get \$0-parameters 1 16;
#X obj 30 752 + 4;
#X msg 96 457 line 4 \, step \, step \, step \, step;
#X connect 0 0 63 0;
#X connect 1 0 17 0;
#X connect 1 1 17 0;
#X connect 2 0 17 0;
#X connect 2 1 17 1;
#X connect 3 0 17 0;
#X connect 3 1 17 2;
#X connect 4 0 17 0;
#X connect 4 1 17 3;
#X connect 5 0 17 0;
#X connect 5 1 17 4;
#X connect 6 0 17 0;
#X connect 6 1 17 5;
#X connect 7 0 17 0;
#X connect 7 1 17 6;
#X connect 8 0 17 0;
#X connect 8 1 17 7;
#X connect 9 0 17 0;
#X connect 9 1 17 8;
#X connect 10 0 17 0;
#X connect 10 1 17 9;
#X connect 11 0 17 0;
#X connect 11 1 17 10;
#X connect 12 0 17 0;
#X connect 12 1 17 11;
#X connect 13 0 17 0;
#X connect 13 1 17 12;
#X connect 14 0 17 0;
#X connect 14 1 17 13;
#X connect 15 0 17 0;
#X connect 15 1 17 14;
#X connect 16 0 17 0;
#X connect 16 1 17 15;
#X connect 17 0 57 0;
#X connect 18 0 37 0;
#X connect 18 1 38 0;
#X connect 18 2 39 0;
#X connect 18 3 40 0;
#X connect 18 4 41 0;
#X connect 18 5 42 0;
#X connect 18 6 43 0;
#X connect 18 7 44 0;
#X connect 18 8 45 0;
#X connect 18 9 46 0;
#X connect 18 10 47 0;
#X connect 18 11 48 0;
#X connect 18 12 49 0;
#X connect 18 13 50 0;
#X connect 18 14 51 0;
#X connect 18 15 52 0;
#X connect 21 0 1 0;
#X connect 22 0 2 0;
#X connect 23 0 3 0;
#X connect 24 0 4 0;
#X connect 25 0 5 0;
#X connect 26 0 6 0;
#X connect 27 0 7 0;
#X connect 28 0 8 0;
#X connect 29 0 9 0;
#X connect 30 0 10 0;
#X connect 31 0 11 0;
#X connect 32 0 12 0;
#X connect 33 0 13 0;
#X connect 34 0 14 0;
#X connect 35 0 15 0;
#X connect 36 0 16 0;
#X connect 53 0 58 0;
#X connect 54 0 56 0;
#X connect 55 0 57 1;
#X connect 56 0 55 0;
#X connect 57 0 64 0;
#X connect 58 0 17 0;
#X connect 58 1 55 0;
#X connect 58 1 54 0;
#X connect 59 0 66 0;
#X connect 59 1 73 0;
#X connect 62 0 72 0;
#X connect 63 0 64 1;
#X connect 65 0 59 0;
#X connect 66 0 70 0;
#X connect 66 1 68 0;
#X connect 66 2 69 0;
#X connect 66 3 67 0;
#X connect 71 0 18 0;
#X connect 72 0 71 0;
#X connect 73 0 65 0;
#X restore 16 32 pd swings;
#N canvas 803 52 629 945 velocities 0;
#X obj 23 71 t b f, f 2;
#X obj 52 71 t b f, f 2;
#X obj 81 71 t b f, f 2;
#X obj 110 71 t b f, f 2;
#X obj 139 71 t b f, f 2;
#X obj 169 71 t b f, f 2;
#X obj 198 71 t b f, f 2;
#X obj 227 71 t b f, f 2;
#X obj 256 71 t b f, f 2;
#X obj 285 71 t b f, f 2;
#X obj 315 71 t b f, f 2;
#X obj 344 71 t b f, f 2;
#X obj 373 71 t b f, f 2;
#X obj 402 71 t b f, f 2;
#X obj 431 71 t b f, f 2;
#X obj 461 71 t b f, f 2;
#X obj 34 146 pack f f f f f f f f f f f f f f f f, f 63;
#X obj 26 831 unpack f f f f f f f f f f f f f f f f, f 69;
#X text 502 758 <- load;
#X text 501 10 <- store;
#X obj 26 856 s \$0-iy1, f 3;
#X obj 58 856 s \$0-iy2, f 3;
#X obj 90 856 s \$0-iy3, f 3;
#X obj 122 856 s \$0-iy4, f 3;
#X obj 154 856 s \$0-iy5, f 3;
#X obj 186 856 s \$0-iy6, f 3;
#X obj 218 856 s \$0-iy7, f 3;
#X obj 250 856 s \$0-iy8, f 3;
#X obj 314 856 s \$0-iy10, f 3;
#X obj 346 856 s \$0-iy11, f 3;
#X obj 378 856 s \$0-iy12, f 3;
#X obj 410 856 s \$0-iy13, f 3;
#X obj 442 856 s \$0-iy14, f 3;
#X obj 474 856 s \$0-iy15, f 3;
#X obj 506 856 s \$0-iy16, f 3;
#X obj 458 16 r \$0-y16, f 3;
#X obj 429 16 r \$0-y15, f 3;
#X obj 400 16 r \$0-y14, f 3;
#X obj 371 16 r \$0-y13, f 3;
#X obj 342 16 r \$0-y12, f 3;
#X obj 313 16 r \$0-y11, f 3;
#X obj 284 16 r \$0-y10, f 3;
#X obj 255 16 r \$0-y9, f 3;
#X obj 226 16 r \$0-y8, f 3;
#X obj 197 16 r \$0-y7, f 3;
#X obj 168 16 r \$0-y6, f 3;
#X obj 139 16 r \$0-y5, f 3;
#X obj 110 16 r \$0-y4, f 3;
#X obj 81 16 r \$0-y3, f 3;
#X obj 52 16 r \$0-y2, f 3;
#X obj 23 16 r \$0-y1, f 3;
#X obj 57 176 r \$0-Save;
#X obj 130 233 del 1000;
#X obj 101 286 tgl 20 0 empty empty empty 0 -10 0 12 #fcfcfc #000000 #000000 0 1;
#X msg 130 257 0;
#X obj 34 285 spigot;
#X obj 57 201 t b b;
#X obj 93 319 r \$0-bank-sel;
#X text 211 259 This part saves the bank paramets as lists in text file \, up until the main patch is open. If closed without saving the main patch and no save state functionality \, all changes are lost., f 45;
#X obj 36 408 savestate;
#X text 320 404 When main patch is saved \, savestate object outputs a bang on its right outlet. With this bang \, I need to save all 4 list inside the text file (\$0-switches) \, into savestate. When main is loaded again \, save state outputs what was saved in it from its left outlet \, these should go and sit inside the \$0-switches respectively. Finally a separate message \, loads bank 0 parameters., f 31;
#X obj 26 752 r \$0-bank-sel;
#X obj 282 856 s \$0-iy9, f 3;
#X obj 93 344 + 8;
#X obj 34 369 text set \$0-parameters 0 1;
#X obj 96 486 text sequence \$0-parameters;
#X obj 36 512 route 8 9 10 11;
#X obj 26 803 text get \$0-parameters 1 16;
#X obj 26 777 + 8;
#X obj 112 564 text set \$0-parameters 11 1;
#X obj 87 589 text set \$0-parameters 10 1;
#X obj 61 616 text set \$0-parameters 9 1;
#X obj 36 643 text set \$0-parameters 8 1;
#X msg 96 461 line 8 \, step \, step \, step \, step;
#X connect 0 0 16 0;
#X connect 0 1 16 0;
#X connect 1 0 16 0;
#X connect 1 1 16 1;
#X connect 2 0 16 0;
#X connect 2 1 16 2;
#X connect 3 0 16 0;
#X connect 3 1 16 3;
#X connect 4 0 16 0;
#X connect 4 1 16 4;
#X connect 5 0 16 0;
#X connect 5 1 16 5;
#X connect 6 0 16 0;
#X connect 6 1 16 6;
#X connect 7 0 16 0;
#X connect 7 1 16 7;
#X connect 8 0 16 0;
#X connect 8 1 16 8;
#X connect 9 0 16 0;
#X connect 9 1 16 9;
#X connect 10 0 16 0;
#X connect 10 1 16 10;
#X connect 11 0 16 0;
#X connect 11 1 16 11;
#X connect 12 0 16 0;
#X connect 12 1 16 12;
#X connect 13 0 16 0;
#X connect 13 1 16 13;
#X connect 14 0 16 0;
#X connect 14 1 16 14;
#X connect 15 0 16 0;
#X connect 15 1 16 15;
#X connect 16 0 55 0;
#X connect 17 0 20 0;
#X connect 17 1 21 0;
#X connect 17 2 22 0;
#X connect 17 3 23 0;
#X connect 17 4 24 0;
#X connect 17 5 25 0;
#X connect 17 6 26 0;
#X connect 17 7 27 0;
#X connect 17 8 62 0;
#X connect 17 9 28 0;
#X connect 17 10 29 0;
#X connect 17 11 30 0;
#X connect 17 12 31 0;
#X connect 17 13 32 0;
#X connect 17 14 33 0;
#X connect 17 15 34 0;
#X connect 35 0 15 0;
#X connect 36 0 14 0;
#X connect 37 0 13 0;
#X connect 38 0 12 0;
#X connect 39 0 11 0;
#X connect 40 0 10 0;
#X connect 41 0 9 0;
#X connect 42 0 8 0;
#X connect 43 0 7 0;
#X connect 44 0 6 0;
#X connect 45 0 5 0;
#X connect 46 0 4 0;
#X connect 47 0 3 0;
#X connect 48 0 2 0;
#X connect 49 0 1 0;
#X connect 50 0 0 0;
#X connect 51 0 56 0;
#X connect 52 0 54 0;
#X connect 53 0 55 1;
#X connect 54 0 53 0;
#X connect 55 0 64 0;
#X connect 56 0 16 0;
#X connect 56 1 53 0;
#X connect 56 1 52 0;
#X connect 57 0 63 0;
#X connect 59 0 66 0;
#X connect 59 1 73 0;
#X connect 61 0 68 0;
#X connect 63 0 64 1;
#X connect 65 0 59 0;
#X connect 66 0 72 0;
#X connect 66 1 71 0;
#X connect 66 2 70 0;
#X connect 66 3 69 0;
#X connect 67 0 17 0;
#X connect 68 0 67 0;
#X connect 73 0 65 0;
#X restore 16 56 pd velocities;
#N canvas 262 250 551 438 Clear 0;
#X obj 20 80 s \$0-i1, f 3;
#X obj 52 80 s \$0-i2, f 3;
#X obj 84 80 s \$0-i3, f 3;
#X obj 116 80 s \$0-i4, f 3;
#X obj 148 80 s \$0-i5, f 3;
#X obj 180 80 s \$0-i6, f 3;
#X obj 212 80 s \$0-i7, f 3;
#X obj 244 80 s \$0-i8, f 3;
#X obj 276 80 s \$0-i9, f 3;
#X obj 308 80 s \$0-i10, f 3;
#X obj 340 80 s \$0-i11, f 3;
#X obj 372 80 s \$0-i12, f 3;
#X obj 404 80 s \$0-i13, f 3;
#X obj 436 80 s \$0-i14, f 3;
#X obj 468 80 s \$0-i15, f 3;
#X obj 500 80 s \$0-i16, f 3;
#X obj 22 212 s \$0-ix1, f 3;
#X obj 54 212 s \$0-ix2, f 3;
#X obj 86 212 s \$0-ix3, f 3;
#X obj 118 212 s \$0-ix4, f 3;
#X obj 150 212 s \$0-ix5, f 3;
#X obj 182 212 s \$0-ix6, f 3;
#X obj 214 212 s \$0-ix7, f 3;
#X obj 246 212 s \$0-ix8, f 3;
#X obj 278 212 s \$0-ix9, f 3;
#X obj 310 212 s \$0-ix10, f 3;
#X obj 342 212 s \$0-ix11, f 3;
#X obj 374 212 s \$0-ix12, f 3;
#X obj 406 212 s \$0-ix13, f 3;
#X obj 438 212 s \$0-ix14, f 3;
#X obj 470 212 s \$0-ix15, f 3;
#X obj 502 212 s \$0-ix16, f 3;
#X obj 23 354 s \$0-iy1, f 3;
#X obj 55 354 s \$0-iy2, f 3;
#X obj 87 354 s \$0-iy3, f 3;
#X obj 119 354 s \$0-iy4, f 3;
#X obj 151 354 s \$0-iy5, f 3;
#X obj 183 354 s \$0-iy6, f 3;
#X obj 215 354 s \$0-iy7, f 3;
#X obj 247 354 s \$0-iy8, f 3;
#X obj 311 354 s \$0-iy10, f 3;
#X obj 343 354 s \$0-iy11, f 3;
#X obj 375 354 s \$0-iy12, f 3;
#X obj 407 354 s \$0-iy13, f 3;
#X obj 439 354 s \$0-iy14, f 3;
#X obj 471 354 s \$0-iy15, f 3;
#X obj 503 354 s \$0-iy16, f 3;
#X obj 20 12 r \$0-Clear;
#X msg 20 40 0;
#X obj 22 145 r \$0-Clear;
#X msg 22 173 0;
#X obj 23 285 r \$0-Clear;
#X msg 23 313 0.8;
#X obj 279 354 s \$0-iy9, f 3;
#X connect 47 0 48 0;
#X connect 48 0 0 0;
#X connect 48 0 15 0;
#X connect 48 0 14 0;
#X connect 48 0 13 0;
#X connect 48 0 12 0;
#X connect 48 0 11 0;
#X connect 48 0 10 0;
#X connect 48 0 9 0;
#X connect 48 0 8 0;
#X connect 48 0 7 0;
#X connect 48 0 6 0;
#X connect 48 0 5 0;
#X connect 48 0 4 0;
#X connect 48 0 3 0;
#X connect 48 0 2 0;
#X connect 48 0 1 0;
#X connect 49 0 50 0;
#X connect 50 0 16 0;
#X connect 50 0 31 0;
#X connect 50 0 30 0;
#X connect 50 0 29 0;
#X connect 50 0 28 0;
#X connect 50 0 27 0;
#X connect 50 0 26 0;
#X connect 50 0 25 0;
#X connect 50 0 24 0;
#X connect 50 0 23 0;
#X connect 50 0 22 0;
#X connect 50 0 21 0;
#X connect 50 0 20 0;
#X connect 50 0 19 0;
#X connect 50 0 18 0;
#X connect 50 0 17 0;
#X connect 51 0 52 0;
#X connect 52 0 32 0;
#X connect 52 0 46 0;
#X connect 52 0 45 0;
#X connect 52 0 44 0;
#X connect 52 0 43 0;
#X connect 52 0 42 0;
#X connect 52 0 41 0;
#X connect 52 0 40 0;
#X connect 52 0 39 0;
#X connect 52 0 38 0;
#X connect 52 0 37 0;
#X connect 52 0 36 0;
#X connect 52 0 35 0;
#X connect 52 0 34 0;
#X connect 52 0 33 0;
#X connect 52 0 53 0;
#X restore 17 80 pd Clear;
#X obj 123 8 text define -k \$0-parameters;
#A set 0 0 0 0 0 0 0 0 0 0 0 0 0 0 0 0 0 \; 1 0 0 0 0 0 0 0 0 0 0 0 0 0 0 0 0 \; 2 0 0 0 0 0 0 0 0 0 0 0 0 0 0 0 0 \; 3 0 0 0 0 0 0 0 0 0 0 0 0 0 0 0 0 \; 4 0 0 0 0 0 0 0 0 0 0 0 0 0 0 0 0 \; 5 0 0 0 0 0 0 0 0 0 0 0 0 0 0 0 0 \; 6 0 0 0 0 0 0 0 0 0 0 0 0 0 0 0 0 \; 7 0 0 0 0 0 0 0 0 0 0 0 0 0 0 0 0 \; 8 0.8 0.8 0.8 0.8 0.8 0.8 0.8 0.8 0.8 0.8 0.8 0.8 0.8 0.8 0.8 0.8 \; 9 0.8 0.8 0.8 0.8 0.8 0.8 0.8 0.8 0.8 0.8 0.8 0.8 0.8 0.8 0.8 0.8 \; 10 0.8 0.8 0.8 0.8 0.8 0.8 0.8 0.8 0.8 0.8 0.8 0.8 0.8 0.8 0.8 0.8 \; 11 0.8 0.8 0.8 0.8 0.8 0.8 0.8 0.8 0.8 0.8 0.8 0.8 0.8 0.8 0.8 0.8 \;;
#X restore 15 637 pd store-load-clear-parameters;
#N canvas 563 223 1006 525 Down-Beats-Calculator 0;
#X obj 30 39 r whole-note-dur;
#X floatatom 153 145 7 0 0 1 time\ difference\ between\ two\ notes/beats - - 0;
#X obj 153 121 /;
#X floatatom 30 64 5 0 0 0 - - - 0;
#X obj 153 92 t b f;
#X msg 153 65 4;
#X obj 121 196 metro;
#X obj 121 220 bng 20 250 50 0 empty empty empty 0 -10 0 12 #fcfcfc #000000 #000000;
#X obj 29 138 tgl 20 0 empty empty empty 0 -10 0 12 #fcfcfc #000000 #000000 0 1;
#X obj 121 258 f;
#X obj 155 258 + 1;
#X obj 29 196 bng 20 250 50 0 empty empty empty 0 -10 0 12 #fcfcfc #000000 #000000;
#X floatatom 121 283 5 0 0 0 - - - 0;
#X floatatom 121 365 5 0 0 0 - - - 0;
#X obj 121 314 % \$1;
#X msg 29 220 0;
#X obj 121 339 + 1;
#X obj 29 168 sel 0;
#X obj 195 313 s \$0-note-in-bar;
#X obj 169 170 s \$0-note-dur;
#N canvas 1199 298 450 112 seq-tgl 0;
#X obj 25 24 r seq-on;
#X obj 93 24 r seq-off;
#X obj 166 24 r seq-off-manual;
#X obj 25 71 outlet;
#X connect 0 0 3 0;
#X connect 1 0 3 0;
#X connect 2 0 3 0;
#X restore 29 112 pd seq-tgl;
#X obj 121 418 hradio 20 1 0 4 empty empty empty 0 -10 0 12 #fcfcfc #000000 #000000 0;
#X obj 121 389 - 1;
#X msg 187 392 number \$1;
#X obj 121 465 s \$0-down-beat;
#X obj 153 39 r \$0-local-bang;
#X obj 187 258 r \$0-local-bang;
#X text 184 65 time signature denom;
#X text 221 283 time signature numerator;
#X text 137 435 Down-beats (1 step);
#X msg 187 283 4;
#X text 23 18 from master-clock;
#X text 519 18 INPUTS: \; - whole-note-dur: whole note duration from master-clock \; - \$0-local-bang: send a bang when abstraction loaded or other existing abstractions are saved (reloaded) \; - seq-on: from master-clock \; - seq-off-manual: from master-clock \; - seq-off: from abstraction itself when loaded (re-loaded) \; OUTPUTS: \; - \$0-down-beat: send beat/note number \; - \$0-note-in-bar: numer of notes in one bar (signature numerator) \; - \$0-note-dur: time difference between two notes (downbeats) \;, f 68;
#X connect 0 0 3 0;
#X connect 1 0 6 1;
#X connect 1 0 19 0;
#X connect 2 0 1 0;
#X connect 3 0 2 0;
#X connect 4 0 2 0;
#X connect 4 1 2 1;
#X connect 5 0 4 0;
#X connect 6 0 7 0;
#X connect 7 0 9 0;
#X connect 8 0 6 0;
#X connect 8 0 17 0;
#X connect 9 0 10 0;
#X connect 9 0 12 0;
#X connect 10 0 9 1;
#X connect 11 0 15 0;
#X connect 12 0 14 0;
#X connect 13 0 22 0;
#X connect 14 0 16 0;
#X connect 15 0 9 1;
#X connect 16 0 13 0;
#X connect 17 0 11 0;
#X connect 20 0 8 0;
#X connect 21 0 24 0;
#X connect 22 0 21 0;
#X connect 23 0 21 0;
#X connect 25 0 5 0;
#X connect 26 0 30 0;
#X connect 30 0 14 1;
#X connect 30 0 18 0;
#X connect 30 0 23 0;
#X restore 14 478 pd Down-Beats-Calculator;
#N canvas 536 377 1163 560 Step-Calculator 0;
#X floatatom 25 92 5 0 0 0 - - - 0;
#X obj 130 129 /;
#X obj 130 97 t b f;
#X floatatom 130 155 5 0 0 0 - - - 0;
#X obj 98 206 metro;
#X obj 98 233 bng 20 250 50 0 empty empty empty 0 -10 0 12 #fcfcfc #000000 #000000;
#X obj 98 287 f;
#X obj 132 287 + 1;
#X obj 23 218 bng 20 250 50 0 empty empty empty 0 -10 0 12 #fcfcfc #000000 #000000;
#X floatatom 98 317 5 0 0 0 - - - 0;
#X msg 23 242 0;
#X obj 23 193 sel 0;
#X obj 175 316 *;
#X floatatom 175 339 5 0 0 0 - - - 0;
#X obj 182 288 t b f;
#X obj 98 341 % \$1;
#X obj 98 455 hradio 20 1 0 16 empty empty empty 0 -10 0 12 #ffffff #000000 #000000 0;
#X msg 175 364 number \$1;
#X obj 182 262 r \$0-note-in-bar;
#X obj 25 67 r \$0-note-dur;
#X obj 23 166 tgl 20 0 empty empty empty 0 -10 0 12 #fcfcfc #000000 #000000 0 1;
#N canvas 1199 298 450 112 seq-tgl 0;
#X obj 25 24 r seq-on;
#X obj 93 24 r seq-off;
#X obj 166 24 r seq-off-manual;
#X obj 25 71 outlet;
#X connect 0 0 3 0;
#X connect 1 0 3 0;
#X connect 2 0 3 0;
#X restore 23 142 pd seq-tgl;
#X obj 98 479 + 1;
#X obj 98 502 s \$0-step;
#X obj 180 395 r \$0-down-beat;
#N canvas 52 20 1854 977 color-change 0;
#X obj 50 135 bng 20 250 50 0 empty empty empty 0 -10 0 12 #fcfcfc #000000 #000000;
#X msg 159 226 color #ffffff #000000 #000000, f 13;
#X msg 50 199 color #ffffff #ff0000 #000000, f 12;
#X obj 50 299 outlet;
#X obj 50 81 inlet;
#X obj 159 198 del 200;
#X connect 0 0 2 0;
#X connect 0 0 5 0;
#X connect 1 0 3 0;
#X connect 2 0 3 0;
#X connect 4 0 0 0;
#X connect 5 0 1 0;
#X restore 180 419 pd color-change;
#X obj 130 36 r \$0-local-bang;
#X obj 145 182 s \$0-step-dur;
#X msg 130 66 4;
#X text 177 156 time difference between two steps;
#X text 216 338 total number of steps;
#X text 160 66 Steps in each Down-beat;
#X obj 261 363 s \$0-num-steps;
#X text 461 20 INPUTS from "Down-Beats-Calculator": \; - \$0-down-beat: receives down-beat/note number -- used as bang only for color change of step \; - \$0-note-dur: time difference between two notes (downbeats) \, used and divided by number of steps per downbeat to calculate step duration \; - \$0-note-in-bar: number of notes (downbeats) in one bar (signature numerator) \, used to calculate total number of steps \; - seq-on: from master-clock \; - seq-off-manual: from master-clock \; - seq-off: from abstraction itself when loaded (re-loaded) \; OUTPUTS: \; - \$0-step: current step number (in 16 step sequencer == 1 to 16) \; - \$0-step-dur: duretion of each step \; - \$0-num-steps: total number of steps in sequencer \;, f 96;
#X connect 0 0 1 0;
#X connect 1 0 3 0;
#X connect 2 0 1 0;
#X connect 2 1 1 1;
#X connect 3 0 4 1;
#X connect 3 0 27 0;
#X connect 4 0 5 0;
#X connect 5 0 6 0;
#X connect 6 0 7 0;
#X connect 6 0 9 0;
#X connect 7 0 6 1;
#X connect 8 0 10 0;
#X connect 9 0 15 0;
#X connect 10 0 6 1;
#X connect 11 0 8 0;
#X connect 12 0 13 0;
#X connect 13 0 15 1;
#X connect 13 0 17 0;
#X connect 13 0 32 0;
#X connect 14 0 12 0;
#X connect 14 1 12 1;
#X connect 15 0 16 0;
#X connect 16 0 22 0;
#X connect 17 0 16 0;
#X connect 18 0 14 0;
#X connect 19 0 0 0;
#X connect 20 0 4 0;
#X connect 20 0 11 0;
#X connect 21 0 20 0;
#X connect 22 0 23 0;
#X connect 24 0 25 0;
#X connect 25 0 16 0;
#X connect 26 0 28 0;
#X connect 28 0 2 0;
#X connect 28 0 12 0;
#X restore 14 540 pd Step-Calculator;
#N canvas 204 193 1440 739 Step-Parameters 0;
#X obj 29 93 r \$0-step;
#X obj 289 27 bng 20 250 50 0 empty empty empty 0 -10 0 12 #ff0400 #000000 #000000;
#X msg 289 73 0;
#X obj 289 96 s seq-off;
#X msg 327 50 error: to many steps;
#X obj 327 73 print -n;
#X obj 29 124 sel 1 2 3 4 5 6 7 8 9 10 11 12 13 14 15 16, f 63;
#X obj 29 339 del;
#X obj 56 339 del;
#X obj 29 395 t b b, f 2;
#X obj 56 395 t b b, f 2;
#X obj 83 395 t b b, f 2;
#X obj 111 395 t b b, f 2;
#X obj 83 339 del;
#X obj 111 339 del;
#X obj 138 339 del;
#X obj 165 339 del;
#X obj 193 339 del;
#X obj 220 339 del;
#X obj 248 339 del;
#X obj 275 339 del;
#X obj 302 339 del;
#X obj 330 339 del;
#X obj 357 339 del;
#X obj 384 339 del;
#X obj 412 339 del;
#X obj 439 339 del;
#X obj 29 206 spigot;
#X obj 56 230 spigot;
#X obj 83 206 spigot;
#X obj 111 230 spigot;
#X obj 138 206 spigot;
#X obj 165 230 spigot;
#X obj 193 206 spigot;
#X obj 220 230 spigot;
#X obj 248 206 spigot;
#X obj 275 230 spigot;
#X obj 302 206 spigot;
#X obj 330 230 spigot;
#X obj 357 206 spigot;
#X obj 384 230 spigot;
#X obj 412 206 spigot;
#X obj 439 230 spigot;
#X obj 29 540 bng 20 250 50 0 empty empty empty 0 -10 0 12 #fcfcfc #000000 #000000;
#X obj 56 540 bng 20 250 50 0 empty empty empty 0 -10 0 12 #fcfcfc #000000 #000000;
#X obj 83 540 bng 20 250 50 0 empty empty empty 0 -10 0 12 #fcfcfc #000000 #000000;
#X obj 111 540 bng 20 250 50 0 empty empty empty 0 -10 0 12 #fcfcfc #000000 #000000;
#X obj 138 540 bng 20 250 50 0 empty empty empty 0 -10 0 12 #fcfcfc #000000 #000000;
#X obj 165 540 bng 20 250 50 0 empty empty empty 0 -10 0 12 #fcfcfc #000000 #000000;
#X obj 193 540 bng 20 250 50 0 empty empty empty 0 -10 0 12 #fcfcfc #000000 #000000;
#X obj 220 540 bng 20 250 50 0 empty empty empty 0 -10 0 12 #fcfcfc #000000 #000000;
#X obj 248 540 bng 20 250 50 0 empty empty empty 0 -10 0 12 #fcfcfc #000000 #000000;
#X obj 275 540 bng 20 250 50 0 empty empty empty 0 -10 0 12 #fcfcfc #000000 #000000;
#X obj 302 540 bng 20 250 50 0 empty empty empty 0 -10 0 12 #fcfcfc #000000 #000000;
#X obj 330 540 bng 20 250 50 0 empty empty empty 0 -10 0 12 #fcfcfc #000000 #000000;
#X obj 357 540 bng 20 250 50 0 empty empty empty 0 -10 0 12 #fcfcfc #000000 #000000;
#X obj 384 540 bng 20 250 50 0 empty empty empty 0 -10 0 12 #fcfcfc #000000 #000000;
#X obj 412 540 bng 20 250 50 0 empty empty empty 0 -10 0 12 #fcfcfc #000000 #000000;
#X obj 439 540 bng 20 250 50 0 empty empty empty 0 -10 0 12 #fcfcfc #000000 #000000;
#X obj 138 395 t b b, f 2;
#X obj 165 395 t b b, f 2;
#X obj 193 395 t b b, f 2;
#X obj 220 395 t b b, f 2;
#X obj 248 395 t b b, f 2;
#X obj 275 395 t b b, f 2;
#X obj 302 395 t b b, f 2;
#X obj 330 395 t b b, f 2;
#X obj 357 395 t b b, f 2;
#X obj 384 395 t b b, f 2;
#X obj 412 395 t b b, f 2;
#X obj 439 395 t b b, f 2;
#X floatatom 523 633 5 0 0 0 - - - 0;
#X obj 29 624 bng 20 250 50 0 empty empty empty 0 -10 0 12 #fcfcfc #000000 #000000;
#X text 54 623 Step-Play;
#X text 568 634 Step-Velocity;
#X text 521 147 Make out put and inputs of parameters with s/r;
#X obj 68 155 r \$0-1, f 3;
#X obj 95 155 r \$0-2, f 3;
#X obj 122 155 r \$0-3, f 3;
#X obj 150 155 r \$0-4, f 3;
#X obj 177 155 r \$0-5, f 3;
#X obj 204 155 r \$0-6, f 3;
#X obj 232 155 r \$0-7, f 3;
#X obj 259 155 r \$0-8, f 3;
#X obj 287 155 r \$0-9, f 3;
#X obj 314 155 r \$0-10, f 3;
#X obj 341 155 r \$0-11, f 3;
#X obj 368 155 r \$0-12, f 3;
#X obj 396 155 r \$0-13, f 3;
#X obj 423 155 r \$0-14, f 3;
#X obj 451 155 r \$0-15, f 3;
#X obj 478 155 r \$0-16, f 3;
#X obj 47 285 r \$0-x1, f 3;
#X obj 74 285 r \$0-x2, f 3;
#X obj 101 285 r \$0-x3, f 3;
#X obj 129 285 r \$0-x4, f 3;
#X obj 156 285 r \$0-x5, f 3;
#X obj 183 285 r \$0-x6, f 3;
#X obj 211 285 r \$0-x7, f 3;
#X obj 238 285 r \$0-x8, f 3;
#X obj 266 285 r \$0-x9, f 3;
#X obj 293 285 r \$0-x10, f 3;
#X obj 320 285 r \$0-x11, f 3;
#X obj 348 285 r \$0-x12, f 3;
#X obj 375 285 r \$0-x13, f 3;
#X obj 402 285 r \$0-x14, f 3;
#X obj 430 285 r \$0-x15, f 3;
#X obj 457 285 r \$0-x16, f 3;
#X text 520 285 input: $-ix(num) output: \$0-x(num);
#X text 521 165 input: \$0-i(num) output: \$0-(num);
#X text 519 479 input: $-iy(num) output: \$0-y(num);
#X obj 39 448 s \$0-iy1, f 2;
#X obj 66 448 s \$0-iy2, f 2;
#X obj 94 448 s \$0-iy3, f 2;
#X obj 121 448 s \$0-iy4, f 2;
#X obj 148 448 s \$0-iy5, f 2;
#X obj 175 448 s \$0-iy6, f 2;
#X obj 203 448 s \$0-iy7, f 2;
#X obj 230 448 s \$0-iy8, f 2;
#X obj 258 448 s \$0-iy9, f 2;
#X obj 285 448 s \$0-iy10, f 2;
#X obj 313 448 s \$0-iy11, f 2;
#X obj 340 448 s \$0-iy12, f 2;
#X obj 367 448 s \$0-iy13, f 2;
#X obj 394 448 s \$0-iy14, f 2;
#X obj 422 448 s \$0-iy15, f 2;
#X obj 449 448 s \$0-iy16, f 2;
#X obj 523 545 r \$0-y1, f 2;
#X obj 545 545 r \$0-y2, f 2;
#X obj 567 545 r \$0-y3, f 2;
#X obj 589 545 r \$0-y4, f 2;
#X obj 611 545 r \$0-y5, f 2;
#X obj 633 545 r \$0-y6, f 2;
#X obj 655 545 r \$0-y7, f 2;
#X obj 677 545 r \$0-y8, f 2;
#X obj 699 545 r \$0-y9, f 2;
#X obj 721 545 r \$0-y10, f 2;
#X obj 743 545 r \$0-y11, f 2;
#X obj 765 545 r \$0-y12, f 2;
#X obj 787 545 r \$0-y13, f 2;
#X obj 808 545 r \$0-y14, f 2;
#X obj 829 545 r \$0-y15, f 2;
#X obj 850 545 r \$0-y16, f 2;
#X text 20 265 -- Setting delays;
#X text 22 371 -- Triggering velocities;
#N canvas 647 262 756 352 step-flash 0;
#X obj 155 10 inlet;
#X obj 155 68 t b f;
#X obj 282 37 f \$0;
#X obj 282 11 r \$0-local-bang;
#X symbolatom 282 111 19 0 0 0 - - - 0;
#X msg 282 135 set \$1;
#X obj 187 266 makefilename;
#X obj 282 86 makefilename %d-i%%i;
#X obj 162 308 s \$1;
#X obj 91 123 del 50;
#X msg 17 123 color #000000, f 8;
#X msg 91 147 color #ffffff, f 8;
#X symbolatom 433 111 19 0 0 0 - - - 0;
#X msg 433 135 set \$1;
#X symbolatom 590 111 19 0 0 0 - - - 0;
#X msg 590 135 set \$1;
#X obj 433 86 makefilename %d-ix%%i;
#X obj 590 86 makefilename %d-iy%%i;
#X obj 254 311 s \$1;
#X obj 348 311 s \$1;
#X obj 279 266 makefilename;
#X obj 373 267 makefilename;
#X obj 17 200 s \$0-color;
#X obj 102 267 r \$0-color;
#X text 490 234 Flashing function for visualizing current step \; Additionally \, Flashing red color for down-beat \;, f 35;
#X connect 0 0 1 0;
#X connect 1 0 10 0;
#X connect 1 0 9 0;
#X connect 1 1 6 0;
#X connect 1 1 20 0;
#X connect 1 1 21 0;
#X connect 2 0 7 0;
#X connect 2 0 16 0;
#X connect 2 0 17 0;
#X connect 3 0 2 0;
#X connect 4 0 5 0;
#X connect 5 0 6 0;
#X connect 6 0 8 1;
#X connect 7 0 4 0;
#X connect 9 0 11 0;
#X connect 10 0 22 0;
#X connect 11 0 22 0;
#X connect 12 0 13 0;
#X connect 13 0 20 0;
#X connect 14 0 15 0;
#X connect 15 0 21 0;
#X connect 16 0 12 0;
#X connect 17 0 14 0;
#X connect 20 0 18 1;
#X connect 21 0 19 1;
#X connect 23 0 8 0;
#X connect 23 0 18 0;
#X connect 23 0 19 0;
#X restore 105 93 pd step-flash;
#X obj 29 649 s \$0-step-play;
#X obj 523 665 s \$0-step-velocity;
#X text 902 20 INPUTS from Step-Calculator: \; - \$0-step: current step number (in 16 step sequencer == 1 to 16) \, used for selector \; - \$0-step-dur: duration of each step \, used to set maximum swing level \; - \$0-local-bang: inside default setting to reset each time loaded an abstraction \, maybe should be removed: when a new abstraction is loaded ---> parameters are resetted !!! \; OUTPUTs: \; - \$0-step-play: a bang outputted as a step on \; - \$0-step-velocity: what is the velocity of banged step \;, f 71;
#N canvas 166 132 578 247 set-default-swing 0;
#X obj 132 76 r \$0-local-bang;
#X obj 14 52 t b f;
#X floatatom 14 30 4 0 10000 0 - - - 0;
#X msg 14 97 range \$1 \$2;
#X obj 14 7 r \$0-step-dur;
#X obj 14 75 pack 0 0, f 11;
#X msg 132 98 0;
#X obj 14 176 s \$0-ix1, f 4;
#X obj 48 176 s \$0-ix2, f 4;
#X obj 82 176 s \$0-ix3, f 4;
#X obj 116 176 s \$0-ix4, f 4;
#X obj 150 176 s \$0-ix5, f 4;
#X obj 184 176 s \$0-ix6, f 4;
#X obj 218 176 s \$0-ix7, f 4;
#X obj 252 176 s \$0-ix8, f 4;
#X obj 286 176 s \$0-ix9, f 4;
#X obj 320 176 s \$0-ix10, f 4;
#X obj 354 176 s \$0-ix11, f 4;
#X obj 388 176 s \$0-ix12, f 4;
#X obj 422 176 s \$0-ix13, f 4;
#X obj 456 176 s \$0-ix14, f 4;
#X obj 490 176 s \$0-ix15, f 4;
#X obj 524 176 s \$0-ix16, f 4;
#X text 229 12 \$0: same bentween main and pd abstractions;
#X connect 0 0 6 0;
#X connect 1 0 5 0;
#X connect 1 1 5 1;
#X connect 2 0 1 0;
#X connect 3 0 7 0;
#X connect 3 0 22 0;
#X connect 3 0 21 0;
#X connect 3 0 20 0;
#X connect 3 0 19 0;
#X connect 3 0 18 0;
#X connect 3 0 17 0;
#X connect 3 0 16 0;
#X connect 3 0 15 0;
#X connect 3 0 14 0;
#X connect 3 0 13 0;
#X connect 3 0 12 0;
#X connect 3 0 11 0;
#X connect 3 0 10 0;
#X connect 3 0 9 0;
#X connect 3 0 8 0;
#X connect 4 0 2 0;
#X connect 5 0 3 0;
#X connect 6 0 7 0;
#X connect 6 0 22 0;
#X connect 6 0 21 0;
#X connect 6 0 20 0;
#X connect 6 0 19 0;
#X connect 6 0 18 0;
#X connect 6 0 17 0;
#X connect 6 0 16 0;
#X connect 6 0 15 0;
#X connect 6 0 14 0;
#X connect 6 0 13 0;
#X connect 6 0 12 0;
#X connect 6 0 11 0;
#X connect 6 0 10 0;
#X connect 6 0 9 0;
#X connect 6 0 8 0;
#X restore 522 263 pd set-default-swing;
#N canvas 443 167 586 249 set-default-velocity 0;
#X obj 37 126 s \$0-iy1, f 2;
#X obj 64 127 s \$0-iy2, f 2;
#X obj 92 127 s \$0-iy3, f 2;
#X obj 119 127 s \$0-iy4, f 2;
#X obj 146 126 s \$0-iy5, f 2;
#X obj 173 126 s \$0-iy6, f 2;
#X obj 201 126 s \$0-iy7, f 2;
#X obj 228 126 s \$0-iy8, f 2;
#X obj 256 126 s \$0-iy9, f 2;
#X obj 283 126 s \$0-iy10, f 2;
#X obj 311 126 s \$0-iy11, f 2;
#X obj 338 126 s \$0-iy12, f 2;
#X obj 365 126 s \$0-iy13, f 2;
#X obj 392 126 s \$0-iy14, f 2;
#X obj 420 126 s \$0-iy15, f 2;
#X obj 447 126 s \$0-iy16, f 2;
#X obj 447 51 r \$0-local-bang;
#X msg 447 73 0.8;
#X connect 16 0 17 0;
#X connect 17 0 0 0;
#X connect 17 0 15 0;
#X connect 17 0 14 0;
#X connect 17 0 13 0;
#X connect 17 0 12 0;
#X connect 17 0 11 0;
#X connect 17 0 10 0;
#X connect 17 0 9 0;
#X connect 17 0 8 0;
#X connect 17 0 7 0;
#X connect 17 0 6 0;
#X connect 17 0 5 0;
#X connect 17 0 4 0;
#X connect 17 0 3 0;
#X connect 17 0 2 0;
#X connect 17 0 1 0;
#X restore 523 452 pd set-default-velocity;
#X text 524 186 ** Here \, were the step swithes (toggles). Moved to GUI, f 47;
#X text 522 498 ** Here \, were the step velocities (Hsliders). Moved to GUI, f 49;
#X text 519 306 ** Here \, were the step swings (Hsliders). Moved to GUI, f 46;
#X connect 0 0 6 0;
#X connect 0 0 145 0;
#X connect 1 0 2 0;
#X connect 1 0 4 0;
#X connect 2 0 3 0;
#X connect 4 0 5 0;
#X connect 6 0 27 0;
#X connect 6 1 28 0;
#X connect 6 2 29 0;
#X connect 6 3 30 0;
#X connect 6 4 31 0;
#X connect 6 5 32 0;
#X connect 6 6 33 0;
#X connect 6 7 34 0;
#X connect 6 8 35 0;
#X connect 6 9 36 0;
#X connect 6 10 37 0;
#X connect 6 11 38 0;
#X connect 6 12 39 0;
#X connect 6 13 40 0;
#X connect 6 14 41 0;
#X connect 6 15 42 0;
#X connect 6 16 1 0;
#X connect 7 0 9 0;
#X connect 8 0 10 0;
#X connect 9 0 43 0;
#X connect 9 1 111 0;
#X connect 10 0 44 0;
#X connect 10 1 112 0;
#X connect 11 0 45 0;
#X connect 11 1 113 0;
#X connect 12 0 46 0;
#X connect 12 1 114 0;
#X connect 13 0 11 0;
#X connect 14 0 12 0;
#X connect 15 0 59 0;
#X connect 16 0 60 0;
#X connect 17 0 61 0;
#X connect 18 0 62 0;
#X connect 19 0 63 0;
#X connect 20 0 64 0;
#X connect 21 0 65 0;
#X connect 22 0 66 0;
#X connect 23 0 67 0;
#X connect 24 0 68 0;
#X connect 25 0 69 0;
#X connect 26 0 70 0;
#X connect 27 0 7 0;
#X connect 28 0 8 0;
#X connect 29 0 13 0;
#X connect 30 0 14 0;
#X connect 31 0 15 0;
#X connect 32 0 16 0;
#X connect 33 0 17 0;
#X connect 34 0 18 0;
#X connect 35 0 19 0;
#X connect 36 0 20 0;
#X connect 37 0 21 0;
#X connect 38 0 22 0;
#X connect 39 0 23 0;
#X connect 40 0 24 0;
#X connect 41 0 25 0;
#X connect 42 0 26 0;
#X connect 43 0 72 0;
#X connect 44 0 72 0;
#X connect 45 0 72 0;
#X connect 46 0 72 0;
#X connect 47 0 72 0;
#X connect 48 0 72 0;
#X connect 49 0 72 0;
#X connect 50 0 72 0;
#X connect 51 0 72 0;
#X connect 52 0 72 0;
#X connect 53 0 72 0;
#X connect 54 0 72 0;
#X connect 55 0 72 0;
#X connect 56 0 72 0;
#X connect 57 0 72 0;
#X connect 58 0 72 0;
#X connect 59 0 47 0;
#X connect 59 1 115 0;
#X connect 60 0 48 0;
#X connect 60 1 116 0;
#X connect 61 0 49 0;
#X connect 61 1 117 0;
#X connect 62 0 50 0;
#X connect 62 1 118 0;
#X connect 63 0 51 0;
#X connect 63 1 119 0;
#X connect 64 0 52 0;
#X connect 64 1 120 0;
#X connect 65 0 53 0;
#X connect 65 1 121 0;
#X connect 66 0 54 0;
#X connect 66 1 122 0;
#X connect 67 0 55 0;
#X connect 67 1 123 0;
#X connect 68 0 56 0;
#X connect 68 1 124 0;
#X connect 69 0 57 0;
#X connect 69 1 125 0;
#X connect 70 0 58 0;
#X connect 70 1 126 0;
#X connect 71 0 147 0;
#X connect 72 0 146 0;
#X connect 76 0 27 1;
#X connect 77 0 28 1;
#X connect 78 0 29 1;
#X connect 79 0 30 1;
#X connect 80 0 31 1;
#X connect 81 0 32 1;
#X connect 82 0 33 1;
#X connect 83 0 34 1;
#X connect 84 0 35 1;
#X connect 85 0 36 1;
#X connect 86 0 37 1;
#X connect 87 0 38 1;
#X connect 88 0 39 1;
#X connect 89 0 40 1;
#X connect 90 0 41 1;
#X connect 91 0 42 1;
#X connect 92 0 7 1;
#X connect 93 0 8 1;
#X connect 94 0 13 1;
#X connect 95 0 14 1;
#X connect 96 0 15 1;
#X connect 97 0 16 1;
#X connect 98 0 17 1;
#X connect 99 0 18 1;
#X connect 100 0 19 1;
#X connect 101 0 20 1;
#X connect 102 0 21 1;
#X connect 103 0 22 1;
#X connect 104 0 23 1;
#X connect 105 0 24 1;
#X connect 106 0 25 1;
#X connect 107 0 26 1;
#X connect 127 0 71 0;
#X connect 128 0 71 0;
#X connect 129 0 71 0;
#X connect 130 0 71 0;
#X connect 131 0 71 0;
#X connect 132 0 71 0;
#X connect 133 0 71 0;
#X connect 134 0 71 0;
#X connect 135 0 71 0;
#X connect 136 0 71 0;
#X connect 137 0 71 0;
#X connect 138 0 71 0;
#X connect 139 0 71 0;
#X connect 140 0 71 0;
#X connect 141 0 71 0;
#X connect 142 0 71 0;
#X restore 14 587 pd Step-Parameters;
#X text 13 567 3 - Setting per-Step Parameters;
#X obj 469 397 r \$0-1, f 3;
#X obj 524 397 r \$0-x1, f 3;
#X obj 584 398 r \$0-y1, f 3;
#X obj 468 455 s \$0-i1, f 3;
#X obj 523 455 s \$0-ix1, f 3;
#X obj 583 456 s \$0-iy1, f 3;
#X text 455 373 switch | swing | velocity;
#N canvas 2612 168 430 539 to-do 0;
#X text 12 10 GET the flashing and parameter saving concept from Martin Heinze Edgar abstraction;
#X text 13 51 TODO: \; - Improve flashing concept. Different color for downbeats \;, f 57;
#X restore 455 317 pd to-do;
#X text 13 503 2 - Sequencer Step Calculator: Here \, define number of steps per down beat, f 39;
#X text 14 425 1 - Sequencer Down-Beats Calculator: Here \, define "num" and "denom" of the time signature, f 39;
#N canvas 824 334 888 238 Queue 0;
#X obj 275 43 tgl 20 0 \$0-seq-on seq-off ON/OFF 25 10 0 12 #00ff04 #000000 #000000 0 1;
#X obj 200 43 r \$0-step;
#X obj 200 65 sel 1;
#X obj 200 172 tgl 20 0 empty empty empty 0 -10 0 12 #fcfcfc #000000 #000000 0 1;
#X msg 200 87 1;
#X msg 208 126 0;
#X obj 200 150 spigot;
#X obj 247 97 t f b;
#X text 173 16 Queue for starting the sequencer;
#X obj 88 69 spigot;
#X obj 88 94 bng 20 250 50 0 empty empty empty 0 -10 0 12 #fcfcfc #000000 #000000;
#X floatatom 23 135 5 0 0 0 - - - 0;
#X msg 23 44 set \$1;
#X obj 247 75 r \$0-seq-on;
#X obj 23 19 r \$0-step-velocity;
#X obj 88 44 r \$0-step-play;
#X obj 23 181 outlet;
#X obj 88 181 outlet;
#X text 420 18 INPUTs from Step-Calculator: \; - \$0-step: current step number (in 16 step sequencer == 1 to 16) \, used for selector \; INPUTs from Step-Parameters: \; - \$0-step-play: a bang outputted as a step on \; - \$0-step-velocity: what is the velocity of banged step \;, f 62;
#X connect 1 0 2 0;
#X connect 2 0 4 0;
#X connect 3 0 9 1;
#X connect 4 0 6 0;
#X connect 5 0 6 0;
#X connect 6 0 3 0;
#X connect 7 0 6 1;
#X connect 7 1 5 0;
#X connect 9 0 10 0;
#X connect 10 0 11 0;
#X connect 10 0 17 0;
#X connect 11 0 16 0;
#X connect 12 0 11 0;
#X connect 13 0 7 0;
#X connect 14 0 12 0;
#X connect 15 0 9 0;
#X restore 14 701 pd Queue;
#X text 116 724 Step-play (bang);
#X text 64 748 Step-Velocity (0->1);
#N canvas 927 393 592 341 parameter-initialization 0;
#X obj 22 11 loadbang;
#X obj 43 40 s seq-added;
#X obj 22 116 s seq-off;
#X msg 22 94 0;
#X obj 35 63 s \$0-local-bang;
#X obj 23 171 r \$0-local-bang;
#X obj 55 230 s \$0-i-Clear;
#X text 146 230 Clear Parameters (Gui) when loaded;
#X msg 23 279 0;
#X obj 59 279 s \$0-i-bank-sel;
#X text 174 280 Select bank 0 (So loading bank0 params) \, when loaded;
#X obj 23 203 t b b;
#X obj 23 256 del 300;
#X text 84 257 Just insuring that savestate operation is finished;
#X connect 0 0 1 0;
#X connect 0 0 3 0;
#X connect 0 0 4 0;
#X connect 3 0 2 0;
#X connect 5 0 11 0;
#X connect 8 0 9 0;
#X connect 11 0 12 0;
#X connect 11 1 6 0;
#X connect 12 0 8 0;
#X restore 16 398 pd parameter-initialization;
#X text 14 375 0 - Loadbang initialization of step parameters;
#X text 14 616 4 - Step-parameters handling;
#X text 16 661 5 - Queue for first step (first down-beat) to start next sequencer, f 42;
#X text 454 358 Guide for send receive parameters;
#X text 13 316 16 step sequencer with swing and velocity functionality: 4/4 time signature with 4 steps per note/down-beat --------------------------------------------------------, f 59;
#X floatatom 183 21 5 0 0 1 bank \$0-bank-sel \$0-bank-sel-dummy 0;
#X obj 6 47 tgl 20 0 \$0-1 \$0-i1 empty 0 -10 0 12 #ffffff #000000 #000000 0 1;
#X obj 26 47 tgl 20 0 \$0-2 \$0-i2 empty 0 -10 0 12 #ffffff #000000 #000000 0 1;
#X obj 46 47 tgl 20 0 \$0-3 \$0-i3 empty 0 -10 0 12 #ffffff #000000 #000000 0 1;
#X obj 66 47 tgl 20 0 \$0-4 \$0-i4 empty 0 -10 0 12 #ffffff #000000 #000000 0 1;
#X obj 6 69 tgl 20 0 \$0-5 \$0-i5 empty 0 -10 0 12 #ffffff #000000 #000000 0 1;
#X obj 26 69 tgl 20 0 \$0-6 \$0-i6 empty 0 -10 0 12 #ffffff #000000 #000000 0 1;
#X obj 46 69 tgl 20 0 \$0-7 \$0-i7 empty 0 -10 0 12 #ffffff #000000 #000000 0 1;
#X obj 66 69 tgl 20 0 \$0-8 \$0-i8 empty 0 -10 0 12 #ffffff #000000 #000000 0 1;
#X obj 6 92 tgl 20 0 \$0-9 \$0-i9 empty 0 -10 0 12 #ffffff #000000 #000000 0 1;
#X obj 26 92 tgl 20 0 \$0-10 \$0-i10 empty 0 -10 0 12 #ffffff #000000 #000000 0 1;
#X obj 46 92 tgl 20 0 \$0-11 \$0-i11 empty 0 -10 0 12 #ffffff #000000 #000000 0 1;
#X obj 66 92 tgl 20 0 \$0-12 \$0-i12 empty 0 -10 0 12 #ffffff #000000 #000000 0 1;
#X obj 6 115 tgl 20 0 \$0-13 \$0-i13 empty 0 -10 0 12 #ffffff #000000 #000000 0 1;
#X obj 26 115 tgl 20 0 \$0-14 \$0-i14 empty 0 -10 0 12 #ffffff #000000 #000000 0 1;
#X obj 46 115 tgl 20 0 \$0-15 \$0-i15 empty 0 -10 0 12 #ffffff #000000 #000000 0 1;
#X obj 66 115 tgl 20 0 \$0-16 \$0-i16 empty 0 -10 0 12 #ffffff #000000 #000000 0 1;
#X obj 93 47 tgl 20 0 \$0-seq-on seq-off ON/OFF 25 10 0 12 #00ff04 #000000 #000000 0 1;
#X obj 6 20 hradio 20 1 0 4 \$0-bank-sel \$0-i-bank-sel banks 85 10 0 12 #fcfcfc #000000 #000000 0;
#X obj 93 69 bng 20 250 50 0 \$0-Save \$0-i-Save Save 25 10 0 12 #fcfcfc #000000 #000000;
#X obj 93 92 bng 20 250 50 0 \$0-Load \$0-i-Load Load 25 10 0 12 #fcfcfc #000000 #000000;
#X obj 93 115 bng 20 250 50 0 \$0-Clear \$0-i-Clear Clear 25 10 0 12 #fcfcfc #000000 #000000;
#X obj 6 139 bng 20 250 50 0 \$0-open-swing \$0-open-swing-dummy Swing 25 10 0 12 #fcfcfc #000000 #000000;
#X obj 6 162 bng 20 250 50 0 \$0-open-vel \$0-open-vel-dummy Velocity 25 10 0 12 #fcfcfc #000000 #000000;
#X text 3 187 vel;
#X text 131 185 play;
#X obj 183 45 r \$0-open-swing;
#X obj 183 142 r \$0-open-vel;
#X obj 183 165 f \$0;
#N canvas 2604 335 321 171 knob-\$0-velocities 0;
#X obj 110 27 vsl 20 25 0 1 0 0 \$0-y1 \$0-iy1 empty 0 -9 0 12 #ffffff #000000 #000000 0 1;
#X obj 130 27 vsl 20 25 0 1 0 0 \$0-y2 \$0-iy2 empty 0 -9 0 12 #ffffff #000000 #000000 0 1;
#X obj 150 27 vsl 20 25 0 1 0 0 \$0-y3 \$0-iy3 empty 0 -9 0 12 #ffffff #000000 #000000 0 1;
#X obj 170 27 vsl 20 25 0 1 0 0 \$0-y4 \$0-iy4 empty 0 -9 0 12 #ffffff #000000 #000000 0 1;
#X obj 110 59 vsl 20 25 0 1 0 0 \$0-y5 \$0-iy5 empty 0 -9 0 12 #ffffff #000000 #000000 0 1;
#X obj 130 59 vsl 20 25 0 1 0 0 \$0-y6 \$0-iy6 empty 0 -9 0 12 #ffffff #000000 #000000 0 1;
#X obj 150 59 vsl 20 25 0 1 0 0 \$0-y7 \$0-iy7 empty 0 -9 0 12 #ffffff #000000 #000000 0 1;
#X obj 170 59 vsl 20 25 0 1 0 0 \$0-y8 \$0-iy8 empty 0 -9 0 12 #ffffff #000000 #000000 0 1;
#X obj 110 91 vsl 20 25 0 1 0 0 \$0-y9 \$0-iy9 empty 0 -9 0 12 #ffffff #000000 #000000 0 1;
#X obj 130 91 vsl 20 25 0 1 0 0 \$0-y10 \$0-iy10 empty 0 -9 0 12 #ffffff #000000 #000000 0 1;
#X obj 150 91 vsl 20 25 0 1 0 0 \$0-y11 \$0-iy11 empty 0 -9 0 12 #ffffff #000000 #000000 0 1;
#X obj 170 91 vsl 20 25 0 1 0 0 \$0-y12 \$0-iy12 empty 0 -9 0 12 #ffffff #000000 #000000 0 1;
#X obj 110 123 vsl 20 25 0 1 0 0 \$0-y13 \$0-iy13 empty 0 -9 0 12 #ffffff #000000 #000000 0 1;
#X obj 130 123 vsl 20 25 0 1 0 0 \$0-y14 \$0-iy14 empty 0 -9 0 12 #ffffff #000000 #000000 0 1;
#X obj 150 123 vsl 20 25 0 1 0 0 \$0-y15 \$0-iy15 empty 0 -9 0 12 #ffffff #000000 #000000 0 1;
#X obj 170 123 vsl 20 25 0 1 0 0 \$0-y16 \$0-iy16 empty 0 -9 0 12 #ffffff #000000 #000000 0 1;
#X coords 0 171 1 170 85 60 0;
#X restore 391 203 pd knob-\$0-velocities;
#X msg 183 188 \; pd-knob-\$1-velocities vis 1;
#N canvas 2742 380 322 169 knob-\$0-swings 0;
#X obj 110 25 vsl 20 25 0 0 0 0 \$0-x1 \$0-ix1 empty 0 -9 0 12 #ffffff #000000 #000000 0 1;
#X obj 130 25 vsl 20 25 0 0 0 0 \$0-x2 \$0-ix2 empty 0 -9 0 12 #ffffff #000000 #000000 0 1;
#X obj 150 25 vsl 20 25 0 0 0 0 \$0-x3 \$0-ix3 empty 0 -9 0 12 #ffffff #000000 #000000 0 1;
#X obj 170 25 vsl 20 25 0 0 0 0 \$0-x4 \$0-ix4 empty 0 -9 0 12 #ffffff #000000 #000000 0 1;
#X obj 110 57 vsl 20 25 0 0 0 0 \$0-x5 \$0-ix5 empty 0 -9 0 12 #ffffff #000000 #000000 0 1;
#X obj 130 57 vsl 20 25 0 0 0 0 \$0-x6 \$0-ix6 empty 0 -9 0 12 #ffffff #000000 #000000 0 1;
#X obj 150 57 vsl 20 25 0 0 0 0 \$0-x7 \$0-ix7 empty 0 -9 0 12 #ffffff #000000 #000000 0 1;
#X obj 170 57 vsl 20 25 0 0 0 0 \$0-x8 \$0-ix8 empty 0 -9 0 12 #ffffff #000000 #000000 0 1;
#X obj 110 89 vsl 20 25 0 0 0 0 \$0-x9 \$0-ix9 empty 0 -9 0 12 #ffffff #000000 #000000 0 1;
#X obj 130 89 vsl 20 25 0 0 0 0 \$0-x10 \$0-ix10 empty 0 -9 0 12 #ffffff #000000 #000000 0 1;
#X obj 150 89 vsl 20 25 0 0 0 0 \$0-x11 \$0-ix11 empty 0 -9 0 12 #ffffff #000000 #000000 0 1;
#X obj 170 89 vsl 20 25 0 0 0 0 \$0-x12 \$0-ix12 empty 0 -9 0 12 #ffffff #000000 #000000 0 1;
#X obj 110 121 vsl 20 25 0 0 0 0 \$0-x13 \$0-ix13 empty 0 -9 0 12 #ffffff #000000 #000000 0 1;
#X obj 130 121 vsl 20 25 0 0 0 0 \$0-x14 \$0-ix14 empty 0 -9 0 12 #ffffff #000000 #000000 0 1;
#X obj 150 121 vsl 20 25 0 0 0 0 \$0-x15 \$0-ix15 empty 0 -9 0 12 #ffffff #000000 #000000 0 1;
#X obj 170 121 vsl 20 25 0 0 0 0 \$0-x16 \$0-ix16 empty 0 -9 0 12 #ffffff #000000 #000000 0 1;
#X restore 391 108 pd knob-\$0-swings;
#X obj 183 69 f \$0;
#X msg 183 93 \; pd-knob-\$1-swings vis 1;
#X obj 475 12 text define -k to-do;
#A set To fix: \; Load button is not working but changing bank and going back will do the same functionality: going to latest saved parameters. \; To add: \; add an input to the abstraction for changing banks \;;
#X text 318 3 VERSION 0;
#X connect 23 0 0 0;
#X connect 23 1 1 0;
#X connect 58 0 64 0;
#X connect 59 0 60 0;
#X connect 60 0 62 0;
#X connect 64 0 65 0;
#X coords 0 -1 1 1 165 210 1 0 0;
