#N canvas 52 20 1854 977 12;
#X obj 66 56 master-clock;
#A saved 153;
#X obj 65 139 signature;
#A saved 4 4;
#X floatatom 65 212 3 0 0 0 - - - 0;
#X floatatom 158 212 9 0 0 0 - - - 0;
#X obj 241 140 signature;
#A saved 2 4;
#X floatatom 241 213 3 0 0 0 - - - 0;
#X floatatom 334 213 9 0 0 0 - - - 0;
#X obj 425 139 signature;
#A saved 5 4;
#X floatatom 425 212 3 0 0 0 - - - 0;
#X floatatom 518 212 9 0 0 0 - - - 0;
#X obj 852 20 mpd218-controller;
#X connect 1 0 2 0;
#X connect 1 1 3 0;
#X connect 4 0 5 0;
#X connect 4 1 6 0;
#X connect 7 0 8 0;
#X connect 7 1 9 0;
