#N canvas 297 118 1026 715 12;
#X obj 576 397 *~;
#X obj 594 250 osc~;
#X floatatom 193 153 5 0 10000 0 - \$0-i-mod-freq \$0-mod-freq 0;
#X obj 594 325 *~;
#X obj 137 153 hsl 50 20 0 1 0 0 \$0-mod-amp \$0-i-mod-amp empty -2 -10 0 12 #fcfcfc #000000 #000000 0 1;
#X obj 389 423 *~ 0;
#X obj 107 127 tgl 20 0 \$0-source-on \$0-i-source-on empty 0 -10 0 12 #fcfcfc #000000 #000000 0 1;
#X obj 389 564 +~;
#X obj 575 422 *~ 0;
#X obj 107 153 tgl 20 0 \$0-mod-on \$0-i-mod-on empty 0 -10 0 12 #fcfcfc #000000 #000000 0 1;
#X obj 389 215 inlet~;
#X obj 388 612 outlet~;
#X msg 629 250 0;
#X obj 389 395 *~;
#X obj 137 127 hsl 50 20 0 1 0 0 \$0-source-amp \$0-i-source-amp empty -2 -10 0 12 #fcfcfc #000000 #000000 0 1;
#N canvas 0 50 450 250 (subpatch) 0;
#X array \$0-mod-disp 100 float 2;
#X coords 0 1 100 0 200 80 1 0 0;
#X restore 107 223 graph;
#X obj 287 197 tgl 20 0 \$0-mod-graph \$0-i-mod-graph empty 0 -10 0 12 #fcfcfc #000000 #000000 0 1;
#X text 192 126 Source;
#X obj 594 275 *~ 0.5;
#X obj 594 298 +~ 0.5;
#X obj 137 175 hsl 50 20 0 0.75 0 0 \$0-mod-offset \$0-i-mod-offset empty -2 -10 0 12 #fcfcfc #000000 #000000 0 1;
#X obj 594 350 +~;
#X text 234 153 Modulatoed;
#X text 191 175 Offset;
#X obj 440 25 inlet;
#X obj 504 26 inlet;
#X obj 567 25 inlet;
#X obj 658 25 inlet;
#X obj 748 26 inlet;
#X obj 748 74 s \$0-phase-reset;
#X obj 662 250 r \$0-phase-reset;
#N canvas 609 160 538 771 parameter-handling 0;
#X obj 33 207 t b f, f 2;
#X obj 63 207 t b f, f 2;
#X obj 93 207 t b f, f 2;
#X obj 123 207 t b f, f 2;
#X obj 153 207 t b f, f 2;
#X obj 32 24 text define -k \$0-parameters;
#A set 0 0 0 0 0 0 \;;
#X obj 44 301 text set \$0-parameters 0 0;
#X obj 73 360 savestate;
#X obj 133 413 text sequence \$0-parameters;
#X msg 133 388 line 0 \, step;
#X obj 32 545 text get \$0-parameters;
#X text 301 5 Reading parametes into text \$0-parameters \, use savestate to save abstraction parameters together with saving parent patch and loading thenm next time parent path is open, f 28;
#X obj 73 440 text set \$0-parameters 0 0;
#X msg 32 520 0;
#X obj 32 496 del 100;
#X obj 44 273 pack f f f f f f, f 22;
#X obj 184 207 t b f, f 2;
#X obj 32 570 unpack f f f f f f, f 24;
#X obj 33 68 r \$0-source-on;
#X obj 63 91 r \$0-source-amp;
#X obj 93 114 r \$0-mod-amp;
#X obj 123 137 r \$0-mod-freq;
#X obj 153 160 r \$0-mod-offset;
#X obj 184 183 r \$0-mod-on;
#X obj 32 720 s \$0-i-source-on;
#X obj 65 696 s \$0-i-source-amp;
#X obj 98 671 s \$0-i-mod-amp;
#X obj 131 646 s \$0-i-mod-freq;
#X obj 164 622 s \$0-i-mod-offset;
#X obj 197 598 s \$0-i-mod-on;
#X connect 0 0 15 0;
#X connect 0 1 15 0;
#X connect 1 0 15 0;
#X connect 1 1 15 1;
#X connect 2 0 15 0;
#X connect 2 1 15 2;
#X connect 3 0 15 0;
#X connect 3 1 15 3;
#X connect 4 0 15 0;
#X connect 4 1 15 4;
#X connect 7 0 12 0;
#X connect 7 0 14 0;
#X connect 7 1 9 0;
#X connect 8 0 7 0;
#X connect 9 0 8 0;
#X connect 10 0 17 0;
#X connect 13 0 10 0;
#X connect 14 0 13 0;
#X connect 15 0 6 0;
#X connect 16 0 15 0;
#X connect 16 1 15 5;
#X connect 17 0 24 0;
#X connect 17 1 25 0;
#X connect 17 2 26 0;
#X connect 17 3 27 0;
#X connect 17 4 28 0;
#X connect 17 5 29 0;
#X connect 18 0 0 0;
#X connect 19 0 1 0;
#X connect 20 0 2 0;
#X connect 21 0 3 0;
#X connect 22 0 4 0;
#X connect 23 0 16 0;
#X restore 121 352 pd parameter-handling;
#X obj 440 49 clip 0 1;
#X obj 504 49 clip 0 1;
#X obj 567 48 clip 0 10000;
#X obj 658 48 clip 0 0.75;
#X obj 777 421 tabwrite~ \$0-mod-disp;
#X obj 778 374 r \$0-mod-graph;
#X obj 594 215 r \$0-mod-freq;
#X obj 624 324 r \$0-mod-amp;
#X obj 624 349 r \$0-mod-offset;
#X obj 613 421 r \$0-mod-on;
#X obj 420 395 r \$0-source-amp;
#X obj 426 423 r \$0-source-on;
#X obj 440 168 s \$0-i-source-amp;
#X obj 504 145 s \$0-i-mod-amp;
#X obj 567 121 s \$0-i-mod-freq;
#X obj 658 97 s \$0-i-mod-offset;
#X text 193 100 (0:1);
#X obj 778 399 metro 100;
#X text 127 26 VERSION 0;
#X connect 0 0 8 0;
#X connect 1 0 18 0;
#X connect 3 0 21 0;
#X connect 5 0 7 0;
#X connect 7 0 11 0;
#X connect 8 0 7 1;
#X connect 10 0 0 0;
#X connect 10 0 13 0;
#X connect 12 0 1 1;
#X connect 13 0 5 0;
#X connect 18 0 19 0;
#X connect 19 0 3 0;
#X connect 21 0 0 1;
#X connect 21 0 36 0;
#X connect 24 0 32 0;
#X connect 25 0 33 0;
#X connect 26 0 34 0;
#X connect 27 0 35 0;
#X connect 28 0 29 0;
#X connect 30 0 12 0;
#X connect 32 0 44 0;
#X connect 33 0 45 0;
#X connect 34 0 46 0;
#X connect 35 0 47 0;
#X connect 37 0 49 0;
#X connect 38 0 1 0;
#X connect 39 0 3 1;
#X connect 40 0 21 1;
#X connect 41 0 8 1;
#X connect 42 0 13 1;
#X connect 43 0 5 1;
#X connect 49 0 36 0;
#X coords 0 -1 1 1 215 210 1 100 100;
