#N canvas 368 107 533 541 12;
#X obj 39 205 inlet~;
#X obj 40 415 freeverb~;
#X msg 122 311 dry \$1;
#X msg 54 310 wet \$1;
#X msg 194 310 roomsize \$1;
#X obj 39 486 outlet~;
#X obj 164 139 hsl 40 25 0 1 0 0 \$0-wet \$0-i-wet Wet -2 -10 0 12 #fcfcfc #000000 #000000 0 1;
#X obj 110 139 hsl 40 25 0 1 0 0 \$0-dry \$0-i-dry Dry -2 -10 0 12 #fcfcfc #000000 #000000 0 1;
#X obj 220 139 hsl 60 25 0 1 0 0 \$0-room-size \$0-i-room-size Room-size -2 -10 0 12 #fcfcfc #000000 #000000 0 1;
#X obj 54 286 r \$0-wet;
#X obj 122 286 r \$0-dry;
#X obj 194 286 r \$0-room-size;
#N canvas 2660 242 506 586 parameter-handling 0;
#X obj 44 95 t b f, f 2;
#X obj 73 95 t b f, f 2;
#X obj 244 18 text define -k \$0-parameters;
#A set 0 0 0 \;;
#X obj 44 210 text set \$0-parameters 0 0;
#X obj 73 254 savestate;
#X obj 133 307 text sequence \$0-parameters;
#X msg 133 282 line 0 \, step;
#X text 259 64 Reading parametes into text \$0-parameters \, use savestate to save abstraction parameters together with saving parent patch and loading thenm next time parent path is open, f 28;
#X obj 73 350 text set \$0-parameters 0 0;
#X msg 32 414 0;
#X obj 32 390 del 200;
#X obj 32 439 text get \$0-parameters 0 3;
#X obj 44 182 pack f f f, f 12;
#X obj 114 95 t b f, f 2;
#X obj 32 464 unpack f f f;
#X obj 73 45 r \$0-wet;
#X obj 44 21 r \$0-dry;
#X obj 114 69 r \$0-room-size;
#X obj 32 540 s \$0-i-dry;
#X obj 72 518 s \$0-i-wet;
#X obj 113 495 s \$0-i-room-size;
#X connect 0 0 12 0;
#X connect 0 1 12 0;
#X connect 1 0 12 0;
#X connect 1 1 12 1;
#X connect 4 0 8 0;
#X connect 4 0 10 0;
#X connect 4 1 6 0;
#X connect 5 0 4 0;
#X connect 6 0 5 0;
#X connect 9 0 11 0;
#X connect 10 0 9 0;
#X connect 11 0 14 0;
#X connect 12 0 3 0;
#X connect 13 0 12 0;
#X connect 13 1 12 2;
#X connect 14 0 18 0;
#X connect 14 1 19 0;
#X connect 14 2 20 0;
#X connect 15 0 1 0;
#X connect 16 0 0 0;
#X connect 17 0 13 0;
#X restore 149 388 pd parameter-handling;
#X text 20 17 VERSION 0;
#X obj 188 205 inlet;
#X obj 188 233 s \$0-i-wet;
#X obj 108 205 inlet;
#X obj 108 233 s \$0-i-dry;
#X obj 267 206 inlet;
#X obj 267 234 s \$0-i-room-size;
#X connect 0 0 1 0;
#X connect 1 0 5 0;
#X connect 2 0 1 0;
#X connect 3 0 1 0;
#X connect 4 0 1 0;
#X connect 9 0 3 0;
#X connect 10 0 2 0;
#X connect 11 0 4 0;
#X connect 14 0 15 0;
#X connect 16 0 17 0;
#X connect 18 0 19 0;
#X coords 0 -1 1 1 190 70 1 100 100;
