#N canvas 66 32 1854 977 12;
#X obj 41 12 inlet;
#X text 85 12 PLAYBACK FREQUENCY [Hz] / TRIGGER;
#X obj 59 170 r \$1-START-INDEX;
#X obj 155 201 r \$1-END-INDEX;
#X obj 41 227 f;
#X floatatom 155 226 12 0 0 0 - - - 0;
#X floatatom 269 226 8 0 0 1 DURATION[ms] - - 0;
#X obj 269 122 /, f 6;
#X obj 269 147 * 1000;
#X floatatom 308 96 5 0 0 0 - - - 0;
#X obj 41 76 t b b f;
#X msg 269 96 1, f 2;
#X floatatom 59 199 7 0 0 0 - - - 0;
#X obj 41 254 pack f f f, f 33;
#X msg 41 287 \$1 \, \$2 \$3;
#X obj 41 424 line~;
#X obj 42 496 tabread4~ \$1-SAMPLE;
#X floatatom 1311 103 7 0 1 1 PERCENTAGE[0:1] - - 0;
#X floatatom 1311 157 7 0 0 1 FADE\ LENGTH - - 0;
#X obj 1563 174 s \$1-LOOP-INDEX;
#X obj 1563 25 inlet;
#X text 1604 25 LOOP INDEX;
#X obj 1311 25 inlet;
#X obj 227 292 r \$1-END-INDEX;
#X obj 227 359 -, f 15;
#X obj 290 339 t b f, f 6;
#X floatatom 227 395 8 0 0 1 FADE\ OUT\ INDEX - - 0;
#X obj 227 418 sig~;
#X obj 210 443 -~;
#X obj 42 580 *~;
#X obj 42 647 outlet~;
#X obj 511 463 threshold~ 0 0 10 0;
#X obj 511 488 bng 20 250 50 0 empty empty FADE\ OUT\ STARTS 23 10 0 12 #fcfcfc #000000 #000000;
#X text 512 399 TO SEE IF PRECISE \, OTHERWISE USE DELAY TIME(INDEX 0 TILL FADE OUT INDEX), f 19;
#X obj 511 513 s \$0-FADE-OUT-B;
#X floatatom 41 45 5 0 0 0 - - - 0;
#X obj 692 40 r \$0-FADE-OUT-B;
#X obj 693 508 tabread4~ \$1-SAMPLE;
#X obj 692 599 *~, f 6;
#X obj 42 620 +~;
#X obj 692 65 f;
#X obj 723 65 + 1;
#X floatatom 692 115 5 0 0 0 - - - 0;
#X obj 692 90 mod 2;
#X obj 692 139 sel 0 1, f 62;
#X obj 1315 250 loadbang;
#X obj 1315 275 s \$1-PARAM-RESEND;
#X text 1317 300 ASKS LOAD SAMPLE \$1 TO RESEND START AND END INDEX;
#X obj 1563 143 nbx 5 18 477 15592 0 0 empty empty LOOP-IDX[STRT-IDX:END-IDX] 65 9 0 12 #fcfcfc #000000 #000000 0 256;
#X floatatom 947 32 4 0 0 0 - - - 0;
#X obj 1311 76 f \$2;
#X obj 1563 76 f \$3;
#X obj 1349 76 loadbang;
#X obj 1601 76 loadbang;
#X obj 210 468 expr~ if ($v1>=0 \, $v1 \, 0);
#N canvas 101 69 450 326 SEND-CURSOR-1 0;
#X obj 166 135 metro 10;
#X obj 166 112 tgl 20 0 empty empty empty 0 -10 0 12 #fcfcfc #000000 #000000 0 1;
#X obj 166 157 snapshot~;
#X obj 166 229 s \$1-LINE-CURSOR-1;
#X floatatom 166 182 5 0 0 0 - - - 0;
#X obj 192 87 loadbang;
#X msg 192 112 1;
#X obj 166 206 spigot;
#X obj 218 206 f \$4;
#X obj 217 182 loadbang;
#X obj 37 136 inlet~;
#X connect 0 0 2 0;
#X connect 1 0 0 0;
#X connect 2 0 4 0;
#X connect 4 0 7 0;
#X connect 5 0 6 0;
#X connect 6 0 1 0;
#X connect 7 0 3 0;
#X connect 8 0 7 1;
#X connect 9 0 8 0;
#X connect 10 0 2 0;
#X restore 57 450 pd SEND-CURSOR-1;
#X obj 443 359 sig~;
#X obj 209 561 expr~ if($v2 == 0 \, 1 \, 1-($v1/$v2));
#N canvas 176 173 455 438 INLET-CALC-FADE-LENGTH 0;
#X obj 169 92 r \$1-END-INDEX;
#X obj 169 167 -;
#X obj 179 141 t b f;
#X obj 159 243 *;
#X obj 169 218 t b f;
#X obj 179 115 r \$1-LOOP-INDEX;
#X obj 159 269 / 2;
#X floatatom 169 194 5 0 0 1 LOOP\ LENGTH - - 0;
#X obj 159 57 inlet;
#X obj 159 309 outlet;
#X connect 0 0 1 0;
#X connect 1 0 7 0;
#X connect 2 0 1 0;
#X connect 2 1 1 1;
#X connect 3 0 6 0;
#X connect 4 0 3 0;
#X connect 4 1 3 1;
#X connect 5 0 2 0;
#X connect 6 0 9 0;
#X connect 7 0 4 0;
#X connect 8 0 3 0;
#X restore 1311 129 pd INLET-CALC-FADE-LENGTH;
#N canvas 101 69 519 433 LOOP-RANGE-INIT 0;
#X obj 183 82 r \$1-START-INDEX;
#X obj 183 153 pack f f;
#X obj 204 104 r \$1-END-INDEX;
#X obj 204 129 t b f;
#X msg 183 177 range \$1 \$2;
#X obj 183 264 outlet;
#X connect 0 0 1 0;
#X connect 1 0 4 0;
#X connect 2 0 3 0;
#X connect 3 0 1 0;
#X connect 3 1 1 1;
#X connect 4 0 5 0;
#X restore 1574 112 pd LOOP-RANGE-INIT;
#X obj 988 59 f, f 4;
#X obj 1013 32 r \$1-LOOP-INDEX;
#X obj 988 32 bng 20 250 50 0 empty empty empty 0 -10 0 12 #fcfcfc #000000 #000000;
#N canvas 66 32 1854 977 LOOP-RUN 0;
#X floatatom 168 87 5 0 0 0 - - - 0;
#X obj 420 45 r \$1-END-INDEX;
#X obj 421 120 -;
#X obj 430 94 t b f;
#X obj 430 68 r \$1-LOOP-INDEX;
#X floatatom 420 147 5 0 0 1 LOOP\ LENGTH - - 0;
#X obj 266 60 r \$1-END-INDEX;
#X obj 266 135 -;
#X obj 276 109 t b f;
#X floatatom 266 162 5 0 0 1 SAMPLE\ LENGTH - - 0;
#X obj 276 83 r \$1-START-INDEX;
#X obj 420 171 t b f;
#X obj 266 191 /, f 27;
#X floatatom 266 216 5 0 0 1 SAMPLE/LOOP\ RATIO - - 0;
#X obj 168 260 *, f 19;
#X floatatom 308 401 8 0 0 1 DURATION[ms] - - 0;
#X obj 308 332 /, f 6;
#X obj 308 357 * 1000;
#X floatatom 347 306 5 0 0 0 - - - 0;
#X msg 308 306 1, f 2;
#X obj 168 286 t b f, f 26;
#X obj 190 376 r \$1-END-INDEX;
#X obj 73 401 f;
#X floatatom 190 401 12 0 0 0 - - - 0;
#X floatatom 91 376 8 0 0 0 - - - 0;
#X obj 91 347 r \$1-LOOP-INDEX;
#X obj 73 426 pack f f f, f 34;
#X obj 73 44 inlet;
#X obj 168 45 inlet;
#X text 113 44 RUN;
#X text 210 44 FREQ;
#X obj 266 240 t b f;
#X msg 73 480 \$1 \, \$2 \$3;
#X obj 73 564 line~;
#X obj 281 557 sig~;
#X obj 264 585 -~;
#X obj 695 585 -~;
#X obj 712 555 sig~;
#X obj 747 482 t b f;
#X obj 712 435 r \$1-END-INDEX;
#X obj 712 502 -, f 10;
#X obj 263 750 *~;
#X obj 995 606 threshold~ 0 0 10 0;
#X obj 483 529 sig~;
#X obj 281 507 r \$1-LOOP-INDEX;
#X floatatom 281 532 5 0 0 0 - - - 0;
#X obj 264 610 expr~ if ($v1<=$v2 \, $v1 \, $v2);
#X obj 695 704 expr~ if ($v1>=0 \, $v1 \, 0);
#X text 38 528 ALWAYS STARTS FROM LOOP INDEX, f 16;
#X obj 263 693 expr~ if($v2 == 0 \, 1 \, ($v1/$v2));
#X obj 695 729 expr~ if($v2 == 0 \, 1 \, 1-($v1/$v2));
#X obj 930 502 sig~;
#X obj 995 825 outlet;
#X obj 72 810 outlet~;
#X text 72 834 LINE~;
#X obj 262 816 outlet~;
#X text 262 839 FADE AMPLITUDE;
#X floatatom 712 529 8 0 0 1 FADE-OUT-INDEX - - 0;
#X text 994 849 FADE OUT STARTED (START FADE-IN);
#X obj 895 250 inlet;
#X text 941 251 RESET LINE~ TO LOOP INDEX;
#X obj 483 507 r \$0-FADE-LENGTH;
#X obj 747 458 r \$0-FADE-LENGTH;
#X obj 483 650 +~ 1e-05;
#X text 234 640 JUST BECAUSE OF PD WARNING. DIVISION BY 0 NEVER REALLY HAPPENS THOUGH BEHACUSE OF IF CASE, f 34;
#X obj 929 644 +~ 1e-05;
#X text 680 634 JUST BECAUSE OF PD WARNING. DIVISION BY 0 NEVER REALLY HAPPENS THOUGH BEHACUSE OF IF CASE, f 34;
#X connect 0 0 14 0;
#X connect 1 0 2 0;
#X connect 2 0 5 0;
#X connect 3 0 2 0;
#X connect 3 1 2 1;
#X connect 4 0 3 0;
#X connect 5 0 11 0;
#X connect 6 0 7 0;
#X connect 7 0 9 0;
#X connect 8 0 7 0;
#X connect 8 1 7 1;
#X connect 9 0 12 0;
#X connect 10 0 8 0;
#X connect 11 0 12 0;
#X connect 11 1 12 1;
#X connect 12 0 13 0;
#X connect 13 0 31 0;
#X connect 14 0 20 0;
#X connect 15 0 26 2;
#X connect 16 0 17 0;
#X connect 17 0 15 0;
#X connect 18 0 16 1;
#X connect 19 0 16 0;
#X connect 20 0 19 0;
#X connect 20 1 18 0;
#X connect 21 0 23 0;
#X connect 22 0 26 0;
#X connect 23 0 26 1;
#X connect 24 0 22 1;
#X connect 25 0 24 0;
#X connect 26 0 32 0;
#X connect 27 0 22 0;
#X connect 28 0 0 0;
#X connect 31 0 14 0;
#X connect 31 1 14 1;
#X connect 32 0 33 0;
#X connect 33 0 35 0;
#X connect 33 0 36 0;
#X connect 33 0 53 0;
#X connect 34 0 35 1;
#X connect 35 0 46 0;
#X connect 36 0 42 0;
#X connect 36 0 47 0;
#X connect 37 0 36 1;
#X connect 38 0 40 0;
#X connect 38 1 40 1;
#X connect 38 1 51 0;
#X connect 39 0 40 0;
#X connect 40 0 57 0;
#X connect 41 0 55 0;
#X connect 42 0 52 0;
#X connect 43 0 46 1;
#X connect 43 0 63 0;
#X connect 44 0 45 0;
#X connect 45 0 34 0;
#X connect 46 0 49 0;
#X connect 47 0 50 0;
#X connect 49 0 41 0;
#X connect 50 0 41 1;
#X connect 51 0 65 0;
#X connect 57 0 37 0;
#X connect 59 0 33 0;
#X connect 61 0 43 0;
#X connect 62 0 38 0;
#X connect 63 0 49 1;
#X connect 65 0 50 1;
#X restore 692 180 pd LOOP-RUN;
#X f 12;
#N canvas 101 69 574 462 SEND-CURSOR-LOOP-1 0;
#X obj 177 157 metro 10;
#X obj 177 134 tgl 20 0 empty empty empty 0 -10 0 12 #fcfcfc #000000 #000000 0 1;
#X obj 177 179 snapshot~;
#X floatatom 177 204 5 0 0 0 - - - 0;
#X obj 203 109 loadbang;
#X msg 203 134 1;
#X obj 177 263 s \$1-LINE-CURSOR-LOOP-1;
#X obj 177 232 spigot;
#X obj 229 232 f \$4;
#X obj 228 208 loadbang;
#X obj 360 159 inlet~;
#X connect 0 0 2 0;
#X connect 1 0 0 0;
#X connect 2 0 3 0;
#X connect 3 0 7 0;
#X connect 4 0 5 0;
#X connect 5 0 1 0;
#X connect 7 0 6 0;
#X connect 8 0 7 1;
#X connect 9 0 8 0;
#X connect 10 0 2 0;
#X restore 744 267 pd SEND-CURSOR-LOOP-1;
#X obj 760 200 bng 20 250 50 0 empty empty FADE\ OUT\ STARTS 23 10 0 12 #fcfcfc #000000 #000000;
#X obj 760 225 s \$0-FADE-OUT-B;
#N canvas 115 81 450 300 SEND-CURSOR-LOOP-2 0;
#X obj 121 102 metro 10;
#X obj 121 79 tgl 20 0 empty empty empty 0 -10 0 12 #fcfcfc #000000 #000000 0 1;
#X obj 121 124 snapshot~;
#X floatatom 121 149 5 0 0 0 - - - 0;
#X obj 147 54 loadbang;
#X msg 147 79 1;
#X obj 120 198 s \$1-LINE-CURSOR-LOOP-2;
#X obj 120 170 spigot;
#X obj 172 170 f \$4;
#X obj 171 146 loadbang;
#X obj 291 105 inlet~;
#X connect 0 0 2 0;
#X connect 1 0 0 0;
#X connect 2 0 3 0;
#X connect 3 0 7 0;
#X connect 4 0 5 0;
#X connect 5 0 1 0;
#X connect 7 0 6 0;
#X connect 8 0 7 1;
#X connect 9 0 8 0;
#X connect 10 0 2 0;
#X restore 963 275 pd SEND-CURSOR-LOOP-2;
#N canvas 66 32 1854 977 LOOP-RUN 0;
#X floatatom 168 87 5 0 0 0 - - - 0;
#X obj 420 45 r \$1-END-INDEX;
#X obj 421 120 -;
#X obj 430 94 t b f;
#X obj 430 68 r \$1-LOOP-INDEX;
#X floatatom 420 147 5 0 0 1 LOOP\ LENGTH - - 0;
#X obj 266 60 r \$1-END-INDEX;
#X obj 266 135 -;
#X obj 276 109 t b f;
#X floatatom 266 162 5 0 0 1 SAMPLE\ LENGTH - - 0;
#X obj 276 83 r \$1-START-INDEX;
#X obj 420 171 t b f;
#X obj 266 191 /, f 27;
#X floatatom 266 216 5 0 0 1 SAMPLE/LOOP\ RATIO - - 0;
#X obj 168 260 *, f 19;
#X floatatom 308 401 8 0 0 1 DURATION[ms] - - 0;
#X obj 308 332 /, f 6;
#X obj 308 357 * 1000;
#X floatatom 347 306 5 0 0 0 - - - 0;
#X msg 308 306 1, f 2;
#X obj 168 286 t b f, f 26;
#X obj 190 376 r \$1-END-INDEX;
#X obj 73 401 f;
#X floatatom 190 401 12 0 0 0 - - - 0;
#X floatatom 91 376 8 0 0 0 - - - 0;
#X obj 91 347 r \$1-LOOP-INDEX;
#X obj 73 426 pack f f f, f 34;
#X obj 73 44 inlet;
#X obj 168 45 inlet;
#X text 113 44 RUN;
#X text 210 44 FREQ;
#X obj 266 240 t b f;
#X msg 73 480 \$1 \, \$2 \$3;
#X obj 73 564 line~;
#X obj 281 557 sig~;
#X obj 264 585 -~;
#X obj 695 585 -~;
#X obj 712 555 sig~;
#X obj 747 482 t b f;
#X obj 712 435 r \$1-END-INDEX;
#X obj 712 502 -, f 10;
#X obj 263 755 *~;
#X obj 995 606 threshold~ 0 0 10 0;
#X obj 483 529 sig~;
#X obj 281 507 r \$1-LOOP-INDEX;
#X floatatom 281 532 5 0 0 0 - - - 0;
#X obj 264 610 expr~ if ($v1<=$v2 \, $v1 \, $v2);
#X obj 695 630 expr~ if ($v1>=0 \, $v1 \, 0);
#X text 38 528 ALWAYS STARTS FROM LOOP INDEX, f 16;
#X obj 263 721 expr~ if($v2 == 0 \, 1 \, ($v1/$v2));
#X obj 695 734 expr~ if($v2 == 0 \, 1 \, 1-($v1/$v2));
#X obj 930 502 sig~;
#X obj 995 825 outlet;
#X obj 72 810 outlet~;
#X text 72 834 LINE~;
#X obj 262 816 outlet~;
#X text 262 839 FADE AMPLITUDE;
#X floatatom 712 529 8 0 0 1 FADE-OUT-INDEX - - 0;
#X text 994 849 FADE OUT STARTED (START FADE-IN);
#X obj 895 250 inlet;
#X text 941 251 RESET LINE~ TO LOOP INDEX;
#X obj 483 507 r \$0-FADE-LENGTH;
#X obj 747 458 r \$0-FADE-LENGTH;
#X obj 483 665 +~ 1e-05;
#X text 234 655 JUST BECAUSE OF PD WARNING. DIVISION BY 0 NEVER REALLY HAPPENS THOUGH BEHACUSE OF IF CASE, f 34;
#X obj 929 677 +~ 1e-05;
#X text 680 667 JUST BECAUSE OF PD WARNING. DIVISION BY 0 NEVER REALLY HAPPENS THOUGH BEHACUSE OF IF CASE, f 34;
#X connect 0 0 14 0;
#X connect 1 0 2 0;
#X connect 2 0 5 0;
#X connect 3 0 2 0;
#X connect 3 1 2 1;
#X connect 4 0 3 0;
#X connect 5 0 11 0;
#X connect 6 0 7 0;
#X connect 7 0 9 0;
#X connect 8 0 7 0;
#X connect 8 1 7 1;
#X connect 9 0 12 0;
#X connect 10 0 8 0;
#X connect 11 0 12 0;
#X connect 11 1 12 1;
#X connect 12 0 13 0;
#X connect 13 0 31 0;
#X connect 14 0 20 0;
#X connect 15 0 26 2;
#X connect 16 0 17 0;
#X connect 17 0 15 0;
#X connect 18 0 16 1;
#X connect 19 0 16 0;
#X connect 20 0 19 0;
#X connect 20 1 18 0;
#X connect 21 0 23 0;
#X connect 22 0 26 0;
#X connect 23 0 26 1;
#X connect 24 0 22 1;
#X connect 25 0 24 0;
#X connect 26 0 32 0;
#X connect 27 0 22 0;
#X connect 28 0 0 0;
#X connect 31 0 14 0;
#X connect 31 1 14 1;
#X connect 32 0 33 0;
#X connect 33 0 35 0;
#X connect 33 0 36 0;
#X connect 33 0 53 0;
#X connect 34 0 35 1;
#X connect 35 0 46 0;
#X connect 36 0 42 0;
#X connect 36 0 47 0;
#X connect 37 0 36 1;
#X connect 38 0 40 0;
#X connect 38 1 40 1;
#X connect 38 1 51 0;
#X connect 39 0 40 0;
#X connect 40 0 57 0;
#X connect 41 0 55 0;
#X connect 42 0 52 0;
#X connect 43 0 46 1;
#X connect 43 0 63 0;
#X connect 44 0 45 0;
#X connect 45 0 34 0;
#X connect 46 0 49 0;
#X connect 47 0 50 0;
#X connect 49 0 41 0;
#X connect 50 0 41 1;
#X connect 51 0 65 0;
#X connect 57 0 37 0;
#X connect 59 0 33 0;
#X connect 61 0 43 0;
#X connect 62 0 38 0;
#X connect 63 0 49 1;
#X connect 65 0 50 1;
#X restore 907 186 pd LOOP-RUN;
#X f 12;
#X obj 908 509 tabread4~ \$1-SAMPLE;
#X obj 907 600 *~, f 6;
#X text 986 12 RESET TO LOOP-INDEX WITH NEW MIDI-IN;
#X obj 546 189 tgl 20 0 empty empty DIAGNOSTICS 23 10 0 12 #fcfcfc #000000 #000000 0 1;
#X obj 546 214 metro 10;
#X obj 546 239 snapshot~;
#X floatatom 546 264 13 0 0 0 - - - 0;
#X obj 1160 119 tgl 20 0 empty empty DIAGNOSTICS 23 10 0 12 #fcfcfc #000000 #000000 0 1;
#X obj 1160 144 metro 10;
#X obj 1160 169 snapshot~;
#X floatatom 1160 194 5 0 0 0 - - - 0;
#X obj 975 206 bng 20 250 50 0 empty empty FADE\ OUT\ STARTS 23 10 0 12 #fcfcfc #000000 #000000;
#X obj 975 231 s \$0-FADE-OUT-B;
#X text 1142 419 \$1: WHICH SAMPLE-LOADER WHOULD IT MATCH TO - EXAMPLE:[LOAD.SAMPLE \$1] \; \$2: CROSS-FADE PERCENTAGE [0:1]. 1 WILL BE 50% OF LOOP LENGTH \; \$3: LOOP INDEX: SET BY THIS PATCH AND SENT TO [LOAD.SAMPLE \$1] \; \$4: TOGGLE TO SEND CURSOR POSITIONS TO [LOAD.SAMPLE \$1] \;, f 72;
#X obj 1664 56 bng 20 250 50 0 empty empty empty 0 -10 0 12 #fcfcfc #000000 #000000;
#X obj 320 710 tgl 20 0 empty empty DIAGNOSTICS 23 10 0 12 #fcfcfc #000000 #000000 0 1;
#X obj 320 735 metro 10;
#X obj 320 760 snapshot~;
#X floatatom 320 785 5 0 0 0 - - - 0;
#X obj 444 711 tgl 20 0 empty empty DIAGNOSTICS 23 10 0 12 #fcfcfc #000000 #000000 0 1;
#X obj 444 736 metro 10;
#X obj 444 761 snapshot~;
#X floatatom 444 786 5 0 0 0 - - - 0;
#X obj 1696 11 r \$1-SAMPLE-LOADED;
#X obj 1696 36 del 20;
#X obj 1433 56 bng 20 250 50 0 empty empty empty 0 -10 0 12 #fcfcfc #000000 #000000;
#X text 1352 26 CROSS FADE PERCENTAGE;
#X obj 1311 185 s \$0-FADE-LENGTH;
#X obj 290 315 r \$0-FADE-LENGTH;
#X obj 443 515 +~ 1e-05;
#X text 194 505 JUST BECAUSE OF PD WARNING. DIVISION BY 0 NEVER REALLY HAPPENS THOUGH BEHACUSE OF IF CASE, f 34;
#X text 1142 617 POSSIBLE TO REMOVE ALOT OF DUPLICATE STUFF AND MAKE PATH MORE READABLE.....LATER.;
#X text 1140 536 TO ADD ANOTHER ARGUMENT \, SECOND ARGUMENT PREFERABALY \, AS INDEX OF THE _SP --> MAYBE SEPARATE START \, END \, LOOP INDEXES....THIS WAY COULD BE SHOWN IN TABLE ARRAY... \;;
#X obj 731 214 *~;
#X obj 947 220 *~;
#X obj 174 580 *~;
#X connect 0 0 35 0;
#X connect 0 0 49 0;
#X connect 0 0 62 0;
#X connect 2 0 12 0;
#X connect 3 0 5 0;
#X connect 4 0 13 0;
#X connect 5 0 13 1;
#X connect 6 0 13 2;
#X connect 7 0 8 0;
#X connect 8 0 6 0;
#X connect 9 0 7 1;
#X connect 10 0 4 0;
#X connect 10 1 11 0;
#X connect 10 2 9 0;
#X connect 11 0 7 0;
#X connect 12 0 4 1;
#X connect 13 0 14 0;
#X connect 14 0 15 0;
#X connect 15 0 16 0;
#X connect 15 0 28 0;
#X connect 15 0 55 0;
#X connect 16 0 29 0;
#X connect 17 0 58 0;
#X connect 18 0 96 0;
#X connect 20 0 51 0;
#X connect 22 0 50 0;
#X connect 23 0 24 0;
#X connect 24 0 26 0;
#X connect 25 0 24 0;
#X connect 25 1 24 1;
#X connect 25 1 56 0;
#X connect 26 0 27 0;
#X connect 27 0 28 1;
#X connect 28 0 31 0;
#X connect 28 0 54 0;
#X connect 29 0 39 0;
#X connect 31 0 32 0;
#X connect 32 0 34 0;
#X connect 35 0 10 0;
#X connect 36 0 40 0;
#X connect 37 0 38 0;
#X connect 38 0 39 1;
#X connect 39 0 30 0;
#X connect 40 0 41 0;
#X connect 40 0 43 0;
#X connect 41 0 40 1;
#X connect 42 0 44 0;
#X connect 43 0 42 0;
#X connect 44 0 63 0;
#X connect 44 1 68 0;
#X connect 45 0 46 0;
#X connect 48 0 19 0;
#X connect 49 0 63 1;
#X connect 49 0 68 1;
#X connect 50 0 17 0;
#X connect 51 0 48 0;
#X connect 52 0 50 0;
#X connect 53 0 51 0;
#X connect 54 0 57 0;
#X connect 56 0 98 0;
#X connect 57 0 104 0;
#X connect 57 0 104 1;
#X connect 58 0 18 0;
#X connect 59 0 48 0;
#X connect 60 0 63 2;
#X connect 60 0 68 2;
#X connect 61 0 60 1;
#X connect 62 0 60 0;
#X connect 63 0 37 0;
#X connect 63 0 64 0;
#X connect 63 1 74 0;
#X connect 63 1 102 0;
#X connect 63 1 102 1;
#X connect 63 2 65 0;
#X connect 65 0 66 0;
#X connect 68 0 69 0;
#X connect 68 0 67 0;
#X connect 68 1 78 0;
#X connect 68 1 103 0;
#X connect 68 1 103 1;
#X connect 68 2 80 0;
#X connect 69 0 70 0;
#X connect 70 0 39 1;
#X connect 72 0 73 0;
#X connect 73 0 74 0;
#X connect 74 0 75 0;
#X connect 76 0 77 0;
#X connect 77 0 78 0;
#X connect 78 0 79 0;
#X connect 80 0 81 0;
#X connect 83 0 51 0;
#X connect 84 0 85 0;
#X connect 85 0 86 0;
#X connect 86 0 87 0;
#X connect 88 0 89 0;
#X connect 89 0 90 0;
#X connect 90 0 91 0;
#X connect 92 0 93 0;
#X connect 93 0 83 0;
#X connect 93 0 94 0;
#X connect 94 0 50 0;
#X connect 97 0 25 0;
#X connect 98 0 57 1;
#X connect 102 0 38 1;
#X connect 103 0 70 1;
#X connect 104 0 29 1;
