#N canvas 66 32 1854 977 12;
#X obj 41 12 inlet;
#X text 85 12 PLAYBACK FREQUENCY [Hz] / TRIGGER;
#X obj 59 113 r \$1-START-INDEX;
#X obj 116 195 r \$1-END-INDEX;
#X obj 41 222 f;
#X floatatom 116 226 12 0 0 0 - - - 0;
#X floatatom 229 226 8 0 0 1 DURATION[ms] - - 0;
#X obj 229 122 /, f 6;
#X obj 229 147 * 1000;
#X floatatom 268 96 5 0 0 0 - - - 0;
#X obj 41 76 t b b f;
#X msg 229 96 1, f 2;
#X floatatom 59 142 8 0 0 0 - - - 0;
#X obj 41 329 pack f f f, f 22;
#X msg 41 362 \$1 \, \$2 \$3;
#X obj 41 424 line~;
#X obj 42 496 tabread4~ \$1-SAMPLE;
#X floatatom 519 100 5 0 1 1 FADE\ PERCENTAGE - - 0;
#X obj 529 136 r \$1-END-INDEX;
#X obj 529 211 -;
#X obj 539 185 t b f;
#X obj 519 287 *;
#X obj 529 262 t b f;
#X floatatom 519 337 7 0 0 1 FADE\ LENGTH - - 0;
#X obj 539 159 r \$1-LOOP-INDEX;
#X obj 740 121 s \$1-LOOP-INDEX;
#X obj 740 35 inlet;
#X text 781 35 LOOP INDEX;
#X obj 519 35 inlet;
#X text 560 36 CROSS FADE;
#X obj 519 313 / 2;
#X floatatom 529 238 5 0 0 1 LOOP\ LENGTH - - 0;
#X obj 401 336 r \$1-END-INDEX;
#X obj 401 383 -, f 9;
#X obj 519 363 t b f, f 6;
#X floatatom 401 416 8 0 0 1 FADE\ OUT\ INDEX - - 0;
#X obj 401 442 sig~;
#X obj 359 443 -~;
#X obj 358 503 expr~ 1-($v1/$f2), f 29;
#X obj 42 522 *~;
#X obj 42 963 outlet~;
#X obj 358 580 threshold~ 0 0 10 0;
#X obj 358 605 bng 20 250 50 0 empty empty FADE\ OUT\ STARTS 23 10 0 12 #fcfcfc #000000 #000000;
#X obj 555 600 bng 20 250 50 0 empty empty empty 0 -10 0 12 #fcfcfc #000000 #000000;
#X text 283 552 TO SEE IF PRECISE \, OTHERWISE USE DELAY TIME(INDEX 0 TILL FADE OUT INDEX), f 72;
#X obj 358 630 s \$0-FADE-OUT-B;
#X floatatom 41 45 5 0 0 0 - - - 0;
#X floatatom 960 168 5 0 0 0 - - - 0;
#X obj 1181 182 r \$1-END-INDEX;
#X obj 1182 257 -;
#X obj 1191 231 t b f;
#X obj 1191 205 r \$1-LOOP-INDEX;
#X floatatom 1181 284 5 0 0 1 LOOP\ LENGTH - - 0;
#X obj 1027 182 r \$1-END-INDEX;
#X obj 1027 257 -;
#X obj 1037 231 t b f;
#X floatatom 1027 284 5 0 0 1 SAMPLE\ LENGTH - - 0;
#X obj 1037 205 r \$1-START-INDEX;
#X obj 1181 324 t b f;
#X obj 1027 344 /, f 27;
#X floatatom 1027 369 5 0 0 1 SAMPLE/LOOP\ RATIO - - 0;
#X obj 960 388 *;
#X floatatom 1163 529 8 0 0 1 DURATION[ms] - - 0;
#X obj 1163 460 /, f 6;
#X obj 1163 485 * 1000;
#X floatatom 1202 434 5 0 0 0 - - - 0;
#X msg 1163 434 1, f 2;
#X obj 960 414 t b f;
#X obj 1045 530 r \$1-END-INDEX;
#X obj 928 556 f;
#X floatatom 1045 561 12 0 0 0 - - - 0;
#X floatatom 946 505 8 0 0 0 - - - 0;
#X obj 946 476 r \$1-LOOP-INDEX;
#X obj 928 601 pack f f f, f 34;
#X msg 928 634 \$1 \, \$2 \$3;
#X obj 928 40 r \$0-FADE-OUT-B;
#X obj 928 718 line~;
#X obj 609 356 s \$0-FADE-LENGHT;
#X obj 1034 690 sig~;
#X obj 1017 737 -~;
#X obj 1268 790 expr~ 1-($v1/$f2), f 18;
#X obj 1269 739 -~;
#X obj 1391 644 r \$0-FADE-LENGHT;
#X obj 1286 709 sig~;
#X obj 1294 664 t b f;
#X obj 1286 620 r \$1-END-INDEX;
#X obj 1286 686 -;
#X obj 1107 879 *~;
#X obj 929 862 tabread4~ \$1-SAMPLE;
#X obj 929 898 *~;
#X obj 42 919 +~;
#X obj 1268 837 threshold~ 0 0 10 0;
#X obj 1268 862 bng 20 250 50 0 empty empty FADE\ OUT\ STARTS 23 10 0 12 #fcfcfc #000000 #000000;
#X obj 1268 887 s \$0-FADE-OUT-B;
#X obj 928 65 f;
#X obj 959 65 + 1;
#X floatatom 928 115 5 0 0 0 - - - 0;
#X obj 928 90 mod 2;
#X obj 928 139 sel 0 1, f 174;
#X floatatom 1567 170 5 0 0 0 - - - 0;
#X obj 1788 184 r \$1-END-INDEX;
#X obj 1789 259 -;
#X obj 1798 233 t b f;
#X obj 1798 207 r \$1-LOOP-INDEX;
#X floatatom 1788 286 5 0 0 1 LOOP\ LENGTH - - 0;
#X obj 1634 184 r \$1-END-INDEX;
#X obj 1634 259 -;
#X obj 1644 233 t b f;
#X floatatom 1634 286 5 0 0 1 SAMPLE\ LENGTH - - 0;
#X obj 1644 207 r \$1-START-INDEX;
#X obj 1788 326 t b f;
#X obj 1634 346 /, f 27;
#X floatatom 1634 371 5 0 0 1 SAMPLE/LOOP\ RATIO - - 0;
#X obj 1567 390 *;
#X floatatom 1770 531 8 0 0 1 DURATION[ms] - - 0;
#X obj 1770 462 /, f 6;
#X obj 1770 487 * 1000;
#X floatatom 1809 436 5 0 0 0 - - - 0;
#X msg 1770 436 1, f 2;
#X obj 1567 416 t b f;
#X obj 1652 532 r \$1-END-INDEX;
#X obj 1535 558 f;
#X floatatom 1652 563 12 0 0 0 - - - 0;
#X floatatom 1553 507 8 0 0 0 - - - 0;
#X obj 1553 478 r \$1-LOOP-INDEX;
#X obj 1535 588 pack f f f, f 34;
#X msg 1535 636 \$1 \, \$2 \$3;
#X obj 1535 718 line~;
#X obj 1624 739 -~;
#X obj 1875 792 expr~ 1-($v1/$f2), f 18;
#X obj 1876 739 -~;
#X obj 1998 645 r \$0-FADE-LENGHT;
#X obj 1893 710 sig~;
#X obj 1901 665 t b f;
#X obj 1893 622 r \$1-END-INDEX;
#X obj 1893 687 -;
#X msg 1565 668 500;
#X obj 1714 881 *~;
#X obj 1536 864 tabread4~ \$1-SAMPLE;
#X obj 1536 900 *~;
#X obj 1875 838 threshold~ 0 0 10 0;
#X obj 1875 863 bng 20 250 50 0 empty empty FADE\ OUT\ STARTS 23 10 0 12 #fcfcfc #000000 #000000;
#X obj 1875 888 s \$0-FADE-OUT-B;
#X obj 111 721 loadbang;
#X obj 111 746 s \$1-PARAM-RESEND;
#X text 109 772 ASKS LOAD SAMPLE \$1 TO RESEND START AND END INDEX;
#X obj 770 163 r \$1-START-INDEX;
#X obj 770 234 pack f f;
#X obj 791 185 r \$1-END-INDEX;
#X obj 791 210 t b f;
#X obj 740 90 nbx 5 18 0 0 0 0 empty empty empty 0 -10 0 12 #fcfcfc #000000 #000000 0 256;
#X msg 770 258 range \$1 \$2;
#X floatatom 1567 32 5 0 0 0 - - - 0;
#X obj 519 60 f \$2;
#X obj 740 60 f \$3;
#X obj 578 59 loadbang;
#X obj 787 59 loadbang;
#X obj 117 599 metro 10;
#X obj 117 576 tgl 20 0 empty empty empty 0 -10 0 12 #fcfcfc #000000 #000000 0 1;
#X obj 117 621 snapshot~;
#X obj 117 693 s \$1-LINE-CURSOR-1;
#X floatatom 117 646 5 0 0 0 - - - 0;
#X obj 143 551 loadbang;
#X msg 143 576 1;
#X obj 733 781 metro 10;
#X obj 733 758 tgl 20 0 empty empty empty 0 -10 0 12 #fcfcfc #000000 #000000 0 1;
#X obj 733 803 snapshot~;
#X floatatom 733 828 5 0 0 0 - - - 0;
#X obj 759 733 loadbang;
#X msg 759 758 1;
#X obj 733 887 s \$1-LINE-CURSOR-LOOP-1;
#X obj 1416 884 metro 10;
#X obj 1416 861 tgl 20 0 empty empty empty 0 -10 0 12 #fcfcfc #000000 #000000 0 1;
#X obj 1416 906 snapshot~;
#X floatatom 1416 931 5 0 0 0 - - - 0;
#X obj 1442 836 loadbang;
#X msg 1442 861 1;
#X obj 1416 975 s \$1-LINE-CURSOR-LOOP-2;
#X obj 363 44 r \$1-SAMPLE-LOADED;
#X obj 363 69 del 20;
#X obj 1152 668 r \$0-FADE-LENGHT;
#X obj 1152 690 sig~;
#X obj 1016 817 expr~ ($v1/$v2), f 20;
#X obj 1642 698 sig~;
#X obj 1642 646 r \$1-LOOP-INDEX;
#X obj 1725 671 r \$0-FADE-LENGHT;
#X obj 1725 693 sig~;
#X obj 1623 788 expr~ ($v1/$v2);
#X obj 1034 640 r \$1-LOOP-INDEX;
#X floatatom 1034 665 5 0 0 0 - - - 0;
#X floatatom 1642 672 5 0 0 0 - - - 0;
#X obj 585 783 tgl 20 0 empty empty empty 0 -10 0 12 #fcfcfc #000000 #000000 0 1;
#X obj 585 808 metro 10;
#X floatatom 585 858 8 0 0 0 - - - 0;
#X obj 585 833 snapshot~;
#X obj 781 698 f;
#X obj 799 633 r \$1-LOOP-INDEX;
#X obj 768 632 bng 20 250 50 0 empty empty empty 0 -10 0 12 #fcfcfc #000000 #000000;
#X obj 733 856 spigot;
#X obj 785 856 f \$4;
#X obj 784 832 loadbang;
#X obj 117 670 spigot;
#X obj 169 670 f \$4;
#X obj 168 646 loadbang;
#X obj 1415 952 spigot;
#X obj 1467 952 f \$4;
#X obj 1466 928 loadbang;
#X obj 1017 763 expr~ if ($v1<=$v2 \, $v1 \, $v2);
#X obj 1153 729 +~ 0.0001;
#X obj 1624 764 expr~ if ($v1<=$v2 \, $v1 \, $v2);
#X obj 1725 722 +~ 0.0001;
#X obj 1268 765 expr~ if ($v1>=0 \, $v1 \, 0);
#X obj 1875 767 expr~ if ($v1>=0 \, $v1 \, 0);
#X obj 1391 690 + 0.0001;
#X obj 1998 701 + 0.0001;
#X obj 359 468 expr~ if ($v1>=0 \, $v1 \, 0);
#X obj 558 465 + 0.0001;
#X connect 0 0 46 0;
#X connect 0 0 152 0;
#X connect 0 0 197 0;
#X connect 2 0 12 0;
#X connect 3 0 5 0;
#X connect 4 0 13 0;
#X connect 5 0 13 1;
#X connect 6 0 13 2;
#X connect 7 0 8 0;
#X connect 8 0 6 0;
#X connect 9 0 7 1;
#X connect 10 0 4 0;
#X connect 10 1 11 0;
#X connect 10 2 9 0;
#X connect 11 0 7 0;
#X connect 12 0 4 1;
#X connect 13 0 14 0;
#X connect 14 0 15 0;
#X connect 15 0 16 0;
#X connect 15 0 37 0;
#X connect 15 0 159 0;
#X connect 16 0 39 0;
#X connect 17 0 21 0;
#X connect 18 0 19 0;
#X connect 19 0 31 0;
#X connect 20 0 19 0;
#X connect 20 1 19 1;
#X connect 21 0 30 0;
#X connect 22 0 21 0;
#X connect 22 1 21 1;
#X connect 23 0 34 0;
#X connect 23 0 77 0;
#X connect 24 0 20 0;
#X connect 26 0 154 0;
#X connect 28 0 153 0;
#X connect 30 0 23 0;
#X connect 31 0 22 0;
#X connect 32 0 33 0;
#X connect 33 0 35 0;
#X connect 34 0 33 0;
#X connect 34 1 33 1;
#X connect 34 1 216 0;
#X connect 35 0 36 0;
#X connect 36 0 37 1;
#X connect 37 0 41 0;
#X connect 37 0 215 0;
#X connect 38 0 39 1;
#X connect 39 0 90 0;
#X connect 41 0 42 0;
#X connect 41 1 43 0;
#X connect 42 0 45 0;
#X connect 46 0 10 0;
#X connect 47 0 61 0;
#X connect 48 0 49 0;
#X connect 49 0 52 0;
#X connect 50 0 49 0;
#X connect 50 1 49 1;
#X connect 51 0 50 0;
#X connect 52 0 58 0;
#X connect 53 0 54 0;
#X connect 54 0 56 0;
#X connect 55 0 54 0;
#X connect 55 1 54 1;
#X connect 56 0 59 0;
#X connect 57 0 55 0;
#X connect 58 0 59 0;
#X connect 58 1 59 1;
#X connect 59 0 60 0;
#X connect 60 0 61 1;
#X connect 61 0 67 0;
#X connect 62 0 73 2;
#X connect 63 0 64 0;
#X connect 64 0 62 0;
#X connect 65 0 63 1;
#X connect 66 0 63 0;
#X connect 67 0 66 0;
#X connect 67 1 65 0;
#X connect 68 0 70 0;
#X connect 69 0 73 0;
#X connect 70 0 73 1;
#X connect 71 0 69 1;
#X connect 72 0 71 0;
#X connect 73 0 74 0;
#X connect 74 0 76 0;
#X connect 75 0 94 0;
#X connect 76 0 79 0;
#X connect 76 0 81 0;
#X connect 76 0 88 0;
#X connect 76 0 166 0;
#X connect 78 0 79 1;
#X connect 79 0 207 0;
#X connect 80 0 87 1;
#X connect 81 0 91 0;
#X connect 81 0 211 0;
#X connect 82 0 84 0;
#X connect 82 0 213 0;
#X connect 83 0 81 1;
#X connect 84 0 86 0;
#X connect 84 1 86 1;
#X connect 85 0 86 0;
#X connect 86 0 83 0;
#X connect 87 0 89 1;
#X connect 88 0 89 0;
#X connect 89 0 90 1;
#X connect 90 0 40 0;
#X connect 91 0 92 0;
#X connect 92 0 93 0;
#X connect 94 0 95 0;
#X connect 94 0 97 0;
#X connect 95 0 94 1;
#X connect 96 0 98 0;
#X connect 97 0 96 0;
#X connect 98 0 69 0;
#X connect 98 1 121 0;
#X connect 99 0 113 0;
#X connect 100 0 101 0;
#X connect 101 0 104 0;
#X connect 102 0 101 0;
#X connect 102 1 101 1;
#X connect 103 0 102 0;
#X connect 104 0 110 0;
#X connect 105 0 106 0;
#X connect 106 0 108 0;
#X connect 107 0 106 0;
#X connect 107 1 106 1;
#X connect 108 0 111 0;
#X connect 109 0 107 0;
#X connect 110 0 111 0;
#X connect 110 1 111 1;
#X connect 111 0 112 0;
#X connect 112 0 113 1;
#X connect 113 0 119 0;
#X connect 114 0 125 2;
#X connect 115 0 116 0;
#X connect 116 0 114 0;
#X connect 117 0 115 1;
#X connect 118 0 115 0;
#X connect 119 0 118 0;
#X connect 119 1 117 0;
#X connect 120 0 122 0;
#X connect 121 0 125 0;
#X connect 122 0 125 1;
#X connect 123 0 121 1;
#X connect 124 0 123 0;
#X connect 125 0 126 0;
#X connect 126 0 127 0;
#X connect 127 0 128 0;
#X connect 127 0 130 0;
#X connect 127 0 138 0;
#X connect 127 0 173 0;
#X connect 128 0 209 0;
#X connect 129 0 137 1;
#X connect 130 0 140 0;
#X connect 130 0 212 0;
#X connect 131 0 133 0;
#X connect 131 0 214 0;
#X connect 132 0 130 1;
#X connect 133 0 135 0;
#X connect 133 1 135 1;
#X connect 134 0 135 0;
#X connect 135 0 132 0;
#X connect 136 0 127 0;
#X connect 137 0 139 1;
#X connect 138 0 139 0;
#X connect 139 0 90 1;
#X connect 140 0 141 0;
#X connect 141 0 142 0;
#X connect 143 0 144 0;
#X connect 146 0 147 0;
#X connect 147 0 151 0;
#X connect 148 0 149 0;
#X connect 149 0 147 0;
#X connect 149 1 147 1;
#X connect 150 0 25 0;
#X connect 151 0 150 0;
#X connect 152 0 47 0;
#X connect 152 0 99 0;
#X connect 153 0 17 0;
#X connect 154 0 150 0;
#X connect 155 0 153 0;
#X connect 156 0 154 0;
#X connect 157 0 159 0;
#X connect 158 0 157 0;
#X connect 159 0 161 0;
#X connect 161 0 201 0;
#X connect 162 0 163 0;
#X connect 163 0 158 0;
#X connect 164 0 166 0;
#X connect 165 0 164 0;
#X connect 166 0 167 0;
#X connect 167 0 198 0;
#X connect 168 0 169 0;
#X connect 169 0 165 0;
#X connect 171 0 173 0;
#X connect 172 0 171 0;
#X connect 173 0 174 0;
#X connect 174 0 204 0;
#X connect 175 0 176 0;
#X connect 176 0 172 0;
#X connect 178 0 179 0;
#X connect 179 0 150 0;
#X connect 180 0 181 0;
#X connect 181 0 208 0;
#X connect 182 0 87 0;
#X connect 183 0 128 1;
#X connect 184 0 190 0;
#X connect 185 0 186 0;
#X connect 186 0 210 0;
#X connect 187 0 137 0;
#X connect 188 0 189 0;
#X connect 189 0 78 0;
#X connect 190 0 183 0;
#X connect 191 0 192 0;
#X connect 192 0 194 0;
#X connect 194 0 193 0;
#X connect 195 0 76 0;
#X connect 195 0 127 0;
#X connect 196 0 195 1;
#X connect 197 0 195 0;
#X connect 198 0 170 0;
#X connect 199 0 198 1;
#X connect 200 0 199 0;
#X connect 201 0 160 0;
#X connect 202 0 201 1;
#X connect 203 0 202 0;
#X connect 204 0 177 0;
#X connect 205 0 204 1;
#X connect 206 0 205 0;
#X connect 207 0 182 0;
#X connect 208 0 182 1;
#X connect 208 0 207 1;
#X connect 209 0 187 0;
#X connect 210 0 187 1;
#X connect 210 0 209 1;
#X connect 211 0 80 0;
#X connect 212 0 129 0;
#X connect 213 0 80 1;
#X connect 214 0 129 1;
#X connect 215 0 38 0;
#X connect 216 0 38 1;
