#N canvas 1906 -12 1920 1009 12;
#X obj 41 12 inlet;
#X text 85 12 PLAYBACK FREQUENCY [Hz] / TRIGGER;
#X obj 41 227 f;
#X floatatom 155 226 12 0 0 0 - - - 0;
#X floatatom 269 226 8 0 0 1 DURATION[ms] - - 0;
#X obj 269 122 /, f 6;
#X obj 269 147 * 1000;
#X floatatom 308 96 5 0 0 0 - - - 0;
#X obj 41 76 t b b f;
#X msg 269 96 1, f 2;
#X floatatom 59 199 7 0 0 0 - - - 0;
#X obj 41 254 pack f f f, f 33;
#X msg 41 287 \$1 \, \$2 \$3;
#X obj 41 424 line~;
#X obj 42 490 tabread4~ \$1-SAMPLE;
#X obj 1336 22 inlet;
#X obj 214 359 -, f 15;
#X obj 277 339 t b f, f 6;
#X floatatom 214 395 8 0 0 1 FADE\ OUT\ INDEX - - 0;
#X obj 214 418 sig~;
#X obj 197 443 -~;
#X obj 42 580 *~;
#X obj 42 647 outlet~;
#X obj 440 463 threshold~ 0 0 10 0;
#X obj 440 488 bng 20 250 50 0 empty empty FADE\ OUT\ STARTS 23 10 0 12 #fcfcfc #000000 #000000;
#X text 441 399 TO SEE IF PRECISE \, OTHERWISE USE DELAY TIME(INDEX 0 TILL FADE OUT INDEX), f 19;
#X obj 440 513 s \$0-FADE-OUT-B;
#X floatatom 41 45 5 0 0 0 - - - 0;
#X obj 592 40 r \$0-FADE-OUT-B;
#X obj 593 508 tabread4~ \$1-SAMPLE;
#X obj 592 599 *~, f 6;
#X obj 42 620 +~;
#X obj 592 65 f;
#X obj 623 65 + 1;
#X floatatom 592 115 5 0 0 0 - - - 0;
#X obj 592 90 mod 2;
#X obj 592 139 sel 0 1, f 41;
#X floatatom 717 32 4 0 0 0 - - - 0;
#X obj 197 468 expr~ if ($v1>=0 \, $v1 \, 0);
#X obj 430 359 sig~;
#X obj 196 561 expr~ if($v2 == 0 \, 1 \, 1-($v1/$v2));
#X obj 758 59 f, f 4;
#X obj 758 32 bng 20 250 50 0 empty empty empty 0 -10 0 12 #fcfcfc #000000 #000000;
#N canvas 66 32 1854 977 LOOP-RUN 0;
#X floatatom 168 87 5 0 0 0 - - - 0;
#X obj 421 120 -;
#X obj 430 94 t b f;
#X floatatom 420 147 5 0 0 1 LOOP\ LENGTH - - 0;
#X obj 266 135 -;
#X obj 276 109 t b f;
#X floatatom 266 162 5 0 0 1 SAMPLE\ LENGTH - - 0;
#X obj 420 171 t b f;
#X obj 266 191 /, f 27;
#X floatatom 266 216 5 0 0 1 SAMPLE/LOOP\ RATIO - - 0;
#X obj 168 260 *, f 19;
#X floatatom 308 401 8 0 0 1 DURATION[ms] - - 0;
#X obj 308 332 /, f 6;
#X obj 308 357 * 1000;
#X floatatom 347 306 5 0 0 0 - - - 0;
#X msg 308 306 1, f 2;
#X obj 168 286 t b f, f 26;
#X obj 73 401 f;
#X floatatom 190 401 12 0 0 0 - - - 0;
#X floatatom 91 376 8 0 0 0 - - - 0;
#X obj 73 426 pack f f f, f 34;
#X obj 73 44 inlet;
#X obj 168 45 inlet;
#X text 113 44 RUN;
#X text 210 44 FREQ;
#X obj 266 240 t b f;
#X msg 73 480 \$1 \, \$2 \$3;
#X obj 73 564 line~;
#X obj 281 557 sig~;
#X obj 264 585 -~;
#X obj 695 585 -~;
#X obj 712 555 sig~;
#X obj 747 482 t b f;
#X obj 712 502 -, f 10;
#X obj 263 750 *~;
#X obj 995 606 threshold~ 0 0 10 0;
#X obj 483 529 sig~;
#X floatatom 281 532 5 0 0 0 - - - 0;
#X obj 264 610 expr~ if ($v1<=$v2 \, $v1 \, $v2);
#X obj 695 704 expr~ if ($v1>=0 \, $v1 \, 0);
#X text 38 528 ALWAYS STARTS FROM LOOP INDEX, f 16;
#X obj 263 693 expr~ if($v2 == 0 \, 1 \, ($v1/$v2));
#X obj 695 729 expr~ if($v2 == 0 \, 1 \, 1-($v1/$v2));
#X obj 930 502 sig~;
#X obj 995 825 outlet;
#X obj 72 810 outlet~;
#X text 72 834 LINE~;
#X obj 262 816 outlet~;
#X text 262 839 FADE AMPLITUDE;
#X floatatom 712 529 8 0 0 1 FADE-OUT-INDEX - - 0;
#X text 994 849 FADE OUT STARTED (START FADE-IN);
#X obj 796 48 inlet;
#X text 842 49 RESET LINE~ TO LOOP INDEX;
#X obj 483 650 +~ 1e-05;
#X text 234 640 JUST BECAUSE OF PD WARNING. DIVISION BY 0 NEVER REALLY HAPPENS THOUGH BEHACUSE OF IF CASE, f 34;
#X obj 929 644 +~ 1e-05;
#X text 680 634 JUST BECAUSE OF PD WARNING. DIVISION BY 0 NEVER REALLY HAPPENS THOUGH BEHACUSE OF IF CASE, f 34;
#X obj 266 60 r \$1-\$2-END-INDEX;
#X obj 276 83 r \$1-\$2-START-INDEX;
#X obj 420 45 r \$1-\$2-END-INDEX;
#X obj 430 68 r \$1-\$2-LOOP-INDEX;
#X obj 91 347 r \$1-\$2-LOOP-INDEX;
#X obj 190 376 r \$1-\$2-END-INDEX;
#X obj 281 507 r \$1-\$2-LOOP-INDEX;
#X obj 712 435 r \$1-\$2-END-INDEX;
#X obj 483 507 r \$0-FADE-IN-LENGTH;
#X obj 747 458 r \$0-FADE-OUT-LENGTH;
#X connect 0 0 10 0;
#X connect 1 0 3 0;
#X connect 2 0 1 0;
#X connect 2 1 1 1;
#X connect 3 0 7 0;
#X connect 4 0 6 0;
#X connect 5 0 4 0;
#X connect 5 1 4 1;
#X connect 6 0 8 0;
#X connect 7 0 8 0;
#X connect 7 1 8 1;
#X connect 8 0 9 0;
#X connect 9 0 25 0;
#X connect 10 0 16 0;
#X connect 11 0 20 2;
#X connect 12 0 13 0;
#X connect 13 0 11 0;
#X connect 14 0 12 1;
#X connect 15 0 12 0;
#X connect 16 0 15 0;
#X connect 16 1 14 0;
#X connect 17 0 20 0;
#X connect 18 0 20 1;
#X connect 19 0 17 1;
#X connect 20 0 26 0;
#X connect 21 0 17 0;
#X connect 22 0 0 0;
#X connect 25 0 10 0;
#X connect 25 1 10 1;
#X connect 26 0 27 0;
#X connect 27 0 29 0;
#X connect 27 0 30 0;
#X connect 27 0 45 0;
#X connect 28 0 29 1;
#X connect 29 0 38 0;
#X connect 30 0 35 0;
#X connect 30 0 39 0;
#X connect 31 0 30 1;
#X connect 32 0 33 0;
#X connect 32 1 33 1;
#X connect 32 1 43 0;
#X connect 33 0 49 0;
#X connect 34 0 47 0;
#X connect 35 0 44 0;
#X connect 36 0 38 1;
#X connect 36 0 53 0;
#X connect 37 0 28 0;
#X connect 38 0 41 0;
#X connect 39 0 42 0;
#X connect 41 0 34 0;
#X connect 42 0 34 1;
#X connect 43 0 55 0;
#X connect 49 0 31 0;
#X connect 51 0 27 0;
#X connect 53 0 41 1;
#X connect 55 0 42 1;
#X connect 57 0 4 0;
#X connect 58 0 5 0;
#X connect 59 0 1 0;
#X connect 60 0 2 0;
#X connect 61 0 19 0;
#X connect 62 0 18 0;
#X connect 63 0 37 0;
#X connect 64 0 33 0;
#X connect 65 0 36 0;
#X connect 66 0 32 0;
#X restore 592 180 pd LOOP-RUN;
#X f 12;
#X obj 815 319 bng 20 250 50 0 empty empty FADE\ OUT\ STARTS 23 10 0 12 #fcfcfc #000000 #000000;
#X obj 815 344 s \$0-FADE-OUT-B;
#X obj 735 551 tabread4~ \$1-SAMPLE;
#X obj 734 600 *~, f 6;
#X text 656 11 RESET TO LOOP-INDEX WITH NEW MIDI-IN;
#X obj 430 539 +~ 1e-05;
#X text 177 512 JUST BECAUSE OF PD WARNING. DIVISION BY 0 NEVER REALLY HAPPENS THOUGH BEHACUSE OF IF CASE, f 34;
#X floatatom 1542 155 7 0 0 1 IN\ LENGTH - - 0;
#X obj 1542 23 inlet;
#X obj 1679 24 inlet;
#X obj 1542 180 s \$0-FADE-IN-LENGTH;
#X obj 1679 205 s \$0-FADE-OUT-LENGTH;
#N canvas 506 163 812 438 CALC-FADE-LENGTHS 0;
#X obj 169 92 r \$1-END-INDEX;
#X obj 169 167 -;
#X obj 179 141 t b f;
#X obj 159 243 *;
#X obj 169 218 t b f;
#X obj 179 115 r \$1-LOOP-INDEX;
#X floatatom 169 194 5 0 0 1 LOOP\ LENGTH - - 0;
#X obj 159 57 inlet;
#X obj 159 274 outlet;
#X obj 465 66 inlet;
#X obj 465 276 outlet;
#X obj 475 95 r \$1-END-INDEX;
#X obj 475 170 -;
#X obj 485 144 t b f;
#X obj 465 246 *;
#X obj 475 221 t b f;
#X obj 485 118 r \$1-LOOP-INDEX;
#X floatatom 475 197 5 0 0 1 LOOP\ LENGTH - - 0;
#X text 99 342 LET CROSS FADE DECISION BE FREE MEANING THAT FADE IN LENGTH AND OUT COULD OVERLAP. EASIER LIKE THIS. NO EXTRA IMPLEMENTATION AND ALSO LEAVES OPEN CREATIVITY..., f 89;
#X connect 0 0 1 0;
#X connect 1 0 6 0;
#X connect 2 0 1 0;
#X connect 2 1 1 1;
#X connect 3 0 8 0;
#X connect 4 0 3 0;
#X connect 4 1 3 1;
#X connect 5 0 2 0;
#X connect 6 0 4 0;
#X connect 7 0 3 0;
#X connect 9 0 14 0;
#X connect 11 0 12 0;
#X connect 12 0 17 0;
#X connect 13 0 12 0;
#X connect 13 1 12 1;
#X connect 14 0 10 0;
#X connect 15 0 14 0;
#X connect 15 1 14 1;
#X connect 16 0 13 0;
#X connect 17 0 15 0;
#X restore 1542 123 pd CALC-FADE-LENGTHS;
#X floatatom 1679 156 7 0 0 1 OUT\ LENGTH - - 0;
#X obj 33 733 tgl 20 0 empty empty DIAGNOSTICS 23 10 0 12 #fcfcfc #000000 #000000 0 1;
#X obj 33 758 metro 10;
#X obj 33 783 snapshot~;
#X floatatom 33 808 13 0 0 0 - - - 0;
#X obj 1564 402 f \$2;
#X floatatom 1564 427 5 0 0 1 INSTANCE-ID - - 0;
#X obj 1564 378 r \$0-L-B;
#X floatatom 1492 427 5 0 0 1 ID - - 0;
#X obj 1492 378 r \$0-L-B;
#X obj 1492 402 f \$1;
#X obj 937 23 inlet;
#X obj 937 111 s \$1-\$2-START-INDEX;
#X obj 983 40 r \$0-L-B;
#X obj 983 64 f \$3;
#X obj 937 258 spigot;
#X obj 937 133 r \$1-\$2-START-INDEX;
#X obj 986 258 tgl 20 0 empty empty empty 0 -10 0 12 #fcfcfc #000000 #000000 0 1;
#X obj 1010 258 r \$0-INDEX-CURSOR;
#X obj 937 281 s \$1-START-INDEX;
#X text 935 303 SEND TO LOAD.SAMPLE;
#X floatatom 1686 426 5 0 0 1 INDEX\ CURSOR - - 0;
#X obj 1686 377 r \$0-L-B;
#X obj 1686 451 s \$0-INDEX-CURSOR;
#X obj 1686 401 f \$8;
#X obj 1136 21 inlet;
#X obj 1186 30 r \$0-L-B;
#X obj 1136 180 spigot;
#X obj 1185 180 tgl 20 0 empty empty empty 0 -10 0 12 #fcfcfc #000000 #000000 0 1;
#X obj 1209 180 r \$0-INDEX-CURSOR;
#X text 1135 227 SEND TO LOAD.SAMPLE;
#X obj 1136 110 s \$1-\$2-END-INDEX;
#X obj 1136 132 r \$1-\$2-END-INDEX;
#X obj 1136 205 s \$1-END-INDEX;
#X obj 1186 54 f \$4;
#X obj 1336 108 s \$1-\$2-LOOP-INDEX;
#X obj 1336 180 spigot;
#X obj 1385 180 tgl 20 0 empty empty empty 0 -10 0 12 #fcfcfc #000000 #000000 0 1;
#X obj 1409 180 r \$0-INDEX-CURSOR;
#X obj 1336 132 r \$1-\$2-LOOP-INDEX;
#X obj 1336 204 s \$1-LOOP-INDEX;
#X obj 1380 32 r \$0-L-B;
#X obj 1380 56 f \$5;
#X obj 1588 31 r \$0-L-B;
#X obj 1588 55 f \$6;
#X obj 1724 38 r \$0-L-B;
#X obj 1724 62 f \$7;
#X obj 59 170 r \$1-\$2-START-INDEX;
#X obj 155 201 r \$1-\$2-END-INDEX;
#X obj 214 292 r \$1-\$2-END-INDEX;
#X obj 783 32 r \$1-\$2-LOOP-INDEX;
#N canvas 66 32 1854 977 LOOP-RUN 0;
#X floatatom 168 87 5 0 0 0 - - - 0;
#X obj 421 120 -;
#X obj 430 94 t b f;
#X floatatom 420 147 5 0 0 1 LOOP\ LENGTH - - 0;
#X obj 266 135 -;
#X obj 276 109 t b f;
#X floatatom 266 162 5 0 0 1 SAMPLE\ LENGTH - - 0;
#X obj 420 171 t b f;
#X obj 266 191 /, f 27;
#X floatatom 266 216 5 0 0 1 SAMPLE/LOOP\ RATIO - - 0;
#X obj 168 260 *, f 19;
#X floatatom 308 401 8 0 0 1 DURATION[ms] - - 0;
#X obj 308 332 /, f 6;
#X obj 308 357 * 1000;
#X floatatom 347 306 5 0 0 0 - - - 0;
#X msg 308 306 1, f 2;
#X obj 168 286 t b f, f 26;
#X obj 73 401 f;
#X floatatom 190 401 12 0 0 0 - - - 0;
#X floatatom 91 376 8 0 0 0 - - - 0;
#X obj 73 426 pack f f f, f 34;
#X obj 73 44 inlet;
#X obj 168 45 inlet;
#X text 113 44 RUN;
#X text 210 44 FREQ;
#X obj 266 240 t b f;
#X msg 73 480 \$1 \, \$2 \$3;
#X obj 73 564 line~;
#X obj 281 557 sig~;
#X obj 264 585 -~;
#X obj 695 585 -~;
#X obj 712 555 sig~;
#X obj 747 482 t b f;
#X obj 712 502 -, f 10;
#X obj 263 750 *~;
#X obj 995 606 threshold~ 0 0 10 0;
#X obj 483 529 sig~;
#X floatatom 281 532 5 0 0 0 - - - 0;
#X obj 264 610 expr~ if ($v1<=$v2 \, $v1 \, $v2);
#X obj 695 704 expr~ if ($v1>=0 \, $v1 \, 0);
#X text 38 528 ALWAYS STARTS FROM LOOP INDEX, f 16;
#X obj 263 693 expr~ if($v2 == 0 \, 1 \, ($v1/$v2));
#X obj 695 729 expr~ if($v2 == 0 \, 1 \, 1-($v1/$v2));
#X obj 930 502 sig~;
#X obj 995 825 outlet;
#X obj 72 810 outlet~;
#X text 72 834 LINE~;
#X obj 262 816 outlet~;
#X text 262 839 FADE AMPLITUDE;
#X floatatom 712 529 8 0 0 1 FADE-OUT-INDEX - - 0;
#X text 994 849 FADE OUT STARTED (START FADE-IN);
#X obj 796 48 inlet;
#X text 842 49 RESET LINE~ TO LOOP INDEX;
#X obj 483 650 +~ 1e-05;
#X text 234 640 JUST BECAUSE OF PD WARNING. DIVISION BY 0 NEVER REALLY HAPPENS THOUGH BEHACUSE OF IF CASE, f 34;
#X obj 929 644 +~ 1e-05;
#X text 680 634 JUST BECAUSE OF PD WARNING. DIVISION BY 0 NEVER REALLY HAPPENS THOUGH BEHACUSE OF IF CASE, f 34;
#X obj 266 60 r \$1-\$2-END-INDEX;
#X obj 276 83 r \$1-\$2-START-INDEX;
#X obj 420 45 r \$1-\$2-END-INDEX;
#X obj 430 68 r \$1-\$2-LOOP-INDEX;
#X obj 91 347 r \$1-\$2-LOOP-INDEX;
#X obj 190 376 r \$1-\$2-END-INDEX;
#X obj 281 507 r \$1-\$2-LOOP-INDEX;
#X obj 712 435 r \$1-\$2-END-INDEX;
#X obj 483 507 r \$0-FADE-IN-LENGTH;
#X obj 747 458 r \$0-FADE-OUT-LENGTH;
#X connect 0 0 10 0;
#X connect 1 0 3 0;
#X connect 2 0 1 0;
#X connect 2 1 1 1;
#X connect 3 0 7 0;
#X connect 4 0 6 0;
#X connect 5 0 4 0;
#X connect 5 1 4 1;
#X connect 6 0 8 0;
#X connect 7 0 8 0;
#X connect 7 1 8 1;
#X connect 8 0 9 0;
#X connect 9 0 25 0;
#X connect 10 0 16 0;
#X connect 11 0 20 2;
#X connect 12 0 13 0;
#X connect 13 0 11 0;
#X connect 14 0 12 1;
#X connect 15 0 12 0;
#X connect 16 0 15 0;
#X connect 16 1 14 0;
#X connect 17 0 20 0;
#X connect 18 0 20 1;
#X connect 19 0 17 1;
#X connect 20 0 26 0;
#X connect 21 0 17 0;
#X connect 22 0 0 0;
#X connect 25 0 10 0;
#X connect 25 1 10 1;
#X connect 26 0 27 0;
#X connect 27 0 29 0;
#X connect 27 0 30 0;
#X connect 27 0 45 0;
#X connect 28 0 29 1;
#X connect 29 0 38 0;
#X connect 30 0 35 0;
#X connect 30 0 39 0;
#X connect 31 0 30 1;
#X connect 32 0 33 0;
#X connect 32 1 33 1;
#X connect 32 1 43 0;
#X connect 33 0 49 0;
#X connect 34 0 47 0;
#X connect 35 0 44 0;
#X connect 36 0 38 1;
#X connect 36 0 53 0;
#X connect 37 0 28 0;
#X connect 38 0 41 0;
#X connect 39 0 42 0;
#X connect 41 0 34 0;
#X connect 42 0 34 1;
#X connect 43 0 55 0;
#X connect 49 0 31 0;
#X connect 51 0 27 0;
#X connect 53 0 41 1;
#X connect 55 0 42 1;
#X connect 57 0 4 0;
#X connect 58 0 5 0;
#X connect 59 0 1 0;
#X connect 60 0 2 0;
#X connect 61 0 19 0;
#X connect 62 0 18 0;
#X connect 63 0 37 0;
#X connect 64 0 33 0;
#X connect 65 0 36 0;
#X connect 66 0 32 0;
#X restore 734 180 pd LOOP-RUN;
#X f 12;
#X text 915 6 \; \; \; \; \; \; \; \; \; \; \; \; \; \; \; \; \;;
#X obj 277 315 r \$0-FADE-OUT-LENGTH;
#X obj 1425 378 loadbang;
#X obj 1425 403 s \$0-L-B;
#X text 1409 353 --------------------------------------------------------- \; \; \; \; \; \; \; \; \; --------------------------------------------------------- \;;
#X text 1336 228 SEND TO LOAD.SAMPLE;
#X obj 937 89 nbx 5 18 -1e+37 1e+37 0 0 empty empty empty 0 -10 0 12 #fcfcfc #000000 #000000 0 256;
#X obj 1136 83 nbx 5 18 -1e+37 1e+37 0 0 empty empty empty 0 -10 0 12 #fcfcfc #000000 #000000 0 256;
#X obj 1336 84 nbx 5 18 900 16068 0 0 empty empty empty 0 -10 0 12 #fcfcfc #000000 #000000 0 256;
#X obj 1542 81 nbx 5 18 0 1 0 0 empty empty empty 0 -10 0 12 #fcfcfc #000000 #000000 0 256;
#X obj 1679 82 nbx 5 18 0 1 0 0 empty empty empty 0 -10 0 12 #fcfcfc #000000 #000000 0 256;
#X text 934 3 START-INDEX(ONLY LAB);
#X text 1133 2 END-INDEX(ONLY LAB);
#X text 1334 3 LOOP-INDEX(ONLY LAB);
#X text 1539 5 FADE-IN(ONLY LAB);
#X text 1675 6 FADE-OUT(ONLY LAB);
#X obj 1038 449 bng 20 250 50 0 empty empty empty 0 -10 0 12 #fcfcfc #000000 #000000;
#X obj 1038 404 r \$1-SAMPLE-LOADED;
#X obj 1038 426 del 20;
#N canvas 101 69 519 433 LOOP-RANGE-INIT 0;
#X obj 183 153 pack f f;
#X obj 204 129 t b f;
#X msg 183 177 range \$1 \$2;
#X obj 183 264 outlet;
#X obj 183 82 r \$1-\$2-START-INDEX;
#X obj 204 104 r \$1-\$2-END-INDEX;
#X connect 0 0 2 0;
#X connect 1 0 0 0;
#X connect 1 1 0 1;
#X connect 2 0 3 0;
#X connect 4 0 0 0;
#X connect 5 0 1 0;
#X restore 1403 82 pd LOOP-RANGE-INIT;
#X text 1035 471 WHEN SAMPLE LOADED RESENDS THE VALUES \; NOTE: SENDING THESE VALUES TO THE LOAD.WAVE AND SAMPLE-LAB's LOAD.WAVE IS JUST FOR START-END-LOOP INDEX VISUALIZATION AND ALSO IN CASE OF THE LAB FOR INTERACTION WITH LAB's OWN RANGE SETTING. FOR LIVE PERFORMANCES. THESE VALUES ARE FIXED AND INFACE THE \$8 SWITCH WILL BE OFF!, f 39;
#X obj 1405 595 r \$1-SAMPLE-LENGTH;
#X text 1402 620 SHOULD COME FROM LOAD.SAMPLE FOR RANGE CHECKING. SEND A GLOBAL ERROR (NO $) TO PARENT PATCH;
#X obj 116 67 s \$0-INCOMING-MIDI;
#X obj 116 45 bng 20 250 50 0 empty empty empty 0 -10 0 12 #fcfcfc #000000 #000000;
#N canvas 271 53 1073 514 SEND-CURSOR-TRIGGER 0;
#X obj 450 84 metro 10;
#X obj 450 61 tgl 20 0 empty empty empty 0 -10 0 12 #fcfcfc #000000 #000000 0 1;
#X obj 166 157 snapshot~;
#X floatatom 166 182 5 0 0 0 - - - 0;
#X obj 476 36 loadbang;
#X msg 476 61 1;
#X obj 166 66 inlet~;
#X obj 166 420 s \$1-LINE-CURSOR-TRIGGER;
#X msg 459 277 0;
#X obj 459 300 s \$1-CURSOR-OFF;
#X obj 166 264 spigot;
#X obj 220 264 tgl 20 0 empty empty empty 0 -10 0 12 #fcfcfc #000000 #000000 0 1;
#X obj 294 183 r \$0-INCOMING-MIDI;
#X obj 294 219 t b b, f 24;
#X msg 294 244 1;
#X obj 459 323 r \$1-CURSOR-OFF;
#X text 344 346 INCOMING MIDI TO THIS PATCH WILL CUT LINE CURSOR OUTLET OF OTHER INSTANCES AND TURNING ON ONLY ITS OWN, f 42;
#X obj 686 208 snapshot~;
#X floatatom 686 233 5 0 0 0 - - - 0;
#X obj 686 425 s \$1-LINE-CURSOR-LOOP-1;
#X obj 686 264 spigot;
#X obj 687 80 inlet~;
#X obj 739 264 tgl 20 0 empty empty empty 0 -10 0 12 #fcfcfc #000000 #000000 0 1;
#X obj 857 207 snapshot~;
#X floatatom 857 232 5 0 0 0 - - - 0;
#X obj 857 425 s \$1-LINE-CURSOR-LOOP-2;
#X obj 857 264 spigot;
#X obj 856 81 inlet~;
#X obj 907 264 tgl 20 0 empty empty empty 0 -10 0 12 #fcfcfc #000000 #000000 0 1;
#X connect 0 0 2 0;
#X connect 0 0 17 0;
#X connect 0 0 23 0;
#X connect 1 0 0 0;
#X connect 2 0 3 0;
#X connect 3 0 10 0;
#X connect 4 0 5 0;
#X connect 5 0 1 0;
#X connect 6 0 2 0;
#X connect 8 0 9 0;
#X connect 10 0 7 0;
#X connect 11 0 10 1;
#X connect 12 0 13 0;
#X connect 13 0 14 0;
#X connect 13 1 8 0;
#X connect 14 0 11 0;
#X connect 14 0 22 0;
#X connect 14 0 28 0;
#X connect 15 0 11 0;
#X connect 15 0 22 0;
#X connect 15 0 28 0;
#X connect 17 0 18 0;
#X connect 18 0 20 0;
#X connect 20 0 19 0;
#X connect 21 0 17 0;
#X connect 22 0 20 1;
#X connect 23 0 24 0;
#X connect 24 0 26 0;
#X connect 26 0 25 0;
#X connect 27 0 23 0;
#X connect 28 0 26 1;
#X restore 465 719 pd SEND-CURSOR-TRIGGER;
#X obj 610 380 s~ \$0-CURSOR-LOOP-1;
#X obj 753 380 s~ \$0-CURSOR-LOOP-2;
#X obj 541 671 r~ \$0-CURSOR-LOOP-1;
#X obj 615 695 r~ \$0-CURSOR-LOOP-2;
#X obj 110 647 s~ \$0-TRIGGER-CURSOR;
#X obj 465 646 r~ \$0-TRIGGER-CURSOR;
#X obj 937 157 pipe 20;
#X obj 1136 157 pipe 20;
#X obj 1336 156 pipe 20;
#X text 940 174 JUST FOR TIMING CORRECTION WITH RESPECT TO \$0-INDEX-CURSOR OPENING THE PASSAGE WHEN PATCH IS (RE)-LOADED, f 26;
#X text 1542 232 FADE OUT LENGTH COULD NOT BE HIGHER THAN HALF OF LOOP LENGTH (RATIO<=0.5) OTHERWISE FADE OUT WILL BE RESETTED WITH NEXT FADE IN TRIGGER. ALSO IF SUM OF RATIO'S IS HIGHER THAN 1 \, FADE-IN WILL NOT COMPLETE --> ERROR, f 44;
#X text 1396 567 --------- ERROR CHECKING --------------------------------;
#X text 825 688 --------------------------------------------------------------------- \; -------------- INLETS AND ARGUMENTS --------------------------------- \; --------------------------------------------------------------------- \; \$1: WHICH SAMPLE-LOADER WHOULD IT MATCH TO - EXAMPLE:[LOAD.SAMPLE \$1] \; \$2: CROSS-FADE PERCENTAGE [0:1]. 1 WILL BE 50% OF LOOP LENGTH \; \$3: LOOP INDEX: SET BY THIS PATCH AND SENT TO [LOAD.SAMPLE \$1] \; \$4: TOGGLE TO SEND CURSOR POSITIONS TO [LOAD.SAMPLE \$1] \;, f 72;
#X connect 0 0 27 0;
#X connect 0 0 37 0;
#X connect 0 0 42 0;
#X connect 0 0 133 0;
#X connect 2 0 11 0;
#X connect 3 0 11 1;
#X connect 4 0 11 2;
#X connect 5 0 6 0;
#X connect 6 0 4 0;
#X connect 7 0 5 1;
#X connect 8 0 2 0;
#X connect 8 1 9 0;
#X connect 8 2 7 0;
#X connect 9 0 5 0;
#X connect 10 0 2 1;
#X connect 11 0 12 0;
#X connect 12 0 13 0;
#X connect 13 0 14 0;
#X connect 13 0 20 0;
#X connect 13 0 139 0;
#X connect 14 0 21 0;
#X connect 15 0 117 0;
#X connect 16 0 18 0;
#X connect 17 0 16 0;
#X connect 17 1 16 1;
#X connect 17 1 39 0;
#X connect 18 0 19 0;
#X connect 19 0 20 1;
#X connect 20 0 23 0;
#X connect 20 0 38 0;
#X connect 21 0 31 0;
#X connect 23 0 24 0;
#X connect 24 0 26 0;
#X connect 27 0 8 0;
#X connect 28 0 32 0;
#X connect 29 0 30 0;
#X connect 30 0 31 1;
#X connect 31 0 22 0;
#X connect 32 0 33 0;
#X connect 32 0 35 0;
#X connect 33 0 32 1;
#X connect 34 0 36 0;
#X connect 35 0 34 0;
#X connect 36 0 43 0;
#X connect 36 1 108 0;
#X connect 37 0 43 1;
#X connect 37 0 108 1;
#X connect 38 0 40 0;
#X connect 39 0 49 0;
#X connect 40 0 21 1;
#X connect 41 0 43 2;
#X connect 41 0 108 2;
#X connect 42 0 41 0;
#X connect 43 0 29 0;
#X connect 43 0 135 0;
#X connect 43 1 30 1;
#X connect 43 2 44 0;
#X connect 44 0 45 0;
#X connect 46 0 47 0;
#X connect 47 0 31 1;
#X connect 49 0 40 1;
#X connect 51 0 54 0;
#X connect 52 0 118 0;
#X connect 53 0 119 0;
#X connect 56 0 51 0;
#X connect 56 1 57 0;
#X connect 57 0 55 0;
#X connect 58 0 59 0;
#X connect 59 0 60 0;
#X connect 60 0 61 0;
#X connect 62 0 63 0;
#X connect 64 0 62 0;
#X connect 66 0 67 0;
#X connect 67 0 65 0;
#X connect 68 0 115 0;
#X connect 70 0 71 0;
#X connect 71 0 115 0;
#X connect 72 0 76 0;
#X connect 73 0 141 0;
#X connect 74 0 72 1;
#X connect 75 0 74 0;
#X connect 78 0 80 0;
#X connect 79 0 81 0;
#X connect 81 0 78 0;
#X connect 82 0 116 0;
#X connect 83 0 91 0;
#X connect 84 0 90 0;
#X connect 85 0 84 1;
#X connect 86 0 85 0;
#X connect 89 0 142 0;
#X connect 91 0 116 0;
#X connect 93 0 97 0;
#X connect 94 0 93 1;
#X connect 95 0 94 0;
#X connect 96 0 143 0;
#X connect 98 0 99 0;
#X connect 99 0 117 0;
#X connect 100 0 101 0;
#X connect 101 0 118 0;
#X connect 102 0 103 0;
#X connect 103 0 119 0;
#X connect 104 0 10 0;
#X connect 105 0 3 0;
#X connect 106 0 16 0;
#X connect 107 0 41 1;
#X connect 108 0 46 0;
#X connect 108 0 136 0;
#X connect 108 1 47 1;
#X connect 108 2 44 0;
#X connect 110 0 17 0;
#X connect 111 0 112 0;
#X connect 115 0 69 0;
#X connect 116 0 88 0;
#X connect 117 0 92 0;
#X connect 118 0 56 0;
#X connect 119 0 56 1;
#X connect 125 0 115 0;
#X connect 125 0 116 0;
#X connect 125 0 117 0;
#X connect 126 0 127 0;
#X connect 127 0 125 0;
#X connect 128 0 117 0;
#X connect 133 0 132 0;
#X connect 137 0 134 1;
#X connect 138 0 134 2;
#X connect 140 0 134 0;
#X connect 141 0 72 0;
#X connect 142 0 84 0;
#X connect 143 0 93 0;
