#N canvas 159 160 634 568 12;
#X text 12 11 VERSION 1;
#X text 114 7 POLY-PHONIC SAMPLE PLAYER: NEW TRIGGER STARTS A NEW CHANNEL LETTING THE ONGOING-CHANNEL TO FINISH (DELAY-LIKE);
#N canvas 52 20 1854 977 (subpatch) 0;
#X array \$0-SAMPLE 65070 float 2;
#A color 0;
#A width 2;
#X coords 0 1 65070 -1 300 89 1 0 0;
#X restore 107 141 graph;
#X obj 109 253 bng 20 250 50 0 \$0-load \$0-i-load LOAD 23 10 0 12 #0f4710 #000000 #0f4710;
#X obj 100 297 inlet;
#X obj 216 295 inlet;
#X obj 100 434 outlet~;
#X obj 105 141 cnv 1 1 89 \$0-Flash \$0-i-Flash empty 20 12 0 12 #ff0400 #000000 0;
#N canvas 2306 377 461 158 INIT 0;
#X obj 16 57 f \$0;
#X obj 16 34 bng 20 250 50 0 empty empty empty 0 -10 0 12 #fcfcfc #000000 #000000;
#X obj 16 11 loadbang;
#X obj 165 59 samplerate~;
#X floatatom 165 84 6 0 0 0 - - - 0;
#X obj 165 36 bng 20 250 50 0 empty empty empty 0 -10 0 12 #fcfcfc #000000 #000000;
#X obj 165 11 loadbang;
#X msg 16 80 \; \$1-SAMPLE edit 0 \;;
#X obj 165 108 s \$0-PD-SR;
#X connect 0 0 7 0;
#X connect 1 0 0 0;
#X connect 2 0 1 0;
#X connect 3 0 4 0;
#X connect 4 0 8 0;
#X connect 5 0 3 0;
#X connect 6 0 5 0;
#X restore 101 74 pd INIT;
#N canvas 792 162 843 703 SAMPLE-MANAGEMENT 0;
#X obj 15 105 openpanel;
#X obj 236 212 f \$0;
#X obj 155 33 loadbang;
#X obj 15 268 pack s f, f 32;
#X obj 236 187 bng 20 250 50 0 empty empty empty 0 -10 0 12 #fcfcfc #000000 #000000;
#X listbox 15 295 74 0 0 0 - - - 0;
#X obj 15 367 soundfiler, f 31;
#X floatatom 15 424 8 0 0 1 number\ of\ samples - - 0;
#X listbox 229 423 20 0 0 0 - - - 0;
#X obj 229 447 unpack f;
#X floatatom 243 237 5 0 0 0 - - - 0;
#X floatatom 113 495 9 0 0 1 DURATION\ (ms) - - 0;
#X obj 113 472 expr 1000*$f1/$f2;
#X obj 242 472 s \$0-sample-SR;
#X obj 15 4 r \$0-load;
#X obj 25 394 bng 20 250 50 0 \$0-loaded empty empty 0 -10 0 12 #fcfcfc #000000 #000000;
#X obj 261 314 unpack s;
#X obj 155 81 t b b, f 12;
#X obj 155 58 bng 20 250 50 0 empty empty empty 0 -10 0 12 #fcfcfc #000000 #000000;
#X obj 265 46 text define -k \$0-parameters;
#A set LOCATION 0 \;;
#X obj 551 9 savestate;
#X obj 611 58 text sequence \$0-parameters;
#X obj 551 143 text set \$0-parameters 0 0;
#X obj 437 334 text set \$0-parameters 0 0;
#X msg 611 33 line 0 \, auto;
#X obj 551 91 unpack s f;
#X obj 618 117 text set \$0-parameters 0 1;
#X obj 155 174 del 50;
#X msg 117 175 0;
#X obj 117 198 text get \$0-parameters 0, f 15;
#X msg 15 341 read -resize \$1 \$2-SAMPLE;
#X text 347 471 SAMPLE RATE OF LOADED SAMPLE;
#X obj 336 361 s \$0-i-UI-sample-loc;
#X msg 194 538 label \$1;
#X obj 194 562 s \$0-i-UI-orig-dur;
#X obj 194 514 expr symbol($f1);
#X text 439 491 SET PLAYBACK DURATION (USED IN SAMPLE-PLAYING);
#X obj 15 547 s \$0-RAW-SAMPLE-LEN;
#X text 263 10 0 - SAMPLE LOCATION \; 1 - PLAYBACK DURATION(MS) \;;
#X obj 622 551 text set \$0-parameters 0 1;
#X obj 483 642 expr if($f1 == 0 \, $f2 \, $f1);
#X obj 483 514 t b f;
#X floatatom 483 615 5 0 0 0 - - - 0;
#X obj 483 575 text get \$0-parameters 1, f 15;
#X msg 483 550 0, f 2;
#X obj 288 170 text set \$0-parameters 0 1;
#X obj 15 127 t s b;
#X msg 288 147 0;
#X obj 483 667 s \$0-i-UI-pb-duration;
#X obj 622 525 r \$0-UI-pb-duration;
#X obj 15 233 sel LOCATION;
#N canvas 2540 390 573 338 PATH-TRIM 0;
#X listbox 77 106 28 0 0 0 - - - 0;
#X symbolatom 77 59 39 0 0 0 - - - 0;
#X obj 77 82 list fromsymbol;
#X obj 122 153 list tosymbol;
#X symbolatom 122 177 35 0 0 0 - - - 0;
#X obj 77 25 inlet;
#X obj 122 212 outlet;
#X obj 78 128 list split 36;
#X connect 0 0 7 0;
#X connect 1 0 2 0;
#X connect 2 0 0 0;
#X connect 3 0 4 0;
#X connect 4 0 6 0;
#X connect 5 0 1 0;
#X connect 7 1 3 0;
#X restore 336 334 pd PATH-TRIM;
#X msg 15 36 symbol /home/mobin/Documents/Sounds/Samples, f 14;
#X connect 0 0 46 0;
#X connect 1 0 3 1;
#X connect 1 0 10 0;
#X connect 2 0 18 0;
#X connect 3 0 5 0;
#X connect 4 0 1 0;
#X connect 5 0 30 0;
#X connect 5 0 16 0;
#X connect 6 0 7 0;
#X connect 6 0 15 0;
#X connect 6 1 8 0;
#X connect 7 0 12 0;
#X connect 7 0 37 0;
#X connect 8 0 9 0;
#X connect 9 0 12 1;
#X connect 9 0 13 0;
#X connect 11 0 35 0;
#X connect 11 0 41 0;
#X connect 12 0 11 0;
#X connect 14 0 52 0;
#X connect 16 0 23 0;
#X connect 16 0 51 0;
#X connect 17 0 27 0;
#X connect 17 1 4 0;
#X connect 18 0 17 0;
#X connect 20 0 25 0;
#X connect 20 1 24 0;
#X connect 21 0 20 0;
#X connect 24 0 21 0;
#X connect 25 0 22 0;
#X connect 25 1 26 0;
#X connect 27 0 28 0;
#X connect 28 0 29 0;
#X connect 29 0 50 0;
#X connect 30 0 6 0;
#X connect 33 0 34 0;
#X connect 35 0 33 0;
#X connect 40 0 48 0;
#X connect 41 0 44 0;
#X connect 41 1 40 1;
#X connect 42 0 40 0;
#X connect 43 0 42 0;
#X connect 44 0 43 0;
#X connect 46 0 50 0;
#X connect 46 1 47 0;
#X connect 47 0 45 0;
#X connect 49 0 39 0;
#X connect 50 1 3 0;
#X connect 51 0 32 0;
#X connect 52 0 0 0;
#X restore 230 74 pd SAMPLE-MANAGEMENT;
#X text 142 296 PLAY;
#X text 259 295 VELOCITY;
#X obj 409 143 vsl 10 84 0 1 0 0 \$0-UI-velocity \$0-i-UI-velocity empty 6 25 0 12 #fcfcfc #000000 #000000 0 1;
#X obj 206 230 cnv 17 70 18 empty \$0-i-UI-orig-dur 1355.62 3 10 0 12 #000000 #ffffff 0;
#X floatatom 281 230 8 0 0 1 PLAYBACK \$0-i-UI-pb-duration \$0-UI-pb-duration 0;
#X obj 216 345 s \$0-i-UI-velocity;
#N canvas 2796 190 575 322 CURSOR 0;
#X text 51 7 CURSOR CANVAS;
#X obj 55 39 r \$0-PLAY;
#X obj 86 82 r \$0-UI-pb-duration;
#X obj 55 153 line;
#X floatatom 55 175 5 0 0 0 - - - 0;
#X msg 55 254 pos \$1 \$2;
#X obj 55 82 f;
#X text 155 158 RAMP GENERATOR FROM 108 TO 308 IN PLAYBACK DURATION [ms], f 29;
#X text 135 125 \; \; \; \; \; \;;
#X obj 271 11 loadbang;
#X obj 456 104 s \$0-i-Flash;
#X obj 456 137 r \$0-Flash;
#X obj 456 162 unpack f f;
#X floatatom 456 185 5 0 0 0 - - - 0;
#X msg 456 79 get_pos;
#X obj 55 278 s \$0-i-Flash;
#X floatatom 523 185 5 0 0 0 - - - 0;
#X msg 456 24 size 1;
#X obj 456 49 s \$0-i-Flash;
#X obj 271 110 s \$0-i-Flash;
#X obj 55 232 pack f 141;
#X msg 55 131 0 \, 300 \$1;
#X msg 271 47 pos 105 141;
#X msg 283 72 vis_size 1 89;
#X obj 55 197 + 105;
#X msg 388 73 size 1;
#X connect 1 0 6 0;
#X connect 2 0 6 1;
#X connect 3 0 4 0;
#X connect 4 0 24 0;
#X connect 5 0 15 0;
#X connect 6 0 21 0;
#X connect 9 0 22 0;
#X connect 9 0 23 0;
#X connect 11 0 12 0;
#X connect 12 0 13 0;
#X connect 12 1 16 0;
#X connect 14 0 10 0;
#X connect 17 0 18 0;
#X connect 20 0 5 0;
#X connect 21 0 3 0;
#X connect 22 0 19 0;
#X connect 23 0 19 0;
#X connect 24 0 20 0;
#X connect 25 0 19 0;
#X restore 159 74 pd CURSOR;
#X obj 116 340 r \$0-UI-play;
#X obj 216 369 r \$0-UI-velocity;
#X obj 216 320 clip 0 1;
#X obj 388 295 inlet;
#X obj 388 320 clip 10 500000;
#X obj 100 372 bng 20 250 50 0 empty empty empty 0 -10 0 12 #fcfcfc #000000 #000000;
#X obj 126 372 s \$0-PLAY;
#X obj 388 346 s \$0-i-UI-pb-duration;
#X obj 102 102 cnv 18 321 19 empty empty =========\ |....SAMPLE\ PLAYER....|\ ========= 10 9 0 12 #000000 #ffffff 0;
#X text 106 230 DURATION[ms]:;
#X obj 368 126 cnv 19 36 20 empty empty POLY 5 10 0 12 #000000 #ffffff 0;
#N canvas 2039 218 517 444 SAMPLE-PLAYING 0;
#X obj 14 412 outlet~;
#X obj 14 9 inlet;
#X obj 242 11 inlet;
#X text 58 8 TRIGGER;
#X text 284 10 VELOCITY;
#X obj 14 129 poly 6 1, f 10;
#X obj 14 102 pack f f, f 33;
#X msg 14 45 1;
#X text 269 83 BASICALLY A VELOCITY INPUT IS ENOUGH TO PLAY. COULD BE SIMPLIFIED IN THE NEXT VERSION, f 30;
#X obj 14 218 route 1 2 3 4 5 6, f 33;
#X text 49 36 "POLY" DOES NOT ACCEPT BANG, f 15;
#N canvas 1090 391 507 487 CHANNEL 0;
#X obj 31 412 *~;
#X obj 32 444 outlet~;
#X msg 31 279 \$1 \, \$2 \$3;
#X obj 31 80 inlet;
#X obj 31 203 bng 20 250 50 0 empty empty empty 0 -10 0 12 #fcfcfc #000000 #000000;
#X obj 31 309 vline~;
#X obj 31 332 tabread4~ \$0-SAMPLE;
#X text 75 80 START;
#X text 110 250 START INDEX - STOP INDEX - DURATION[MS];
#X obj 64 188 r \$0-RAW-SAMPLE-LEN;
#X obj 64 212 - 2;
#X obj 31 251 pack 1 0 0;
#X text 30 33 IF FOR EXAMPLE: RAW SAMPLE LENGTH == 1000 \; VLINE~(TABREAD4~) -> INDEX [START=1:STOP=998] \;, f 48;
#X text 30 11 SIMPLE ONE-CHANNEL PLAYER TO CLONE;
#X obj 259 391 vline~;
#X obj 98 226 r \$0-UI-pb-duration;
#X obj 31 105 unpack f f, f 33;
#X floatatom 259 329 5 0 0 1 VELOCITY(0:1) - - 0;
#X text 309 380 NO NEED FOR RAMP (VLINE~) BUT KEEP IT FOR COHERENCY, f 25;
#X connect 0 0 1 0;
#X connect 2 0 5 0;
#X connect 3 0 16 0;
#X connect 4 0 11 0;
#X connect 5 0 6 0;
#X connect 6 0 0 0;
#X connect 9 0 10 0;
#X connect 10 0 11 1;
#X connect 11 0 2 0;
#X connect 14 0 0 1;
#X connect 15 0 11 2;
#X connect 16 0 4 0;
#X connect 16 1 17 0;
#X connect 17 0 14 0;
#X restore 14 248 pd CHANNEL;
#X obj 14 384 +~;
#N canvas 1090 391 507 487 CHANNEL 0;
#X obj 31 412 *~;
#X obj 32 444 outlet~;
#X msg 31 279 \$1 \, \$2 \$3;
#X obj 31 80 inlet;
#X obj 31 203 bng 20 250 50 0 empty empty empty 0 -10 0 12 #fcfcfc #000000 #000000;
#X obj 31 309 vline~;
#X obj 31 332 tabread4~ \$0-SAMPLE;
#X text 75 80 START;
#X text 110 250 START INDEX - STOP INDEX - DURATION[MS];
#X obj 64 188 r \$0-RAW-SAMPLE-LEN;
#X obj 64 212 - 2;
#X obj 31 251 pack 1 0 0;
#X text 30 33 IF FOR EXAMPLE: RAW SAMPLE LENGTH == 1000 \; VLINE~(TABREAD4~) -> INDEX [START=1:STOP=998] \;, f 48;
#X text 30 11 SIMPLE ONE-CHANNEL PLAYER TO CLONE;
#X obj 259 391 vline~;
#X obj 98 226 r \$0-UI-pb-duration;
#X obj 31 105 unpack f f, f 33;
#X floatatom 259 329 5 0 0 1 VELOCITY(0:1) - - 0;
#X text 309 380 NO NEED FOR RAMP (VLINE~) BUT KEEP IT FOR COHERENCY, f 25;
#X connect 0 0 1 0;
#X connect 2 0 5 0;
#X connect 3 0 16 0;
#X connect 4 0 11 0;
#X connect 5 0 6 0;
#X connect 6 0 0 0;
#X connect 9 0 10 0;
#X connect 10 0 11 1;
#X connect 11 0 2 0;
#X connect 14 0 0 1;
#X connect 15 0 11 2;
#X connect 16 0 4 0;
#X connect 16 1 17 0;
#X connect 17 0 14 0;
#X restore 52 271 pd CHANNEL;
#N canvas 1090 391 507 487 CHANNEL 0;
#X obj 31 412 *~;
#X obj 32 444 outlet~;
#X msg 31 279 \$1 \, \$2 \$3;
#X obj 31 80 inlet;
#X obj 31 203 bng 20 250 50 0 empty empty empty 0 -10 0 12 #fcfcfc #000000 #000000;
#X obj 31 309 vline~;
#X obj 31 332 tabread4~ \$0-SAMPLE;
#X text 75 80 START;
#X text 110 250 START INDEX - STOP INDEX - DURATION[MS];
#X obj 64 188 r \$0-RAW-SAMPLE-LEN;
#X obj 64 212 - 2;
#X obj 31 251 pack 1 0 0;
#X text 30 33 IF FOR EXAMPLE: RAW SAMPLE LENGTH == 1000 \; VLINE~(TABREAD4~) -> INDEX [START=1:STOP=998] \;, f 48;
#X text 30 11 SIMPLE ONE-CHANNEL PLAYER TO CLONE;
#X obj 259 391 vline~;
#X obj 98 226 r \$0-UI-pb-duration;
#X obj 31 105 unpack f f, f 33;
#X floatatom 259 329 5 0 0 1 VELOCITY(0:1) - - 0;
#X text 309 380 NO NEED FOR RAMP (VLINE~) BUT KEEP IT FOR COHERENCY, f 25;
#X connect 0 0 1 0;
#X connect 2 0 5 0;
#X connect 3 0 16 0;
#X connect 4 0 11 0;
#X connect 5 0 6 0;
#X connect 6 0 0 0;
#X connect 9 0 10 0;
#X connect 10 0 11 1;
#X connect 11 0 2 0;
#X connect 14 0 0 1;
#X connect 15 0 11 2;
#X connect 16 0 4 0;
#X connect 16 1 17 0;
#X connect 17 0 14 0;
#X restore 90 294 pd CHANNEL;
#N canvas 1090 391 507 487 CHANNEL 0;
#X obj 31 412 *~;
#X obj 32 444 outlet~;
#X msg 31 279 \$1 \, \$2 \$3;
#X obj 31 80 inlet;
#X obj 31 203 bng 20 250 50 0 empty empty empty 0 -10 0 12 #fcfcfc #000000 #000000;
#X obj 31 309 vline~;
#X obj 31 332 tabread4~ \$0-SAMPLE;
#X text 75 80 START;
#X text 110 250 START INDEX - STOP INDEX - DURATION[MS];
#X obj 64 188 r \$0-RAW-SAMPLE-LEN;
#X obj 64 212 - 2;
#X obj 31 251 pack 1 0 0;
#X text 30 33 IF FOR EXAMPLE: RAW SAMPLE LENGTH == 1000 \; VLINE~(TABREAD4~) -> INDEX [START=1:STOP=998] \;, f 48;
#X text 30 11 SIMPLE ONE-CHANNEL PLAYER TO CLONE;
#X obj 259 391 vline~;
#X obj 98 226 r \$0-UI-pb-duration;
#X obj 31 105 unpack f f, f 33;
#X floatatom 259 329 5 0 0 1 VELOCITY(0:1) - - 0;
#X text 309 380 NO NEED FOR RAMP (VLINE~) BUT KEEP IT FOR COHERENCY, f 25;
#X connect 0 0 1 0;
#X connect 2 0 5 0;
#X connect 3 0 16 0;
#X connect 4 0 11 0;
#X connect 5 0 6 0;
#X connect 6 0 0 0;
#X connect 9 0 10 0;
#X connect 10 0 11 1;
#X connect 11 0 2 0;
#X connect 14 0 0 1;
#X connect 15 0 11 2;
#X connect 16 0 4 0;
#X connect 16 1 17 0;
#X connect 17 0 14 0;
#X restore 128 317 pd CHANNEL;
#N canvas 1090 391 507 487 CHANNEL 0;
#X obj 31 412 *~;
#X obj 32 444 outlet~;
#X msg 31 279 \$1 \, \$2 \$3;
#X obj 31 80 inlet;
#X obj 31 203 bng 20 250 50 0 empty empty empty 0 -10 0 12 #fcfcfc #000000 #000000;
#X obj 31 309 vline~;
#X obj 31 332 tabread4~ \$0-SAMPLE;
#X text 75 80 START;
#X text 110 250 START INDEX - STOP INDEX - DURATION[MS];
#X obj 64 188 r \$0-RAW-SAMPLE-LEN;
#X obj 64 212 - 2;
#X obj 31 251 pack 1 0 0;
#X text 30 33 IF FOR EXAMPLE: RAW SAMPLE LENGTH == 1000 \; VLINE~(TABREAD4~) -> INDEX [START=1:STOP=998] \;, f 48;
#X text 30 11 SIMPLE ONE-CHANNEL PLAYER TO CLONE;
#X obj 259 391 vline~;
#X obj 98 226 r \$0-UI-pb-duration;
#X obj 31 105 unpack f f, f 33;
#X floatatom 259 329 5 0 0 1 VELOCITY(0:1) - - 0;
#X text 309 380 NO NEED FOR RAMP (VLINE~) BUT KEEP IT FOR COHERENCY, f 25;
#X connect 0 0 1 0;
#X connect 2 0 5 0;
#X connect 3 0 16 0;
#X connect 4 0 11 0;
#X connect 5 0 6 0;
#X connect 6 0 0 0;
#X connect 9 0 10 0;
#X connect 10 0 11 1;
#X connect 11 0 2 0;
#X connect 14 0 0 1;
#X connect 15 0 11 2;
#X connect 16 0 4 0;
#X connect 16 1 17 0;
#X connect 17 0 14 0;
#X restore 166 340 pd CHANNEL;
#N canvas 1090 391 507 487 CHANNEL 0;
#X obj 31 412 *~;
#X obj 32 444 outlet~;
#X msg 31 279 \$1 \, \$2 \$3;
#X obj 31 80 inlet;
#X obj 31 203 bng 20 250 50 0 empty empty empty 0 -10 0 12 #fcfcfc #000000 #000000;
#X obj 31 309 vline~;
#X obj 31 332 tabread4~ \$0-SAMPLE;
#X text 75 80 START;
#X text 110 250 START INDEX - STOP INDEX - DURATION[MS];
#X obj 64 188 r \$0-RAW-SAMPLE-LEN;
#X obj 64 212 - 2;
#X obj 31 251 pack 1 0 0;
#X text 30 33 IF FOR EXAMPLE: RAW SAMPLE LENGTH == 1000 \; VLINE~(TABREAD4~) -> INDEX [START=1:STOP=998] \;, f 48;
#X text 30 11 SIMPLE ONE-CHANNEL PLAYER TO CLONE;
#X obj 259 391 vline~;
#X obj 98 226 r \$0-UI-pb-duration;
#X obj 31 105 unpack f f, f 33;
#X floatatom 259 329 5 0 0 1 VELOCITY(0:1) - - 0;
#X text 309 380 NO NEED FOR RAMP (VLINE~) BUT KEEP IT FOR COHERENCY, f 25;
#X connect 0 0 1 0;
#X connect 2 0 5 0;
#X connect 3 0 16 0;
#X connect 4 0 11 0;
#X connect 5 0 6 0;
#X connect 6 0 0 0;
#X connect 9 0 10 0;
#X connect 10 0 11 1;
#X connect 11 0 2 0;
#X connect 14 0 0 1;
#X connect 15 0 11 2;
#X connect 16 0 4 0;
#X connect 16 1 17 0;
#X connect 17 0 14 0;
#X restore 204 363 pd CHANNEL;
#X obj 14 158 pack f f f;
#X listbox 15 189 20 0 0 0 - - - 0;
#X connect 1 0 7 0;
#X connect 2 0 6 1;
#X connect 5 0 18 0;
#X connect 5 1 18 1;
#X connect 5 2 18 2;
#X connect 6 0 5 0;
#X connect 7 0 6 0;
#X connect 9 0 11 0;
#X connect 9 1 13 0;
#X connect 9 2 14 0;
#X connect 9 3 15 0;
#X connect 9 4 16 0;
#X connect 9 5 17 0;
#X connect 11 0 12 0;
#X connect 12 0 0 0;
#X connect 13 0 12 1;
#X connect 14 0 12 1;
#X connect 15 0 12 1;
#X connect 16 0 12 1;
#X connect 17 0 12 1;
#X connect 18 0 19 0;
#X connect 19 0 9 0;
#X restore 100 400 pd SAMPLE-PLAYING;
#X symbolatom 165 254 35 0 0 0 - \$0-i-UI-sample-loc \$0-UI-sample-loc 0;
#X connect 4 0 22 0;
#X connect 5 0 19 0;
#X connect 17 0 22 0;
#X connect 18 0 28 1;
#X connect 19 0 15 0;
#X connect 20 0 21 0;
#X connect 21 0 24 0;
#X connect 22 0 23 0;
#X connect 22 0 28 0;
#X connect 28 0 6 0;
#X coords 0 -1 1 1 325 180 2 100 100;
