#N canvas 1920 0 1920 1009 12;
#X floatatom 21 317 7 0 0 1 INPUT\ SIGNAL\ CONTINUS\ FREQUENCY\ [CYCLE/SEC] - - 0;
#N canvas 0 0 450 300 (subpatch) 0;
#X array \$0-real 128 float 0;
#A color 0;
#A width 1;
#X coords 0 128 127 -128 256 200 1;
#X restore 1191 310 graph;
#X floatatom 21 140 5 0 32 1 INPUT\ SIGNAL\ DISCRETE\ FREQUNECY\ INDEX\ [CYCLE] - - 0;
#X obj 53 270 samplerate~;
#X obj 21 248 t f b;
#X obj 21 270 *;
#X obj 20 926 tabwrite~ \$0-real;
#X obj 46 896 tabwrite~ \$0-imaginary;
#X obj 21 413 osc~;
#N canvas 0 0 450 300 (subpatch) 0;
#X array \$0-imaginary 128 float 0;
#A color 0;
#A width 1;
#X coords 0 128 127 -128 256 200 1;
#X restore 1191 532 graph;
#X obj 46 389 f;
#X floatatom 115 389 5 0 100 1 PHASE\ [100TH\ OF\ A\ CYCLE] - - 0;
#X obj 73 389 / 100;
#X obj 536 853 loadbang;
#X obj 536 924 s \$0-snap;
#X obj 46 365 r \$0-snap;
#X msg 28 106 0;
#X msg 297 45 \; pd dsp \$1;
#X obj 12 13 cnv 10 180 25 empty empty FOURIER\ ANALYSIS 10 15 2 16 #ff0400 #000000 0;
#X obj 21 82 line;
#X text 1188 751 GO THROUGH PYTHON TUTORIAL AND RETHINK IT AND GIVE A BETTER EXPLANATION HERE: DISCRETE TO CONTINUOUS FREQUENCY RELATION;
#X obj 814 88 tgl 20 0 empty empty TURN\ ON/OFF\ SUBPATCH 23 10 0 12 #fcfcfc #000000 #000000 0 1;
#X msg 61 106 1;
#X obj 76 432 tabwrite~ \$0-input;
#N canvas 0 0 450 300 (subpatch) 0;
#X array \$0-input 128 float 2;
#A color 0;
#A width 2;
#X coords 0 1 128 -1 520 250 1;
#X restore 1191 41 graph;
#X obj 21 174 / 128;
#X msg 109 106 64;
#X obj 840 112 bng 20 250 50 0 empty empty 1-BLOCK\ CALCULATION 23 10 0 12 #fcfcfc #000000 #000000;
#N canvas 0 0 450 300 (subpatch) 0;
#X array \$0-amplitude 128 float 0;
#A color 0;
#A width 1;
#X coords 0 128 127 -128 256 200 1;
#X restore 1457 310 graph;
#N canvas 0 0 450 300 (subpatch) 0;
#X array \$0-phase 128 float 2;
#A color 0;
#A width 2;
#X coords 0 3.14159 128 -3.14159 256 200 1;
#X restore 1457 532 graph;
#X text 1186 791 - CONTINUOUS FREQUENCY [1(CYCLE)/SEC = HZ]. DISCRETE FREQUENCY [1(CYCLE)/SAMPLE] \; - SO IF DISCRETE FREQEUNCY == 128! \, MEANS THAT WITH EACH SAMPLE WE HAVE 1 ROTATION -> ALWAYS 1 \; - FREQUENCY BINS: [0: (WINDOW-SIZE)-1] --> DISCRETE FREQUENCY. WHY? \; - FUNDAMENTAL FREQUENCY: SR/(WINDOW-SIZE) [HZ]. WHY? BECASUE OF ANALYSIS WINDOW SIZE? \; - FOR BETTER UNDERSTANDING INPUT FREQUENCY (HZ) IS DEFINED AS INTEGER/NON-INTEGER MULTIPLES OF FUNDAMENTAL FREQUENCY FROM 0 TILL NYQUIST FREQUNCY N/2, f 102;
#X text 140 269 DISCRETE->CONTINUOUS FREQUENCY CONVERSION;
#X floatatom 21 206 10 0 0 1 INPUT\ SIGNAL\ DISCRETE\ FREQUNECY\ [CYCLE/SAMPLE] - - 0;
#X text 328 17 DSP;
#X text 606 924 TO SYNCH SNAP-SHOT WITH PHASE;
#X msg 21 59 0 \, 64 10000;
#X text 99 88 NYQUIST;
#X obj 536 897 metro 20;
#X obj 297 12 /usr/lib/puredata/doc/5.reference/set-dsp-tgl;
#X text 117 365 NEXT BLOCK OF OSC WILL START FROM PHASE SET;
#X msg 246 106 62;
#X msg 279 106 66;
#X text 30 676 CALCULATES FFT OF ONE BLOCK: HERE 128 SAMPLES \; ONE BLOCK GENERATED ABOVE IS AN OSCILLATOR WITH DISCERE FREQUENCY FROM [0 TO 0.5] (DISCRETE FREQUENCY INDEX FROM [0 TO 64]. WHY NOT MORE(TILL 128): NYQUIST FREQUENCY - FROM 64 TO 128 RESULT WILL BE FOLDOVER/MIRROR OF 0 TO 64 INVESTIGATE MORE..., f 47;
#X text 1261 20 128 [SAMPLES] -> [48000 SAMPLE/SEC] -> ~2.67 [MS];
#X obj 814 138 switch~ 128 1 1 0;
#X text 939 139 COULD BE USED INSTEAD OF BLOCK~;
#X text 810 36 SEEMS LIKE EVEN IF NOT SET. THE DEFAULT BLOCK SIZE OF PD IS 64 - SHOULD BE CHANGED ACCORDING TO PROCESSING WINDOW SIZE -> 128, f 47;
#X text 812 189 HOW TO GET THE DEFAULT BLOCK-SIZE IN USE?;
#X obj 536 875 bng 20 250 50 0 empty empty empty 0 -10 0 12 #fcfcfc #000000 #000000;
#X text 699 263 WHEN DISCRETE FREQUENCY INDEX = 1 (AND PHASE 0) FFT FIND THE FREQUENCY BINS AT 1 AND 127 UNDERSTAND THIS BETTER..., f 48;
#X text 876 768 [fft~] computes the Fourier transform \, given the real and imaginary part of a complex-valued signal. Here the imaginary part is zero (the input is real-valued). The output is a (real \, imaginary) pair for each frequency from 0 to 128 (in units of SR/64)., f 41;
#X text 887 900 The [fft~] object has separate inlets for the real and imaginary parts of a complex-valued signal and outputs its Fourier transform \, again using separate outlets for the real and imaginary part. The transform is done on one block of samples (here the block size is 64 \, (Pd's default is 64). The outputs give the complex amplitudes of the harmonics of the input signal \, from DC up. The harmonics are tuned to the fundamental frequency of the analysis \, 1/128th of the sample rate. If the frequency (in harmonics) is an integer \, the result is two harmonics symmetric about the Nyquist frequency. Fractional frequencies spill across harmonics. Changing the initial phase rotates energy from real to imaginary and back., f 139;
#X text 63 174 (1/128 == DISCRETE FUNDAMENTAL FREQUENCY OF ANALYSIS);
#X text 61 247 (SR/128 == CONTINUOUS FUNDAMENTAL FREQUENCY OF ANALYSIS);
#X text 698 397 TO GET CONTINUOUS FREQUENCY OF THE WINDOW BINS -> INDEX SHOULD BE MULTIPLIED BY SR/(WINDOW-SIZE), f 50;
#X obj 64 958 tabwrite~ \$0-amplitude;
#X obj 65 805 expr~ sqrt(pow($v1 \, 2)+pow($v2 \, 2));
#X obj 364 959 tabwrite~ \$0-phase;
#X obj 364 837 expr~ atan2($v2 \, $v1);
#X text 432 752 NEED A CORRECTION HERE -> LEADS TO ERROR.... SMALL ERRORS IN FFT OUTPUT LEAD TO BIG ERROR IN PHASE. USE ANOTHER ATAN() OR CLIP SMALL VALUES, f 50;
#X text 497 468 HANN WINDOW;
#N canvas 0 0 450 300 (subpatch) 0;
#X array \$0-hann 128 float 1;
#A 0 0 0.000602275 0.00240764 0.00541174 0.00960737 0.0149844 0.0215298 0.029228 0.0380602 0.0480053 0.0590394 0.0711357 0.0842652 0.0983962 0.113495 0.129524 0.146447 0.164221 0.182803 0.20215 0.222215 0.242949 0.264302 0.286222 0.308658 0.331555 0.354858 0.37851 0.402455 0.426635 0.450991 0.475466 0.5 0.524534 0.549009 0.573365 0.597545 0.62149 0.645142 0.668445 0.691342 0.713778 0.735698 0.757051 0.777785 0.79785 0.817197 0.835779 0.853553 0.870476 0.886505 0.901604 0.915735 0.928864 0.940961 0.951995 0.96194 0.970772 0.97847 0.985016 0.990393 0.994588 0.997592 0.999398 1 0.999398 0.997592 0.994588 0.990393 0.985016 0.97847 0.970772 0.96194 0.951995 0.940961 0.928864 0.915735 0.901604 0.886505 0.870476 0.853553 0.835779 0.817197 0.79785 0.777785 0.757051 0.735698 0.713778 0.691342 0.668445 0.645142 0.62149 0.597545 0.573365 0.549009 0.524534 0.5 0.475466 0.450991 0.426635 0.402455 0.37851 0.354858 0.331555 0.308658 0.286222 0.264302 0.242949 0.222215 0.20215 0.182803 0.164221 0.146447 0.129524 0.113495 0.0983962 0.0842652 0.0711357 0.0590394 0.0480053 0.0380602 0.029228 0.0215298 0.0149844 0.00960737 0.00541174 0.00240764 0.000602275;
#A color 0;
#A width 1;
#X coords 0 1 127 0 200 120 1;
#X restore 433 490 graph;
#X msg 746 510 0;
#X obj 651 567 osc~, f 14;
#X obj 651 519 samplerate~;
#X obj 651 590 *~ -0.5;
#X obj 651 614 +~ 0.5;
#X obj 643 641 tabwrite~ \$0-hann;
#X text 422 489 1;
#X text 422 593 0;
#X text 432 610 0;
#X obj 643 491 bng 19 250 50 0 empty empty empty 0 -6 0 8 #dfdfdf #000000 #000000;
#X obj 651 543 / 128;
#X text 665 489 RECALCULATE;
#X text 608 610 127;
#X text 492 565 HANN-WINDOW;
#X obj 814 160 #block~ 128 1 1 0;
#X text 54 413 GENERATES AN OSCILLATOR @ SAMPLE-RATE;
#X obj 22 553 *~;
#X obj 40 518 tabreceive~ \$0-hann;
#X msg 64 553;
#X obj 593 805 expr~ if(abs($v1)<1e-5 \, 0 \, $v1);
#X obj 365 805 expr~ if(abs($v1)<1e-5 \, 0 \, $v1);
#X obj 21 786 fft~;
#X msg 194 106 20.5;
#X msg 161 106 20;
#X connect 0 0 8 0;
#X connect 2 0 25 0;
#X connect 3 0 5 1;
#X connect 4 0 5 0;
#X connect 4 1 3 0;
#X connect 5 0 0 0;
#X connect 8 0 23 0;
#X connect 8 0 78 0;
#X connect 10 0 8 1;
#X connect 11 0 12 0;
#X connect 12 0 10 1;
#X connect 13 0 48 0;
#X connect 15 0 10 0;
#X connect 15 0 23 0;
#X connect 16 0 2 0;
#X connect 19 0 2 0;
#X connect 21 0 44 0;
#X connect 22 0 2 0;
#X connect 25 0 32 0;
#X connect 26 0 2 0;
#X connect 27 0 44 0;
#X connect 32 0 4 0;
#X connect 35 0 19 0;
#X connect 37 0 14 0;
#X connect 37 0 7 0;
#X connect 37 0 6 0;
#X connect 37 0 55 0;
#X connect 37 0 57 0;
#X connect 38 0 17 0;
#X connect 40 0 2 0;
#X connect 41 0 2 0;
#X connect 48 0 37 0;
#X connect 56 0 55 0;
#X connect 58 0 57 0;
#X connect 62 0 63 1;
#X connect 63 0 65 0;
#X connect 64 0 72 0;
#X connect 65 0 66 0;
#X connect 66 0 67 0;
#X connect 71 0 64 0;
#X connect 71 0 62 0;
#X connect 71 0 67 0;
#X connect 72 0 63 0;
#X connect 78 0 83 0;
#X connect 79 0 78 1;
#X connect 81 0 58 1;
#X connect 82 0 58 0;
#X connect 83 0 6 0;
#X connect 83 0 56 0;
#X connect 83 0 82 0;
#X connect 83 1 7 0;
#X connect 83 1 56 1;
#X connect 83 1 81 0;
#X connect 84 0 2 0;
#X connect 85 0 2 0;
