#N canvas 1956 38 450 300 12;
#X text 10 9 VERSION 0;
#X floatatom 96 195 5 0 0 0 - - - 0;
#X obj 53 197 lop~;
#X obj 90 144 line;
#X obj 163 125 del 200;
#X floatatom 89 74 5 0 0 0 - - - 0;
#X msg 90 101 \$1 200;
#X msg 163 150 0 400;
#X text 232 134 Could be an adsr here;
#X obj 45 40 inlet~;
#X obj 132 41 inlet;
#X obj 41 262 outlet~;
#X connect 1 0 2 1;
#X connect 2 0 11 0;
#X connect 3 0 1 0;
#X connect 4 0 7 0;
#X connect 5 0 6 0;
#X connect 6 0 3 0;
#X connect 6 0 4 0;
#X connect 7 0 3 0;
#X connect 9 0 2 0;
#X connect 10 0 5 0;
