#N struct line-label float x float y float z symbol label;
#N canvas 66 32 1854 977 12;
#X declare -stdpath /home/mobin/Documents/Pd/internet-patches/MSP;
#X obj 9 25 declare -stdpath /home/mobin/Documents/Pd/internet-patches/MSP, f 64;
#X text 617 5 DL: DELAY LINE;
#X text 1408 6 - MAKE REALTIME UNITS FOR BASIC RECIRCULATING DELAYS \; --- CHECK ARCHIVED PATCHES \;;
#X obj 1269 36 tgl 20 0 empty empty empty 0 -10 0 12 #fcfcfc #000000 #000000 0 1;
#X obj 1269 61 metro 1000;
#X obj 1269 86 bng 20 250 50 0 empty empty empty 0 -10 0 12 #fcfcfc #000000 #000000;
#X obj 1310 106 del 10;
#X msg 1310 131 0 300;
#X msg 1269 131 1 10;
#X obj 1269 163 line~;
#X obj 1269 188 *~;
#X obj 299 339 *~;
#X obj 403 445 output~;
#X obj 13 689 spectrum~;
#X text 865 827 FOR DELAY OF 2[ms] IF FEEDBACK-GAIN IS 100% \, BASICALLY FOR EACH SINUSOID IN NOISE~ \, THE DELAYED IS ACTING AS CONSTRUCTIVE FOR SINUSOIDS WITH PERIODS OF MULTIPLES OF 2[ms] ==> \; 500[Hz] == 0.5 CYCLE/1[ms] == 1 CYCLE/2[ms] \; 1000[Hz] == 1 CYCLE/1[ms] == 2 CYCLE/2[ms] \; ... \; REST OF THE SINUSOIDS (FREQUENCY BINS) WILL BE HEAVILY ATTENUATED (DESTRUCTIVE INTERFERENCE) ESPECIALLY AT HALF CYCLES LIKE 250[Hz] == 0.5 CYCLE/2[ms] OR 750[Hz] = 1.5 CYCLE/2[ms] \;, f 63;
#X text 10 63 REVERBRATION BASICS \; PITCH-SHIFTING \; --------------------;
#X text 9 2 https://msp.ucsd.edu/syllabi/171.20w/movies/171-6b-feb13.mp4 (starting 16:20), f 77;
#X obj 23 359 delwrite~ \$0-DL-1 10000;
#X obj 404 151 nbx 7 18 1.33 10000 0 0 empty empty |1.33-10000|DELAY-TIME[ms] 0 -10 0 12 #ff8300 #000000 #000000 0 256;
#X obj 255 219 hsl 30 20 0 90 0 0 empty empty |0-90|FEEDBACK-GAIN -5 -10 0 12 #ff8300 #000000 #000000 0 1;
#X obj 252 244 / 100;
#X msg 252 292 \$1 30;
#X obj 252 319 line~;
#X floatatom 252 267 5 0 0 0 - - - 0;
#X obj 14 541 scope~;
#X obj 20 118 bng 20 250 50 0 empty empty empty 0 -10 0 12 #fcfcfc #000000 #000000;
#X obj 20 143 openpanel;
#X obj 21 245 array define SAMPLE;
#X obj 20 194 soundfiler;
#X floatatom 20 219 5 0 0 0 - - - 0;
#X msg 20 169 read -resize \$1 SAMPLE;
#X obj 22 284 tabplay~ SAMPLE;
#X obj 142 308 spigot;
#X obj 194 307 tgl 20 0 empty empty empty 0 -10 0 12 #fcfcfc #000000 #000000 0 1;
#X obj 142 285 bng 20 250 50 0 empty empty empty 0 -10 0 12 #fcfcfc #000000 #000000;
#X obj 404 319 *~;
#X obj 436 319 line~;
#X obj 404 177 t b f, f 13;
#X obj 404 233 f;
#X obj 404 204 del 40;
#X msg 479 293 0 40;
#X msg 436 293 1 40;
#X text 556 200 THIS PART IS JUST FOR NOT CLICK WHEN CHANGING DELAY TIME. COULD BE AVOIDED., f 13;
#X text 618 28 SOUND TRAVERSE ABOUT A FOOT EVERY MILLISECOND;
#X obj 404 263 delread~ \$0-DL-1 60;
#X msg 404 106 100;
#X obj 404 82 loadbang;
#X msg 252 159 70;
#X obj 252 127 loadbang;
#X text 682 131 comment;
#X connect 3 0 4 0;
#X connect 4 0 5 0;
#X connect 5 0 6 0;
#X connect 5 0 8 0;
#X connect 6 0 7 0;
#X connect 7 0 9 0;
#X connect 8 0 9 0;
#X connect 9 0 10 0;
#X connect 9 0 10 1;
#X connect 11 0 17 0;
#X connect 18 0 37 0;
#X connect 19 0 20 0;
#X connect 20 0 23 0;
#X connect 21 0 22 0;
#X connect 22 0 11 0;
#X connect 23 0 21 0;
#X connect 25 0 26 0;
#X connect 26 0 30 0;
#X connect 28 0 29 0;
#X connect 30 0 28 0;
#X connect 31 0 17 0;
#X connect 31 1 34 0;
#X connect 32 0 31 0;
#X connect 33 0 32 1;
#X connect 34 0 32 0;
#X connect 35 0 11 1;
#X connect 35 0 12 0;
#X connect 36 0 35 1;
#X connect 37 0 39 0;
#X connect 37 0 40 0;
#X connect 37 1 38 1;
#X connect 38 0 44 0;
#X connect 39 0 38 0;
#X connect 39 0 41 0;
#X connect 40 0 36 0;
#X connect 41 0 36 0;
#X connect 44 0 35 0;
#X connect 45 0 18 0;
#X connect 46 0 45 0;
#X connect 47 0 19 0;
#X connect 48 0 47 0;
