#N struct line-label float x float y float z symbol label;
#N canvas 66 32 1854 977 12;
#X declare -stdpath /home/mobin/Documents/Pd/internet-patches/MSP;
#X obj 9 25 declare -stdpath /home/mobin/Documents/Pd/internet-patches/MSP, f 64;
#X text 502 6 DL: DELAY LINE;
#X text 765 7 OTHER APPLICATIONS OF DELAYS: \; - PITCH SHIFTING USING DOPPLER EFFECT \; - REVERBRATOR \;;
#X text 1111 5 - MAKE REALTIME UNITS FOR BASIC RECIRCULATING DELAYS \; --- CHECK ARCHIVED PATCHES \;;
#X obj 297 162 tgl 20 0 empty empty empty 0 -10 0 12 #fcfcfc #000000 #000000 0 1;
#X obj 297 187 metro 1000;
#X obj 233 333 *~;
#X obj 297 212 bng 20 250 50 0 empty empty empty 0 -10 0 12 #fcfcfc #000000 #000000;
#X obj 338 232 del 10;
#X msg 338 257 0 300;
#X msg 297 257 1 10;
#X obj 297 289 line~;
#X obj 297 314 *~;
#X obj 277 416 *~;
#X obj 477 296 hsl 30 20 0 90 0 0 empty empty |0-90|FEEDBACK-GAIN -5 -10 0 12 #ff8300 #000000 #000000 0 1;
#X obj 474 321 / 100;
#X msg 474 369 \$1 30;
#X obj 474 396 line~;
#X floatatom 474 344 5 0 0 0 - - - 0;
#X obj 233 293 noise~;
#X obj 481 520 output~;
#X obj 278 361 nbx 7 18 1.33 10000 0 0 empty empty |1.33-10000|DELAY-TIME[ms] 0 -10 0 12 #ff8300 #000000 #000000 0 256;
#X obj 243 445 delwrite~ \$0-DL-2 10000;
#X obj 24 598 spectrum~;
#X obj 278 384 delread~ \$0-DL-2 2;
#X text 883 742 FOR DELAY OF 2[ms] IF FEEDBACK-GAIN IS 100% \, BASICALLY FOR EACH SINUSOID IN NOISE~ \, THE DELAYED IS ACTING AS CONSTRUCTIVE FOR SINUSOIDS WITH PERIODS OF MULTIPLES OF 2[ms] ==> \; 500[Hz] == 0.5 CYCLE/1[ms] == 1 CYCLE/2[ms] \; 1000[Hz] == 1 CYCLE/1[ms] == 2 CYCLE/2[ms] \; ... \; REST OF THE SINUSOIDS (FREQUENCY BINS) WILL BE HEAVILY ATTENUATED (DESTRUCTIVE INTERFERENCE) ESPECIALLY AT HALF CYCLES LIKE 250[Hz] == 0.5 CYCLE/2[ms] OR 750[Hz] = 1.5 CYCLE/2[ms] \;, f 63;
#X text 8 4 https://msp.ucsd.edu/syllabi/171.20w/movies/171-6b-feb13.mp4;
#X obj 559 466 *~;
#X obj 761 347 hsl 30 20 0 90 0 0 empty empty |0-90|FEEDBACK-GAIN -5 -10 0 12 #ff8300 #000000 #000000 0 1;
#X obj 758 372 / 100;
#X msg 758 420 \$1 30;
#X obj 758 447 line~;
#X floatatom 758 395 5 0 0 0 - - - 0;
#X obj 233 485 delwrite~ \$0-DL-1 10000;
#X obj 560 397 nbx 7 18 1.33 10000 0 0 empty empty |1.33-10000|DELAY-TIME[ms] 0 -10 0 12 #ff8300 #000000 #000000 0 256;
#X obj 560 422 delread~ \$0-DL-1 3;
#X text 10 78 COMB FILTERING --------------, f 14;
#X connect 4 0 5 0;
#X connect 5 0 7 0;
#X connect 6 0 22 0;
#X connect 6 0 33 0;
#X connect 7 0 8 0;
#X connect 7 0 10 0;
#X connect 8 0 9 0;
#X connect 9 0 11 0;
#X connect 10 0 11 0;
#X connect 11 0 12 0;
#X connect 11 0 12 1;
#X connect 12 0 6 1;
#X connect 13 0 22 0;
#X connect 14 0 15 0;
#X connect 15 0 18 0;
#X connect 16 0 17 0;
#X connect 17 0 13 1;
#X connect 18 0 16 0;
#X connect 19 0 6 0;
#X connect 21 0 24 0;
#X connect 24 0 13 0;
#X connect 24 0 23 0;
#X connect 24 0 20 0;
#X connect 27 0 33 0;
#X connect 28 0 29 0;
#X connect 29 0 32 0;
#X connect 30 0 31 0;
#X connect 31 0 27 1;
#X connect 32 0 30 0;
#X connect 34 0 35 0;
#X connect 35 0 27 0;
#X connect 35 0 23 0;
#X connect 35 0 20 0;
