#N canvas 1920 0 1920 1009 12;
#X declare -stdpath /home/mobin/Documents/Pd/internet-patches/MSP;
#X declare -stdpath /usr/share/puredata/doc/3.audio.examples;
#X declare -stdpath /home/mobin/Documents/Pd/my-patches/extra;
#X obj 1804 186 tgl 20 0 empty empty empty 0 -10 0 12 #fcfcfc #000000 #000000 0 1;
#X obj 1804 211 metro 1000;
#X obj 1804 236 bng 20 250 50 0 empty empty empty 0 -10 0 12 #fcfcfc #000000 #000000;
#X obj 1845 256 del 10;
#X msg 1845 281 0 300;
#X msg 1804 281 1 10;
#X obj 1804 313 line~;
#X obj 1804 338 *~;
#X obj 447 429 delwrite~ \$0-DL-2 1000;
#X obj 470 361 delread~ \$0-DL-2;
#X obj 1610 213 bng 20 250 50 0 empty empty empty 0 -10 0 12 #fcfcfc #000000 #000000;
#X obj 1610 238 openpanel;
#X obj 1611 340 array define SAMPLE;
#X obj 1610 289 soundfiler;
#X floatatom 1610 314 5 0 0 0 - - - 0;
#X msg 1610 264 read -resize \$1 SAMPLE;
#X obj 1611 366 tabplay~ SAMPLE;
#X obj 1731 390 spigot;
#X obj 1783 389 tgl 20 0 empty empty empty 0 -10 0 12 #fcfcfc #000000 #000000 0 1;
#X obj 1731 367 bng 20 250 50 0 empty empty empty 0 -10 0 12 #fcfcfc #000000 #000000;
#X obj 341 409 +~;
#X obj 379 264 hsl 50 20 0 99 0 0 empty empty |0-99|FEEDBACK-GAIN -5 -10 0 12 #ff0400 #000000 #000000 0 1;
#X obj 376 289 / 100;
#X floatatom 376 312 5 0 0.9 0 - - - 0;
#X obj 470 335 nbx 7 18 1.33 10000 0 0 empty empty |1.33-10000|DELAY-TIME[ms] 0 -10 0 12 #ff8300 #000000 #000000 0 256;
#X obj 129 390 nbx 7 18 1.33 10000 0 0 empty empty |1.33-10000|DELAY-TIME[ms] 0 -10 0 12 #ff8300 #000000 #000000 0 256;
#X obj 128 263 delwrite~ \$0-DL-1 1000;
#X obj 129 416 delread~ \$0-DL-1;
#X obj 129 328 loadbang;
#X msg 129 351 10;
#X obj 470 267 loadbang;
#X msg 470 292 10;
#X obj 36 320 hsl 30 20 0 100 0 0 empty empty |0-100|FEEDFORWARD-GAIN -5 -10 0 12 #ff8300 #000000 #000000 0 1;
#X obj 33 345 / 100;
#X msg 33 393 \$1 30;
#X obj 33 420 line~;
#X floatatom 33 368 5 0 0.9 0 - - - 0;
#X obj 10 461 +~;
#X obj 89 440 *~, f 6;
#X obj 6 29 declare -stdpath /home/mobin/Documents/Pd/internet-patches/MSP, f 64;
#X msg 376 339 \$1 30;
#X obj 376 366 line~;
#X obj 376 390 *~, f 14;
#X obj 10 494 s~ \$0-FFD-OUT;
#X obj 341 477 s~ \$0-FBD-OUT;
#X text 6 60 - DL: DELAY LINE \; - SOUND TRAVERSE ABOUT A FOOT EVERY MILLISECOND \; - NEITHER FFW NOR FB DELAY ADD NO NEW FREQUENCIES TO THE SYSTEM(SOUND). DELAY IS ALL ABOUT INTERFERENCE \; - DELAY OF X[ms] <=====> DELAY OF N = (SAMPLERATE/1000)*X [SAMPLES] \;, f 72;
#X obj 11 243 +~ 0;
#X obj 11 184 r~ \$0-FFD-IN;
#X obj 341 188 r~ \$0-FBD-IN;
#X text 9 148 FEEDFORWARD DELAY SYSTEM: NON-CIRCULATING COMB FILTER, f 28;
#X obj 1776 867 *~;
#X obj 1807 867 tgl 20 0 empty empty empty 0 -10 0 12 #fcfcfc #000000 #000000 0 1;
#X obj 1681 719 *~;
#X obj 6 7 declare -stdpath /usr/share/puredata/doc/3.audio.examples;
#X floatatom 1681 662 5 0 0 0 - - - 0;
#X obj 8 526 r~ \$0-FFD-OUT;
#X obj 1681 690 osc~;
#X obj 1682 750 *~;
#X obj 1713 750 tgl 20 0 empty empty empty 0 -10 0 12 #fcfcfc #000000 #000000 0 1;
#X text 339 149 FEEDBACK DELAY SYSTEM: RE-CIRCULATING COMB FILTER, f 26;
#X obj 1659 38 line;
#X floatatom 1659 63 5 0 0 0 - - - 0;
#X obj 1659 85 int;
#X floatatom 1659 113 5 0 0 0 - - - 0;
#X obj 1659 137 tabread~ \$0-IMPULSE;
#X msg 1725 651 1;
#X obj 1725 700 *~;
#X obj 1725 675 adsr 1 100 1000 0 0;
#X obj 1725 604 tgl 20 0 empty empty empty 0 -10 0 12 #fcfcfc #000000 #000000 0 1;
#X obj 1725 627 metro 1000;
#X obj 109 526 r~ \$0-FBD-OUT;
#X text 1384 10 HOW TO MAKE A PROPER IMPULSE IN PD? -----------------------------------;
#X obj 1610 400 *~;
#X obj 1641 400 tgl 20 0 empty empty empty 0 -10 0 12 #fcfcfc #000000 #000000 0 1;
#X obj 1660 165 *~;
#X obj 1691 165 tgl 20 0 empty empty empty 0 -10 0 12 #fcfcfc #000000 #000000 0 1;
#X text 965 8 ADD PICTURES TO PD (ELSE EXTERNAL);
#X obj 1608 557 sig~;
#X obj 1608 452 tgl 20 0 empty empty empty 0 -10 0 12 #fcfcfc #000000 #000000 0 1;
#X obj 1608 475 metro 1000;
#X msg 1644 525 0;
#X obj 1644 503 del 10;
#X msg 1608 525 0.9;
#X obj 414 7 declare -stdpath /home/mobin/Documents/Pd/my-patches/extra, f 64;
#X obj 7 567 4096.spectrum~;
#X obj 1812 436 noise~;
#X obj 582 57 output~;
#X obj 702 57 output~;
#X obj 1776 839 osc~ 400;
#X obj 1588 366 bng 20 250 50 0 empty empty empty 0 -10 0 12 #fcfcfc #000000 #000000;
#X obj 1712 61 loadbang;
#X obj 1712 39 array define \$0-IMPULSE 100;
#X msg 1712 84 0 1;
#X obj 1712 109 s \$0-IMPULSE;
#X msg 1659 12 0 \, 99 1000;
#X obj 1609 584 *~;
#X obj 1640 584 tgl 20 0 empty empty empty 0 -10 0 12 #fcfcfc #000000 #000000 0 1;
#X obj 1811 462 *~;
#X obj 1842 462 tgl 20 0 empty empty empty 0 -10 0 12 #fcfcfc #000000 #000000 0 1;
#X text 1127 901 NOTE: NO NEW FREQEUNCY WILL BE ADDED NEITER IN CASE OF FEEDFORWARD NOR FEEDBACK DELAY..., f 23;
#X obj 1776 789 line;
#X floatatom 1776 815 5 0 0 0 - - - 0;
#X msg 1815 788 stop;
#X msg 1776 764 0 \, 2000 10000;
#X connect 0 0 1 0;
#X connect 1 0 2 0;
#X connect 2 0 3 0;
#X connect 2 0 5 0;
#X connect 3 0 4 0;
#X connect 4 0 6 0;
#X connect 5 0 6 0;
#X connect 6 0 7 0;
#X connect 6 0 7 1;
#X connect 9 0 42 1;
#X connect 10 0 11 0;
#X connect 11 0 15 0;
#X connect 13 0 14 0;
#X connect 15 0 13 0;
#X connect 16 0 72 0;
#X connect 16 1 19 0;
#X connect 17 0 89 0;
#X connect 18 0 17 1;
#X connect 19 0 17 0;
#X connect 20 0 8 0;
#X connect 20 0 44 0;
#X connect 21 0 22 0;
#X connect 22 0 23 0;
#X connect 23 0 40 0;
#X connect 24 0 9 0;
#X connect 25 0 27 0;
#X connect 27 0 38 1;
#X connect 28 0 29 0;
#X connect 29 0 25 0;
#X connect 30 0 31 0;
#X connect 31 0 24 0;
#X connect 32 0 33 0;
#X connect 33 0 36 0;
#X connect 34 0 35 0;
#X connect 35 0 38 0;
#X connect 36 0 34 0;
#X connect 37 0 43 0;
#X connect 38 0 37 1;
#X connect 40 0 41 0;
#X connect 41 0 42 0;
#X connect 42 0 20 1;
#X connect 46 0 26 0;
#X connect 46 0 37 0;
#X connect 47 0 46 0;
#X connect 48 0 20 0;
#X connect 51 0 50 1;
#X connect 52 0 57 0;
#X connect 54 0 56 0;
#X connect 56 0 52 0;
#X connect 58 0 57 1;
#X connect 60 0 61 0;
#X connect 61 0 62 0;
#X connect 62 0 63 0;
#X connect 63 0 64 0;
#X connect 64 0 74 0;
#X connect 65 0 67 0;
#X connect 66 0 52 1;
#X connect 67 0 66 0;
#X connect 67 0 66 1;
#X connect 68 0 69 0;
#X connect 69 0 65 0;
#X connect 73 0 72 1;
#X connect 75 0 74 1;
#X connect 77 0 95 0;
#X connect 78 0 79 0;
#X connect 79 0 82 0;
#X connect 79 0 81 0;
#X connect 80 0 77 0;
#X connect 81 0 80 0;
#X connect 82 0 77 0;
#X connect 85 0 97 0;
#X connect 88 0 50 0;
#X connect 89 0 16 0;
#X connect 92 0 93 0;
#X connect 94 0 60 0;
#X connect 96 0 95 1;
#X connect 98 0 97 1;
#X connect 100 0 101 0;
#X connect 101 0 88 0;
#X connect 102 0 100 0;
#X connect 103 0 100 0;
