#N canvas 66 32 1854 977 12;
#X declare -stdpath /home/mobin/Documents/Pd/internet-patches/MSP;
#X obj 130 206 tgl 20 0 empty empty empty 0 -10 0 12 #fcfcfc #000000 #000000 0 1;
#X obj 130 231 metro 1000;
#X obj 30 338 osc~ 440;
#X obj 30 378 *~;
#X obj 130 256 bng 20 250 50 0 empty empty empty 0 -10 0 12 #fcfcfc #000000 #000000;
#X obj 171 276 del 10;
#X msg 171 301 0 300;
#X msg 130 301 1 10;
#X obj 130 333 line~;
#X obj 130 358 *~;
#X obj 31 626 output~;
#X obj 75 556 output~;
#X obj 10 42 declare -stdpath /home/mobin/Documents/Pd/internet-patches/MSP, f 64;
#X text 550 5 DL: DELAY LINE;
#X obj 247 591 delwrite~ \$0-DL-1 10000;
#X obj 247 423 delread~ \$0-DL-1 500;
#X text 9 83 FEEDBACK LOOP: RECIRCULATING (LOOPING) DELAY LINE -------------------------------------------------;
#X obj 246 564 *~;
#X obj 538 443 hsl 30 20 0 90 0 0 empty empty |0-90|FEEDBACK-GAIN 36 10 0 12 #ff8300 #000000 #000000 0 1;
#X obj 535 468 / 100;
#X msg 535 516 \$1 30;
#X obj 535 543 line~;
#X floatatom 30 212 5 0 0 0 - - - 0;
#X obj 30 236 mtof;
#X floatatom 535 491 5 0 0 0 - - - 0;
#X obj 247 314 nbx 7 18 1.33 10000 0 0 empty empty |1.33-10000|DELAY-TIME[ms] 90 10 0 12 #ff8300 #000000 #000000 0 256;
#X text 27 172 ANALOGY FOR THIS IS A REVERB IN A PIPE-SHAPED ROOM;
#X text 341 218 WITH BLOCK SIZE OF 64 \, MINIMUM DELAY YOU CAN PUT IS ~1.45[ms] FOR SAMPLE RATE OF 44100[Hz] AND 1.33[ms] FOR SAMPLE RATE OF 48000[Hz]., f 30;
#X obj 247 479 *~;
#X obj 279 479 line~;
#X obj 247 337 t b f, f 13;
#X obj 247 393 f;
#X obj 247 364 del 40;
#X msg 322 453 0 40;
#X msg 279 453 1 40;
#X text 399 360 THIS PART IS JUST FOR NOT CLICK WHEN CHANGING DELAY TIME. COULD BE AVOIDED., f 13;
#X obj 240 785 delread4~ \$0-DL-1 500;
#X obj 240 709 nbx 7 18 1.33 10000 0 0 empty empty |1.33-10000|DELAY-TIME[ms] 90 10 0 12 #ff8300 #000000 #000000 0 256;
#X msg 240 732 \$1 1000;
#X obj 240 757 line~;
#X obj 240 810 output~;
#X text 240 667 DOPPLER EFFECT (COULD BE USED FOR VIBRATOR) -------------------------------------------, f 44;
#X text 923 49 OTHER APPLICATIONS OF DELAYS: \; - PITCH SHIFTING USING DOPPLER EFFECT \; - REVERBRATOR \;;
#X text 8 4 https://msp.ucsd.edu/syllabi/171.20w/movies/171-6a-feb11.mp4https://msp.ucsd.edu/syllabi/171.20w/movies/171-6b-feb13.mp4;
#X text 1390 16 - MAKE REALTIME UNITS FOR BASIC RECIRCULATING DELAYS \; --- CHECK ARCHIVED PATCHES \;;
#X connect 0 0 1 0;
#X connect 1 0 4 0;
#X connect 2 0 3 0;
#X connect 3 0 10 0;
#X connect 3 0 14 0;
#X connect 4 0 5 0;
#X connect 4 0 7 0;
#X connect 5 0 6 0;
#X connect 6 0 8 0;
#X connect 7 0 8 0;
#X connect 8 0 9 0;
#X connect 8 0 9 1;
#X connect 9 0 3 1;
#X connect 15 0 28 0;
#X connect 17 0 14 0;
#X connect 18 0 19 0;
#X connect 19 0 24 0;
#X connect 20 0 21 0;
#X connect 21 0 17 1;
#X connect 22 0 23 0;
#X connect 23 0 4 0;
#X connect 23 0 2 0;
#X connect 24 0 20 0;
#X connect 25 0 30 0;
#X connect 28 0 17 0;
#X connect 28 0 11 0;
#X connect 29 0 28 1;
#X connect 30 0 32 0;
#X connect 30 0 33 0;
#X connect 30 1 31 1;
#X connect 31 0 15 0;
#X connect 32 0 31 0;
#X connect 32 0 34 0;
#X connect 33 0 29 0;
#X connect 34 0 29 0;
#X connect 36 0 40 0;
#X connect 37 0 38 0;
#X connect 38 0 39 0;
#X connect 39 0 36 0;
