#N canvas 1920 0 1920 1009 12;
#X declare -stdpath /home/mobin/Documents/Pd/internet-patches/MSP;
#X declare -stdpath /usr/share/puredata/doc/3.audio.examples;
#X declare -stdpath /home/mobin/Documents/Pd/my-patches/extra;
#X obj 1804 186 tgl 20 0 empty empty empty 0 -10 0 12 #fcfcfc #000000 #000000 0 1;
#X obj 1804 211 metro 1000;
#X obj 1804 236 bng 20 250 50 0 empty empty empty 0 -10 0 12 #fcfcfc #000000 #000000;
#X obj 1845 256 del 10;
#X msg 1845 281 0 300;
#X msg 1804 281 1 10;
#X obj 1804 313 line~;
#X obj 1804 338 *~;
#X obj 447 429 delwrite~ \$0-DL-2 1000;
#X obj 470 361 delread~ \$0-DL-2;
#X obj 1610 213 bng 20 250 50 0 empty empty empty 0 -10 0 12 #fcfcfc #000000 #000000;
#X obj 1610 238 openpanel;
#X obj 1611 340 array define SAMPLE;
#X obj 1610 289 soundfiler;
#X floatatom 1610 314 5 0 0 0 - - - 0;
#X msg 1610 264 read -resize \$1 SAMPLE;
#X obj 1611 366 tabplay~ SAMPLE;
#X obj 1731 390 spigot;
#X obj 1783 389 tgl 20 0 empty empty empty 0 -10 0 12 #fcfcfc #000000 #000000 0 1;
#X obj 1731 367 bng 20 250 50 0 empty empty empty 0 -10 0 12 #fcfcfc #000000 #000000;
#X obj 341 409 +~;
#X obj 379 264 hsl 50 20 0 99 0 0 empty empty |0-99|FEEDBACK-GAIN -5 -10 0 12 #ff0400 #000000 #000000 0 1;
#X obj 376 289 / 100;
#X floatatom 376 312 5 0 0.9 0 - - - 0;
#X obj 470 335 nbx 7 18 1.33 10000 0 0 empty empty |1.33-10000|DELAY-TIME[ms] 0 -10 0 12 #ff8300 #000000 #000000 0 256;
#X obj 129 390 nbx 7 18 1.33 10000 0 0 empty empty |1.33-10000|DELAY-TIME[ms] 0 -10 0 12 #ff8300 #000000 #000000 0 256;
#X obj 128 263 delwrite~ \$0-DL-1 1000;
#X obj 129 416 delread~ \$0-DL-1;
#X obj 129 328 loadbang;
#X msg 129 351 10;
#X obj 470 267 loadbang;
#X msg 470 292 10;
#X obj 36 320 hsl 30 20 0 100 0 0 empty empty |0-100|FEEDFORWARD-GAIN -5 -10 0 12 #ff8300 #000000 #000000 0 1;
#X obj 33 345 / 100;
#X msg 33 393 \$1 30;
#X obj 33 420 line~;
#X floatatom 33 368 5 0 0.9 0 - - - 0;
#X obj 10 461 +~;
#X obj 89 440 *~, f 6;
#X obj 6 29 declare -stdpath /home/mobin/Documents/Pd/internet-patches/MSP, f 64;
#X msg 376 339 \$1 30;
#X obj 376 366 line~;
#X obj 376 390 *~, f 14;
#X obj 10 494 s~ \$0-FFD-OUT;
#X obj 341 477 s~ \$0-FBD-OUT;
#X text 6 60 - DL: DELAY LINE \; - SOUND TRAVERSE ABOUT A FOOT EVERY MILLISECOND \; - NEITHER FFW NOR FB DELAY ADD NO NEW FREQUENCIES TO THE SYSTEM(SOUND). DELAY IS ALL ABOUT INTERFERENCE \; - DELAY OF X[ms] <=====> DELAY OF N = (SAMPLERATE/1000)*X [SAMPLES] \;, f 72;
#X obj 11 243 +~ 0;
#X obj 11 184 r~ \$0-FFD-IN;
#X obj 341 188 r~ \$0-FBD-IN;
#X text 9 148 FEEDFORWARD DELAY SYSTEM: NON-CIRCULATING COMB FILTER, f 28;
#X obj 1813 540 *~;
#X obj 1844 540 tgl 20 0 empty empty empty 0 -10 0 12 #fcfcfc #000000 #000000 0 1;
#X obj 1681 719 *~;
#X obj 6 7 declare -stdpath /usr/share/puredata/doc/3.audio.examples;
#X floatatom 1681 662 5 0 0 0 - - - 0;
#X obj 12 534 r~ \$0-FFD-OUT;
#X obj 1681 690 osc~;
#X obj 1682 750 *~;
#X obj 1713 750 tgl 20 0 empty empty empty 0 -10 0 12 #fcfcfc #000000 #000000 0 1;
#X text 339 149 FEEDBACK DELAY SYSTEM: RE-CIRCULATING COMB FILTER, f 26;
#X obj 1659 38 line;
#X floatatom 1659 63 5 0 0 0 - - - 0;
#X obj 1659 85 int;
#X floatatom 1659 113 5 0 0 0 - - - 0;
#X obj 1659 137 tabread~ \$0-IMPULSE;
#X msg 1725 651 1;
#X obj 1725 700 *~;
#X obj 1725 675 adsr 1 100 1000 0 0;
#X obj 1725 604 tgl 20 0 empty empty empty 0 -10 0 12 #fcfcfc #000000 #000000 0 1;
#X obj 1725 627 metro 1000;
#X obj 113 534 r~ \$0-FBD-OUT;
#X obj 775 517 s~ \$0-FFD-IN;
#X text 1384 10 HOW TO MAKE A PROPER IMPULSE IN PD? -----------------------------------;
#X obj 1610 400 *~;
#X obj 1641 400 tgl 20 0 empty empty empty 0 -10 0 12 #fcfcfc #000000 #000000 0 1;
#X obj 1660 165 *~;
#X obj 1691 165 tgl 20 0 empty empty empty 0 -10 0 12 #fcfcfc #000000 #000000 0 1;
#X obj 874 517 s~ \$0-FBD-IN;
#X text 965 8 ADD PICTURES TO PD (ELSE EXTERNAL);
#X obj 1608 557 sig~;
#X obj 1608 452 tgl 20 0 empty empty empty 0 -10 0 12 #fcfcfc #000000 #000000 0 1;
#X obj 1608 475 metro 1000;
#X msg 1644 525 0;
#X obj 1644 503 del 10;
#X msg 1608 525 0.9;
#X obj 414 7 declare -stdpath /home/mobin/Documents/Pd/my-patches/extra, f 64;
#X obj 8 598 4096.spectrum~;
#X obj 1812 436 noise~;
#X obj 582 57 output~;
#X obj 702 57 output~;
#X obj 1814 505 osc~ 400;
#X obj 1588 366 bng 20 250 50 0 empty empty empty 0 -10 0 12 #fcfcfc #000000 #000000;
#X obj 1712 61 loadbang;
#X obj 1712 39 array define \$0-IMPULSE 100;
#X msg 1712 84 0 1;
#X obj 1712 109 s \$0-IMPULSE;
#X msg 1659 12 0 \, 99 1000;
#X obj 1609 584 *~;
#X obj 1640 584 tgl 20 0 empty empty empty 0 -10 0 12 #fcfcfc #000000 #000000 0 1;
#X obj 1811 462 *~;
#X obj 1842 462 tgl 20 0 empty empty empty 0 -10 0 12 #fcfcfc #000000 #000000 0 1;
#X obj 1052 435 *~, f 4;
#X obj 1165 413 line~;
#X floatatom 1126 185 7 0 0 0 - - - 0;
#X obj 1154 301 bng 50 250 50 0 empty empty empty 0 -15 0 10 #ff0400 #ff0400 #ff0400;
#X msg 1233 376 0 500;
#N canvas 547 261 333 273 read_wav 0;
#X obj 21 60 soundfiler;
#X floatatom 196 97 8 0 0 0 - - - 0;
#X listbox 22 98 20 0 0 0 - - - 0;
#X obj 196 127 expr $f1 - 3;
#X obj 50 124 unpack f;
#X floatatom 50 153 7 0 0 0 - - - 0;
#X obj 47 182 expr 1/($f1/$f2);
#X obj 21 24 inlet;
#X obj 197 184 outlet;
#X obj 47 218 outlet;
#X connect 0 0 1 0;
#X connect 0 1 2 0;
#X connect 1 0 3 0;
#X connect 1 0 6 0;
#X connect 2 0 4 0;
#X connect 3 0 8 0;
#X connect 4 0 5 0;
#X connect 5 0 6 1;
#X connect 6 0 9 0;
#X connect 7 0 0 0;
#X coords 0 273 1 272 500 200 0;
#X restore 1052 142 pd read_wav;
#X floatatom 1052 186 5 0 0 0 - - - 0;
#N canvas 0 50 450 250 (subpatch) 0;
#X array wavetable 1943 float 4;
#A color 0;
#A width 1;
#X coords 0 1 1942 -1 250 125 1 0 0;
#X restore 1271 82 graph;
#N canvas 338 255 1265 657 read_table 0;
#X obj 23 163 phasor~;
#X obj 332 181 phasor~;
#X floatatom 400 214 5 0 1 0 - phi-1 - 0;
#X obj 332 208 +~;
#X obj 331 233 wrap~;
#X obj 65 409 +~;
#X obj 21 287 +~ 1;
#X obj 22 252 *~ \$1;
#X obj 22 314 tabread4~ wavetable;
#X obj 330 353 tabread4~ wavetable;
#X obj 330 324 +~ 1;
#X obj 330 293 *~ \$1;
#X obj 618 198 phasor~;
#X floatatom 685 229 5 0 1 0 - phi-2 - 0;
#X obj 618 225 +~;
#X obj 617 250 wrap~;
#X obj 616 370 tabread4~ wavetable;
#X obj 616 341 +~ 1;
#X obj 616 310 *~ \$1;
#X obj 922 209 phasor~;
#X floatatom 989 240 5 0 1 0 - phi-3 - 0;
#X obj 922 236 +~;
#X obj 921 261 wrap~;
#X obj 920 407 tabread4~ wavetable;
#X obj 920 378 +~ 1;
#X obj 920 347 *~ \$1;
#X obj 64 445 +~;
#X obj 562 459 +~;
#X msg 929 127 0;
#X obj 65 485 outlet~;
#X msg 727 65 \; phi-1 0.25 \; phi-2 0.5 \; phi-3 0.75 \;;
#X text 792 576 Since wavetable is faded In/Out in audacity \, need to have at least a second phasor with 0.5 phase to avoid high and lows Here added more at 0.25 - 0.5 - 0.75;
#X obj 254 365 tgl 20 0 empty tgl-1 empty 0 -10 0 12 #fcfcfc #000000 #000000 0 1;
#X obj 254 388 f;
#X obj 254 411 *~;
#X obj 537 371 tgl 20 0 empty tgl-2 empty 0 -10 0 12 #fcfcfc #000000 #000000 0 1;
#X obj 537 394 f;
#X obj 537 417 *~;
#X obj 852 401 tgl 20 0 empty tgl-3 empty 0 -10 0 12 #fcfcfc #000000 #000000 0 1;
#X obj 852 424 f;
#X obj 852 447 *~;
#X msg 634 65 \; tgl-1 1 \; tgl-2 1 \; tgl-3 1 \;;
#N canvas 0 50 450 250 (subpatch) 0;
#X array cosine 131 float 3;
#A 0 0.998795 1 0.998795 0.995185 0.989177 0.980785 0.970031 0.95694 0.941544 0.92388 0.903989 0.881921 0.857729 0.83147 0.803208 0.773011 0.740952 0.707107 0.671559 0.634394 0.5957 0.555571 0.514103 0.471398 0.427556 0.382684 0.336891 0.290286 0.242981 0.195091 0.146732 0.0980184 0.049069 1.32679e-06 -0.0490663 -0.0980157 -0.146729 -0.195089 -0.242979 -0.290283 -0.336888 -0.382682 -0.427554 -0.471395 -0.514101 -0.555569 -0.595698 -0.634392 -0.671557 -0.707105 -0.74095 -0.773009 -0.803206 -0.831468 -0.857727 -0.88192 -0.903988 -0.923879 -0.941543 -0.95694 -0.970031 -0.980785 -0.989176 -0.995184 -0.998795 -1 -0.998796 -0.995185 -0.989177 -0.980786 -0.970032 -0.956941 -0.941545 -0.923881 -0.903991 -0.881923 -0.85773 -0.831471 -0.803209 -0.773013 -0.740953 -0.707109 -0.671561 -0.634396 -0.595702 -0.555573 -0.514106 -0.4714 -0.427558 -0.382687 -0.336893 -0.290288 -0.242984 -0.195094 -0.146734 -0.098021 -0.0490716 -3.98038e-06 0.0490637 0.0980131 0.146726 0.195086 0.242976 0.290281 0.336886 0.382679 0.427551 0.471393 0.514099 0.555566 0.595696 0.63439 0.671556 0.707103 0.740948 0.773007 0.803205 0.831467 0.857726 0.881919 0.903987 0.923878 0.941542 0.956939 0.97003 0.980784 0.989176 0.995184 0.998795 1 0.998796;
#A color 0;
#A width 2;
#X coords 0 1 131 -1 200 140 1 0 0;
#X restore 1047 18 graph;
#X msg 1049 164 \; cosine cosinesum 128 0 1 \;;
#X obj 175 240 *~ 64;
#X obj 175 265 +~ 33;
#X obj 175 290 tabread4~ cosine;
#X obj 175 315 *~ -1;
#X obj 39 369 *~;
#X obj 475 253 *~ 64;
#X obj 475 278 +~ 33;
#X obj 475 303 tabread4~ cosine;
#X obj 475 328 *~ -1;
#X obj 330 395 *~;
#X obj 765 280 *~ 64;
#X obj 765 305 +~ 33;
#X obj 765 330 tabread4~ cosine;
#X obj 765 355 *~ -1;
#X obj 635 416 *~;
#X obj 1059 293 *~ 64;
#X obj 1059 318 +~ 33;
#X obj 1059 343 tabread4~ cosine;
#X obj 1059 368 *~ -1;
#X obj 967 450 *~;
#X obj 23 49 inlet;
#X obj 394 25 inlet;
#X text 21 27 phasor-freq;
#X text 390 2 phasor-range;
#X obj 662 21 t b b b;
#X connect 0 0 7 0;
#X connect 0 0 44 0;
#X connect 1 0 3 0;
#X connect 2 0 3 1;
#X connect 3 0 4 0;
#X connect 4 0 11 0;
#X connect 4 0 49 0;
#X connect 5 0 26 0;
#X connect 6 0 8 0;
#X connect 7 0 6 0;
#X connect 8 0 48 0;
#X connect 9 0 53 0;
#X connect 10 0 9 0;
#X connect 11 0 10 0;
#X connect 12 0 14 0;
#X connect 13 0 14 1;
#X connect 14 0 15 0;
#X connect 15 0 18 0;
#X connect 15 0 54 0;
#X connect 16 0 58 0;
#X connect 17 0 16 0;
#X connect 18 0 17 0;
#X connect 19 0 21 0;
#X connect 20 0 21 1;
#X connect 21 0 22 0;
#X connect 22 0 25 0;
#X connect 22 0 59 0;
#X connect 23 0 63 0;
#X connect 24 0 23 0;
#X connect 25 0 24 0;
#X connect 26 0 29 0;
#X connect 27 0 26 1;
#X connect 28 0 0 1;
#X connect 28 0 19 1;
#X connect 28 0 12 1;
#X connect 28 0 1 1;
#X connect 32 0 33 0;
#X connect 33 0 34 0;
#X connect 34 0 5 1;
#X connect 35 0 36 0;
#X connect 36 0 37 0;
#X connect 37 0 27 0;
#X connect 38 0 39 0;
#X connect 39 0 40 0;
#X connect 40 0 27 1;
#X connect 44 0 45 0;
#X connect 45 0 46 0;
#X connect 46 0 47 0;
#X connect 47 0 48 1;
#X connect 48 0 5 0;
#X connect 49 0 50 0;
#X connect 50 0 51 0;
#X connect 51 0 52 0;
#X connect 52 0 53 1;
#X connect 53 0 34 1;
#X connect 54 0 55 0;
#X connect 55 0 56 0;
#X connect 56 0 57 0;
#X connect 57 0 58 1;
#X connect 58 0 37 1;
#X connect 59 0 60 0;
#X connect 60 0 61 0;
#X connect 61 0 62 0;
#X connect 62 0 63 1;
#X connect 63 0 40 1;
#X connect 64 0 0 0;
#X connect 64 0 1 0;
#X connect 64 0 12 0;
#X connect 64 0 19 0;
#X connect 65 0 7 1;
#X connect 65 0 11 1;
#X connect 65 0 18 1;
#X connect 65 0 25 1;
#X connect 65 0 68 0;
#X connect 68 0 28 0;
#X connect 68 1 30 0;
#X connect 68 2 41 0;
#X restore 1052 262 pd read_table;
#X obj 1052 87 openpanel;
#X obj 1052 61 bng 20 250 50 0 empty empty empty 0 -10 0 12 #fcfcfc #000000 #000000;
#X msg 1052 112 read -resize \$1 wavetable;
#X obj 1105 433 *~;
#X text 1134 162 range;
#X text 1059 167 freq;
#X obj 1051 313 *~ 0.7;
#X obj 1062 224 s phasor-freq;
#X obj 1174 227 s phasor-range;
#X msg 1156 361 1 50;
#X obj 1233 352 del 200;
#X text 609 193 MAKE A GOOD WAVETABLE SYNTHESIZE BEFORE \, MOVING ON \; JUST SIMPLE SYNTHESIZER NOT WAVE-LAB \;;
#X text 1065 593 NOTE: NO NEW FREQEUNCY WILL BE ADDED NEITER IN CASE OF FEEDFORWARD NOR FEEDBACK DELAY..., f 23;
#X msg 1088 485 1;
#X connect 0 0 1 0;
#X connect 1 0 2 0;
#X connect 2 0 3 0;
#X connect 2 0 5 0;
#X connect 3 0 4 0;
#X connect 4 0 6 0;
#X connect 5 0 6 0;
#X connect 6 0 7 0;
#X connect 6 0 7 1;
#X connect 9 0 42 1;
#X connect 10 0 11 0;
#X connect 11 0 15 0;
#X connect 13 0 14 0;
#X connect 15 0 13 0;
#X connect 16 0 73 0;
#X connect 16 1 19 0;
#X connect 17 0 91 0;
#X connect 18 0 17 1;
#X connect 19 0 17 0;
#X connect 20 0 8 0;
#X connect 20 0 44 0;
#X connect 21 0 22 0;
#X connect 22 0 23 0;
#X connect 23 0 40 0;
#X connect 24 0 9 0;
#X connect 25 0 27 0;
#X connect 27 0 38 1;
#X connect 28 0 29 0;
#X connect 29 0 25 0;
#X connect 30 0 31 0;
#X connect 31 0 24 0;
#X connect 32 0 33 0;
#X connect 33 0 36 0;
#X connect 34 0 35 0;
#X connect 35 0 38 0;
#X connect 36 0 34 0;
#X connect 37 0 43 0;
#X connect 38 0 37 1;
#X connect 40 0 41 0;
#X connect 41 0 42 0;
#X connect 42 0 20 1;
#X connect 46 0 26 0;
#X connect 46 0 37 0;
#X connect 47 0 46 0;
#X connect 48 0 20 0;
#X connect 51 0 50 1;
#X connect 52 0 57 0;
#X connect 54 0 56 0;
#X connect 55 0 86 0;
#X connect 56 0 52 0;
#X connect 58 0 57 1;
#X connect 60 0 61 0;
#X connect 61 0 62 0;
#X connect 62 0 63 0;
#X connect 63 0 64 0;
#X connect 64 0 75 0;
#X connect 65 0 67 0;
#X connect 66 0 52 1;
#X connect 67 0 66 0;
#X connect 67 0 66 1;
#X connect 68 0 69 0;
#X connect 69 0 65 0;
#X connect 74 0 73 1;
#X connect 76 0 75 1;
#X connect 79 0 97 0;
#X connect 80 0 81 0;
#X connect 81 0 84 0;
#X connect 81 0 83 0;
#X connect 82 0 79 0;
#X connect 83 0 82 0;
#X connect 84 0 79 0;
#X connect 87 0 99 0;
#X connect 90 0 50 0;
#X connect 91 0 16 0;
#X connect 94 0 95 0;
#X connect 96 0 60 0;
#X connect 98 0 97 1;
#X connect 100 0 99 1;
#X connect 101 0 86 1;
#X connect 101 0 71 0;
#X connect 102 0 113 0;
#X connect 102 0 113 1;
#X connect 103 0 109 1;
#X connect 103 0 118 0;
#X connect 104 0 119 0;
#X connect 104 0 120 0;
#X connect 105 0 102 0;
#X connect 106 0 107 0;
#X connect 106 1 103 0;
#X connect 107 0 109 0;
#X connect 107 0 117 0;
#X connect 109 0 116 0;
#X connect 110 0 112 0;
#X connect 111 0 110 0;
#X connect 112 0 106 0;
#X connect 116 0 101 0;
#X connect 119 0 102 0;
#X connect 120 0 105 0;
#X connect 123 0 101 1;
