#N struct line-label float x float y float z symbol label;
#N canvas 66 32 1854 977 12;
#X declare -stdpath /home/mobin/Documents/Pd/internet-patches/MSP;
#X text 8 4 https://msp.ucsd.edu/syllabi/171.20w/movies/171-6a-feb11.mp4;
#X obj 129 159 tgl 20 0 empty empty empty 0 -10 0 12 #fcfcfc #000000 #000000 0 1;
#X obj 129 184 metro 1000;
#X obj 29 291 osc~ 440;
#X obj 29 331 *~;
#X obj 129 209 bng 20 250 50 0 empty empty empty 0 -10 0 12 #fcfcfc #000000 #000000;
#X obj 170 229 del 10;
#X msg 170 254 0 300;
#X msg 129 254 1 10;
#X obj 129 286 line~;
#X obj 129 311 *~;
#X obj 29 448 output~;
#X obj 174 448 output~;
#X text 17 69 THINK OF "delread~" AS A POINTER TO THAT IS X[ms] LAGGED COMPARED TO "delwrite~". SO WHATEVER IS WRITTEN IN DELAY-1 \, "delread~" READS IT WITH x[ms] IN DELAY., f 40;
#X obj 1060 111 bng 20 250 50 0 empty empty empty 0 -10 0 12 #fcfcfc #000000 #000000;
#X obj 1060 136 openpanel;
#X obj 1061 238 array define SAMPLE;
#X obj 1060 187 soundfiler;
#X floatatom 1060 212 5 0 0 0 - - - 0;
#X msg 1060 162 read -resize \$1 SAMPLE;
#X obj 460 293 output~;
#X obj 607 293 output~;
#X obj 1061 277 tabplay~ SAMPLE;
#X obj 1181 301 spigot;
#X obj 1233 300 tgl 20 0 empty empty empty 0 -10 0 12 #fcfcfc #000000 #000000 0 1;
#X obj 1181 278 bng 20 250 50 0 empty empty empty 0 -10 0 12 #fcfcfc #000000 #000000;
#X obj 1062 407 output~;
#X obj 1184 407 output~;
#X floatatom 606 240 5 0 0 0 - - - 0;
#X obj 461 196 osc~ 100;
#X text 458 174 100 CYC/SEC == 1 CYCLE/10[ms];
#X text 455 85 THE OSC GOES 1 CYCLE EACH 10 MILISECOND. NOW IF DELAY IS OF 10 MS \, THIS IS CONSTRUCTIVE SINCE THE PHASES MATCH UP. BUT OIF DELAY IS 5 MS \, THIS WILL BE DESTRUCTIVE INTERFERENCE. OPPOSITE PHASES CANCEL OUT AND SO OUTPUT WILL BE 0;
#X obj 448 609 output~;
#X obj 595 609 output~;
#X floatatom 594 556 5 0 0 0 - - - 0;
#X obj 449 512 noise~;
#X text 448 418 FOR NOISE (CONTAINING RANDOM VALUES AT ALL RANGE OF FREQUENCY BINS) \, A DELAY READ OF 2[ms] WILL DESTRUCT THE FREQUENCY COMPONENTS AT 250[Hz] (= 0.5 CYCLE/2[ms]) \, 750[Hz] (= 1.5 CYCLE/2[ms]) AND SO ON. AND IT WILL BE CONSTRUCTIVE AT 500[Hz] (= 1 CYCLE/2[ms]) \, 1000[Hz] \, ...;
#X text 751 581 DOING THIS IS BASICALLY FILETRINT THE NOISE AT CERATIN FREQUENCIES/ THIS IS KNOWN AS "COMB FILTERING";
#X text 1054 78 JUST TO SEE WITH A REAL SAMPLE;
#X obj 10 25 declare -stdpath /home/mobin/Documents/Pd/internet-patches/MSP, f 64;
#X obj 448 687 spectrum~;
#X obj 174 350 delwrite~ DL-1 10000;
#X obj 175 401 delread~ DL-1 0;
#X obj 606 216 delwrite~ DL-2 10000;
#X obj 606 265 delread~ DL-2 10;
#X obj 594 581 delread~ DL-3 2;
#X obj 594 532 delwrite~ DL-3 10000;
#X obj 1183 343 delwrite~ DL-4 10000;
#X obj 1184 375 delread~ DL-4 30;
#X text 550 5 DL: DELAY LINE;
#X connect 1 0 2 0;
#X connect 2 0 5 0;
#X connect 3 0 4 0;
#X connect 4 0 11 0;
#X connect 4 0 41 0;
#X connect 5 0 6 0;
#X connect 5 0 8 0;
#X connect 6 0 7 0;
#X connect 7 0 9 0;
#X connect 8 0 9 0;
#X connect 9 0 10 0;
#X connect 9 0 10 1;
#X connect 10 0 4 1;
#X connect 14 0 15 0;
#X connect 15 0 19 0;
#X connect 17 0 18 0;
#X connect 19 0 17 0;
#X connect 22 0 26 0;
#X connect 22 0 47 0;
#X connect 22 1 25 0;
#X connect 23 0 22 0;
#X connect 24 0 23 1;
#X connect 25 0 23 0;
#X connect 28 0 44 0;
#X connect 29 0 20 0;
#X connect 29 0 43 0;
#X connect 34 0 45 0;
#X connect 35 0 32 0;
#X connect 35 0 40 0;
#X connect 35 0 46 0;
#X connect 42 0 12 0;
#X connect 44 0 21 0;
#X connect 45 0 33 0;
#X connect 45 0 40 0;
#X connect 48 0 27 0;
