#N canvas 66 32 1854 977 12;
#X declare -path my-patches/live/sound-source;
#N canvas 1906 -12 1854 977 SAMPLE 0;
#N canvas 151 119 450 250 (subpatch) 0;
#X array \$0-SAMPLE 16069 float 2;
#A color 0;
#A width 2;
#X coords 0 1 16069 -1 1500 180 1;
#X restore 109 122 graph;
#X obj 110 122 cnv 1 3 180 \$0-CURSOR-1 \$0-i-CURSOR-1 empty 20 12 0 12 #ff0400 #404040 0;
#X obj 110 122 cnv 1 3 180 \$0-CURSOR-2 \$0-i-CURSOR-2 empty 20 12 0 12 #ff0400 #404040 0;
#N canvas 882 254 481 375 (subpatch) 0;
#X obj 103 102 bng 20 250 50 0 empty empty NORMALIZE 23 10 0 12 #00faff #000000 #000000;
#X obj 103 133 f \$0;
#X msg 103 156 \; \$1-SAMPLE normalize;
#X connect 0 0 1 0;
#X connect 1 0 2 0;
#X coords 0 -1 1 1 95 24 2 100 100;
#X restore 1273 305 pd;
#N canvas 300 597 1282 431 CURSOR 0;
#X obj 381 94 /, f 10;
#X floatatom 381 119 7 0 0 1 SAMPLE-X-PIXEL - - 0;
#X obj 381 44 t b f, f 10;
#X obj 113 265 s \$0-i-CURSOR-2;
#X obj 33 240 s \$0-i-CURSOR-1;
#X floatatom 33 43 5 0 0 0 - - - 0;
#X floatatom 112 80 9 0 0 0 - - - 0;
#X obj 33 138 *;
#X obj 112 138 *;
#X msg 33 212 pos \$1 \$2;
#X msg 112 212 pos \$1 \$2;
#X obj 381 20 r \$0-SAMPLE-SIZE;
#X msg 769 20 get_pos;
#X obj 769 45 s \$0-i-CURSOR-1;
#X obj 770 70 r \$0-CURSOR-1;
#X obj 770 95 unpack f f;
#X floatatom 770 120 5 0 0 0 - - - 0;
#X floatatom 837 120 5 0 0 0 - - - 0;
#X text 417 69 \$0-SAMPLE SIZE(X);
#X msg 363 268 pos \$1 \$2;
#X obj 363 194 *;
#X msg 561 268 pos \$1 \$2;
#X obj 561 194 *;
#X obj 945 140 s \$0-i-CURSOR-2;
#X obj 945 118 s \$0-i-CURSOR-1;
#X msg 945 77 size \$1;
#X msg 945 37 1;
#X msg 987 37 20;
#X obj 33 18 r \$0-START-INDEX;
#X obj 112 52 r \$0-END-INDEX;
#X msg 381 69 1500;
#X obj 112 161 + 110;
#X obj 33 160 + 110;
#X obj 363 218 + 110;
#X obj 561 218 + 110;
#X obj 232 77 r \$0-LOOP-INDEX;
#X obj 232 138 *;
#X msg 232 212 pos \$1 \$2;
#X obj 232 161 + 110;
#X obj 232 266 s \$0-i-CURSOR-3;
#X floatatom 232 102 5 0 0 0 - - - 0;
#X obj 945 176 s \$0-i-CURSOR-3;
#X obj 945 244 s \$0-i-LINE-CURSOR-1;
#X obj 363 291 s \$0-i-LINE-CURSOR-1;
#X obj 561 291 s \$0-i-LINE-CURSOR-LOOP-1;
#X msg 747 267 pos \$1 \$2;
#X obj 747 193 *;
#X obj 747 217 + 110;
#X obj 747 290 s \$0-i-LINE-CURSOR-LOOP-2;
#X obj 561 169 r \$0-LINE-CURSOR-LOOP-1;
#X obj 747 168 r \$0-LINE-CURSOR-LOOP-2;
#X obj 945 266 s \$0-i-LINE-CURSOR-LOOP-1;
#X obj 946 289 s \$0-i-LINE-CURSOR-LOOP-2;
#X msg 1142 224 vis_size \$1 \$2;
#X obj 1142 201 pack 1 180;
#X obj 1142 51 bng 20 250 50 0 empty empty empty 0 -10 0 12 #fcfcfc #000000 #000000;
#X msg 1142 98 vis_size \$1 \$2;
#X msg 1142 156 vis_size \$1 \$2;
#X obj 1142 134 pack 2 180;
#X obj 1142 76 pack 3 180;
#X obj 33 187 pack f 122;
#X obj 112 187 pack f 122;
#X obj 232 187 pack f 122;
#X obj 363 243 pack f 122;
#X obj 561 243 pack f 122;
#X obj 747 242 pack f 122;
#X obj 363 169 r \$0-LINE-CURSOR-TRIGGER;
#X floatatom 803 362 5 0 0 0 - - - 0;
#X floatatom 662 376 5 0 0 0 - - - 0;
#X connect 0 0 1 0;
#X connect 1 0 7 1;
#X connect 1 0 8 1;
#X connect 1 0 20 1;
#X connect 1 0 22 1;
#X connect 1 0 36 1;
#X connect 1 0 46 1;
#X connect 2 0 30 0;
#X connect 2 1 0 1;
#X connect 5 0 7 0;
#X connect 6 0 8 0;
#X connect 7 0 32 0;
#X connect 8 0 31 0;
#X connect 9 0 4 0;
#X connect 10 0 3 0;
#X connect 11 0 2 0;
#X connect 12 0 13 0;
#X connect 14 0 15 0;
#X connect 15 0 16 0;
#X connect 15 1 17 0;
#X connect 19 0 43 0;
#X connect 20 0 33 0;
#X connect 21 0 44 0;
#X connect 22 0 34 0;
#X connect 25 0 24 0;
#X connect 25 0 23 0;
#X connect 25 0 41 0;
#X connect 25 0 42 0;
#X connect 25 0 51 0;
#X connect 25 0 52 0;
#X connect 26 0 25 0;
#X connect 27 0 25 0;
#X connect 28 0 5 0;
#X connect 29 0 6 0;
#X connect 30 0 0 0;
#X connect 31 0 61 0;
#X connect 32 0 60 0;
#X connect 33 0 63 0;
#X connect 34 0 64 0;
#X connect 35 0 40 0;
#X connect 36 0 38 0;
#X connect 37 0 39 0;
#X connect 38 0 62 0;
#X connect 40 0 36 0;
#X connect 45 0 48 0;
#X connect 46 0 47 0;
#X connect 47 0 65 0;
#X connect 49 0 22 0;
#X connect 49 0 68 0;
#X connect 50 0 46 0;
#X connect 50 0 67 0;
#X connect 53 0 52 0;
#X connect 53 0 51 0;
#X connect 53 0 42 0;
#X connect 54 0 53 0;
#X connect 55 0 54 0;
#X connect 55 0 58 0;
#X connect 55 0 59 0;
#X connect 56 0 24 0;
#X connect 56 0 23 0;
#X connect 57 0 41 0;
#X connect 58 0 57 0;
#X connect 59 0 56 0;
#X connect 60 0 9 0;
#X connect 61 0 10 0;
#X connect 62 0 37 0;
#X connect 63 0 19 0;
#X connect 64 0 21 0;
#X connect 65 0 45 0;
#X connect 66 0 20 0;
#X restore 101 339 pd CURSOR;
#N canvas 498 156 912 516 CHOP-TO-FOCUS 0;
#X obj 437 187 f;
#X obj 103 102 bng 20 250 50 0 empty empty CHOP|FOCUS 23 10 0 12 #ff8300 #000000 #000000;
#X obj 517 208 array size \$0-SAMPLE-BUFFER;
#X obj 437 294 array define \$0-SAMPLE-BUFFER;
#X f 55;
#X obj 437 265 array set \$0-SAMPLE-BUFFER 0;
#X obj 455 129 r \$0-START-INDEX;
#X obj 103 138 t b b b b b, f 36;
#X obj 502 181 r \$0-LENGTH;
#X obj 501 158 s \$0-i-LENGTH;
#X obj 227 184 del 200;
#X obj 165 262 del 400;
#X msg 165 290 0;
#X obj 103 394 f;
#X obj 103 368 del 600;
#X obj 103 418 s \$0-SAMPLE-SIZE-CHOPPED;
#X text 281 419 NEW SAMPLE SIZE->GOES TO LOAD-SAMPLE MODULE;
#X obj 165 314 array get \$0-SAMPLE-BUFFER;
#X obj 289 167 del 100;
#X obj 437 241 array get \$0-SAMPLE;
#X obj 258 207 r \$0-LENGTH;
#X obj 227 207 f;
#X obj 254 291 r \$0-LENGTH;
#X obj 165 338 array set \$0-SAMPLE 0;
#X obj 135 394 r \$0-LENGTH;
#X text 601 159 TO RESEND THE CURRENT LENGTH;
#X obj 227 231 array size \$0-SAMPLE;
#X connect 0 0 18 0;
#X connect 1 0 6 0;
#X connect 5 0 0 1;
#X connect 6 0 13 0;
#X connect 6 1 10 0;
#X connect 6 2 9 0;
#X connect 6 3 17 0;
#X connect 6 4 8 0;
#X connect 7 0 2 0;
#X connect 7 0 18 1;
#X connect 9 0 20 0;
#X connect 10 0 11 0;
#X connect 11 0 16 0;
#X connect 12 0 14 0;
#X connect 13 0 12 0;
#X connect 16 0 22 0;
#X connect 17 0 0 0;
#X connect 18 0 4 0;
#X connect 19 0 20 1;
#X connect 20 0 25 0;
#X connect 21 0 16 1;
#X connect 23 0 12 1;
#X coords 0 -1 1 1 100 24 2 100 100;
#X restore 1372 305 pd CHOP-TO-FOCUS;
#N canvas 2013 222 874 551 LOAD-SAMPLE 0;
#X obj 185 176 openpanel;
#X obj 185 252 soundfiler, f 33;
#X listbox 563 272 20 0 0 0 - - - 0;
#X obj 185 201 pack s \$0;
#X obj 185 103 bng 19 250 50 0 empty empty empty 0 -10 0 12 #fcfcfc #000000 #000000;
#X listbox 207 103 35 0 0 0 - \$0-i-SAMPLE-LOC \$0-SAMPLE-LOC 12;
#X text 101 103 LOAD SAMPLE;
#X msg 185 131 symbol /home/mobin/Documents/Sounds, f 29;
#X floatatom 465 103 8 0 0 1 SIZE - - 0;
#X obj 563 298 unpack f;
#X obj 563 325 s \$0-RECORDED-SR;
#X floatatom 563 103 6 0 0 1 SR - - 0;
#X obj 345 337 s \$0-SAMPLE-SIZE;
#X obj 185 372 bng 20 250 50 0 empty empty empty 0 -10 0 12 #fcfcfc #000000 #000000;
#X obj 185 397 s \$0-SAMPLE-LOADED;
#X floatatom 185 318 8 0 0 1 SAMPLE-SIZE - - 0;
#X obj 198 284 r \$0-SAMPLE-SIZE-CHOPPED;
#X floatatom 631 103 7 0 0 1 [ms] - - 0;
#X obj 440 222 s \$0-i-SAMPLE-LOC;
#N canvas 981 425 573 338 PATH-TRIM 0;
#X listbox 207 136 28 0 0 0 - - - 0;
#X symbolatom 207 89 39 0 0 0 - - - 0;
#X obj 207 112 list fromsymbol;
#X obj 252 183 list tosymbol;
#X symbolatom 252 207 35 0 0 0 - - - 0;
#X obj 77 226 list append;
#X obj 77 60 t b s, f 19;
#X obj 77 126 list tosymbol;
#X symbolatom 77 150 7 0 0 0 - - - 0;
#X msg 77 102 46 46 46;
#X obj 208 158 list split 28;
#X obj 77 25 inlet;
#X obj 77 258 outlet;
#X connect 0 0 10 0;
#X connect 1 0 2 0;
#X connect 2 0 0 0;
#X connect 3 0 4 0;
#X connect 4 0 5 1;
#X connect 5 0 12 0;
#X connect 6 0 9 0;
#X connect 6 1 1 0;
#X connect 7 0 8 0;
#X connect 8 0 5 0;
#X connect 9 0 7 0;
#X connect 10 1 3 0;
#X connect 11 0 6 0;
#X restore 440 196 pd PATH-TRIM;
#X msg 185 228 read -resize \$1 \$2-SAMPLE;
#X floatatom 718 103 7 0 0 1 [Hz] - - 0;
#N canvas 2703 327 450 300 CALCULATION 0;
#X obj 29 88 /, f 7;
#X obj 43 40 t b f;
#X obj 159 20 r \$0-RECORDED-SR;
#X obj 29 64 f;
#X obj 29 113 * 1000;
#X obj 29 138 outlet;
#X obj 29 18 r \$0-SAMPLE-SIZE;
#X obj 172 151 /, f 7;
#X obj 186 103 t b f;
#X obj 172 127 f;
#X obj 172 57 r \$0-RECORDED-SR;
#X obj 232 83 r \$0-SAMPLE-SIZE;
#X obj 172 176 outlet;
#X connect 0 0 4 0;
#X connect 1 0 3 0;
#X connect 1 1 0 1;
#X connect 2 0 1 0;
#X connect 3 0 0 0;
#X connect 4 0 5 0;
#X connect 6 0 3 0;
#X connect 7 0 12 0;
#X connect 8 0 9 0;
#X connect 8 1 7 1;
#X connect 9 0 7 0;
#X connect 10 0 9 0;
#X connect 11 0 8 0;
#X restore 631 61 pd CALCULATION;
#X f 16;
#X connect 0 0 3 0;
#X connect 0 0 19 0;
#X connect 1 0 15 0;
#X connect 1 1 2 0;
#X connect 2 0 9 0;
#X connect 3 0 20 0;
#X connect 4 0 7 0;
#X connect 7 0 0 0;
#X connect 9 0 10 0;
#X connect 9 0 11 0;
#X connect 13 0 14 0;
#X connect 15 0 8 0;
#X connect 15 0 12 0;
#X connect 15 0 13 0;
#X connect 16 0 15 0;
#X connect 19 0 18 0;
#X connect 20 0 1 0;
#X connect 22 0 17 0;
#X connect 22 1 21 0;
#X coords 0 -1 1 1 700 24 2 100 100;
#X restore 109 305 pd LOAD-SAMPLE;
#N canvas 2141 416 787 516 CHOP-SAMPLE-DISK 0;
#X obj 103 102 bng 20 250 50 0 empty empty CHOP|DISK 23 10 0 12 #ff0400 #000000 #000000;
#X msg 103 129 symbol /home/mobin/Documents/Sounds, f 29;
#X obj 103 297 soundfiler;
#X obj 103 171 savepanel;
#X symbolatom 103 196 56 0 0 0 - - - 0;
#X obj 103 245 pack s f;
#X msg 103 271 write \$1.wav \$2-WAVE-SAMPLE;
#X obj 156 220 f \$0;
#X obj 103 220 t s b;
#X floatatom 103 322 5 0 0 0 - - - 0;
#X listbox 170 322 20 0 0 0 - - - 0;
#X connect 0 0 1 0;
#X connect 1 0 3 0;
#X connect 2 0 9 0;
#X connect 2 1 10 0;
#X connect 3 0 4 0;
#X connect 4 0 8 0;
#X connect 5 0 6 0;
#X connect 6 0 2 0;
#X connect 7 0 5 1;
#X connect 8 0 5 0;
#X connect 8 1 7 0;
#X coords 0 -1 1 1 91 24 2 100 100;
#X restore 1476 305 pd CHOP-SAMPLE-DISK;
#X obj 1609 122 cnv 1 1 180 empty \$0-i-LINE-CURSOR-1 empty 20 12 0 12 #000000 #404040 0;
#N canvas 2140 256 664 614 RANGE 0;
#X obj 106 103 nbx 6 18 0 16068 0 0 empty empty START-INDEX 80 9 0 12 #fcfcfc #000000 #000000 0 256;
#X obj 274 103 nbx 6 18 1 0 0 0 empty empty LENGHT 80 9 0 12 #fcfcfc #000000 #000000 0 256;
#X obj 406 103 nbx 6 18 0 0 0 0 empty empty END-INDEX 80 9 0 12 #fcfcfc #000000 #000000 0 256;
#X obj 32 248 t b f;
#X msg 32 273 0;
#X obj 96 268 - 1;
#X obj 234 225 r \$0-END-INDEX;
#X obj 339 225 r \$0-START-INDEX;
#X obj 234 270 -, f 20;
#X obj 339 250 t b f;
#X obj 234 295 + 1;
#X msg 234 320 set \$1;
#X obj 530 276 r \$0-START-INDEX;
#X obj 445 332 +;
#X obj 445 301 - 1;
#X msg 30 507 range 0 \$1;
#X obj 30 420 r \$0-END-INDEX;
#X text 29 389 ------------------------------------------------------------------------------------, f 85;
#X obj 195 488 pack f f, f 23;
#X obj 195 419 r \$0-START-INDEX;
#X obj 321 443 - 1;
#X msg 195 512 range \$1 \$2;
#X obj 32 223 r \$0-SAMPLE-SIZE;
#X obj 321 419 r \$0-SAMPLE-SIZE;
#X obj 321 468 t b f;
#X obj 234 344 s \$0-i-LENGTH;
#X obj 274 127 s \$0-LENGTH;
#X obj 445 276 r \$0-LENGTH;
#X obj 121 44 r \$0-START-INDEX;
#X msg 443 552 range 1 \$1;
#X obj 443 419 r \$0-SAMPLE-SIZE;
#X obj 443 494 -, f 10;
#X obj 478 474 t b f;
#X obj 478 449 r \$0-START-INDEX;
#X floatatom 443 519 5 0 0 0 - - - 0;
#X obj 32 318 s \$0-LAB-START-INDEX;
#X obj 96 294 s \$0-LAB-END-INDEX;
#X obj 445 358 s \$0-LAB-END-INDEX;
#X obj 30 532 s \$0-RANGE-START-INDEX;
#X obj 195 537 s \$0-RANGE-END-INDEX;
#X obj 443 577 s \$0-RANGE-LENGTH;
#X obj 106 12 r \$0-RANGE-START-INDEX;
#X obj 406 11 r \$0-RANGE-END-INDEX;
#X obj 274 12 r \$0-RANGE-LENGTH;
#X msg 121 69 set \$1;
#X obj 284 38 r \$0-i-LENGTH;
#X obj 417 39 r \$0-END-INDEX;
#X msg 417 69 set \$1;
#X obj 106 128 s \$0-LAB-START-INDEX;
#X obj 406 127 s \$0-LAB-END-INDEX;
#X text 21 156 CHANGING START AND END INDEX HERE WILL BE SENT TO "_SP" OBJECT \, THEN SENT BACK TO CURSOR, f 89;
#X text 29 188 --------------------------------------------------------------------------------------, f 87;
#X text 10 339 RESETS WHEN NEW SAMPLE LOADED;
#X connect 0 0 48 0;
#X connect 1 0 26 0;
#X connect 2 0 49 0;
#X connect 3 0 4 0;
#X connect 3 1 5 0;
#X connect 4 0 35 0;
#X connect 5 0 36 0;
#X connect 6 0 8 0;
#X connect 7 0 9 0;
#X connect 8 0 10 0;
#X connect 9 0 8 0;
#X connect 9 1 8 1;
#X connect 10 0 11 0;
#X connect 11 0 25 0;
#X connect 12 0 13 1;
#X connect 13 0 37 0;
#X connect 14 0 13 0;
#X connect 15 0 38 0;
#X connect 16 0 15 0;
#X connect 18 0 21 0;
#X connect 19 0 18 0;
#X connect 20 0 24 0;
#X connect 21 0 39 0;
#X connect 22 0 3 0;
#X connect 23 0 20 0;
#X connect 24 0 18 0;
#X connect 24 1 18 1;
#X connect 27 0 14 0;
#X connect 28 0 44 0;
#X connect 29 0 40 0;
#X connect 30 0 31 0;
#X connect 31 0 34 0;
#X connect 32 0 31 0;
#X connect 32 1 31 1;
#X connect 33 0 32 0;
#X connect 34 0 29 0;
#X connect 41 0 0 0;
#X connect 42 0 2 0;
#X connect 43 0 1 0;
#X connect 44 0 0 0;
#X connect 45 0 1 0;
#X connect 46 0 47 0;
#X connect 47 0 2 0;
#X coords 0 -1 1 1 455 24 2 100 100;
#X restore 814 305 pd RANGE;
#X obj 1571 305 cnv 20 38 24 empty \$0-LABEL-ID 1003 5 12 0 12 #000000 #ffffff 0;
#X obj 1573 341 loadbang;
#X msg 1573 390 label \$1;
#X obj 1573 415 s \$0-LABEL-ID;
#X obj 1573 364 expr symbol(\$0);
#X obj 397 122 cnv 1 1 180 empty \$0-i-LINE-CURSOR-LOOP-1 empty 20 12 0 12 #7c7c7c #404040 0;
#X obj 397 122 cnv 1 1 180 empty \$0-i-LINE-CURSOR-LOOP-2 empty 20 12 0 12 #7c7c7c #404040 0;
#X obj 110 122 cnv 1 2 180 \$0-CURSOR-3 \$0-i-CURSOR-3 empty 20 12 0 12 #0456cb #404040 0;
#X connect 11 0 14 0;
#X connect 12 0 13 0;
#X connect 14 0 12 0;
#X coords 0 -1 1 1 1520 235 2 100 100;
#X restore 15 7 pd SAMPLE;
#X obj 1414 919 cnv 20 430 38 empty empty SAMPLE-BASED\ SYNTH\ DESIGN\ LAB 30 20 0 22 #0400ff #ffffff 0;
#X obj 1540 7 declare -path my-patches/live/sound-source;
#X obj 29 733 output~;
#X obj 9 920 cnv 20 1400 38 empty empty !==================================\ NO\ HEADPHONE\ IN\ THE\ LAB\ ==========================================! 31 18 0 22 #d83100 #ffffff 0;
#X obj 30 627 *~, f 57;
#X text 21 880 [ID \, INSTANCE \, START-INDEX \, END-INDEX \, LOOP-INDEX \, FADE-IN RATIO \, FADE-OUT RATIO \, CURSOR TOGGLE], f 96;
#X obj 1185 286 *LOAD.SAMPLE \$1;
#X obj 1333 290 *_SP \$1;
#X obj 1333 313 *ADSR \$1;
#X text 1182 248 THESE THREE ABSTRACTIONS (*BUILDING-BLOCKS) SHOULD BE INTEGRATED TOGETEHR, f 44;
#X obj 844 855 cnv 20 1000 60 empty empty empty 20 12 0 12 #ff8300 #404040 0;
#X obj 846 855 r ERROR;
#X symbolatom 846 880 71 0 0 0 - - - 24;
#X obj 427 546 _ADSR.LINEAR \$0 10 20 90 250;
#X msg 620 569 0;
#X listbox 29 378 28 0 0 1 [NOTE\ -\ VELOCITY\ -\ OFF\ DELAY] - - 0;
#X floatatom 29 425 5 0 0 0 - - - 0;
#X obj 29 402 unpack f f f, f 44;
#X obj 29 446 mtof;
#X floatatom 29 469 5 0 0 1 [Hz] - - 0;
#X msg 29 300 -20 0.8 1000;
#X text 126 352 NOTE STEP SEQUENCER OUTPUT;
#X floatatom 427 422 5 0 0 1 VELOCITY[0:1] - - 0;
#X floatatom 465 460 5 0 0 1 DELAY-OFF[ms] - - 0;
#X obj 30 705 +~;
#X floatatom 97 547 5 0 0 0 - - - 0;
#X floatatom 165 547 6 0 0 0 - - - 0;
#X floatatom 233 547 5 0 0 0 - - - 0;
#X floatatom 301 547 5 0 1 1 - - - 0;
#X floatatom 368 547 5 0 1 0 - - - 0;
#X floatatom 504 508 5 0 0 0 - - - 0;
#X floatatom 542 486 5 0 0 0 - - - 0;
#X floatatom 581 509 5 0 0 0 - - - 0;
#X floatatom 620 488 5 0 0 0 - - - 0;
#X obj 97 502 r \$0-LAB-START-INDEX;
#X obj 165 525 r \$0-LAB-END-INDEX;
#X obj 29 275 metro 2000;
#X obj 29 252 tgl 20 0 empty empty empty 0 -10 0 12 #fcfcfc #000000 #000000 0 1;
#X msg 236 301 -10 0.8 500;
#X text 1446 818 FORGET ABOUT REVERSE (@LOAD.SAMPLE LEVEL)...FORGET ABOUT PING PONG (LATER SEPARATE ABSTRACTION IF NEEDED!);
#X text 1554 38 THE IDEA OF THIS PATCH IS TO COME UP WITH AND DESIGN "SYNTHESIZERS" AND "BUILDING BLOCKS" \, AND CHOP SAMPLES \; ====================================== \; - TESTED AND WORKING FULL SYNTHESIZERS WILL BE KEPT IN "_0_SYNTH.LIBRARY" PATCH \; -------------------------------------- \; - ALSO PROTOTYPE BUILDING BLOCKS AND MAKE THEM INTO ABSTRACTIONS KEEPING THEM IN SOUND SOURCES FOLDER \; -------------------------------------- \; - BESIDE BUIDING BLOCKS AND MAYBE SEQUENCERS \, NO ABSTRACTIONS! KEEP EVERYTHING OPEN TO TOUCH. DO NOT LIMIT YOURSELF CREATING RE-USABLE HIGH-LEVEL ABSTRACTION \; -------------------------------------- \; - SAMPLE CHOPPING IS DONE WITH A SAMPLE SOFTWARE LIKE KOALA OR AUDACITY \; -------------------------------------- \;, f 40;
#X obj 29 589 _SP.CROSS-FADE.LINEAR \$0 1 0 16068 2000 0.8 0.2 1;
#X msg 131 300 -50 0.8 1000;
#X msg 449 626 1;
#X text 899 387 - FIND RECORD CHOP LOTS OF SOUND USING KOALA AND AUDACITY \; ------------------------------------------------------------------------------------- \; - MAKE EXPERIMENTS ON SOUNDS FOUND ABOVE USING ONE UNIT \; - TRY DIFFERENT SAMPLES AND COME-UP WITH DIFFERENT FADE FUNCTIONS...SQUARED \, ... \; ------------------------------------------------------------------------------------- \; - MAKE LOAD.SAMPLE \$1 ABSTRACTION \; ------------------------------------------------------------------------------------- \; - MONO(DECAYING OTHERS) AND POLYPHONIC-SYNTH-DESIGN USING THE BUILDING BLOCKS - \; ------------------------------------------------------------------------------------- \; - ADD A SWITCH FOR FINAL SYNTHs TO TURN ON ONLY WHEN NEEDED AND TURN OFF WHEN NOT \;, f 88;
#X connect 5 0 25 0;
#X connect 12 0 13 0;
#X connect 14 1 15 0;
#X connect 15 0 42 0;
#X connect 16 0 18 0;
#X connect 17 0 19 0;
#X connect 18 0 17 0;
#X connect 18 1 23 0;
#X connect 18 2 24 0;
#X connect 19 0 20 0;
#X connect 20 0 42 0;
#X connect 21 0 16 0;
#X connect 23 0 14 0;
#X connect 24 0 14 1;
#X connect 25 0 3 0;
#X connect 26 0 42 1;
#X connect 27 0 42 2;
#X connect 28 0 42 3;
#X connect 29 0 42 4;
#X connect 30 0 42 5;
#X connect 31 0 14 2;
#X connect 32 0 14 3;
#X connect 33 0 14 4;
#X connect 34 0 14 5;
#X connect 35 0 26 0;
#X connect 36 0 27 0;
#X connect 37 0 21 0;
#X connect 38 0 37 0;
#X connect 39 0 16 0;
#X connect 42 0 5 0;
#X connect 43 0 16 0;
#X connect 44 0 5 1;
