#N canvas 66 32 1854 977 12;
#X declare -path my-patches/live/sound-source;
#N canvas 1920 0 1854 977 SAMPLE 0;
#N canvas 151 119 450 250 (subpatch) 0;
#X array \$0-SAMPLE 16069 float 2;
#A color 0;
#A width 2;
#X coords 0 1 16069 -1 1500 180 1;
#X restore 109 122 graph;
#X obj 110 121 cnv 1 2 180 \$0-CURSOR-1 \$0-i-CURSOR-1 empty 20 12 0 12 #ff0400 #404040 0;
#X obj 1609 121 cnv 1 2 180 \$0-CURSOR-2 \$0-i-CURSOR-2 empty 20 12 0 12 #ff0400 #404040 0;
#N canvas 882 254 481 375 (subpatch) 0;
#X obj 103 102 bng 20 250 50 0 empty empty NORMALIZE 23 10 0 12 #00faff #000000 #000000;
#X obj 103 133 f \$0;
#X msg 103 156 \; \$1-SAMPLE normalize;
#X connect 0 0 1 0;
#X connect 1 0 2 0;
#X coords 0 -1 1 1 95 24 2 100 100;
#X restore 1273 305 pd;
#N canvas 426 300 1282 581 CURSOR 0;
#X obj 381 94 /, f 10;
#X floatatom 381 119 7 0 0 1 SAMPLE-X-PIXEL - - 0;
#X obj 381 44 t b f, f 10;
#X obj 113 265 s \$0-i-CURSOR-2;
#X obj 33 240 s \$0-i-CURSOR-1;
#X floatatom 33 43 5 0 0 0 - - - 0;
#X floatatom 112 80 9 0 0 0 - - - 0;
#X obj 33 138 *;
#X obj 112 138 *;
#X msg 33 212 pos \$1 \$2;
#X msg 112 212 pos \$1 \$2;
#X obj 381 20 r \$0-SAMPLE-SIZE;
#X msg 769 20 get_pos;
#X obj 769 45 s \$0-i-CURSOR-1;
#X obj 770 70 r \$0-CURSOR-1;
#X obj 770 95 unpack f f;
#X floatatom 770 120 5 0 0 0 - - - 0;
#X floatatom 837 120 5 0 0 0 - - - 0;
#X text 417 69 \$0-SAMPLE SIZE(X);
#X msg 387 268 pos \$1 \$2;
#X obj 387 194 *;
#X msg 538 268 pos \$1 \$2;
#X obj 538 194 *;
#X obj 904 155 s \$0-i-CURSOR-2;
#X obj 904 133 s \$0-i-CURSOR-1;
#X msg 904 58 size \$1;
#X msg 904 18 1;
#X msg 946 18 20;
#X obj 112 187 pack f 121;
#X obj 33 187 pack f 121;
#X obj 33 18 r \$0-START-INDEX;
#X obj 112 52 r \$0-END-INDEX;
#X msg 381 69 1500;
#X obj 112 161 + 110;
#X obj 33 160 + 110;
#X obj 387 218 + 110;
#X obj 387 243 pack f 121;
#X obj 538 218 + 110;
#X obj 538 243 pack f 121;
#X obj 232 77 r \$0-LOOP-INDEX;
#X obj 232 138 *;
#X msg 232 212 pos \$1 \$2;
#X obj 232 187 pack f 121;
#X obj 232 161 + 110;
#X obj 232 266 s \$0-i-CURSOR-3;
#X floatatom 232 102 5 0 0 0 - - - 0;
#X obj 904 177 s \$0-i-CURSOR-3;
#X obj 904 199 s \$0-i-LINE-CURSOR-1;
#X obj 387 291 s \$0-i-LINE-CURSOR-1;
#X obj 538 291 s \$0-i-LINE-CURSOR-LOOP-1;
#X msg 724 267 pos \$1 \$2;
#X obj 724 193 *;
#X obj 724 217 + 110;
#X obj 724 242 pack f 121;
#X obj 724 290 s \$0-i-LINE-CURSOR-LOOP-2;
#X obj 387 169 r \$0-LINE-CURSOR-1;
#X obj 538 169 r \$0-LINE-CURSOR-LOOP-1;
#X obj 724 168 r \$0-LINE-CURSOR-LOOP-2;
#X obj 904 221 s \$0-i-LINE-CURSOR-LOOP-1;
#X obj 905 244 s \$0-i-LINE-CURSOR-LOOP-2;
#X msg 1084 191 vis_size \$1 \$2;
#X obj 1084 161 pack 1 180;
#X obj 1085 32 bng 20 250 50 0 empty empty empty 0 -10 0 12 #fcfcfc #000000 #000000;
#X msg 1088 113 vis_size \$1 \$2;
#X obj 1088 83 pack 2 180;
#X connect 0 0 1 0;
#X connect 1 0 7 1;
#X connect 1 0 8 1;
#X connect 1 0 20 1;
#X connect 1 0 22 1;
#X connect 1 0 40 1;
#X connect 1 0 51 1;
#X connect 2 0 32 0;
#X connect 2 1 0 1;
#X connect 5 0 7 0;
#X connect 6 0 8 0;
#X connect 7 0 34 0;
#X connect 8 0 33 0;
#X connect 9 0 4 0;
#X connect 10 0 3 0;
#X connect 11 0 2 0;
#X connect 12 0 13 0;
#X connect 14 0 15 0;
#X connect 15 0 16 0;
#X connect 15 1 17 0;
#X connect 19 0 48 0;
#X connect 20 0 35 0;
#X connect 21 0 49 0;
#X connect 22 0 37 0;
#X connect 25 0 24 0;
#X connect 25 0 23 0;
#X connect 25 0 46 0;
#X connect 25 0 47 0;
#X connect 25 0 58 0;
#X connect 25 0 59 0;
#X connect 26 0 25 0;
#X connect 27 0 25 0;
#X connect 28 0 10 0;
#X connect 29 0 9 0;
#X connect 30 0 5 0;
#X connect 31 0 6 0;
#X connect 32 0 0 0;
#X connect 33 0 28 0;
#X connect 34 0 29 0;
#X connect 35 0 36 0;
#X connect 36 0 19 0;
#X connect 37 0 38 0;
#X connect 38 0 21 0;
#X connect 39 0 45 0;
#X connect 40 0 43 0;
#X connect 41 0 44 0;
#X connect 42 0 41 0;
#X connect 43 0 42 0;
#X connect 45 0 40 0;
#X connect 50 0 54 0;
#X connect 51 0 52 0;
#X connect 52 0 53 0;
#X connect 53 0 50 0;
#X connect 55 0 20 0;
#X connect 56 0 22 0;
#X connect 57 0 51 0;
#X connect 60 0 47 0;
#X connect 60 0 59 0;
#X connect 60 0 58 0;
#X connect 60 0 46 0;
#X connect 61 0 60 0;
#X connect 62 0 61 0;
#X connect 62 0 64 0;
#X connect 63 0 24 0;
#X connect 63 0 23 0;
#X connect 64 0 63 0;
#X restore 100 338 pd CURSOR;
#N canvas 498 156 912 516 CHOP-TO-FOCUS 0;
#X obj 437 187 f;
#X obj 103 102 bng 20 250 50 0 empty empty CHOP|FOCUS 23 10 0 12 #ff8300 #000000 #000000;
#X obj 517 208 array size \$0-SAMPLE-BUFFER;
#X obj 437 294 array define \$0-SAMPLE-BUFFER;
#X f 55;
#X obj 437 265 array set \$0-SAMPLE-BUFFER 0;
#X obj 455 129 r \$0-START-INDEX;
#X obj 103 138 t b b b b b, f 36;
#X obj 502 181 r \$0-LENGTH;
#X obj 501 158 s \$0-i-LENGTH;
#X obj 227 184 del 200;
#X obj 165 262 del 400;
#X msg 165 290 0;
#X obj 103 394 f;
#X obj 103 368 del 600;
#X obj 103 418 s \$0-SAMPLE-SIZE-CHOPPED;
#X text 281 419 NEW SAMPLE SIZE->GOES TO LOAD-SAMPLE MODULE;
#X obj 165 314 array get \$0-SAMPLE-BUFFER;
#X obj 289 167 del 100;
#X obj 437 241 array get \$0-SAMPLE;
#X obj 258 207 r \$0-LENGTH;
#X obj 227 207 f;
#X obj 254 291 r \$0-LENGTH;
#X obj 165 338 array set \$0-SAMPLE 0;
#X obj 135 394 r \$0-LENGTH;
#X text 601 159 TO RESEND THE CURRENT LENGTH;
#X obj 227 231 array size \$0-SAMPLE;
#X connect 0 0 18 0;
#X connect 1 0 6 0;
#X connect 5 0 0 1;
#X connect 6 0 13 0;
#X connect 6 1 10 0;
#X connect 6 2 9 0;
#X connect 6 3 17 0;
#X connect 6 4 8 0;
#X connect 7 0 2 0;
#X connect 7 0 18 1;
#X connect 9 0 20 0;
#X connect 10 0 11 0;
#X connect 11 0 16 0;
#X connect 12 0 14 0;
#X connect 13 0 12 0;
#X connect 16 0 22 0;
#X connect 17 0 0 0;
#X connect 18 0 4 0;
#X connect 19 0 20 1;
#X connect 20 0 25 0;
#X connect 21 0 16 1;
#X connect 23 0 12 1;
#X coords 0 -1 1 1 100 24 2 100 100;
#X restore 1372 305 pd CHOP-TO-FOCUS;
#N canvas 2013 222 874 551 LOAD-SAMPLE 0;
#X obj 185 176 openpanel;
#X obj 185 252 soundfiler, f 33;
#X listbox 563 272 20 0 0 0 - - - 0;
#X obj 185 201 pack s \$0;
#X obj 185 103 bng 19 250 50 0 empty empty empty 0 -10 0 12 #fcfcfc #000000 #000000;
#X listbox 207 103 35 0 0 0 - \$0-i-SAMPLE-LOC \$0-SAMPLE-LOC 12;
#X text 101 103 LOAD SAMPLE;
#X msg 185 131 symbol /home/mobin/Documents/Sounds, f 29;
#X floatatom 465 103 8 0 0 1 SIZE - - 0;
#X obj 563 298 unpack f;
#X obj 563 325 s \$0-RECORDED-SR;
#X floatatom 563 103 6 0 0 1 SR - - 0;
#X obj 345 337 s \$0-SAMPLE-SIZE;
#X obj 185 372 bng 20 250 50 0 empty empty empty 0 -10 0 12 #fcfcfc #000000 #000000;
#X obj 185 397 s \$0-SAMPLE-LOADED;
#X floatatom 185 318 8 0 0 1 SAMPLE-SIZE - - 0;
#X obj 198 284 r \$0-SAMPLE-SIZE-CHOPPED;
#X floatatom 631 103 7 0 0 1 [ms] - - 0;
#X obj 440 222 s \$0-i-SAMPLE-LOC;
#N canvas 981 425 573 338 PATH-TRIM 0;
#X listbox 207 136 28 0 0 0 - - - 0;
#X symbolatom 207 89 39 0 0 0 - - - 0;
#X obj 207 112 list fromsymbol;
#X obj 252 183 list tosymbol;
#X symbolatom 252 207 35 0 0 0 - - - 0;
#X obj 77 226 list append;
#X obj 77 60 t b s, f 19;
#X obj 77 126 list tosymbol;
#X symbolatom 77 150 7 0 0 0 - - - 0;
#X msg 77 102 46 46 46;
#X obj 208 158 list split 28;
#X obj 77 25 inlet;
#X obj 77 258 outlet;
#X connect 0 0 10 0;
#X connect 1 0 2 0;
#X connect 2 0 0 0;
#X connect 3 0 4 0;
#X connect 4 0 5 1;
#X connect 5 0 12 0;
#X connect 6 0 9 0;
#X connect 6 1 1 0;
#X connect 7 0 8 0;
#X connect 8 0 5 0;
#X connect 9 0 7 0;
#X connect 10 1 3 0;
#X connect 11 0 6 0;
#X restore 440 196 pd PATH-TRIM;
#X msg 185 228 read -resize \$1 \$2-SAMPLE;
#X floatatom 718 103 7 0 0 1 [Hz] - - 0;
#N canvas 2703 327 450 300 CALCULATION 0;
#X obj 29 88 /, f 7;
#X obj 43 40 t b f;
#X obj 159 20 r \$0-RECORDED-SR;
#X obj 29 64 f;
#X obj 29 113 * 1000;
#X obj 29 138 outlet;
#X obj 29 18 r \$0-SAMPLE-SIZE;
#X obj 172 151 /, f 7;
#X obj 186 103 t b f;
#X obj 172 127 f;
#X obj 172 57 r \$0-RECORDED-SR;
#X obj 232 83 r \$0-SAMPLE-SIZE;
#X obj 172 176 outlet;
#X connect 0 0 4 0;
#X connect 1 0 3 0;
#X connect 1 1 0 1;
#X connect 2 0 1 0;
#X connect 3 0 0 0;
#X connect 4 0 5 0;
#X connect 6 0 3 0;
#X connect 7 0 12 0;
#X connect 8 0 9 0;
#X connect 8 1 7 1;
#X connect 9 0 7 0;
#X connect 10 0 9 0;
#X connect 11 0 8 0;
#X restore 631 61 pd CALCULATION;
#X f 16;
#X connect 0 0 3 0;
#X connect 0 0 19 0;
#X connect 1 0 15 0;
#X connect 1 1 2 0;
#X connect 2 0 9 0;
#X connect 3 0 20 0;
#X connect 4 0 7 0;
#X connect 7 0 0 0;
#X connect 9 0 10 0;
#X connect 9 0 11 0;
#X connect 13 0 14 0;
#X connect 15 0 8 0;
#X connect 15 0 12 0;
#X connect 15 0 13 0;
#X connect 16 0 15 0;
#X connect 19 0 18 0;
#X connect 20 0 1 0;
#X connect 22 0 17 0;
#X connect 22 1 21 0;
#X coords 0 -1 1 1 700 24 2 100 100;
#X restore 109 305 pd LOAD-SAMPLE;
#N canvas 2141 416 787 516 CHOP-SAMPLE-DISK 0;
#X obj 103 102 bng 20 250 50 0 empty empty CHOP|DISK 23 10 0 12 #ff0400 #000000 #000000;
#X msg 103 129 symbol /home/mobin/Documents/Sounds, f 29;
#X obj 103 297 soundfiler;
#X obj 103 171 savepanel;
#X symbolatom 103 196 56 0 0 0 - - - 0;
#X obj 103 245 pack s f;
#X msg 103 271 write \$1.wav \$2-WAVE-SAMPLE;
#X obj 156 220 f \$0;
#X obj 103 220 t s b;
#X floatatom 103 322 5 0 0 0 - - - 0;
#X listbox 170 322 20 0 0 0 - - - 0;
#X connect 0 0 1 0;
#X connect 1 0 3 0;
#X connect 2 0 9 0;
#X connect 2 1 10 0;
#X connect 3 0 4 0;
#X connect 4 0 8 0;
#X connect 5 0 6 0;
#X connect 6 0 2 0;
#X connect 7 0 5 1;
#X connect 8 0 5 0;
#X connect 8 1 7 0;
#X coords 0 -1 1 1 91 24 2 100 100;
#X restore 1476 305 pd CHOP-SAMPLE-DISK;
#X obj 1609 121 cnv 1 1 180 empty \$0-i-LINE-CURSOR-1 empty 20 12 0 12 #000000 #404040 0;
#N canvas 953 345 691 614 RANGE 0;
#X obj 106 127 s \$0-START-INDEX;
#X obj 406 127 s \$0-END-INDEX;
#X obj 106 103 nbx 6 18 0 16068 0 0 empty empty START-INDEX 80 9 0 12 #fcfcfc #000000 #000000 0 256;
#X obj 274 103 nbx 6 18 1 16069 0 0 empty empty LENGHT 80 9 0 12 #fcfcfc #000000 #000000 0 256;
#X obj 406 103 nbx 6 18 0 16068 0 0 empty empty END-INDEX 80 9 0 12 #fcfcfc #000000 #000000 0 256;
#X obj 32 217 t b f;
#X msg 32 242 0;
#X obj 106 77 r \$0-i-START-INDEX;
#X obj 406 77 r \$0-i-END-INDEX;
#X obj 96 237 - 1;
#X obj 32 287 s \$0-i-START-INDEX;
#X obj 96 263 s \$0-i-END-INDEX;
#X obj 234 194 r \$0-END-INDEX;
#X obj 339 194 r \$0-START-INDEX;
#X obj 234 239 -, f 20;
#X obj 339 219 t b f;
#X obj 234 264 + 1;
#X msg 234 289 set \$1;
#X obj 530 245 r \$0-START-INDEX;
#X obj 445 301 +;
#X obj 445 327 s \$0-i-END-INDEX;
#X obj 445 270 - 1;
#X obj 30 532 s \$0-i-START-INDEX;
#X msg 30 507 range 0 \$1;
#X obj 30 420 r \$0-END-INDEX;
#X text 29 389 ------------------------------------------------------------------------------------, f 85;
#X obj 182 488 pack f f, f 23;
#X obj 182 537 s \$0-i-END-INDEX;
#X obj 182 419 r \$0-START-INDEX;
#X obj 308 443 - 1;
#X msg 182 512 range \$1 \$2;
#X obj 32 192 r \$0-SAMPLE-SIZE;
#X obj 308 419 r \$0-SAMPLE-SIZE;
#X obj 451 566 s \$0-i-LENGTH;
#X obj 308 468 t b f;
#X msg 451 541 range 1 \$1;
#X obj 451 408 r \$0-SAMPLE-SIZE;
#X obj 451 483 -, f 10;
#X obj 486 463 t b f;
#X obj 486 438 r \$0-START-INDEX;
#X floatatom 451 508 5 0 0 0 - - - 0;
#X obj 274 77 r \$0-i-LENGTH;
#X obj 234 313 s \$0-i-LENGTH;
#X obj 274 127 s \$0-LENGTH;
#X obj 445 245 r \$0-LENGTH;
#X obj 25 11 r \$0-PARAM-RESEND;
#X obj 25 36 bng 20 250 50 0 empty empty empty 0 -10 0 12 #fcfcfc #000000 #000000;
#X obj 184 13 r \$0-SAMPLE-LOADED;
#X obj 184 38 del 10;
#X connect 2 0 0 0;
#X connect 3 0 43 0;
#X connect 4 0 1 0;
#X connect 5 0 6 0;
#X connect 5 1 9 0;
#X connect 6 0 10 0;
#X connect 7 0 2 0;
#X connect 8 0 4 0;
#X connect 9 0 11 0;
#X connect 12 0 14 0;
#X connect 13 0 15 0;
#X connect 14 0 16 0;
#X connect 15 0 14 0;
#X connect 15 1 14 1;
#X connect 16 0 17 0;
#X connect 17 0 42 0;
#X connect 18 0 19 1;
#X connect 19 0 20 0;
#X connect 21 0 19 0;
#X connect 23 0 22 0;
#X connect 24 0 23 0;
#X connect 26 0 30 0;
#X connect 28 0 26 0;
#X connect 29 0 34 0;
#X connect 30 0 27 0;
#X connect 31 0 5 0;
#X connect 32 0 29 0;
#X connect 34 0 26 0;
#X connect 34 1 26 1;
#X connect 35 0 33 0;
#X connect 36 0 37 0;
#X connect 37 0 40 0;
#X connect 38 0 37 0;
#X connect 38 1 37 1;
#X connect 39 0 38 0;
#X connect 40 0 35 0;
#X connect 41 0 3 0;
#X connect 44 0 21 0;
#X connect 45 0 46 0;
#X connect 46 0 4 0;
#X connect 46 0 2 0;
#X connect 47 0 48 0;
#X connect 48 0 2 0;
#X connect 48 0 4 0;
#X coords 0 -1 1 1 455 24 2 100 100;
#X restore 814 305 pd RANGE;
#X obj 1571 305 cnv 20 38 24 empty \$0-LABEL-ID 1003 5 12 0 12 #000000 #ffffff 0;
#X obj 1573 341 loadbang;
#X msg 1573 390 label \$1;
#X obj 1573 415 s \$0-LABEL-ID;
#X obj 1573 364 expr symbol(\$0);
#X obj 305 121 cnv 1 1 180 empty \$0-i-LINE-CURSOR-LOOP-1 empty 20 12 0 12 #7c7c7c #404040 0;
#X obj 305 121 cnv 1 1 180 empty \$0-i-LINE-CURSOR-LOOP-2 empty 20 12 0 12 #7c7c7c #404040 0;
#X obj 250 121 cnv 1 1 180 \$0-CURSOR-3 \$0-i-CURSOR-3 empty 20 12 0 12 #0456cb #404040 0;
#X connect 11 0 14 0;
#X connect 12 0 13 0;
#X connect 14 0 12 0;
#X coords 0 -1 1 1 1520 235 2 100 100;
#X restore 15 7 pd SAMPLE;
#N canvas 597 167 676 490 SET-MIDI 0;
#X floatatom 233 130 5 0 0 2 DELAY-OFF - - 0;
#X obj 302 338 pack 1 0;
#X obj 185 420 outlet;
#X obj 249 265 unpack f f;
#X obj 409 245 del;
#X obj 347 234 bng 20 250 50 0 empty empty empty 0 -10 0 12 #fcfcfc #000000 #000000;
#X obj 307 40 inlet;
#X obj 301 312 f;
#X text 308 17 delay;
#X obj 105 174 pack f f;
#X floatatom 158 130 5 0 1 2 VELOCITY - - 0;
#X floatatom 108 130 5 0 0 2 MIDI - - 0;
#X obj 107 59 bng 20 250 50 0 empty empty empty 0 -10 0 12 #fcfcfc #000000 #000000;
#X obj 104 25 inlet;
#X obj 238 381 spigot;
#X obj 307 131 tgl 20 0 empty empty PASS\ NOTE-OFF 0 -10 0 12 #fcfcfc #000000 #000000 0 1;
#X connect 0 0 4 1;
#X connect 1 0 14 0;
#X connect 3 0 7 1;
#X connect 4 0 7 0;
#X connect 5 0 4 0;
#X connect 6 0 0 0;
#X connect 7 0 1 0;
#X connect 9 0 5 0;
#X connect 9 0 3 0;
#X connect 9 0 2 0;
#X connect 10 0 9 1;
#X connect 11 0 9 0;
#X connect 12 0 11 0;
#X connect 13 0 12 0;
#X connect 14 0 2 0;
#X connect 15 0 14 1;
#X coords 0 -1 1 1 300 60 2 100 100;
#X restore 1212 259 pd SET-MIDI;
#X obj 1414 919 cnv 20 430 38 empty empty SAMPLE-BASED\ SYNTH\ DESIGN\ LAB 30 20 0 22 #0400ff #ffffff 0;
#X obj 1540 7 declare -path my-patches/live/sound-source;
#X obj 26 703 output~;
#X obj 9 920 cnv 20 1400 38 empty empty !==================================\ NO\ HEADPHONE\ IN\ THE\ LAB\ ==========================================! 15 18 0 22 #d83100 #ffffff 0;
#X obj 27 667 *~;
#X obj 369 648 line~;
#X msg 449 539 0 100;
#X msg 369 519 0 \, 1 100;
#X obj 525 539 del 100;
#X msg 525 483 0;
#X msg 28 403 2;
#X obj 449 519 del 1000;
#X obj 28 499 t f b;
#X msg 36 428 2.5;
#X msg 45 451 3.5;
#X text 355 486 SIMPLE ADSR SIMULATION;
#X text 726 707 ONLY ISSUES REMAINING SEEM TO BE: \; 1- CHOPPING \, ... LEADS TO CLICKS...HOW TO AVOID? ---> WITH ADSR(VELOCITY 0 BEFORE PLAYING) --> OK \; 2- WHEN NEW SAMPLE LOADED -> RESET THE LOOP INDEX POSITION TO 0? ---> PARAMETER OF _SP...SHOULD BE DECIDED AT THE END OF LAB SESSION -- OK \; --------------------------------------------------------------------------------------------------------------------------------------------------------- \; 3- CURSORS KEEP HIDING UNDER ARRAY ---> PROPERLY DESIGN THE CURSORS. CONSIDER ADDING AN INDEX FOR EACH SP-CROSS FADE SO START \, END \, LINE~ \, LOOP CURSORs COULD BE SEPARATED. IN LIVE PERFORMANCE NO START END BUT LOOP AND ROTATING CURSORS COULE BE NICE! \; 4- POLYPHONIC DESIGN: MIDIs GOING TO NEXT BANK WITH A) RELEASING THE OTHER ON TRIGGER --> ONLY TWO BANK IS NEEDED. MONO. NO CHORD POSSIBLE.... \, B)LET THE PREVIOUS BANK GO TILL THE END OF ITS ADSR ENVELOPE ---> MORE BANKS NEEDED. POLYPHINIC. CHORDS POSSIBLE \; 5- MAKE SURE DIFFERENT BANKS (INSTANTs OF "_SP.CROSS-FADE" ARE NOT INTERACTING WITH EACH OTHER! \; 6- REVIEW HOW MIDI SEQUENCER WORKS AND SEE IF ANY ADAPTATION IS NEEDED FOR "_SP" OBJECTs \; 7- TRY CHANGING THE FADE PERCENTAGE AND ALSO MODIFY FADING FUNCTION (EX: SQUARE IT) TO HAVE BETTER LOOPs BEHAVIOUR \;, f 158;
#X obj 28 603 _SP.CROSS-FADE.LINEAR \$0 0.3 1500;
#X floatatom 142 564 5 0 1 0 - - - 0;
#X floatatom 256 567 5 0 0 0 - - - 0;
#X text 1210 319 SIMPLE REPLICA MIDI SEQUENCER TO TEST;
#X text 1545 38 THE IDEA OF THIS PATCH IS TO COME UP AND DESIGN "SYNTHESIZERS" AND SYNTHESIS "BUILDING BLOCKS" \; ====================================== \; - TESTED AND WORKING FULL SYNTHESIZERS WILL BE KEPT IN "_0_SYNTH.LIBRARY" PATCH \; -------------------------------------- \; - ALSO PROTOTYPE BUILDING BLOCKS AND MAKE THEM INTO ABSTRACTIONS KEEPING THEM IN SOUND SOURCES FOLDER \; -------------------------------------- \; - BESIDE BUIDING BLOCKS AND MAYBE SEQUENCERS \, NO ABSTRACTIONS! KEEP EVERYTHING OPEN TO TOUCH. DO NOT LIMIT YOURSELF CREATING RE-USABLE HIGH-LEVEL ABSTRACTION \; -------------------------------------- \;, f 40;
#X connect 6 0 4 0;
#X connect 7 0 6 1;
#X connect 8 0 7 0;
#X connect 9 0 7 0;
#X connect 10 0 11 0;
#X connect 12 0 14 0;
#X connect 13 0 8 0;
#X connect 13 0 10 0;
#X connect 14 0 19 0;
#X connect 14 1 9 0;
#X connect 14 1 13 0;
#X connect 15 0 14 0;
#X connect 16 0 14 0;
#X connect 19 0 6 0;
#X connect 20 0 19 1;
#X connect 21 0 19 2;
