#N canvas 499 214 568 540 12;
#X obj 89 217 inlet~;
#X obj 90 466 outlet~;
#X obj 90 405 *~;
#X obj 151 375 *~;
#X obj 169 350 tgl 20 0 empty \$0-filter-on empty 0 -10 0 12 #fcfcfc #000000 #000000 0 1;
#X obj 108 378 tgl 20 0 empty \$0-orig-on empty 0 -10 0 12 #fcfcfc #000000 #000000 0 1;
#X obj 90 431 +~, f 9;
#X obj 106 119 tgl 15 0 \$0-orig-on \$0-i-orig-on orig 20 7 0 10 #fcfcfc #000000 #000000 0 1;
#X obj 106 139 tgl 15 0 \$0-filter-on \$0-i-filter-on filter 20 7 0 10 #fcfcfc #000000 #000000 0 1;
#X obj 109 158 hsl 80 15 0 10000 0 0 \$0-i-cutoff \$0-i-cutoff-inlet empty -2 -10 0 12 #fcfcfc #000000 #000000 0 1;
#X obj 172 217 inlet;
#X floatatom 106 177 8 0 10000 0 - \$0-i-cutoff \$0-cutoff 10;
#X obj 172 242 s \$0-i-cutoff-inlet;
#X obj 175 281 r \$0-cutoff;
#N canvas 1956 38 506 586 parameter-handling 0;
#X obj 44 95 t b f, f 2;
#X obj 73 95 t b f, f 2;
#X obj 244 18 text define -k \$0-parameters;
#A set 0 1 2278.48 \;;
#X obj 44 210 text set \$0-parameters 0 0;
#X obj 73 254 savestate;
#X obj 133 307 text sequence \$0-parameters;
#X msg 133 282 line 0 \, step;
#X text 259 64 Reading parametes into text \$0-parameters \, use savestate to save abstraction parameters together with saving parent patch and loading thenm next time parent path is open, f 28;
#X obj 73 350 text set \$0-parameters 0 0;
#X msg 32 414 0;
#X obj 32 390 del 200;
#X obj 32 439 text get \$0-parameters 0 3;
#X obj 44 21 r \$0-orig-on;
#X obj 73 45 r \$0-filter-on;
#X obj 114 69 r \$0-cutoff;
#X obj 44 182 pack f f f, f 12;
#X obj 114 95 t b f, f 2;
#X obj 32 464 unpack f f f;
#X obj 32 540 s \$0-i-orig-on;
#X obj 72 518 s \$0-i-filter-on;
#X obj 113 495 s \$0-i-cutoff-inlet;
#X connect 0 0 15 0;
#X connect 0 1 15 0;
#X connect 1 0 15 0;
#X connect 1 1 15 1;
#X connect 4 0 8 0;
#X connect 4 0 10 0;
#X connect 4 1 6 0;
#X connect 5 0 4 0;
#X connect 6 0 5 0;
#X connect 9 0 11 0;
#X connect 10 0 9 0;
#X connect 11 0 17 0;
#X connect 12 0 0 0;
#X connect 13 0 1 0;
#X connect 14 0 16 0;
#X connect 15 0 3 0;
#X connect 16 0 15 0;
#X connect 16 1 15 2;
#X connect 17 0 18 0;
#X connect 17 1 19 0;
#X connect 17 2 20 0;
#X restore 38 39 pd parameter-handling;
#X obj 150 313 lop~;
#X text 9 8 VERSION 0;
#X connect 0 0 2 0;
#X connect 0 0 15 0;
#X connect 2 0 6 0;
#X connect 3 0 6 1;
#X connect 4 0 3 1;
#X connect 5 0 2 1;
#X connect 6 0 1 0;
#X connect 10 0 12 0;
#X connect 13 0 15 1;
#X connect 15 0 3 0;
#X coords 0 -1 1 1 100 100 1 100 100;
