#N canvas 0 0 1367 682 12;
#X obj 556 497 *~;
#X obj 574 422 osc~;
#X floatatom 197 153 5 0 10000 0 - \$0-i-mod-freq \$0-mod-freq 0;
#X obj 574 457 *~;
#X obj 137 153 hsl 50 20 0 1 0 0 \$0-mod-amp \$0-i-mod-amp empty -2 -10 0 12 #fcfcfc #000000 #000000 0 1;
#X obj 355 505 *~ 0;
#X obj 107 127 tgl 20 0 \$0-source-on \$0-i-source-on empty 0 -10 0 12 #fcfcfc #000000 #000000 0 1;
#X obj 355 569 +~;
#X obj 555 522 *~ 0;
#X obj 107 153 tgl 20 0 \$0-mod-on \$0-i-mod-on empty 0 -10 0 12 #fcfcfc #000000 #000000 0 1;
#X obj 355 284 inlet~;
#X obj 354 617 outlet~;
#X obj 599 371 r \$0-play;
#X msg 599 395 0;
#X obj 355 477 *~;
#X obj 137 127 hsl 50 20 0 1 0 0 \$0-source-amp \$0-i-source-amp empty -2 -10 0 12 #fcfcfc #000000 #000000 0 1;
#N canvas 0 50 450 250 (subpatch) 0;
#X array \$0-mod-disp 100 float 3;
#A 0 0.0761714 0.126083 0.174923 0.222279 0.267745 0.310942 0.351493 0.389066 0.423327 0.454003 0.480813 0.503552 0.522002 0.536034 0.545498 0.550348 0.550506 0.546009 0.536856 0.523163 0.505009 0.482584 0.456047 0.42565 0.391627 0.354289 0.313933 0.270919 0.225599 0.178368 0.129618 0.0797704 0.0292441 -0.0215302 -0.0721215 -0.122101 -0.171043 -0.218533 -0.264167 -0.307558 -0.348337 -0.386158 -0.420701 -0.45167 -0.478807 -0.501873 -0.520683 -0.535065 -0.544912 -0.550122 -0.550671 -0.546533 -0.537766 -0.52442 -0.506634 -0.484532 -0.45833 -0.428222 -0.394491 -0.357398 -0.317282 -0.27446 -0.229317 -0.182219 -0.13358 -0.0838021 -0.0333154 0.0174551 0.0680777 0.118121 0.167163 0.214783 0.260583 0.304165 0.34517 0.383238 0.418057 0.449322 0.476775 0.500177 0.519333 0.534078 0.544289 0.549878 0.550797 0.547041 0.538637 0.525663 0.508221 0.486469 0.460579 0.430786 0.397327 0.360502 0.320609 0.277999 0.233023 0.186074 0.137539 0.0878406;
#X coords 0 1 100 -1 200 80 1 0 0;
#X restore 107 211 graph;
#X obj 287 184 tgl 20 0 \$0-mod-graph \$0-i-mod-graph empty 0 -10 0 12 #fcfcfc #000000 #000000 0 1;
#X text 195 126 Source;
#X text 239 153 modulated;
#N canvas 609 160 538 771 parameter-handling 0;
#X obj 33 207 t b f, f 2;
#X obj 63 207 t b f, f 2;
#X obj 94 207 t b f, f 2;
#X obj 125 207 t b f, f 2;
#X obj 32 24 text define -k \$0-parameters;
#A set 0 0 0 0 0 \;;
#X obj 44 301 text set \$0-parameters 0 0;
#X obj 73 360 savestate;
#X obj 133 413 text sequence \$0-parameters;
#X msg 133 388 line 0 \, step;
#X obj 32 545 text get \$0-parameters;
#X text 301 5 Reading parametes into text \$0-parameters \, use savestate to save abstraction parameters together with saving parent patch and loading thenm next time parent path is open, f 28;
#X obj 73 440 text set \$0-parameters 0 0;
#X msg 32 520 0;
#X obj 32 496 del 100;
#X obj 156 207 t b f, f 2;
#X obj 33 82 r \$0-source-on;
#X obj 63 105 r \$0-source-amp;
#X obj 94 128 r \$0-mod-amp;
#X obj 125 151 r \$0-mod-freq;
#X obj 156 176 r \$0-mod-on;
#X obj 32 720 s \$0-i-source-on;
#X obj 66 696 s \$0-i-source-amp;
#X obj 100 671 s \$0-i-mod-amp;
#X obj 134 646 s \$0-i-mod-freq;
#X obj 169 621 s \$0-i-mod-on;
#X obj 44 273 pack f f f f f, f 18;
#X obj 32 570 unpack f f f f f, f 20;
#X connect 0 0 25 0;
#X connect 0 1 25 0;
#X connect 1 0 25 0;
#X connect 1 1 25 1;
#X connect 2 0 25 0;
#X connect 2 1 25 2;
#X connect 3 0 25 0;
#X connect 3 1 25 3;
#X connect 6 0 11 0;
#X connect 6 0 13 0;
#X connect 6 1 8 0;
#X connect 7 0 6 0;
#X connect 8 0 7 0;
#X connect 9 0 26 0;
#X connect 12 0 9 0;
#X connect 13 0 12 0;
#X connect 14 0 25 0;
#X connect 14 1 25 4;
#X connect 15 0 0 0;
#X connect 16 0 1 0;
#X connect 17 0 2 0;
#X connect 18 0 3 0;
#X connect 19 0 14 0;
#X connect 25 0 5 0;
#X connect 26 0 20 0;
#X connect 26 1 21 0;
#X connect 26 2 22 0;
#X connect 26 3 23 0;
#X connect 26 4 24 0;
#X restore 121 352 pd parameter-handling;
#X obj 431 88 inlet;
#X obj 495 89 inlet;
#X obj 558 88 inlet;
#X obj 650 89 inlet;
#X obj 650 137 s \$0-phase-reset;
#X obj 431 112 clip 0 1;
#X obj 495 112 clip 0 1;
#X obj 558 111 clip 0 10000;
#X obj 431 207 s \$0-i-source-amp;
#X obj 495 184 s \$0-i-mod-amp;
#X obj 558 160 s \$0-i-mod-freq;
#X text 176 101 (-1:1);
#X obj 384 477 r \$0-source-amp;
#X obj 390 505 r \$0-source-on;
#X obj 574 341 r \$0-mod-freq;
#X obj 604 456 r \$0-mod-amp;
#X obj 593 521 r \$0-mod-on;
#X obj 748 475 r \$0-mod-graph;
#X obj 748 523 tabwrite~ \$0-mod-disp;
#X obj 748 500 metro 100;
#X text 134 25 VERSION 0;
#X connect 0 0 8 0;
#X connect 1 0 3 0;
#X connect 3 0 0 1;
#X connect 3 0 39 0;
#X connect 5 0 7 0;
#X connect 7 0 11 0;
#X connect 8 0 7 1;
#X connect 10 0 0 0;
#X connect 10 0 14 0;
#X connect 12 0 13 0;
#X connect 13 0 1 1;
#X connect 14 0 5 0;
#X connect 21 0 26 0;
#X connect 22 0 27 0;
#X connect 23 0 28 0;
#X connect 24 0 25 0;
#X connect 26 0 29 0;
#X connect 27 0 30 0;
#X connect 28 0 31 0;
#X connect 33 0 14 1;
#X connect 34 0 5 1;
#X connect 35 0 1 0;
#X connect 36 0 3 1;
#X connect 37 0 8 1;
#X connect 38 0 40 0;
#X connect 40 0 39 0;
#X coords 0 -1 1 1 215 200 1 100 100;
