#N canvas 52 20 1854 977 12;
#X obj 161 180 wt.synth.mono;
#X obj 160 385 output~;
#X obj 220 34 bng 20 250 50 0 empty empty empty 0 -10 0 12 #fcfcfc #000000 #000000;
#X obj 161 33 bng 30 250 50 0 empty empty TEST 0 -10 0 12 #ff8300 #000000 #000000;
#X obj 220 59 del 80;
#X msg 161 83 11 120;
#X msg 220 83 11 0;
#X obj 351 35 bng 20 250 50 0 empty empty empty 0 -10 0 12 #fcfcfc #000000 #000000;
#X obj 292 34 bng 30 250 50 0 empty empty TEST 0 -10 0 12 #ff8300 #000000 #000000;
#X obj 351 60 del 80;
#X obj 502 30 bng 20 250 50 0 empty empty empty 0 -10 0 12 #fcfcfc #000000 #000000;
#X obj 443 29 bng 30 250 50 0 empty empty TEST 0 -10 0 12 #ff8300 #000000 #000000;
#X obj 502 55 del 80;
#X msg 292 84 13 120;
#X msg 351 84 13 0;
#X msg 443 79 16 120;
#X msg 502 79 16 0;
#X connect 0 0 1 0;
#X connect 2 0 4 0;
#X connect 3 0 5 0;
#X connect 4 0 6 0;
#X connect 5 0 2 0;
#X connect 5 0 0 0;
#X connect 6 0 0 0;
#X connect 7 0 9 0;
#X connect 8 0 13 0;
#X connect 9 0 14 0;
#X connect 10 0 12 0;
#X connect 11 0 15 0;
#X connect 12 0 16 0;
#X connect 13 0 7 0;
#X connect 13 0 0 0;
#X connect 14 0 0 0;
#X connect 15 0 10 0;
#X connect 15 0 0 0;
#X connect 16 0 0 0;
