#N canvas 1920 0 1920 1009 12;
#N canvas 0 50 450 250 (subpatch) 0;
#X array \$0-SPECTRUM-RIGHT 2048 float 0;
#A color 0;
#A width 1;
#X coords 0 20 2047 -60 1024 250 1;
#X restore 111 131 graph;
#X obj 110 533 inlet~;
#X obj 229 916 bng 20 250 50 0 empty empty empty 0 -10 0 12 #fcfcfc #000000 #000000;
#X obj 253 915 bang~;
#X text 294 913 (WINDOW-SIZE/SR)*1000;
#X obj 229 942 spigot;
#X obj 280 942 tgl 20 0 empty empty empty 0 -10 0 12 #fcfcfc #000000 #000000 0 1;
#X obj 305 942 r \$0-DRAW;
#X obj 1365 751 block~, f 11;
#X msg 1365 724 set \$1 1 1 0;
#X obj 1366 618 loadbang;
#X msg 1366 643 4096;
#X obj 1366 668 s \$0-WINDOW-SIZE;
#X obj 1365 698 r \$0-WINDOW-SIZE;
#X obj 1084 108 tgl 20 0 \$0-DRAW \$0-i-DRAW-dummy DRAW 23 10 0 12 #ff0400 #000000 #000000 0 1;
#N canvas 0 50 450 250 (subpatch) 0;
#X array \$0-HANN-WINDOW 4096 float 2;
#A color 0;
#A width 2;
#X coords 0 1 4096 0 255 142 1;
#X restore 1525 836 graph;
#X msg 1626 662 0;
#X obj 1531 719 osc~, f 14;
#X obj 1531 671 samplerate~;
#X obj 1531 742 *~ -0.5;
#X obj 1531 766 +~ 0.5;
#X obj 1523 643 bng 19 250 50 0 empty empty empty 0 -6 0 8 #dfdfdf #000000 #000000;
#X text 1545 641 RECALCULATE;
#X obj 1531 695 / 4096;
#X obj 1523 793 tabwrite~ \$0-HANN-WINDOW;
#X obj 1523 617 receive pd-dsp-started;
#N canvas 0 50 450 250 (subpatch) 0;
#X array \$0-SPECTRUM-LEFT 350 float 0;
#A color 900;
#A width 1;
#X coords 0 20 349 -60 1024 250 1;
#X restore 111 131 graph;
#X obj 108 974 tabwrite~ \$0-SPECTRUM-LEFT;
#X obj 1366 786 loadbang;
#X msg 1366 811 color 900;
#X obj 1366 836 s \$0-SPECTRUM-LEFT;
#X obj 724 534 inlet~;
#X obj 756 690 *~;
#X obj 723 690 *~;
#X obj 722 715 +~;
#X obj 724 598 *~;
#X obj 724 626 rfft~;
#X obj 852 924 bng 20 250 50 0 empty empty empty 0 -10 0 12 #fcfcfc #000000 #000000;
#X obj 876 923 bang~;
#X text 917 921 (WINDOW-SIZE/SR)*1000;
#X obj 816 627 r \$0-WINDOW-SIZE;
#X obj 816 651 / 2;
#X obj 852 950 spigot;
#X obj 903 950 tgl 20 0 empty empty empty 0 -10 0 12 #fcfcfc #000000 #000000 0 1;
#X obj 928 950 r \$0-DRAW;
#X obj 743 573 tabreceive~ \$0-HANN-WINDOW;
#X text 847 654 DIVIDING BY WINDOW-SIZE/2 SINCE INPUT IS REAL SINUSOID;
#X obj 722 980 tabwrite~ \$0-SPECTRUM-RIGHT;
#X obj 1060 108 bng 20 250 50 0 \$0-DRAW-ONCE \$0-i-DRAW-ONCE empty 0 -10 0 12 #ff0400 #000000 #000000;
#X obj 745 949 r \$0-DRAW-ONCE;
#X obj 120 941 r \$0-DRAW-ONCE;
#X obj 1088 562 bng 20 250 50 0 empty empty empty 0 -10 0 12 #fcfcfc #000000 #000000;
#X obj 1088 587 s \$0-i-DRAW-ONCE;
#X obj 1088 537 inlet;
#X obj 1367 871 loadbang;
#X msg 1367 896 1;
#X obj 1367 921 s \$0-i-SCALE;
#X msg 1716 720 const 1;
#X obj 1716 745 s \$0-HANN-WINDOW;
#X obj 724 660 /~;
#X obj 755 659 /~;
#X obj 816 676 / 2;
#X text 849 676 MULTIPLY(2 DIVISIONS) BY 2 BECAUSE OF HANN WINDOW MULTIPLICATION, f 65;
#X text 731 760 ------> HERE WE HAVE MAGNITUDE IN THE SCALE OF [0-1];
#X obj 143 680 *~;
#X obj 110 680 *~;
#X obj 109 705 +~;
#X obj 111 588 *~;
#X obj 111 616 rfft~;
#X obj 203 617 r \$0-WINDOW-SIZE;
#X obj 203 641 / 2;
#X obj 130 563 tabreceive~ \$0-HANN-WINDOW;
#X obj 111 650 /~;
#X obj 142 649 /~;
#X obj 203 666 / 2;
#X text 231 644 DIVIDING BY WINDOW-SIZE/2 SINCE INPUT IS REAL SINUSOID;
#X text 233 666 MULTIPLY(2 DIVISIONS) BY 2 BECAUSE OF HANN WINDOW MULTIPLICATION, f 65;
#X text 116 751 ------> HERE WE HAVE MAGNITUDE IN THE SCALE OF [0-1];
#X obj 108 731 sqrt~;
#X obj 722 740 sqrt~;
#X obj 109 803 expr~ 20*log10($v1);
#X obj 721 820 expr~ 20*log10($v1);
#X obj 109 833 clip~ -60 20;
#X obj 721 850 clip~ -60 20;
#X text 107 121 ---------------------------------------------------------------------------------------------------------------------------------------------------- +20dB, f 154;
#X text 107 371 ---------------------------------------------------------------------------------------------------------------------------------------------------- -60dB, f 154;
#X text 107 151 ---------------------------------------------------------------------------------------------------------------------------------------------------- +10dB, f 154;
#X text 107 245 ---------------------------------------------------------------------------------------------------------------------------------------------------- -20dB, f 154;
#X text 107 275 ---------------------------------------------------------------------------------------------------------------------------------------------------- -30dB, f 154;
#X text 107 307 ---------------------------------------------------------------------------------------------------------------------------------------------------- -40dB, f 154;
#X text 107 339 ---------------------------------------------------------------------------------------------------------------------------------------------------- -50dB, f 154;
#X obj 104 191 cnv 5 1040 5 empty empty empty 20 12 0 12 #00faff #404040 0;
#X text 107 213 ---------------------------------------------------------------------------------------------------------------------------------------------------- -10dB, f 154;
#X text 107 183 ---------------------------------------------------------------------------------------------------------------------------------------------------- +0dB, f 154;
#X obj 161 131 cnv 1 1 255 empty empty empty 20 12 0 12 #00faff #404040 0;
#X obj 211 131 cnv 1 1 255 empty empty empty 20 12 0 12 #00faff #404040 0;
#X obj 311 131 cnv 1 1 255 empty empty empty 20 12 0 12 #00faff #404040 0;
#X obj 511 131 cnv 1 1 255 empty empty empty 20 12 0 12 #00faff #404040 0;
#X obj 911 131 cnv 1 1 255 empty empty empty 20 12 0 12 #00faff #404040 0;
#X text 1117 130 10;
#X text 1096 160 3.162;
#X text 1124 193 1;
#X text 1096 222 0.316;
#X text 1110 254 0.1;
#X text 1089 283 0.0316;
#X text 1103 316 0.01;
#X text 1082 348 0.00316;
#X text 1114 391 24000;
#X text 1129 377 |;
#X text 106 377 |;
#X text 106 392 0;
#X connect 1 0 67 0;
#X connect 2 0 5 0;
#X connect 3 0 2 0;
#X connect 5 0 27 0;
#X connect 6 0 5 1;
#X connect 7 0 6 0;
#X connect 9 0 8 0;
#X connect 10 0 11 0;
#X connect 11 0 12 0;
#X connect 13 0 9 0;
#X connect 16 0 17 1;
#X connect 17 0 19 0;
#X connect 18 0 23 0;
#X connect 19 0 20 0;
#X connect 20 0 24 0;
#X connect 21 0 18 0;
#X connect 21 0 16 0;
#X connect 21 0 24 0;
#X connect 23 0 17 0;
#X connect 25 0 21 0;
#X connect 28 0 29 0;
#X connect 29 0 30 0;
#X connect 31 0 35 0;
#X connect 32 0 34 1;
#X connect 33 0 34 0;
#X connect 34 0 79 0;
#X connect 35 0 36 0;
#X connect 36 0 59 0;
#X connect 36 1 60 0;
#X connect 37 0 42 0;
#X connect 38 0 37 0;
#X connect 40 0 41 0;
#X connect 41 0 61 0;
#X connect 42 0 47 0;
#X connect 43 0 42 1;
#X connect 44 0 43 0;
#X connect 45 0 35 1;
#X connect 49 0 47 0;
#X connect 50 0 27 0;
#X connect 51 0 52 0;
#X connect 53 0 51 0;
#X connect 54 0 55 0;
#X connect 55 0 56 0;
#X connect 57 0 58 0;
#X connect 59 0 33 0;
#X connect 59 0 33 1;
#X connect 60 0 32 0;
#X connect 60 0 32 1;
#X connect 61 0 60 1;
#X connect 61 0 59 1;
#X connect 64 0 66 1;
#X connect 65 0 66 0;
#X connect 66 0 78 0;
#X connect 67 0 68 0;
#X connect 68 0 72 0;
#X connect 68 1 73 0;
#X connect 69 0 70 0;
#X connect 70 0 74 0;
#X connect 71 0 67 1;
#X connect 72 0 65 0;
#X connect 72 0 65 1;
#X connect 73 0 64 0;
#X connect 73 0 64 1;
#X connect 74 0 73 1;
#X connect 74 0 72 1;
#X connect 78 0 80 0;
#X connect 79 0 81 0;
#X connect 80 0 82 0;
#X connect 81 0 83 0;
#X connect 82 0 27 0;
#X connect 83 0 47 0;
#X coords 0 -1 1 1 1100 315 2 100 100;
