#N canvas 66 32 1854 977 12;
#N canvas 0 50 450 250 (subpatch) 0;
#X array \$0-SPECTRUM 350 float 0;
#A color 0;
#A width 1;
#X coords 0 1 349 0 1024 250 1;
#X restore 109 131 graph;
#X text 104 376 |;
#X text 129 376 |;
#X text 154 376 |;
#X text 179 376 |;
#X text 204 376 |;
#X text 229 376 |;
#X text 254 376 |;
#X text 279 376 |;
#X text 304 376 |;
#X text 329 376 |;
#X text 354 376 |;
#X text 379 376 |;
#X text 404 376 |;
#X text 429 376 |;
#X text 454 376 |;
#X text 479 376 |;
#X text 504 376 |;
#X text 529 376 |;
#X text 554 376 |;
#X text 579 376 |;
#X text 604 376 |;
#X text 629 376 |;
#X text 654 376 |;
#X text 679 376 |;
#X text 704 376 |;
#X text 729 376 |;
#X text 754 376 |;
#X text 779 376 |;
#X text 804 376 |;
#X text 829 376 |;
#X text 854 376 |;
#X text 879 376 |;
#X text 904 376 |;
#X text 929 376 |;
#X text 954 376 |;
#X text 979 376 |;
#X text 1004 376 |;
#X text 1029 376 |;
#X text 1054 376 |;
#X text 1079 376 |;
#X text 1104 376 |;
#X text 104 390 0;
#X text 129 403 100;
#X text 154 390 200;
#X text 179 403 300;
#X text 204 390 400;
#X text 229 403 500;
#X text 254 390 600;
#X text 279 403 700;
#X text 304 390 800;
#X text 329 403 900;
#X text 354 390 1000;
#X text 379 403 1100;
#X text 404 390 1200;
#X text 429 403 1300;
#X text 454 390 1400;
#X text 479 403 1500;
#X text 504 390 1600;
#X text 529 403 1700;
#X text 554 390 1800;
#X text 579 403 1900;
#X text 604 390 2000;
#X text 629 403 2100;
#X text 654 390 2200;
#X text 679 403 2300;
#X text 704 390 2400;
#X text 729 403 2500;
#X text 754 390 2600;
#X text 779 403 2700;
#X text 804 390 2800;
#X text 829 403 2900;
#X text 854 390 3000;
#X text 879 403 3100;
#X text 904 390 3200;
#X text 929 403 3300;
#X text 954 390 3400;
#X text 979 403 3500;
#X text 1004 390 3600;
#X text 1029 403 3700;
#X text 1054 390 3800;
#X text 1079 403 3900;
#X text 1104 390 4000;
