#N canvas 501 169 918 689 12;
#X floatatom 332 257 5 0 0 0 - - - 0;
#X obj 332 281 s selection-number;
#X text 299 11 THIS WILL BE IN THE MAIN COMPOSITION PATCH;
#X text 22 13 VERSION 0;
#X text 133 12 MPD218 CONFIGURATION;
#N canvas 297 118 560 715 knobs 0;
#X obj 26 25 ctlin 1;
#X floatatom 26 49 5 0 0 0 - - - 0;
#X obj 26 72 pack f f;
#X obj 92 71 r selection-number;
#X msg 26 97 \; \$2-CC-1 \$1;
#X obj 26 401 r 7-CC-1;
#X floatatom 26 426 5 0 0 0 - - - 0;
#X floatatom 239 47 5 0 0 0 - - - 0;
#X obj 239 70 pack f f;
#X obj 305 69 r selection-number;
#X obj 239 23 ctlin 2;
#X msg 239 95 \; \$2-CC-2 \$1;
#X floatatom 26 169 5 0 0 0 - - - 0;
#X obj 26 192 pack f f;
#X obj 92 191 r selection-number;
#X floatatom 238 167 5 0 0 0 - - - 0;
#X obj 238 190 pack f f;
#X obj 304 189 r selection-number;
#X floatatom 26 289 5 0 0 0 - - - 0;
#X obj 26 312 pack f f;
#X obj 92 311 r selection-number;
#X floatatom 238 287 5 0 0 0 - - - 0;
#X obj 238 310 pack f f;
#X obj 304 309 r selection-number;
#X obj 26 145 ctlin 3;
#X msg 26 217 \; \$2-CC-3 \$1;
#X obj 238 143 ctlin 4;
#X msg 238 215 \; \$2-CC-4 \$1;
#X obj 26 265 ctlin 5;
#X msg 26 337 \; \$2-CC-5 \$1;
#X obj 238 263 ctlin 6;
#X msg 238 335 \; \$2-CC-6 \$1;
#X text 17 467 Could be extended with 2 more set of 6 for banks B and AB;
#X connect 0 0 1 0;
#X connect 1 0 2 0;
#X connect 2 0 4 0;
#X connect 3 0 2 1;
#X connect 5 0 6 0;
#X connect 7 0 8 0;
#X connect 8 0 11 0;
#X connect 9 0 8 1;
#X connect 10 0 7 0;
#X connect 12 0 13 0;
#X connect 13 0 25 0;
#X connect 14 0 13 1;
#X connect 15 0 16 0;
#X connect 16 0 27 0;
#X connect 17 0 16 1;
#X connect 18 0 19 0;
#X connect 19 0 29 0;
#X connect 20 0 19 1;
#X connect 21 0 22 0;
#X connect 22 0 31 0;
#X connect 23 0 22 1;
#X connect 24 0 12 0;
#X connect 26 0 15 0;
#X connect 28 0 18 0;
#X connect 30 0 21 0;
#X restore 332 156 pd knobs;
#N canvas 115 81 610 300 note-pads 0;
#X obj 32 64 notein 1, f 12;
#X floatatom 32 89 5 0 0 1 note - - 0;
#X floatatom 113 89 5 0 0 1 velocity - - 0;
#X obj 32 118 spigot;
#X obj 89 118 tgl 20 0 empty empty empty 0 -10 0 12 #fcfcfc #000000 #000000 0 1;
#X text 113 118 When velocity is 0 (note-off) \, the midi does not pass;
#X obj 85 148 r selection-number;
#X obj 32 174 pack f f;
#X text 30 24 NOTE PADs ---------, f 10;
#X text 141 26 TO BE ASSIGNED BANKS B and Maybe even C. same structure as one-shot but instead of bang sends \$2-note \$1. AND sending velocity is important here for ADSR.;
#X connect 0 0 1 0;
#X connect 0 1 2 0;
#X connect 1 0 3 0;
#X connect 2 0 4 0;
#X connect 3 0 7 0;
#X connect 4 0 3 1;
#X connect 6 0 7 1;
#X restore 332 180 pd note-pads;
#N canvas 932 234 570 489 one-shot-pads 0;
#X obj 30 72 notein 1, f 12;
#X floatatom 30 97 5 0 0 1 note - - 0;
#X floatatom 111 97 5 0 0 1 velocity - - 0;
#X obj 30 198 spigot;
#X text 249 224 When velocity is 0 (note-off) \, the midi does not pass, f 30;
#X obj 96 292 r selection-number;
#X obj 30 122 sel 12 13 14 15, f 32;
#X obj 30 414 bng 20 250 50 0 empty empty empty 0 -10 0 12 #fcfcfc #000000 #000000;
#X text 27 29 ONE-SHOT PAD SENDER -------------------, f 19;
#X text 26 369 Example for selection numebr (clip) 7;
#X obj 85 198 spigot;
#X obj 140 198 spigot;
#X obj 195 198 spigot;
#X obj 30 222 bng 20 250 50 0 empty empty empty 0 -10 0 12 #fcfcfc #000000 #000000;
#X obj 85 221 bng 20 250 50 0 empty empty empty 0 -10 0 12 #fcfcfc #000000 #000000;
#X obj 140 223 bng 20 250 50 0 empty empty empty 0 -10 0 12 #fcfcfc #000000 #000000;
#X obj 195 222 bng 20 250 50 0 empty empty empty 0 -10 0 12 #fcfcfc #000000 #000000;
#X msg 30 245 12;
#X msg 85 244 13;
#X msg 140 246 14;
#X msg 195 245 15;
#X obj 30 292 pack f f;
#X msg 30 319 \; \$2-one-shot-\$1 bang;
#X obj 30 390 r 7-one-shot-12;
#X obj 143 414 bng 20 250 50 0 empty empty empty 0 -10 0 12 #fcfcfc #000000 #000000;
#X obj 258 414 bng 20 250 50 0 empty empty empty 0 -10 0 12 #fcfcfc #000000 #000000;
#X obj 371 414 bng 20 250 50 0 empty empty empty 0 -10 0 12 #fcfcfc #000000 #000000;
#X obj 143 390 r 7-one-shot-13;
#X obj 258 390 r 7-one-shot-14;
#X obj 371 390 r 7-one-shot-15;
#X obj 307 188 s i-mpd-pad-12-oneshot;
#X obj 318 171 s i-mpd-pad-13-oneshot;
#X obj 328 157 s i-mpd-pad-14-oneshot;
#X obj 249 198 tgl 20 0 empty empty empty 0 -10 0 12 #fcfcfc #000000 #000000 0 1;
#X obj 342 142 s i-mpd-pad-15-oneshot;
#X text 9 4 VERY GOOD MIDI PROTOCOL DESIGN (PADS) -> VELOCITY IS OUTPUTTED BEFORE THE NOTE, f 80;
#X connect 0 0 1 0;
#X connect 0 1 2 0;
#X connect 1 0 6 0;
#X connect 2 0 33 0;
#X connect 3 0 13 0;
#X connect 5 0 21 1;
#X connect 6 0 3 0;
#X connect 6 0 30 0;
#X connect 6 1 10 0;
#X connect 6 1 31 0;
#X connect 6 2 11 0;
#X connect 6 2 32 0;
#X connect 6 3 12 0;
#X connect 6 3 34 0;
#X connect 10 0 14 0;
#X connect 11 0 15 0;
#X connect 12 0 16 0;
#X connect 13 0 17 0;
#X connect 14 0 18 0;
#X connect 15 0 19 0;
#X connect 16 0 20 0;
#X connect 17 0 21 0;
#X connect 18 0 21 0;
#X connect 19 0 21 0;
#X connect 20 0 21 0;
#X connect 21 0 22 0;
#X connect 23 0 7 0;
#X connect 27 0 24 0;
#X connect 28 0 25 0;
#X connect 29 0 26 0;
#X connect 33 0 12 1;
#X connect 33 0 11 1;
#X connect 33 0 10 1;
#X connect 33 0 3 1;
#X restore 332 132 pd one-shot-pads;
#N canvas 52 20 1854 977 clip-ctrl 1;
#X obj 54 33 notein 1;
#X obj 415 329 r selection-number;
#X obj 54 61 sel 7 9 10;
#X obj 52 331 f;
#X obj 208 329 f;
#X obj 384 329 f;
#X msg 52 358 \; \$1-rec-queue bang;
#X msg 208 357 \; \$1-launch-queue bang;
#X msg 384 356 \; \$1-loop-on bang;
#X obj 60 476 r 7-rec-queue;
#X obj 60 501 bng 20 250 50 0 empty empty empty 0 -10 0 12 #fcfcfc #000000 #000000;
#X obj 54 92 spigot;
#X obj 54 180 s i-mpd-pad-7-rec-queue;
#X obj 107 92 spigot;
#X obj 160 92 spigot;
#X obj 210 92 tgl 20 0 empty empty empty 0 -10 0 12 #fcfcfc #000000 #000000 0 1;
#X obj 412 74 r mpd-pad-7-rec-queue;
#X obj 412 103 sel 1;
#X obj 412 128 del 100;
#X msg 412 153 144 7 127;
#X obj 412 218 midiout 1;
#X obj 52 281 r mpd-pad-7-rec-queue;
#X obj 52 305 bng 20 250 50 0 empty empty empty 0 -10 0 12 #fcfcfc #000000 #000000;
#X obj 208 305 bng 20 250 50 0 empty empty empty 0 -10 0 12 #fcfcfc #000000 #000000;
#X obj 384 304 bng 20 250 50 0 empty empty empty 0 -10 0 12 #fcfcfc #000000 #000000;
#X obj 160 131 s i-mpd-pad-10-loop;
#X obj 495 124 sel 1;
#X obj 495 149 del 100;
#X obj 577 152 sel 1;
#X obj 577 177 del 100;
#X msg 495 174 144 9 127;
#X msg 577 202 144 10 127;
#X obj 169 500 bng 20 250 50 0 empty empty empty 0 -10 0 12 #fcfcfc #000000 #000000;
#X obj 169 475 r 7-launch-queue;
#X obj 297 500 bng 20 250 50 0 empty empty empty 0 -10 0 12 #fcfcfc #000000 #000000;
#X obj 297 475 r 7-loop-on;
#X obj 577 127 r mpd-pad-10-loop;
#X text 60 451 For test Clip 7;
#X obj 107 156 s i-mpd-pad-9-launch-queue;
#X obj 495 99 r mpd-pad-9-launch-queue;
#X obj 208 281 r mpd-pad-9-launch-queue;
#X text 408 44 REMOVED LED VISUALIZATION;
#X obj 384 281 r mpd-pad-10-loop;
#X connect 0 0 2 0;
#X connect 0 1 15 0;
#X connect 1 0 3 1;
#X connect 1 0 4 1;
#X connect 1 0 5 1;
#X connect 2 0 11 0;
#X connect 2 1 13 0;
#X connect 2 2 14 0;
#X connect 3 0 6 0;
#X connect 4 0 7 0;
#X connect 5 0 8 0;
#X connect 9 0 10 0;
#X connect 11 0 12 0;
#X connect 13 0 38 0;
#X connect 14 0 25 0;
#X connect 15 0 14 1;
#X connect 15 0 13 1;
#X connect 15 0 11 1;
#X connect 16 0 17 0;
#X connect 17 0 18 0;
#X connect 18 0 19 0;
#X connect 21 0 22 0;
#X connect 22 0 3 0;
#X connect 23 0 4 0;
#X connect 24 0 5 0;
#X connect 26 0 27 0;
#X connect 27 0 30 0;
#X connect 28 0 29 0;
#X connect 29 0 31 0;
#X connect 33 0 32 0;
#X connect 35 0 34 0;
#X connect 36 0 28 0;
#X connect 39 0 26 0;
#X connect 40 0 23 0;
#X connect 42 0 24 0;
#X restore 332 204 pd clip-ctrl;
#X obj 112 128 tgl 40 0 mpd-pad-8-master-clock i-mpd-pad-8-master-clock 8 30 32 0 12 #fcfcfc #000000 #000000 0 1;
#X obj 156 128 tgl 40 0 mpd-pad-9-launch-queue i-mpd-pad-9-launch-queue 9 30 32 0 12 #fcfcfc #000000 #000000 0 1;
#X obj 200 128 tgl 40 0 mpd-pad-10-loop i-mpd-pad-10-loop 10 24 32 0 12 #fcfcfc #000000 #000000 0 1;
#X obj 245 128 tgl 40 0 mpd-pad-11-free i-mpd-pad-11-free 11 24 32 0 12 #fcfcfc #000000 #000000 0 1;
#X obj 112 172 tgl 40 0 mpd-pad-12-oneshot-dummy i-mpd-pad-12-oneshot 12 24 32 0 12 #fcfcfc #000000 #000000 0 1;
#X obj 156 172 tgl 40 0 mpd-pad-13-oneshot-dummy i-mpd-pad-13-oneshot 13 24 32 0 12 #fcfcfc #000000 #000000 0 1;
#X obj 200 172 tgl 40 0 mpd-pad-14-oneshot-dummy i-mpd-pad-14-oneshot 14 24 32 0 12 #fcfcfc #000000 #000000 0 1;
#X obj 245 172 tgl 40 0 mpd-pad-15-oneshot-dummy i-mpd-pad-15-oneshot 15 24 32 0 12 #fcfcfc #000000 #000000 0 1;
#X obj 112 216 tgl 40 0 mpd-pad-7-rec-queue i-mpd-pad-7-rec-queue 7 30 32 0 12 #fcfcfc #000000 #000000 0 1;
#X obj 156 216 tgl 40 0 i-mpd-pad-6-sel-off-dummy i-mpd-pad-6-sel-off 6 30 32 0 12 #fcfcfc #000000 #000000 0 1;
#X obj 200 216 tgl 40 0 mpd-pad-5-free i-mpd-pad-5-free 5 30 32 0 12 #fcfcfc #000000 #000000 0 1;
#N canvas 1008 233 817 632 selector 0;
#X obj 438 44 notein 1;
#X obj 438 69 sel 0 1 2 3 4, f 38;
#X obj 20 116 expr (1*$i1 + 2*$i2 + 4*$i3 + 8*$i4 + 16*$i5);
#X obj 20 168 outlet;
#X obj 66 86 t b f;
#X obj 144 86 t b f;
#X obj 222 88 t b f;
#X obj 300 90 t b f;
#X obj 438 98 spigot;
#X obj 699 98 tgl 20 0 empty empty empty 0 -10 0 12 #fcfcfc #000000 #000000 0 1;
#X obj 490 98 spigot;
#X obj 543 98 spigot;
#X obj 595 98 spigot;
#X obj 648 98 spigot;
#X obj 648 124 s i-mpd-pad-4-sel;
#X obj 595 146 s i-mpd-pad-3-sel;
#X obj 543 169 s i-mpd-pad-2-sel;
#X obj 490 192 s i-mpd-pad-1-sel;
#X obj 438 215 s i-mpd-pad-0-sel;
#X msg 437 455 144 0 127;
#X msg 459 479 144 1 127;
#X msg 481 503 144 2 127;
#X msg 505 526 144 3 127;
#X msg 527 549 144 4 127;
#X obj 437 590 midiout 1;
#X obj 437 243 r mpd-pad-0-sel;
#X obj 459 266 r mpd-pad-1-sel;
#X obj 481 289 r mpd-pad-2-sel;
#X obj 505 309 r mpd-pad-3-sel;
#X obj 527 332 r mpd-pad-4-sel;
#X obj 437 338 sel 1;
#X obj 459 348 sel 1;
#X obj 481 358 sel 1;
#X obj 505 368 sel 1;
#X obj 527 378 sel 1;
#X obj 437 387 del 100;
#X obj 459 398 del 100;
#X obj 481 412 del 100;
#X obj 505 426 del 100;
#X obj 527 441 del 100;
#X obj 20 42 r mpd-pad-0-sel;
#X obj 66 64 r mpd-pad-1-sel;
#X obj 144 42 r mpd-pad-2-sel;
#X obj 222 66 r mpd-pad-3-sel;
#X obj 300 44 r mpd-pad-4-sel;
#X floatatom 20 142 5 0 0 0 - - - 0;
#X obj 22 205 notein 1;
#X obj 22 230 sel 6;
#X obj 22 264 spigot;
#X obj 75 264 tgl 20 0 empty empty empty 0 -10 0 12 #fcfcfc #000000 #000000 0 1;
#X msg 22 291 0;
#X obj 232 392 s i-mpd-pad-4-sel;
#X obj 179 376 s i-mpd-pad-3-sel;
#X obj 127 359 s i-mpd-pad-2-sel;
#X obj 75 343 s i-mpd-pad-1-sel;
#X obj 22 328 s i-mpd-pad-0-sel;
#X obj 23 491 midiout 1;
#X msg 23 372 128 0 0;
#X msg 45 392 128 1 0;
#X msg 67 412 128 2 0;
#X msg 91 432 128 3 0;
#X msg 113 452 128 4 0;
#X text 24 10 PADS 0-4 selecting where to route the midi info - PAD 6 clears selection, f 80;
#X obj 105 264 s i-mpd-pad-6-sel-off;
#X connect 0 0 1 0;
#X connect 0 1 9 0;
#X connect 1 0 8 0;
#X connect 1 1 10 0;
#X connect 1 2 11 0;
#X connect 1 3 12 0;
#X connect 1 4 13 0;
#X connect 2 0 45 0;
#X connect 4 0 2 0;
#X connect 4 1 2 1;
#X connect 5 0 2 0;
#X connect 5 1 2 2;
#X connect 6 0 2 0;
#X connect 6 1 2 3;
#X connect 7 0 2 0;
#X connect 7 1 2 4;
#X connect 8 0 18 0;
#X connect 9 0 13 1;
#X connect 9 0 12 1;
#X connect 9 0 11 1;
#X connect 9 0 10 1;
#X connect 9 0 8 1;
#X connect 10 0 17 0;
#X connect 11 0 16 0;
#X connect 12 0 15 0;
#X connect 13 0 14 0;
#X connect 19 0 24 0;
#X connect 20 0 24 0;
#X connect 21 0 24 0;
#X connect 22 0 24 0;
#X connect 23 0 24 0;
#X connect 25 0 30 0;
#X connect 26 0 31 0;
#X connect 27 0 32 0;
#X connect 28 0 33 0;
#X connect 29 0 34 0;
#X connect 30 0 35 0;
#X connect 31 0 36 0;
#X connect 32 0 37 0;
#X connect 33 0 38 0;
#X connect 34 0 39 0;
#X connect 35 0 19 0;
#X connect 36 0 20 0;
#X connect 37 0 21 0;
#X connect 38 0 22 0;
#X connect 39 0 23 0;
#X connect 40 0 2 0;
#X connect 41 0 4 0;
#X connect 42 0 5 0;
#X connect 43 0 6 0;
#X connect 44 0 7 0;
#X connect 45 0 3 0;
#X connect 46 0 47 0;
#X connect 46 1 49 0;
#X connect 47 0 48 0;
#X connect 47 0 63 0;
#X connect 48 0 50 0;
#X connect 49 0 48 1;
#X connect 50 0 55 0;
#X connect 50 0 54 0;
#X connect 50 0 53 0;
#X connect 50 0 52 0;
#X connect 50 0 51 0;
#X connect 50 0 57 0;
#X connect 50 0 61 0;
#X connect 50 0 60 0;
#X connect 50 0 59 0;
#X connect 50 0 58 0;
#X connect 57 0 56 0;
#X connect 58 0 56 0;
#X connect 59 0 56 0;
#X connect 60 0 56 0;
#X connect 61 0 56 0;
#X restore 332 231 pd selector;
#X obj 112 260 tgl 40 0 mpd-pad-3-sel i-mpd-pad-3-sel 3 30 32 0 12 #fcfcfc #000000 #000000 0 1;
#X obj 156 260 tgl 40 0 mpd-pad-2-sel i-mpd-pad-2-sel 2 30 32 0 12 #fcfcfc #000000 #000000 0 1;
#X obj 200 260 tgl 40 0 mpd-pad-1-sel i-mpd-pad-1-sel 1 30 32 0 12 #fcfcfc #000000 #000000 0 1;
#X obj 245 260 tgl 40 0 mpd-pad-0-sel i-mpd-pad-0-sel 0 30 32 0 12 #fcfcfc #000000 #000000 0 1;
#X obj 245 216 tgl 40 0 mpd-pad-4-sel i-mpd-pad-4-sel 4 30 32 0 12 #fcfcfc #000000 #000000 0 1;
#X text 101 367 0 - 4: selection \; 5: free \; 6: selections off \; 7: Record queue on \; 12 - 15: one-shot \; 8: Master clock on \; 9: Launch/Stop Queue \; 10: Loop on/off \; 11: free \;;
#X text 100 346 All PADs setups are momentary with no aftertouch;
#N canvas 1044 522 466 156 master-clock 0;
#X obj 32 17 notein 1;
#X obj 32 42 sel 8;
#X obj 32 67 spigot;
#X obj 85 67 tgl 20 0 empty empty empty 0 -10 0 12 #fcfcfc #000000 #000000 0 1;
#X obj 32 92 s i-mpd-pad-8-master-clock;
#X connect 0 0 1 0;
#X connect 0 1 3 0;
#X connect 1 0 2 0;
#X connect 2 0 4 0;
#X connect 3 0 2 1;
#X restore 332 108 pd master-clock;
#X text 111 104 MPD218;
#X text 239 104 Bank-A;
#X connect 0 0 1 0;
#X connect 20 0 0 0;
#X coords 0 -1 1 1 200 210 2 100 100;
