#N canvas 1920 0 1920 1009 12;
#X obj 293 6 ../5.reference/set-dsp-tgl;
#X msg 293 44 \; pd dsp \$1;
#X obj 27 9 cnv 5 170 25 empty empty FOURIER\ ANALYSIS 10 15 2 15 #ff0400 #202020 0;
#X msg 1486 379 0;
#X obj 1379 436 osc~;
#X obj 1379 388 samplerate~;
#X obj 1379 459 *~ -0.5;
#X obj 1379 482 +~ 0.5;
#X obj 1371 360 bng 19 250 50 0 empty empty empty 0 -6 0 8 #dfdfdf #000000 #000000;
#X obj 1384 132 bng 20 250 50 0 empty empty Constant-1 23 10 0 12 #7c7c7c #000000 #000000;
#X obj 1412 152 f \$0;
#N canvas 0 50 450 250 (subpatch) 0;
#X array \$0-input 16069 float 2;
#A color 0;
#A width 2;
#X coords 0 1 16069 -1 600 200 1;
#X restore 30 131 graph;
#N canvas 0 50 450 250 (subpatch) 0;
#X array \$0-window-analysis 1024 float 2;
#A color 0;
#A width 2;
#X coords 0 1 1024 0 350 150 1;
#X restore 1371 554 graph;
#X obj 1384 55 bng 20 250 50 0 empty empty Constant-0 23 10 0 12 #7c7c7c #000000 #000000;
#X obj 1418 75 f \$0;
#X msg 1418 97 \; \$1-input const 0;
#N canvas 1943 25 450 250 (subpatch) 0;
#X array \$0-output 17029 float 2;
#A color 0;
#A width 2;
#X coords 0 1 17029 -1 600 200 1;
#X restore 29 783 graph;
#X obj 1384 227 bng 20 250 50 0 empty empty Constant-0 23 10 0 12 #7c7c7c #000000 #000000;
#X obj 1414 247 f \$0;
#X msg 1414 269 \; \$1-output const 0;
#X obj 1384 7 bng 40 250 50 0 empty empty RESET\ ALL 45 20 0 12 #fcfcfc #000000 #000000;
#X text 667 15 ZERO-PADDING: ANALYSIS AND RESYNTHESIS \; -------------------------------------- \; # 206.18s/movies/206-3b \; # NO PHASE MANIPULATION: STATIC FILTERING \, COMPANDING \, NOISE SEPARATION \, VOCODING \; # PHASE MANIPULATION: TIME-STRETCHING \, PHASE-ALIGNED SPLICING \, FFT REVERB \;, f 55;
#X text 1070 4 # YOU CAN USE NOISE SEPARATION \, TAKING INCOMING SIGNAL AND SEPARATE IT INTO BINS. BUT THEN ON BIN TO BIN BASIS \, DECIDE IF WHAT WE HAVE IS SINUSOIDAL OR NON SINUSOIDAL. THEN WE GENERATE TWO OUTPUT. ONE FOR THE STUFF THAT LOOKED SINUSOIDAL AND THE OTHER ONE FOR THE STUFF THAT DO NOT LOOK SINUSOIDAL. THEN YOU TIME STRETCH THE SINUSOIDAL STUFF WITH A PHASE-VOCODER ALGORITHM WHICH WORKS FINE FOR IT AND THE NON-SINUSOIDAL STUFF WITH A GRANULATOR STRETCHING ALOGIRITHM WHICH WORKS GREAT FOR IT BUT BAD FOR PITCHY STUFF. THEN MIX THE TWO., f 38;
#N canvas 0 50 450 250 (subpatch) 0;
#X array \$0-window-resynthesis 1024 float 2;
#A color 0;
#A width 2;
#X coords 0 1 1024 0 350 150 1;
#X restore 1372 728 graph;
#X obj 1371 510 tabwrite~ \$0-window-analysis;
#X msg 1705 381 0;
#X obj 1598 438 osc~;
#X obj 1598 390 samplerate~;
#X obj 1598 461 *~ -0.5;
#X obj 1598 484 +~ 0.5;
#X obj 1590 362 bng 19 250 50 0 empty empty empty 0 -6 0 8 #dfdfdf #000000 #000000;
#X obj 1590 512 tabwrite~ \$0-window-resynthesis;
#X obj 1379 412 / 1024;
#X obj 1598 414 / 1024;
#X obj 644 209 openpanel;
#X obj 644 302 soundfiler, f 31;
#X obj 885 172 f \$0;
#X obj 885 148 bng 20 250 50 0 empty \$0-normalize empty 0 -10 0 12 #fcfcfc #000000 #000000;
#X msg 644 171 symbol /home/mobin/Documents/Sounds, f 29;
#X obj 644 231 pack s \$0, f 25;
#X msg 644 278 read -resize \$1 \$2-input;
#X msg 885 196 \; \$1-input normalize \;;
#X obj 644 143 bng 20 250 50 0 empty empty empty 0 -10 0 12 #fcfcfc #000000 #000000;
#X listbox 644 254 50 0 0 0 - - - 0;
#N canvas 2536 252 821 612 FFT-ANALYSIS-RESYNTHESIS 0;
#X obj 35 83 *~;
#X obj 66 83 tabreceive~ \$0-window-analysis;
#X obj 35 130 rfft~, f 6;
#X obj 34 221 /~;
#X obj 73 221 /~;
#X obj 108 119 loadbang;
#X obj 108 144 bng 20 250 50 0 empty empty empty 0 -10 0 12 #fcfcfc #000000 #000000;
#X msg 108 169 1.5;
#X obj 108 194 * 1024;
#X obj 33 443 rifft~;
#X obj 33 468 *~;
#X obj 64 468 tabreceive~ \$0-window-resynthesis;
#X obj 36 25 inlet~;
#X obj 33 544 outlet~;
#X obj 602 26 block~ 1024 4;
#X text 94 25 OVERLAPPING RE-BUFFERING (EACH 256 SAMPLE SLIDES);
#X text 145 169 DIVIDE BY 3/2 FOR 4 OVERLAPPING HANN-WINDOW;
#X text 97 544 OVERLAP ADD AND RE-BLOCK;
#X connect 0 0 2 0;
#X connect 1 0 0 1;
#X connect 2 0 3 0;
#X connect 2 1 4 0;
#X connect 3 0 9 0;
#X connect 4 0 9 1;
#X connect 5 0 6 0;
#X connect 6 0 7 0;
#X connect 7 0 8 0;
#X connect 8 0 4 1;
#X connect 8 0 3 1;
#X connect 9 0 10 0;
#X connect 10 0 13 0;
#X connect 11 0 10 1;
#X connect 12 0 0 0;
#X restore 35 490 pd FFT-ANALYSIS-RESYNTHESIS;
#X msg 730 397 \; \$2-output resize \$1;
#X floatatom 644 327 5 0 0 0 - - - 0;
#X obj 730 371 pack \$1 \$0;
#X msg 1412 175 \; \$1-window-analysis const 1 \; \$1-window-resynthesis const 1 \;;
#X obj 36 699 output~;
#X obj 257 428 output~;
#X obj 36 406 tabplay~ \$0-input;
#X obj 36 368 bng 20 250 50 0 empty empty empty 0 -10 0 12 #fcfcfc #000000 #000000;
#X obj 66 527 tabwrite~ \$0-output;
#X text 647 841 THERE IS A DELAY IN RESYSNTHEIS \, ~960 SAMPLES. SAME FOR ANY SAMPLE. WITH OR WITHOUT HANN WINDOW. FOR FFT BLOCKSIZE OF 1024 WITH OVER-LAP OF 4... SOME EXPLANATION IN CHATGPT..TO LOOK BETTER THE SOURCE CODE..THE ISSUE IS THAT IN AUDIO RATE EVEN IF TABPLAY~ IS NOT BEING PLAYED IT IS OUTPUTTING 0! ALSO TABREAD~ (ANYTHING WITH ~) \; AT THE END IT IS MADE FOR REALTIME \; LATER TO DO A EXTERNAL DOINF THIS NOT AT DSP RATE BUT OFFLINE \;, f 61;
#X text 1106 840 EXPLANATION FOR THE DELAY IN NOTEBOOK \, UNDER BUFFERING BUT BETTER ANALYSIS OF THE CODE ESPECIALLY OVERLAP-ADD OF OUTLET~ IS NEEDED!, f 34;
#X obj 644 351 + 960;
#X text 686 351 COMPENSATION FOR DELAY;
#X text 1107 933 OR JUST ADD A ALGORITHM HERE TO REMOVE THE FIRST 960 SAMPLE AFTER DONE WRITING..., f 34;
#X text 1104 753 AT SOME POINT START A GUI EXTERNAL FOR A MODIFYABLE SPECTOGRAM - SEPARATE ANALYSIS AND RESYNTHESIS STEPS. BUT THIS IS SOMETHING FOR SAMPLE-LAB., f 34;
#X text 18 39 NO-CHANGE \, ANALYSIS \, RESYNTHESIS --------------------------------, f 33;
#X text 685 488 TO TEST: \; 1- ADD A SAMPLE. THIS WILL LOAD A SAMPLE TO \$0-INPUT \, RESIZE IT \, AND ALSO RESIZE THE \$0-OUTPUT TO SAMPLE-SIZE + 960 SAMPLE NECESSARY DUE TO FFT ANALYSIS-RESYNTH INITIAL DELAY (ZERO-OUTPUTTING) \; 2- CALCULATE THE HANN-WINDOWS FOR GOOD ANALYSIS AND RESYNTHESIS RESULTS \; 3- BANG TABPLAY~ \; 3- \$0-OUTPUT SHOULD LOOK LIKE THE INPUT WITH INITIAL 960 SAMPLES OF 0 (OR RESIDUAL VALUES OF ORDER E-9/10) \;;
#X connect 0 0 1 0;
#X connect 3 0 4 1;
#X connect 4 0 6 0;
#X connect 5 0 32 0;
#X connect 6 0 7 0;
#X connect 7 0 24 0;
#X connect 8 0 5 0;
#X connect 8 0 3 0;
#X connect 8 0 24 0;
#X connect 9 0 10 0;
#X connect 10 0 48 0;
#X connect 13 0 14 0;
#X connect 14 0 15 0;
#X connect 17 0 18 0;
#X connect 18 0 19 0;
#X connect 20 0 13 0;
#X connect 20 0 9 0;
#X connect 20 0 17 0;
#X connect 25 0 26 1;
#X connect 26 0 28 0;
#X connect 27 0 33 0;
#X connect 28 0 29 0;
#X connect 29 0 31 0;
#X connect 30 0 27 0;
#X connect 30 0 25 0;
#X connect 30 0 31 0;
#X connect 32 0 4 0;
#X connect 33 0 26 0;
#X connect 34 0 39 0;
#X connect 35 0 46 0;
#X connect 36 0 41 0;
#X connect 37 0 36 0;
#X connect 38 0 34 0;
#X connect 39 0 43 0;
#X connect 40 0 35 0;
#X connect 42 0 38 0;
#X connect 43 0 40 0;
#X connect 44 0 49 0;
#X connect 44 0 53 0;
#X connect 46 0 56 0;
#X connect 47 0 45 0;
#X connect 51 0 50 0;
#X connect 51 0 44 0;
#X connect 52 0 51 0;
#X connect 52 0 53 0;
#X connect 56 0 47 0;
