#N canvas 1906 -12 1920 1009 12;
#X floatatom 1097 314 7 0 0 0 - - - 0;
#X floatatom 1097 217 5 0 32 0 - - - 0;
#X obj 1129 289 samplerate~;
#X obj 1097 264 t f b;
#X obj 1097 289 *;
#X obj 1097 340 osc~;
#X obj 1134 340 f;
#X floatatom 1205 340 5 0 100 1 PHASE(100TH\ OF\ CYCLE) - - 0;
#X obj 1163 340 / 100;
#X obj 1097 240 / 64;
#X obj 301 14 ../5.reference/set-dsp-tgl;
#X msg 301 49 \; pd dsp \$1;
#X text 1154 314 <-- frequency \, Hz.;
#X obj 27 9 cnv 5 170 25 empty empty Fourier\ Analysis 15 15 2 20 #ff0400 #202020 0;
#X obj 1098 416 tabwrite~ \$0-input;
#X msg 1159 198 0;
#X text 1187 197 DC -> VALUE 64 AT BIN 0;
#X msg 1605 205 0;
#X obj 1498 262 osc~;
#X obj 1498 214 samplerate~;
#X obj 1498 285 *~ -0.5;
#X obj 1498 308 +~ 0.5;
#X obj 1490 186 bng 19 250 50 0 empty empty empty 0 -6 0 8 #dfdfdf #000000 #000000;
#X obj 1498 238 / 64;
#X obj 1495 384 bng 20 250 50 0 empty empty Constant-1 23 10 0 12 #7c7c7c #000000 #000000;
#X obj 1495 406 f \$0;
#N canvas 0 50 450 250 (subpatch) 0;
#X array \$0-input 64 float 2;
#A color 0;
#A width 2;
#X coords 0 1 64 -1 300 140 1;
#X restore 31 192 graph;
#N canvas 1956 38 450 250 (subpatch) 0;
#X array \$0-real 64 float 2;
#A color 0;
#A width 2;
#X coords 0 64 64 -64 300 140 1;
#X restore 355 192 graph;
#N canvas 0 50 450 250 (subpatch) 0;
#X array \$0-imaginary 64 float 2;
#A color 0;
#A width 2;
#X coords 0 64 64 -64 300 140 1;
#X restore 355 354 graph;
#N canvas 0 50 450 250 (subpatch) 0;
#X array \$0-magnitude 64 float 2;
#A color 0;
#A width 2;
#X coords 0 64 64 0 300 140 1;
#X restore 355 516 graph;
#N canvas 0 50 450 250 (subpatch) 0;
#X array \$0-window 64 float 3;
#A 0 0 0.00240764 0.00960737 0.0215298 0.0380602 0.0590394 0.0842652 0.113495 0.146447 0.182803 0.222215 0.264302 0.308658 0.354858 0.402455 0.450991 0.5 0.549009 0.597545 0.645142 0.691342 0.735698 0.777785 0.817197 0.853553 0.886505 0.915735 0.940961 0.96194 0.97847 0.990393 0.997592 1 0.997592 0.990393 0.97847 0.96194 0.940961 0.915735 0.886505 0.853553 0.817197 0.777785 0.735698 0.691342 0.645142 0.597545 0.549009 0.5 0.450991 0.402455 0.354858 0.308658 0.264302 0.222215 0.182803 0.146447 0.113495 0.0842652 0.0590394 0.0380602 0.0215298 0.00960737 0.00240764;
#A color 0;
#A width 2;
#X coords 0 1 64 0 300 140 1;
#X restore 31 354 graph;
#X obj 1110 373 bng 20 250 50 0 empty empty empty 0 -10 0 12 #fcfcfc #000000 #000000;
#X msg 1495 428 \; \$1-window const 1;
#X obj 1490 336 tabwrite~ \$0-window;
#X obj 434 85 switch~ 64;
#X obj 434 12 bng 20 250 50 0 empty empty empty 0 -10 0 12 #fcfcfc #000000 #000000;
#X obj 434 37 t b b;
#X obj 1102 465 bng 20 250 50 0 empty empty Constant-0 23 10 0 12 #7c7c7c #000000 #000000;
#X obj 1102 487 f \$0;
#X msg 1102 509 \; \$1-input const 0;
#X obj 466 62 s \$0-draw-fft;
#X text 1172 114 INPUT;
#X text 1518 123 WINDOW;
#X text 354 662 CORRECT Y RANGE FOR REAL/IMAGINARY PART IS +- 64 \, BUT FOR VISUALIZING PURPOSE WHEN INPUT IS JUST AN IMPULSE (EXAMPLE: VALUE AT n=10 IS 0.9 AND REST 0) \, THE RANGE IS CAN BE SET TO +-1 \; SAME THING FOR MAGNUTUDE ARRAY INSTEAD OF +64 TO 0 -> +1 TO 0 \;, f 43;
#X text 676 22 "YOU CAN LOOK AT A SOMETHING IN TIME DOMAIN AND SAY \, OH IT HAS A SINUSOID IN IT === YOU CAN LOOK AT SOMETHING IN FRQUENCY DOMAIN AND SAY OH IT HAS A TIME-IMPULSE IN IT";
#X text 656 187 EVEN FUNCTION \, FOR REAL INPUT TO FFT;
#X text 656 350 ODD FUNCTION \, FOR REAL INPUT TO FFT;
#N canvas 1970 50 450 300 forward-fft 0;
#X obj 12 260 tabwrite~ \$0-real;
#X obj 37 237 tabwrite~ \$0-imaginary;
#X obj 12 118 fft~;
#X obj 56 139 *~;
#X obj 89 139 *~;
#X obj 55 163 +~;
#X obj 54 186 sqrt~;
#X obj 54 211 tabwrite~ \$0-magnitude;
#X obj 12 59 *~;
#X obj 47 59 tabreceive~ \$0-window;
#X obj 12 29 tabreceive~ \$0-input;
#X obj 113 191 r \$0-draw-fft;
#X obj 204 132 switch~;
#X obj 204 105 tgl 20 0 empty empty empty 0 -10 0 12 #ff0400 #000000 #000000 0 1;
#X connect 2 0 0 0;
#X connect 2 0 3 0;
#X connect 2 0 3 1;
#X connect 2 1 1 0;
#X connect 2 1 4 0;
#X connect 2 1 4 1;
#X connect 3 0 5 0;
#X connect 4 0 5 1;
#X connect 5 0 6 0;
#X connect 6 0 7 0;
#X connect 8 0 2 0;
#X connect 9 0 8 1;
#X connect 10 0 8 0;
#X connect 11 0 7 0;
#X connect 11 0 1 0;
#X connect 11 0 0 0;
#X connect 13 0 12 0;
#X coords 0 -1 1 1 130 30 1 100 100;
#X restore 33 737 pd forward-fft;
#N canvas 2730 491 450 281 inverse-fft 0;
#X obj 183 198 r \$0-draw-fft;
#X obj 204 132 switch~;
#X obj 204 105 tgl 20 0 empty empty empty 0 -10 0 12 #ff0400 #000000 #000000 0 1;
#X obj 12 29 tabreceive~ \$0-real;
#X obj 44 54 tabreceive~ \$0-imaginary;
#X obj 12 118 ifft~;
#X obj 12 218 tabwrite~ \$0-output;
#X obj 13 189 /~ 64;
#X connect 0 0 6 0;
#X connect 2 0 1 0;
#X connect 3 0 5 0;
#X connect 4 0 5 1;
#X connect 5 0 7 0;
#X connect 7 0 6 0;
#X coords 0 -1 1 1 130 30 1 100 100;
#X restore 33 775 pd inverse-fft;
#N canvas 0 50 450 250 (subpatch) 0;
#X array \$0-output 64 float 2;
#A color 0;
#A width 2;
#X coords 0 1 64 -1 300 140 1;
#X restore 30 517 graph;
#X obj 1117 693 bng 20 250 50 0 empty empty Constant-0 23 10 0 12 #7c7c7c #000000 #000000;
#X obj 1117 715 f \$0;
#X msg 1117 737 \; \$1-real const 0 \; \$1-imaginary const 0 \; \$1-magnitude const 0 \;;
#X text 170 780 write to output;
#X text 168 742 receive from input;
#X text 33 827 TO TEST: \; 1- DRAW AN INPUT \; 2- TOGGLE FORWARD-FFT ON AND CALCULATE TO GET FFT OUTPUT \; 3- TOGGLE OFF FORWARD-FFT AND ON INVERSE-FFT \; 4- CALCULATE IFFT TO OUTPUT \; 5- INPUT AND OUTPUT SHOULD MATCH \;;
#X obj 1425 710 bng 20 250 50 0 empty empty Constant-0 23 10 0 12 #7c7c7c #000000 #000000;
#X obj 1425 732 f \$0;
#X msg 1425 754 \; \$1-output const 0;
#X text 1150 647 FFT;
#X text 1432 662 OUTPUT(IFFT);
#X msg 1150 157 1;
#X text 542 827 ANOTHER TEST(WINDOW): \; 1- MAKE A COSINE INPUT (OF 8TH PARTIAL AS AN EXAMPLE) \; 2- FORWARD-FFT -> SEE REAL/IMAG \; 3- MAKE HANN-WINDOW \; 4- FORWARD-FFT -> SEE REAL/IMAG CHANGE \; 5- INVERSE-FFT -> SEE ORIGINAL COSINE \, HANN-WINDOWED!;
#X msg 1108 182 5.5;
#X msg 1097 158 5;
#X text 29 56 ANALYSIS AND RECONSTRUCTION;
#X connect 0 0 5 0;
#X connect 1 0 9 0;
#X connect 2 0 4 1;
#X connect 3 0 4 0;
#X connect 3 1 2 0;
#X connect 4 0 0 0;
#X connect 5 0 14 0;
#X connect 6 0 5 1;
#X connect 7 0 8 0;
#X connect 8 0 6 1;
#X connect 9 0 3 0;
#X connect 10 0 11 0;
#X connect 15 0 1 0;
#X connect 17 0 18 1;
#X connect 18 0 20 0;
#X connect 19 0 23 0;
#X connect 20 0 21 0;
#X connect 21 0 33 0;
#X connect 22 0 19 0;
#X connect 22 0 17 0;
#X connect 22 0 33 0;
#X connect 23 0 18 0;
#X connect 24 0 25 0;
#X connect 25 0 32 0;
#X connect 31 0 14 0;
#X connect 31 0 7 0;
#X connect 35 0 36 0;
#X connect 36 0 34 0;
#X connect 36 1 40 0;
#X connect 37 0 38 0;
#X connect 38 0 39 0;
#X connect 50 0 51 0;
#X connect 51 0 52 0;
#X connect 56 0 57 0;
#X connect 57 0 58 0;
#X connect 61 0 1 0;
#X connect 63 0 1 0;
#X connect 64 0 1 0;
