#N canvas 1906 -12 1920 1009 12;
#X obj 293 6 ../5.reference/set-dsp-tgl;
#X msg 293 44 \; pd dsp \$1;
#X obj 27 9 cnv 5 170 25 empty empty FOURIER\ ANALYSIS 10 15 2 15 #ff0400 #202020 0;
#X msg 1486 379 0;
#X obj 1379 436 osc~;
#X obj 1379 388 samplerate~;
#X obj 1379 459 *~ -0.5;
#X obj 1379 482 +~ 0.5;
#X obj 1371 360 bng 19 250 50 0 empty empty empty 0 -6 0 8 #dfdfdf #000000 #000000;
#X obj 1384 132 bng 20 250 50 0 empty empty Constant-1 23 10 0 12 #7c7c7c #000000 #000000;
#X obj 1412 152 f \$0;
#N canvas 0 50 450 250 (subpatch) 0;
#X array \$0-input 16069 float 2;
#A color 0;
#A width 2;
#X coords 0 1 16069 -1 600 200 1;
#X restore 30 131 graph;
#N canvas 0 50 450 250 (subpatch) 0;
#X array \$0-window-analysis 1024 float 2;
#A color 0;
#A width 2;
#X coords 0 1 1024 0 350 150 1;
#X restore 1371 554 graph;
#X obj 1384 55 bng 20 250 50 0 empty empty Constant-0 23 10 0 12 #7c7c7c #000000 #000000;
#X obj 1418 75 f \$0;
#X msg 1418 97 \; \$1-input const 0;
#N canvas 1943 25 450 250 (subpatch) 0;
#X array \$0-output 17029 float 2;
#A color 0;
#A width 2;
#X coords 0 1 17029 -1 600 200 1;
#X restore 29 783 graph;
#X obj 1384 227 bng 20 250 50 0 empty empty Constant-0 23 10 0 12 #7c7c7c #000000 #000000;
#X obj 1414 247 f \$0;
#X msg 1414 269 \; \$1-output const 0;
#X obj 1384 7 bng 40 250 50 0 empty empty RESET\ ALL 45 20 0 12 #fcfcfc #000000 #000000;
#X text 667 15 ZERO-PADDING: ANALYSIS AND RESYNTHESIS \; -------------------------------------- \; # 206.18s/movies/206-3b \; # NO PHASE MANIPULATION: STATIC FILTERING \, COMPANDING \, NOISE SEPARATION \, VOCODING \; # PHASE MANIPULATION: TIME-STRETCHING \, PHASE-ALIGNED SPLICING \, FFT REVERB \;, f 55;
#X text 1070 4 # YOU CAN USE NOISE SEPARATION \, TAKING INCOMING SIGNAL AND SEPARATE IT INTO BINS. BUT THEN ON BIN TO BIN BASIS \, DECIDE IF WHAT WE HAVE IS SINUSOIDAL OR NON SINUSOIDAL. THEN WE GENERATE TWO OUTPUT. ONE FOR THE STUFF THAT LOOKED SINUSOIDAL AND THE OTHER ONE FOR THE STUFF THAT DO NOT LOOK SINUSOIDAL. THEN YOU TIME STRETCH THE SINUSOIDAL STUFF WITH A PHASE-VOCODER ALGORITHM WHICH WORKS FINE FOR IT AND THE NON-SINUSOIDAL STUFF WITH A GRANULATOR STRETCHING ALOGIRITHM WHICH WORKS GREAT FOR IT BUT BAD FOR PITCHY STUFF. THEN MIX THE TWO., f 38;
#N canvas 0 50 450 250 (subpatch) 0;
#X array \$0-window-resynthesis 1024 float 2;
#A color 0;
#A width 2;
#X coords 0 1 1024 0 350 150 1;
#X restore 1372 728 graph;
#X obj 1371 510 tabwrite~ \$0-window-analysis;
#X msg 1705 381 0;
#X obj 1598 438 osc~;
#X obj 1598 390 samplerate~;
#X obj 1598 461 *~ -0.5;
#X obj 1598 484 +~ 0.5;
#X obj 1590 362 bng 19 250 50 0 empty empty empty 0 -6 0 8 #dfdfdf #000000 #000000;
#X obj 1590 512 tabwrite~ \$0-window-resynthesis;
#X obj 1379 412 / 1024;
#X obj 1598 414 / 1024;
#X obj 644 209 openpanel;
#X obj 644 302 soundfiler, f 31;
#X obj 885 172 f \$0;
#X obj 885 148 bng 20 250 50 0 empty \$0-normalize empty 0 -10 0 12 #fcfcfc #000000 #000000;
#X msg 644 171 symbol /home/mobin/Documents/Sounds, f 29;
#X obj 644 231 pack s \$0, f 25;
#X msg 644 278 read -resize \$1 \$2-input;
#X msg 885 196 \; \$1-input normalize \;;
#X obj 644 143 bng 20 250 50 0 empty empty empty 0 -10 0 12 #fcfcfc #000000 #000000;
#X listbox 644 254 50 0 0 0 - - - 0;
#N canvas 895 285 1011 647 FFT-ANALYSIS-RESYNTHESIS 0;
#X obj 35 65 *~;
#X obj 66 65 tabreceive~ \$0-window-analysis;
#X obj 35 95 rfft~, f 6;
#X obj 34 453 /~;
#X obj 73 453 /~;
#X obj 135 411 * 1024;
#X obj 33 481 rifft~;
#X obj 33 506 *~;
#X obj 64 506 tabreceive~ \$0-window-resynthesis;
#X obj 36 25 inlet~;
#X obj 33 573 outlet~;
#X text 94 25 OVERLAPPING RE-BUFFERING (EACH 256 SAMPLE SLIDES);
#X text 97 573 OVERLAP ADD AND RE-BLOCK;
#X obj 35 262 *~;
#X obj 74 261 *~;
#X obj 169 210 tabreceive~ \$0-filter;
#X obj 135 388 r \$0-norm;
#X floatatom 135 434 5 0 0 0 - - - 0;
#X obj 246 121 tgl 20 0 \$0-overlap-4 \$0-i-overlap-4 4 6 10 0 12 #fcfcfc #000000 #000000 0 1;
#X obj 270 121 tgl 20 0 \$0-overlap-8 \$0-i-overlap-8 8 6 10 0 12 #fcfcfc #000000 #000000 0 1;
#X text 186 122 OVERLAP:;
#X obj 871 14 loadbang;
#X text 208 379 DIVIDE BY 3/2(3) FOR 4(8) OVERLAPPING HANN-WINDOW, f 25;
#X obj 871 40 f \$0;
#X obj 156 121 tgl 20 0 \$0-switch \$0-i-switch S\  7 10 0 12 #fcfcfc #000000 #000000 0 1;
#X text 103 122 SWITCH:;
#X msg 871 63 \; \$1-overlap-4 1 \; \$1-switch 1 \;;
#X obj 674 343 tgl 20 0 empty empty 4 6 10 0 12 #fcfcfc #000000 #000000 0 1;
#X obj 793 341 tgl 20 0 empty empty 8 6 10 0 12 #fcfcfc #000000 #000000 0 1;
#X obj 674 368 sel 1;
#X msg 674 393 1, f 2;
#X msg 793 315 0;
#X msg 525 413 1.5;
#X obj 525 478 s \$0-norm;
#X obj 793 367 sel 1;
#X msg 793 392 1, f 2;
#X msg 674 317 0;
#X msg 570 413 3;
#X obj 525 323 r \$0-overlap-4;
#X msg 866 361 set \$1;
#X obj 866 384 s \$0-i-overlap-8;
#X msg 525 363 set \$1;
#X obj 525 386 s \$0-i-overlap-4;
#X obj 864 321 r \$0-overlap-8;
#X obj 674 564 switch~;
#X msg 674 462 set 1024 4 1;
#X msg 793 462 set 1024 8 1;
#X obj 674 433 del 10;
#X obj 793 434 del 10;
#X obj 827 520 r \$0-switch;
#X obj 827 544 tgl 20 0 empty empty empty 0 -10 0 12 #fcfcfc #000000 #000000 0 1;
#X obj 827 594 s \$0-i-switch;
#X msg 827 569 set \$1;
#X connect 0 0 2 0;
#X connect 1 0 0 1;
#X connect 2 0 13 0;
#X connect 2 1 14 0;
#X connect 3 0 6 0;
#X connect 4 0 6 1;
#X connect 5 0 17 0;
#X connect 6 0 7 0;
#X connect 7 0 10 0;
#X connect 8 0 7 1;
#X connect 9 0 0 0;
#X connect 13 0 3 0;
#X connect 14 0 4 0;
#X connect 15 0 14 1;
#X connect 15 0 13 1;
#X connect 16 0 5 0;
#X connect 17 0 4 1;
#X connect 17 0 3 1;
#X connect 21 0 23 0;
#X connect 23 0 26 0;
#X connect 27 0 29 0;
#X connect 27 0 41 0;
#X connect 28 0 34 0;
#X connect 28 0 39 0;
#X connect 29 0 30 0;
#X connect 30 0 31 0;
#X connect 30 0 32 0;
#X connect 30 0 47 0;
#X connect 31 0 28 0;
#X connect 32 0 33 0;
#X connect 34 0 35 0;
#X connect 35 0 36 0;
#X connect 35 0 37 0;
#X connect 35 0 48 0;
#X connect 36 0 27 0;
#X connect 37 0 33 0;
#X connect 38 0 27 0;
#X connect 39 0 40 0;
#X connect 41 0 42 0;
#X connect 43 0 28 0;
#X connect 45 0 44 0;
#X connect 46 0 44 0;
#X connect 47 0 45 0;
#X connect 48 0 46 0;
#X connect 49 0 50 0;
#X connect 50 0 44 0;
#X connect 50 0 52 0;
#X connect 52 0 51 0;
#X coords 0 -1 1 1 195 45 1 100 100;
#X restore 35 490 pd FFT-ANALYSIS-RESYNTHESIS;
#X msg 730 397 \; \$2-output resize \$1;
#X floatatom 644 327 9 0 0 0 - - - 0;
#X obj 730 371 pack \$1 \$0;
#X msg 1412 175 \; \$1-window-analysis const 1 \; \$1-window-resynthesis const 1 \;;
#X obj 36 699 output~;
#X obj 257 428 output~;
#X obj 36 406 tabplay~ \$0-input;
#X obj 36 368 bng 20 250 50 0 empty empty empty 0 -10 0 12 #fcfcfc #000000 #000000;
#X obj 55 553 tabwrite~ \$0-output;
#X text 647 841 THERE IS A DELAY IN RESYSNTHEIS \, ~960 SAMPLES. SAME FOR ANY SAMPLE. WITH OR WITHOUT HANN WINDOW. FOR FFT BLOCKSIZE OF 1024 WITH OVER-LAP OF 4... SOME EXPLANATION IN CHATGPT..TO LOOK BETTER THE SOURCE CODE..THE ISSUE IS THAT IN AUDIO RATE EVEN IF TABPLAY~ IS NOT BEING PLAYED IT IS OUTPUTTING 0! ALSO TABREAD~ (ANYTHING WITH ~) \; AT THE END IT IS MADE FOR REALTIME \; LATER TO DO A EXTERNAL DOINF THIS NOT AT DSP RATE BUT OFFLINE \;, f 61;
#X text 1106 840 EXPLANATION FOR THE DELAY IN NOTEBOOK \, UNDER BUFFERING BUT BETTER ANALYSIS OF THE CODE ESPECIALLY OVERLAP-ADD OF OUTLET~ IS NEEDED!, f 34;
#X obj 644 351 + 960;
#X text 686 351 COMPENSATION FOR DELAY;
#X text 1107 933 OR JUST ADD A ALGORITHM HERE TO REMOVE THE FIRST 960 SAMPLE AFTER DONE WRITING..., f 34;
#X text 1104 753 AT SOME POINT START A GUI EXTERNAL FOR A MODIFYABLE SPECTOGRAM - SEPARATE ANALYSIS AND RESYNTHESIS STEPS. BUT THIS IS SOMETHING FOR SAMPLE-LAB., f 34;
#X obj 71 343 key;
#X obj 71 368 sel 113;
#N canvas 2330 97 1388 648 FILTER 0;
#N canvas 0 50 450 250 (subpatch) 0;
#X array \$0-filter 1024 float 2;
#A color 0;
#A width 2;
#X coords 0 1 1024 0 200 100 1;
#X restore 124 145 graph;
#X obj 381 92 noise~;
#X obj 381 117 abs~;
#X obj 381 142 tabwrite~ \$0-filter;
#X obj 451 122 bng 20 250 50 0 empty empty empty 0 -10 0 12 #fcfcfc #000000 #000000;
#X msg 382 202 \; \$1-filter const 0;
#X obj 321 106 bng 20 250 50 0 empty empty 0 6 10 0 12 #fcfcfc #000000 #000000;
#X obj 382 176 f \$0;
#X obj 553 139 until;
#X obj 553 168 f;
#X obj 586 168 + 1;
#X obj 553 114 t f b, f 7;
#X msg 599 139 0;
#X obj 553 193 t f f;
#X obj 553 216 expr if($f1 >= $f2 \, 1 \, 0);
#X obj 553 240 tabwrite \$0-filter;
#X msg 553 84 1024;
#X floatatom 725 190 5 0 0 0 - - - 0;
#X text 613 89 HIGH-PASS";
#X obj 802 137 until;
#X obj 802 166 f;
#X obj 835 166 + 1;
#X obj 802 112 t f b, f 7;
#X msg 848 137 0;
#X obj 802 191 t f f;
#X obj 802 238 tabwrite \$0-filter;
#X msg 802 82 1024;
#X floatatom 974 188 5 0 0 0 - - - 0;
#X obj 802 214 expr if($f1 <= $f2 \, 1 \, 0);
#X text 862 87 "LOW-PASS";
#X text 205 104 "OPEN";
#X obj 383 250 f \$0;
#X msg 383 276 \; \$1-filter const 1;
#X obj 296 106 bng 20 250 50 0 empty empty 1 6 10 0 12 #fcfcfc #000000 #000000;
#X connect 1 0 2 0;
#X connect 2 0 3 0;
#X connect 4 0 3 0;
#X connect 6 0 7 0;
#X connect 7 0 5 0;
#X connect 8 0 9 0;
#X connect 9 0 10 0;
#X connect 9 0 13 0;
#X connect 10 0 9 1;
#X connect 11 0 8 0;
#X connect 11 1 12 0;
#X connect 12 0 9 1;
#X connect 13 0 14 0;
#X connect 13 1 15 1;
#X connect 14 0 15 0;
#X connect 16 0 11 0;
#X connect 17 0 14 1;
#X connect 19 0 20 0;
#X connect 20 0 21 0;
#X connect 20 0 24 0;
#X connect 21 0 20 1;
#X connect 22 0 19 0;
#X connect 22 1 23 0;
#X connect 23 0 20 1;
#X connect 24 0 28 0;
#X connect 24 1 25 1;
#X connect 26 0 22 0;
#X connect 27 0 28 1;
#X connect 28 0 25 0;
#X connect 31 0 32 0;
#X connect 33 0 31 0;
#X coords 0 -1 1 1 250 160 2 100 100;
#X restore 295 542 pd FILTER;
#X obj 80 457 osc~;
#X floatatom 80 431 5 0 0 0 - - - 0;
#X text 746 516 TO TEST: \; IF INSTED OF TBAPLAY~ \, A SINUSOID IS GIVEN (EX: 440[Hz]). THE SPECTRUM OF THIS 440HZ WILL BE 4 BINS OF A DIRICHLET KERNEL. WITH THE SYMMETRY POINT OF DIRICHLET @ 440/(FUNDAMENTAL-FREQUENCY-OF-ANALYSIS). \; FUNDAMENTAL FREQUENCY OF ANALYSIS = SAMPLE-RATE/N = 48000/1024 ~= 46.875 AND SO DIRICHLET CENTERS @ ~9.38. SO IN FILTER \, THE RELEVANT BINS FOR RESYNTHESISZE ARE (8 \, (9 \, 10) \, 11). THERE IS SOME RESIDUALS ANYWAYS UP TO 12 \, 13 AND 7TH BIN. BUT BESIDE THIS BINS ANY OTHER "ACTIVATED" BIN IN THE FILTER WILL RESULT TO "ZERO RESYNTHESIS". \; -IN THE SAME WAY IF YOU ACTIVATE ONLY ONE BIN (EXAMPLE:10TH BIN) OF FILTER \, THEN THERE IS A RANGE OF FREQUENCY INLETS THAT WILL BE RECONSTRUCTED \, FROM (~8)/9 TO 11/(12~). 8 AND 12 ARE EXACTLY ON 0 BUT STILL SOME RESIDUALS. SO IN Hz: FROM 9*46.875 UNTIL 11*46.875 (~421 Hz TO ~516 Hz)., f 75;
#X text 18 39 ANALYSIS \, RESYNTHESIS \, FILTERING --------------------------------, f 33;
#X connect 0 0 1 0;
#X connect 3 0 4 1;
#X connect 4 0 6 0;
#X connect 5 0 32 0;
#X connect 6 0 7 0;
#X connect 7 0 24 0;
#X connect 8 0 5 0;
#X connect 8 0 3 0;
#X connect 8 0 24 0;
#X connect 9 0 10 0;
#X connect 10 0 48 0;
#X connect 13 0 14 0;
#X connect 14 0 15 0;
#X connect 17 0 18 0;
#X connect 18 0 19 0;
#X connect 20 0 13 0;
#X connect 20 0 9 0;
#X connect 20 0 17 0;
#X connect 25 0 26 1;
#X connect 26 0 28 0;
#X connect 27 0 33 0;
#X connect 28 0 29 0;
#X connect 29 0 31 0;
#X connect 30 0 27 0;
#X connect 30 0 25 0;
#X connect 30 0 31 0;
#X connect 32 0 4 0;
#X connect 33 0 26 0;
#X connect 34 0 39 0;
#X connect 35 0 46 0;
#X connect 36 0 41 0;
#X connect 37 0 36 0;
#X connect 38 0 34 0;
#X connect 39 0 43 0;
#X connect 40 0 35 0;
#X connect 42 0 38 0;
#X connect 43 0 40 0;
#X connect 44 0 49 0;
#X connect 44 0 53 0;
#X connect 46 0 56 0;
#X connect 47 0 45 0;
#X connect 51 0 50 0;
#X connect 51 0 44 0;
#X connect 52 0 51 0;
#X connect 52 0 53 0;
#X connect 56 0 47 0;
#X connect 60 0 61 0;
#X connect 61 0 52 0;
#X connect 64 0 63 0;
