#N canvas 1920 0 1920 1009 12;
#X floatatom 1419 187 7 0 0 0 - - - 0;
#X floatatom 1419 90 9 0 32 0 - - - 0;
#X obj 1451 162 samplerate~;
#X obj 1419 137 t f b;
#X obj 1419 162 *;
#X obj 1419 211 osc~;
#X obj 1456 211 f;
#X floatatom 1527 211 5 0 100 1 - - - 0;
#X obj 1485 211 / 100;
#X obj 1419 113 / 64;
#X obj 265 19 ../5.reference/set-dsp-tgl;
#X msg 265 54 \; pd dsp \$1;
#X obj 27 9 cnv 5 170 25 empty empty FOURIER\ ANALYSIS 10 15 2 15 #ff0400 #202020 0;
#X obj 1419 256 tabwrite~ \$0-input;
#X msg 1500 70 0;
#X msg 1665 42 0;
#X obj 1560 99 osc~;
#X obj 1560 51 samplerate~;
#X obj 1560 122 *~ -0.5;
#X obj 1560 145 +~ 0.5;
#X obj 1552 23 bng 19 250 50 0 empty empty empty 0 -6 0 8 #dfdfdf #000000 #000000;
#X obj 1560 75 / 64;
#X obj 1721 166 bng 20 250 50 0 empty empty Constant-1 23 10 0 12 #7c7c7c #000000 #000000;
#X obj 1733 190 f \$0;
#N canvas 0 50 450 250 (subpatch) 0;
#X array \$0-input 64 float 2;
#A color 0;
#A width 2;
#X coords 0 1 64 -1 350 150 1;
#X restore 28 153 graph;
#N canvas 1956 38 450 250 (subpatch) 0;
#X array \$0-real 64 float 2;
#A color 0;
#A width 2;
#X coords 0 1 64 -1 500 150 1;
#X restore 400 153 graph;
#N canvas 1956 38 450 250 (subpatch) 0;
#X array \$0-imaginary 64 float 2;
#A color 0;
#A width 2;
#X coords 0 1 64 -1 500 150 1;
#X restore 399 337 graph;
#N canvas 0 50 450 250 (subpatch) 0;
#X array \$0-magnitude 64 float 2;
#A color 0;
#A width 2;
#X coords 0 1 64 0 500 150 1;
#X restore 396 518 graph;
#N canvas 0 50 450 250 (subpatch) 0;
#X array \$0-window 64 float 3;
#A 0 1 1 1 1 1 1 1 1 1 1 1 1 1 1 1 1 1 1 1 1 1 1 1 1 1 1 1 1 1 1 1 1 1 1 1 1 1 1 1 1 1 1 1 1 1 1 1 1 1 1 1 1 1 1 1 1 1 1 1 1 1 1 1 1;
#A color 0;
#A width 2;
#X coords 0 1 64 0 350 150 1;
#X restore 26 339 graph;
#X obj 1430 234 bng 20 250 50 0 empty empty empty 0 -10 0 12 #fcfcfc #000000 #000000;
#X msg 1733 212 \; \$1-window const 1;
#X obj 1552 173 tabwrite~ \$0-window;
#X obj 398 90 switch~ 64;
#X obj 398 17 bng 20 250 50 0 empty empty empty 0 -10 0 12 #fcfcfc #000000 #000000;
#X obj 398 42 t b b;
#X obj 1721 64 bng 20 250 50 0 empty empty Constant-0 23 10 0 12 #7c7c7c #000000 #000000;
#X obj 1729 93 f \$0;
#X msg 1729 115 \; \$1-input const 0;
#X obj 430 67 s \$0-draw-fft;
#X text 1458 8 INPUT;
#X text 1590 13 WINDOW;
#N canvas 0 50 450 250 (subpatch) 0;
#X array \$0-output 64 float 2;
#A color 0;
#A width 2;
#X coords 0 1 64 -1 350 150 1;
#X restore 25 517 graph;
#X obj 1721 403 bng 20 250 50 0 empty empty Constant-0 23 10 0 12 #7c7c7c #000000 #000000;
#X obj 1731 428 f \$0;
#X msg 1731 450 \; \$1-real const 0 \; \$1-imaginary const 0 \; \$1-magnitude const 0 \;;
#X obj 1721 289 bng 20 250 50 0 empty empty Constant-0 23 10 0 12 #7c7c7c #000000 #000000;
#X obj 1734 315 f \$0;
#X msg 1734 337 \; \$1-output const 0;
#X text 1774 381 FFT;
#X text 1721 264 OUTPUT(IFFT);
#X msg 1497 38 1;
#X msg 1457 31 5.5;
#X msg 1419 31 5;
#X obj 1621 750 osc~;
#X obj 1646 698 bang~;
#N canvas 0 50 450 250 (subpatch) 0;
#X array \$0-SINUSOID-real 64 float 2;
#A color 0;
#A width 2;
#X coords 0 1 64 -1 250 150 1;
#X restore 1395 845 graph;
#X msg 1646 723 0;
#X obj 1721 25 bng 20 250 50 0 empty empty RESET\ ALL 23 10 0 12 #fcfcfc #000000 #000000;
#X obj 1820 753 bng 20 250 50 0 empty empty empty 0 -10 0 12 #fcfcfc #000000 #000000;
#X floatatom 1621 676 8 0 0 0 - - - 0;
#X msg 1637 651 24000;
#X text 1635 635 NYQUIST;
#X obj 1667 750 osc~;
#N canvas 0 50 450 250 (subpatch) 0;
#X array \$0-SINUSOID-imaginary 64 float 2;
#A color 0;
#A width 2;
#X coords 0 1 64 -1 250 150 1;
#X restore 1654 845 graph;
#X text 1736 723 SINE;
#X msg 1692 723 -0.25;
#X obj 646 108 cnv 20 2 600 empty empty Nyquist 7 30 0 12 #ff0400 #ff0400 0;
#X obj 196 113 cnv 20 2 600 empty empty N/2 7 30 0 12 #ff0400 #ff0400 0;
#N canvas 2454 142 649 727 inverse-rfft 0;
#X obj 188 527 r \$0-draw-fft;
#X obj 214 132 switch~;
#X obj 214 105 tgl 20 0 empty empty empty 0 -10 0 12 #ff0400 #000000 #000000 0 1;
#X obj 18 171 tabreceive~ \$0-real;
#X obj 162 232 tabreceive~ \$0-imaginary;
#X obj 17 547 tabwrite~ \$0-output;
#X obj 18 518 /~ 64;
#X obj 19 329 *~;
#X obj 162 331 *~;
#X obj 68 329 *~;
#X obj 116 329 *~;
#X obj 18 390 -~;
#X obj 69 390 +~;
#X text 223 330 COMPLEX SINUSOID MULTIPLICATION IN PD -- HOW TO WRITE THIS MATHEMATICALLY AND WHY IS THIS TRUE?, f 48;
#X obj 77 193 tabreceive~ \$0-SINUSOID-real;
#X obj 180 259 tabreceive~ \$0-SINUSOID-imaginary;
#X obj 17 456 rifft~, f 8;
#X connect 0 0 5 0;
#X connect 2 0 1 0;
#X connect 3 0 7 0;
#X connect 3 0 9 0;
#X connect 4 0 8 0;
#X connect 4 0 10 1;
#X connect 6 0 5 0;
#X connect 7 0 11 0;
#X connect 8 0 11 1;
#X connect 9 0 12 0;
#X connect 10 0 12 1;
#X connect 11 0 16 0;
#X connect 12 0 16 1;
#X connect 14 0 7 1;
#X connect 14 0 10 0;
#X connect 15 0 8 1;
#X connect 15 0 9 1;
#X connect 16 0 6 0;
#X coords 0 -1 1 1 140 30 1 100 100;
#X restore 27 762 pd inverse-rfft;
#X text 1620 593 BIN RESOLUTION;
#X msg 1587 656 0;
#X obj 1622 773 tabwrite~ \$0-SINUSOID-real;
#X obj 1668 798 tabwrite~ \$0-SINUSOID-imaginary;
#X msg 432 757 \; \$1-real bounds 0 1 64 -1 \; \$1-imaginary bounds 0 1 64 -1 \; \$1-magnitude bounds 0 1 64 0;
#X obj 432 713 bng 20 250 50 0 empty empty empty 0 -10 0 12 #fcfcfc #000000 #000000;
#X obj 432 736 f \$0;
#X msg 469 825 \; \$1-real bounds 0 64 64 -64 \; \$1-imaginary bounds 0 64 64 -64 \; \$1-magnitude bounds 0 64 64 0;
#X obj 469 713 bng 20 250 50 0 empty empty empty 0 -10 0 12 #fcfcfc #000000 #000000;
#X obj 469 736 f \$0;
#X text 512 719 CHANGING THE RANGE FOR BETTER VISUALIZATION, f 23;
#X obj 469 689 loadbang;
#X msg 1621 612 750, f 6;
#N canvas 1970 50 450 300 forward-fft 0;
#X obj 12 260 tabwrite~ \$0-real;
#X obj 38 237 tabwrite~ \$0-imaginary;
#X obj 51 139 *~;
#X obj 84 139 *~;
#X obj 50 163 +~;
#X obj 49 186 sqrt~;
#X obj 49 211 tabwrite~ \$0-magnitude;
#X obj 12 59 *~;
#X obj 47 59 tabreceive~ \$0-window;
#X obj 12 29 tabreceive~ \$0-input;
#X obj 108 191 r \$0-draw-fft;
#X obj 211 132 switch~;
#X obj 211 105 tgl 20 0 empty empty empty 0 -10 0 12 #ff0400 #000000 #000000 0 1;
#X obj 12 118 fft~;
#X connect 2 0 4 0;
#X connect 3 0 4 1;
#X connect 4 0 5 0;
#X connect 5 0 6 0;
#X connect 7 0 13 0;
#X connect 8 0 7 1;
#X connect 9 0 7 0;
#X connect 10 0 6 0;
#X connect 10 0 1 0;
#X connect 10 0 0 0;
#X connect 12 0 11 0;
#X connect 13 0 0 0;
#X connect 13 0 2 0;
#X connect 13 0 2 1;
#X connect 13 1 1 0;
#X connect 13 1 3 0;
#X connect 13 1 3 1;
#X coords 0 -1 1 1 140 30 1 100 100;
#X restore 27 724 pd forward-fft;
#X text 170 715 FORWARD FFT IS NORMAL (COMPLEX) \, EVEN IF COULD BE REAL \; BUT INVERSE IS R-FFT OTHERWISE REAL AND IMAGINARY PART OF INVERSE-FFT SHOULD BE MIXED TOGETHER TO MAKE THE OUTPUT, f 33;
#X text 548 8 ZERO-PADDING ------------, f 12;
#X text 1539 570 DRAWING A COMPLEX SINUSOID;
#X connect 0 0 5 0;
#X connect 1 0 9 0;
#X connect 2 0 4 1;
#X connect 3 0 4 0;
#X connect 3 1 2 0;
#X connect 4 0 0 0;
#X connect 5 0 13 0;
#X connect 6 0 5 1;
#X connect 7 0 8 0;
#X connect 8 0 6 1;
#X connect 9 0 3 0;
#X connect 10 0 11 0;
#X connect 14 0 1 0;
#X connect 15 0 16 1;
#X connect 16 0 18 0;
#X connect 17 0 21 0;
#X connect 18 0 19 0;
#X connect 19 0 31 0;
#X connect 20 0 17 0;
#X connect 20 0 15 0;
#X connect 20 0 31 0;
#X connect 21 0 16 0;
#X connect 22 0 23 0;
#X connect 23 0 30 0;
#X connect 29 0 13 0;
#X connect 29 0 7 0;
#X connect 33 0 34 0;
#X connect 34 0 32 0;
#X connect 34 1 38 0;
#X connect 35 0 36 0;
#X connect 36 0 37 0;
#X connect 42 0 43 0;
#X connect 43 0 44 0;
#X connect 45 0 46 0;
#X connect 46 0 47 0;
#X connect 50 0 1 0;
#X connect 51 0 1 0;
#X connect 52 0 1 0;
#X connect 53 0 71 0;
#X connect 54 0 56 0;
#X connect 54 0 65 0;
#X connect 56 0 53 1;
#X connect 57 0 35 0;
#X connect 57 0 22 0;
#X connect 57 0 45 0;
#X connect 57 0 42 0;
#X connect 58 0 71 0;
#X connect 58 0 72 0;
#X connect 59 0 53 0;
#X connect 59 0 62 0;
#X connect 60 0 59 0;
#X connect 62 0 72 0;
#X connect 65 0 62 1;
#X connect 70 0 59 0;
#X connect 74 0 75 0;
#X connect 75 0 73 0;
#X connect 77 0 78 0;
#X connect 78 0 76 0;
#X connect 80 0 77 0;
#X connect 81 0 59 0;
