#N canvas 1920 0 1920 1009 12;
#X obj 235 6 ../5.reference/set-dsp-tgl;
#X msg 235 44 \; pd dsp \$1;
#X obj 27 9 cnv 5 170 25 empty empty FOURIER\ ANALYSIS 10 15 2 15 #ff0400 #202020 0;
#X msg 1193 357 0;
#X obj 1086 414 osc~;
#X obj 1086 366 samplerate~;
#X obj 1086 437 *~ -0.5;
#X obj 1086 460 +~ 0.5;
#X obj 1078 338 bng 19 250 50 0 empty empty empty 0 -6 0 8 #dfdfdf #000000 #000000;
#X obj 1384 132 bng 20 250 50 0 empty empty Constant-1 23 10 0 12 #7c7c7c #000000 #000000;
#X obj 1412 152 f \$0;
#N canvas 0 50 450 250 (subpatch) 0;
#X array \$0-input 3702 float 2;
#A color 0;
#A width 2;
#X coords 0 1 3702 -1 600 200 1;
#X restore 30 131 graph;
#N canvas 0 50 450 250 (subpatch) 0;
#X array \$0-window-analysis 1024 float 2;
#A color 0;
#A width 2;
#X coords 0 1 1024 0 350 150 1;
#X restore 1078 532 graph;
#X msg 1412 174 \; \$1-window const 1;
#X obj 1384 55 bng 20 250 50 0 empty empty Constant-0 23 10 0 12 #7c7c7c #000000 #000000;
#X obj 1418 75 f \$0;
#X msg 1418 97 \; \$1-input const 0;
#N canvas 0 50 450 250 (subpatch) 0;
#X array \$0-output 64 float 2;
#A color 0;
#A width 2;
#X coords 0 1 64 -1 600 200 1;
#X restore 24 765 graph;
#X obj 1384 208 bng 20 250 50 0 empty empty Constant-0 23 10 0 12 #7c7c7c #000000 #000000;
#X obj 1414 228 f \$0;
#X msg 1414 250 \; \$1-output const 0;
#X obj 1384 7 bng 40 250 50 0 empty empty RESET\ ALL 45 20 0 12 #fcfcfc #000000 #000000;
#X text 667 15 ZERO-PADDING: ANALYSIS AND RESYNTHESIS \; -------------------------------------- \; # 206.18s/movies/206-3b \; # NO PHASE MANIPULATION: STATIC FILTERING \, COMPANDING \, NOISE SEPARATION \, VOCODING \; # PHASE MANIPULATION: TIME-STRETCHING \, PHASE-ALIGNED SPLICING \, FFT REVERB \;, f 55;
#X text 1070 4 # YOU CAN USE NOISE SEPARATION \, TAKING INCOMING SIGNAL AND SEPARATE IT INTO BINS. BUT THEN ON BIN TO BIN BASIS \, DECIDE IF WHAT WE HAVE IS SINUSOIDAL OR NON SINUSOIDAL. THEN WE GENERATE TWO OUTPUT. ONE FOR THE STUFF THAT LOOKED SINUSOIDAL AND THE OTHER ONE FOR THE STUFF THAT DO NOT LOOK SINUSOIDAL. THEN YOU TIME STRETCH THE SINUSOIDAL STUFF WITH A PHASE-VOCODER ALGORITHM WHICH WORKS FINE FOR IT AND THE NON-SINUSOIDAL STUFF WITH A GRANULATOR STRETCHING ALOGIRITHM WHICH WORKS GREAT FOR IT BUT BAD FOR PITCHY STUFF. THEN MIX THE TWO., f 38;
#X text 18 39 COMPANDING AND ZERO-PADDING ---------------------------, f 27;
#N canvas 0 50 450 250 (subpatch) 0;
#X array \$0-window-resynthesis 1024 float 2;
#A color 0;
#A width 2;
#X coords 0 1 1024 0 350 150 1;
#X restore 1079 706 graph;
#X obj 1078 488 tabwrite~ \$0-window-analysis;
#X msg 1412 359 0;
#X obj 1305 416 osc~;
#X obj 1305 368 samplerate~;
#X obj 1305 439 *~ -0.5;
#X obj 1305 462 +~ 0.5;
#X obj 1297 340 bng 19 250 50 0 empty empty empty 0 -6 0 8 #dfdfdf #000000 #000000;
#X obj 1297 490 tabwrite~ \$0-window-resynthesis;
#X obj 1086 390 / 1024;
#X obj 1305 392 / 1024;
#X obj 644 209 openpanel;
#X obj 644 299 soundfiler, f 31;
#X obj 885 172 f \$0;
#X obj 885 148 bng 20 250 50 0 empty \$0-normalize empty 0 -10 0 12 #fcfcfc #000000 #000000;
#X msg 644 171 symbol /home/mobin/Documents/Sounds, f 29;
#X obj 644 231 pack s \$0, f 25;
#X msg 644 276 read -resize \$1 \$2-input;
#X msg 885 196 \; \$1-input normalize \;;
#X obj 644 143 bng 20 250 50 0 empty empty empty 0 -10 0 12 #fcfcfc #000000 #000000;
#X listbox 644 254 50 0 0 0 - - - 0;
#X connect 0 0 1 0;
#X connect 3 0 4 1;
#X connect 4 0 6 0;
#X connect 5 0 34 0;
#X connect 6 0 7 0;
#X connect 7 0 26 0;
#X connect 8 0 5 0;
#X connect 8 0 3 0;
#X connect 8 0 26 0;
#X connect 9 0 10 0;
#X connect 10 0 13 0;
#X connect 14 0 15 0;
#X connect 15 0 16 0;
#X connect 18 0 19 0;
#X connect 19 0 20 0;
#X connect 21 0 14 0;
#X connect 21 0 9 0;
#X connect 21 0 18 0;
#X connect 27 0 28 1;
#X connect 28 0 30 0;
#X connect 29 0 35 0;
#X connect 30 0 31 0;
#X connect 31 0 33 0;
#X connect 32 0 29 0;
#X connect 32 0 27 0;
#X connect 32 0 33 0;
#X connect 34 0 4 0;
#X connect 35 0 28 0;
#X connect 36 0 41 0;
#X connect 38 0 43 0;
#X connect 39 0 38 0;
#X connect 40 0 36 0;
#X connect 41 0 45 0;
#X connect 42 0 37 0;
#X connect 44 0 40 0;
#X connect 45 0 42 0;
