#N canvas 1906 -12 1920 1009 12;
#X obj 521 9 ../5.reference/set-dsp-tgl;
#X msg 521 47 \; pd dsp \$1;
#X obj 27 9 cnv 5 170 25 empty empty FOURIER\ ANALYSIS 10 15 2 15 #ff0400 #202020 0;
#X msg 1197 34 0;
#X obj 1090 91 osc~;
#X obj 1090 43 samplerate~;
#X obj 1090 114 *~ -0.5;
#X obj 1090 137 +~ 0.5;
#X obj 1082 15 bng 19 250 50 0 empty empty empty 0 -6 0 8 #dfdfdf #000000 #000000;
#X obj 1544 142 bng 20 250 50 0 empty empty Constant-1 23 10 0 12 #7c7c7c #000000 #000000;
#X obj 1572 162 f \$0;
#N canvas 0 50 450 250 (subpatch) 0;
#X array \$0-input 16069 float 2;
#A color 0;
#A width 2;
#X coords 0 1 16069 -1 600 200 1;
#X restore 21 99 graph;
#N canvas 0 50 450 250 (subpatch) 0;
#X array \$0-window-analysis 1024 float 2;
#A color 0;
#A width 2;
#X coords 0 1 1024 0 350 150 1;
#X restore 1079 218 graph;
#X obj 1544 65 bng 20 250 50 0 empty empty Constant-0 23 10 0 12 #7c7c7c #000000 #000000;
#X obj 1578 85 f \$0;
#X msg 1578 107 \; \$1-input const 0;
#N canvas 1943 25 450 250 (subpatch) 0;
#X array \$0-output 17029 float 2;
#A color 0;
#A width 2;
#X coords 0 1 17029 -1 600 200 1;
#X restore 23 792 graph;
#X obj 1544 237 bng 20 250 50 0 empty empty Constant-0 23 10 0 12 #7c7c7c #000000 #000000;
#X obj 1574 257 f \$0;
#X msg 1574 279 \; \$1-output const 0;
#X obj 1544 17 bng 40 250 50 0 empty empty RESET\ ALL 45 20 0 12 #fcfcfc #000000 #000000;
#N canvas 0 50 450 250 (subpatch) 0;
#X array \$0-window-resynthesis 1024 float 2;
#A color 0;
#A width 2;
#X coords 0 1 1024 0 350 150 1;
#X restore 1080 392 graph;
#X obj 1082 165 tabwrite~ \$0-window-analysis;
#X msg 1414 36 0;
#X obj 1309 93 osc~;
#X obj 1309 45 samplerate~;
#X obj 1309 116 *~ -0.5;
#X obj 1309 139 +~ 0.5;
#X obj 1301 17 bng 19 250 50 0 empty empty empty 0 -6 0 8 #dfdfdf #000000 #000000;
#X obj 1301 167 tabwrite~ \$0-window-resynthesis;
#X obj 1090 67 / 1024;
#X obj 1309 69 / 1024;
#X obj 652 96 openpanel;
#X obj 652 189 soundfiler, f 31;
#X obj 893 59 f \$0;
#X obj 893 35 bng 20 250 50 0 empty \$0-normalize empty 0 -10 0 12 #fcfcfc #000000 #000000;
#X msg 652 58 symbol /home/mobin/Documents/Sounds, f 29;
#X obj 652 118 pack s \$0, f 25;
#X msg 652 165 read -resize \$1 \$2-input;
#X msg 893 83 \; \$1-input normalize \;;
#X obj 652 30 bng 20 250 50 0 empty empty empty 0 -10 0 12 #fcfcfc #000000 #000000;
#X listbox 652 141 50 0 0 0 - - - 0;
#N canvas 2237 131 1011 647 FFT-ANALYSIS-RESYNTHESIS 0;
#X obj 35 65 *~;
#X obj 444 46 tabreceive~ \$0-window-analysis;
#X obj 35 117 rfft~, f 6;
#X obj 34 453 /~;
#X obj 73 453 /~;
#X obj 135 411 * 1024;
#X obj 33 481 rifft~;
#X obj 33 506 *~;
#X obj 64 506 tabreceive~ \$0-window-resynthesis;
#X obj 36 21 inlet~;
#X obj 33 573 outlet~;
#X text 97 573 OVERLAP ADD AND RE-BLOCK;
#X obj 35 262 *~;
#X obj 74 261 *~;
#X obj 135 388 r \$0-norm;
#X floatatom 135 434 5 0 0 0 - - - 0;
#X obj 246 121 tgl 20 0 \$0-overlap-4 \$0-i-overlap-4 4 6 10 0 12 #fcfcfc #000000 #000000 0 1;
#X obj 270 121 tgl 20 0 \$0-overlap-8 \$0-i-overlap-8 8 6 10 0 12 #fcfcfc #000000 #000000 0 1;
#X text 186 122 OVERLAP:;
#X obj 871 14 loadbang;
#X text 208 379 DIVIDE BY 3/2(3) FOR 4(8) OVERLAPPING HANN-WINDOW, f 25;
#X obj 871 40 f \$0;
#X obj 156 121 tgl 20 0 \$0-switch \$0-i-switch S\  7 10 0 12 #fcfcfc #000000 #000000 0 1;
#X text 103 122 SWITCH:;
#X msg 871 63 \; \$1-overlap-4 1 \; \$1-switch 1 \;;
#X obj 674 343 tgl 20 0 empty empty 4 6 10 0 12 #fcfcfc #000000 #000000 0 1;
#X obj 793 341 tgl 20 0 empty empty 8 6 10 0 12 #fcfcfc #000000 #000000 0 1;
#X obj 674 368 sel 1;
#X msg 674 393 1, f 2;
#X msg 793 315 0;
#X msg 525 413 1.5;
#X obj 525 478 s \$0-norm;
#X obj 793 367 sel 1;
#X msg 793 392 1, f 2;
#X msg 674 317 0;
#X msg 570 413 3;
#X obj 525 323 r \$0-overlap-4;
#X msg 866 361 set \$1;
#X obj 866 384 s \$0-i-overlap-8;
#X msg 525 363 set \$1;
#X obj 525 386 s \$0-i-overlap-4;
#X obj 864 321 r \$0-overlap-8;
#X obj 674 564 switch~;
#X msg 674 462 set 1024 4 1;
#X msg 793 462 set 1024 8 1;
#X obj 674 433 del 10;
#X obj 793 434 del 10;
#X obj 827 520 r \$0-switch;
#X obj 827 544 tgl 20 0 empty empty empty 0 -10 0 12 #fcfcfc #000000 #000000 0 1;
#X obj 827 594 s \$0-i-switch;
#X msg 827 569 set \$1;
#N canvas 151 119 527 359 PULSE-DRAW 0;
#X obj 55 92 *~;
#X obj 87 92 *~;
#X obj 54 142 sqrt~;
#X obj 54 63 rfft~;
#X obj 55 115 +~;
#X obj 54 36 inlet~;
#X obj 170 57 tabsend~ \$0-PULSE-TRAIN;
#X obj 170 162 tabsend~ \$0-PULSE-TRAIN-MAG;
#X connect 0 0 4 0;
#X connect 1 0 4 1;
#X connect 2 0 7 0;
#X connect 3 0 0 0;
#X connect 3 0 0 1;
#X connect 3 1 1 0;
#X connect 3 1 1 1;
#X connect 4 0 2 0;
#X connect 5 0 3 0;
#X connect 5 0 6 0;
#X restore 47 91 pd PULSE-DRAW;
#X text 146 1 1024 OVERLAPPING RE-BUFFERING (EACH 256/128 SAMPLE SLIDES);
#X obj 350 26 inlet~;
#X obj 350 66 *~;
#X obj 350 133 *~;
#X obj 382 133 *~;
#X obj 349 183 sqrt~;
#X obj 349 94 rfft~;
#X obj 350 156 +~;
#X connect 0 0 2 0;
#X connect 0 0 51 0;
#X connect 1 0 0 1;
#X connect 1 0 54 1;
#X connect 2 0 12 0;
#X connect 2 1 13 0;
#X connect 3 0 6 0;
#X connect 4 0 6 1;
#X connect 5 0 15 0;
#X connect 6 0 7 0;
#X connect 7 0 10 0;
#X connect 8 0 7 1;
#X connect 9 0 0 0;
#X connect 12 0 3 0;
#X connect 13 0 4 0;
#X connect 14 0 5 0;
#X connect 15 0 4 1;
#X connect 15 0 3 1;
#X connect 19 0 21 0;
#X connect 21 0 24 0;
#X connect 25 0 27 0;
#X connect 25 0 39 0;
#X connect 26 0 32 0;
#X connect 26 0 37 0;
#X connect 27 0 28 0;
#X connect 28 0 29 0;
#X connect 28 0 30 0;
#X connect 28 0 45 0;
#X connect 29 0 26 0;
#X connect 30 0 31 0;
#X connect 32 0 33 0;
#X connect 33 0 34 0;
#X connect 33 0 35 0;
#X connect 33 0 46 0;
#X connect 34 0 25 0;
#X connect 35 0 31 0;
#X connect 36 0 25 0;
#X connect 37 0 38 0;
#X connect 39 0 40 0;
#X connect 41 0 26 0;
#X connect 43 0 42 0;
#X connect 44 0 42 0;
#X connect 45 0 43 0;
#X connect 46 0 44 0;
#X connect 47 0 48 0;
#X connect 48 0 42 0;
#X connect 48 0 50 0;
#X connect 50 0 49 0;
#X connect 53 0 54 0;
#X connect 54 0 58 0;
#X connect 55 0 59 0;
#X connect 56 0 59 1;
#X connect 57 0 12 1;
#X connect 57 0 13 1;
#X connect 58 0 55 0;
#X connect 58 0 55 1;
#X connect 58 1 56 0;
#X connect 58 1 56 1;
#X connect 59 0 57 0;
#X coords 0 -1 1 1 195 45 1 100 100;
#X restore 21 467 pd FFT-ANALYSIS-RESYNTHESIS;
#X msg 738 284 \; \$2-output resize \$1;
#X floatatom 652 214 9 0 0 0 - - - 0;
#X obj 738 258 pack \$1 \$0;
#X msg 1572 185 \; \$1-window-analysis const 1 \; \$1-window-resynthesis const 1 \;;
#X obj 22 697 output~;
#X obj 385 388 output~;
#X obj 243 367 tabplay~ \$0-input;
#X obj 243 341 bng 20 250 50 0 empty empty empty 0 -10 0 12 #fcfcfc #000000 #000000;
#X obj 41 530 tabwrite~ \$0-output;
#X obj 652 238 + 960;
#X text 694 238 COMPENSATION FOR DELAY;
#N canvas 2258 205 533 461 PULSE-TRAIN 0;
#X obj 27 23 inlet;
#X obj 188 26 inlet;
#X obj 316 26 inlet;
#X obj 27 138 *~;
#X obj 27 104 osc~;
#X obj 188 118 /;
#X obj 129 68 t b f;
#X obj 26 320 *~;
#X obj 316 51 expr $f1*$f1/10000;
#X obj 316 76 pack f 30;
#X obj 316 101 line~;
#X obj 26 417 outlet~;
#X obj 26 244 hip~ 30;
#X msg 79 84 0;
#X obj 27 80 * 0.5;
#X obj 27 194 expr~ exp(-$v1*$v1);
#X obj 27 48 mtof;
#X obj 188 51 mtof;
#X connect 0 0 16 0;
#X connect 1 0 17 0;
#X connect 2 0 8 0;
#X connect 3 0 15 0;
#X connect 4 0 3 0;
#X connect 5 0 3 1;
#X connect 6 0 5 0;
#X connect 6 1 5 1;
#X connect 7 0 11 0;
#X connect 8 0 9 0;
#X connect 9 0 10 0;
#X connect 10 0 7 1;
#X connect 12 0 7 0;
#X connect 13 0 4 1;
#X connect 14 0 4 0;
#X connect 15 0 12 0;
#X connect 16 0 14 0;
#X connect 16 0 6 0;
#X connect 17 0 5 0;
#X coords 0 0 1 1 85 60 0;
#X restore 20 414 pd PULSE-TRAIN;
#N canvas 0 50 450 250 (subpatch) 0;
#X array \$0-PULSE-TRAIN 1024 float 2;
#A color 0;
#A width 2;
#X coords 0 1 1024 0 400 140 1;
#X restore 625 411 graph;
#X floatatom 20 339 5 0 0 1 PITCH - - 0;
#X floatatom 67 359 5 0 0 1 BANDWIDTH - - 0;
#X floatatom 115 378 5 0 100 1 AMPLITUDE - - 0;
#X text 625 343 THE PURPOSE OF THE PULSE TRAIN HERE IS THAT WE WILL GET A MORE OR LESS "CONSTANT 1" SPECTRUM. AND THEN WE WILL STAMP THE TIMBRE OF \$0-INPUT ONTO IT (VOCODING), f 55;
#X text 18 39 ANALYSIS \, RESYNTHESIS \, CLASSICAL/CHANNEL VOCODER OR TIMBRE STAMPING -------------------------------------------------------------------, f 67;
#N canvas 0 50 450 250 (subpatch) 0;
#X array \$0-PULSE-TRAIN-MAG 512 float 2;
#A color 0;
#A width 2;
#X coords 0 1 512 0 400 140 1;
#X restore 625 578 graph;
#X text 212 12 MSP: 206.18s/4a;
#X text 395 335 MAYBE YOU NEED TO FLATTED THE INPUT SAMPLE SPECTRUM BEFORE FEEDING IT TO TIMBRE-STAMPER, f 30;
#X text 7 305 HOW IS THIS A PULSE TRAIN: MSP-CHAPTER 6.2 \, AND 33:50 -----------------------------------------------------;
#X text 290 469 IDEA IS TO HAVE THE PITCH OF ONE SIGNAL AND TIMBRE OF THE OTHER ONE, f 36;
#X connect 0 0 1 0;
#X connect 3 0 4 1;
#X connect 4 0 6 0;
#X connect 5 0 30 0;
#X connect 6 0 7 0;
#X connect 7 0 22 0;
#X connect 8 0 5 0;
#X connect 8 0 3 0;
#X connect 8 0 22 0;
#X connect 9 0 10 0;
#X connect 10 0 46 0;
#X connect 13 0 14 0;
#X connect 14 0 15 0;
#X connect 17 0 18 0;
#X connect 18 0 19 0;
#X connect 20 0 13 0;
#X connect 20 0 9 0;
#X connect 20 0 17 0;
#X connect 23 0 24 1;
#X connect 24 0 26 0;
#X connect 25 0 31 0;
#X connect 26 0 27 0;
#X connect 27 0 29 0;
#X connect 28 0 25 0;
#X connect 28 0 23 0;
#X connect 28 0 29 0;
#X connect 30 0 4 0;
#X connect 31 0 24 0;
#X connect 32 0 37 0;
#X connect 33 0 44 0;
#X connect 34 0 39 0;
#X connect 35 0 34 0;
#X connect 36 0 32 0;
#X connect 37 0 41 0;
#X connect 38 0 33 0;
#X connect 40 0 36 0;
#X connect 41 0 38 0;
#X connect 42 0 47 0;
#X connect 42 0 51 0;
#X connect 44 0 52 0;
#X connect 45 0 43 0;
#X connect 49 0 48 0;
#X connect 49 0 42 1;
#X connect 50 0 49 0;
#X connect 50 0 51 0;
#X connect 52 0 45 0;
#X connect 54 0 42 0;
#X connect 56 0 54 0;
#X connect 57 0 54 1;
#X connect 58 0 54 2;
