#N canvas 66 32 1854 977 12;
#X obj 433 10 ../5.reference/set-dsp-tgl;
#X msg 433 41 \; pd dsp \$1;
#X obj 27 9 cnv 5 170 25 empty empty FOURIER\ ANALYSIS 10 15 2 15 #ff0400 #202020 0;
#X msg 794 53 0;
#X obj 687 110 osc~;
#X obj 687 62 samplerate~;
#X obj 687 133 *~ -0.5;
#X obj 687 156 +~ 0.5;
#X obj 679 34 bng 19 250 50 0 empty empty empty 0 -6 0 8 #dfdfdf #000000 #000000;
#X obj 745 707 bng 20 250 50 0 empty empty Constant-1 23 10 0 12 #7c7c7c #000000 #000000;
#X obj 773 727 f \$0;
#N canvas 0 50 450 250 (subpatch) 0;
#X array \$0-input 16069 float 2;
#A color 0;
#A width 2;
#X coords 0 1 16069 -1 600 200 1;
#X restore 22 96 graph;
#N canvas 0 50 450 250 (subpatch) 0;
#X array \$0-window-analysis 2048 float 2;
#A color 0;
#A width 2;
#X coords 0 1 2048 0 350 150 1;
#X restore 745 230 graph;
#X obj 745 630 bng 20 250 50 0 empty empty Constant-0 23 10 0 12 #7c7c7c #000000 #000000;
#X obj 779 650 f \$0;
#X msg 779 672 \; \$1-input const 0;
#N canvas 1943 25 450 250 (subpatch) 0;
#X array \$0-output 17029 float 2;
#A color 0;
#A width 2;
#X coords 0 1 17029 -1 600 200 1;
#X restore 21 750 graph;
#X obj 745 802 bng 20 250 50 0 empty empty Constant-0 23 10 0 12 #7c7c7c #000000 #000000;
#X obj 775 822 f \$0;
#X msg 775 844 \; \$1-output const 0;
#X obj 745 582 bng 40 250 50 0 empty empty RESET\ ALL 45 20 0 12 #fcfcfc #000000 #000000;
#N canvas 0 50 450 250 (subpatch) 0;
#X array \$0-window-resynthesis 2048 float 2;
#A color 0;
#A width 2;
#X coords 0 1 2048 0 350 150 1;
#X restore 746 404 graph;
#X obj 679 184 tabwrite~ \$0-window-analysis;
#X msg 1011 53 0;
#X obj 906 112 osc~;
#X obj 906 64 samplerate~;
#X obj 906 135 *~ -0.5;
#X obj 906 158 +~ 0.5;
#X obj 898 34 bng 19 250 50 0 empty empty empty 0 -6 0 8 #dfdfdf #000000 #000000;
#X obj 898 186 tabwrite~ \$0-window-resynthesis;
#X obj 687 87 / 1024;
#X obj 906 88 / 1024;
#N canvas 52 20 1854 977 FFT-ANALYSIS-RESYNTHESIS 0;
#X obj 35 61 *~;
#X obj 66 61 tabreceive~ \$0-window-analysis;
#X obj 35 151 rfft~, f 6;
#X obj 35 536 /~;
#X obj 74 536 /~;
#X obj 108 513 * 1024;
#X obj 34 668 rifft~;
#X obj 34 704 *~;
#X obj 65 704 tabreceive~ \$0-window-resynthesis;
#X obj 36 21 inlet~;
#X obj 34 731 outlet~;
#X text 98 731 OVERLAP ADD AND RE-BLOCK;
#X obj 108 490 r \$0-norm;
#X floatatom 108 536 5 0 0 0 - - - 0;
#X obj 246 121 tgl 20 0 \$0-overlap-4 \$0-i-overlap-4 4 6 10 0 12 #fcfcfc #000000 #000000 0 1;
#X obj 270 121 tgl 20 0 \$0-overlap-8 \$0-i-overlap-8 8 6 10 0 12 #fcfcfc #000000 #000000 0 1;
#X text 186 122 OVERLAP:;
#X text 210 508 DIVIDE BY 3/2(3) FOR 4(8) OVERLAPPING HANN-WINDOW, f 25;
#X obj 156 121 tgl 20 0 \$0-switch \$0-i-switch S\  7 10 0 12 #fcfcfc #000000 #000000 0 1;
#X text 103 122 SWITCH:;
#X obj 909 38 tgl 20 0 empty empty 4 6 10 0 12 #fcfcfc #000000 #000000 0 1;
#X obj 1028 36 tgl 20 0 empty empty 8 6 10 0 12 #fcfcfc #000000 #000000 0 1;
#X obj 909 63 sel 1;
#X msg 909 88 1, f 2;
#X msg 1028 10 0;
#X msg 760 108 1.5;
#X obj 760 173 s \$0-norm;
#X obj 1028 62 sel 1;
#X msg 1028 87 1, f 2;
#X msg 909 12 0;
#X msg 805 108 3;
#X obj 760 18 r \$0-overlap-4;
#X msg 1101 56 set \$1;
#X obj 1101 79 s \$0-i-overlap-8;
#X msg 760 58 set \$1;
#X obj 760 81 s \$0-i-overlap-4;
#X obj 1099 16 r \$0-overlap-8;
#X obj 909 259 switch~;
#X obj 909 128 del 10;
#X obj 1028 129 del 10;
#X obj 1062 215 r \$0-switch;
#X obj 1062 239 tgl 20 0 empty empty empty 0 -10 0 12 #fcfcfc #000000 #000000 0 1;
#X obj 1062 289 s \$0-i-switch;
#X msg 1062 264 set \$1;
#X text 146 1 1024 OVERLAPPING RE-BUFFERING (EACH 256/128 SAMPLE SLIDES);
#X obj 192 172 *~;
#X obj 222 172 *~;
#X obj 192 196 +~;
#X text 250 154 THIS GIVES S[k]: MEANING AT EACH HOP (m) OF SIZE N SAMPLES \, IT GIVES POWER AT EACH CONSTRUNCTING BIN (SPECTRUM AT EACH POINT IN TIME m), f 36;
#X obj 1247 15 inlet;
#X obj 1316 83 s \$0-N;
#X floatatom 1247 39 5 0 0 0 - - - 0;
#X obj 1096 134 r \$0-N;
#X obj 1247 63 t b b f;
#X obj 1283 110 s \$0-overlap-4;
#X msg 1283 86 1, f 2;
#X msg 1247 86 1, f 2;
#X obj 1247 133 s \$0-switch;
#X msg 909 180 set \$1 4 1;
#X msg 1028 180 set \$1 8 1;
#X obj 1028 154 f;
#X obj 909 154 f;
#X obj 192 224 +~ 1e-20;
#X text 602 466 THRESHOLD FUNCTION: g(x) = 1 - 1/x WITH x = S[k]/f[k] (f[k] == m[k] IN THE BOOK EXAMPLE) \; SO \, g(x) = 1 - 1/x = 1 - f[k]/s[k] ===> g(x) = (s[k] - f[k])/s[k] --> THIS IS WHAT USED HERE \; ADDITIONALLY A MASK LEVEL IS DEFINED TO SORT OF CONSIDER LEVEL OF NOISE-GATING DESIRED..., f 95;
#X text 257 224 NO 0 DIVISION!;
#X obj 160 513 r \$0-N;
#X obj 36 379 *~;
#X obj 75 379 *~;
#X listbox 1199 200 11 0 0 0 - - - 0;
#X obj 192 249 rsqrt~;
#X text 243 250 1/sqrt~;
#X obj 251 331 expr 0.01*$f1*$f1;
#X obj 251 308 r \$0-SQUELCH;
#X text 13 344 DIVIDED BY MAGNITUDE;
#X obj 191 359 clip~ 0 1;
#X text 110 398 HIGH MAGNITUDE CONSTRUCTING SINUSOID (BIN) OF EVERY ANALYSIS FRAME WILL HAVE ITS MAGNITUDE REDUCED. FOR LOW MAGNITUDES BINS \, THERE IS A CHANCE/RISK OF SUPER HIGH AMPLIFICATION WHICH IS LIMITED BY CLIP~, f 42;
#X connect 0 0 2 0;
#X connect 1 0 0 1;
#X connect 2 0 45 0;
#X connect 2 0 45 1;
#X connect 2 0 66 0;
#X connect 2 1 46 0;
#X connect 2 1 46 1;
#X connect 2 1 67 0;
#X connect 3 0 6 0;
#X connect 4 0 6 1;
#X connect 5 0 13 0;
#X connect 6 0 7 0;
#X connect 7 0 10 0;
#X connect 8 0 7 1;
#X connect 9 0 0 0;
#X connect 12 0 5 0;
#X connect 13 0 4 1;
#X connect 13 0 3 1;
#X connect 20 0 22 0;
#X connect 20 0 34 0;
#X connect 21 0 27 0;
#X connect 21 0 32 0;
#X connect 22 0 23 0;
#X connect 23 0 24 0;
#X connect 23 0 25 0;
#X connect 23 0 38 0;
#X connect 24 0 21 0;
#X connect 25 0 26 0;
#X connect 27 0 28 0;
#X connect 28 0 29 0;
#X connect 28 0 30 0;
#X connect 28 0 39 0;
#X connect 29 0 20 0;
#X connect 30 0 26 0;
#X connect 31 0 20 0;
#X connect 32 0 33 0;
#X connect 34 0 35 0;
#X connect 36 0 21 0;
#X connect 38 0 61 0;
#X connect 39 0 60 0;
#X connect 40 0 41 0;
#X connect 41 0 37 0;
#X connect 41 0 43 0;
#X connect 43 0 42 0;
#X connect 45 0 47 0;
#X connect 46 0 47 1;
#X connect 47 0 62 0;
#X connect 49 0 51 0;
#X connect 51 0 53 0;
#X connect 52 0 60 1;
#X connect 52 0 61 1;
#X connect 53 0 56 0;
#X connect 53 1 55 0;
#X connect 53 2 50 0;
#X connect 55 0 54 0;
#X connect 56 0 57 0;
#X connect 58 0 37 0;
#X connect 58 0 68 0;
#X connect 59 0 37 0;
#X connect 59 0 68 0;
#X connect 60 0 59 0;
#X connect 61 0 58 0;
#X connect 62 0 69 0;
#X connect 65 0 5 1;
#X connect 66 0 3 0;
#X connect 67 0 4 0;
#X connect 69 0 74 0;
#X connect 71 0 74 2;
#X connect 72 0 71 0;
#X connect 74 0 67 1;
#X connect 74 0 66 1;
#X coords 0 -1 1 1 195 45 1 100 100;
#X restore 22 484 pd FFT-ANALYSIS-RESYNTHESIS;
#X msg 773 750 \; \$1-window-analysis const 1 \; \$1-window-resynthesis const 1 \;;
#X obj 22 647 output~;
#X obj 164 353 output~;
#X obj 22 332 tabplay~ \$0-input;
#X obj 22 306 bng 20 250 50 0 empty empty empty 0 -10 0 12 #fcfcfc #000000 #000000;
#X obj 35 547 tabwrite~ \$0-output;
#N canvas 1943 25 1177 543 LOAD-SAMPLE 0;
#X obj 105 255 openpanel;
#X obj 105 348 soundfiler, f 31;
#X obj 337 163 f \$0;
#X obj 105 143 bng 20 250 50 0 empty empty NORMALIZE 23 10 0 12 #fcfcfc #000000 #000000;
#X msg 105 217 symbol /home/mobin/Documents/Sounds, f 29;
#X obj 105 277 pack s \$0, f 25;
#X msg 105 324 read -resize \$1 \$2-input;
#X msg 337 187 \; \$1-input normalize \;;
#X obj 105 121 bng 20 250 50 0 empty empty LOAD 23 10 0 12 #fcfcfc #000000 #000000;
#X listbox 105 300 50 0 0 0 - - - 0;
#X msg 191 443 \; \$2-output resize \$1;
#X floatatom 105 373 9 0 0 0 - - - 0;
#X obj 191 417 pack \$1 \$0;
#X obj 105 397 + 960;
#X text 147 397 COMPENSATION FOR DELAY;
#X connect 0 0 5 0;
#X connect 1 0 11 0;
#X connect 2 0 7 0;
#X connect 3 0 2 0;
#X connect 4 0 0 0;
#X connect 5 0 9 0;
#X connect 6 0 1 0;
#X connect 8 0 4 0;
#X connect 9 0 6 0;
#X connect 11 0 13 0;
#X connect 12 0 10 0;
#X connect 13 0 12 0;
#X coords 0 -1 1 1 95 68 1 100 100;
#X restore 520 9 pd LOAD-SAMPLE;
#X msg 209 461 512;
#X msg 247 461 1024;
#X msg 293 461 2048;
#X obj 247 436 loadbang;
#X msg 1103 134 \; \$1-window-resynthesis resize \$2 \; \$1-window-analysis resize \$2 \;;
#X obj 1103 113 pack \$0 0;
#X text 331 461 ANALYSIS-WINDOW SIZE;
#X obj 1103 68 r \$0-N-WINDOW;
#X obj 293 508 s \$0-N-WINDOW;
#X floatatom 293 485 5 0 0 0 - - - 0;
#X obj 1103 92 t b b f;
#X obj 1084 14 bng 20 250 50 0 empty empty empty 0 -10 0 12 #fcfcfc #000000 #000000;
#X text 18 39 ANALYSIS \, RESYNTHESIS \, DYNAMIC RANGE COMPRESSION ------------------------------------------------;
#X obj 327 325 nbx 3 50 0 100 0 0 \$0-SQUELCH \$0-i-SQUELCH-DUMMY SQUELCH 120 25 0 30 #fcfcfc #000000 #000000 0 256;
#X text 326 378 UPPER-LIMIT = 50 --> 25 TIMES BIN MAGNITUDE POSSIBILITY;
#X obj 99 586 cnv 10 600 30 empty empty BE\ CAREFUL\ OF\ YOU\ EARS\ -\ NO\ HEADPHONES 10 15 0 25 #ff0400 #202020 0;
#X connect 0 0 1 0;
#X connect 3 0 4 1;
#X connect 4 0 6 0;
#X connect 5 0 30 0;
#X connect 6 0 7 0;
#X connect 7 0 22 0;
#X connect 8 0 5 0;
#X connect 8 0 3 0;
#X connect 8 0 22 0;
#X connect 9 0 10 0;
#X connect 10 0 33 0;
#X connect 13 0 14 0;
#X connect 14 0 15 0;
#X connect 17 0 18 0;
#X connect 18 0 19 0;
#X connect 20 0 13 0;
#X connect 20 0 9 0;
#X connect 20 0 17 0;
#X connect 23 0 24 1;
#X connect 24 0 26 0;
#X connect 25 0 31 0;
#X connect 26 0 27 0;
#X connect 27 0 29 0;
#X connect 28 0 25 0;
#X connect 28 0 23 0;
#X connect 28 0 29 0;
#X connect 30 0 4 0;
#X connect 31 0 24 0;
#X connect 32 0 34 0;
#X connect 32 0 38 0;
#X connect 36 0 35 0;
#X connect 36 0 32 0;
#X connect 37 0 36 0;
#X connect 37 0 38 0;
#X connect 40 0 32 1;
#X connect 40 0 49 0;
#X connect 41 0 32 1;
#X connect 41 0 49 0;
#X connect 42 0 32 1;
#X connect 42 0 49 0;
#X connect 43 0 41 0;
#X connect 45 0 44 0;
#X connect 47 0 31 1;
#X connect 47 0 30 1;
#X connect 47 0 50 0;
#X connect 49 0 48 0;
#X connect 50 0 51 0;
#X connect 50 1 45 0;
#X connect 50 2 45 1;
#X connect 51 0 28 0;
#X connect 51 0 8 0;
