#N canvas 1920 0 1920 1009 12;
#X floatatom 21 181 9 0 0 3 INPUT\ SIGNAL\ CONTINUS\ FREQUENCY\ [CYCLE/SEC] - - 0;
#N canvas 0 0 450 300 (subpatch) 0;
#X array \$0-real 256 float 2;
#A color 0;
#A width 2;
#X coords 0 256 255 -256 256 256 1;
#X restore 1191 312 graph;
#N canvas 0 0 450 300 (subpatch) 0;
#X array \$0-imaginary 256 float 2;
#A color 0;
#A width 2;
#X coords 0 256 255 -256 256 256 1;
#X restore 1454 312 graph;
#X obj 12 13 cnv 10 180 25 empty empty FOURIER\ ANALYSIS 10 15 2 16 #ff0400 #000000 0;
#X obj 21 82 line;
#N canvas 0 0 450 300 (subpatch) 0;
#X array \$0-input 512 float 2;
#A color 0;
#A width 2;
#X coords 0 1 512 -1 520 250 1;
#X restore 1191 41 graph;
#N canvas 0 0 450 300 (subpatch) 0;
#X array \$0-amplitude 256 float 0;
#A color 0;
#A width 1;
#X coords 0 256 255 0 256 100 1;
#X restore 1191 586 graph;
#N canvas 0 0 450 300 (subpatch) 0;
#X array \$0-phase 256 float 2;
#A color 0;
#A width 2;
#X coords 0 3.14159 255 -3.14159 256 100 1;
#X restore 1191 709 graph;
#X text 237 18 DSP;
#X obj 206 13 /usr/lib/puredata/doc/5.reference/set-dsp-tgl;
#N canvas 1970 50 1123 922 notes 0;
#X text 19 90 [fft~] computes the Fourier transform \, given the real and imaginary part of a complex-valued signal. Here the imaginary part is zero (the input is real-valued). The output is a (real \, imaginary) pair for each frequency from 0 to 128 (in units of SR/64)., f 140;
#X text 18 128 The [fft~] object has separate inlets for the real and imaginary parts of a complex-valued signal and outputs its Fourier transform \, again using separate outlets for the real and imaginary part. The transform is done on one block of samples (here the block size is 64 \, (Pd's default is 64). The outputs give the complex amplitudes of the harmonics of the input signal \, from DC up. The harmonics are tuned to the fundamental frequency of the analysis \, 1/128th of the sample rate. If the frequency (in harmonics) is an integer \, the result is two harmonics symmetric about the Nyquist frequency. Fractional frequencies spill across harmonics. Changing the initial phase rotates energy from real to imaginary and back., f 139;
#X text 17 235 BRINGING FFT CALCULATION INTO A SUBPATCH AS IN I02.Hann.window CAUSES CALCULATION ISSUE (RIPPLING AMPLITUDES \, ..) AT CERTAIN FREQUENCIES EVEN WITH HANN WINDOW ---> LATER CHECK WHY.. ---> KEEP BLOCK DEFINITION IN PARENT PATCH, f 122;
#X text 8 288 - CONTINUOUS FREQUENCY [1(CYCLE)/SEC = HZ]: HOW MUCH OF 1 CYCLE IS PASSED WITH EACH SECOND \; - DISCRETE FREQUENCY [1(CYCLE)/SAMPLE]: HOW MUCH OF 1 CYCLE IS PASSED AT EACH SAMPLE \; - IF DISCRETE FREQEUNCY == BLOCK-SIZE \, MEANS THAT WITH EACH SAMPLE WE HAVE 1 ROTATION -> ALWAYS 1 \; - FREQUENCY BINS: [0: (BLOCK-SIZE)-1] --> DISCRETE FREQUENCY INDICES \; - DISCRETE FUNDAMENTAL FREQUENCY: 1/(BLOCK-SIZE) [1/SAMPLE] \; - CONTINUOUS FUNDAMENTAL FREQUENCY: SR/(WINDOW-SIZE) [HZ==1/SEC] \;, f 102;
#X text 11 402 WHEN DISCRETE FREQUENCY INDEX = 1 (AND PHASE 0) FFT FIND THE FREQUENCY BINS AT 1 AND 127 (IN A 128 BLOCK-SIZE) ---> UNDERSTAND THIS BETTER ---> SINCE INPUT IS REAL SIGNAL \, IT IS CONSTRUCTED OF TWO OPPOSITELY ROTATING COMPLEX EXPONENTIALS. IN DFT A COMPLEX EXPONENTION ROTATING AT (-k0) IS EQUAL AND SHOWN WITH A COMPLEX EXPONENTIAL ROTATING AT (N-k0) DUE TO PERIODICITY OF EXAMINER FUNCTION (SEE PYTHON NOTEBOOK AND CHATGPT DISCUSSIONS), f 141;
#X text 12 489 TO GET CONTINUOUS FREQUENCY OF THE WINDOW BINS -> INDEX SHOULD BE MULTIPLIED BY SR/(WINDOW-SIZE), f 97;
#X text 11 612 IN GENERAL - BETTER TO KEEP THE SOUND SOURCE AND FFT IN SAME SUBPATCH TO BE ABLE TO USE SAME BLOCK SIZE \, OR TO USE A TABRECEIVE~ OBJECT TO READ FROM TABLE INSTEAD OF INLET~, f 94;
#X text 10 518 WHEN PHASE IS RESET AND AND PARENT DSP IS STARTED \, I CAN BE SURE THAT IT STARTS FROM 0 PHASE. NOW WHEN I CALCULATE ONE BLOCK OF FFT \, IT COULD BE THAT FIRST BLOCK AT THE INLET IS NOT THE FIRST BLOCK OF OSC~ GENERATION AND i ACCEPT THIS. BUT WHY FROM THE NEXT BANGS THAT I DO SPORADICALLY \, ALWAYS PHASE OF FFT OUTPUT(SEEN FROM REAL/IMAG) REMAINS THE SAME? AS IF FFT HAS A MEMORY! -> PROBABLY NOT VERY IMPORTANT BUT BETTER TO INVESTIGATE, f 103;
#X text 9 663 BUT CONSIDER THAT I AM NOT GOING TO DO REAL-TIME PHASE VOCODING -> EASIER AND I THINK NOW ISSUES WILL BE THERE, f 112;
#X text 11 696 WHEN TABWRITE~ IS BANGED \, IT WAIT FOR (WINDOW-SIZE = 512) SAMPLE TO COME AND THEN DRAWS THEM OF THE WINDOW!, f 108;
#X text 22 34 IF PARENT AND SUBPATCH SHARE BLOCKSIZE (512 IN THIS CASE) \, PHASE WILL BE CONSISTENTLY CORRECT. IF PARENT 64 AND SUBPATCH 512 \, FFT CAN GENERATE DIFFERENT PHASES...SOMETHING WITH THE BLOCK BUFFERING \; tabreceive~ OBJECT READING THE INPUT TO FFT DIRECTLY FROM INPUT ARRAY \$0-input WILL NO HAVE THIS ISSUE AND WORKS FINE!, f 147;
#X restore 618 19 pd notes;
#N canvas 0 0 450 300 (subpatch) 0;
#X array \$0-hann 512 float 1;
#A 0 1 1 1 1 1 1 1 1 1 1 1 1 1 1 1 1 1 1 1 1 1 1 1 1 1 1 1 1 1 1 1 1 1 1 1 1 1 1 1 1 1 1 1 1 1 1 1 1 1 1 1 1 1 1 1 1 1 1 1 1 1 1 1 1 1 1 1 1 1 1 1 1 1 1 1 1 1 1 1 1 1 1 1 1 1 1 1 1 1 1 1 1 1 1 1 1 1 1 1 1 1 1 1 1 1 1 1 1 1 1 1 1 1 1 1 1 1 1 1 1 1 1 1 1 1 1 1 1 1 1 1 1 1 1 1 1 1 1 1 1 1 1 1 1 1 1 1 1 1 1 1 1 1 1 1 1 1 1 1 1 1 1 1 1 1 1 1 1 1 1 1 1 1 1 1 1 1 1 1 1 1 1 1 1 1 1 1 1 1 1 1 1 1 1 1 1 1 1 1 1 1 1 1 1 1 1 1 1 1 1 1 1 1 1 1 1 1 1 1 1 1 1 1 1 1 1 1 1 1 1 1 1 1 1 1 1 1 1 1 1 1 1 1 1 1 1 1 1 1 1 1 1 1 1 1 1 1 1 1 1 1 1 1 1 1 1 1 1 1 1 1 1 1 1 1 1 1 1 1 1 1 1 1 1 1 1 1 1 1 1 1 1 1 1 1 1 1 1 1 1 1 1 1 1 1 1 1 1 1 1 1 1 1 1 1 1 1 1 1 1 1 1 1 1 1 1 1 1 1 1 1 1 1 1 1 1 1 1 1 1 1 1 1 1 1 1 1 1 1 1 1 1 1 1 1 1 1 1 1 1 1 1 1 1 1 1 1 1 1 1 1 1 1 1 1 1 1 1 1 1 1 1 1 1 1 1 1 1 1 1 1 1 1 1 1 1 1 1 1 1 1 1 1 1 1 1 1 1 1 1 1 1 1 1 1 1 1 1 1 1 1 1 1 1 1 1 1 1 1 1 1 1 1 1 1 1 1 1 1 1 1 1 1 1 1 1 1 1 1 1 1 1 1 1 1 1 1 1 1 1 1 1 1 1 1 1 1 1 1 1 1 1 1 1 1 1 1 1 1 1 1 1 1 1 1 1 1 1 1 1 1 1 1 1 1 1 1 1 1 1 1 1 1 1 1 1 1 1 1 1 1 1;
#A color 0;
#A width 1;
#X coords 0 1 511 0 200 120 1;
#X restore 1194 833 graph;
#X msg 1571 825 0;
#X obj 1476 882 osc~, f 14;
#X obj 1476 834 samplerate~;
#X obj 1476 905 *~ -0.5;
#X obj 1476 929 +~ 0.5;
#X obj 1468 956 tabwrite~ \$0-hann;
#X text 1183 832 1;
#X text 1183 936 0;
#X text 1193 953 0;
#X obj 1468 806 bng 19 250 50 0 empty empty empty 0 -6 0 8 #dfdfdf #000000 #000000;
#X text 1490 804 RECALCULATE;
#X text 1253 916 HANN-WINDOW;
#X obj 1613 807 bng 20 250 50 0 empty empty Constant-1 23 10 0 12 #7c7c7c #000000 #000000;
#X obj 1613 829 f \$0;
#X msg 1613 851 \; \$1-hann const 1;
#X msg 127 106 80;
#X obj 1476 858 / 512;
#N canvas 309 83 1099 715 R-FFT 0;
#X obj 407 555 loadbang;
#X obj 407 577 bng 20 250 50 0 empty empty empty 0 -10 0 12 #fcfcfc #000000 #000000;
#X obj 19 621 tabwrite~ \$0-amplitude;
#X obj 90 561 tabwrite~ \$0-phase;
#X obj 24 271 *~;
#X obj 76 271 tabreceive~ \$0-hann;
#X obj 93 420 expr~ atan2($v2 \, $v1);
#X text 87 483 HERE PUT PHASE TO 0 WHEN MAGNITUDE IS SMALL(AVOID CALCULATION ERRORS), f 24;
#X obj 276 420 tabwrite~ \$0-real;
#X obj 407 420 tabwrite~ \$0-imaginary;
#X obj 22 428 *~;
#X obj 55 428 *~;
#X obj 21 452 +~;
#X obj 20 475 sqrt~;
#X text 31 305 - CALCULATES REAL FFT OF ONE BLOCK X SAMPLES (X IS DEFINED WITH BLOCKSIZE OF THE PARENT PATCH) \; - ONE BLOCK GENERATED ABOVE IS AN OSCILLATOR WITH DISCERE FREQUENCY FROM [0 TO 0.5] (DISCRETE FREQUENCY INDEX FROM [0 TO X/2-1] \; - FOR REAL SIGNAL HALF THE CALCULATION IS DONE SINCE WE HAVE MIRRORING EXPONENTIONAL CONSTRUCTING A REAL SIGNAL \, FOR EXAMPLE A COSINE IS ADDITION OF TWO OPPOSITE ROTATING EXPONENTIALS. AND EXPONENTIAL ROTATING IN -k0 == EXPONENTION ROTATING AT N-k0 DUE TO THE CIRCULAR NATURE OF THE DFT \;, f 131;
#X obj 89 534 expr~ if(abs($v1)<1e-4 \, 0 \, $v2);
#X obj 108 152 tgl 20 0 empty empty TURN\ ON/OFF\ SUBPATCH 23 10 0 12 #fcfcfc #000000 #000000 0 1;
#X obj 108 128 bng 20 250 50 0 empty empty 1-BLOCK\ CALCULATION 23 10 0 12 #ff0400 #000000 #000000;
#X obj 630 492 bang~;
#X obj 630 611 outlet;
#X text 641 526 OUTLETS A BANG \, BEGINNING OF DSP BLOCK. THIS COULD BE USED \, RESETTING THE PHASE OF INPUT SINUSOID (OSC~), f 25;
#X text 628 631 NOT VERY NECESSARY SINCE THE USE OF FFT WILL NOT BE FOR OSC~;
#X obj 604 73 bang~;
#X obj 604 99 t b b;
#X obj 604 125 timer;
#X floatatom 604 154 8 0 0 0 - - - 0;
#X obj 34 241 tabreceive~ \$0-input;
#X text 181 242 COULD BE USED INSTEAD OF INLET~;
#X obj 407 601 metro 150;
#X obj 22 195 inlet~;
#X obj 23 399 rfft~;
#X obj 108 193 switch~ 512 1 1 0;
#X connect 0 0 1 0;
#X connect 1 0 28 0;
#X connect 4 0 30 0;
#X connect 5 0 4 1;
#X connect 6 0 15 1;
#X connect 10 0 12 0;
#X connect 11 0 12 1;
#X connect 12 0 13 0;
#X connect 13 0 2 0;
#X connect 13 0 15 0;
#X connect 15 0 3 0;
#X connect 16 0 31 0;
#X connect 17 0 31 0;
#X connect 18 0 19 0;
#X connect 22 0 23 0;
#X connect 23 0 24 0;
#X connect 23 1 24 1;
#X connect 24 0 25 0;
#X connect 26 0 4 0;
#X connect 28 0 2 0;
#X connect 28 0 3 0;
#X connect 28 0 9 0;
#X connect 28 0 8 0;
#X connect 30 0 10 0;
#X connect 30 0 10 1;
#X connect 30 0 6 0;
#X connect 30 0 8 0;
#X connect 30 1 11 0;
#X connect 30 1 11 1;
#X connect 30 1 6 1;
#X connect 30 1 9 0;
#X coords 0 -1 1 1 200 80 1 100 100;
#X restore 20 325 pd R-FFT;
#X text 1369 953 511;
#X text 1464 687 rfft -> outputs N/2+1 Real parts and N/2-1 Imaginary parts, f 32;
#X text 1422 807 255;
#X text 1422 565 256;
#X text 1685 566 255;
#X text 1261 20 512 [SAMPLES] -> [48000 SAMPLE/SEC] -> ~10.67 [MS];
#X msg 28 106 5;
#X text 1422 684 255;
#X msg 158 106 255;
#X obj 113 236 loadbang;
#X msg 21 59 0 \, 255 10000;
#X msg 206 46 \; pd dsp \$1;
#X obj 496 16 bang~;
#X obj 496 42 t b b;
#X obj 496 68 timer;
#X floatatom 496 92 8 0 0 0 - - - 0;
#X obj 496 115 * 8;
#X obj 90 289 tabwrite~ \$0-input;
#X obj 90 236 bng 20 250 50 0 empty empty empty 0 -10 0 12 #fcfcfc #000000 #000000;
#X obj 90 258 metro 100;
#N canvas 2661 200 778 702 index-continuous-conversion 0;
#X floatatom 18 70 6 0 0 0 - - - 0;
#X obj 50 191 samplerate~;
#X obj 18 191 *;
#X text 29 216 DISCRETE->CONTINUOUS FREQUENCY CONVERSION;
#X floatatom 18 122 10 0 0 1 INPUT\ SIGNAL\ DISCRETE\ FREQUNECY\ [CYCLE/SAMPLE] - - 0;
#X text 60 96 (1/256 == DISCRETE FUNDAMENTAL FREQUENCY OF ANALYSIS);
#X text 140 171 (SR/WINDOW-SIZE == CONTINUOUS FUNDAMENTAL FREQUENCY OF ANALYSIS), f 34;
#X obj 18 96 / 512;
#X text 64 71 DISCRETE FREQUENCY INDEX (k0);
#X obj 50 145 receive pd-dsp-started;
#X obj 50 168 bng 20 250 50 0 empty empty empty 0 -10 0 12 #fcfcfc #000000 #000000;
#X obj 18 32 inlet;
#X obj 18 595 outlet;
#X obj 490 390 f;
#X obj 522 390 / 100;
#X obj 490 310 bng 20 250 50 0 empty empty empty 0 -10 0 12 #fcfcfc #000000 #000000;
#X text 540 303 EACH TIME PHASE IS SET TO 0 \, FROM NEXT DSP BLOCK OF PARENT PATCH (64) THE OSC~ WILL BE GENERATED FROM PHASE 0 (RESETTING PHASE), f 27;
#X obj 490 35 inlet;
#X obj 490 597 outlet;
#X obj 490 60 t b f;
#X connect 0 0 7 0;
#X connect 1 0 2 1;
#X connect 2 0 12 0;
#X connect 4 0 2 0;
#X connect 7 0 4 0;
#X connect 9 0 10 0;
#X connect 10 0 1 0;
#X connect 11 0 0 0;
#X connect 13 0 18 0;
#X connect 14 0 13 1;
#X connect 15 0 13 0;
#X connect 17 0 19 0;
#X connect 19 0 15 0;
#X connect 19 1 14 0;
#X restore 21 156 pd index-continuous-conversion;
#X floatatom 228 128 5 0 100 1 PHASE\ [100TH\ OF\ A\ CYCLE] - - 0;
#X obj 322 39 tgl 20 0 empty empty empty 0 -10 0 12 #fcfcfc #000000 #000000 0 1;
#X obj 349 39 bng 20 250 50 0 empty empty empty 0 -10 0 12 #fcfcfc #000000 #000000;
#X obj 200 269 bng 20 250 50 0 empty empty empty 0 -10 0 12 #fcfcfc #000000 #000000;
#X obj 21 245 phasor~;
#X obj 21 270 cos~;
#X msg 228 103 0;
#X obj 29 301 osc~;
#X obj 322 72 switch~ 64;
#X text 614 47 THE IDEA IS TO UNDERSTAND HOW PHASE-VOCODER WORKS IN PUREDATA EXMAPLES(CHAPTER I) \, AND HOW I CAN IMPROVE IT;
#X text 614 89 CONTINUE WITH THE LECTURES AND MSP-BOOK;
#X msg 58 106 20;
#X msg 89 106 10.5;
#X text 617 134 HANN WINDOW MULTIPLICATION INTUITION. MULTIPLICATION IN TIME DOMAIN == CONVOLUTION IN FREQUENCY DOMAIN. WHAT DOES IT MEAN?, f 62;
#X connect 0 0 55 0;
#X connect 4 0 50 0;
#X connect 9 0 41 0;
#X connect 12 0 13 1;
#X connect 13 0 15 0;
#X connect 14 0 28 0;
#X connect 15 0 16 0;
#X connect 16 0 17 0;
#X connect 21 0 14 0;
#X connect 21 0 12 0;
#X connect 21 0 17 0;
#X connect 24 0 25 0;
#X connect 25 0 26 0;
#X connect 27 0 50 0;
#X connect 28 0 13 0;
#X connect 36 0 50 0;
#X connect 38 0 50 0;
#X connect 39 0 48 0;
#X connect 40 0 4 0;
#X connect 42 0 43 0;
#X connect 43 0 44 0;
#X connect 43 1 44 1;
#X connect 44 0 45 0;
#X connect 45 0 46 0;
#X connect 48 0 49 0;
#X connect 50 0 0 0;
#X connect 50 1 55 1;
#X connect 51 0 50 1;
#X connect 52 0 59 0;
#X connect 53 0 59 0;
#X connect 54 0 47 0;
#X connect 55 0 56 0;
#X connect 56 0 29 0;
#X connect 56 0 47 0;
#X connect 57 0 51 0;
#X connect 62 0 50 0;
#X connect 63 0 50 0;
