#N canvas 1906 -12 1854 977 12;
#X floatatom 24 211 7 0 0 0 - - - 0;
#N canvas 0 0 450 300 (subpatch) 0;
#X array \$0-real 64 float 2;
#A color 0;
#A width 2;
#X coords 0 64 64 -64 256 200 1;
#X restore 421 281 graph;
#X floatatom 24 114 5 0 32 0 - - - 0;
#X obj 56 186 samplerate~;
#X obj 24 161 t f b;
#X obj 24 186 *;
#X obj 24 732 tabwrite~ \$0-real;
#X obj 49 709 tabwrite~ \$0-imaginary;
#X obj 24 414 osc~;
#N canvas 0 0 450 300 (subpatch) 0;
#X array \$0-imaginary 64 float 2;
#A color 0;
#A width 2;
#X coords 0 64 64 -64 256 200 1;
#X restore 419 513 graph;
#X obj 49 390 f;
#X floatatom 67 341 5 0 100 0 - - - 0;
#X obj 67 365 / 100;
#X obj 24 137 / 64;
#X obj 49 312 r \$0-snap;
#X text 80 393 sync phase with snapshots;
#X obj 24 549 fft~;
#X obj 226 15 ../5.reference/set-dsp-tgl;
#X msg 226 50 \; pd dsp \$1;
#X text 81 211 <-- frequency \, Hz.;
#X text 112 340 <--;
#X text 139 339 phase in hundredths of a cycle, f 10;
#X text 121 312 bang-on-snapshot from below;
#X obj 27 9 cnv 5 190 25 empty empty Fourier\ Analysis 15 15 1 20 #ff0400 #202020 0;
#N canvas 0 0 450 300 (subpatch) 0;
#X array \$0-input 64 float 2;
#A color 0;
#A width 2;
#X coords 0 1 64 -1 256 200 1;
#X restore 421 55 graph;
#X obj 36 463 tabwrite~ \$0-input;
#X msg 24 55 3;
#X msg 35 79 3.5;
#X obj 550 45 cnv 5 2 220 empty empty empty 20 12 0 12 #ff0400 #404040 0;
#X text 500 457 COSINE (EVEN);
#X text 510 690 SINE (ODD);
#X obj 317 43 metro 250;
#X obj 317 20 loadbang;
#X obj 317 65 s \$0-snap;
#X obj 72 684 r \$0-snap;
#X obj 43 439 r \$0-snap;
#N canvas 0 0 450 300 (subpatch) 0;
#X array \$0-input-2 64 float 3;
#A 0 1 1 1 1 1 1 1 1 1 1 1 1 1 1 1 1 1 1 1 1 1 1 1 1 1 1 1 1 1 1 1 1 0 0 0 0 0 0 0 0 0 0 0 0 0 0 0 0 0 0 0 0 0 0 0 0 0 0 0 0 0 0 0 0;
#A color 0;
#A width 2;
#X coords 0 1 64 0 256 200 1;
#X restore 695 55 graph;
#X obj 64 653 tabwrite~ \$0-amplitude;
#X obj 66 581 *~;
#X obj 99 581 *~;
#X obj 65 605 +~;
#X obj 64 628 sqrt~;
#N canvas 0 0 450 300 (subpatch) 0;
#X array \$0-amplitude 64 float 2;
#A color 0;
#A width 2;
#X coords 0 64 64 -32 256 200 1;
#X restore 422 741 graph;
#X obj 115 628 r \$0-snap;
#X msg 86 95 0;
#X obj 33 512 tabreceive~ \$0-input-2;
#X text 754 195 SPECTRUM --> SINC;
#X obj 973 105 until;
#X msg 973 56 64;
#X obj 973 130 f;
#X obj 1004 130 + 1;
#X floatatom 973 155 5 0 0 0 - - - 0;
#X msg 1027 201 0;
#X msg 973 201 1;
#X msg 1048 92 0;
#X obj 973 281 s \$0-input-2;
#X obj 973 229 pack f f;
#X msg 973 256 list \$2 \$1;
#X obj 973 80 t f b;
#X text 969 32 SQUARE FUNCTION;
#X obj 973 179 moses 32;
#X text 1179 28 # EXPLANATION OF WHY FOR DISCRETE-FREQUENCY-INDEX(DFI) OR K0 = 3.5 \, THERE IS NOT REAL PART TO FFT AND ALL IMAGINARY: \; THIS IS DUE TO THE ODD SYMMETRY OF \$0-input. CONSIDER IN DFT/FFT \, REAL(COSINE) PART OF THE EXAMINER FUNCTION FOR EVERY BIN (0 TO 63) \, WILL BE MULTIPLIED BY \$0-input TO FIND CORRELATION. NOW SINCE "EXAMINER COSINES" ALL WILL HAVE EVEN SYMMETRY AT 64/2 \, THE MULTIPLICATION OF ANY OF THE EXAMINER COSINES BY \$0-input WILL SUM TO 0 -> NO CORRELATION!, f 68;
#X text 114 94 DC -> VALUE 64 AT BIN 0;
#X connect 0 0 8 0;
#X connect 2 0 13 0;
#X connect 3 0 5 1;
#X connect 4 0 5 0;
#X connect 4 1 3 0;
#X connect 5 0 0 0;
#X connect 8 0 25 0;
#X connect 8 0 16 0;
#X connect 10 0 8 1;
#X connect 11 0 12 0;
#X connect 12 0 10 1;
#X connect 13 0 4 0;
#X connect 14 0 10 0;
#X connect 16 0 6 0;
#X connect 16 0 38 0;
#X connect 16 0 38 1;
#X connect 16 1 7 0;
#X connect 16 1 39 0;
#X connect 16 1 39 1;
#X connect 17 0 18 0;
#X connect 26 0 2 0;
#X connect 27 0 2 0;
#X connect 31 0 33 0;
#X connect 32 0 31 0;
#X connect 34 0 7 0;
#X connect 34 0 6 0;
#X connect 35 0 25 0;
#X connect 38 0 40 0;
#X connect 39 0 40 1;
#X connect 40 0 41 0;
#X connect 41 0 37 0;
#X connect 43 0 37 0;
#X connect 44 0 2 0;
#X connect 47 0 49 0;
#X connect 48 0 58 0;
#X connect 49 0 50 0;
#X connect 49 0 51 0;
#X connect 50 0 49 1;
#X connect 51 0 56 1;
#X connect 51 0 60 0;
#X connect 52 0 56 0;
#X connect 53 0 56 0;
#X connect 54 0 49 1;
#X connect 56 0 57 0;
#X connect 57 0 55 0;
#X connect 58 0 47 0;
#X connect 58 1 54 0;
#X connect 60 0 53 0;
#X connect 60 1 52 0;
