#N canvas 66 32 1854 977 12;
#X obj 1188 129 bng 20 250 50 0 empty empty empty 0 -10 0 12 #ff0400 #000000 #000000;
#X obj 1188 229 *~;
#X obj 1189 296 snapshot~;
#X floatatom 1189 321 7 0 0 0 - - - 0;
#X obj 1389 129 loadbang;
#X obj 1389 154 tgl 20 0 empty empty empty 0 -10 0 12 #fcfcfc #000000 #000000 0 1;
#X obj 1389 179 metro 1;
#N canvas 0 50 450 250 (subpatch) 0;
#X array \$0-AMPLITUDE-SQUARED 5000 float 2;
#A color 0;
#A width 2;
#X coords 0 1 5000 0 300 120 1;
#X restore 1189 415 graph;
#N canvas 151 119 450 250 (subpatch) 0;
#X array \$0-AMPLITUDE-LINEAR 5000 float 2;
#A color 0;
#A width 2;
#X coords 0 1 5000 0 300 120 1;
#X restore 1499 415 graph;
#X obj 1465 220 snapshot~;
#X floatatom 1465 318 6 0 0 0 - - - 0;
#X obj 1389 271 f;
#X obj 1419 271 + 1;
#X msg 1407 246 0, f 2;
#X obj 1189 354 tabwrite \$0-AMPLITUDE-SQUARED;
#X obj 1465 354 tabwrite \$0-AMPLITUDE-LINEAR;
#X text 1189 539 CORRECT AMPLITUDE CHANGE FOR OUR HEARING;
#X text 1188 88 AUDIO AMPLITUDE WE HEAR IS NOT LINEAR BUT SQUARE. SO WE HEAR ~ HALF THE INITIAL VOLUME IN MIDDLE OF ENVELOPE (~2500ms), f 68;
#X msg 1188 172 1 100;
#X obj 1233 149 del 100;
#X msg 1233 172 0 4900;
#X text 1188 51 AMPLITUDE CONTROL -----------------, f 17;
#X text 1570 165 AD ENVELOPE;
#X obj 1188 201 line~;
#X obj 35 102 noise~;
#X obj 282 681 output~;
#X obj 35 127 +~ 1;
#X obj 35 152 *~ 0.5;
#X obj 34 232 snapshot~;
#X floatatom 34 257 6 0 0 0 - - - 0;
#X obj 128 207 tgl 20 0 empty empty empty 0 -10 0 12 #fcfcfc #000000 #000000 0 1;
#X obj 34 283 osc~;
#X obj 176 112 noise~;
#X obj 176 137 +~ 1;
#X obj 176 162 *~ 0.5;
#X obj 177 264 osc~;
#X obj 176 239 samphold~;
#X obj 176 187 *~ 1000;
#X obj 35 177 *~ 1000;
#X obj 205 215 phasor~ 10;
#X obj 56 207 metro 100;
#X text 35 72 PHASOR 10 == "10 CYCLE/SEC" OR "1 CYCLE/100MS";
#X obj 321 110 tgl 20 0 empty empty empty 0 -10 0 12 #fcfcfc #000000 #000000 0 1;
#X obj 321 135 metro 100;
#X obj 321 160 random 1000;
#X obj 321 185 osc~;
#X obj 34 696 samphold~;
#X obj 116 696 phasor~;
#X floatatom 175 695 7 0 0 0 - - - 0;
#X obj 33 466 bng 20 250 50 0 empty empty empty 0 -10 0 12 #fcfcfc #000000 #000000;
#X obj 33 491 openpanel;
#X obj 34 593 array define SAMPLE;
#X obj 33 542 soundfiler;
#X floatatom 33 567 5 0 0 0 - - - 0;
#X msg 33 517 read -resize \$1 SAMPLE;
#X obj 33 630 tabplay~ SAMPLE;
#X obj 153 654 spigot;
#X obj 205 653 tgl 20 0 empty empty empty 0 -10 0 12 #fcfcfc #000000 #000000 0 1;
#X obj 153 631 bng 20 250 50 0 empty empty empty 0 -10 0 12 #fcfcfc #000000 #000000;
#X text 32 431 DECIMATE A SAMPLE;
#X obj 283 514 phasor~;
#X floatatom 283 461 5 0 0 0 - - - 0;
#X obj 372 514 phasor~;
#X floatatom 372 490 5 0 0 0 - - - 0;
#X obj 283 566 samphold~;
#X obj 283 591 *~ 2000;
#X obj 432 514 phasor~;
#X floatatom 432 490 5 0 0 0 - - - 0;
#X text 369 469 IMPLICIT ADDITION;
#X text 281 434 DECIMATING A SINE -> INTERESTING PATTERNS;
#X obj 283 620 osc~;
#X text 377 564 PLAY WITH SAMPHOLD(RIGHT INLET) PHASOR FREQUENCIES TO GET INTERESTING PATTERNS, f 27;
#X obj 33 320 output~;
#X obj 35 724 output~;
#X obj 177 312 output~;
#X obj 320 221 output~;
#X text 36 7 https://msp.ucsd.edu/syllabi/171.20w/movies/171-6a-feb11.mp4;
#X connect 0 0 18 0;
#X connect 0 0 13 0;
#X connect 0 0 19 0;
#X connect 1 0 2 0;
#X connect 2 0 3 0;
#X connect 3 0 14 0;
#X connect 4 0 5 0;
#X connect 5 0 6 0;
#X connect 6 0 2 0;
#X connect 6 0 9 0;
#X connect 6 0 11 0;
#X connect 9 0 10 0;
#X connect 10 0 15 0;
#X connect 11 0 12 0;
#X connect 11 0 14 1;
#X connect 11 0 15 1;
#X connect 12 0 11 1;
#X connect 13 0 11 1;
#X connect 18 0 23 0;
#X connect 19 0 20 0;
#X connect 20 0 23 0;
#X connect 23 0 1 0;
#X connect 23 0 1 1;
#X connect 23 0 9 0;
#X connect 24 0 26 0;
#X connect 26 0 27 0;
#X connect 27 0 38 0;
#X connect 28 0 29 0;
#X connect 29 0 31 0;
#X connect 30 0 40 0;
#X connect 31 0 72 0;
#X connect 32 0 33 0;
#X connect 33 0 34 0;
#X connect 34 0 37 0;
#X connect 35 0 74 0;
#X connect 36 0 35 0;
#X connect 37 0 36 0;
#X connect 38 0 28 0;
#X connect 39 0 36 1;
#X connect 40 0 28 0;
#X connect 42 0 43 0;
#X connect 43 0 44 0;
#X connect 44 0 45 0;
#X connect 45 0 75 0;
#X connect 46 0 73 0;
#X connect 47 0 46 1;
#X connect 48 0 47 0;
#X connect 49 0 50 0;
#X connect 50 0 54 0;
#X connect 52 0 53 0;
#X connect 54 0 52 0;
#X connect 55 0 46 0;
#X connect 55 1 58 0;
#X connect 56 0 55 0;
#X connect 57 0 56 1;
#X connect 58 0 56 0;
#X connect 60 0 64 0;
#X connect 61 0 60 0;
#X connect 62 0 64 1;
#X connect 63 0 62 0;
#X connect 64 0 65 0;
#X connect 65 0 70 0;
#X connect 66 0 64 1;
#X connect 67 0 66 0;
#X connect 70 0 25 0;
