#N canvas 1920 0 1920 1009 12;
#X declare -stdpath /home/mobin/Documents/Pd/my-patches/extra;
#X declare -stdpath /home/mobin/Documents/Pd/internet-patches/MSP;
#X text 15 14 ****************************************************** \; SINUSOID FREQUENCY REPRESENTATIONS \; ****************************************************** \; f ------------: CYCLE/SEC OR Hz \; f_d ----------: CYCLE/SAMPLE \; omega --------: RADIANS/SEC == 2*PI*f \; omega_d ------: RADIANS/SAMPLE ==2*PI*k \; ****************************************************** \; fs -----------: SAMPLING FREQUENCY SAMPLE/SEC == 48000 \; ****************************************************** \; ALIASING (NYQUIST) FREQUENCY: \; ****************************************************** \; f_NY = fs/2 CYCLE/SEC \; f_d_NY = 1/2 CYCLE/SAMPLE \; omega_NY = 2*PI*fs/2 RADIANS/SEC \; omega_d_NY = PI RADIANS/SAMPLE \; ****************************************************** \;;
#N canvas 1906 -12 1920 1009 FREQUENCY-BOX 0;
#X obj 109 293 nbx 8 22 -1e+37 1e+37 0 0 \$0-f_d \$0-i-f_d f_d:\ DISCRETE\ FREQUNECY\ (CYCLE/SAMPLE) 100 11 0 12 #fcfcfc #000000 #000000 0 256;
#X obj 109 214 nbx 8 22 -1e+37 1e+37 0 0 \$0-f \$0-i-f f:\ FREQUENCY\ (CYCLE/SECOND\ or\ Hz) 100 11 0 12 #faff00 #000000 #000000 0 256;
#X obj 109 239 nbx 8 22 -1e+37 1e+37 0 0 \$0-omega \$0-i-omega omega:\ ANGULAR\ FREQUENCY\ (RADIANS/SECOND) 100 11 0 12 #fcfcfc #000000 #000000 0 256;
#X obj 109 318 nbx 8 22 -1e+37 1e+37 0 0 \$0-omega_d \$0-i-omega_d omega_d:\ DISCRETE\ ANGULAR\ FREQUENCY\ (RADIANS/SAMPLE) 100 11 0 12 #fcfcfc #000000 #000000 0 256;
#X obj 622 104 r \$0-f;
#X obj 109 343 nbx 8 22 -1e+37 1e+37 0 0 \$0-k \$0-i-k k:\ DISCRETE\ FREQUNECY\ INDEX\ (-):\ CYCLE/WINDOW 100 11 0 12 #fcfcfc #000000 #000000 0 256;
#X obj 109 393 nbx 8 22 -1e+37 1e+37 0 0 \$0-window \$0-i-window WINDOW\ SIZE\ (SAMPLE) 100 11 0 12 #fcfcfc #000000 #000000 0 256;
#X obj 110 158 nbx 8 22 -1e+37 1e+37 0 0 \$0-midi \$0-i-midi MIDI 100 11 0 12 #fcfcfc #000000 #000000 0 256;
#N canvas 0 50 450 250 (subpatch) 0;
#X array \$0-SINUSOID 4096 float 2;
#A color 0;
#A width 2;
#X coords 0 1 4096 -1 483 140 1;
#X restore 110 485 graph;
#X obj 622 313 osc~;
#X obj 696 334 tabwrite~ \$0-SINUSOID;
#X msg 646 261 0;
#X text 106 267 DISCRETE ------------------------------------------------------------, f 69;
#X text 106 190 CONTINUOUS-----------------------------------------------------------, f 69;
#X text 105 369 ---------------------------------------------------------------------, f 69;
#X text 105 442 ---------------------------------------------------------------------, f 69;
#X text 106 102 --------------------------------------------------------------------- -------------------------- FREQEUNCY BOX ---------------------------- ---------------------------------------------------------------------, f 69;
#N canvas 1957 37 450 300 INIT 0;
#X obj 233 111 samplerate~;
#X floatatom 233 136 6 0 0 1 fs[SAMPLE/SEC] - - 0;
#X obj 233 87 bng 20 250 50 0 empty empty empty 0 -10 0 12 #fcfcfc #000000 #000000;
#X obj 233 160 s \$0-SR;
#X obj 146 127 s \$0-PI;
#X msg 146 102 3.14159;
#X obj 67 40 loadbang;
#X msg 67 136 4096;
#X obj 67 161 s \$0-i-window;
#X obj 67 67 t b b b;
#X connect 0 0 1 0;
#X connect 1 0 3 0;
#X connect 2 0 0 0;
#X connect 5 0 4 0;
#X connect 6 0 9 0;
#X connect 7 0 8 0;
#X connect 9 0 7 0;
#X connect 9 1 5 0;
#X connect 9 2 2 0;
#X restore 690 101 pd INIT;
#X text 846 125 CHANGING/VISUALIZING OTHER FREQUENCIES BASED ON OSC~ (Hz) CONTINUOUS FREQUENCIES, f 81;
#N canvas 1920 0 1920 1009 CHANGE-FREQUENCIES 0;
#X obj 86 240 *;
#X obj 104 188 r \$0-PI;
#X obj 104 213 * 2;
#X msg 86 265 set \$1;
#X obj 86 290 s \$0-i-omega;
#X obj 204 106 /;
#X obj 222 81 r \$0-SR;
#X obj 204 243 s \$0-i-f_d;
#X msg 204 218 set \$1;
#X obj 488 126 *;
#X obj 506 78 r \$0-PI;
#X obj 506 101 * 2;
#X msg 488 151 set \$1;
#X obj 488 176 s \$0-i-omega_d;
#X obj 318 193 *, f 13;
#X obj 374 147 r \$0-window;
#X msg 318 218 set \$1;
#X obj 318 243 s \$0-i-k;
#X obj 39 322 ftom;
#X msg 39 347 set \$1;
#X obj 39 372 s \$0-i-midi;
#X obj 374 170 t b f;
#X floatatom 318 171 5 0 0 0 - - - 0;
#X obj 39 20 inlet;
#X connect 0 0 3 0;
#X connect 1 0 2 0;
#X connect 2 0 0 1;
#X connect 3 0 4 0;
#X connect 5 0 8 0;
#X connect 5 0 9 0;
#X connect 5 0 22 0;
#X connect 6 0 5 1;
#X connect 8 0 7 0;
#X connect 9 0 12 0;
#X connect 10 0 11 0;
#X connect 11 0 9 1;
#X connect 12 0 13 0;
#X connect 14 0 16 0;
#X connect 15 0 21 0;
#X connect 16 0 17 0;
#X connect 18 0 19 0;
#X connect 19 0 20 0;
#X connect 21 0 22 0;
#X connect 21 1 14 1;
#X connect 22 0 14 0;
#X connect 23 0 0 0;
#X connect 23 0 5 0;
#X connect 23 0 18 0;
#X restore 691 124 pd CHANGE-FREQUENCIES;
#N canvas 1943 25 805 300 SET-FREQUENCY 0;
#X obj 45 30 r \$0-omega;
#X obj 45 78 /;
#X obj 76 54 r \$0-PI;
#X obj 76 78 * 2;
#X obj 45 186 s \$0-i-f;
#X obj 153 29 r \$0-midi;
#X obj 153 54 mtof;
#X obj 249 32 r \$0-f_d;
#X obj 249 130 *;
#X obj 280 130 r \$0-SR;
#X obj 324 32 r \$0-omega_d;
#X obj 354 55 r \$0-PI;
#X obj 354 78 * 2;
#X obj 324 78 /;
#X obj 430 31 r \$0-k;
#X obj 430 80 /;
#X obj 487 30 r \$0-window;
#X obj 487 131 s \$0-SINUSOID;
#X msg 487 108 resize \$1;
#X text 481 157 WINDOW SIZE WILL/SHOULD NOT CHANGE CONTINUOUS FREQUNCY. BUT BASED ON ITS SIZE \, AND CONTINUOUS FREQUNCY \, k WILL BE CHNAGED IN OTHER SUBPATCH, f 37;
#X connect 0 0 1 0;
#X connect 1 0 4 0;
#X connect 2 0 3 0;
#X connect 3 0 1 1;
#X connect 5 0 6 0;
#X connect 6 0 4 0;
#X connect 7 0 8 0;
#X connect 8 0 4 0;
#X connect 9 0 8 1;
#X connect 10 0 13 0;
#X connect 11 0 12 0;
#X connect 12 0 13 1;
#X connect 13 0 8 0;
#X connect 14 0 15 0;
#X connect 15 0 8 0;
#X connect 16 0 15 1;
#X connect 16 0 18 0;
#X connect 18 0 17 0;
#X restore 691 149 pd SET-FREQUENCY;
#X text 811 150 SETTING CONTINUOUS FREQUENCY (Hz) - OSC~ INPUT BASED ON OTHER FREQUENCIES, f 74;
#X obj 623 432 outlet~;
#X obj 646 236 r \$0-PHASE-RESET;
#X obj 696 308 metro 340;
#X obj 696 282 tgl 20 0 empty \$0-draw empty 0 -10 0 12 #fcfcfc #000000 #000000 0 1;
#X obj 539 460 tgl 20 0 \$0-draw \$0-i-draw DRAW 23 10 0 12 #00ff04 #000000 #000000 0 1;
#X text 107 419 1/WINDOW-SIZE : FFT/DFT FUNDAMENTAL FREQUENCY OF ANALYSIS;
#X connect 4 0 9 0;
#X connect 4 0 19 0;
#X connect 9 0 10 0;
#X connect 9 0 22 0;
#X connect 23 0 11 0;
#X connect 24 0 10 0;
#X connect 25 0 24 0;
#X coords 0 -1 1 1 500 535 2 100 100;
#X restore 421 38 pd FREQUENCY-BOX;
#X obj 421 13 declare -stdpath /home/mobin/Documents/Pd/my-patches/extra, f 64;
#X obj 423 599 4096.spectrum~;
#X obj 954 17 declare -stdpath /home/mobin/Documents/Pd/internet-patches/MSP, f 64;
#X obj 422 576 *~ 1;
#X floatatom 477 577 5 0 10 0 - - - 0;
#X connect 1 0 5 0;
#X connect 5 0 3 0;
#X connect 6 0 5 1;
