#N canvas 66 32 1854 977 12;
#X obj 609 35 inlet;
#X text 607 7 note number from signature;
#X obj 748 197 nbx 2 18 -1e+37 1e+37 0 0 empty empty bar-count 36 10 0 12 #fcfcfc #000000 #000000 0 256;
#X obj 609 73 sel 1;
#X obj 609 104 f;
#X obj 639 104 + 1;
#X obj 609 131 + 1;
#X floatatom 609 158 5 0 0 0 bar-starts - - 0;
#X obj 609 197 sel, f 14;
#X obj 609 240 bng 20 250 50 0 empty empty end -25 10 0 12 #fcfcfc #000000 #000000;
#X floatatom 704 223 5 0 0 0 - - - 0;
#X obj 704 246 sel 1;
#X obj 704 270 bng 20 250 50 0 empty empty launch 23 10 0 12 #fcfcfc #000000 #000000;
#X obj 746 463 spigot;
#X obj 785 427 tgl 20 0 empty empty launch-queue 23 10 0 12 #fcfcfc #000000 #000000 0 1;
#X obj 717 197 + 1;
#X msg 570 73 1;
#X obj 1101 472 spigot;
#X obj 1140 424 tgl 20 0 empty empty record-queue 23 10 0 12 #fcfcfc #000000 #000000 0 1;
#X obj 748 875 outlet;
#X obj 1100 897 outlet;
#X obj 748 158 f \$1;
#X obj 748 132 loadbang;
#X msg 755 489 0;
#X obj 536 386 tgl 20 0 empty empty loop 23 10 0 12 #fcfcfc #000000 #000000 0 1;
#X obj 746 525 bng 20 250 50 0 empty empty empty 0 -10 0 12 #fcfcfc #000000 #000000;
#X obj 1101 533 bng 20 250 50 0 empty empty empty 0 -10 0 12 #fcfcfc #000000 #000000;
#X obj 505 386 *;
#X floatatom 505 465 5 0 0 0 - - - 0;
#X msg 609 269 1;
#X text 442 457 0: end 1: loop, f 8;
#X obj 1039 87 inlet;
#X text 1037 66 ctrl-midi-launch;
#X obj 1012 46 inlet;
#X text 1010 25 ctrl-midi-record;
#X obj 1059 136 inlet;
#X text 1057 115 ctrl-midi-loop;
#X text 1080 87 bang;
#X text 1053 46 bang;
#X text 1100 136 bang;
#X obj 1039 201 s \$0-i-launch;
#X obj 1012 232 s \$0-i-rec;
#X obj 1059 167 s \$0-i-loop;
#X obj 110 131 tgl 20 0 \$0-UI-rec-queue \$0-i-UI-rec-queue Record 23 10 0 12 #fcfcfc #000000 #000000 0 1;
#X obj 110 156 tgl 20 0 \$0-UI-launch-queue \$0-i-UI-launch-queue Launch 23 10 0 12 #fcfcfc #000000 #000000 0 1;
#X obj 110 183 tgl 20 0 \$0-UI-loop \$0-i-UI-loop Loop 23 10 0 12 #fcfcfc #000000 #000000 0 1;
#X obj 785 373 r \$0-i-launch;
#X obj 1140 367 r \$0-i-rec;
#X obj 576 330 r \$0-i-loop;
#X msg 804 457 set \$1;
#X obj 804 482 s \$0-i-UI-launch-queue;
#X obj 791 396 r \$0-UI-launch-queue;
#X msg 1174 454 set \$1;
#X obj 1174 479 s \$0-i-UI-rec-queue;
#X obj 1149 390 r \$0-UI-rec-queue;
#X msg 562 411 set \$1;
#X obj 562 436 s \$0-i-UI-loop;
#X obj 581 354 r \$0-UI-loop;
#X text 153 103 REC;
#X text 195 103 LAUNCH;
#X text 262 103 LOOP;
#X text 105 209 REC;
#X text 171 210 LAUNCH;
#X text 237 210 END/LOOP;
#X obj 182 131 cnv 20 100 20 empty \$0-i-rec-canvas empty 20 12 0 12 #e0e1e1 #404040 0;
#X obj 182 156 cnv 20 100 20 empty \$0-i-launch-canvas empty 20 12 0 12 #e0e1e1 #404040 0;
#X obj 182 182 cnv 20 100 20 empty \$0-i-loop-canvas empty 20 12 0 12 #e0e1e1 #404040 0;
#N canvas 569 467 450 174 color-launch 0;
#X msg 16 67 color #00e200;
#X obj 16 108 s \$0-i-launch-canvas;
#X msg 140 67 color #e0e1e1;
#X obj 16 34 inlet;
#X obj 140 33 inlet;
#X obj 221 34 loadbang;
#X connect 0 0 1 0;
#X connect 2 0 1 0;
#X connect 3 0 0 0;
#X connect 4 0 2 0;
#X connect 5 0 2 0;
#X restore 768 652 pd color-launch;
#X obj 542 610 sel 1 0, f 10;
#N canvas 569 467 450 174 color-loop 0;
#X msg 140 67 color #e0e1e1;
#X obj 16 34 inlet;
#X obj 140 33 inlet;
#X obj 221 34 loadbang;
#X msg 16 67 color #8486f6;
#X obj 16 108 s \$0-i-loop-canvas;
#X connect 0 0 5 0;
#X connect 1 0 4 0;
#X connect 2 0 0 0;
#X connect 3 0 0 0;
#X connect 4 0 5 0;
#X restore 542 650 pd color-loop;
#N canvas 569 467 450 174 color-rec 0;
#X msg 140 67 color #e0e1e1;
#X obj 16 34 inlet;
#X obj 140 33 inlet;
#X obj 221 34 loadbang;
#X msg 16 67 color #ff0000;
#X obj 16 108 s \$0-i-rec-canvas;
#X connect 0 0 5 0;
#X connect 1 0 4 0;
#X connect 2 0 0 0;
#X connect 3 0 0 0;
#X connect 4 0 5 0;
#X restore 1138 651 pd color-rec;
#X text 40 695 Sending out end (0) will stop recording and playing in target sequencer. Sending out loop (1) ask target sequencer to loop/continue play and record.;
#X msg 1110 500 0;
#X text 41 757 To stop recording even if loop is on: could tap on record pad again and the next bang sent will stop recording in target sequencer \; To stop playing simply remove loop.;
#X text 41 838 TO ADD LATER ON IF NECESSARY \, RAPID STOP and maybe START functionality;
#X obj 1219 600 tgl 20 0 empty empty empty 0 -10 0 12 #fcfcfc #000000 #000000 0 1;
#X obj 1219 625 sel 0;
#X obj 500 875 outlet;
#X obj 505 578 spigot;
#X obj 557 578 tgl 20 0 empty empty empty 0 -10 0 12 #fcfcfc #000000 #000000 0 1;
#X msg 607 541 0;
#X obj 556 492 sel 0 1, f 15;
#X obj 556 517 del 10;
#X msg 556 542 1;
#X text 335 498 when sending launch \, do not send end/loop on the same instant \, can send from next cycle \, same for record, f 28;
#X obj 746 746 bng 20 250 50 0 empty empty empty 0 -10 0 12 #fcfcfc #000000 #000000;
#X floatatom 505 745 5 0 0 0 - - - 0;
#X obj 1101 768 bng 20 250 50 0 empty empty empty 0 -10 0 12 #fcfcfc #000000 #000000;
#X obj 624 577 loadbang;
#X msg 590 577 1;
#X text 21 16 VERSION 0 ----- LAUNCHER/CONTROL ABSTRACTION FOR CLIP;
#X connect 0 0 3 0;
#X connect 2 0 15 0;
#X connect 3 0 4 0;
#X connect 4 0 5 0;
#X connect 4 0 6 0;
#X connect 5 0 4 1;
#X connect 6 0 7 0;
#X connect 7 0 8 0;
#X connect 8 0 9 0;
#X connect 8 1 10 0;
#X connect 9 0 16 0;
#X connect 9 0 29 0;
#X connect 10 0 11 0;
#X connect 11 0 12 0;
#X connect 12 0 13 0;
#X connect 12 0 17 0;
#X connect 13 0 23 0;
#X connect 13 0 25 0;
#X connect 14 0 13 1;
#X connect 14 0 49 0;
#X connect 14 0 81 0;
#X connect 15 0 8 1;
#X connect 16 0 4 1;
#X connect 16 0 7 0;
#X connect 17 0 26 0;
#X connect 17 0 72 0;
#X connect 18 0 17 1;
#X connect 18 0 52 0;
#X connect 18 0 81 0;
#X connect 21 0 2 0;
#X connect 22 0 21 0;
#X connect 23 0 14 0;
#X connect 24 0 27 1;
#X connect 24 0 55 0;
#X connect 25 0 67 0;
#X connect 25 0 85 0;
#X connect 26 0 75 0;
#X connect 26 0 70 0;
#X connect 26 0 87 0;
#X connect 27 0 28 0;
#X connect 28 0 78 0;
#X connect 29 0 27 0;
#X connect 31 0 40 0;
#X connect 33 0 41 0;
#X connect 35 0 42 0;
#X connect 46 0 14 0;
#X connect 47 0 18 0;
#X connect 48 0 24 0;
#X connect 49 0 50 0;
#X connect 51 0 14 0;
#X connect 52 0 53 0;
#X connect 54 0 18 0;
#X connect 55 0 56 0;
#X connect 57 0 24 0;
#X connect 68 0 69 0;
#X connect 68 1 69 1;
#X connect 68 1 67 1;
#X connect 68 1 70 1;
#X connect 72 0 18 0;
#X connect 75 0 76 0;
#X connect 76 0 70 1;
#X connect 78 0 68 0;
#X connect 78 0 86 0;
#X connect 79 0 78 1;
#X connect 80 0 79 0;
#X connect 81 0 82 0;
#X connect 81 1 80 0;
#X connect 82 0 83 0;
#X connect 83 0 79 0;
#X connect 85 0 19 0;
#X connect 86 0 20 0;
#X connect 87 0 77 0;
#X connect 88 0 89 0;
#X connect 89 0 79 0;
#X coords 0 -1 1 1 201 130 2 100 100;
