#N canvas 501 69 927 977 12;
#X obj 12 12 master-clock;
#A saved 78;
#X obj 13 241 signature;
#A saved 9 4;
#X obj 186 240 signature;
#A saved 2 4;
#X obj 364 239 signature;
#A saved 4 4;
#X obj 163 11 mpd218-controller;
#X obj 13 341 s sign-1;
#X obj 186 337 s sign-2;
#X obj 428 346 input-midi-ctrl 1, f 19;
#X obj 366 543 bng 20 250 50 0 empty empty empty 0 -10 0 12 #fcfcfc #000000 #000000;
#X obj 460 539 bng 20 250 50 0 empty empty empty 0 -10 0 12 #fcfcfc #000000 #000000;
#X floatatom 559 547 5 0 0 0 - - - 0;
#X obj 337 612 rt-oneshot-sequencer;
#X obj 348 711 bng 20 250 50 0 empty empty empty 0 -10 0 12 #fcfcfc #000000 #000000;
#X obj 96 562 input-midi-one-shot 1;
#X obj 348 752 sp-mono;
#A saved /home/mobin/Documents/Sounds/kalhor-spring.wav;
#X obj 349 874 output~;
#X msg 469 712 1;
#X listbox 364 312 10 0 0 0 - - - 0;
#X listbox 186 315 10 0 0 0 - - - 0;
#X listbox 13 316 10 0 0 0 - - - 0;
#X obj 364 374 launcher 2;
#X obj 562 577 bng 20 250 50 0 empty empty empty 0 -10 0 12 #fcfcfc #000000 #000000;
#X connect 1 0 19 0;
#X connect 2 0 18 0;
#X connect 3 0 17 0;
#X connect 7 0 20 1;
#X connect 7 1 20 2;
#X connect 7 2 20 3;
#X connect 8 0 11 1;
#X connect 9 0 11 2;
#X connect 10 0 11 3;
#X connect 10 0 21 0;
#X connect 11 0 12 0;
#X connect 12 0 14 0;
#X connect 13 0 11 0;
#X connect 14 0 15 0;
#X connect 16 0 14 1;
#X connect 17 0 20 0;
#X connect 18 0 6 0;
#X connect 19 0 5 0;
#X connect 20 0 8 0;
#X connect 20 1 9 0;
#X connect 20 2 10 0;
