#N canvas 52 20 1854 977 12;
#X obj 12 12 master-clock;
#A saved 78;
#X obj 162 12 signature;
#A saved 9 4;
#X obj 272 12 signature;
#A saved 2 4;
#X obj 380 12 signature;
#A saved 4 4;
#X obj 1635 8 mpd218-controller;
#X obj 162 104 s sign-1;
#X obj 272 103 s sign-2;
#X listbox 380 82 10 0 0 0 - - - 0;
#X listbox 272 81 10 0 0 0 - - - 0;
#X listbox 162 81 10 0 0 0 - - - 0;
#X obj 380 105 s sign-3;
#X obj 45 871 output~;
#N canvas 52 20 1854 977 clip-1-drumset 0;
#X obj 1638 118 input-midi-ctrl 1, f 19;
#X obj 1573 28 input-midi-one-shot 1;
#X obj 34 177 sp-mono;
#A saved /home/mobin/Documents/Sounds/kalhor-spring.wav;
#X msg 149 154 1;
#X obj 1574 144 launcher 2;
#X obj 34 49 rt-drum-sequencer;
#A saved 290 \; 910 \; 1080 \; 1230 \; 1370 \; 1990 \; 2570 \; 3170 \; 3360 \; 3530 \; 3700 \; 3890 \; 4510 \; 5210 \;;
#X obj 1574 94 r sign-3;
#X obj 35 894 outlet~;
#X obj 396 52 rt-drum-sequencer;
#A saved 2590 \; 2800 \; 2970 \; 3140 \; 3310 \; 3480 \; 3650 \; 3800 \;;
#X obj 759 54 rt-drum-sequencer;
#A saved 1610 \; 2080 \; 2230 \; 2380 \; 2960 \; 3580 \; 4130 \; 4340 \; 4470 \; 4920 \; 5330 \;;
#X obj 1573 56 s 1-12;
#X obj 34 25 r 1-12;
#X obj 1621 56 s 1-13;
#X obj 1669 56 s 1-14;
#X obj 1717 56 s 1-15;
#X obj 759 27 r 1-14;
#X obj 396 26 r 1-13;
#X obj 396 184 sp-mono;
#A saved /home/mobin/Documents/Sounds/sample-lab/glass.wav;
#X msg 511 157 1;
#X obj 759 186 sp-mono;
#A saved /home/mobin/Documents/Sounds/raw-samples/Koala\ archive/koala-050525/A02_string-001.wav;
#X msg 874 159 1;
#X obj 1574 305 s 1-rec;
#X obj 1671 304 s 1-launch;
#X obj 1768 305 s 1-loop;
#X obj 130 24 r 1-rec;
#X obj 324 25 r 1-loop;
#X obj 227 25 r 1-launch;
#X obj 492 26 r 1-rec;
#X obj 686 27 r 1-loop;
#X obj 589 27 r 1-launch;
#X obj 855 28 r 1-rec;
#X obj 1049 29 r 1-loop;
#X obj 952 29 r 1-launch;
#X connect 0 0 4 1;
#X connect 0 1 4 2;
#X connect 0 2 4 3;
#X connect 1 0 10 0;
#X connect 1 1 12 0;
#X connect 1 2 13 0;
#X connect 1 3 14 0;
#X connect 2 0 7 0;
#X connect 3 0 2 1;
#X connect 4 0 21 0;
#X connect 4 1 22 0;
#X connect 4 2 23 0;
#X connect 5 0 2 0;
#X connect 6 0 4 0;
#X connect 8 0 17 0;
#X connect 9 0 19 0;
#X connect 11 0 5 0;
#X connect 15 0 9 0;
#X connect 16 0 8 0;
#X connect 17 0 7 0;
#X connect 18 0 17 1;
#X connect 19 0 7 0;
#X connect 20 0 19 1;
#X connect 24 0 5 1;
#X connect 25 0 5 3;
#X connect 26 0 5 2;
#X connect 27 0 8 1;
#X connect 28 0 8 3;
#X connect 29 0 8 2;
#X connect 30 0 9 1;
#X connect 31 0 9 3;
#X connect 32 0 9 2;
#X restore 44 314 pd clip-1-drumset;
#X obj 43 348 s~ to-mix;
#X obj 45 835 r~ to-mix;
#X connect 1 0 9 0;
#X connect 2 0 8 0;
#X connect 3 0 7 0;
#X connect 7 0 10 0;
#X connect 8 0 6 0;
#X connect 9 0 5 0;
#X connect 12 0 13 0;
#X connect 14 0 11 0;
