#N canvas 979 20 927 977 12;
#X obj 12 12 master-clock;
#A saved 78;
#X obj 162 12 signature;
#A saved 9 4;
#X obj 272 12 signature;
#A saved 2 4;
#X obj 380 12 signature;
#A saved 4 4;
#X obj 491 12 mpd218-controller;
#X obj 162 104 s sign-1;
#X obj 272 103 s sign-2;
#X listbox 380 82 10 0 0 0 - - - 0;
#X listbox 272 81 10 0 0 0 - - - 0;
#X listbox 162 81 10 0 0 0 - - - 0;
#X obj 380 105 s sign-3;
#X obj 45 871 output~;
#N canvas 66 32 927 977 clip-1-drumset 0;
#X obj 13 428 sp-mono;
#A saved /home/mobin/Documents/Sounds/kalhor-spring.wav;
#X obj 13 259 rt-drum-sequencer;
#A saved;
#X obj 12 32 r sign-3;
#X floatatom 242 409 13 0 0 0 - - - 0;
#X obj 131 233 r 1-End-Loop;
#X obj 72 209 r 1-Launch;
#X obj 83 9 r 1-mpd-launch-queue;
#X obj 155 33 r 1-mpd-loop;
#X obj 12 565 s~ to-mix;
#X obj 13 197 bng 20 250 50 0 empty empty empty 0 -10 0 12 #fcfcfc #000000 #000000;
#X obj 13 173 r 1-one-shot-12;
#X obj 258 11 r 1-one-shot-13;
#X obj 258 34 r 1-one-shot-14;
#X obj 258 57 r 1-one-shot-15;
#X obj 12 59 launcher 1 2;
#X obj 242 308 rt-cc-sequencer;
#A saved;
#X obj 400 280 r 1-End-Loop;
#X obj 321 280 r 1-Launch;
#X obj 242 262 / 127;
#X floatatom 242 285 5 0 0 0 - - - 0;
#X obj 242 239 r 1-CC-1;
#X text 397 576 TO BE TESTED;
#X connect 0 0 8 0;
#X connect 1 0 0 0;
#X connect 2 0 14 0;
#X connect 3 0 0 1;
#X connect 4 0 1 2;
#X connect 5 0 1 1;
#X connect 6 0 14 1;
#X connect 7 0 14 2;
#X connect 9 0 1 0;
#X connect 10 0 9 0;
#X connect 15 0 3 0;
#X connect 16 0 15 2;
#X connect 17 0 15 1;
#X connect 18 0 19 0;
#X connect 19 0 15 0;
#X connect 20 0 18 0;
#X restore 18 351 pd clip-1-drumset;
#X obj 45 835 r~ to-mix;
#X connect 1 0 9 0;
#X connect 2 0 8 0;
#X connect 3 0 7 0;
#X connect 7 0 10 0;
#X connect 8 0 6 0;
#X connect 9 0 5 0;
#X connect 13 0 11 0;
