#N canvas 66 32 1854 977 12;
#X obj 12 12 master-clock;
#A saved 78;
#X obj 13 241 signature;
#A saved 9 4;
#X floatatom 13 314 3 0 0 0 - - - 0;
#X floatatom 106 314 9 0 0 0 - - - 0;
#X obj 186 240 signature;
#A saved 2 4;
#X floatatom 186 313 3 0 0 0 - - - 0;
#X floatatom 279 313 9 0 0 0 - - - 0;
#X obj 364 239 signature;
#A saved 4 4;
#X floatatom 364 312 3 0 0 0 - - - 0;
#X floatatom 457 312 9 0 0 0 - - - 0;
#X obj 163 11 mpd218-controller;
#X obj 13 338 s sign-1;
#X obj 186 337 s sign-2;
#X obj 364 336 s sign-3;
#X obj 93 399 input-midi-ctrl 1, f 19;
#X obj 29 439 launcher 1;
#X obj 29 628 bng 20 250 50 0 empty empty empty 0 -10 0 12 #fcfcfc #000000 #000000;
#X obj 126 626 bng 20 250 50 0 empty empty empty 0 -10 0 12 #fcfcfc #000000 #000000;
#X floatatom 223 626 5 0 0 0 - - - 0;
#X obj 251 592 bng 20 250 50 0 empty empty empty 0 -10 0 12 #fcfcfc #000000 #000000;
#X obj 29 399 r sign-3;
#X connect 1 0 2 0;
#X connect 1 1 3 0;
#X connect 2 0 11 0;
#X connect 4 0 5 0;
#X connect 4 1 6 0;
#X connect 5 0 12 0;
#X connect 7 0 8 0;
#X connect 7 1 9 0;
#X connect 8 0 13 0;
#X connect 14 0 15 1;
#X connect 14 1 15 2;
#X connect 14 2 15 3;
#X connect 15 0 16 0;
#X connect 15 1 17 0;
#X connect 15 2 18 0;
#X connect 15 2 19 0;
#X connect 20 0 15 0;
