#N canvas 149 91 546 418 12;
#X obj 12 12 master-clock;
#A saved 153;
#X obj 13 241 signature;
#A saved 9 4;
#X floatatom 13 314 3 0 0 0 - - - 0;
#X floatatom 106 314 9 0 0 0 - - - 0;
#X obj 186 240 signature;
#A saved 2 4;
#X floatatom 186 313 3 0 0 0 - - - 0;
#X floatatom 279 313 9 0 0 0 - - - 0;
#X obj 364 239 signature;
#A saved 5 4;
#X floatatom 364 312 3 0 0 0 - - - 0;
#X floatatom 457 312 9 0 0 0 - - - 0;
#X obj 163 11 mpd218-controller;
#X obj 13 338 s sign-1;
#X obj 186 337 s sign-2;
#X obj 364 336 s sign-3;
#X connect 1 0 2 0;
#X connect 1 1 3 0;
#X connect 2 0 11 0;
#X connect 4 0 5 0;
#X connect 4 1 6 0;
#X connect 5 0 12 0;
#X connect 7 0 8 0;
#X connect 7 1 9 0;
#X connect 8 0 13 0;
