#N canvas 581 281 741 559 12;
#X obj 89 217 inlet~;
#X obj 90 466 outlet~;
#X obj 90 405 *~;
#X obj 151 375 *~;
#X obj 169 350 tgl 20 0 empty \$0-filter-on empty 0 -10 0 12 #fcfcfc #000000 #000000 0 1;
#X obj 108 378 tgl 20 0 empty \$0-orig-on empty 0 -10 0 12 #fcfcfc #000000 #000000 0 1;
#X obj 90 431 +~, f 9;
#X obj 106 120 tgl 15 0 \$0-orig-on \$0-i-orig-on orig 20 7 0 10 #fcfcfc #000000 #000000 0 1;
#X obj 106 139 tgl 15 0 \$0-filter-on \$0-i-filter-on filter 20 7 0 10 #fcfcfc #000000 #000000 0 1;
#X obj 110 160 hsl 80 15 0 10000 0 0 \$0-i-cutoff \$0-i-cutoff-inlet empty -2 -10 0 12 #fcfcfc #000000 #000000 0 1;
#X obj 196 217 inlet;
#X floatatom 107 177 8 0 10000 0 - \$0-i-cutoff \$0-cutoff 10;
#X obj 196 242 s \$0-i-cutoff-inlet;
#X obj 169 266 r \$0-cutoff;
#N canvas 1956 38 506 586 parameter-handling 0;
#X obj 44 95 t b f, f 2;
#X obj 73 95 t b f, f 2;
#X obj 244 18 text define -k \$0-parameters;
#A set 0 0 0 0 \;;
#X obj 44 210 text set \$0-parameters 0 0;
#X obj 73 254 savestate;
#X obj 133 307 text sequence \$0-parameters;
#X msg 133 282 line 0 \, step;
#X text 259 64 Reading parametes into text \$0-parameters \, use savestate to save abstraction parameters together with saving parent patch and loading thenm next time parent path is open, f 28;
#X obj 73 350 text set \$0-parameters 0 0;
#X msg 32 414 0;
#X obj 32 390 del 200;
#X obj 44 21 r \$0-orig-on;
#X obj 73 45 r \$0-filter-on;
#X obj 101 69 r \$0-cutoff;
#X obj 101 95 t b f, f 2;
#X obj 32 560 s \$0-i-orig-on;
#X obj 73 538 s \$0-i-filter-on;
#X obj 114 515 s \$0-i-cutoff-inlet;
#X obj 44 182 pack f f f f, f 15;
#X obj 135 119 t b f, f 2;
#X obj 32 439 text get \$0-parameters 0 4;
#X obj 32 464 unpack f f f f, f 18;
#X obj 155 491 s \$0-i-Q-inlet;
#X obj 135 93 r \$0-Q;
#X connect 0 0 18 0;
#X connect 0 1 18 0;
#X connect 1 0 18 0;
#X connect 1 1 18 1;
#X connect 4 0 8 0;
#X connect 4 0 10 0;
#X connect 4 1 6 0;
#X connect 5 0 4 0;
#X connect 6 0 5 0;
#X connect 9 0 20 0;
#X connect 10 0 9 0;
#X connect 11 0 0 0;
#X connect 12 0 1 0;
#X connect 13 0 14 0;
#X connect 14 0 18 0;
#X connect 14 1 18 2;
#X connect 18 0 3 0;
#X connect 19 0 18 0;
#X connect 19 1 18 3;
#X connect 20 0 21 0;
#X connect 21 0 15 0;
#X connect 21 1 16 0;
#X connect 21 2 17 0;
#X connect 21 3 22 0;
#X connect 23 0 19 0;
#X restore 38 39 pd parameter-handling;
#X obj 196 132 vsl 15 40 0 50 0 0 \$0-i-Q \$0-i-Q-inlet Q 0 -9 0 12 #fcfcfc #000000 #000000 0 1;
#X floatatom 179 177 5 0 0 0 - \$0-i-Q \$0-Q 10;
#X obj 150 313 bp~, f 6;
#X obj 189 290 r \$0-Q;
#X obj 345 218 inlet;
#X obj 345 243 s \$0-i-Q-inlet;
#X connect 0 0 2 0;
#X connect 0 0 17 0;
#X connect 2 0 6 0;
#X connect 3 0 6 1;
#X connect 4 0 3 1;
#X connect 5 0 2 1;
#X connect 6 0 1 0;
#X connect 10 0 12 0;
#X connect 13 0 17 1;
#X connect 17 0 3 0;
#X connect 18 0 17 2;
#X connect 19 0 20 0;
#X coords 0 -1 1 1 120 100 1 100 100;
