#N canvas 567 106 1051 766 12;
#X obj 32 519 *~;
#X obj 132 124 hsl 97 20 0 1 0 0 \$0-feedback-delay-dry-gain \$0-i-feedback-delay-dry-gain Dry-Gain 20 10 0 12 #00ff04 #000000 #000000 0 1;
#X obj 109 148 hsl 120 20 0 4999 0 0 \$0-feedback-delay-del-time \$0-i-feedback-delay-del-time delay-time 30 10 0 12 #faff00 #000000 #000000 0 1;
#X obj 77 551 delread4~ \$0-buffer 0;
#X obj 77 605 *~;
#X obj 109 171 hsl 120 20 0 0.8 0 0 \$0-feedback-delay-del-gain \$0-i-feedback-delay-del-gain delay-Gain 30 10 0 12 #ff8300 #000000 #000000 0 1;
#X floatatom 106 605 5 0 0 0 - - - 0;
#X obj 109 194 hsl 120 20 0 0.8 0 0 \$0-feedback-delay-fb-gain \$0-i-feedback-delay-fb-gain feedback-gain 20 10 0 12 #ff0400 #000000 #000000 0 1;
#X obj 115 398 *~;
#X msg 244 525 \$1 50;
#X obj 244 550 line~;
#X obj 33 258 inlet~;
#X obj 32 328 *~;
#X obj 106 124 tgl 20 0 \$0-feedback-delay-dry-on \$0-i-feedback-delay-dry-on empty 0 -10 0 12 #00ff04 #000000 #000000 0 1;
#X obj 31 635 +~;
#X obj 85 398 +~;
#X obj 187 398 r \$0-feedback-delay-fb-gain;
#X obj 85 424 delwrite~ \$0-buffer 5000;
#X obj 244 478 r \$0-feedback-delay-del-time;
#X floatatom 244 503 5 0 0 0 - - - 0;
#X floatatom 145 399 5 0 0 0 - - - 0;
#X floatatom 65 329 5 0 0 0 - - - 0;
#X floatatom 50 493 5 0 0 0 - - - 0;
#X obj 147 604 r \$0-feedback-delay-del-gain;
#X obj 125 578 s~ \$0-feedback;
#X obj 115 372 r~ \$0-feedback;
#X obj 32 698 outlet~;
#X obj 65 304 r \$0-feedback-delay-dry-gain;
#X obj 50 467 r \$0-feedback-delay-dry-on;
#X floatatom 236 125 5 0 1 0 - \$0-feedback-delay-dry-gain \$0-feedback-delay-dry-gain-dummy 0;
#X floatatom 236 148 5 0 4999 0 - \$0-feedback-delay-del-time \$0-feedback-delay-del-timedummy 0;
#X floatatom 236 171 5 0 0.8 0 - \$0-feedback-delay-del-gain \$0-feedback-delay-del-gaindummy 0;
#X floatatom 236 194 5 0 0.8 0 - \$0-feedback-delay-fb-gain \$0-feedback-delay-fb-gaindummy 0;
#X text 96 72 Low delay time ---> Comb filter;
#X text 337 89 -- No set to 0 at loadbang -- HOW to set default values from the main? \; arguments? \; savestate object? \;;
#X text 338 196 Idea for later: stereo output...alternate in ears;
#X obj 537 350 inlet;
#X obj 603 349 inlet;
#X obj 689 349 inlet;
#X obj 770 349 inlet;
#X obj 537 478 s \$0-i-feedback-delay-dry-gain;
#X obj 603 452 s \$0-i-feedback-delay-del-time;
#X obj 689 428 s \$0-i-feedback-delay-del-gain;
#X obj 770 403 s \$0-i-feedback-delay-fb-gain;
#X obj 537 375 clip 0 1;
#X obj 603 375 clip 0 4999;
#X obj 689 375 clip 0 0.8;
#X obj 770 375 clip 0 0.8;
#N canvas 1070 168 515 739 parameter-handling 0;
#X obj 33 198 t b f, f 2;
#X obj 62 198 t b f, f 2;
#X obj 91 198 t b f, f 2;
#X obj 120 198 t b f, f 2;
#X obj 149 198 t b f, f 2;
#X obj 32 24 text define -k \$0-parameters;
#A set 0 0 0 0 0 \;;
#X obj 44 273 pack f f f f f, f 17;
#X obj 33 79 r \$0-feedback-delay-dry-on;
#X obj 91 125 r \$0-feedback-delay-del-time;
#X obj 120 148 r \$0-feedback-delay-del-gain;
#X obj 149 171 r \$0-feedback-delay-fb-gain;
#X obj 44 301 text set \$0-parameters 0 0;
#X obj 62 102 r \$0-feedback-delay-dry-gain;
#X obj 73 360 savestate;
#X obj 133 413 text sequence \$0-parameters;
#X msg 133 388 line 0 \, step;
#X obj 32 570 unpack f f f f f, f 19;
#X obj 32 545 text get \$0-parameters;
#X obj 32 695 s \$0-i-feedback-delay-dry-on;
#X obj 64 671 s \$0-i-feedback-delay-dry-gain;
#X obj 97 646 s \$0-i-feedback-delay-del-time;
#X obj 129 621 s \$0-i-feedback-delay-del-gain;
#X obj 162 597 s \$0-i-feedback-delay-fb-gain;
#X text 301 5 Reading parametes into text \$0-parameters \, use savestate to save abstraction parameters together with saving parent patch and loading thenm next time parent path is open, f 28;
#X obj 73 440 text set \$0-parameters 0 0;
#X msg 32 520 0;
#X obj 32 496 del 100;
#X connect 0 0 6 0;
#X connect 0 1 6 0;
#X connect 1 0 6 0;
#X connect 1 1 6 1;
#X connect 2 0 6 0;
#X connect 2 1 6 2;
#X connect 3 0 6 0;
#X connect 3 1 6 3;
#X connect 4 0 6 0;
#X connect 4 1 6 4;
#X connect 6 0 11 0;
#X connect 7 0 0 0;
#X connect 8 0 2 0;
#X connect 9 0 3 0;
#X connect 10 0 4 0;
#X connect 12 0 1 0;
#X connect 13 0 24 0;
#X connect 13 0 26 0;
#X connect 13 1 15 0;
#X connect 14 0 13 0;
#X connect 15 0 14 0;
#X connect 16 0 18 0;
#X connect 16 1 19 0;
#X connect 16 2 20 0;
#X connect 16 3 21 0;
#X connect 16 4 22 0;
#X connect 17 0 16 0;
#X connect 25 0 17 0;
#X connect 26 0 25 0;
#X restore 546 587 pd parameter-handling;
#X text 134 25 VERSION 0;
#X connect 0 0 14 0;
#X connect 3 0 4 0;
#X connect 3 0 24 0;
#X connect 4 0 14 1;
#X connect 6 0 4 1;
#X connect 8 0 15 1;
#X connect 9 0 10 0;
#X connect 10 0 3 0;
#X connect 11 0 12 0;
#X connect 12 0 0 0;
#X connect 12 0 15 0;
#X connect 14 0 26 0;
#X connect 15 0 17 0;
#X connect 16 0 20 0;
#X connect 18 0 19 0;
#X connect 19 0 9 0;
#X connect 20 0 8 1;
#X connect 21 0 12 1;
#X connect 22 0 0 1;
#X connect 23 0 6 0;
#X connect 25 0 8 0;
#X connect 27 0 21 0;
#X connect 28 0 22 0;
#X connect 36 0 44 0;
#X connect 37 0 45 0;
#X connect 38 0 46 0;
#X connect 39 0 47 0;
#X connect 44 0 40 0;
#X connect 45 0 41 0;
#X connect 46 0 42 0;
#X connect 47 0 43 0;
#X coords 0 -1 1 1 210 120 1 100 100;
