#N canvas 239 276 1205 697 12;
#X obj 562 344 samphold~;
#X obj 621 314 phasor~;
#X floatatom 202 145 8 0 0 0 - \$0-i-decimate-freq \$0-decimate-freq 0;
#X obj 365 243 inlet~;
#X obj 365 495 outlet~;
#X obj 621 290 r \$0-decimate-freq;
#X obj 107 145 hsl 60 20 0 1 0 0 \$0-decimate-amp \$0-i-decimate-amp empty -2 -10 0 12 #fcfcfc #000000 #000000 0 1;
#X obj 107 121 hsl 60 20 0 1 0 0 \$0-source-amp \$0-i-source-amp empty -2 -10 0 12 #fcfcfc #000000 #000000 0 1;
#X obj 173 145 tgl 20 0 \$0-decimate-on \$0-i-decimate-on empty 0 -10 0 12 #fcfcfc #000000 #000000 0 1;
#X obj 173 121 tgl 20 0 \$0-source-on \$0-i-source-on empty 0 -10 0 12 #fcfcfc #000000 #000000 0 1;
#X obj 561 371 *~;
#X obj 592 371 r \$0-decimate-on;
#X obj 561 398 *~;
#X obj 592 398 r \$0-decimate-amp;
#X obj 365 358 *~;
#X obj 365 385 *~;
#X obj 366 461 +~;
#X text 269 121 Original;
#X text 268 145 Decimated;
#N canvas 609 160 538 771 parameter-handling 0;
#X obj 33 207 t b f, f 2;
#X obj 63 207 t b f, f 2;
#X obj 94 207 t b f, f 2;
#X obj 125 207 t b f, f 2;
#X obj 32 24 text define -k \$0-parameters;
#A set 0 0 0 0 0 \;;
#X obj 44 301 text set \$0-parameters 0 0;
#X obj 73 360 savestate;
#X obj 133 413 text sequence \$0-parameters;
#X msg 133 388 line 0 \, step;
#X obj 32 545 text get \$0-parameters;
#X text 301 5 Reading parametes into text \$0-parameters \, use savestate to save abstraction parameters together with saving parent patch and loading thenm next time parent path is open, f 28;
#X obj 73 440 text set \$0-parameters 0 0;
#X msg 32 520 0;
#X obj 32 496 del 100;
#X obj 156 207 t b f, f 2;
#X obj 33 82 r \$0-source-on;
#X obj 63 105 r \$0-source-amp;
#X obj 32 720 s \$0-i-source-on;
#X obj 66 696 s \$0-i-source-amp;
#X obj 44 273 pack f f f f f, f 18;
#X obj 32 570 unpack f f f f f, f 20;
#X obj 125 151 r \$0-decimate-amp;
#X obj 156 176 r \$0-decimate-freq;
#X obj 94 128 r \$0-decimate-on;
#X obj 100 671 s \$0-i-decimate-on;
#X obj 134 646 s \$0-i-decimate-amp;
#X obj 169 621 s \$0-i-decimate-freq;
#X connect 0 0 19 0;
#X connect 0 1 19 0;
#X connect 1 0 19 0;
#X connect 1 1 19 1;
#X connect 2 0 19 0;
#X connect 2 1 19 2;
#X connect 3 0 19 0;
#X connect 3 1 19 3;
#X connect 6 0 11 0;
#X connect 6 0 13 0;
#X connect 6 1 8 0;
#X connect 7 0 6 0;
#X connect 8 0 7 0;
#X connect 9 0 20 0;
#X connect 12 0 9 0;
#X connect 13 0 12 0;
#X connect 14 0 19 0;
#X connect 14 1 19 4;
#X connect 15 0 0 0;
#X connect 16 0 1 0;
#X connect 19 0 5 0;
#X connect 20 0 17 0;
#X connect 20 1 18 0;
#X connect 20 2 24 0;
#X connect 20 3 25 0;
#X connect 20 4 26 0;
#X connect 21 0 3 0;
#X connect 22 0 14 0;
#X connect 23 0 2 0;
#X restore 113 302 pd parameter-handling;
#X obj 431 88 inlet;
#X obj 495 89 inlet;
#X obj 558 88 inlet;
#X obj 431 112 clip 0 1;
#X obj 495 112 clip 0 1;
#X obj 431 207 s \$0-i-source-amp;
#X obj 396 358 r \$0-source-on;
#X obj 396 385 r \$0-source-amp;
#X obj 495 184 s \$0-i-decimate-amp;
#X obj 558 160 s \$0-i-decimate-freq;
#X obj 558 111 clip 0 48000;
#X text 134 25 VERSION 0;
#X connect 0 0 10 0;
#X connect 1 0 0 1;
#X connect 3 0 14 0;
#X connect 3 0 0 0;
#X connect 5 0 1 0;
#X connect 10 0 12 0;
#X connect 11 0 10 1;
#X connect 12 0 16 1;
#X connect 13 0 12 1;
#X connect 14 0 15 0;
#X connect 15 0 16 0;
#X connect 16 0 4 0;
#X connect 20 0 23 0;
#X connect 21 0 24 0;
#X connect 22 0 30 0;
#X connect 23 0 25 0;
#X connect 24 0 28 0;
#X connect 26 0 14 1;
#X connect 27 0 15 1;
#X connect 30 0 29 0;
#X coords 0 -1 1 1 250 75 1 100 100;
