#N canvas 1906 -12 1920 1009 12;
#N canvas 52 20 1854 977 (subpatch) 0;
#X array \$0-SAMPLE 3702 float 2;
#A color 0;
#A width 2;
#X coords 0 1 3702 -1 200 110 1 0 0;
#X restore 108 122 graph;
#X obj 311 122 bng 20 250 50 0 \$0-load \$0-i-load LOAD 23 10 0 12 #feffc6 #000000 #000000;
#X obj 311 145 bng 20 250 50 0 \$0-play \$0-i-play PLAY 23 10 0 12 #00ff04 #000000 #000000;
#X obj 102 319 inlet;
#X obj 199 320 inlet;
#X obj 102 397 s \$0-play;
#X obj 199 397 s \$0-velocity;
#X obj 102 513 outlet~;
#X obj 1469 243 cnv 3 1 88 empty \$0-Flash empty 20 12 0 12 #a0a0a0 #fcfcfc 0;
#X obj 1463 62 loadbang;
#X obj 1463 112 s \$0-Flash;
#X obj 1574 63 r \$0-play;
#X obj 1574 88 t b b;
#X obj 1606 199 s \$0-Flash;
#X msg 1574 148 vis_size 0 88;
#X msg 1463 87 vis_size 0 88;
#X msg 1606 173 vis_size 115 88;
#X obj 208 346 loadbang;
#X msg 208 368 1;
#X obj 1574 118 del 30;
#X text 1460 37 INSTEAD OF A FLASH A MOVING CURSOR;
#N canvas 476 398 461 158 INIT 0;
#X obj 16 57 f \$0;
#X obj 16 34 bng 20 250 50 0 empty empty empty 0 -10 0 12 #fcfcfc #000000 #000000;
#X obj 16 11 loadbang;
#X obj 165 59 samplerate~;
#X floatatom 165 84 6 0 0 0 - - - 0;
#X obj 165 36 bng 20 250 50 0 empty empty empty 0 -10 0 12 #fcfcfc #000000 #000000;
#X obj 165 11 loadbang;
#X msg 16 80 \; \$1-SAMPLE edit 0 \;;
#X obj 165 108 s \$0-PD-SR;
#X connect 0 0 7 0;
#X connect 1 0 0 0;
#X connect 2 0 1 0;
#X connect 3 0 4 0;
#X connect 4 0 8 0;
#X connect 5 0 3 0;
#X connect 6 0 5 0;
#X restore 102 429 pd INIT;
#N canvas 2597 263 843 582 SAMPLE-MANAGEMENT 1;
#X obj 15 91 openpanel;
#X obj 187 171 f \$0;
#X obj 155 33 loadbang;
#X obj 15 231 pack s f, f 25;
#X obj 187 146 bng 20 250 50 0 empty empty empty 0 -10 0 12 #fcfcfc #000000 #000000;
#X listbox 15 257 74 0 0 0 - - - 0;
#X obj 15 339 soundfiler, f 31;
#X floatatom 15 396 8 0 0 1 number\ of\ samples - - 0;
#X listbox 229 395 20 0 0 0 - - - 0;
#X obj 229 419 unpack f;
#X floatatom 194 196 5 0 0 0 - - - 0;
#X floatatom 113 467 9 0 0 1 DURATION\ (ms) - - 0;
#X obj 113 444 expr 1000*$f1/$f2;
#X obj 242 444 s \$0-sample-SR;
#X obj 15 4 r \$0-load;
#X obj 25 366 bng 20 250 50 0 \$0-loaded empty empty 0 -10 0 12 #fcfcfc #000000 #000000;
#X obj 261 276 unpack s;
#X obj 155 81 t b b;
#X obj 155 58 bng 20 250 50 0 empty empty empty 0 -10 0 12 #fcfcfc #000000 #000000;
#X msg 15 36 symbol /home/mobin/Documents/Sounds, f 16;
#X obj 265 46 text define -k \$0-parameters;
#A set symbol 0 \;;
#X obj 551 9 savestate;
#X obj 611 58 text sequence \$0-parameters;
#X obj 551 143 text set \$0-parameters 0 0;
#X obj 261 299 text set \$0-parameters 0 0;
#X text 263 10 0 - SAMPLE LOCATION \; 1 - SAMPLE LENGTH(MS) \;;
#X msg 611 33 line 0 \, auto;
#X obj 551 91 unpack s f;
#X obj 618 117 text set \$0-parameters 0 1;
#X obj 28 139 del 50;
#X msg 28 164 0;
#X obj 28 187 text get \$0-parameters 0, f 15;
#X msg 314 124 0;
#X obj 314 147 text get \$0-parameters 1, f 15;
#X obj 552 233 text set \$0-parameters 0 1;
#X obj 314 101 del 50;
#X obj 314 188 s \$0-i-TIME-STRETCH;
#X obj 552 205 r \$0-TIME-STRETCH;
#X text 551 185 RECIEVING STRETCH-TIME;
#X msg 15 313 read -resize \$1 \$2-SAMPLE;
#X obj 113 491 s \$0-ORIGINAL-DURATION;
#X text 347 445 SAMPLE RATE OF LOADED SAMPLE;
#X obj 15 519 s \$0-RAW-SAMPLE-LENGTH;
#X connect 0 0 3 0;
#X connect 1 0 3 1;
#X connect 1 0 10 0;
#X connect 2 0 18 0;
#X connect 3 0 5 0;
#X connect 4 0 1 0;
#X connect 5 0 39 0;
#X connect 5 0 16 0;
#X connect 6 0 7 0;
#X connect 6 0 15 0;
#X connect 6 1 8 0;
#X connect 7 0 12 0;
#X connect 7 0 42 0;
#X connect 8 0 9 0;
#X connect 9 0 12 1;
#X connect 9 0 13 0;
#X connect 11 0 40 0;
#X connect 12 0 11 0;
#X connect 14 0 19 0;
#X connect 16 0 24 0;
#X connect 17 0 29 0;
#X connect 17 0 35 0;
#X connect 17 1 4 0;
#X connect 18 0 17 0;
#X connect 19 0 0 0;
#X connect 21 0 27 0;
#X connect 21 1 26 0;
#X connect 22 0 21 0;
#X connect 26 0 22 0;
#X connect 27 0 23 0;
#X connect 27 1 28 0;
#X connect 29 0 30 0;
#X connect 30 0 31 0;
#X connect 31 0 3 0;
#X connect 32 0 33 0;
#X connect 33 0 36 0;
#X connect 35 0 32 0;
#X connect 37 0 34 0;
#X connect 39 0 6 0;
#X restore 102 454 pd SAMPLE-MANAGEMENT;
#N canvas 2750 236 384 431 SAMPLE-PLAYING 0;
#X obj 67 25 r \$0-play;
#X obj 69 337 outlet~;
#X obj 69 289 *~;
#X obj 138 289 r \$0-velocity;
#X floatatom 97 289 5 0 1 0 - - - 0;
#X obj 67 53 bng 20 250 50 0 empty empty empty 0 -10 0 12 #fcfcfc #000000 #000000;
#X obj 67 78 f;
#X obj 99 78 + 1;
#X obj 67 103 % 3;
#X floatatom 67 128 5 0 0 0 - - - 0;
#X obj 67 153 sel 0 1 2, f 34;
#X obj 68 228 +~;
#X obj 68 252 +~;
#N canvas 2013 393 423 487 channel 0;
#X obj 31 368 *~;
#X obj 32 400 outlet~;
#X msg 31 235 \$1 \, \$2 \$3;
#X obj 231 97 inlet;
#X msg 263 321 0 10;
#X obj 72 271 del 10;
#X msg 72 293 stop \, 0;
#X obj 31 97 inlet;
#X obj 231 251 t b b;
#X msg 217 327 1;
#X obj 31 120 t b b, f 27;
#X obj 31 159 bng 20 250 50 0 empty empty empty 0 -10 0 12 #fcfcfc #000000 #000000;
#X obj 31 320 vline~;
#X obj 31 343 tabread4~ \$0-SAMPLE;
#X text 75 97 START;
#X text 273 97 STOP;
#X text 110 206 START INDEX - STOP INDEX - DURATION[MS];
#X obj 98 182 r \$0-ORIGINAL-DURATION;
#X obj 64 144 r \$0-RAW-SAMPLE-LEN;
#X obj 64 168 - 2;
#X obj 31 207 pack 1 0 0;
#X text 31 46 IF FOR EXAMPLE: RAW SAMPLE LENGTH == 1000 \; VLINE~(TABREAD4~) -> INDEX [START=1:STOP=998] \;, f 48;
#X text 30 11 SIMPLE ONE-CHANNEL PLAYER TO CLONE;
#X obj 263 347 vline~;
#X connect 0 0 1 0;
#X connect 2 0 12 0;
#X connect 3 0 8 0;
#X connect 4 0 23 0;
#X connect 5 0 6 0;
#X connect 6 0 12 0;
#X connect 7 0 10 0;
#X connect 8 0 5 0;
#X connect 8 1 4 0;
#X connect 9 0 23 0;
#X connect 10 0 11 0;
#X connect 10 1 9 0;
#X connect 11 0 20 0;
#X connect 12 0 13 0;
#X connect 13 0 0 0;
#X connect 17 0 20 2;
#X connect 18 0 19 0;
#X connect 19 0 20 1;
#X connect 20 0 2 0;
#X connect 23 0 0 1;
#X restore 145 198 pd channel;
#N canvas 2013 393 423 487 channel 0;
#X obj 31 368 *~;
#X obj 32 400 outlet~;
#X msg 31 235 \$1 \, \$2 \$3;
#X obj 231 97 inlet;
#X msg 263 321 0 10;
#X obj 72 271 del 10;
#X msg 72 293 stop \, 0;
#X obj 31 97 inlet;
#X obj 231 251 t b b;
#X msg 217 327 1;
#X obj 31 120 t b b, f 27;
#X obj 31 159 bng 20 250 50 0 empty empty empty 0 -10 0 12 #fcfcfc #000000 #000000;
#X obj 31 320 vline~;
#X obj 31 343 tabread4~ \$0-SAMPLE;
#X text 75 97 START;
#X text 273 97 STOP;
#X text 110 206 START INDEX - STOP INDEX - DURATION[MS];
#X obj 98 182 r \$0-ORIGINAL-DURATION;
#X obj 64 144 r \$0-RAW-SAMPLE-LEN;
#X obj 64 168 - 2;
#X obj 31 207 pack 1 0 0;
#X text 31 46 IF FOR EXAMPLE: RAW SAMPLE LENGTH == 1000 \; VLINE~(TABREAD4~) -> INDEX [START=1:STOP=998] \;, f 48;
#X text 30 11 SIMPLE ONE-CHANNEL PLAYER TO CLONE;
#X obj 263 347 vline~;
#X connect 0 0 1 0;
#X connect 2 0 12 0;
#X connect 3 0 8 0;
#X connect 4 0 23 0;
#X connect 5 0 6 0;
#X connect 6 0 12 0;
#X connect 7 0 10 0;
#X connect 8 0 5 0;
#X connect 8 1 4 0;
#X connect 9 0 23 0;
#X connect 10 0 11 0;
#X connect 10 1 9 0;
#X connect 11 0 20 0;
#X connect 12 0 13 0;
#X connect 13 0 0 0;
#X connect 17 0 20 2;
#X connect 18 0 19 0;
#X connect 19 0 20 1;
#X connect 20 0 2 0;
#X connect 23 0 0 1;
#X restore 67 198 pd channel;
#N canvas 2013 393 423 487 channel 0;
#X obj 31 368 *~;
#X obj 32 400 outlet~;
#X msg 31 235 \$1 \, \$2 \$3;
#X obj 231 97 inlet;
#X msg 263 321 0 10;
#X obj 72 271 del 10;
#X msg 72 293 stop \, 0;
#X obj 31 97 inlet;
#X obj 231 251 t b b;
#X msg 217 327 1;
#X obj 31 120 t b b, f 27;
#X obj 31 159 bng 20 250 50 0 empty empty empty 0 -10 0 12 #fcfcfc #000000 #000000;
#X obj 31 320 vline~;
#X obj 31 343 tabread4~ \$0-SAMPLE;
#X text 75 97 START;
#X text 273 97 STOP;
#X text 110 206 START INDEX - STOP INDEX - DURATION[MS];
#X obj 98 182 r \$0-ORIGINAL-DURATION;
#X obj 64 144 r \$0-RAW-SAMPLE-LEN;
#X obj 64 168 - 2;
#X obj 31 207 pack 1 0 0;
#X text 31 46 IF FOR EXAMPLE: RAW SAMPLE LENGTH == 1000 \; VLINE~(TABREAD4~) -> INDEX [START=1:STOP=998] \;, f 48;
#X text 30 11 SIMPLE ONE-CHANNEL PLAYER TO CLONE;
#X obj 263 347 vline~;
#X connect 0 0 1 0;
#X connect 2 0 12 0;
#X connect 3 0 8 0;
#X connect 4 0 23 0;
#X connect 5 0 6 0;
#X connect 6 0 12 0;
#X connect 7 0 10 0;
#X connect 8 0 5 0;
#X connect 8 1 4 0;
#X connect 9 0 23 0;
#X connect 10 0 11 0;
#X connect 10 1 9 0;
#X connect 11 0 20 0;
#X connect 12 0 13 0;
#X connect 13 0 0 0;
#X connect 17 0 20 2;
#X connect 18 0 19 0;
#X connect 19 0 20 1;
#X connect 20 0 2 0;
#X connect 23 0 0 1;
#X restore 223 198 pd channel;
#X connect 0 0 5 0;
#X connect 2 0 1 0;
#X connect 3 0 4 0;
#X connect 4 0 2 1;
#X connect 5 0 6 0;
#X connect 6 0 7 0;
#X connect 6 0 8 0;
#X connect 7 0 6 1;
#X connect 8 0 9 0;
#X connect 9 0 10 0;
#X connect 10 0 14 0;
#X connect 10 0 13 1;
#X connect 10 0 15 1;
#X connect 10 1 14 1;
#X connect 10 1 13 0;
#X connect 10 1 15 1;
#X connect 10 2 14 1;
#X connect 10 2 15 0;
#X connect 10 2 13 1;
#X connect 11 0 12 0;
#X connect 12 0 2 0;
#X connect 13 0 11 1;
#X connect 14 0 11 0;
#X connect 15 0 12 1;
#X restore 102 479 pd SAMPLE-PLAYING;
#X text 777 7 WORKING ON TIME STRETCH;
#X text 276 104 MONO;
#X text 18 7 VERSION 1: MONOPHONIC SAMPLE PLAYER (NEW BANG/PLAY STOPS THE ONGOING), f 69;
#X floatatom 108 257 7 0 0 1 STRETCHED-DURATION \$0-i-TIME-STRETCH \$0-TIME-STRETCH 0;
#X obj 324 321 inlet;
#X obj 324 397 s \$0-i-TIME-STRETCH;
#X floatatom 108 235 7 0 0 1 ORIGINAL-DURATION \$0-ORIGINAL-DURATION \$0-ORIGINAL-DURATION-DUMMY 0;
#X text 142 319 PLAY;
#X text 239 320 VELOCITY;
#X text 365 319 STRETCHED-TIME (COULD INPUT TIME OF 1 BAR AS AN EXAMPLE), f 28;
#X obj 108 279 bng 20 250 50 0 \$0-perform-stretch \$0-i-perform-stretch STRETCH 23 10 0 12 #fcfcfc #000000 #000000;
#X text 657 431 WHAT SHOULD HAPPEND WHEN BANGED STRETCH? \; - STRETCHING ALGORITH SHOULD LOAD THE ARRAY \, PERFORM ITS LOGIC \; - SAVE THE FILE ON THE DISK WITH TIMING SUFFIX \; - LOAD THE FILE INTO ARRAY \; - CHANGING BANG NAME TO STRETCHING -> DONE -> LOAD THE FILE -> PUT STRETCH-DURATION TO 0 -> BANG NAME TO STRETCH \;, f 120;
#X connect 3 0 5 0;
#X connect 4 0 6 0;
#X connect 9 0 15 0;
#X connect 11 0 12 0;
#X connect 12 0 19 0;
#X connect 12 1 16 0;
#X connect 14 0 13 0;
#X connect 15 0 10 0;
#X connect 16 0 13 0;
#X connect 17 0 18 0;
#X connect 18 0 6 0;
#X connect 19 0 14 0;
#X connect 23 0 7 0;
#X connect 28 0 29 0;
#X coords 0 -1 1 1 265 204 2 100 100;
