#N canvas 2160 89 637 507 12;
#N canvas 52 20 1854 977 (subpatch) 0;
#X array \$0-SAMPLE 65070 float 2;
#A color 0;
#A width 2;
#X coords 0 1 65070 -1 200 110 1 0 0;
#X restore 109 120 graph;
#X obj 109 235 bng 20 250 50 0 \$0-load \$0-i-load LOAD 23 10 0 12 #ffffff #000000 #000000;
#X obj 109 258 bng 20 250 50 0 \$0-UI-play \$0-i-UI-play PLAY 23 10 0 12 #ffffff #000000 #000000;
#X obj 100 304 inlet;
#X obj 216 302 inlet;
#X obj 100 441 outlet~;
#X obj 108 120 cnv 1 2 110 empty \$0-Flash empty 20 12 0 12 #ff0400 #000000 0;
#N canvas 2306 377 461 158 INIT 0;
#X obj 16 57 f \$0;
#X obj 16 34 bng 20 250 50 0 empty empty empty 0 -10 0 12 #fcfcfc #000000 #000000;
#X obj 16 11 loadbang;
#X obj 165 59 samplerate~;
#X floatatom 165 84 6 0 0 0 - - - 0;
#X obj 165 36 bng 20 250 50 0 empty empty empty 0 -10 0 12 #fcfcfc #000000 #000000;
#X obj 165 11 loadbang;
#X msg 16 80 \; \$1-SAMPLE edit 0 \;;
#X obj 165 108 s \$0-PD-SR;
#X connect 0 0 7 0;
#X connect 1 0 0 0;
#X connect 2 0 1 0;
#X connect 3 0 4 0;
#X connect 4 0 8 0;
#X connect 5 0 3 0;
#X connect 6 0 5 0;
#X restore 101 74 pd INIT;
#N canvas 2597 263 843 681 SAMPLE-MANAGEMENT 0;
#X obj 15 91 openpanel;
#X obj 187 171 f \$0;
#X obj 155 33 loadbang;
#X obj 15 231 pack s f, f 25;
#X obj 187 146 bng 20 250 50 0 empty empty empty 0 -10 0 12 #fcfcfc #000000 #000000;
#X listbox 15 257 74 0 0 0 - - - 0;
#X obj 15 339 soundfiler, f 31;
#X floatatom 15 396 8 0 0 1 number\ of\ samples - - 0;
#X listbox 229 395 20 0 0 0 - - - 0;
#X obj 229 419 unpack f;
#X floatatom 194 196 5 0 0 0 - - - 0;
#X floatatom 113 467 9 0 0 1 DURATION\ (ms) - - 0;
#X obj 113 444 expr 1000*$f1/$f2;
#X obj 242 444 s \$0-sample-SR;
#X obj 15 4 r \$0-load;
#X obj 25 366 bng 20 250 50 0 \$0-loaded empty empty 0 -10 0 12 #fcfcfc #000000 #000000;
#X obj 261 276 unpack s;
#X obj 155 81 t b b;
#X obj 155 58 bng 20 250 50 0 empty empty empty 0 -10 0 12 #fcfcfc #000000 #000000;
#X msg 15 36 symbol /home/mobin/Documents/Sounds, f 16;
#X obj 265 46 text define -k \$0-parameters;
#A set location 5000 \;;
#X obj 551 9 savestate;
#X obj 611 58 text sequence \$0-parameters;
#X obj 551 143 text set \$0-parameters 0 0;
#X obj 261 299 text set \$0-parameters 0 0;
#X msg 611 33 line 0 \, auto;
#X obj 551 91 unpack s f;
#X obj 618 117 text set \$0-parameters 0 1;
#X obj 28 146 del 50;
#X msg 28 169 0;
#X obj 28 192 text get \$0-parameters 0, f 15;
#X msg 15 313 read -resize \$1 \$2-SAMPLE;
#X text 347 443 SAMPLE RATE OF LOADED SAMPLE;
#X obj 455 296 s \$0-i-UI-sample-loc;
#X msg 194 510 label \$1;
#X obj 194 534 s \$0-i-UI-orig-dur;
#X obj 194 486 expr symbol($f1);
#X text 439 463 SET PLAYBACK DURATION (USED IN SAMPLE-PLAYING);
#X obj 15 519 s \$0-RAW-SAMPLE-LEN;
#X text 263 10 0 - SAMPLE LOCATION \; 1 - PLAYBACK DURATION(MS) \;;
#X obj 622 523 text set \$0-parameters 0 1;
#X obj 483 614 expr if($f1 == 0 \, $f2 \, $f1);
#X obj 483 486 t b f;
#X floatatom 483 587 5 0 0 0 - - - 0;
#X obj 483 547 text get \$0-parameters 1, f 15;
#X msg 483 522 0, f 2;
#X obj 271 159 text set \$0-parameters 0 1;
#X obj 15 116 t s b;
#X msg 271 136 0;
#X obj 483 639 s \$0-i-UI-pb-duration;
#X obj 622 497 r \$0-UI-pb-duration;
#X connect 0 0 47 0;
#X connect 1 0 3 1;
#X connect 1 0 10 0;
#X connect 2 0 18 0;
#X connect 3 0 5 0;
#X connect 4 0 1 0;
#X connect 5 0 31 0;
#X connect 5 0 16 0;
#X connect 6 0 7 0;
#X connect 6 0 15 0;
#X connect 6 1 8 0;
#X connect 7 0 12 0;
#X connect 7 0 38 0;
#X connect 8 0 9 0;
#X connect 9 0 12 1;
#X connect 9 0 13 0;
#X connect 11 0 36 0;
#X connect 11 0 42 0;
#X connect 12 0 11 0;
#X connect 14 0 19 0;
#X connect 16 0 24 0;
#X connect 16 0 33 0;
#X connect 17 0 28 0;
#X connect 17 1 4 0;
#X connect 18 0 17 0;
#X connect 19 0 0 0;
#X connect 21 0 26 0;
#X connect 21 1 25 0;
#X connect 22 0 21 0;
#X connect 25 0 22 0;
#X connect 26 0 23 0;
#X connect 26 1 27 0;
#X connect 28 0 29 0;
#X connect 29 0 30 0;
#X connect 30 0 3 0;
#X connect 31 0 6 0;
#X connect 34 0 35 0;
#X connect 36 0 34 0;
#X connect 41 0 49 0;
#X connect 42 0 45 0;
#X connect 42 1 41 1;
#X connect 43 0 41 0;
#X connect 44 0 43 0;
#X connect 45 0 44 0;
#X connect 47 0 3 0;
#X connect 47 1 48 0;
#X connect 48 0 46 0;
#X connect 50 0 40 0;
#X restore 346 101 pd SAMPLE-MANAGEMENT;
#N canvas 652 128 440 354 SAMPLE-PLAYING 0;
#X obj 302 308 outlet~;
#X obj 303 268 *~;
#X floatatom 334 267 5 0 1 0 - - - 0;
#X obj 52 48 bng 20 250 50 0 empty empty empty 0 -10 0 12 #fcfcfc #000000 #000000;
#X obj 52 73 f;
#X obj 84 73 + 1;
#X obj 52 98 % 3;
#X floatatom 52 123 5 0 0 0 - - - 0;
#X obj 52 148 sel 0 1 2, f 34;
#X obj 53 223 +~;
#X obj 53 247 +~;
#N canvas 2013 393 423 487 channel 0;
#X obj 31 368 *~;
#X obj 32 400 outlet~;
#X msg 31 235 \$1 \, \$2 \$3;
#X obj 231 97 inlet;
#X msg 263 321 0 10;
#X obj 72 271 del 10;
#X msg 72 293 stop \, 0;
#X obj 31 97 inlet;
#X obj 231 251 t b b;
#X msg 217 327 1;
#X obj 31 120 t b b, f 27;
#X obj 31 159 bng 20 250 50 0 empty empty empty 0 -10 0 12 #fcfcfc #000000 #000000;
#X obj 31 320 vline~;
#X obj 31 343 tabread4~ \$0-SAMPLE;
#X text 75 97 START;
#X text 273 97 STOP;
#X text 110 206 START INDEX - STOP INDEX - DURATION[MS];
#X obj 64 144 r \$0-RAW-SAMPLE-LEN;
#X obj 64 168 - 2;
#X obj 31 207 pack 1 0 0;
#X text 31 46 IF FOR EXAMPLE: RAW SAMPLE LENGTH == 1000 \; VLINE~(TABREAD4~) -> INDEX [START=1:STOP=998] \;, f 48;
#X text 30 11 SIMPLE ONE-CHANNEL PLAYER TO CLONE;
#X obj 263 347 vline~;
#X obj 98 182 r \$0-UI-pb-duration;
#X connect 0 0 1 0;
#X connect 2 0 12 0;
#X connect 3 0 8 0;
#X connect 4 0 22 0;
#X connect 5 0 6 0;
#X connect 6 0 12 0;
#X connect 7 0 10 0;
#X connect 8 0 5 0;
#X connect 8 1 4 0;
#X connect 9 0 22 0;
#X connect 10 0 11 0;
#X connect 10 1 9 0;
#X connect 11 0 19 0;
#X connect 12 0 13 0;
#X connect 13 0 0 0;
#X connect 17 0 18 0;
#X connect 18 0 19 1;
#X connect 19 0 2 0;
#X connect 22 0 0 1;
#X connect 23 0 19 2;
#X restore 130 193 pd channel;
#N canvas 762 336 423 487 channel 0;
#X obj 31 368 *~;
#X obj 32 400 outlet~;
#X msg 31 235 \$1 \, \$2 \$3;
#X obj 231 97 inlet;
#X msg 263 321 0 10;
#X obj 72 271 del 10;
#X msg 72 293 stop \, 0;
#X obj 31 97 inlet;
#X obj 231 251 t b b;
#X msg 217 327 1;
#X obj 31 120 t b b, f 27;
#X obj 31 159 bng 20 250 50 0 empty empty empty 0 -10 0 12 #fcfcfc #000000 #000000;
#X obj 31 320 vline~;
#X obj 31 343 tabread4~ \$0-SAMPLE;
#X text 75 97 START;
#X text 273 97 STOP;
#X text 110 206 START INDEX - STOP INDEX - DURATION[MS];
#X obj 64 144 r \$0-RAW-SAMPLE-LEN;
#X obj 64 168 - 2;
#X obj 31 207 pack 1 0 0;
#X text 31 46 IF FOR EXAMPLE: RAW SAMPLE LENGTH == 1000 \; VLINE~(TABREAD4~) -> INDEX [START=1:STOP=998] \;, f 48;
#X text 30 11 SIMPLE ONE-CHANNEL PLAYER TO CLONE;
#X obj 263 347 vline~;
#X obj 98 182 r \$0-UI-pb-duration;
#X connect 0 0 1 0;
#X connect 2 0 12 0;
#X connect 3 0 8 0;
#X connect 4 0 22 0;
#X connect 5 0 6 0;
#X connect 6 0 12 0;
#X connect 7 0 10 0;
#X connect 8 0 5 0;
#X connect 8 1 4 0;
#X connect 9 0 22 0;
#X connect 10 0 11 0;
#X connect 10 1 9 0;
#X connect 11 0 19 0;
#X connect 12 0 13 0;
#X connect 13 0 0 0;
#X connect 17 0 18 0;
#X connect 18 0 19 1;
#X connect 19 0 2 0;
#X connect 22 0 0 1;
#X connect 23 0 19 2;
#X restore 52 193 pd channel;
#N canvas 2013 393 423 487 channel 0;
#X obj 31 368 *~;
#X obj 32 400 outlet~;
#X msg 31 235 \$1 \, \$2 \$3;
#X obj 231 97 inlet;
#X msg 263 321 0 10;
#X obj 72 271 del 10;
#X msg 72 293 stop \, 0;
#X obj 31 97 inlet;
#X obj 231 251 t b b;
#X msg 217 327 1;
#X obj 31 120 t b b, f 27;
#X obj 31 159 bng 20 250 50 0 empty empty empty 0 -10 0 12 #fcfcfc #000000 #000000;
#X obj 31 320 vline~;
#X obj 31 343 tabread4~ \$0-SAMPLE;
#X text 75 97 START;
#X text 273 97 STOP;
#X text 110 206 START INDEX - STOP INDEX - DURATION[MS];
#X obj 64 144 r \$0-RAW-SAMPLE-LEN;
#X obj 64 168 - 2;
#X obj 31 207 pack 1 0 0;
#X text 31 46 IF FOR EXAMPLE: RAW SAMPLE LENGTH == 1000 \; VLINE~(TABREAD4~) -> INDEX [START=1:STOP=998] \;, f 48;
#X text 30 11 SIMPLE ONE-CHANNEL PLAYER TO CLONE;
#X obj 263 347 vline~;
#X obj 98 182 r \$0-UI-pb-duration;
#X connect 0 0 1 0;
#X connect 2 0 12 0;
#X connect 3 0 8 0;
#X connect 4 0 22 0;
#X connect 5 0 6 0;
#X connect 6 0 12 0;
#X connect 7 0 10 0;
#X connect 8 0 5 0;
#X connect 8 1 4 0;
#X connect 9 0 22 0;
#X connect 10 0 11 0;
#X connect 10 1 9 0;
#X connect 11 0 19 0;
#X connect 12 0 13 0;
#X connect 13 0 0 0;
#X connect 17 0 18 0;
#X connect 18 0 19 1;
#X connect 19 0 2 0;
#X connect 22 0 0 1;
#X connect 23 0 19 2;
#X restore 208 193 pd channel;
#X obj 52 21 inlet;
#X obj 334 23 inlet;
#X connect 1 0 0 0;
#X connect 2 0 1 1;
#X connect 3 0 4 0;
#X connect 4 0 5 0;
#X connect 4 0 6 0;
#X connect 5 0 4 1;
#X connect 6 0 7 0;
#X connect 7 0 8 0;
#X connect 8 0 12 0;
#X connect 8 0 11 1;
#X connect 8 0 13 1;
#X connect 8 1 12 1;
#X connect 8 1 11 0;
#X connect 8 1 13 1;
#X connect 8 2 12 1;
#X connect 8 2 13 0;
#X connect 8 2 11 1;
#X connect 9 0 10 0;
#X connect 10 0 1 0;
#X connect 11 0 9 1;
#X connect 12 0 9 0;
#X connect 13 0 10 1;
#X connect 14 0 3 0;
#X connect 15 0 2 0;
#X restore 100 405 pd SAMPLE-PLAYING;
#X text 277 102 MONO;
#X text 142 303 PLAY;
#X text 259 302 VELOCITY;
#X text 18 7 VERSION 2: MONOPHONIC SAMPLE PLAYER (NEW BANG/PLAY STOPS THE ONGOING), f 69;
#X obj 313 122 vsl 20 105 0 1 0 0 \$0-UI-velocity \$0-i-UI-velocity empty 6 25 0 12 #fcfcfc #000000 #000000 0 1;
#X symbolatom 166 235 20 0 0 0 - \$0-i-UI-sample-loc \$0-UI-sample-loc 0;
#X obj 165 257 cnv 19 70 20 empty \$0-i-UI-orig-dur 0.0 3 10 0 12 #e0e0e0 #404040 0;
#X text 169 276 ORIGINAL;
#X text 239 276 PLAYBACK;
#X floatatom 236 258 10 0 0 1 [ms] \$0-i-UI-pb-duration \$0-UI-pb-duration 0;
#X obj 216 352 s \$0-i-UI-velocity;
#N canvas 2796 190 430 322 CURSOR 0;
#X text 51 7 CURSOR CANVAS;
#X obj 55 278 s \$0-Flash;
#X obj 55 39 r \$0-PLAY;
#X obj 86 82 r \$0-UI-pb-duration;
#X obj 55 153 line;
#X floatatom 55 175 5 0 0 0 - - - 0;
#X obj 55 232 pack f 120;
#X msg 55 254 pos \$1 \$2;
#X obj 55 197 + 108;
#X msg 55 131 0 \, 200 \$1;
#X obj 55 82 f;
#X text 155 158 RAMP GENERATOR FROM 108 TO 308 IN PLAYBACK DURATION [ms], f 29;
#X text 135 125 \; \; \; \; \; \;;
#X obj 271 110 s \$0-Flash;
#X msg 271 47 pos 108 120;
#X obj 271 11 loadbang;
#X msg 295 76 vis_size 2 110;
#X connect 2 0 10 0;
#X connect 3 0 10 1;
#X connect 4 0 5 0;
#X connect 5 0 8 0;
#X connect 6 0 7 0;
#X connect 7 0 1 0;
#X connect 8 0 6 0;
#X connect 9 0 4 0;
#X connect 10 0 9 0;
#X connect 14 0 13 0;
#X connect 15 0 14 0;
#X connect 15 0 16 0;
#X connect 16 0 13 0;
#X restore 346 124 pd CURSOR;
#X obj 116 347 r \$0-UI-play;
#X obj 216 376 r \$0-UI-velocity;
#X obj 216 327 clip 0 1;
#X obj 388 302 inlet;
#X obj 388 327 clip 10 500000;
#X obj 100 379 bng 20 250 50 0 empty empty empty 0 -10 0 12 #fcfcfc #000000 #000000;
#X obj 126 379 s \$0-PLAY;
#X obj 388 358 s \$0-i-UI-pb-duration;
#X connect 3 0 27 0;
#X connect 4 0 24 0;
#X connect 9 0 5 0;
#X connect 22 0 27 0;
#X connect 23 0 9 1;
#X connect 24 0 20 0;
#X connect 25 0 26 0;
#X connect 26 0 29 0;
#X connect 27 0 9 0;
#X connect 27 0 28 0;
#X coords 0 -1 1 1 240 195 2 100 100;
