#N canvas 1920 0 1920 1009 12;
#X declare -stdpath /home/mobin/Documents/Pd/my-patches/extra;
#X declare -stdpath /home/mobin/Documents/Pd/my-patches/extra;
#N canvas 0 50 450 250 (subpatch) 0;
#X array \$0-WAVETABLE 4096 float 2;
#A color 0;
#A width 2;
#X coords 0 1 4096 -1 245 89 1;
#X restore 107 145 graph;
#X obj 107 238 bng 18 250 50 0 \$0-LOAD \$0-i-LOAD LOAD 21 10 0 11 #0f8910 #000000 #000000;
#X symbolatom 161 238 18 0 0 1 - \$0-i-WAVE-LOC \$0-WAVE-LOC 12;
#X obj 302 238 bng 18 250 50 0 \$0-ADSR \$0-i-ADSR ADSR 21 10 0 11 #9f9f9f #000000 #000000;
#X obj 103 341 inlet, f 25;
#X obj 102 102 cnv 17 256 18 empty empty empty 20 12 0 12 #bbbbbb #404040 0;
#X text 111 101 === |....WAVETABLE SYNTH....| ===;
#X text 625 322 - SHAPE OF ENVELOPE IS DEFINES INTERNALY -- LATER ON MAYBE ALSO AS AN INPUT WHEN MADE A SEQUNCER THAT SENDS ADSR VALUES AS WELL \;, f 71;
#X text 627 203 - MONO-PHONIC -> TO DO POLYPHONIC AFTERWARD!;
#X text 627 134 - WAVE LOADED IS ALREADY NORMALIZED \;, f 37;
#N canvas 1956 38 644 355 LOAD 0;
#X obj 118 127 openpanel;
#X obj 118 229 soundfiler, f 33;
#X listbox 346 254 20 0 0 0 - - - 0;
#X obj 118 152 pack s \$0;
#X obj 118 54 bng 19 250 50 0 empty empty empty 0 -10 0 12 #fcfcfc #000000 #000000;
#X text 34 54 LOAD SAMPLE;
#X obj 346 276 unpack f;
#X obj 346 300 s \$0-RECORDED-SR;
#X floatatom 118 255 9 0 0 1 WAVE-SIZE - - 0;
#N canvas 981 425 573 338 PATH-TRIM 0;
#X listbox 77 106 28 0 0 0 - - - 0;
#X symbolatom 77 59 39 0 0 0 - - - 0;
#X obj 77 82 list fromsymbol;
#X obj 122 153 list tosymbol;
#X symbolatom 122 177 35 0 0 0 - - - 0;
#X obj 77 25 inlet;
#X obj 122 212 outlet;
#X obj 78 128 list split 35;
#X connect 0 0 7 0;
#X connect 1 0 2 0;
#X connect 2 0 0 0;
#X connect 3 0 4 0;
#X connect 4 0 6 0;
#X connect 5 0 1 0;
#X connect 7 1 3 0;
#X restore 360 171 pd PATH-TRIM;
#X obj 118 29 r \$0-LOAD;
#X msg 118 82 symbol /home/mobin/Documents/Sounds/Waves, f 35;
#X obj 118 278 s \$0-i-WAVE-SIZE;
#X obj 360 197 s \$0-i-WAVE-LOC;
#X symbolatom 360 147 36 0 0 0 - - - 0;
#X msg 118 179 read -resize \$1 \$2-WAVETABLE;
#X connect 0 0 3 0;
#X connect 0 0 14 0;
#X connect 1 0 8 0;
#X connect 1 1 2 0;
#X connect 2 0 6 0;
#X connect 3 0 15 0;
#X connect 4 0 11 0;
#X connect 6 0 7 0;
#X connect 8 0 12 0;
#X connect 9 0 13 0;
#X connect 10 0 4 0;
#X connect 11 0 0 0;
#X connect 14 0 9 0;
#X connect 15 0 1 0;
#X restore 102 43 pd LOAD;
#X text 1181 819 - NOTE (STEP) SEQUENCER: \; -- EACH STEP: \; ------ MULTIPLE NOTE HOLDER \; ------ EACH NOTE HOLDER: MIDI NOTE NUMBER \, VELOCITY(ON) \, OFF TIME DELAY \;, f 75;
#X text 1177 778 - NOTE (STEP) SEQUENCER: TRIPLET - DIVIDING BAR INTO THREE STEPS \;, f 67;
#X text 629 161 - DO I ADD A OVERAL VOLUME? MULTIPLYING TO ADSR? --> NO! BETTER OUTSIDE THE WT.SYNTH AS MULTIPLICATION TO OUTPUT, f 81;
#X text 425 10 - SAVESTATE FOR: \; - ADSR VALUES \; - WAVE LOADED \;, f 20;
#X text 625 230 - TO KEEP IT ALWAYS ON COULD SEND NOTE ON WITHOUT OFF!;
#X text 99 321 [MIDI \, VELOCITY(0 \, 1:127)];
#X obj 103 388 unpack f f, f 35;
#X obj 103 412 mtof;
#X obj 345 415 / 127;
#X obj 676 10 declare -stdpath /home/mobin/Documents/Pd/my-patches/extra;
#X text 1175 922 - MAKE A NOTE(STEP) SEQUENCER FOR IT (SETTING MANUALLY THE ON/OFF TIME DELAY FOR EACH STEP) \; - START MAKING SOME DEMOS AND CONTINUE WORKING ON MSP DELAYS AND FILTERS... \;, f 100;
#X obj 196 471 r \$0-i-WAVE-SIZE;
#X obj 196 496 - 3;
#X obj 103 603 *~;
#N canvas 2563 323 596 384 \$0-ADSR 0;
#X floatatom 97 152 5 0 0 2 PEAK\ LEVEL\ (0:1) - - 0;
#X obj 41 221 tgl 20 0 empty empty empty 0 -10 0 12 #fcfcfc #000000 #000000 0 1;
#X obj 41 275 msp.adsr, f 41;
#X obj 41 343 outlet~;
#X obj 41 48 inlet;
#X obj 41 132 t f f;
#X text 37 20 VELOCITY[0:1];
#X obj 372 294 snapshot~;
#X floatatom 372 319 10 0 0 0 - - - 0;
#X obj 448 318 metro 10;
#X obj 448 295 tgl 20 0 empty empty empty 0 -10 0 12 #fcfcfc #000000 #000000 0 1;
#X obj 154 166 r \$0-ATTACK-TIME;
#X obj 211 189 r \$0-DECAY-TIME;
#X obj 268 213 r \$0-SUSTAIN-LEVEL;
#X obj 325 238 r \$0-RELEASE-TIME;
#X obj 155 7 declare -stdpath /home/mobin/Documents/Pd/my-patches/extra;
#X connect 0 0 2 1;
#X connect 1 0 2 0;
#X connect 2 0 3 0;
#X connect 2 0 7 0;
#X connect 4 0 5 0;
#X connect 5 0 1 0;
#X connect 5 1 0 0;
#X connect 7 0 8 0;
#X connect 9 0 7 0;
#X connect 10 0 9 0;
#X connect 11 0 2 2;
#X connect 12 0 2 3;
#X connect 13 0 2 4;
#X connect 14 0 2 5;
#X coords 0 384 1 383 85 60 0;
#X restore 345 582 pd \$0-ADSR;
#X obj 556 576 bng 20 250 50 0 empty empty empty 0 -10 0 12 #fcfcfc #000000 #000000;
#X obj 556 601 f \$0;
#X floatatom 345 440 5 0 0 0 - - - 0;
#X msg 556 626 \; pd-\$1-ADSR-GUI vis 1;
#N canvas 388 380 445 191 \$0-ADSR-GUI 0;
#X floatatom 136 44 10 0 0 1 ATTACK\ [ms] \$0-i-ATTACK-TIME \$0-ATTACK-TIME 0;
#X floatatom 136 66 10 0 0 1 DECAY\ [ms] \$0-i-DECAY-TIME \$0-DECAY-TIME 0;
#X floatatom 136 88 10 0 0 1 SUSTAIN\ LEVEL[%] \$0-i-SUSTAIN-LEVEL \$0-SUSTAIN-LEVEL 0;
#X floatatom 136 112 10 0 0 1 RELEASE\ [ms] \$0-i-RELEASE-TIME \$0-RELEASE-TIME 0;
#X coords 0 191 1 190 85 60 0;
#X restore 556 665 pd \$0-ADSR-GUI;
#X obj 556 549 r \$0-ADSR;
#X obj 130 145 cnv 1 1 89 \$0-WAVE-PHASOR-1-CURSOR \$0-i-WAVE-PHASOR-1-CURSOR empty 20 12 0 12 #0400ff #404040 0;
#X obj 316 132 cnv 19 36 20 empty empty MONO 5 10 0 12 #000000 #ffffff 0;
#N canvas 2557 331 533 351 CURSOR 0;
#X obj 305 79 s \$0-i-WAVE-PHASOR-1-CURSOR;
#X obj 305 104 r \$0-WAVE-PHASOR-1-CURSOR;
#X obj 88 152 /, f 10;
#X floatatom 88 177 7 0 0 1 SAMPLE-X-PIXEL - - 0;
#X obj 88 102 t b f, f 10;
#X text 124 127 \$0-SAMPLE SIZE(X);
#X msg 52 270 pos \$1 \$2;
#X obj 52 196 *;
#X obj 52 50 r \$0-WAVE-PHASOR-1-CURSOR-POS;
#X obj 52 293 s \$0-i-WAVE-PHASOR-1-CURSOR;
#X obj 88 78 r \$0-i-WAVE-SIZE;
#X msg 88 127 245;
#X msg 305 50 get_pos;
#X obj 305 129 unpack f f;
#X floatatom 305 154 5 0 0 0 - - - 0;
#X floatatom 372 154 5 0 0 0 - - - 0;
#X obj 52 220 + 107;
#X obj 52 245 pack f 145;
#X obj 307 273 s \$0-i-WAVE-PHASOR-1-CURSOR;
#X msg 307 248 size 1;
#X connect 1 0 13 0;
#X connect 2 0 3 0;
#X connect 3 0 7 1;
#X connect 4 0 11 0;
#X connect 4 1 2 1;
#X connect 6 0 9 0;
#X connect 7 0 16 0;
#X connect 8 0 7 0;
#X connect 10 0 4 0;
#X connect 11 0 2 0;
#X connect 12 0 0 0;
#X connect 13 0 14 0;
#X connect 13 1 15 0;
#X connect 16 0 17 0;
#X connect 17 0 6 0;
#X connect 19 0 18 0;
#X restore 102 65 pd CURSOR;
#X obj 487 319 bng 20 250 50 0 empty empty empty 0 -10 0 12 #fcfcfc #000000 #000000;
#X obj 428 318 bng 30 250 50 0 empty empty TEST 0 -10 0 12 #ff8300 #000000 #000000;
#X obj 487 344 del 80;
#N canvas 2028 336 694 359 4-OSCILLATORS 0;
#X obj 82 33 inlet;
#X obj 154 33 inlet;
#N canvas 297 118 853 439 OSCILLATOR-PHASE-0 0;
#X obj 246 158 phasor~;
#X obj 246 243 *~ \$1;
#X obj 229 353 *~;
#X floatatom 364 224 7 0 0 1 - - - 0;
#X floatatom 246 79 8 0 0 1 - - - 0;
#X obj 246 49 inlet;
#X obj 364 49 inlet;
#X obj 246 103 t f b;
#X msg 278 131 0, f 2;
#X obj 246 208 wrap~;
#X obj 246 183 +~ 0;
#X obj 229 378 outlet~;
#X obj 19 227 *~ 997;
#X obj 19 252 +~ 1;
#X text 244 28 FREQUENCY[Hz];
#X text 361 28 PHASOR RANGE (WINDOW-SIZE-3);
#X text 27 275 ENVELOPE OF LENGHT 1000;
#X obj 19 334 tabread~ \$0-WAVE-ENVELOPE;
#X obj 246 309 tabread4~ \$0-WAVETABLE;
#X obj 546 263 snapshot~;
#X obj 618 263 metro 10;
#X obj 618 239 tgl 20 0 empty empty empty 0 -10 0 12 #fcfcfc #000000 #000000 0 1;
#X obj 546 287 s \$0-WAVE-PHASOR-1-CURSOR-POS;
#X obj 618 48 inlet;
#X text 614 29 CURSOR VISUALIZATION;
#X obj 618 73 sel 0;
#X msg 650 219 1, f 2;
#X obj 618 165 del 0;
#X floatatom 663 165 6 0 0 0 - - - 0;
#X obj 663 141 r \$0-RELEASE-TIME;
#X msg 618 190 0, f 2;
#X msg 650 103 stop;
#X connect 0 0 10 0;
#X connect 1 0 19 0;
#X connect 1 0 18 0;
#X connect 2 0 11 0;
#X connect 3 0 1 1;
#X connect 4 0 7 0;
#X connect 5 0 4 0;
#X connect 6 0 3 0;
#X connect 7 0 0 0;
#X connect 7 1 8 0;
#X connect 8 0 0 1;
#X connect 9 0 1 0;
#X connect 9 0 12 0;
#X connect 10 0 9 0;
#X connect 12 0 13 0;
#X connect 13 0 17 0;
#X connect 17 0 2 0;
#X connect 18 0 2 1;
#X connect 19 0 22 0;
#X connect 20 0 19 0;
#X connect 21 0 20 0;
#X connect 23 0 25 0;
#X connect 25 0 27 0;
#X connect 25 1 31 0;
#X connect 25 1 26 0;
#X connect 26 0 21 0;
#X connect 27 0 30 0;
#X connect 28 0 27 1;
#X connect 29 0 28 0;
#X connect 30 0 21 0;
#X connect 31 0 27 0;
#X restore 82 121 pd OSCILLATOR-PHASE-0;
#X obj 226 32 inlet;
#X obj 82 213 +~, f 5;
#N canvas 459 271 871 439 OSCILLATOR-PHASE-0.25 0;
#X obj 246 158 phasor~;
#X obj 246 243 *~ \$1;
#X obj 229 353 *~;
#X floatatom 364 224 7 0 0 1 - - - 0;
#X floatatom 246 79 8 0 0 1 - - - 0;
#X obj 246 49 inlet;
#X obj 364 49 inlet;
#X obj 246 103 t f b;
#X msg 278 131 0, f 2;
#X obj 246 208 wrap~;
#X obj 229 378 outlet~;
#X obj 19 227 *~ 997;
#X obj 19 252 +~ 1;
#X obj 584 49 inlet;
#X text 244 28 FREQUENCY[Hz];
#X text 361 28 PHASOR RANGE (WINDOW-SIZE-3);
#X text 27 275 ENVELOPE OF LENGHT 1000;
#X obj 246 183 +~ 0.25;
#X obj 246 309 tabread4~ \$0-WAVETABLE;
#X obj 19 334 tabread~ \$0-WAVE-ENVELOPE;
#X obj 512 263 snapshot~;
#X obj 584 263 metro 10;
#X obj 584 239 tgl 20 0 empty empty empty 0 -10 0 12 #fcfcfc #000000 #000000 0 1;
#X obj 512 287 s \$0-WAVE-PHASOR-2-CURSOR-POS;
#X text 581 29 CURSOR VISUALIZATION;
#X connect 0 0 17 0;
#X connect 1 0 20 0;
#X connect 1 0 18 0;
#X connect 2 0 10 0;
#X connect 3 0 1 1;
#X connect 4 0 7 0;
#X connect 5 0 4 0;
#X connect 6 0 3 0;
#X connect 7 0 0 0;
#X connect 7 1 8 0;
#X connect 8 0 0 1;
#X connect 9 0 1 0;
#X connect 9 0 11 0;
#X connect 11 0 12 0;
#X connect 12 0 19 0;
#X connect 17 0 9 0;
#X connect 18 0 2 1;
#X connect 19 0 2 0;
#X connect 20 0 23 0;
#X connect 21 0 20 0;
#X connect 22 0 21 0;
#X restore 114 145 pd OSCILLATOR-PHASE-0.25;
#N canvas 297 118 816 439 OSCILLATOR-PHASE-0.5 0;
#X obj 246 158 phasor~;
#X obj 246 243 *~ \$1;
#X obj 229 353 *~;
#X floatatom 364 224 7 0 0 1 - - - 0;
#X floatatom 246 79 8 0 0 1 - - - 0;
#X obj 246 49 inlet;
#X obj 364 49 inlet;
#X obj 246 103 t f b;
#X msg 278 131 0, f 2;
#X obj 246 208 wrap~;
#X obj 229 378 outlet~;
#X obj 19 227 *~ 997;
#X obj 19 252 +~ 1;
#X obj 584 49 inlet;
#X text 244 28 FREQUENCY[Hz];
#X text 361 28 PHASOR RANGE (WINDOW-SIZE-3);
#X text 27 275 ENVELOPE OF LENGHT 1000;
#X obj 246 183 +~ 0.5;
#X obj 19 334 tabread~ \$0-WAVE-ENVELOPE;
#X obj 246 309 tabread4~ \$0-WAVETABLE;
#X obj 512 262 snapshot~;
#X obj 584 262 metro 10;
#X obj 584 238 tgl 20 0 empty empty empty 0 -10 0 12 #fcfcfc #000000 #000000 0 1;
#X obj 512 286 s \$0-WAVE-PHASOR-3-CURSOR-POS;
#X text 581 29 CURSOR VISUALIZATION;
#X connect 0 0 17 0;
#X connect 1 0 20 0;
#X connect 1 0 19 0;
#X connect 2 0 10 0;
#X connect 3 0 1 1;
#X connect 4 0 7 0;
#X connect 5 0 4 0;
#X connect 6 0 3 0;
#X connect 7 0 0 0;
#X connect 7 1 8 0;
#X connect 8 0 0 1;
#X connect 9 0 1 0;
#X connect 9 0 11 0;
#X connect 11 0 12 0;
#X connect 12 0 18 0;
#X connect 17 0 9 0;
#X connect 18 0 2 0;
#X connect 19 0 2 1;
#X connect 20 0 23 0;
#X connect 21 0 20 0;
#X connect 22 0 21 0;
#X restore 149 169 pd OSCILLATOR-PHASE-0.5;
#N canvas 297 118 835 439 OSCILLATOR-PHASE-0.75 0;
#X obj 246 158 phasor~;
#X obj 246 243 *~ \$1;
#X obj 229 353 *~;
#X floatatom 364 224 7 0 0 1 - - - 0;
#X floatatom 246 79 8 0 0 1 - - - 0;
#X obj 246 49 inlet;
#X obj 364 49 inlet;
#X obj 246 103 t f b;
#X msg 278 131 0, f 2;
#X obj 246 208 wrap~;
#X obj 229 378 outlet~;
#X obj 19 227 *~ 997;
#X obj 19 252 +~ 1;
#X obj 597 46 inlet;
#X text 244 28 FREQUENCY[Hz];
#X text 361 28 PHASOR RANGE (WINDOW-SIZE-3);
#X text 27 275 ENVELOPE OF LENGHT 1000;
#X obj 246 309 tabread4~ \$0-WAVETABLE;
#X obj 19 334 tabread~ \$0-WAVE-ENVELOPE;
#X obj 525 264 snapshot~;
#X obj 597 264 metro 10;
#X obj 597 240 tgl 20 0 empty empty empty 0 -10 0 12 #fcfcfc #000000 #000000 0 1;
#X obj 525 288 s \$0-WAVE-PHASOR-4-CURSOR-POS;
#X obj 246 183 +~ 0.75;
#X text 594 26 CURSOR VISUALIZATION;
#X connect 0 0 23 0;
#X connect 1 0 17 0;
#X connect 1 0 19 0;
#X connect 2 0 10 0;
#X connect 3 0 1 1;
#X connect 4 0 7 0;
#X connect 5 0 4 0;
#X connect 6 0 3 0;
#X connect 7 0 0 0;
#X connect 7 1 8 0;
#X connect 8 0 0 1;
#X connect 9 0 1 0;
#X connect 9 0 11 0;
#X connect 11 0 12 0;
#X connect 12 0 18 0;
#X connect 17 0 2 1;
#X connect 18 0 2 0;
#X connect 19 0 22 0;
#X connect 20 0 19 0;
#X connect 21 0 20 0;
#X connect 23 0 9 0;
#X restore 185 194 pd OSCILLATOR-PHASE-0.75;
#X obj 81 241 outlet~;
#X text 295 33 INLET-1: FREQUENCY[Hz] \; INLET-2: PHASOR RANGE(WINDOW-SIZE-3) \; INLET-3: CURSOR VISUALIZATION (O:OFF \, 1:ON) \;;
#N canvas 52 20 1854 977 (subpatch) 0;
#X array \$0-WAVE-ENVELOPE 1000 float 2;
#A color 0;
#A width 2;
#X coords 0 1 1000 0 200 80 1 0 0;
#X restore 402 118 graph;
#N canvas 2077 247 691 542 MID-COS 0;
#X obj 23 32 inlet;
#X text 118 31 -----------------------------------------------------------;
#X obj 265 187 until;
#X obj 265 211 i, f 7;
#X obj 322 211 + 1;
#X msg 313 187 0;
#X obj 265 163 t f b f, f 15;
#X obj 521 250 - 1;
#X obj 265 238 t f f;
#X floatatom 265 264 5 0 0 1 0-999 - - 0;
#X text 306 136 ATTACK LEN (1);
#X text 262 365 ** pi == acos(-1);
#X msg 265 136 1000;
#X obj 195 156 - 1;
#X msg 23 263 0;
#X text 30 209 FORCE SETTING TO 0 DUE TO NUMERICAL ERROR, f 15;
#X obj 265 290 expr cos(2*acos(-1)*($f1/$f2 + 0.25));
#X obj 521 225 * 2;
#X obj 265 315 * -1;
#X obj 23 62 t b b b, f 35;
#X obj 23 86 del 20;
#X obj 144 88 del 10;
#X obj 23 110 t b b;
#X msg 55 135 0, f 2;
#X text 118 19 (MID-COSINE WINDOW ENVELOPE);
#X obj 23 311 tabwrite \$0-WAVE-ENVELOPE;
#X obj 265 339 tabwrite \$0-WAVE-ENVELOPE;
#X connect 0 0 19 0;
#X connect 2 0 3 0;
#X connect 3 0 4 0;
#X connect 3 0 8 0;
#X connect 4 0 3 1;
#X connect 5 0 3 1;
#X connect 6 0 2 0;
#X connect 6 1 5 0;
#X connect 6 2 17 0;
#X connect 7 0 16 1;
#X connect 8 0 9 0;
#X connect 8 1 26 1;
#X connect 9 0 16 0;
#X connect 12 0 6 0;
#X connect 12 0 13 0;
#X connect 13 0 25 1;
#X connect 14 0 25 0;
#X connect 16 0 18 0;
#X connect 17 0 7 0;
#X connect 18 0 26 0;
#X connect 19 0 20 0;
#X connect 19 1 21 0;
#X connect 19 2 12 0;
#X connect 20 0 22 0;
#X connect 21 0 14 0;
#X connect 22 0 14 0;
#X connect 22 1 23 0;
#X connect 23 0 25 1;
#X restore 402 227 pd MID-COS;
#X obj 402 204 loadbang;
#X connect 0 0 2 0;
#X connect 0 0 5 0;
#X connect 0 0 6 0;
#X connect 0 0 7 0;
#X connect 1 0 2 1;
#X connect 1 0 5 1;
#X connect 1 0 6 1;
#X connect 1 0 7 1;
#X connect 2 0 4 0;
#X connect 3 0 6 2;
#X connect 3 0 7 2;
#X connect 3 0 2 2;
#X connect 4 0 8 0;
#X connect 5 0 4 1;
#X connect 6 0 4 1;
#X connect 7 0 4 1;
#X connect 12 0 11 0;
#X coords 0 359 1 358 85 45 0;
#X restore 103 540 pd 4-OSCILLATORS;
#X f 27;
#X msg 428 368 11 120;
#X msg 487 368 11 0;
#X text 625 253 - INLET BETTER A PACK - WORKS BETTER FOR POLYPHONIC;
#X text 624 281 - MIDI ON: NOTE NUMBER + VELOCITY (1-127: 0-1): PEAK OF ADSR \; - MIDI OFF: NOTE NUMBER + 0 \;, f 62;
#X obj 103 658 outlet~;
#X connect 4 0 17 0;
#X connect 17 0 18 0;
#X connect 17 1 19 0;
#X connect 18 0 38 0;
#X connect 19 0 28 0;
#X connect 22 0 23 0;
#X connect 23 0 38 1;
#X connect 24 0 43 0;
#X connect 25 0 24 1;
#X connect 26 0 27 0;
#X connect 27 0 29 0;
#X connect 28 0 25 0;
#X connect 28 0 38 2;
#X connect 31 0 26 0;
#X connect 35 0 37 0;
#X connect 36 0 39 0;
#X connect 37 0 40 0;
#X connect 38 0 24 0;
#X connect 39 0 35 0;
#X connect 39 0 17 0;
#X connect 40 0 17 0;
#X coords 0 -1 1 1 260 165 2 100 100;
