#N canvas 61 46 678 446 12;
#X declare -path my-patches/live/sound-source;
#X declare -path my-patches/live/sequencing;
#N canvas 240 505 1390 715 CLIP-1:WEIRD-DRUM 1;
#X obj 12 16 tgl 30 0 empty empty empty 0 -10 0 12 #ff8300 #000000 #000000 0 1;
#X obj 12 54 switch~;
#X obj 675 21 _LOAD.WAVE 10;
#A saved /home/mobin/Documents/Sounds/Waves/w-drum-0001.wav \;;
#X obj 121 469 _OSCILLATOR 10 10 1;
#X obj 275 469 _OSCILLATOR 10 10 2;
#X obj 121 230 _ENVELOPE 10 1;
#X obj 519 224 f;
#X obj 519 249 t b f;
#X floatatom 520 181 3 0 0 0 - - - 0;
#X floatatom 577 181 3 0 0 0 - - - 0;
#X obj 520 70 f;
#X obj 553 70 + 1;
#X obj 520 19 tgl 20 0 empty empty empty 0 -10 0 12 #fcfcfc #000000 #000000 0 1;
#X floatatom 520 120 5 0 0 0 - - - 0;
#X obj 520 200 mtof;
#X obj 188 379 *~ 0.1;
#X obj 341 379 *~ 0.1;
#X obj 341 407 +~ 0.5;
#X floatatom 273 329 5 0 0 0 - - - 0;
#X floatatom 341 330 5 0 0 0 - - - 0;
#X floatatom 121 330 5 0 0 0 - - - 0;
#X floatatom 188 330 5 0 0 0 - - - 0;
#X obj 188 405 +~ 0;
#X obj 123 684 hip~ 10;
#X obj 122 655 *~;
#X obj 155 655 hsl 50 20 0 3 0 0 empty empty empty -2 -10 0 12 #fcfcfc #000000 #000000 0 1;
#X obj 122 611 +~, f 5;
#X floatatom 185 685 5 0 0 0 - - - 0;
#X obj 520 674 line~;
#X obj 520 699 *~;
#X obj 123 719 *~;
#X obj 520 622 bng 20 250 50 0 empty empty empty 0 -10 0 12 #fcfcfc #000000 #000000;
#X msg 520 650 1 10;
#X msg 696 337 0, f 6;
#X obj 166 611 *~;
#X obj 238 610 hsl 50 20 0 1 0 0 empty empty empty -2 -10 0 12 #fcfcfc #000000 #000000 0 1;
#X obj 896 783 vu 15 160 empty empty -1 -8 0 12 #404040 #000000 1 0;
#N canvas 1064 289 625 417 vu 0;
#X obj 59 129 env~ 1024;
#X obj 161 111 abs~;
#X obj 161 213 snapshot~;
#X obj 161 256 rmstodb;
#X obj 161 21 inlet~;
#X obj 161 288 - 100;
#X obj 59 287 - 100;
#X obj 59 361 outlet;
#X obj 161 361 outlet;
#X text 344 307 Check the help file of env~ and slop~ for more details., f 31;
#X obj 239 89 expr 1000 / $f1;
#X floatatom 239 117 5 0 0 0 - - - 0;
#X obj 161 146 slop~ 0 0 0 0 1e+09;
#X obj 239 18 inlet;
#X floatatom 239 57 5 0 0 0 - - - 0;
#X text 359 89 convert to hz;
#X text 282 118 hz;
#X text 284 57 peak decay time in ms;
#X obj 59 171 t f b;
#X text 345 132 The env~ object is dedicated to RMS analysis. Its output is in dB (0-100 range \, pd style) but needs to be converted to dBFS (and we do that by simply subtracting 100)., f 31;
#X text 345 225 The slop~ object is used here for peak detection. We need to convert the output to dB with rmstodb and also subtract by 100 to convert it to dBFS., f 31;
#X connect 0 0 18 0;
#X connect 1 0 12 0;
#X connect 2 0 3 0;
#X connect 3 0 5 0;
#X connect 4 0 0 0;
#X connect 4 0 1 0;
#X connect 5 0 8 0;
#X connect 6 0 7 0;
#X connect 10 0 11 0;
#X connect 11 0 12 3;
#X connect 12 0 2 0;
#X connect 13 0 14 0;
#X connect 14 0 10 0;
#X connect 18 0 6 0;
#X connect 18 1 2 0;
#X restore 873 761 pd vu;
#X floatatom 905 707 6 0 1000 0 - decay - 0;
#X text 956 696 peak decay time in ms, f 10;
#X text 920 760 <-- open for analysis;
#X obj 405 436 tgl 20 0 empty empty empty 0 -10 0 12 #fcfcfc #000000 #000000 0 1;
#X obj 221 435 tgl 20 0 empty empty empty 0 -10 0 12 #fcfcfc #000000 #000000 0 1;
#X obj 197 611 sig~;
#X obj 122 582 *~;
#X obj 144 532 hsl 50 20 0 1 0 0 empty empty empty -2 -10 0 12 #fcfcfc #000000 #000000 0 1;
#X obj 141 556 sig~;
#X obj 124 902 output~;
#X obj 121 406 +~ 0;
#X obj 274 408 +~ 0;
#X obj 121 357 osc~;
#X obj 188 357 osc~;
#X obj 274 357 osc~;
#X obj 341 357 osc~;
#X obj 518 45 metro 1000;
#X floatatom 582 16 5 0 0 0 - - - 0;
#X text 954 19 MAKE LOAD WAVE A LITTLE BIGGER \; ADD MORE CURSOR (4);
#X obj 520 95 mod 5;
#X floatatom 606 181 3 0 0 0 - - - 0;
#X obj 520 144 sel 0 1 2 3 4, f 21;
#X floatatom 635 181 3 0 0 0 - - - 0;
#X obj 121 379 *~ 3;
#X obj 274 379 *~ 19;
#X obj 123 742 lop~ 600;
#X floatatom 185 742 5 0 0 0 - - - 0;
#X floatatom 581 280 5 0 0 0 - - - 0;
#X msg 568 676 0 150;
#X obj 568 650 del 100;
#X floatatom 548 180 3 0 0 0 - - - 0;
#X obj 551 279 + 3;
#X text 954 67 THINK ABOUT THE SEQUENCER NEEDED FOR THIS AND ITS RELATION TO SEQUENCING...ARE THE ALREADY MADE ONE GOOD FOR THIS? COULD THEY INTEGRATE?;
#X text 952 138 WAVESIZE MAYBE NEEDED TO BE LOADED WITH DELAY OR MAKE A CONSIDERATION IN _OSCILLATOR (NOT IN SYNCH);
#X obj 1082 319 osc~ 0;
#X obj 1082 344 snapshot~;
#X floatatom 1082 369 5 0 0 0 - - - 0;
#X obj 1058 319 bng 20 250 50 0 empty empty empty 0 -10 0 12 #fcfcfc #000000 #000000;
#X connect 0 0 1 0;
#X connect 3 0 44 0;
#X connect 4 0 34 0;
#X connect 6 0 7 0;
#X connect 7 0 31 0;
#X connect 7 1 48 1;
#X connect 7 1 69 0;
#X connect 8 0 14 0;
#X connect 9 0 14 0;
#X connect 10 0 11 0;
#X connect 10 0 57 0;
#X connect 11 0 10 1;
#X connect 12 0 54 0;
#X connect 13 0 59 0;
#X connect 14 0 6 0;
#X connect 15 0 22 0;
#X connect 16 0 17 0;
#X connect 17 0 4 1;
#X connect 18 0 52 0;
#X connect 19 0 53 0;
#X connect 20 0 50 0;
#X connect 21 0 51 0;
#X connect 22 0 3 1;
#X connect 23 0 30 0;
#X connect 24 0 23 0;
#X connect 25 0 24 1;
#X connect 26 0 24 0;
#X connect 27 0 23 1;
#X connect 28 0 29 0;
#X connect 28 0 29 1;
#X connect 29 0 30 1;
#X connect 30 0 63 0;
#X connect 31 0 32 0;
#X connect 31 0 33 0;
#X connect 31 0 4 2;
#X connect 31 0 3 2;
#X connect 31 0 67 0;
#X connect 32 0 28 0;
#X connect 33 0 50 1;
#X connect 33 0 51 1;
#X connect 33 0 52 1;
#X connect 33 0 53 1;
#X connect 34 0 26 1;
#X connect 35 0 43 0;
#X connect 37 0 36 0;
#X connect 37 1 36 1;
#X connect 38 0 37 1;
#X connect 41 0 4 3;
#X connect 42 0 3 3;
#X connect 43 0 34 1;
#X connect 44 0 26 0;
#X connect 45 0 46 0;
#X connect 46 0 44 1;
#X connect 48 0 3 0;
#X connect 49 0 4 0;
#X connect 50 0 61 0;
#X connect 51 0 15 0;
#X connect 52 0 62 0;
#X connect 53 0 16 0;
#X connect 54 0 10 0;
#X connect 55 0 54 1;
#X connect 57 0 13 0;
#X connect 58 0 14 0;
#X connect 59 0 8 0;
#X connect 59 1 68 0;
#X connect 59 2 9 0;
#X connect 59 3 58 0;
#X connect 59 4 60 0;
#X connect 60 0 14 0;
#X connect 61 0 48 0;
#X connect 62 0 49 0;
#X connect 63 0 47 0;
#X connect 63 0 37 0;
#X connect 64 0 63 1;
#X connect 65 0 69 1;
#X connect 66 0 28 0;
#X connect 67 0 66 0;
#X connect 68 0 14 0;
#X connect 69 0 49 1;
#X connect 72 0 73 0;
#X connect 73 0 74 0;
#X connect 75 0 73 0;
#X restore 11 66 pd CLIP-1:WEIRD-DRUM;
#X obj 11 4 declare -path my-patches/live/sound-source;
#X obj 11 27 declare -path my-patches/live/sequencing;
