#N canvas 89 57 913 519 12;
#X declare -path /home/mobin/Documents/Pd/my-patches/extra;
#X floatatom 181 248 5 0 0 2 PEAK\ LEVEL\ (0:1) - - 0;
#X obj 57 317 tgl 20 0 empty empty empty 0 -10 0 12 #fcfcfc #000000 #000000 0 1;
#X obj 57 439 outlet~;
#X obj 57 112 inlet;
#X obj 57 228 t f f;
#X text 55 92 VELOCITY[0:1];
#X obj 53 58 declare -path /home/mobin/Documents/Pd/my-patches/extra;
#X obj 57 371 msp.adsr, f 89;
#X obj 176 157 del;
#X obj 194 113 inlet;
#X obj 73 137 bng 20 250 50 0 empty empty empty 0 -10 0 12 #fcfcfc #000000 #000000;
#X msg 176 182 0;
#X text 192 91 DELAY[ms];
#X obj 305 113 inlet;
#X obj 429 113 inlet;
#X obj 553 113 inlet;
#X obj 677 113 inlet;
#X floatatom 305 178 5 0 0 0 - - - 0;
#X floatatom 429 178 5 0 0 0 - - - 0;
#X floatatom 553 178 5 0 0 0 - - - 0;
#X floatatom 677 178 5 0 0 0 - - - 0;
#X text 302 93 ATTACK[ms];
#X text 428 94 DECAY[ms];
#X text 551 93 SUSTAIN[%];
#X text 676 94 RELEASE[ms];
#X obj 321 154 f \$2;
#X obj 442 154 f \$3;
#X obj 567 154 f \$4;
#X obj 691 154 f \$5;
#X obj 760 134 loadbang;
#X obj 796 421 bng 20 250 50 0 empty empty empty 0 -10 0 12 #fcfcfc #000000 #000000;
#X obj 796 448 outlet;
#X obj 796 377 del;
#X obj 814 338 +, f 7;
#X obj 828 311 t b f;
#X text 775 473 TO TURN OFF _SP;
#X text 181 444 \$0: ADSR INSTANCE MATCHING TO LOAD.SAMPLE AND _SP. NOT NECESSARY BUT DECIDED TO KEEP. NEEDED FOR SET ARGUMENT!;
#X connect 0 0 7 1;
#X connect 1 0 7 0;
#X connect 3 0 4 0;
#X connect 3 0 10 0;
#X connect 4 0 1 0;
#X connect 4 1 0 0;
#X connect 7 0 2 0;
#X connect 8 0 11 0;
#X connect 9 0 8 1;
#X connect 9 0 33 0;
#X connect 10 0 8 0;
#X connect 10 0 32 0;
#X connect 11 0 4 0;
#X connect 13 0 17 0;
#X connect 14 0 18 0;
#X connect 15 0 19 0;
#X connect 16 0 20 0;
#X connect 17 0 7 2;
#X connect 18 0 7 3;
#X connect 19 0 7 4;
#X connect 20 0 7 5;
#X connect 20 0 34 0;
#X connect 25 0 17 0;
#X connect 26 0 18 0;
#X connect 27 0 19 0;
#X connect 28 0 20 0;
#X connect 29 0 28 0;
#X connect 29 0 27 0;
#X connect 29 0 26 0;
#X connect 29 0 25 0;
#X connect 30 0 31 0;
#X connect 32 0 30 0;
#X connect 33 0 32 1;
#X connect 34 0 33 0;
#X connect 34 1 33 1;
