#N canvas 803 492 398 295 12;
#N canvas 52 20 1854 977 (subpatch) 0;
#X array \$1-ENVELOPE 1000 float 2;
#A color 0;
#A width 2;
#X coords 0 1 1000 0 200 80 1 0 0;
#X restore 17 192 graph;
#X obj 20 55 sel 1 2 3;
#N canvas 704 467 933 446 HANN 0;
#X obj 23 32 inlet;
#X obj 23 86 del 40;
#X text 118 31 -----------------------------------------------------------;
#X obj 23 62 t b b, f 32;
#X text 118 19 HANN WINDOW (Cosine based);
#X text 369 90 HANN window formulation: \; f(n) = (sin(pi*n/WINDOW-LEN))^2 \;;
#X obj 244 187 until;
#X obj 244 211 i, f 7;
#X obj 301 211 + 1;
#X msg 292 187 0;
#X obj 244 163 t f b f, f 15;
#X obj 493 262 - 1;
#X obj 244 238 t f f;
#X floatatom 244 264 5 0 0 1 0-999 - - 0;
#X text 285 136 ATTACK LEN (1);
#X text 192 339 ** pi == acos(-1);
#X msg 244 136 1000;
#X obj 209 156 - 1;
#X msg 23 263 0;
#X text 30 209 FORCE SETTING TO 0 DUE TO NUMERICAL ERROR, f 15;
#X obj 244 290 expr pow(sin((acos(-1)*$f1/$f2)) \, 2);
#X text 462 352 REFERENCE VALUE OF POWER FOR HANN WINDOW IS 2 SETTING HIGHER WILL MAKE THE HANN WINDOW THINNER IN THE MIDDLE. AND SETTING IT LOWER EX: 1 \, 0.5 \, ..)0 WILL MAKE IT FATTER., f 48;
#X text 371 155 1 PARAMETERS (1) TO CHANGE FOR DIFFERENT WINDOW LENGHT, f 28;
#X obj 23 311 tabwrite \$1-ENVELOPE;
#X obj 244 314 tabwrite \$1-ENVELOPE;
#X connect 0 0 3 0;
#X connect 1 0 18 0;
#X connect 3 0 1 0;
#X connect 3 1 16 0;
#X connect 6 0 7 0;
#X connect 7 0 8 0;
#X connect 7 0 12 0;
#X connect 8 0 7 1;
#X connect 9 0 7 1;
#X connect 10 0 6 0;
#X connect 10 1 9 0;
#X connect 10 2 11 0;
#X connect 11 0 20 1;
#X connect 12 0 13 0;
#X connect 12 1 24 1;
#X connect 13 0 20 0;
#X connect 16 0 10 0;
#X connect 16 0 17 0;
#X connect 17 0 23 1;
#X connect 18 0 23 0;
#X connect 20 0 24 0;
#X restore 40 113 pd HANN;
#N canvas 101 69 384 206 UNIT-1 0;
#X msg 132 73 const 1;
#X obj 132 49 inlet;
#X obj 132 97 s \$1-ENVELOPE;
#X connect 0 0 2 0;
#X connect 1 0 0 0;
#X restore 20 138 pd UNIT-1;
#N canvas 2077 247 691 542 MID-COS 0;
#X obj 23 32 inlet;
#X text 118 31 -----------------------------------------------------------;
#X obj 265 187 until;
#X obj 265 211 i, f 7;
#X obj 322 211 + 1;
#X msg 313 187 0;
#X obj 265 163 t f b f, f 15;
#X obj 521 250 - 1;
#X obj 265 238 t f f;
#X floatatom 265 264 5 0 0 1 0-999 - - 0;
#X text 306 136 ATTACK LEN (1);
#X text 262 365 ** pi == acos(-1);
#X msg 265 136 1000;
#X obj 209 156 - 1;
#X msg 23 263 0;
#X text 30 209 FORCE SETTING TO 0 DUE TO NUMERICAL ERROR, f 15;
#X obj 265 290 expr cos(2*acos(-1)*($f1/$f2 + 0.25));
#X obj 521 225 * 2;
#X obj 265 315 * -1;
#X obj 23 62 t b b b, f 35;
#X obj 23 86 del 20;
#X obj 144 88 del 10;
#X obj 23 110 t b b;
#X msg 55 135 0, f 2;
#X text 118 19 (MID-COSINE WINDOW ENVELOPE);
#X obj 23 311 tabwrite \$1-ENVELOPE;
#X obj 265 339 tabwrite \$1-ENVELOPE;
#X connect 0 0 19 0;
#X connect 2 0 3 0;
#X connect 3 0 4 0;
#X connect 3 0 8 0;
#X connect 4 0 3 1;
#X connect 5 0 3 1;
#X connect 6 0 2 0;
#X connect 6 1 5 0;
#X connect 6 2 17 0;
#X connect 7 0 16 1;
#X connect 8 0 9 0;
#X connect 8 1 26 1;
#X connect 9 0 16 0;
#X connect 12 0 6 0;
#X connect 12 0 13 0;
#X connect 13 0 25 1;
#X connect 14 0 25 0;
#X connect 16 0 18 0;
#X connect 17 0 7 0;
#X connect 18 0 26 0;
#X connect 19 0 20 0;
#X connect 19 1 21 0;
#X connect 19 2 12 0;
#X connect 20 0 22 0;
#X connect 21 0 14 0;
#X connect 22 0 14 0;
#X connect 22 1 23 0;
#X connect 23 0 25 1;
#X restore 60 89 pd MID-COS;
#X obj 20 25 inlet;
#X obj 158 10 loadbang;
#X obj 158 35 f \$2;
#X text 165 76 ARGUMENTS: \; \$1: ASSOCIATED OSCILLATOR ID \; \$2: DEFAULT ENVELOPE TYPE \;;
#X connect 1 0 3 0;
#X connect 1 1 2 0;
#X connect 1 2 4 0;
#X connect 5 0 1 0;
#X connect 6 0 7 0;
#X connect 7 0 1 0;
