#N canvas 790 180 737 359 12;
#N canvas 89 57 450 250 (subpatch) 0;
#X array \$1-WAVETABLE 3702 float 2;
#A color 0;
#A width 2;
#X coords 0 1 3702 -1 245 89 1;
#X restore 108 144 graph;
#X obj 108 236 bng 18 250 50 0 \$0-LOAD \$0-i-LOAD LOAD 21 10 0 11 #0f8910 #000000 #000000;
#X symbolatom 161 236 27 0 0 1 - \$0-i-GUI-WAVE-LOC \$0-GUI-WAVE-LOC 12;
#X obj 102 102 cnv 17 215 18 empty empty ===\ |....WAVETABLE....|\ === 12 9 0 12 #000000 #ffffff 0;
#N canvas 788 296 644 489 LOAD 0;
#X obj 118 108 openpanel;
#X obj 118 253 soundfiler, f 33;
#X listbox 346 278 20 0 0 0 - - - 0;
#X obj 118 35 bng 19 250 50 0 empty empty empty 0 -10 0 12 #fcfcfc #000000 #000000;
#X text 18 9 LOAD SAMPLE;
#X obj 346 308 unpack f;
#X floatatom 118 279 9 0 0 1 WAVE-SIZE - - 0;
#N canvas 981 425 573 338 PATH-TRIM 0;
#X listbox 77 106 28 0 0 0 - - - 0;
#X symbolatom 77 59 39 0 0 0 - - - 0;
#X obj 77 82 list fromsymbol;
#X obj 122 153 list tosymbol;
#X symbolatom 122 177 35 0 0 0 - - - 0;
#X obj 77 25 inlet;
#X obj 122 212 outlet;
#X obj 78 128 list split 35;
#X connect 0 0 7 0;
#X connect 1 0 2 0;
#X connect 2 0 0 0;
#X connect 3 0 4 0;
#X connect 4 0 6 0;
#X connect 5 0 1 0;
#X connect 7 1 3 0;
#X restore 332 155 pd PATH-TRIM;
#X obj 118 10 r \$0-LOAD;
#X msg 118 63 symbol /home/mobin/Documents/Sounds/Waves, f 35;
#X symbolatom 118 136 36 0 0 0 - - - 0;
#X msg 118 203 read -resize \$1 \$2-WAVETABLE;
#X obj 332 177 s \$0-i-GUI-WAVE-LOC;
#X obj 519 155 s \$0-WAVE-LOC;
#X text 519 175 FOR SAVESTATE;
#X obj 393 91 r \$0-LOAD-WAVE-LOC;
#X obj 393 116 sel LOCATION;
#X obj 485 116 bng 20 250 50 0 empty empty empty 0 -10 0 12 #fcfcfc #000000 #000000;
#X obj 118 451 s \$1-WAVE-SIZE;
#X obj 118 176 pack s \$1;
#X obj 160 298 t b f;
#X obj 160 328 / 1;
#X obj 160 352 s \$0-GUI-ORIG-FREQ;
#X connect 0 0 10 0;
#X connect 1 0 6 0;
#X connect 1 1 2 0;
#X connect 2 0 5 0;
#X connect 3 0 9 0;
#X connect 5 0 21 0;
#X connect 6 0 18 0;
#X connect 6 0 20 0;
#X connect 7 0 12 0;
#X connect 8 0 3 0;
#X connect 9 0 0 0;
#X connect 10 0 7 0;
#X connect 10 0 13 0;
#X connect 10 0 19 0;
#X connect 11 0 1 0;
#X connect 15 0 16 0;
#X connect 16 0 17 0;
#X connect 16 1 10 0;
#X connect 19 0 11 0;
#X connect 20 0 21 0;
#X connect 20 1 21 1;
#X connect 21 0 22 0;
#X restore 101 52 pd LOAD;
#X obj 271 144 cnv 1 1 89 \$0-WAVE-PHASOR-1-CURSOR \$0-i-WAVE-PHASOR-1-CURSOR empty 20 12 0 12 #0400ff #404040 0;
#N canvas 1098 322 533 351 CURSOR 0;
#X obj 305 79 s \$0-i-WAVE-PHASOR-1-CURSOR;
#X obj 305 104 r \$0-WAVE-PHASOR-1-CURSOR;
#X obj 88 152 /, f 10;
#X floatatom 88 177 7 0 0 1 SAMPLE-X-PIXEL - - 0;
#X obj 88 102 t b f, f 10;
#X msg 52 270 pos \$1 \$2;
#X obj 52 196 *;
#X obj 52 293 s \$0-i-WAVE-PHASOR-1-CURSOR;
#X msg 88 127 245;
#X msg 305 50 get_pos;
#X obj 305 129 unpack f f;
#X floatatom 305 154 5 0 0 0 - - - 0;
#X floatatom 372 154 5 0 0 0 - - - 0;
#X obj 307 273 s \$0-i-WAVE-PHASOR-1-CURSOR;
#X text 124 127 \$0-WAVETABLE SIZE(X);
#X obj 52 50 r \$1-WAVE-PHASOR-1-CURSOR-POS;
#X msg 307 248 size 1;
#X obj 52 220 + 108;
#X obj 52 245 pack f 144;
#X obj 88 78 r \$1-WAVE-SIZE;
#X text 36 10 COULD ADD ADDITIONAL CURSORS WITH POS COMING FROM OSCILLATOR IDs, f 65;
#X connect 1 0 10 0;
#X connect 2 0 3 0;
#X connect 3 0 6 1;
#X connect 4 0 8 0;
#X connect 4 1 2 1;
#X connect 5 0 7 0;
#X connect 6 0 17 0;
#X connect 8 0 2 0;
#X connect 9 0 0 0;
#X connect 10 0 11 0;
#X connect 10 1 12 0;
#X connect 15 0 6 0;
#X connect 16 0 13 0;
#X connect 17 0 18 0;
#X connect 18 0 5 0;
#X connect 19 0 4 0;
#X restore 101 77 pd CURSOR;
#N canvas 1151 51 510 421 PARAMETER-MANAGEMENT 0;
#X text 59 22 - SAVESTATE FOR: \; - ADSR VALUES \; - WAVE LOADED \;, f 20;
#X obj 65 79 text define -k \$0-PARAMS;
#A set /home/mobin/Documents/Sounds/metronome.wav \;;
#X obj 66 129 r \$0-WAVE-LOC;
#X obj 66 154 text set \$0-PARAMS 0 0;
#X obj 69 209 savestate;
#X obj 129 239 text tolist \$0-PARAMS;
#X obj 69 306 s \$0-LOAD-WAVE-LOC;
#X obj 69 276 unpack s, f 11;
#X connect 2 0 3 0;
#X connect 4 0 7 0;
#X connect 4 1 5 0;
#X connect 5 0 4 0;
#X connect 7 0 6 0;
#X restore 194 77 pd PARAMETER-MANAGEMENT;
#X text 380 119 ONLY THE ARRAY NAME AND WAVE SIZE SHOULD BE USING \$1 \, SINCE THEY WILL BE SHARED TO OSCILLATOR., f 33;
#X text 380 173 IMPORTANE: CREATION ARGUMENTS MUST BE UNIQUE IN WHOLE PERFORMANCE, f 37;
#X text 101 13 EXAMPLE CREATION ARGUMENT 10: CLIP 1 WAVETABLE 0;
#X obj 319 102 cnv 17 38 18 empty \$0-LABEL-ID 0 7 9 0 12 #000000 #ffffff 0;
#N canvas 89 57 382 204 ID-LABEL 0;
#X obj 41 23 loadbang;
#X obj 41 48 f \$1;
#X msg 41 123 label \$1;
#X obj 41 148 s \$0-LABEL-ID;
#X floatatom 41 73 5 0 0 0 - - - 0;
#X obj 41 97 expr symbol(\$1);
#X connect 0 0 1 0;
#X connect 1 0 4 0;
#X connect 2 0 3 0;
#X connect 4 0 5 0;
#X connect 5 0 2 0;
#X restore 278 53 pd ID-LABEL;
#X obj 289 126 nbx 5 18 -1e+37 1e+37 0 0 \$0-GUI-ORIG-FREQ-d \$0-GUI-ORIG-FREQ [Hz] -30 9 0 12 #fcfcfc #000000 #000000 0 256;
#X text 380 98 PASSING INFORMATION WITH \$1 INSTEAD OF \$0;
#X coords 0 -1 1 1 260 165 2 100 100;
