#N canvas 763 185 1017 512 12;
#X obj 246 105 phasor~;
#X obj 246 208 wrap~;
#X obj 229 398 outlet~;
#X obj 19 227 *~ 997;
#X obj 19 252 +~ 1;
#X text 243 10 FREQUENCY[Hz];
#X text 473 143 PHASOR RANGE (WINDOW-SIZE-3);
#X text 25 278 ENVELOPE OF LENGHT 1000;
#X obj 643 263 snapshot~;
#X obj 715 239 tgl 20 0 empty empty empty 0 -10 0 12 #fcfcfc #000000 #000000 0 1;
#X obj 246 183 +~, f 20;
#X obj 246 243 *~, f 33;
#X obj 715 33 inlet;
#X obj 246 31 inlet~;
#X obj 382 31 inlet~;
#X obj 715 263 metro 10;
#X obj 474 193 - 3;
#X obj 246 309 tabread4~ \$1-WAVETABLE;
#X obj 474 165 r \$1-WAVE-SIZE;
#X obj 521 32 inlet;
#X msg 521 85 0;
#X text 519 11 PHASE RESET;
#X text 380 10 INIT-PHASE[0:1];
#X obj 19 334 tabread~ \$2-ENVELOPE;
#X obj 229 353 *~;
#X obj 643 373 s \$1-WAVE-PHASOR-\$3-CURSOR-POS;
#X text 12 17 ARGUMENTS: \; \$1: ASSOCIATED WAVETABLE ID \; \$2: ASSOCIATED ENVELOPE ID \; \$3: OSCILLATOR ID \;;
#X text 713 13 CURSOR POS SEND ON/OFF;
#X text 22 458 != NO VELOCITY(VOLUME MANAGEMENT. JUST READING FUNCTIONALITY. BUILDING BLOCK. SEPARATION OF TASKS =!, f 100;
#X connect 0 0 10 0;
#X connect 1 0 3 0;
#X connect 1 0 11 0;
#X connect 3 0 4 0;
#X connect 4 0 23 0;
#X connect 8 0 25 0;
#X connect 9 0 15 0;
#X connect 10 0 1 0;
#X connect 11 0 8 0;
#X connect 11 0 17 0;
#X connect 12 0 9 0;
#X connect 13 0 0 0;
#X connect 14 0 10 1;
#X connect 15 0 8 0;
#X connect 16 0 11 1;
#X connect 17 0 24 1;
#X connect 18 0 16 0;
#X connect 19 0 20 0;
#X connect 20 0 0 1;
#X connect 23 0 24 0;
#X connect 24 0 2 0;
